ply
format ascii 1.0
element vertex 2100
property float x
property float y
property float z
end_header
0.468791 -1.013222 2.732978
-0.442849 0.049297 5.904238
0.859342 -0.812392 1.673540
0.628238 -0.546790 4.636882
1.018591 0.376872 2.899802
0.293493 0.999305 2.680176
-0.901799 -0.536045 3.782378
-0.668057 -0.823594 4.195313
-0.824879 -0.297017 4.519115
0.847758 -0.726583 0.182760
0.298608 0.210093 5.141514
-0.444712 -0.856145 3.673914
-0.571880 0.746663 3.943087
-1.228968 -0.176567 0.135140
-1.083988 -0.063907 0.901650
1.011344 0.456816 2.641576
-0.296643 0.907988 4.383315
0.426042 -0.946932 2.921305
0.972066 0.488199 3.268987
1.211108 -0.015338 0.860781
0.690980 -0.347103 4.619446
-0.943090 -0.267628 4.123221
-1.115818 0.354217 1.736757
0.561070 0.051525 4.831538
0.005562 -1.329770 0.745198
-0.329192 -0.263172 5.434031
-0.394895 0.285280 5.846787
0.337724 -1.112795 2.194753
0.361488 0.264641 5.576214
-0.559618 -0.894165 2.284491
-1.142356 -0.430476 1.298505
-0.724736 0.727557 3.620237
0.617524 -0.689575 4.419639
0.277204 -0.197688 5.607005
0.303205 1.079074 0.860859
1.022256 0.674921 0.872061
-0.724399 -0.732514 4.135034
0.613738 0.955766 1.406720
-1.078039 -0.503318 1.195536
0.844183 0.798773 2.266598
-0.157549 1.135834 1.343960
-0.182453 -1.131266 3.611682
0.856925 0.577251 3.327917
-1.024439 -0.106616 4.067788
-0.697653 -0.979670 1.709410
-0.261059 0.336803 5.804543
-1.190819 -0.324403 2.999771
-0.257777 1.064867 3.927231
0.502481 1.068858 0.820867
1.145263 -0.005030 0.284700
-0.331797 0.255434 5.831445
-0.592859 0.855530 3.364478
0.204837 -0.237198 5.181744
-0.390080 0.180440 5.021764
-0.640488 0.962668 0.847537
1.027166 -0.327388 2.470480
-1.086175 -0.011058 1.747072
0.993818 -0.484616 3.744791
-1.092976 0.299089 1.273612
-0.447901 0.924272 3.180974
0.733554 0.742933 3.537619
-1.141210 0.244382 1.464980
-0.012915 1.116274 2.544045
0.253123 -0.288465 5.826398
-0.019978 1.031549 3.153616
-0.312887 0.131174 5.054054
-1.037177 -0.419196 2.311912
-0.962280 -0.177823 4.373308
-1.080578 0.565816 0.960171
0.595655 -1.048778 1.799339
0.296253 -0.604374 4.647709
0.422388 1.018101 3.119199
-0.792140 0.523353 3.978571
0.112448 1.043504 3.459293
0.207400 0.284814 5.006603
1.111389 0.225946 1.873742
0.178753 0.397079 5.589399
-0.778853 0.735184 3.602278
-0.135463 -0.401213 5.381008
0.457375 1.019745 2.012103
-0.592301 -0.107541 4.944864
-0.719433 -0.868222 2.546923
1.143599 -0.453266 1.377115
0.175616 -1.179944 0.055890
-0.940611 -0.361560 3.854932
1.144562 0.410881 0.182538
-1.278710 -0.015064 0.997610
-0.495875 0.417652 4.692199
0.920416 -0.753646 0.199908
-1.032239 -0.005586 3.724936
-0.248104 -0.303820 5.162145
1.110031 -0.000102 2.359955
-0.248336 -0.210796 5.491546
0.232692 0.306147 5.889209
-1.079576 -0.138286 2.066426
1.054996 0.712460 0.309128
-1.005610 -0.717089 0.520620
-0.917490 0.109334 4.528165
-0.369392 0.249686 5.025894
-1.006343 -0.461735 3.469221
-1.172109 0.221218 1.062828
0.398931 -0.003854 5.613420
0.763604 -0.580456 3.501569
-0.371117 0.027254 5.619053
-0.018086 -0.389856 5.555550
0.747332 0.797521 3.052633
1.010694 0.043839 3.987379
1.012899 -0.400345 2.525668
1.257850 0.208879 0.956209
1.060240 0.508531 1.859759
-0.832130 0.787739 0.049467
-0.773411 0.802255 1.588628
0.292022 0.941243 4.437845
-0.542329 -0.461573 4.705664
1.041965 -0.125540 2.026612
-0.611023 0.850043 3.803000
-0.695913 -0.945768 2.882176
0.232719 -0.347675 5.513801
1.137582 0.547303 0.441741
-0.370736 0.087036 5.420919
-0.769503 -0.651157 3.335268
-0.755647 -0.954360 0.137416
1.169480 0.058122 1.813924
0.302681 0.219529 5.176547
-0.297364 -0.958453 4.163170
0.599455 -0.941047 2.139114
-1.001681 0.606340 1.421241
0.353331 1.077272 1.403113
-1.051966 0.295815 2.652011
0.872991 -0.688837 3.645910
-0.960177 0.444575 3.436271
1.107584 0.420982 0.380121
-0.732604 0.229697 4.608093
0.842212 -0.958112 1.046391
-0.710000 0.864516 0.460271
-1.113605 -0.277836 0.291234
0.068273 -0.425223 5.380706
0.328013 -1.046536 2.967102
1.199272 0.239292 1.631055
-0.641489 -1.007734 1.127274
-0.919388 -0.145414 4.301052
-0.380981 0.095707 5.782316
-1.158306 0.019198 2.381195
-0.295324 0.968008 3.704045
0.692066 0.743960 3.609551
0.229001 -0.332314 5.122519
1.028345 -0.494009 3.340903
0.281608 -0.615160 4.825122
1.018770 -0.551524 1.583656
0.614919 0.807467 3.672285
-0.718090 0.819961 2.812347
-0.365723 -0.087154 5.151184
-0.847814 -0.605534 4.317825
-0.982522 -0.327109 2.758737
1.051632 -0.422595 0.817705
1.032031 -0.396381 2.072294
0.511952 -1.090816 1.774869
1.079117 -0.169173 2.758041
1.086100 -0.064182 2.822371
0.903650 -0.557444 4.080559
0.780418 -0.927933 0.955100
0.461376 1.118801 0.739180
-1.136904 0.124609 2.354652
-1.042050 0.370259 2.460952
-1.118159 -0.304608 0.771449
-0.181024 0.299295 5.644089
-0.267950 1.083318 2.695784
-0.358066 1.088578 2.853458
-1.181220 0.016603 0.705037
1.187666 0.370640 1.104146
1.138576 -0.057832 0.138579
-0.350127 -0.316421 5.895956
-0.120416 0.456268 4.974412
-0.332953 0.190239 5.893030
0.369691 -1.129960 0.262076
-0.894409 0.701839 3.389125
-0.319482 1.063528 2.791691
-0.077535 -0.432092 5.379654
0.539054 -0.781175 4.628020
-0.756882 -0.832138 3.218420
-0.286692 1.125990 0.919728
1.209632 0.196099 1.145854
0.434821 1.084187 1.019493
-0.769036 0.171743 4.673813
0.684308 -0.045214 4.758460
-0.746282 0.836652 2.402722
0.737211 0.711085 3.813276
0.045994 -0.388569 4.946224
-0.827904 0.744194 2.933036
0.788089 -0.704399 3.534372
-0.255522 -1.111325 2.320802
-0.402553 -0.113844 5.760578
-0.148054 -0.411722 5.260883
0.777571 0.855570 1.810510
-0.102534 -1.049617 2.835144
0.536752 1.030432 0.787017
-0.745418 0.798657 3.445184
-0.721097 -0.924851 1.198437
0.287584 1.000268 3.830098
0.011598 0.412505 5.886028
-0.996965 0.170393 3.262548
0.788016 -0.864987 0.108184
1.121602 0.342022 2.578425
-0.697468 0.926885 3.172627
0.408425 -0.284948 4.902667
0.315800 0.153428 4.985592
0.300101 1.213314 0.473770
-0.323064 0.240709 5.104757
-0.240722 1.067133 2.544564
-0.992617 -0.444748 3.361966
0.060542 1.197061 1.688266
0.399071 1.104324 2.997803
-0.034138 0.888321 4.458983
-1.213731 0.242779 0.971751
0.167699 -1.035657 3.019581
0.320056 1.016381 3.886952
0.380977 0.934977 3.578181
-0.959680 0.215647 4.202458
1.058697 0.283403 2.669286
0.291905 -0.572055 4.796814
1.061472 -0.475112 1.079030
0.933142 0.710623 0.183400
1.097721 0.156925 2.834231
-1.074753 0.474115 0.892048
0.703117 0.759343 4.527424
0.232553 0.336222 5.754490
0.563371 1.019605 3.392981
-0.865012 -0.799269 1.507939
-0.273911 1.154025 1.583270
-0.821237 -0.738879 2.176484
0.831354 0.730467 2.762930
-0.361080 -0.319493 5.375241
-0.248226 0.295295 5.815910
-0.558182 -0.893578 3.710061
-0.693046 0.667902 4.118338
1.032269 -0.355291 3.490364
-0.895752 -0.520417 3.843437
-0.796012 -0.812648 2.227053
-1.010987 -0.163330 3.582823
0.056402 -0.403052 5.221146
0.412161 -0.953239 3.399550
-0.971294 0.477525 0.084170
-0.515093 -1.070119 1.896884
0.095787 1.024042 4.164185
0.314834 -1.204462 1.274313
0.003358 1.089816 0.266440
0.521391 -1.103841 1.577684
1.211124 -0.012372 0.327695
0.601748 1.158817 1.987382
0.226165 0.178573 5.435050
0.922996 0.059943 3.745314
0.814762 0.874277 1.226311
0.248799 -1.010231 3.287954
0.825566 -0.783438 2.861654
-1.114940 -0.563278 2.569516
0.750154 0.775569 2.187814
-0.013502 1.012812 3.789846
-0.635839 1.014696 1.777949
0.415070 -0.483792 4.756902
-0.149560 -1.083695 3.632526
-0.446453 -0.026530 5.243632
0.006372 -0.291970 5.646374
0.181387 -1.212108 0.256632
0.323862 -0.049577 5.822447
-0.041647 0.358082 4.961859
-0.567845 -1.074778 0.223851
1.180192 0.269908 2.458674
0.818733 0.919489 1.321334
0.055222 -1.233230 -0.029304
0.801373 0.004637 4.775593
-1.142909 0.010666 2.023305
-0.264731 -0.377024 5.440644
-1.066942 -0.520291 1.848296
0.042177 -0.386544 5.648546
-0.676404 -0.860932 2.473244
0.253144 -1.180840 1.379637
-0.058795 1.073860 3.204954
1.292168 -0.074446 1.735634
0.643644 -0.894855 2.550243
0.638651 -0.934069 1.362449
0.346172 1.081638 2.325213
0.944610 -0.041329 4.115538
-0.095352 0.916658 4.327210
0.955765 -0.837347 1.097477
0.220621 0.971101 4.541750
0.535321 -0.969302 2.554165
-0.691429 0.702464 3.567904
-1.216544 0.162856 0.199859
-0.605218 0.829161 3.453599
1.057049 0.191806 3.730291
1.141807 0.310343 2.044581
-0.168918 0.383827 5.734063
-1.250390 -0.233709 0.343819
-0.467012 -0.965916 3.711226
0.923912 0.276995 4.501091
0.000305 -0.364731 5.786107
0.332648 -0.209315 5.075261
0.391861 -0.273725 5.290572
-0.310500 -0.094108 4.884518
0.662784 -1.004336 1.758916
0.077538 -1.037271 3.337855
0.233251 -1.069071 4.019987
-0.291697 -1.197533 0.432806
-0.993627 -0.417632 3.442598
0.772865 -0.137818 4.610467
-0.002437 0.988938 4.508462
-0.819198 -0.915091 0.783383
-0.316128 0.210390 5.188156
-0.342374 0.265978 5.754440
-1.127182 -0.163442 3.328951
0.982043 -0.096777 3.587970
0.401958 -0.174863 5.910476
0.639707 -0.881057 4.267636
0.471243 -1.120084 0.294575
-0.049024 0.368167 5.549705
0.285280 0.298982 4.976554
-0.690132 0.951439 0.777940
-1.065958 -0.562124 0.273728
-0.309551 -1.008170 4.103395
1.090162 0.330828 2.017994
-0.095104 -1.178066 0.165960
-0.501630 -1.127632 0.068619
-1.144152 -0.154959 2.805380
0.988472 -0.599137 1.390484
0.234297 -0.875268 4.523612
0.332676 -1.077492 1.783927
-0.525188 0.697280 4.617482
-0.592145 -0.990714 1.573570
0.581446 -0.887802 3.217254
0.954108 -0.078592 4.370892
0.441658 0.186663 5.117907
-0.494756 0.981887 2.668949
-0.709264 0.824347 3.077966
-0.141080 -0.352151 5.492735
0.452263 -0.004301 5.953831
-0.766114 0.945958 1.380769
0.989888 -0.604429 1.640495
1.204218 -0.125646 -0.019499
-1.055227 -0.264616 0.791917
-0.400412 0.929610 2.404704
-0.736684 -0.706167 3.989706
-1.113920 -0.112037 2.801847
0.424893 -0.610094 4.660958
-0.262812 -1.031050 2.548707
-0.355744 1.107478 1.237497
0.955791 -0.726655 2.655775
1.151757 -0.042667 2.582498
1.016458 -0.646838 1.281520
0.344166 -1.149515 1.488832
-0.298997 1.054855 2.733207
-0.761663 0.586849 3.785471
-0.226765 0.220327 5.860040
0.756122 0.958941 1.159820
0.257372 1.016829 4.025262
0.613607 -0.755224 4.339947
-1.182353 0.203723 0.296318
-0.992597 0.049096 3.934866
-0.280294 -1.153751 0.389483
-0.324347 0.105803 5.153368
0.537545 -0.818291 4.361088
-0.036687 -0.425404 5.499247
0.840188 -0.750224 3.272716
-1.109310 0.456026 1.157109
1.132484 0.569002 1.504217
0.229832 -1.064450 3.478987
0.851695 -0.581532 4.017018
0.759417 0.777027 3.547162
-1.009535 0.110800 3.615344
-0.978660 0.683979 1.824802
-0.357416 -1.006304 2.149810
0.246281 0.209416 5.639804
0.363820 0.403020 4.866735
0.871655 0.857499 1.079614
1.102925 -0.110136 0.735403
0.363271 1.044552 3.003308
-0.589783 0.240170 4.761329
-0.711076 -0.875403 3.652950
-0.638511 -0.853329 1.066843
-0.388603 1.061414 2.241774
0.380921 0.140266 5.607900
0.832335 0.672189 3.699002
0.949232 0.102239 4.237598
0.668134 0.926279 2.203982
-1.049650 0.497161 0.722289
0.912831 0.682025 0.323450
0.748562 0.718997 4.395262
-0.480297 0.761338 3.372901
-0.483751 -1.097893 1.862452
-0.020655 -0.405049 5.597393
-0.868594 0.528152 3.327400
0.373794 0.492452 4.849922
-0.263066 0.314845 5.985561
0.958811 -0.449565 3.160857
-0.233437 0.386208 4.913312
0.323773 0.032844 4.898224
0.076244 0.375491 5.368773
-0.019957 1.088898 2.901375
0.941767 0.645010 1.638631
0.615309 0.993939 0.035789
-1.086232 -0.427202 1.265842
-0.457511 1.040117 1.664728
0.787456 -0.904689 0.593449
0.212647 -0.355578 5.026087
1.144749 0.094446 1.325638
-0.814573 -0.507208 4.117768
-1.120478 0.386336 0.076162
0.914636 -0.391124 3.857535
1.041801 -0.009351 4.316779
-0.638439 -0.916445 2.793271
-0.556843 -0.895217 3.132383
0.003199 1.035691 2.879566
-0.096265 -0.441174 5.492217
-0.314657 -0.253336 5.181185
0.024546 -0.438399 5.346365
0.087629 1.065753 4.595170
-0.732873 -0.547565 4.455161
0.389504 0.908177 3.961588
0.179514 0.564420 4.763347
-0.380560 -1.076321 0.949086
-0.401704 1.088223 0.598456
0.535308 -0.864345 3.630874
-0.179789 1.105228 2.599203
0.094304 -1.189575 0.764904
0.273492 -0.254411 5.713657
-0.426193 0.089116 4.936798
-0.928773 0.615165 1.907977
-0.993181 0.317620 3.382802
1.038866 -0.056369 3.146252
-1.220618 -0.075265 1.581759
-1.135924 -0.102915 3.172876
0.774550 -0.837718 2.420824
-1.282930 -0.148089 0.363960
-0.947140 0.667931 1.870004
-0.535503 -0.973377 1.805431
-1.089953 0.118761 3.708903
1.219985 0.006241 1.228289
0.843807 0.807648 2.321861
-1.029865 -0.482658 0.652840
0.466786 -0.863842 3.712032
0.168495 0.289743 5.166547
0.341424 -1.131995 3.303583
0.149519 1.103085 2.746050
0.689558 -0.950796 3.037816
-0.605386 1.053525 0.969851
0.290663 0.190197 5.340485
0.192975 1.224292 2.560275
0.857490 0.477128 4.146354
0.021907 -0.396288 5.413966
-1.095112 -0.143131 3.507205
0.961715 -0.205839 4.439146
-0.865707 -0.875744 0.014187
-1.062153 -0.456630 1.371960
1.111700 0.008967 1.874648
-0.000330 0.810939 4.616986
-0.295635 -1.083941 3.289926
-0.136088 -0.405600 5.929410
1.097904 0.459698 1.552944
-1.144373 0.325549 1.998815
1.005160 -0.159353 1.459638
-0.953732 -0.302039 3.507180
0.442849 -0.557254 4.722959
0.987454 0.477604 3.544658
0.046482 1.285186 0.470666
-0.119598 -0.377047 5.095336
-0.505811 0.678830 4.731761
0.504036 0.003049 5.935156
1.054266 -0.615972 0.700983
1.161093 -0.019364 0.034320
1.067535 0.308457 2.301796
-0.914247 -0.641604 0.724044
0.924410 0.200140 3.593701
0.105811 -0.461521 6.015485
-0.281744 1.089838 4.137701
0.518907 -0.971001 1.516849
-1.187943 0.161752 1.180628
-0.841570 -0.461374 3.781133
0.277350 0.280479 5.068964
-0.443843 -1.065911 0.983039
1.000544 -0.534892 3.770552
-0.011781 0.349893 5.076238
-0.948805 0.502177 3.035917
-0.422898 -1.080658 1.084998
0.065377 1.162295 2.541285
1.130151 0.216967 1.091114
-0.731067 0.935323 2.873638
0.356069 1.081678 2.521077
-1.181868 0.316717 1.796321
0.942759 -0.413073 3.244200
-0.971522 -0.565638 1.779560
-0.823461 -0.721116 4.062678
-0.471263 0.852065 3.416948
0.090129 0.415614 5.393067
0.949198 -0.116448 3.741810
0.610196 -0.869011 3.788427
-0.013775 1.128248 1.620172
0.312274 -0.213635 5.893467
0.746201 -0.644259 4.045790
0.851000 -0.146296 4.391921
0.449552 1.161183 1.400713
0.893544 0.779035 0.731699
-0.358447 0.232572 5.553189
-1.120338 -0.092762 1.675846
-0.182774 0.233935 5.452669
0.266594 -1.088382 2.369430
-1.140711 0.281005 2.370851
-0.864965 -0.956992 0.033997
0.383253 -0.175599 5.876939
0.236938 0.334484 5.198478
1.012176 -0.404635 3.027278
-0.462409 0.375389 4.723592
-0.306984 -1.078611 2.003531
0.497366 -0.838611 4.267361
-0.764395 -1.074127 0.010389
0.348916 0.248929 5.668354
0.864046 0.516842 3.733609
0.885207 -0.421682 4.213572
-0.029807 1.181763 2.077192
0.151061 -1.067759 2.295003
0.749672 0.820612 2.453253
0.914585 -0.251358 3.502738
-0.111837 -1.042527 4.256808
-0.230739 0.910611 4.540223
-1.268795 -0.045771 1.806855
-0.064332 -0.388515 5.475573
-0.990837 0.324343 3.006278
-1.178980 0.177189 1.832712
-0.838835 -0.722322 3.336834
-0.176805 0.440065 5.565672
0.486186 0.485269 4.767745
-0.370944 -1.140929 3.232695
-0.428719 -0.132149 5.595264
0.400293 0.665982 4.653484
0.936680 -0.454624 4.073724
0.519732 -1.058270 2.222393
-0.442327 -1.127942 1.117435
-0.191224 -0.799836 4.639489
0.497276 1.143142 2.257499
0.173695 -0.959941 3.752522
1.026910 0.406105 2.143792
0.717715 0.740265 3.850676
1.146836 -0.041604 0.837035
0.049533 -1.186077 1.179611
-0.470850 0.997783 2.965604
-0.712614 -0.766154 3.569013
-0.755475 -0.447475 4.518214
0.170502 0.460656 5.364439
0.857086 0.672637 3.263039
0.138042 1.096843 2.288571
0.708180 -0.693030 3.650131
0.558223 -0.970782 2.986460
0.119708 1.114131 1.644998
0.764165 0.699251 4.073386
-0.279178 -1.134091 1.626757
0.732897 1.024686 0.392059
-0.169432 0.344552 5.869584
1.052748 0.385178 1.385721
0.184860 -1.113335 3.232887
0.580272 -0.972287 0.235897
1.164186 -0.380086 1.087892
-1.044185 0.450822 2.753052
-0.880135 -0.569554 3.068072
-0.308283 0.172914 5.885859
-0.424780 0.083088 5.155448
-0.626122 -1.084248 1.552308
-0.328308 -0.065494 6.045684
0.205284 0.898157 3.582649
-0.446341 -0.939254 2.849747
0.186294 -1.140263 0.294142
-0.350661 0.040989 5.129657
-0.893672 0.729680 2.287151
0.926905 0.547553 2.915625
-1.194703 0.381323 0.215517
-0.729128 0.838570 3.082619
1.001462 -0.031208 4.141915
1.174136 -0.006919 2.653505
-0.722555 0.830969 3.390205
-0.417291 0.132846 5.550380
0.840554 0.680512 4.385388
1.060348 -0.234945 2.545993
-1.005055 0.651023 2.158537
1.046581 -0.642990 0.054321
0.764246 -0.856658 1.814626
0.713260 -0.778149 4.124644
0.247698 0.483252 5.504588
-0.253411 -0.919218 4.189917
0.417217 -0.078317 5.083643
0.827460 0.547612 3.052907
0.747553 0.786268 4.145837
-0.158587 0.431413 5.497183
0.164067 0.975514 4.306978
-0.482165 -1.112463 0.210617
0.105658 -0.530700 5.735405
-0.104058 -0.432686 4.948669
-0.111483 -0.439707 5.198213
-1.056063 -0.146167 3.991728
1.135031 0.182975 3.742348
-0.977862 -0.617162 1.140253
-1.230223 -0.204627 0.959226
-1.004881 -0.461191 3.644077
-0.308089 1.066427 3.876312
0.960924 -0.770925 2.249971
0.562398 -0.979681 3.121653
0.148323 -1.001305 3.535154
-0.101662 0.848603 4.639644
0.422963 -0.079345 4.841087
-0.937108 -0.596097 3.128968
-1.251623 -0.221731 0.828643
0.296910 0.222912 5.334637
-1.264655 0.160013 1.735012
-0.138991 1.168310 0.332561
0.469636 -0.050753 4.838640
-0.026506 0.482301 5.787047
-0.071371 -0.468298 5.456750
-1.140744 -0.535986 1.715612
0.724513 -0.595937 3.340588
0.994488 -0.505107 2.240423
-0.166647 0.363070 5.669853
0.393011 1.144767 0.947285
-0.059529 -1.037785 3.221103
-0.629245 1.177930 0.189571
0.019219 -1.263118 1.691242
-1.131348 -0.387408 0.601031
0.161048 -1.242541 1.643741
1.204301 0.297127 2.148706
1.039779 -0.271171 2.791171
-0.349560 0.182279 5.912381
-1.030057 -0.544281 1.876248
-0.475438 -1.183766 0.377330
0.475755 -0.803908 4.583848
0.207989 -0.306902 5.353366
-0.977326 -0.805803 1.088376
1.008276 0.023354 3.899172
-0.538398 1.072629 0.167410
-0.040612 -0.459556 5.155811
0.834359 -0.353038 4.558165
-0.326551 -0.804776 4.539979
0.864320 -0.782387 0.448360
1.184852 0.089651 2.015650
0.370134 -1.060930 2.851909
0.396666 0.029430 5.452812
-0.868819 0.691426 0.226389
0.875907 0.737193 2.116816
-0.584494 1.006311 3.225864
-1.300150 0.210978 0.842935
-0.951379 0.632252 0.343223
0.507120 0.931229 2.172968
-0.593930 -0.061105 4.883182
1.031609 -0.259573 4.017472
-1.165084 0.056522 2.271805
-0.314636 -0.250384 5.109604
-0.441958 -0.874007 4.060815
0.619338 -1.023132 2.428996
0.574697 -0.806274 3.550367
-0.232228 0.993164 3.977935
-1.121034 0.236725 2.988296
-0.123735 -1.074389 3.434142
-0.257193 -0.341860 5.372957
-0.425546 -0.641022 4.708340
-1.152231 0.015795 2.060735
0.897642 -0.042043 4.422635
0.871770 -0.815486 0.919830
-0.178786 1.082113 3.353005
0.855493 0.782087 1.048818
0.472353 0.934242 3.719594
0.191212 -0.571064 4.806824
0.056334 0.426034 5.755722
0.770251 -0.636500 4.069737
-1.194324 0.044691 2.351014
-0.332749 -0.247907 5.134034
1.110712 0.213879 0.312760
-0.605349 0.819757 4.291113
-0.222119 1.149669 2.689771
0.018909 -1.019407 3.624037
0.242079 -0.448075 5.117262
-0.909276 0.431481 3.771891
0.980789 -0.572154 2.188508
-1.074600 -0.323498 1.925632
-0.482465 0.648250 4.585242
-0.956149 0.581245 1.688277
-0.883827 -0.737741 1.877335
-0.054367 1.015818 3.353641
1.005501 -0.504580 2.843227
0.079689 -1.104221 3.113552
-1.175198 0.037684 1.365367
0.114032 -0.349633 5.669927
-0.928904 -0.857758 0.258278
1.185738 0.260500 1.373376
0.858434 -0.634435 2.776059
0.007888 -1.199067 0.467516
-1.097677 0.000065 3.321687
0.352889 -0.136728 5.407253
-0.218363 1.048223 3.518517
-0.917655 0.839421 0.363549
0.467943 -0.292862 6.106024
-0.929459 0.810255 0.643829
1.250337 -0.105733 1.457103
0.040378 -0.946809 4.375629
-0.400852 0.212309 5.073364
0.264338 -1.096436 1.484839
-1.215548 -0.250034 0.307300
-0.424850 -0.124383 5.245337
-0.097709 0.423462 5.652722
0.240133 -0.393046 4.961770
-0.144673 1.031229 3.406129
0.963398 0.835510 0.470151
0.082197 -1.043350 3.960059
0.246394 -1.206897 0.667001
-1.052799 -0.676936 1.678646
-1.018496 -0.513569 0.242458
-1.017202 -0.400804 1.175352
0.645668 0.296893 4.745695
1.070967 0.000331 2.681494
-0.005898 0.348588 5.144381
-0.233651 1.128128 1.848291
-1.196858 -0.053356 1.228959
1.050788 -0.214501 0.540320
1.088170 -0.101401 3.088795
0.525640 -1.161167 1.824559
-0.698770 -0.828702 1.517762
1.080771 -0.316009 3.637371
0.693713 0.869398 2.612071
0.436785 -1.057754 0.490038
0.469174 1.079274 0.851515
-0.400405 -1.157004 1.062254
-0.251185 -0.045947 5.522512
0.067937 -1.067994 2.935345
1.047316 0.535009 2.284952
0.339202 0.893820 3.140618
0.067087 -1.002640 3.869699
0.479041 0.910268 3.562374
-0.463806 0.187164 5.849309
-0.087280 -0.603313 4.813577
-0.967785 0.597458 0.038349
-0.608538 -1.047998 0.593321
-0.305598 0.201836 5.771018
-1.033884 -0.111060 3.909297
-0.558516 -0.838767 3.604059
0.752954 0.868266 0.804640
-1.011362 -0.471167 2.069998
0.513237 -0.786804 4.432646
1.179429 -0.152022 0.162813
0.354541 -1.104342 2.340564
-0.495636 -0.873949 3.934854
0.444086 0.151184 4.946643
0.020017 1.250676 2.382441
-1.029070 0.209932 2.775560
-0.419709 0.994784 1.937555
0.324886 1.034030 4.203291
-0.084415 1.232685 1.480412
0.671720 -0.701526 4.454443
-0.384233 -0.057212 5.907643
-0.590185 0.900581 0.229452
1.064234 -0.515909 1.162512
-1.184013 0.278069 2.170049
0.317854 0.149869 5.806309
-0.670568 -0.842501 2.522058
0.287082 0.263104 5.376912
-0.494234 -0.901599 3.898956
-0.305384 -1.142897 0.979609
-0.412483 -0.130410 5.207904
-0.089769 -1.131893 1.681022
-0.230288 -1.073767 3.045625
-0.689377 -1.016139 1.467498
-1.087813 0.478848 1.083085
-0.915618 -0.428382 2.591596
-0.817091 0.767193 3.384099
-0.349202 -1.156859 0.605868
0.031478 1.302170 0.582583
0.380904 1.209212 1.081357
-0.340655 -1.072556 1.646571
-1.144603 0.030958 1.359684
-0.245494 1.075524 3.235844
0.349566 1.157477 0.176887
-0.308089 -0.355640 4.939826
0.073838 -1.075697 3.390216
0.410705 1.006742 2.793986
0.370413 0.127563 5.164442
-0.686435 0.913223 2.640794
-0.364846 0.070691 4.961870
-0.814256 0.941229 0.328754
-0.315312 -0.041083 5.916105
-0.486161 1.026344 2.922367
0.285290 -0.366479 4.765957
0.917774 0.301444 4.030581
-1.124928 0.313442 2.113376
0.223713 -0.275116 5.092140
1.007561 0.660324 1.709372
1.153886 -0.277677 0.112349
-0.254346 0.335768 5.801818
-0.280944 0.983691 3.172219
0.312082 1.085453 1.250957
-1.260022 0.052637 1.004842
-1.124742 0.335455 1.715637
-0.678850 0.771439 3.542375
-0.433712 0.063447 5.233628
-0.075349 -1.157819 2.178106
-0.015302 -1.116958 2.691768
-0.175653 -1.044847 2.807700
-0.432721 1.010372 3.822886
0.335838 0.767738 4.665390
-1.184439 0.111422 0.248752
-1.059669 -0.033285 3.228666
0.345830 -0.883865 4.209781
1.058211 -0.111420 2.690693
-0.164366 0.394318 5.380184
-0.345523 0.962569 3.001133
0.928481 0.723058 1.286726
0.777655 0.872203 1.350396
-0.833763 0.651246 4.030814
-1.106025 0.130878 0.565712
-1.175213 -0.233467 0.175513
0.706628 0.908379 0.526680
1.054471 0.519854 0.110040
0.974940 -0.598087 0.876405
0.638883 0.954403 2.185199
0.339537 -1.137008 0.623135
-0.700086 0.894558 0.665226
-1.013069 -0.422650 1.556669
-0.651043 1.063417 1.622591
1.169781 -0.386852 1.709136
-0.542099 -1.095461 1.663482
-0.084720 -1.168899 2.381532
-1.105380 0.042105 2.396061
0.691464 -0.683834 4.221996
0.159872 0.449013 4.845664
-0.009019 0.392393 5.887567
-0.398734 0.471995 4.790328
-0.894471 0.659174 0.933477
0.853100 -0.618621 3.577860
0.828319 -0.437250 3.999588
0.449925 -0.006923 5.793345
-0.011325 1.077052 2.181964
-0.660051 -0.353398 4.661269
-0.237483 1.155697 1.234881
-1.076809 -0.169139 2.468016
1.207494 0.142283 1.052560
0.968540 -0.605199 2.699754
0.720770 -0.959158 0.269546
1.081882 0.402439 1.633795
-0.501110 -0.931894 3.604501
0.111472 -0.489073 4.884610
0.128708 -1.151809 3.009714
0.937360 0.499392 3.009966
-0.297754 1.195153 2.156102
-0.081232 -0.368246 5.555980
0.141096 1.069923 2.670212
0.288604 -0.397070 5.809457
1.107059 0.021816 1.315910
-1.069872 0.302273 2.776163
-0.855416 0.647409 1.162089
-1.228714 0.243127 1.383197
-0.061780 0.996508 2.996568
0.060308 -1.087363 2.790180
0.454501 1.000629 2.809423
-0.272536 -1.202274 2.249564
-0.174208 1.200333 1.868150
-0.056154 1.158725 1.591643
-0.414024 1.020168 1.975503
-0.506630 -0.927949 3.621994
-0.901857 0.689857 2.260910
0.181013 0.292173 5.591406
0.374491 1.027889 2.652247
0.032364 1.052870 2.909034
0.896567 -0.640459 1.633376
-1.166938 0.274209 2.633227
0.155120 -1.257033 0.758553
-0.308792 0.139475 5.186368
-1.115327 0.216029 1.849263
-0.816812 -0.376818 4.269105
-0.322355 -0.280287 5.710186
0.492651 -1.037930 0.701965
0.240529 -1.282870 0.842823
0.277161 -0.380070 5.778477
1.248541 -0.050348 0.834759
0.337025 0.239468 6.084493
-0.543233 -0.957466 2.770558
0.551307 -0.930686 3.852946
-0.515797 -0.798598 4.432847
-0.775512 0.734863 2.961329
0.275345 -0.317253 5.527749
-0.289537 -0.201719 5.439477
-1.161857 0.292407 0.575967
0.188274 1.054766 2.717371
-0.815878 -0.679773 3.931837
-1.060734 0.622291 0.687407
-0.263324 -1.160348 2.035269
-0.875474 0.514828 3.596151
1.221575 -0.159124 1.416160
0.735406 -0.090842 4.750402
-0.261022 -1.151393 0.356938
0.364586 0.004909 4.841328
-1.009915 0.351021 3.520792
-1.019504 -0.209897 3.277772
-0.305479 1.147275 1.196908
1.037305 -0.637521 0.883692
1.035517 -0.019691 3.268304
0.435903 0.965017 3.665229
1.112731 0.378617 1.573896
1.053599 0.591671 0.857519
1.104725 -0.161032 2.376105
-0.281719 0.272219 5.122447
-0.148600 -1.096865 3.704634
-1.246169 -0.181244 0.210336
1.010739 0.450600 1.617809
-0.410145 1.095671 2.241062
-0.946352 0.738549 1.000017
-0.922243 -0.503823 2.882271
0.767253 -0.929643 1.248857
-0.654348 1.055798 0.840857
0.994625 -0.101720 3.185062
0.062524 0.915638 3.958996
0.345217 0.222044 5.065114
0.085251 -1.180512 1.030883
0.432748 -0.939449 4.410658
0.400504 0.029479 6.024806
0.439445 -0.872059 4.182683
-0.151172 -1.035951 3.319470
-0.797396 -0.418337 4.605808
-1.034456 -0.308979 3.485468
0.985615 -0.287291 3.995318
0.989447 0.280063 2.383242
1.127758 0.433288 0.674874
0.822024 -0.707251 2.349582
-0.518328 0.871321 3.819895
-0.847545 -0.721191 2.163897
0.378142 -1.196371 0.638709
-0.490597 -0.122555 5.506816
-1.148545 -0.481348 1.541696
-0.848951 -0.885103 0.513666
-0.155924 0.332114 5.046535
-0.664235 0.679772 4.061188
0.479836 1.155398 1.263800
-0.034097 1.192531 0.490377
0.688659 -0.750990 4.110038
1.193088 -0.108038 2.062758
-0.255237 -1.091537 1.638167
-0.043184 1.035011 3.743812
-1.155264 0.114107 1.795311
-0.334045 -0.486880 4.713962
0.717438 -0.663878 3.455334
0.389588 -0.087061 5.753626
0.261030 1.138862 0.526000
-0.828254 0.641855 2.990091
-0.215030 -0.985940 4.427756
0.809284 -0.515651 4.421757
-0.252564 -1.072126 2.524338
-1.101409 -0.063931 0.437256
-0.585438 1.011330 3.001255
0.594960 -0.980680 0.076464
1.090636 0.551623 0.670030
0.869730 -0.696712 0.426940
-1.134580 0.199460 0.435278
1.095640 -0.430133 2.620772
0.740144 0.794036 2.899109
0.388920 -0.146152 5.897774
-0.272878 -0.933445 4.237455
-0.812339 -0.743870 3.862471
-0.079697 -0.480933 5.243712
-0.093553 -0.373660 5.901426
0.453668 -0.116620 5.133681
0.454302 -0.160801 4.788242
0.213635 -0.223430 5.623806
1.157256 -0.319878 0.874944
-0.166274 -1.013131 3.041722
-0.392968 -1.007210 0.252237
0.085319 0.748143 4.581288
-1.052686 0.235183 2.854993
-0.880440 0.739910 2.840142
-0.943839 0.838920 0.240716
-0.987283 -0.292591 3.779506
1.008936 0.556395 0.725714
1.031235 -0.580155 1.092407
0.923974 0.551662 3.395449
0.962726 -0.810887 0.077247
-0.422023 -0.897683 3.805012
-0.753661 -0.849659 0.669106
-0.051465 0.494489 4.812414
0.188870 -0.914879 4.315586
-0.515020 0.072136 4.771064
-0.836792 0.783010 2.339265
0.469186 1.122024 0.970672
-0.231009 -0.973764 4.406264
-0.358490 0.286675 5.592643
-1.175116 -0.141774 0.098944
-0.117694 -1.194989 1.225217
-0.488661 -0.920572 3.858305
-0.184688 -1.012174 3.470189
0.981961 -0.434011 3.710817
0.900075 0.750668 -0.017627
0.630009 -0.940255 1.193414
-1.108811 0.463773 1.936792
0.912102 -0.584619 3.535630
0.840933 0.910645 0.892438
0.023245 -0.511019 4.929453
1.155675 -0.134460 2.549186
-0.672731 -0.755386 3.211204
0.264995 -1.247570 0.496223
1.076551 -0.505404 0.636277
-0.235751 0.349421 5.842501
0.202369 1.282914 1.003002
-0.850814 0.485506 4.355409
0.663599 0.830498 2.699983
0.977846 0.021465 4.337172
0.769403 0.763090 4.517074
-1.168117 0.223846 1.577097
-0.812591 -0.684568 3.351356
-0.156866 1.210448 0.227190
-1.154764 -0.325886 0.764045
-0.603851 0.913269 2.633349
0.270427 -0.468200 4.778924
0.356970 1.154907 1.899975
-0.890591 0.662118 0.818497
-0.104860 -0.429768 5.845251
-1.061487 0.343630 1.562575
-0.140925 1.213019 0.762591
-0.895682 0.530971 1.822576
1.065810 0.357653 3.302327
0.548817 -0.975469 2.441823
1.018635 -0.556548 1.953412
0.026272 -0.470819 5.279669
0.433565 -0.059908 5.922572
-0.309279 0.274860 5.666514
-1.125055 -0.540098 1.946559
-0.257523 -1.096268 1.909110
0.041118 0.469458 4.839614
-1.114389 -0.290790 0.467069
-0.926140 -0.644167 2.650551
-0.132507 1.152310 0.372950
-1.173809 0.373462 0.659192
-0.774860 0.955503 0.523259
1.182251 0.201748 1.464096
-0.224695 1.033145 3.316600
0.287129 1.026299 3.184759
-0.166811 0.285316 5.398363
0.251178 -0.982611 3.736583
0.224066 0.695963 4.626693
0.873844 -0.524298 3.835211
0.538005 -0.975206 3.334596
-0.503388 -1.071949 2.796922
-0.866241 0.922761 1.177959
0.000536 -1.250812 0.712293
-1.097554 -0.003894 1.830159
-0.191826 -1.035588 3.780621
1.182958 0.488758 1.031549
0.416256 0.194350 5.046406
-0.196485 -0.245236 5.554717
1.130395 -0.082531 0.141293
1.003582 0.625803 1.905727
-1.016395 -0.258723 3.931055
-0.467636 -1.024411 1.401408
-0.237012 -1.103631 2.229871
-1.228320 -0.413433 0.556628
0.337616 1.058373 3.681791
-0.425500 0.106606 5.886237
-0.691351 -0.859735 2.711087
0.951722 0.736521 0.372531
-1.210490 -0.032382 1.366568
0.682314 0.838569 3.393781
0.426385 -1.167368 1.299669
1.141924 0.115725 0.758509
-0.142537 0.309193 5.740697
-0.905426 -0.383783 4.132042
1.075976 0.584672 1.536222
-1.057352 0.093098 2.280715
1.087539 -0.071514 0.348414
-0.887845 -0.443834 3.636724
-1.121045 -0.444580 1.640280
0.289133 1.029410 4.180788
0.672861 -1.020649 0.555949
-0.946838 -0.639530 2.734655
-0.665433 0.826152 3.621908
1.042897 0.401345 3.134221
1.156374 0.240485 1.681121
0.682231 0.956005 2.158829
1.207449 -0.134398 0.297320
-0.891672 0.645311 2.694053
0.602807 0.939076 2.846486
-0.643822 0.757216 4.394853
0.284157 -0.246816 5.684195
0.882733 0.444419 3.865529
-0.073407 0.427585 5.246911
1.253325 0.299615 1.647439
0.001340 -1.114830 3.290023
-0.929115 0.555213 3.748438
-0.344642 1.078066 2.593456
1.081485 -0.200727 3.474557
0.814062 0.064581 4.588117
-0.500333 -0.790320 4.479202
1.125728 0.291093 1.325405
-0.680958 1.061943 0.653527
0.024372 1.238066 1.357599
1.150336 0.460351 0.412646
1.082002 -0.663082 2.024626
-0.842993 0.445773 4.089871
0.485465 -0.269195 4.787311
0.878915 -0.546901 3.747344
0.686685 0.923562 0.918202
1.153894 0.446414 0.804187
-0.570744 1.026394 1.601023
1.057151 -0.400264 1.237259
-0.066690 1.145505 1.894743
0.163784 1.010820 3.079521
0.228159 -0.256701 6.067388
-0.651737 0.962990 0.483957
0.400419 0.884983 4.035967
0.395180 1.206706 0.766075
-0.789459 0.898205 2.574275
-0.886304 -0.980090 0.684617
-0.450959 0.310166 4.804115
-0.782993 0.994043 0.991353
1.086487 -0.067797 2.265365
-0.641800 0.170942 4.794292
0.763824 -0.703092 3.770261
0.611369 -1.039022 2.512336
-0.755381 -0.534352 3.885026
0.527830 -0.977879 1.202720
0.576193 0.131059 4.793275
0.321929 1.164308 2.061672
0.932537 0.664043 2.035742
0.977775 -0.591484 1.863108
-0.160695 -0.422252 5.298434
0.589867 0.619232 4.585577
0.000482 1.062596 4.083000
-0.622398 1.070304 0.723638
-0.335353 0.243907 5.622320
-0.407064 0.001709 5.963515
0.115575 1.179957 0.621231
-0.816544 0.782589 0.998685
-0.300757 0.414795 5.370734
0.227321 -1.045407 4.138356
-0.396461 -1.069356 2.225110
0.369838 -1.014463 2.614893
-0.863203 0.484397 4.434373
-1.166939 -0.151687 2.678805
0.255142 -0.304735 5.548441
0.668362 0.907635 1.478772
-0.215716 0.305163 5.492531
1.034918 -0.811885 0.735096
-0.422297 -0.959932 1.950320
-0.983156 0.456600 0.130818
-0.430363 -0.098636 5.171768
-1.157586 -0.466728 0.069643
-0.914635 -0.705828 0.336624
0.485040 0.325061 4.845885
0.310021 0.248566 5.341927
-0.381420 -0.100209 5.988574
-1.094499 -0.118135 2.852845
-0.283208 -1.082077 2.418438
0.955464 0.815402 0.415500
-0.198562 1.163923 0.103465
-0.312337 0.147088 5.644043
0.368216 -0.936870 2.881928
-1.046296 -0.332742 2.730010
-0.120070 1.146889 1.974488
-0.635609 0.901433 4.058544
-1.029733 -0.468706 3.178303
-1.009171 0.190220 3.473445
-0.114610 -1.112487 0.020875
0.912885 0.178246 4.191211
-0.172811 -1.141001 3.207535
1.164508 0.034266 1.243528
0.999957 -0.449231 3.516216
-0.073226 0.472397 5.964327
-0.965098 -0.491055 1.809392
-0.943415 0.570497 2.426729
-0.233220 -1.041212 2.611497
-0.809867 0.327657 4.646652
0.963478 -0.322667 2.990554
1.183897 0.249589 2.723445
-0.353740 -0.041803 5.248280
-0.803140 0.567474 4.361460
0.540767 0.935274 4.003812
0.671887 0.723413 3.118805
-1.010769 -0.645721 2.256838
1.110457 0.465499 1.884139
-0.606065 -0.813683 3.324219
-1.076905 0.314032 1.815709
-0.129950 0.459418 5.287505
-0.526545 0.658023 4.383013
-1.048441 -0.239615 3.594923
-1.127189 0.347518 2.275350
-0.186661 -0.687847 4.650377
0.442793 1.176665 2.234516
-0.352199 -0.253286 5.869604
-0.267617 -1.064298 3.476163
0.271718 1.025008 2.691888
-0.988044 0.230859 3.862653
-0.437245 1.175765 0.139257
0.995791 0.605433 1.862273
1.052287 0.436348 0.672765
1.312409 0.089102 1.219249
-0.428329 -0.280551 4.806010
0.430114 -0.712586 4.591960
0.384736 1.170508 0.367444
0.978224 -0.545850 2.924158
-0.583941 -0.852262 2.252990
0.672357 -0.835788 3.479570
0.812508 0.916791 1.695590
0.810137 0.505897 4.012118
0.570272 -0.914600 2.623432
-0.982192 0.426918 2.488399
-0.600330 -0.341917 4.785361
0.067971 -1.118842 1.639785
0.290632 -0.940492 3.482590
0.486946 -0.970989 3.494435
-0.782399 0.871013 1.423006
0.404030 0.770064 4.719623
0.371505 0.973003 3.510835
0.497030 1.002069 1.299264
0.932018 0.319083 4.314476
0.957368 0.669425 0.049270
0.759109 -0.711391 3.550733
1.023598 0.102979 3.470250
0.687965 -0.923591 0.686109
0.253008 -0.294810 5.639171
0.912570 0.236217 4.247230
-0.505995 -1.131131 0.343186
1.007584 0.612825 2.303163
0.353916 -0.906762 4.364216
-0.292045 0.066226 5.732923
-0.134937 -1.129355 2.004674
-0.857563 -0.623435 3.028326
0.187603 0.327444 5.088608
-0.928210 0.565594 2.626893
-0.251498 0.227379 5.314602
0.242795 -0.835434 4.531954
0.207842 -0.473489 4.906997
-0.366447 0.089623 5.795355
0.455851 -0.025688 5.580379
-0.196518 -1.106130 0.221937
-0.633944 -0.933562 0.489144
0.820147 -0.730854 2.776140
-0.322449 0.988994 4.007515
-0.789561 -0.969996 0.727992
-0.258012 -0.934725 4.008333
-1.068036 0.352758 1.322207
-0.366281 0.198412 4.919666
0.059538 0.502648 5.112717
-0.121865 -1.226819 0.399809
-0.410493 0.018599 5.451405
0.221804 0.298147 5.345427
0.547943 0.685041 4.630418
0.183497 1.102671 1.311558
0.084910 1.166648 1.170451
-0.748649 -0.616870 4.241507
0.159136 1.186307 1.347947
0.842682 -0.703464 2.535179
0.794450 -0.899497 1.953077
-0.207816 -1.194330 0.848298
0.459560 -0.986549 2.419173
0.311225 -1.186804 2.100404
1.144638 0.045936 2.923582
0.193756 1.147541 0.777778
1.143836 -0.005602 0.340424
0.122497 1.133870 2.418641
-1.029344 -0.322812 2.814149
-1.031599 -0.377320 1.800191
1.176242 0.349392 0.664103
0.477745 -0.999535 2.655068
-0.364274 -0.085559 5.893945
0.547941 -0.251305 4.730519
0.599497 0.451899 4.640847
0.896717 -0.687849 0.249932
-0.112382 0.277899 5.809671
0.773908 0.124864 4.663802
-0.177196 -0.294022 5.895650
-0.678419 0.968551 2.488308
1.074131 -0.301980 3.406553
-0.072445 0.326759 5.506624
-0.555767 -1.114383 0.123872
-0.050126 -1.066022 3.092253
0.053836 -0.617694 4.872578
-0.391597 1.035394 3.214508
1.093105 0.181566 3.167112
0.308860 -0.279091 5.864111
0.136350 -0.326116 5.752414
-1.040881 -0.692775 1.528151
-0.236260 1.107388 2.137277
0.536587 1.040512 2.789384
-0.338572 -0.904181 3.740687
0.387585 0.977184 2.727213
-0.110665 -0.440186 5.881898
-0.332427 -0.327676 5.807476
0.184124 1.219592 2.968722
-0.345809 -1.084922 1.696169
-1.091347 -0.432160 2.590583
-0.256170 -0.443481 5.388450
0.039259 -0.454060 5.818012
0.362862 -0.145246 5.502914
-1.186086 0.237814 0.735011
0.627107 -0.364413 4.647533
0.596678 -0.959969 2.176494
-0.180222 -0.392850 5.500261
-0.119101 -0.352340 5.894465
1.150526 0.050648 2.659429
-0.024892 -0.423825 5.957756
0.232164 1.147191 2.018039
-0.325376 -1.104359 3.518270
-0.244506 1.102443 2.897543
1.117929 -0.175562 2.639401
-1.237083 -0.087711 2.050198
0.402740 -0.441647 4.773267
-0.776857 0.810307 1.492066
0.511790 -1.079345 1.645457
-0.841501 -0.416153 4.312393
-0.054957 -1.116493 2.615308
-0.382940 0.929596 4.231202
-1.130042 -0.168460 1.305881
0.142067 1.190620 0.601054
0.453831 0.351928 4.710340
0.945293 -0.415973 2.368884
-0.975466 -0.803091 0.438195
-0.542031 1.084512 1.772302
-0.502241 1.077231 0.910406
-0.423468 -0.102232 4.884514
-0.141081 -1.190945 0.377473
-0.123202 -0.953338 3.085623
-0.923977 -0.213439 4.281239
-0.837665 -0.644452 1.728522
1.003406 -0.184158 3.512214
0.428459 -1.143098 0.223254
-1.166482 -0.216848 2.154842
-0.296466 -0.227833 5.017762
0.373839 0.847159 4.217268
0.557166 0.945708 3.238252
1.116902 -0.251235 0.450249
0.082169 1.205590 0.847330
0.223282 -1.143786 1.161586
0.362894 1.125300 1.938618
0.927882 0.534592 3.662808
0.906823 0.609141 4.428553
-1.141865 0.293604 2.250990
-0.358165 0.067517 5.024711
-0.127697 0.307467 5.242927
-0.953996 -0.508727 3.906493
0.250059 1.011086 3.352656
-0.591003 -0.593846 4.641193
0.603814 -0.944417 3.206759
-0.522951 -0.477711 4.742101
1.197283 0.108437 1.172491
0.300137 -0.408433 5.547680
-0.706548 0.750412 4.116806
1.067251 0.361624 4.008109
0.170501 0.948140 4.580543
-0.912098 0.190286 4.258623
-0.259761 0.851715 4.499850
-0.591012 -0.949025 2.099754
0.626768 -0.881782 3.001549
-0.126171 -0.433670 5.130618
-0.376277 -0.163149 5.670196
1.108739 0.153631 2.110926
-0.517533 0.074433 4.720688
-1.091683 -0.693399 0.752267
0.226293 -0.598926 4.717057
-1.083819 -0.275984 0.668269
-1.125234 -0.460877 1.151394
1.101769 0.052369 2.489734
0.211033 -1.137003 0.854646
-1.192639 -0.354926 0.835421
1.090469 0.315417 3.248599
1.028680 0.418129 2.480160
-0.336905 0.186596 5.312737
0.463872 0.001832 5.228453
-0.323173 1.013705 3.497110
-0.592652 -0.855933 3.499929
0.507067 -1.049560 1.204838
-1.199766 -0.070070 0.604729
0.989273 -0.627358 0.456788
-1.097621 0.155648 2.553931
-0.812468 0.673729 3.828679
-0.881684 -0.831223 1.407153
0.395947 -0.649204 4.737920
0.768181 0.565718 4.083956
0.435258 0.100158 5.832552
-0.334681 0.253102 5.839794
0.376461 -0.092605 5.272819
-0.751566 0.856312 2.123794
0.822288 -0.709522 2.359646
-0.099216 -1.160035 1.692732
-1.136178 0.269096 0.292659
0.414396 1.082435 1.497467
0.829579 0.025043 4.602311
0.940806 -0.468193 3.185385
0.233382 1.162971 2.407209
-0.330927 0.238729 5.226080
-0.468795 -0.541791 4.798720
-1.141389 -0.188932 1.458471
0.015928 -1.030212 3.349300
1.177458 0.213892 0.191783
-0.507956 -0.975410 2.326742
0.928541 0.664398 2.708079
0.245696 1.179612 0.834433
-0.518132 -0.915827 3.175971
0.920877 0.694650 2.264043
0.952440 -0.312078 4.168033
0.903953 0.106778 4.065524
-0.087934 0.394374 5.474940
0.494920 -1.099850 2.820355
0.447827 1.114122 1.180955
0.266156 -1.161160 1.461847
-0.377896 -0.009289 5.657652
0.945762 -0.436201 3.042587
-0.683295 0.854318 3.999014
1.102739 0.222372 1.135973
0.823360 -0.796899 1.558192
-1.029351 -0.020892 2.739262
0.851883 0.400833 4.405503
1.056069 -0.510055 1.484773
0.597538 1.005481 2.001478
-0.854407 -0.406189 3.450897
-0.364881 0.438506 4.748810
1.145978 0.491396 0.904380
-0.227985 -0.415646 5.630652
1.041115 0.465766 3.400093
-1.118080 0.117013 2.409563
0.567033 -1.104948 1.391887
0.643502 -1.039994 0.736564
-0.713444 0.754964 4.287425
1.120372 -0.339698 2.138568
0.620461 0.979512 1.586746
-0.037578 -0.414559 5.464325
-1.025119 0.369226 3.057149
0.578450 -0.886673 3.314377
0.703118 -0.744144 3.243268
0.180089 1.028219 2.794368
-0.158057 -0.394126 5.669906
-0.938752 0.375499 2.753981
-0.547725 -0.880219 2.295407
-0.640977 -0.784082 4.011481
1.014940 0.506890 3.155399
0.188996 1.181890 2.033117
1.111574 -0.078726 3.384736
0.405084 1.030345 2.751508
0.905651 0.583529 2.966937
-0.340629 -1.209670 1.280841
-0.310789 -0.234298 5.021706
-0.892288 0.469756 3.780789
1.003851 -0.463063 4.386705
0.052796 -0.434858 6.028367
0.979034 0.556431 3.363075
-1.197116 0.183311 0.151978
-0.050177 -0.957154 3.670286
-0.232965 0.273267 5.421783
-0.319886 0.268752 4.870483
1.055377 0.313385 0.951930
-0.669322 -0.766409 2.988568
0.733268 0.716378 2.480377
-0.095396 -1.011083 3.872205
-1.019556 0.724551 2.613832
-0.699777 -0.902757 2.892413
0.274342 1.165252 0.910435
-1.130150 -0.446569 2.218172
-1.020217 0.249334 4.280096
-0.093789 1.094987 2.432153
1.120301 0.326729 1.205497
1.067259 -0.139500 3.323822
-0.804297 0.876182 0.691228
0.029337 -0.446155 5.587725
-0.733229 0.891684 0.783588
0.569565 -0.800660 3.682338
0.302255 -1.100959 2.292406
-0.336068 1.032492 1.286911
0.357380 -1.096406 3.097969
0.372177 -1.146237 1.570776
-0.873151 0.400376 3.716205
0.649758 0.813017 3.891224
0.903823 -0.066479 4.430457
0.351416 -0.936444 4.129189
0.516445 -1.065835 1.484362
-0.137014 1.170932 1.666656
-0.430296 -1.094187 0.960900
1.040327 -0.602811 0.987535
-0.964271 -0.322053 2.434551
0.149783 0.990420 4.268014
-0.324151 1.243925 0.128341
-0.765293 0.490023 4.678619
0.063151 0.424000 5.512490
0.612687 0.804801 3.300335
-0.075795 -1.113385 2.698283
-0.006296 -1.231290 1.130736
-0.070640 1.150625 1.659078
0.268590 1.084685 1.265472
0.853915 0.381749 4.580531
0.350959 -0.185347 4.945310
0.141217 -1.035368 3.733498
-0.638022 0.787406 4.523731
-0.804526 0.912994 1.276484
-0.225836 0.382263 5.221322
-1.172377 0.094856 2.249709
-1.186121 0.302518 2.046087
-0.018960 -0.412690 5.747541
-0.211246 0.372005 5.814946
0.286700 -0.380497 5.431869
-0.777118 -0.866050 0.430602
0.698927 0.915381 1.498572
0.796363 0.765935 2.559718
-0.988913 -0.596459 0.483071
-0.774143 0.729938 2.769271
0.390771 -1.168244 1.534125
-0.306786 0.244189 5.540568
-0.198362 -1.111253 0.246265
-0.084819 1.314216 0.760802
0.497914 -0.045365 4.984609
0.781960 -0.909580 1.445064
1.110257 0.361858 1.359614
-0.356448 -0.125376 5.481770
1.063690 0.340451 3.470879
0.773101 -0.837164 1.375916
0.721705 -0.821564 2.455166
0.344006 -0.924565 3.704931
0.590136 -0.865535 3.203073
0.999760 -0.317844 2.983635
0.065844 0.440572 5.269126
0.102649 1.067027 2.661674
0.897070 -0.595492 2.525103
-0.728279 -0.661263 2.797039
-0.885489 -0.822161 0.629732
0.423329 0.912837 4.146815
-0.094302 -1.184979 0.167288
-1.040540 -0.397889 4.354197
1.110901 0.163510 2.717743
0.196072 1.155250 0.485075
0.956324 -0.594009 1.923201
-0.354688 1.014366 4.081562
-1.008557 0.028825 4.127306
0.574726 0.963127 0.144883
0.797395 -0.897013 1.992462
-0.338923 0.036536 5.331849
-1.099294 -0.330755 2.285323
0.892489 0.805766 0.315153
1.180331 0.062318 0.694694
0.492034 -1.028137 0.949770
0.381290 -0.342040 5.654886
0.603560 -0.718682 4.477965
0.993902 -0.240644 3.137187
-0.217826 0.927431 4.307731
0.730205 -0.820480 2.240774
0.506195 1.065041 0.063413
-0.044581 0.424761 5.014142
0.916340 -0.612727 2.301621
-1.153495 -0.289787 2.130816
-0.416569 -0.060720 5.218008
0.168178 -0.876520 4.663799
-0.365351 -0.356950 5.169027
0.351833 0.076686 5.608534
0.607578 1.063755 0.297843
-0.094861 0.445495 5.184079
0.623185 0.908012 1.369102
0.500711 1.001776 3.392680
0.257206 -0.676036 4.693965
0.643862 -0.905142 2.526910
-0.972466 0.397769 3.864624
-0.993383 0.550700 2.222844
0.795229 0.676179 3.620841
0.854881 -0.641980 1.938991
-0.296045 -1.164345 0.247731
-0.153017 0.935268 4.403446
1.019455 -0.184099 3.141306
-0.338236 0.099511 5.078383
-0.041913 -1.088735 1.803692
0.032785 1.084643 3.933689
0.368318 0.008761 5.490289
-0.723818 0.842496 2.362288
-0.290749 -0.324692 5.706365
-0.110509 -1.112330 2.555675
-1.097471 -0.333703 1.738020
-1.006581 -0.459535 2.515801
-0.393121 0.141872 4.920745
-0.781145 0.047850 4.717149
-0.053497 -0.351224 5.080091
0.893723 -0.709431 2.370133
0.096385 -0.244690 5.752816
0.008365 0.447431 6.006182
1.085739 -0.269769 3.634099
-0.509841 -1.030887 2.443341
0.198331 0.390171 5.235879
-0.775601 -0.081977 4.617248
-0.972134 0.105833 3.947118
-0.117151 1.003876 3.744896
-0.697718 -0.969499 1.850051
0.322047 1.118157 1.847210
0.710645 0.147659 4.725406
-0.429511 1.098608 1.617550
-0.339551 -0.196526 5.098593
0.110560 -0.400481 5.505201
0.218252 -0.388779 5.461401
0.792689 -0.565233 4.516003
0.222352 -0.385455 5.637649
0.298808 -0.104033 5.694791
0.375829 0.588591 4.627740
0.597251 0.739069 4.475720
-0.085447 -1.040483 3.527509
-0.733833 1.024058 2.166056
-0.170826 -0.328601 5.379735
0.830417 0.739514 2.597932
-1.053089 0.472029 0.535711
-0.093284 -1.087831 3.595504
0.303479 0.221191 5.633185
-0.366349 -0.873513 3.628753
1.121156 0.021977 1.382921
0.591411 -1.047014 2.336136
-0.873560 -0.411997 4.375035
1.190277 -0.493650 0.672593
0.016505 -1.267166 0.707820
1.011617 0.097144 1.760834
-1.133891 -0.473852 0.221853
-0.592717 0.421071 4.537234
-1.001092 -0.489808 2.250927
-0.072899 1.024137 2.804828
0.081225 -0.429200 5.479841
-0.566807 1.034762 1.271141
0.047991 -0.440915 4.953258
0.297141 -1.078842 2.015277
-0.059920 1.165052 1.130130
0.334057 0.965349 4.098766
0.439183 0.504844 4.695892
-0.998588 -0.103337 2.568412
-1.006983 -0.614603 1.711652
0.558322 0.448531 4.716957
0.667744 0.936348 2.782264
-1.151667 -0.420957 1.524708
-1.009431 0.263463 3.389104
0.340099 -0.396302 4.699137
-0.823309 0.789670 0.025671
-0.958047 -0.632545 0.836744
0.890086 -0.713621 2.906724
0.784274 0.673386 2.694461
-0.720603 -0.878075 1.341623
0.549760 0.371244 4.763798
0.902196 -0.136286 4.540614
1.201833 0.075285 1.658188
0.639245 0.979175 1.889060
0.172791 0.344480 5.468008
-0.188514 -0.419445 4.974669
0.368423 -0.221964 5.574032
-1.107242 0.441137 0.845058
0.286531 -0.994479 4.093285
-1.031407 0.125135 2.519518
0.476939 -0.990297 0.686249
-0.430058 -0.949036 3.494730
-0.146981 -0.325849 5.884388
0.227008 1.220932 0.450968
0.443189 1.106786 0.607980
-0.005950 -1.104038 2.707411
-0.346725 -0.328286 5.237289
-0.887579 -0.794671 3.012509
-0.219500 1.107675 1.315253
0.889040 0.617634 2.106846
-0.468848 -0.985641 3.485389
1.096046 -0.136708 3.574247
1.097379 -0.265640 2.446063
-0.915298 0.851230 0.934052
-1.118011 -0.308707 1.829343
-0.724659 0.877204 2.979769
-1.102787 -0.538739 1.453005
-0.468094 0.996137 1.173359
-0.482016 -1.019769 1.911481
-1.078833 -0.302803 3.383763
0.108820 1.151363 1.168043
-0.322595 -1.149622 0.137983
0.185265 -0.305535 5.953289
0.905640 0.221112 3.015924
-0.592840 -1.136163 0.137729
0.451937 1.041849 0.270789
-1.159399 0.028757 3.739678
0.489694 1.017325 3.295954
0.920348 -0.250136 3.698131
-0.326425 1.194116 1.229910
0.399968 0.133446 4.919631
0.342834 -1.159007 0.088131
0.161907 -0.353461 5.260050
-0.037072 -1.208026 0.524598
-1.213228 -0.204544 1.124476
-0.977670 -0.207227 3.749288
0.838331 -0.695257 0.519809
0.462640 0.887477 4.069848
0.368109 0.061897 5.798292
0.240652 0.440443 5.114363
1.073419 0.447900 2.629049
-0.063056 0.374021 5.851664
-0.618562 -0.894911 3.021093
0.261419 -0.891118 4.476716
-0.174631 -1.072172 3.235805
-1.167944 -0.274440 0.447878
1.002976 0.708867 1.088526
1.001039 0.610698 1.831720
-0.614612 -0.812367 3.982423
-0.507594 -0.951070 3.309003
0.976922 -0.446795 3.867211
0.941911 0.617206 1.920614
1.134062 0.024924 2.255202
0.400936 -1.049576 0.392052
-0.061792 1.096146 3.464449
-0.961122 0.091038 3.673681
0.442403 0.952913 2.113066
-1.160198 -0.169231 2.628271
0.864907 -0.771150 1.372362
-1.182688 -0.085443 1.015141
-0.796305 -0.716357 3.684685
0.348911 -0.145110 5.763902
0.032800 -0.364934 5.646016
-0.970387 0.520214 3.337522
1.206091 0.025811 1.516721
0.844332 -0.401695 4.077217
-0.366711 0.977063 3.472705
1.041485 -0.547907 2.308685
0.976472 -0.340893 3.158418
-0.916875 -0.856722 1.254565
-0.750399 -0.779891 2.548030
-0.035248 -1.191571 0.479793
0.272742 -0.673772 4.727804
-0.036717 0.421197 5.269090
0.023799 1.096624 3.985513
-0.943873 -0.169845 4.360187
1.128484 -0.342212 0.019598
-0.402227 -0.052985 5.350997
-0.548851 -0.751605 3.934319
1.219702 -0.038146 1.955790
0.290581 0.387082 5.495666
1.142837 -0.184267 1.779371
-0.491636 0.967008 3.033769
0.391204 -0.957423 4.453255
-0.680838 0.716720 3.417985
-0.130944 1.139401 1.550811
-1.047698 0.461789 1.578909
1.141911 -0.357938 0.968561
0.842583 0.668766 0.813216
1.053099 0.508426 2.010749
0.954189 0.651690 2.187139
0.344440 0.136576 5.827222
-0.037374 -1.155819 1.923492
-0.875729 0.413717 3.900244
-1.095126 0.335941 2.810873
-0.470734 -0.806126 3.935932
-0.365088 -0.809901 4.498534
-0.407636 0.286568 4.848043
0.929871 -0.355235 2.428067
0.744725 0.363694 4.568883
0.261723 1.126505 1.325355
0.866886 0.411148 3.560241
0.980626 -0.495907 0.496524
0.276351 1.032302 3.759770
0.924024 -0.216597 4.324793
-0.394531 -0.005567 5.602947
0.401469 -1.008657 2.845222
0.264318 0.258672 5.887977
-0.094663 -1.091529 3.042601
-0.355629 0.125126 5.649587
0.973365 0.196497 3.838120
-0.903817 0.440724 3.533882
0.162169 0.400792 5.698114
0.279263 0.176250 5.044180
-0.270352 -0.359708 5.304817
-0.080782 -0.466473 4.888528
0.712346 -0.958527 3.061975
-0.110733 -1.120527 0.871705
-0.730349 -0.980056 0.179296
1.083447 -0.375380 1.279873
-0.762928 0.893808 2.134212
0.399367 0.325016 4.869220
0.971825 -0.587528 1.583219
-0.670504 0.716025 4.055968
-1.095298 -0.562837 0.991622
0.410936 0.100458 5.477684
-0.301304 0.204370 5.947525
1.093451 0.417012 0.652232
-0.710617 0.731215 3.440241
0.418444 0.992825 3.451075
-0.812520 0.790963 3.036524
-0.629111 -1.077475 0.070541
-0.074238 1.178183 2.057590
1.048544 0.608614 1.192760
0.014911 1.237648 1.565443
0.222352 -1.046401 3.344097
-0.130885 -1.046158 2.385617
1.239507 0.250303 0.188242
0.633842 -0.876159 2.416639
-0.251613 1.142211 2.196960
0.927776 0.065768 4.358857
-0.270810 -0.223687 5.192783
-0.393323 -0.036657 5.679419
-0.042985 -1.108372 3.664643
0.140254 -0.334690 5.511984
-0.297777 -0.313980 5.346577
1.124918 -0.430637 0.260253
-0.254803 0.432562 5.319441
-0.048834 0.583442 4.803999
0.349133 0.236896 5.790365
1.002897 0.441511 2.161290
-0.898450 0.851398 2.302581
0.384178 1.116478 0.952549
0.503255 1.075327 0.094850
0.786168 -0.795509 3.956034
0.445679 -0.919160 3.842891
-0.200248 -1.143666 2.987434
-0.955640 -0.152316 4.121810
1.050759 0.427651 0.865762
-0.428752 0.137577 5.682238
1.067200 0.078696 3.760512
0.125807 0.479364 4.750323
0.313709 0.223572 5.630015
0.987505 -0.161358 3.492473
-0.828646 -0.393997 4.223431
1.178182 0.029636 2.387589
0.730563 0.780106 4.059062
-0.345221 -0.072962 5.613777
-1.077837 -0.620593 0.233228
-0.473529 -0.997555 0.356978
0.218420 1.014649 3.353843
-1.145126 -0.237327 2.859732
1.136238 -0.250996 0.779792
0.348697 0.863880 4.077393
0.125876 1.089097 1.419315
-0.861225 -0.833569 1.733457
0.036517 -1.004960 3.087807
0.309343 -1.011836 2.854988
-1.155114 0.013103 2.339619
0.426132 0.114992 4.888148
-0.169483 0.668869 4.671172
0.037294 0.992533 3.559508
-0.916359 0.468873 2.961505
0.964076 0.252185 4.454489
0.054520 -0.983122 3.592403
1.068816 -0.396499 2.589352
-0.004036 1.157764 0.912983
-0.931789 0.477154 3.239838
-0.786444 0.894763 2.017418
0.448862 -0.016539 5.195888
1.198380 0.388560 1.289978
0.164952 0.364829 5.225176
0.740875 0.854031 3.270180
0.665279 0.651400 3.640979
-0.927250 0.106317 4.253883
-1.077759 -0.443441 0.475660
-0.967024 -0.473325 3.592695
1.227854 -0.123725 1.790242
1.140293 -0.318312 3.142684
0.232324 1.191566 0.538946
-0.338411 0.161089 4.939125
-0.891476 -0.508272 4.194979
-1.103393 -0.505322 0.704865
-0.037834 -0.737292 4.700062
-0.036315 0.364973 5.099849
1.089859 0.012266 2.866851
0.198177 0.356002 5.958162
0.900713 -0.686745 3.356711
0.036699 0.357588 5.762273
0.041970 -1.095299 3.615529
-0.663248 0.937553 1.766040
0.388125 0.041743 5.408604
-0.286628 0.242648 4.961892
-0.515736 -1.043070 0.974479
-0.273722 1.135710 0.180045
-1.134301 -0.168355 3.592668
-0.382682 0.180682 5.733435
-0.347175 0.252428 5.466833
-0.662037 -0.861796 3.546773
0.000828 0.472572 5.362083
0.073988 -0.893318 4.648001
1.050062 0.609957 2.317508
-0.986242 -0.767822 0.871791
1.034318 0.214481 2.507039
0.142389 -1.105087 0.202105
0.332914 0.276828 5.906161
-1.081609 -0.028166 1.623754
0.906090 0.710190 2.127030
0.612871 -0.799532 3.639018
-0.597484 0.986808 1.329077
1.015340 -0.641066 0.726281
-0.016239 -0.625732 4.751801
-0.977497 -0.145260 4.153780
0.367080 0.441805 4.963496
-0.486219 1.119655 0.707752
-0.877027 0.271867 4.403397
-1.010614 0.155638 3.488429
-1.105317 -0.526375 1.082951
1.214714 0.250241 0.568117
0.926199 -0.440864 4.398214
0.309546 -0.199466 4.964879
0.816594 0.860215 2.731809
0.468966 1.046309 1.971619
0.056404 -1.249169 0.911266
-0.349955 1.114669 3.023746
-0.822101 -0.546545 3.980558
-0.673998 -0.751433 3.302660
-0.377030 0.927025 4.253820
-0.463864 -1.002337 3.216993
0.115224 0.486768 5.142887
-0.360063 1.080156 2.201531
0.547343 0.814415 3.928858
-0.715474 0.831222 2.477619
-0.026366 -1.096915 3.615409
-0.356562 0.962922 3.045675
-0.392667 1.071500 2.210017
0.918350 0.622773 3.382374
-0.388822 -0.012780 5.092207
0.902028 0.495718 3.062603
-0.475052 0.907676 4.214186
-1.077091 -0.226002 3.324595
-0.976664 0.322143 3.514979
0.405557 -0.160952 5.010209
0.458701 0.021362 5.107214
0.035503 1.072406 2.462906
0.410246 -1.080009 0.434502
0.326956 -0.920294 3.768707
0.757902 0.591587 2.678375
-0.152107 0.448351 5.372350
-1.051455 0.404645 3.846220
0.048296 -1.140773 2.489938
-0.284308 -0.385794 5.259961
0.328028 -1.028742 2.535982
0.149429 -1.113731 3.465151
-0.372044 0.951313 3.573652
0.880679 -0.762532 2.321703
-0.752460 0.671318 3.887360
1.107796 -0.138953 2.789103
1.174527 0.143083 0.214384
-0.571779 0.991722 0.716633
0.984529 -0.541021 1.043494
0.282925 0.197786 5.821266
1.030867 0.483427 0.529718
0.749588 0.764959 3.272906
-0.269561 0.936629 4.356186
0.399193 -0.150337 5.478114
-0.920584 -0.599069 2.464550
0.929197 0.724964 0.343858
-1.114370 -0.137904 3.648299
0.361769 -0.065965 5.001395
-0.209272 -0.385262 5.362402
0.385654 -0.071912 5.806829
-0.290677 0.989000 3.667597
0.277144 1.069206 2.634953
0.495191 1.102094 0.724527
1.185781 0.075012 2.150673
-0.759226 0.906794 0.187543
0.226187 0.371832 5.754390
0.911332 0.548941 3.261655
0.680311 -0.907091 1.652462
0.683093 0.848658 2.160465
0.160617 0.397428 5.356595
0.228363 -1.178129 1.726320
-0.142712 -0.948122 4.045417
0.950857 -0.461952 3.463575
-0.938286 0.604840 2.992380
-0.369015 -0.269410 5.536687
-0.453037 0.901427 4.057713
1.194542 0.039011 1.702710
-0.735852 -0.830761 1.126145
1.005769 -0.590376 1.341931
1.002962 -0.324685 0.406274
-0.393561 -0.553579 4.706885
-0.835077 0.611634 3.604335
-0.941639 -0.215035 4.249467
-0.913264 -0.245829 4.234651
0.911474 0.749029 1.144947
-0.977565 -0.624284 0.151276
-0.397371 -0.950233 2.696306
1.255708 -0.335975 0.834037
0.165391 -1.143372 1.905708
-0.144372 1.190690 1.705762
0.999456 0.117760 4.340110
-0.780960 0.861760 0.631709
-0.325571 1.006572 3.043861
-0.106429 -0.350414 5.224047
0.930590 0.110735 4.129969
-0.994074 0.104227 3.540952
0.429091 -1.167522 1.997385
-0.168745 1.133998 3.504756
0.522287 -0.881732 4.049824
-0.577210 -1.042650 0.883904
0.788308 0.917246 1.830134
-1.134747 -0.322761 1.339466
0.031641 -1.104983 0.206768
0.036357 1.017595 4.193776
0.963172 0.453464 3.573189
0.781125 0.915985 1.389522
0.647744 0.971286 2.786984
-0.850598 0.710081 3.345292
-1.117686 0.444240 1.612420
-0.319153 -1.022699 3.314657
-0.129111 1.055330 4.040076
-0.972668 -0.205652 3.783036
-0.407258 -1.032802 0.122613
0.540495 -1.048299 1.487532
0.037940 1.096376 2.150478
-1.088401 0.182418 2.560843
0.850810 0.846681 2.141617
0.476112 -0.016799 4.847530
1.202714 -0.129411 0.976637
-1.023715 -0.235209 3.816333
0.644716 0.807841 3.697098
1.184173 0.170077 1.213861
0.607240 0.867469 3.899872
-0.447817 0.228746 5.350066
0.743077 -0.750168 4.042248
0.979182 0.464402 2.940948
0.344292 -0.818857 4.199604
0.916116 -0.466744 4.146925
-0.083885 -1.127676 0.395956
0.465657 1.164751 0.374143
0.997088 -0.620028 5.949786
1.757800 1.297694 4.298019
-2.141121 -0.448443 2.484598
1.822621 2.021481 -0.746266
2.131642 0.501240 3.450278
-1.279686 -2.034748 2.496306
0.055433 -1.121622 2.140463
-1.948405 -1.287503 3.900364
1.479950 0.626759 5.266818
-1.362394 -1.828645 4.628061
0.103600 2.084710 2.209205
-0.095014 -1.975804 4.240801
-2.177832 -0.392420 2.419476
-1.504468 1.472135 5.808800
-1.157198 -1.379441 3.404931
0.387757 0.922142 6.705776
0.646936 1.059434 -0.614344
-0.027236 0.424146 2.769165
0.493694 2.152293 4.499624
-0.324866 1.184106 4.011508
-1.884876 1.994479 -0.957941
-1.446389 0.857085 -0.156031
1.097491 1.176340 3.380491
-0.762300 0.555626 2.692649
-0.374114 -0.418377 0.862296
-0.170732 1.891945 4.275758
0.589702 0.233513 6.234361
1.234320 0.449724 5.287055
-1.096129 0.708224 6.588092
0.891002 -1.909576 2.354560
-1.687916 1.567975 -0.629261
-1.807588 -0.127422 2.331182
-0.708878 0.912213 2.383896
0.817574 -0.047079 2.088142
-1.489425 0.268208 1.099001
0.222355 1.382895 0.339862
1.544270 -1.605273 4.185336
1.127106 -1.525101 -0.245250
-1.684241 -1.052307 1.974036
-1.786979 -0.801130 4.671019
0.450728 -2.000838 2.608566
0.924847 0.582197 1.020889
0.920456 0.270457 0.544039
0.813770 1.567093 -0.116251
1.474448 1.129262 0.079175
1.054008 -1.431602 1.834090
0.523900 0.715428 4.689106
0.863632 1.881794 1.795176
-1.455985 -0.328361 5.020872
1.542455 0.960442 2.826493
-0.495679 0.540801 -0.663432
0.450836 -1.324909 6.553100
-1.206638 -2.178026 0.595344
-0.660841 -1.395149 0.761002
0.298477 0.968539 4.569531
0.636727 0.483656 4.654609
-1.058978 -2.158555 -0.624895
1.293817 -1.081585 5.047288
1.711710 -1.869243 4.378071
0.988317 1.257245 1.845215
1.428142 1.511291 6.810008
-0.447707 0.223452 5.337224
-0.794898 -0.386377 5.062160
-1.210137 -1.877320 5.096517
-1.804562 -1.996730 3.059710
0.058219 1.178805 2.914392
0.251211 -2.081836 1.950775
-2.159803 2.110798 6.491806
1.091018 1.986333 5.082408
0.503464 -0.666675 -0.588207
-0.923224 -0.386162 -0.761935
-1.854715 0.374884 3.736680
1.875084 -0.128122 3.758419
0.072633 0.051231 6.453440
1.828894 0.557290 5.320673
-0.327280 2.182599 2.764135
0.507628 -0.128093 1.856978
-1.400347 -1.437471 2.176653
1.177285 -1.309599 0.082391
1.784583 0.463926 1.644150
-0.755985 0.005606 2.701130
1.930818 -1.062648 4.745100
0.736731 0.056473 2.063288
-1.914277 0.487291 5.114830
-2.094913 1.078611 4.454992
1.906406 1.927255 0.485095
-0.297035 0.975734 -0.798321
-1.063563 -0.949898 -0.213357
0.871759 -0.912141 6.313829
-0.223825 1.388748 0.965225
0.592754 1.875710 1.170598
-1.609091 1.185850 6.103830
-2.178904 1.600159 1.445297
0.733441 -0.260290 1.011640
1.427990 -0.248164 4.488438
0.211534 -1.264079 3.722854
1.901396 -1.615617 0.006095
0.548856 -0.204229 1.689372
1.885862 0.471708 1.082980
-0.640142 0.927712 5.688494
