ply
format ascii 1.0
element vertex 1575
property float x
property float y
property float z
end_header
-1.872113 -2.138810 1.214745
2.213155 -0.793658 0.769034
1.738051 -0.658547 0.411996
1.102205 -2.626473 1.374457
-0.257444 0.584498 0.127258
-2.805344 -0.089134 1.394399
-1.258330 1.004283 0.344591
-1.546320 -1.848607 0.815280
2.490434 -1.523275 1.500254
0.227217 0.164973 0.079423
-2.242568 -1.578864 1.110655
0.354243 0.066486 -0.036461
-0.246941 0.311955 -0.017374
1.171216 0.261001 0.171850
-1.924135 -2.247997 1.672586
2.441754 1.278126 1.176362
1.013035 -0.785267 0.203527
-1.335445 -2.725051 1.795969
-1.745634 1.077258 0.636454
-1.578275 -0.187525 0.307867
-0.730542 0.662310 0.090110
0.489240 0.837653 0.050272
1.387343 2.591794 1.729741
-1.902900 2.050368 1.641831
0.049132 -0.019877 -0.075655
2.493650 0.470082 0.940117
-1.838625 -2.165776 1.573710
-0.460137 -2.216568 0.744649
-1.022338 0.016534 0.252480
-2.438374 -1.662349 1.837227
2.243771 2.026210 1.497175
-0.547326 -2.951170 1.750643
-0.721554 0.096718 0.153723
-0.680976 2.426329 0.872282
-0.000758 -0.050490 0.002761
2.048980 -0.686246 0.606516
0.100848 -1.958369 0.433101
-2.171621 -1.924942 1.875176
0.645402 -2.032145 0.521585
-0.926519 -1.530799 0.455187
2.069102 1.421372 0.919210
-2.027147 2.215999 1.770758
-0.300384 -2.586126 1.000685
-1.017639 -0.502843 0.176304
0.356218 1.272724 0.219023
0.157026 0.004389 0.062442
-1.980988 1.242549 0.800572
-0.881171 2.756627 1.653486
-2.880639 -0.238281 1.351890
-0.156616 -2.094382 0.496079
-0.158733 -0.553098 -0.038836
-0.700215 0.305801 0.146444
0.618681 -2.190887 0.613005
-0.285944 -2.045926 0.515829
-0.094114 -2.826019 1.264007
1.971610 1.893303 1.382476
-0.382928 -1.241883 0.170829
-1.476795 -0.037856 0.111768
1.499505 -2.484304 1.927973
2.394644 -1.785348 1.945541
0.296803 -0.178135 -0.021313
-0.826452 -1.232448 0.258959
-0.693014 -2.804649 1.512082
-0.614470 2.959355 1.765461
-0.753379 -0.494019 0.072310
1.545565 -0.664569 0.250832
-1.415480 0.451860 0.332008
-1.663862 -0.294989 0.312396
-0.187138 -0.752728 -0.001847
-1.381670 0.295308 0.197513
1.605612 -0.712201 0.370680
0.024972 2.759716 1.225954
1.478318 -0.251623 0.391711
1.391636 1.425018 0.442842
-2.338962 1.394772 1.099516
-2.563118 0.599991 1.210103
-1.366349 2.640220 1.716483
1.262986 1.016002 0.332552
-0.513062 -0.795078 0.141313
0.004945 -0.132087 0.013014
1.605332 2.268876 1.305677
0.360657 0.144906 0.056178
-1.456651 2.206089 1.203992
0.654549 -0.770718 0.098878
2.357046 1.601861 1.368049
-1.425572 2.355466 1.180908
-0.368229 0.986333 0.131421
-2.561653 1.377874 1.779063
0.227073 0.416362 0.011055
-0.366502 0.118675 -0.011442
2.964082 -0.031348 1.840614
-2.183304 -1.287397 1.027709
-2.917125 0.321237 1.407348
0.625181 1.107140 0.159081
-0.848707 0.345379 0.089539
0.212171 0.540135 0.035377
1.933162 -1.063855 0.650112
0.408947 -2.051158 0.560723
2.801580 0.973874 2.051417
0.695252 0.715323 0.083244
2.485440 -1.754100 2.072629
2.620579 -0.080005 0.969141
0.119668 1.213009 0.224944
-1.129916 1.373485 0.365225
-2.539155 -1.532211 1.744173
-2.124297 -1.544529 1.038195
1.000342 1.051474 0.318145
-2.869130 -0.284025 1.341945
-0.640070 1.900158 0.470391
-2.122072 -1.726214 1.249610
-0.232066 1.745005 0.408755
-2.667484 -1.398828 1.680496
1.008593 0.824354 0.198822
2.642822 -1.071908 1.811293
1.602081 -2.060911 0.976356
-0.269224 -0.133696 0.033439
-2.701207 -0.838932 1.325726
0.799422 0.441105 0.181316
-0.178342 0.090257 -0.152461
-2.871961 -0.863280 1.933926
0.564909 -0.577751 0.035473
2.218974 1.677466 1.284384
1.239823 -2.116189 0.845770
-2.002341 0.151902 0.669497
2.727819 -0.817685 1.350095
1.217632 -1.508703 0.453059
2.023143 1.917984 1.153998
-1.108147 1.241831 0.370856
1.982924 -0.959378 0.657314
1.541910 0.747225 0.390517
0.790876 -2.878735 1.489694
1.967393 -1.546654 0.775393
0.070850 -0.227137 0.085193
0.112993 0.613765 0.049383
0.818528 -2.691981 1.425416
0.737260 0.358121 0.136068
-2.098290 1.348688 0.911776
-0.032699 1.989394 0.458264
-2.577735 1.497610 1.847211
2.239847 -1.757021 1.308877
-2.290154 1.312830 0.968052
0.243327 -2.806079 1.181701
-2.965976 0.320752 1.916919
2.550886 -1.594467 1.865472
-1.122972 2.137122 0.817804
-0.619763 -0.254613 0.035230
-1.277375 -2.024576 0.764807
-1.374952 0.216141 0.263923
-2.066986 -2.137610 2.003883
1.050576 0.726832 0.157999
-1.042029 -2.527004 1.148779
-0.001204 0.023000 -0.025220
1.552751 2.305376 1.330556
1.052811 -2.115189 0.808968
1.959420 0.430191 0.566938
1.195159 0.676961 0.203194
0.857434 1.319267 0.413156
0.191062 0.509235 0.019982
2.987656 0.378114 1.872697
-1.068655 1.238623 0.367376
-0.233004 2.705655 1.130279
-1.311002 1.007530 0.298604
0.758966 -0.999631 0.144161
1.145965 2.787005 1.799901
2.807783 -0.033414 1.294917
-1.763587 -1.352786 0.657086
0.406505 0.856562 0.088845
1.248807 0.415549 0.101391
-1.062155 -0.330054 0.120136
1.821361 -0.749554 0.523087
-2.699576 -0.421815 1.213814
-1.217377 0.180229 0.163392
-0.721371 -2.531181 0.940414
-1.070285 -1.813032 0.519685
-0.113721 0.155884 0.032790
-2.176718 -1.196545 0.829828
-0.758331 -0.989053 0.149873
-0.689811 -2.673078 1.245335
1.336399 -0.441134 0.199985
0.815025 0.326125 0.182204
0.674096 1.533905 0.369773
-0.188291 -0.077027 0.016081
-2.285614 1.565169 1.445720
-0.764509 2.731883 1.354047
-1.035247 -0.218939 0.135188
0.206691 0.335256 -0.008335
-1.334214 1.088525 0.297397
-1.988029 -0.875951 0.588699
0.171180 -3.028327 1.871605
0.666490 2.881898 1.759914
1.508647 1.829236 0.751628
-0.080699 -0.369247 0.038533
0.021369 -0.325384 0.089605
-0.323911 0.216434 -0.020183
-0.558460 1.731615 0.392535
1.665603 -2.429511 1.462752
-1.380161 0.000152 0.166213
0.030466 -0.300846 -0.005265
-0.558693 -1.829650 0.557747
0.098904 -0.394576 0.050906
0.355928 2.551698 0.963978
1.619000 -2.344690 1.547676
-3.000803 0.326340 1.743435
2.209998 -0.610743 0.747728
2.166849 -1.862829 1.552514
-0.464815 -1.571320 0.319282
-0.145919 2.950848 1.645723
-2.389803 0.505214 0.998021
-0.017807 -0.078371 0.123837
1.420750 2.098138 0.969171
0.715068 0.695644 0.139310
1.228086 -0.835253 0.279535
-2.927563 0.589403 1.571452
0.427389 -1.112958 0.190868
1.401769 -0.353479 0.154579
1.750186 -0.316417 0.345837
-1.618750 1.773906 0.909902
1.634403 -0.974905 0.333474
-0.964508 2.264368 0.906808
1.592026 1.527334 0.557334
1.251041 -1.476088 0.458971
0.118711 -0.019560 0.017594
1.373157 2.266937 1.103895
-0.002235 -0.040152 -0.016752
-2.129693 -1.372985 0.959206
1.896558 -1.969858 1.126488
0.973787 2.325034 0.912746
1.873841 1.107390 0.650074
0.652091 -2.165780 0.580492
2.948003 0.524455 1.676670
-0.424558 -1.085740 0.224233
-0.004728 -0.570867 0.018836
-2.461239 -1.598544 1.876887
-1.781907 1.236151 0.620572
-0.900007 -0.466346 0.102276
0.128170 -0.924092 0.094442
2.569276 -0.300418 0.947620
2.127953 -0.895989 0.732771
0.233619 0.058130 0.035698
1.276175 -2.724341 1.796396
2.848230 -0.789665 1.734431
2.038211 1.981960 1.317097
2.376761 -1.299182 1.169098
1.208741 -2.749476 1.975822
0.805697 -1.695703 0.505295
-0.666597 2.667019 1.318271
-0.446424 0.081436 0.003560
0.624526 0.170118 -0.017970
-1.692194 -0.302605 0.439898
0.416644 -1.726493 0.408179
0.556703 2.848802 1.665508
1.643104 0.405027 0.282143
-1.069365 -0.060778 0.146576
0.954366 -0.600433 0.162682
0.942564 1.281944 0.206542
1.980650 -1.779270 1.017179
2.423932 -1.651589 1.934164
-2.510425 1.231132 1.198301
1.449894 -2.723579 1.512948
2.936621 -0.033476 1.737545
-0.098235 -0.777069 0.184384
-2.605745 0.734778 1.058665
-1.165272 -1.313419 0.429821
-1.737384 -2.283371 1.231977
1.386447 -1.735421 0.654410
-1.997908 0.555577 0.550279
-0.306943 -0.309274 -0.014859
1.996196 -0.620361 0.601283
2.356809 1.472592 1.284953
1.759665 0.017324 0.432881
-1.905778 -0.107347 0.401828
-2.958205 -0.655689 2.000177
1.154967 2.746823 1.971628
0.001915 0.321917 -0.011421
2.854384 -0.338817 1.538902
1.324761 -1.662313 0.461621
-2.467812 -0.770399 1.014959
0.947548 2.657446 1.226010
-1.076967 -0.737882 0.168933
-0.046772 0.254045 -0.010891
1.449846 -1.714147 0.696742
1.786711 2.421852 1.849810
-0.998366 1.589515 0.488156
2.212052 1.348898 0.906451
2.948982 0.396766 1.696740
0.017623 1.873421 0.402765
1.028323 2.800504 1.922102
-0.357005 -0.228746 0.085795
-0.005075 2.792930 1.306721
1.125609 2.729270 1.650916
-1.557815 -1.861811 0.895087
1.846959 -1.410809 0.780336
0.086977 0.056335 -0.053415
2.497011 -1.718439 1.830472
-0.137626 -1.284923 0.203027
-1.588967 2.112211 1.047200
0.809454 2.714208 1.308473
3.012908 0.199251 1.662179
-0.071688 0.126367 0.076993
-0.053044 0.368963 0.017372
-1.794682 -0.391950 0.500193
1.474786 -2.247199 0.983827
2.013744 1.957510 1.400582
0.957732 -1.530399 0.351262
0.527706 -1.232879 0.157944
-2.714885 -0.924631 1.508807
2.131288 1.957009 1.454958
2.057159 -1.859239 1.172157
0.695121 -2.435342 0.895545
-0.183196 2.798190 1.293468
0.110012 3.043069 1.719050
1.721475 -0.630163 0.360202
1.992807 -0.804319 0.548610
1.560285 -0.230276 0.289341
-1.224619 1.547997 0.484463
1.603413 -2.174339 1.136172
-1.622056 -2.621436 1.960939
0.454885 -2.767817 1.154207
2.547119 1.255840 1.277900
0.186172 -0.074203 -0.010262
0.502413 0.504176 0.172718
0.114920 -0.074675 0.068941
-0.271762 2.699778 0.981704
-0.021690 0.389381 0.044721
-0.778703 -2.727793 1.312095
0.872652 1.740879 0.528518
0.483334 1.967422 0.403928
-2.338288 0.718657 0.795025
1.414447 2.199952 1.078508
1.113180 -2.258764 0.818337
2.819653 -0.892743 1.681408
1.373225 -0.000307 0.117668
1.490162 0.409397 0.225404
0.788765 -0.986566 0.114238
-0.080844 0.166300 -0.069514
-2.769316 1.029144 2.034310
-1.629757 2.409551 1.767079
-1.196945 1.253641 0.347351
1.824668 1.399964 0.727517
-0.775756 2.273455 0.813523
0.340626 -1.969941 0.470677
-1.104057 -0.065151 0.211182
-0.909194 -1.037508 0.311914
-2.621805 1.424533 1.508169
-1.667458 -0.540851 0.441787
0.488509 2.282767 0.646568
1.101973 -1.363402 0.370086
-1.417533 -2.643619 1.848428
-0.592216 -0.296452 0.055262
2.714848 -1.013581 1.695276
0.222145 2.474519 0.881321
3.011100 0.683139 1.768417
0.695692 -2.736969 1.315776
0.808654 -0.727653 0.027005
0.093146 -0.062594 -0.052979
-0.721906 -1.637475 0.392469
0.785211 0.052029 0.032539
0.586734 -0.325847 0.002358
-0.841644 -2.418330 0.963420
1.422953 -1.361336 0.525597
-1.051006 -0.395235 0.081118
-0.043950 -0.623676 -0.002033
-0.058170 0.082015 0.006525
-2.328901 -0.449184 0.703553
-0.422349 -0.881592 0.015032
-2.377859 -1.165664 1.110420
-1.418599 2.618899 1.790147
2.745843 0.641064 1.249314
-1.488872 -2.460164 1.553545
0.459393 -2.393656 0.732047
-1.158053 1.751427 0.557756
-0.092811 2.972407 1.869649
-1.515241 1.148507 0.376336
-2.270963 0.834128 0.831432
2.177397 0.054407 0.653300
-0.209803 -1.113435 0.189639
-0.828986 -1.151775 0.276902
2.062439 -2.281437 1.901653
-2.744565 -0.392523 1.252845
0.753726 -1.296927 0.352471
1.107334 -0.655101 0.233918
0.756892 -1.593755 0.413343
0.572381 -1.983772 0.558406
-0.007190 0.253188 -0.026827
-1.857677 1.180784 0.663801
-2.539319 0.067044 0.960008
1.779866 0.396324 0.410813
-0.329421 1.543132 0.307678
2.099984 -1.045915 0.644448
-0.758585 0.815664 0.145011
-1.447498 0.278582 0.256792
-2.609292 0.671863 1.167308
2.666215 0.093135 1.142872
-1.277280 -0.793214 0.308255
-1.002194 -0.019020 0.079377
-0.522386 1.055559 0.175610
0.832058 -0.075137 0.141100
1.983864 0.799145 0.735489
-1.711494 2.402744 1.523501
-0.621707 1.313821 0.250216
2.593918 -0.658969 1.003546
1.878611 1.869022 1.071536
0.736737 -1.411155 0.314736
0.814692 -0.876039 0.111553
-0.142710 1.745035 0.485263
0.725044 -0.339152 0.117287
1.713097 -1.092892 0.454802
-1.650228 0.510566 0.377672
-0.830682 -2.775029 1.519233
-1.663366 -0.936277 0.411986
0.751946 1.725166 0.483748
-2.002728 1.729107 1.136160
0.127400 -2.161634 0.693689
-1.627128 -0.619161 0.409363
-1.868500 -0.083657 0.491953
-1.690623 2.380017 1.476748
-0.149252 2.887720 1.600810
-0.835463 2.819167 1.724612
-0.380244 2.921930 1.559724
-0.019175 -0.066966 0.015321
-2.111205 -0.502705 0.619368
0.118559 -0.427007 0.042930
2.389819 -1.120974 1.071539
0.174690 -2.461141 0.778825
2.626354 1.141959 1.219030
-0.346920 2.813516 1.384520
-0.122206 -1.471255 0.289257
0.446383 0.075449 0.015594
0.039217 1.543276 0.213367
2.914356 0.085845 1.498009
-1.453091 -2.026866 0.764137
2.100000 1.995690 1.819096
0.219300 -0.123833 0.048194
0.069727 1.576901 0.252790
2.216248 1.009021 0.939041
1.894071 -0.837433 0.585242
-0.034042 -0.444068 0.011604
1.914933 0.164502 0.421441
-1.033202 0.840092 0.195405
0.417934 2.535185 1.041748
-0.416843 -0.965129 0.200387
-2.680460 0.387482 1.087995
-0.507846 -2.813577 1.428512
-2.553558 -0.951656 1.216815
1.290755 2.432363 1.323755
-1.488963 1.103862 0.438513
-0.183220 0.655578 0.093988
-0.185866 2.073998 0.550099
-0.987373 0.017695 0.035843
-0.866142 -2.689278 1.411046
-1.991447 0.311495 0.619522
1.827039 -1.833281 1.008270
-2.840662 0.744284 1.498683
1.024396 2.455954 1.127797
0.438216 -0.639621 0.071915
0.097213 -2.820463 1.403172
2.569606 1.000202 1.267760
-1.316739 -1.368974 0.476391
1.222566 0.513864 0.216240
-1.457853 -0.299561 0.347112
0.018969 -2.891382 1.531959
-1.324417 2.082023 0.809231
-1.471657 -0.030690 0.388098
1.904124 0.976278 0.609001
1.461915 1.903564 0.733654
0.777601 -0.032151 -0.020973
-0.119597 -1.995502 0.565955
-1.094976 0.550812 0.111647
0.963879 0.123983 0.060582
2.202991 0.850936 0.815605
-0.268169 2.485596 0.940722
-0.087947 -0.594539 0.037623
0.767658 -2.199814 0.669058
0.077836 -0.375321 -0.004044
0.295785 -0.319220 0.106978
0.831853 -2.441211 0.874893
0.366271 -0.617950 0.060913
-2.289787 1.893555 1.812536
-1.079949 1.397940 0.348602
2.428374 1.650294 1.815293
0.948651 0.861815 0.223488
-2.019670 0.449490 0.538526
2.088714 -0.438906 0.546142
1.009968 -0.849379 0.158751
2.490322 -0.694430 0.830998
-0.678310 -1.018940 0.204465
-0.957014 -0.289032 0.106952
0.024241 2.576851 0.887841
-0.269708 2.923370 1.511377
-1.009262 0.561063 0.207973
1.553664 0.048863 0.282873
-1.035515 2.710126 1.312124
-0.969034 -1.484299 0.449947
0.670292 -1.176320 0.215484
-0.016310 -0.644062 -0.018539
2.193876 1.174882 0.873974
0.155531 -0.193998 0.084444
-1.639291 0.489572 0.379716
1.154808 0.894436 0.242253
-2.217179 0.116486 0.713871
-0.497523 -0.102857 -0.031279
-0.497949 -0.011025 0.022438
-0.811646 1.131894 0.241846
-2.012307 1.235428 0.755004
-1.894642 -0.084422 0.412578
1.061832 -0.414490 0.109081
-0.164464 -0.445178 0.045911
1.456549 -1.158690 0.497798
2.232160 -0.462648 0.610704
0.918337 2.510053 1.086551
-1.519522 1.990516 0.804913
0.455180 -0.461586 0.048281
-2.193405 0.810891 0.873651
0.169561 0.907228 0.075922
0.180028 -0.055339 -0.045863
-1.632561 -1.904206 0.911139
2.281410 -1.721424 1.359559
1.196874 -0.227224 0.190249
0.312936 -2.348772 0.703623
-2.849565 0.961344 1.630495
0.478245 -1.366651 0.230731
2.025044 1.618125 0.962711
-0.928987 2.863471 1.724421
-2.457138 1.374964 1.182894
-1.769234 -2.433330 1.668784
-0.383692 -1.099940 0.170551
-0.532120 2.929818 1.961752
1.437758 2.471597 1.246445
0.110601 0.283683 -0.051647
0.245074 2.178400 0.730560
1.049577 -2.001565 0.668394
2.388121 -0.216939 0.906118
0.356561 -2.735311 1.250831
-1.475694 -2.540267 1.443615
-2.141569 -0.551821 0.744950
0.731383 -1.234309 0.341182
2.021925 0.911425 0.727914
-0.263819 1.976715 0.631835
-0.090784 -0.691619 -0.011887
-0.526659 1.711625 0.334014
0.229458 -1.817210 0.503419
-0.277714 1.564383 0.344534
-1.805071 -0.769533 0.533129
-2.292428 -1.197873 1.024187
1.497632 -0.313279 0.230126
-0.426880 -0.282090 0.028932
0.442742 2.893991 1.474845
-1.470071 -1.824865 0.667552
1.550435 1.428057 0.688127
-2.265490 -1.710872 1.196484
1.081644 1.698896 0.425188
1.116881 2.161835 0.859076
-0.705765 0.545458 0.074325
0.123711 0.091124 0.030625
-0.093969 -0.050622 -0.126912
-0.036235 -0.030470 -0.057633
0.178624 0.551168 -0.006037
0.411697 0.363204 0.028937
-1.140426 0.753919 0.241881
-0.514505 -2.017788 0.508874
0.266857 -0.108845 0.082159
-0.444974 0.214411 0.033198
-0.170112 -0.148885 -0.013006
-1.366103 2.732393 1.916865
-1.622192 -0.619524 0.410336
0.620854 -1.183363 0.124734
-0.746642 -2.101447 0.639513
-1.920822 -2.194832 1.584109
0.943957 0.437182 0.143527
-2.610235 -0.042886 1.054187
-0.419885 2.798425 1.254780
-0.326486 -0.566765 0.114897
1.081853 -0.429587 0.120511
0.539852 -1.994927 0.776175
-1.123229 0.682107 0.272265
-2.022548 1.817583 1.287471
2.377323 -0.665535 0.806117
1.207635 -2.754884 1.868422
-2.044891 2.177396 1.728213
-2.003944 -2.262156 1.582731
0.421703 1.028784 0.091334
-0.449713 -1.089159 0.173765
-0.822986 -1.286980 0.335179
-0.371411 -0.578235 -0.038729
-0.710635 2.206429 0.832602
0.346086 -0.053791 0.114212
-2.906648 0.290448 1.380685
-0.595156 0.677656 0.071022
-1.905469 1.156286 0.697254
0.877251 2.162405 0.766415
0.551725 -1.384145 0.290821
-1.477840 0.161776 0.183083
1.131200 -0.448157 0.101180
1.397650 1.454405 0.531834
1.138235 2.724121 1.681110
0.211876 -2.892929 1.510338
-0.433990 0.040964 0.019955
0.156292 -2.636061 1.102816
-2.652675 -0.632497 1.181322
0.325114 2.984257 1.898951
-0.163678 0.107435 -0.017704
1.107883 -2.712295 1.511911
0.734216 0.427290 0.025308
-1.926334 -0.138845 0.508865
1.226956 -0.689471 0.269348
0.105962 -2.910646 1.880194
1.010031 -2.596351 1.291343
-0.195248 -0.278909 0.169242
-1.873609 1.165451 0.513596
-0.442101 -0.393423 0.011854
0.735199 0.090148 0.114587
-1.470181 -1.260968 0.339986
-2.783483 -0.771742 1.602237
0.704762 1.016615 0.117809
-1.492449 0.587388 0.283548
2.917630 0.207907 1.629128
0.078567 1.488533 0.356301
-0.446243 0.770049 0.070998
0.432415 0.400250 -0.002241
-2.545158 -0.747427 0.911954
2.958211 0.029306 1.771791
-1.219523 2.664461 1.612608
0.167160 -0.015992 -0.061793
-0.494232 -0.786387 0.149015
-0.630782 2.720716 1.285779
1.803140 0.508071 0.434214
2.160881 -2.089414 1.878125
0.751688 -1.850895 0.528687
0.452323 1.690681 0.456076
-1.553449 -0.748675 0.342249
-0.184963 0.454288 0.025455
0.792705 2.090727 0.544431
-2.795293 0.127369 1.191690
1.931585 2.266999 1.569347
0.118284 -0.168800 0.033633
0.089911 -0.376661 0.023407
0.108850 2.775319 1.248163
-1.329931 2.195175 0.895285
0.068628 0.190854 -0.017694
-0.905751 0.406357 0.145269
-1.442554 1.474142 0.556016
-1.783685 1.312354 0.647688
1.288620 -0.161775 0.217239
-1.861346 -0.261013 0.468152
-1.752497 -2.126676 1.079614
-2.448870 -0.313530 0.870090
1.499405 -2.444698 1.391749
-2.016424 -1.009984 0.561398
-1.000375 0.292924 0.182846
-0.840921 -0.190321 0.049941
-0.372457 -1.352515 0.160246
-1.737919 2.017679 1.098740
-0.128331 -0.078406 0.020910
-0.261718 -0.520845 0.038195
2.202563 -1.967051 1.960937
0.255368 -3.014049 1.856192
-1.420821 2.161306 1.108520
-2.004340 0.241822 0.493991
-0.938395 -2.717332 1.893781
-1.398278 0.900734 0.331683
0.354174 2.857663 1.477993
-0.724772 2.950379 1.975519
-1.686595 -1.882729 0.824770
-0.085477 -0.742284 -0.058718
1.908154 -0.749506 0.509024
-2.777562 0.492110 1.273063
-1.240581 -0.224481 0.156081
-0.791135 -0.469884 0.113987
-0.603309 -0.625623 0.098488
-0.166746 0.121988 0.034709
0.110038 -0.401487 0.089647
-1.159953 1.087339 0.278799
-0.030666 -0.016753 -0.020479
2.941485 -0.578658 1.922436
0.041933 -0.016341 -0.073701
-2.626036 0.839697 1.037008
-0.455855 0.135201 0.040573
-1.793449 1.314825 0.706599
-0.790787 0.786875 0.135592
-2.255923 -1.965550 1.903274
-1.242090 -0.968764 0.231680
-0.839441 2.910583 1.861184
-2.718900 1.058665 1.720312
-1.038010 -1.539660 0.357670
1.811943 -0.473541 0.415197
0.158487 0.321203 -0.004083
-2.035884 0.522465 0.533523
1.425754 0.652239 0.284586
2.152712 1.938520 1.346420
-2.549101 1.467933 1.552746
1.538177 2.150323 1.124292
-2.748064 0.420028 1.293891
1.669280 0.529427 0.388015
0.273744 0.838683 0.119912
1.962668 -2.238503 1.689171
2.246729 -0.511491 0.734607
-1.640777 -2.152261 1.201266
-0.000523 -2.671541 1.075447
-2.730559 -0.626266 1.259795
-2.793351 -0.903472 1.528703
-2.205732 2.099662 1.921803
-1.726483 -1.918901 1.067266
-1.623599 2.002273 1.003093
-0.292030 -2.014328 0.601987
1.439338 0.103730 0.338476
-0.216882 0.484971 0.116691
0.348032 2.888196 1.391905
1.489725 -2.205756 1.171830
-2.665981 0.964342 1.455615
-2.286236 0.773437 0.772433
1.474546 2.390602 1.246604
-2.047462 -1.859371 1.309363
-1.601883 -2.310660 1.324904
0.290064 2.899904 1.435500
1.345454 -2.175907 1.015056
-0.527148 1.594120 0.298837
0.809767 2.507464 1.146971
-0.818149 0.063311 0.099349
-1.203023 1.398720 0.352637
-1.233309 -2.139608 0.818032
0.403572 1.758852 0.420122
-2.078481 1.921464 1.434638
-2.750245 0.700697 1.405336
-0.669781 -0.677021 0.198244
-2.216600 -1.614825 1.090497
-0.476546 -0.280892 -0.008191
-0.890461 1.264019 0.223012
1.950767 -1.794377 0.916625
0.668744 -0.222402 0.008328
2.889645 -0.441114 1.388416
-2.333082 -1.144070 0.881240
0.636331 0.275931 0.034873
-0.922502 -1.255811 0.325883
-2.431989 1.748263 1.739197
-1.032990 2.262896 0.821917
-0.197101 2.812283 1.275572
2.438836 1.548057 1.641945
-2.816148 -1.171440 1.972783
-2.425635 0.213986 0.758978
-2.058481 1.110191 0.758204
0.858109 -2.372046 0.885905
1.071352 -0.485316 0.148400
0.178055 1.811495 0.327239
-2.263767 0.815328 0.663443
-1.664151 -0.900028 0.449866
1.515977 1.079177 0.447291
-0.766205 0.112075 -0.006365
-0.266194 0.322800 0.012189
0.076667 0.169456 -0.071088
0.835896 -0.248594 0.069505
0.386468 -1.493115 0.369383
1.641797 1.589182 0.716047
0.783501 -0.457928 0.142782
-1.851760 -2.304993 1.398387
0.479099 -1.883667 0.439403
-1.616705 -1.156035 0.527334
1.219843 0.916271 0.231470
-0.803144 0.235741 0.093613
-0.264097 0.544572 0.118136
-0.458113 1.133928 0.156173
2.882630 1.165051 1.948807
-0.235159 -0.515480 0.024234
0.211790 1.564164 0.290661
2.160894 -0.912081 0.729212
-0.766946 -0.067139 0.048713
1.651990 -0.066011 0.350752
-2.142463 -1.157480 0.769500
0.991332 -2.522596 1.304460
-2.147348 -1.543605 1.082434
-1.329278 2.591348 1.471583
1.899521 1.342736 0.741612
-2.744600 -1.220528 1.825460
0.694784 2.426771 1.042875
0.002601 -0.024162 -0.046672
-1.613804 -0.388389 0.367893
-0.448955 -2.232696 0.699214
-0.010334 0.023347 0.006064
0.878019 -1.407806 0.361013
-0.002619 0.028145 0.006042
0.095448 0.041501 -0.012931
2.002601 0.449517 0.493534
1.938184 -0.383364 0.578408
-0.871068 0.324998 0.075894
-1.077363 2.837607 1.735298
2.163518 -1.214572 0.881904
1.419737 -1.280294 0.522324
-1.530436 -1.728078 0.829427
2.406414 0.928360 0.834491
-1.336442 -0.736864 0.240843
0.973559 0.691383 0.065657
0.734477 -2.628638 1.089924
-1.359578 -1.755337 0.763384
2.505998 -1.336283 1.475110
0.790219 -0.397812 0.078025
-0.866417 -2.920812 1.822741
-0.359375 0.814174 0.020176
-0.143856 -2.973582 1.991860
1.956595 2.015264 1.294514
0.184240 -0.033029 -0.055948
-1.331708 -2.648678 1.801762
2.431570 -1.154381 1.145685
-1.418390 -0.140573 0.239399
-0.127907 0.185262 -0.024763
1.570644 0.424734 0.340297
-1.639211 -2.078730 0.949802
-1.673947 1.434929 0.734892
0.007837 -1.908134 0.475168
-0.610684 -0.456514 -0.001977
-1.622245 1.373516 0.581482
2.214843 -1.182123 0.993184
0.950825 -0.048032 0.061179
-2.023304 1.198713 0.758591
1.530479 2.438130 1.374365
0.705651 0.232992 0.020704
2.462466 -1.247523 1.347890
0.500759 -0.422660 0.097490
-0.030477 -0.153177 -0.059228
-0.268264 -2.246824 0.695023
-1.424268 -0.243594 0.201832
1.905688 -0.920886 0.534414
-2.832554 -0.282719 1.342790
0.105037 0.200507 0.004770
-0.944067 -1.346223 0.212819
2.308737 0.213042 0.707199
-2.649372 1.299031 1.953226
0.713254 -0.689791 0.225030
-0.601370 0.524699 0.066050
-1.137586 2.099107 0.842958
2.508696 1.574957 1.676647
-2.634661 -1.040525 1.239620
-0.562480 -0.532994 0.030190
-0.347126 0.234230 0.054304
-2.641248 -0.493859 1.187676
-0.749487 2.081150 0.633593
1.792911 -1.666137 0.776355
0.753920 -2.003652 0.571038
-0.410205 2.915884 1.516428
1.528272 1.840327 0.770703
-0.631083 2.638438 1.103664
0.076346 0.152041 -0.023557
-0.366032 0.107812 0.141533
-0.181467 0.107994 0.062119
1.522375 -0.787349 0.419578
-0.846801 2.661842 1.218240
-0.098386 0.085717 -0.103361
1.477328 -2.492340 1.684297
0.312277 -2.955717 1.702309
0.388675 -2.464906 0.829083
-0.015628 -0.135500 0.027687
1.886478 -0.580056 0.626575
-0.562159 -1.296334 0.197455
0.266194 0.225116 -0.010089
-0.309919 2.478708 0.866548
-0.230782 0.759025 0.085186
2.461749 -0.910603 0.933721
-0.044635 1.395554 0.236365
1.266820 2.257131 0.986878
-0.004381 0.895726 0.117096
0.736964 -1.593510 0.515403
-1.261106 -2.669790 1.521876
-0.872575 2.113695 0.717325
-0.870088 1.963016 0.610708
0.802100 0.066603 0.083548
-2.679414 1.370117 1.910402
-0.098295 0.043546 0.029830
-1.709441 -2.126873 1.090571
2.641861 -0.666909 1.157571
2.987131 0.110284 1.907989
-0.715110 -2.476081 0.926703
-1.203186 2.624321 1.784975
-1.906192 -0.008919 0.375781
-2.325644 1.976302 1.763509
-2.134057 -2.106794 1.605800
1.280071 -0.703727 0.268800
-1.842067 2.295149 1.440303
-0.491088 -0.966284 0.267776
-1.737800 -2.484548 1.915510
0.434164 1.587726 0.344180
-0.741029 -2.029961 0.663867
1.590214 -2.592345 1.629767
-2.207510 0.649928 0.726061
2.615914 -1.205377 1.606235
-1.313500 -2.392290 1.245276
-0.358772 0.415419 0.061921
1.214014 -0.305362 0.079731
-0.491442 0.211766 0.064295
-1.701204 -0.817663 0.418083
-0.057589 -0.812833 0.157198
1.640516 2.384780 1.548734
0.923967 0.321849 0.144619
1.685373 0.943581 0.404105
-1.591593 -2.429554 1.474803
0.187762 -0.013876 -0.082810
-2.662510 -1.010811 1.306856
0.978947 2.412665 1.084900
1.546148 0.168787 0.286920
-0.595442 0.256864 0.051456
2.731598 -0.384664 1.122120
-1.482113 -0.459952 0.247827
0.393085 -2.807475 1.495243
-1.700602 2.518320 1.872744
-2.537474 -0.652827 1.026311
0.228878 2.054965 0.590157
1.191769 1.368775 0.334722
2.468750 1.402122 1.397354
-1.040085 2.260629 0.891821
-2.642012 0.854396 1.286304
1.719938 0.638153 0.421918
1.739304 -0.722159 0.441963
2.174403 1.209570 0.903036
0.551012 -1.472019 0.357343
-1.880884 2.255792 1.571222
2.136741 -2.024594 1.614416
-1.226176 -1.582209 0.542527
-1.013269 0.297283 0.175808
-0.481814 2.906810 1.646571
1.450812 -2.579493 1.486007
1.840489 -2.255772 1.958294
0.008134 0.348590 0.069833
0.002041 -0.118254 0.044238
-0.954549 -0.301860 0.103702
-0.372430 -0.699198 0.163700
-1.479377 2.000705 0.939759
-0.082496 0.344439 -0.022065
0.950990 -0.862730 0.174690
-0.175812 -0.386542 -0.020274
-0.885654 0.198827 0.137550
0.142306 1.062005 0.141986
-1.474545 -1.031192 0.371210
-2.356199 0.578720 0.856232
-1.010752 -1.833625 0.561057
-1.885417 1.773567 1.170528
-1.877415 -0.312612 0.491040
0.248559 -0.382073 0.021456
-2.255955 -1.445610 1.043606
-0.394280 -0.103758 -0.075971
0.353477 0.831929 -0.010047
-0.034952 -0.183937 -0.006799
-0.874197 1.921151 0.555786
0.958651 -0.225791 0.181165
-0.889669 0.136429 0.047248
2.549419 -0.207627 1.064164
-0.456984 2.530681 0.950639
2.764261 0.505055 1.290613
2.029619 -0.003492 0.588006
-0.845117 1.670361 0.398838
-1.362587 1.285857 0.463602
0.104668 1.705833 0.319945
-1.057257 -2.556222 1.191535
-2.760862 -0.721498 1.367331
-0.769698 0.603262 0.147631
-0.615584 -0.468401 0.027912
-2.434352 1.228356 1.227858
-0.116650 -0.246433 -0.044158
1.197047 0.889779 0.243587
-2.940990 0.571041 1.888908
-1.373541 2.608893 1.950786
-1.505826 2.372680 1.234595
-1.955219 2.161940 1.588407
-0.519128 -2.263034 0.714897
-1.941501 2.061226 1.351934
2.120909 -0.967424 0.716334
-2.472162 0.152136 0.732774
2.502740 0.292649 0.969270
2.891792 0.286828 1.677525
-2.896330 -0.809231 1.777565
1.814387 0.699718 0.515913
0.833394 -0.135027 0.041875
-1.443161 1.502715 0.539206
1.091874 -2.685551 1.628622
1.432126 1.446043 0.482232
2.695396 0.654896 1.338688
0.654010 0.920218 0.137752
-1.502313 2.442650 1.322729
-1.862355 -1.588241 0.817623
1.000852 -1.359084 0.430408
-0.825169 -2.329864 0.831417
2.624887 1.283697 1.445779
1.267101 -2.304482 1.030249
-0.173384 0.682294 0.086909
-0.843618 2.894736 1.920020
-2.006102 0.193413 0.498683
1.076274 -1.084935 0.241759
2.845946 0.543406 1.707252
-0.555793 0.565976 0.015175
-0.613754 -1.363766 0.356201
0.771703 2.465210 1.075590
-0.219605 1.625732 0.222104
-1.835596 -2.255517 1.679267
2.189420 -0.198050 0.727803
-0.758166 -2.398906 0.967675
-2.166345 0.402339 0.628367
1.853066 1.771374 0.925093
2.670556 1.399339 1.862871
1.948646 2.329315 1.819258
0.250189 0.981690 0.144939
2.625672 -0.494949 1.144878
-2.567073 0.975951 1.247843
2.969448 -0.140336 1.608970
2.976838 -0.379579 1.827099
-2.575946 -0.391643 0.792757
-0.246486 0.309297 0.053920
-2.667177 -0.325312 1.132699
-1.495744 -0.933228 0.501686
-1.321916 0.103875 0.198403
1.392761 1.355242 0.399422
0.072320 0.159906 -0.071529
0.065723 0.304288 0.044978
-0.854682 0.257260 -0.010629
-0.651133 -0.258416 -0.014088
2.563409 1.192450 1.322947
-1.204530 -2.650820 1.650359
-1.126041 -2.217616 0.902229
-2.070507 -2.250604 1.873568
0.672081 2.814045 1.299831
2.127691 0.539848 0.693631
0.802743 2.648577 1.378464
2.552896 1.325167 1.416348
-1.877871 -2.329024 1.562338
-0.767729 -2.610984 1.206080
-0.577783 2.751642 1.223134
-0.558545 2.092396 0.583694
-0.744110 1.293705 0.315430
0.037149 -0.368908 0.056022
-0.053605 0.159843 0.027740
2.220250 1.882070 1.391333
0.070942 0.235065 0.046882
2.054845 -2.131038 1.641308
1.224237 -2.488192 1.233872
1.203269 0.326186 0.138559
1.096408 -2.762710 1.638341
-1.673417 0.339075 0.480970
2.387633 -0.026919 0.776568
0.078008 0.421025 0.035534
-1.534586 -0.714539 0.372227
0.667655 0.749321 0.162558
0.035387 -2.213982 0.697150
-2.737440 -0.933609 1.643073
0.164600 -2.901513 1.382232
-0.299407 2.095105 0.631798
2.446640 1.347612 1.175206
1.659833 1.717786 0.825211
2.437196 0.145115 0.697705
1.949519 0.345908 0.537708
0.327666 -0.314736 0.062367
-2.446732 0.356551 0.755328
-1.848616 -1.799115 1.116961
2.029850 1.934535 1.494309
-2.124625 0.596987 0.603716
2.666975 1.265984 1.955104
2.127906 -1.242745 0.916070
-0.846095 -0.895699 0.145095
-1.138068 -2.144636 0.839822
-1.768379 2.213722 1.353299
2.596533 1.470539 1.955000
1.847720 -0.625519 0.479177
0.322055 1.083802 0.130074
-2.138988 0.885819 0.842797
-2.514016 0.613834 0.934526
0.459335 0.019044 0.062989
0.380405 -0.683483 0.080326
-1.523946 1.539985 0.647756
1.011693 0.060035 0.080302
-0.078819 -0.086075 -0.011306
-2.014381 -0.171975 0.623513
0.475415 0.271009 0.076572
0.100167 0.151140 0.009601
-0.005833 -0.164965 0.016399
-2.355871 0.209199 0.832335
-0.810635 -2.222341 0.800112
0.447379 -1.700854 0.368321
-2.351898 1.230091 1.162810
0.328242 -1.291652 0.248434
0.055662 -1.458035 0.169042
-0.842599 0.994287 0.177355
0.499780 -2.143335 0.674855
2.282326 1.942583 1.900454
-1.341134 -0.825816 0.293449
0.797692 0.930187 0.248563
2.688068 0.750684 1.253646
-1.388362 0.459568 0.315489
0.723731 2.607081 1.178372
0.780899 0.451714 0.153936
-1.563620 -0.938426 0.320619
0.654035 2.507886 1.104791
-1.001218 2.804135 1.553005
2.726772 0.697732 1.393906
0.034187 -1.067909 0.159372
-1.789626 1.863426 0.992532
-0.144601 2.987105 1.757194
-2.542860 1.092465 1.253510
-1.802797 0.200218 0.478382
-0.384839 -0.309371 -0.010649
0.477995 0.133633 -0.009187
1.988751 -1.870951 1.051514
0.606146 2.633326 1.078541
-1.206795 2.708429 1.714770
0.447853 -2.656734 0.949432
-1.484208 0.371430 0.281266
1.675759 -0.253298 0.286242
-0.220380 -0.823610 0.039046
0.673491 -0.802756 -0.009358
0.549666 0.138998 -0.014983
0.142899 -2.901595 1.406224
-1.062490 1.992130 0.573152
-0.440606 0.753588 0.125140
1.385749 -1.846154 0.696156
1.791452 0.494821 0.458085
-1.404868 1.905745 0.806946
1.953218 -0.889234 0.627941
-1.199410 -2.652804 1.301679
0.054630 -1.625395 0.288483
1.011853 2.761266 1.731335
1.619285 2.520596 1.850618
0.404349 2.926601 2.051186
0.344768 1.066281 0.144643
1.174249 -0.134781 0.189737
-0.338234 -1.589912 0.364939
-0.312864 2.779506 1.334039
2.558903 -0.640319 1.130385
-0.141399 1.374405 0.186026
2.141624 0.950432 0.729315
-1.483673 -2.205416 1.114146
-0.289972 -0.006628 -0.011805
-2.550054 1.505167 1.542511
-0.701726 2.599974 1.069172
-0.130930 2.185668 0.699292
0.162081 -2.332896 0.630686
-0.743916 0.276170 0.065188
-0.016683 -2.348117 0.754568
2.083780 -0.407545 0.532064
1.332574 2.353452 1.012201
-0.564693 0.234808 0.042080
-2.629368 -0.051841 0.984837
-1.438136 2.065208 0.935220
1.914718 -2.190504 1.401626
-0.302400 -0.711856 0.094532
0.116330 -0.343541 0.001381
0.291085 0.729388 0.063114
-2.670060 0.413988 1.163294
-0.822077 1.179717 0.265604
-0.730565 -1.470015 0.316447
1.543155 -0.592937 0.425061
-1.623111 -2.324433 1.289926
-0.013308 -3.034695 1.924966
0.596917 -2.076943 0.478504
-1.200550 -1.243222 0.357900
-0.909886 1.189645 0.255769
-1.615496 1.108001 0.424239
-2.359265 -2.033297 1.942318
2.616038 0.240410 0.907258
0.614919 0.820139 0.081418
2.616810 1.417912 1.928591
1.491001 0.839956 0.356389
1.087523 -0.144290 0.106105
-1.190991 -1.108282 0.342603
-0.097661 -0.178216 0.117206
-0.284438 1.653465 0.343379
-2.178539 -0.019405 0.674354
2.449412 -0.356024 0.754511
0.010406 -0.062829 0.000610
1.940817 1.945537 1.029556
-0.585312 -0.145011 0.008534
-0.608772 1.438603 0.308810
-0.325954 -0.130081 0.028561
-1.090148 1.843744 0.630346
2.734452 0.656885 1.369157
0.767681 0.531774 0.140107
-0.891051 2.823335 1.866268
-0.695155 0.558951 0.044433
-2.090474 1.015912 0.744352
3.027612 0.382603 1.669695
-2.762580 -1.079893 1.610303
-2.635707 0.001277 1.160500
0.733580 0.793290 0.217159
-0.061839 2.759902 1.239967
-0.441242 -0.344047 0.104032
-1.147145 0.459989 0.111062
-2.226066 1.769867 1.349661
-0.312386 -0.352047 0.025730
0.735683 -1.122058 0.149733
1.913324 1.398146 0.758674
2.572906 -0.401051 1.182471
-2.539546 1.563899 1.990718
-0.061125 0.019383 -0.082722
-1.864759 -2.314247 1.752274
-2.061887 -0.414819 0.687765
-0.512609 -1.911871 0.515777
2.003006 -0.377415 0.500986
1.612929 -1.628287 0.653367
-0.485948 -2.792373 1.311892
-0.867362 -0.039361 0.082317
1.191881 1.743642 0.539601
2.694602 1.024474 1.368105
2.111725 0.699823 0.642364
-0.358182 1.924788 0.528524
-1.616191 -2.347511 1.261064
0.919005 1.808699 0.572179
-1.704312 2.519784 1.594009
0.263329 2.147801 0.577293
2.200563 -0.894032 0.751286
-0.617050 0.939025 0.198455
-0.925567 1.421188 0.301807
-0.088016 -0.045061 0.031571
1.189285 0.998583 0.315597
-1.097555 -2.091525 0.709958
0.112534 -1.626752 0.330521
-1.723570 -0.255567 0.264045
-0.088646 0.055160 -0.003181
-0.074873 -0.514217 0.090696
2.728044 -0.944830 1.570380
2.678393 -1.159651 1.829029
2.091826 -0.876825 0.835858
-0.450675 2.725238 1.254146
0.702585 -2.836298 1.490170
-1.379420 -2.704458 1.883880
0.868981 1.790598 0.451601
1.971580 2.310403 1.816862
0.290281 -1.706891 0.410262
0.762707 -1.557465 0.395150
-1.417844 -1.282840 0.482250
-2.912741 0.651037 1.719665
-1.831005 -1.723506 0.930058
0.051161 -0.244154 0.050746
-0.583345 0.286211 0.031441
-2.973366 0.122427 1.760588
-1.617467 1.160912 0.577836
0.249413 -0.117279 0.038441
-0.069327 -0.415261 -0.081519
-2.624061 -0.344885 1.033228
2.791833 -0.154170 1.197910
-1.275494 -0.248216 0.203389
2.209652 0.651306 0.722574
0.356891 -1.830359 0.515080
2.022722 -2.118189 1.883751
0.883639 -0.824460 0.174048
-2.202543 1.547334 1.033260
2.647165 0.636371 1.240075
0.608868 -2.720186 1.203108
-0.100757 -0.107297 -0.053684
-2.661991 0.297347 1.087098
0.434208 0.224447 0.051535
-0.010463 -1.007480 0.084059
3.028953 0.360861 1.993209
-2.311605 1.714638 1.474709
-0.991370 -0.973957 0.118358
-2.121814 1.473559 1.007029
1.374417 -1.384128 0.421622
-0.008746 2.247148 0.691263
-1.449652 0.837785 0.378475
2.758006 -0.401341 1.291177
-2.846819 0.779445 1.513020
2.245383 1.566136 1.103971
2.590495 1.462987 1.621658
-3.012637 -0.010736 1.918382
-0.591107 1.017047 0.127825
-0.877066 -0.124092 0.108095
-1.781281 1.787922 1.025129
0.562566 0.198004 0.077298
0.137546 -0.113448 0.025479
-1.542199 0.606372 0.327414
0.062521 0.974283 0.025570
0.817930 2.853369 1.675040
1.829160 -2.408116 1.910794
-0.379736 -2.922914 1.715323
-0.355985 0.082102 0.055513
0.144849 -0.009181 -0.001808
-2.835720 1.090994 1.676113
1.134371 -0.064932 0.217248
0.870864 -1.743721 0.493625
1.854708 1.652734 0.817223
0.574921 0.637956 0.051302
1.347993 0.520037 0.263121
-2.166087 -0.428108 0.670007
-0.418440 3.007150 1.800864
1.545561 1.811917 0.771501
1.036510 0.476918 0.124774
-0.567528 1.594568 0.385487
0.578254 0.085561 0.102616
-0.534300 2.569479 1.159392
-2.422231 1.556887 1.395449
2.239407 0.344764 0.679992
-0.035455 0.080347 0.107957
-1.817211 -1.938008 1.044067
0.214411 2.827181 1.393497
-1.462950 -1.266606 0.516722
-1.510550 -1.101552 0.459078
0.438403 -2.208744 0.580154
0.687184 -0.990221 0.197703
0.324613 2.123338 0.613871
0.217627 -0.080101 0.045809
-0.236963 0.627749 0.065146
0.319955 -1.311305 0.290852
-0.702196 -0.026674 0.114173
0.648525 -1.045456 0.166721
-1.318913 -2.441803 1.154829
-0.491304 -2.918719 1.641587
-1.787327 2.074319 1.299570
1.414522 1.697845 0.549701
2.065448 -2.000793 1.402259
0.966894 -2.676956 1.350333
0.087962 -2.976536 1.817698
-2.539055 1.341018 1.546688
0.776901 -1.517960 0.363471
-0.882873 0.417825 -0.035814
-2.058394 -1.987036 1.410757
0.279206 -1.084041 0.225198
-1.069136 0.517485 0.157248
-0.874166 2.100377 0.582397
0.057134 -1.905325 0.436075
-1.722630 0.786533 0.448666
0.852996 1.212620 0.213620
0.177756 0.062970 0.095300
2.019782 0.094488 0.501928
0.384738 -0.114889 0.126355
1.782970 -2.109218 1.175746
2.961603 0.535592 1.790838
-1.442319 -1.043614 0.318065
2.798656 -0.153316 1.375749
0.430350 -0.456804 0.097009
0.255585 0.682727 -0.062665
0.402411 -1.684506 0.315334
0.686858 -2.065338 0.637570
-0.857417 2.515265 1.157425
1.041795 2.491651 1.271181
2.353652 1.750887 1.712638
-0.020110 -0.079170 -0.008575
-0.648040 -2.788265 1.520847
1.807659 0.034723 0.371743
0.730063 2.299704 0.884753
-0.638932 -1.376805 0.325600
-2.615342 0.838288 1.126231
-0.936430 0.656359 0.165136
2.425068 0.597878 0.778388
2.294223 0.074282 0.787178
-0.268494 -1.230724 0.126140
1.938533 -0.230751 0.491958
-0.882691 1.682028 0.548112
0.930934 0.903542 0.234237
-0.842916 -2.849133 1.548109
0.590778 -0.229723 0.058307
0.324090 -0.186486 0.027590
1.626989 2.395271 1.953843
-1.214550 -1.313054 0.383375
-0.736924 1.644298 0.392419
2.455703 -1.795600 1.946023
2.564931 0.247739 0.972172
1.487672 -2.229257 1.145278
-0.030518 1.318506 0.143805
2.207642 -1.862119 1.205937
-1.189675 0.490074 0.181578
-1.995844 2.122718 1.595467
-1.574068 -0.899108 0.352825
1.744566 -2.437727 1.545804
0.640182 -2.250862 0.689150
0.031783 -3.046858 1.837197
-0.330779 1.348563 0.222447
-0.644803 0.402432 0.006667
2.454723 -0.121970 0.874772
1.180691 -1.980647 0.702221
0.601612 2.706926 1.270708
2.382641 -0.989739 1.109886
0.612427 -2.280780 0.727352
-0.102202 0.798412 0.095792
-1.050783 -0.927537 0.317307
2.568136 -0.908291 1.174496
-0.501380 0.656613 -0.014478
2.466999 -1.092899 1.191222
0.895824 -2.193957 0.729251
-1.636328 2.345545 1.469501
-2.381716 0.047547 0.808255
0.041626 -0.026227 -0.000912
2.442888 0.334987 0.822322
2.817401 -0.941570 1.996659
2.424023 -0.906173 1.051723
2.271578 1.071000 0.893836
1.722587 -1.717086 0.867633
-1.742087 0.617763 0.433161
-0.197565 -1.335970 0.241869
-0.514162 0.386233 0.020987
-0.108446 0.104242 -0.092586
-1.541561 2.513460 1.751893
2.159501 1.146920 0.831598
-1.957825 2.099047 1.493678
-2.405944 1.313484 1.344587
-1.267996 0.273024 0.210934
2.155317 -0.314147 0.598372
2.264292 -0.755735 0.728575
-0.368063 -0.863924 0.071809
2.575039 -1.007886 1.323447
0.933273 -2.902847 1.743027
-2.703001 0.720726 1.264625
2.194473 0.124188 0.597635
1.252860 -0.500632 0.200593
2.843663 0.816710 1.960810
-0.552856 0.922131 0.079451
0.040630 0.017126 -0.043160
2.115804 1.257563 0.973164
-0.749183 1.279382 0.131017
-0.550941 -1.961460 0.584942
-1.183121 2.386455 1.216186
-1.964239 -0.799156 0.577570
0.344075 -1.094537 0.209083
-2.851322 0.532191 1.740468
-0.042881 -0.226225 -0.011899
-0.330752 0.018565 0.070148
0.026396 -0.326900 -0.129554
0.327339 0.871496 0.040857
1.467688 -1.636639 0.593031
1.462029 -1.108618 0.330573
1.640214 -1.769136 0.820616
2.785144 0.984173 1.372006
-0.322756 -2.284597 0.748986
0.231631 0.381142 -0.090639
-0.992516 1.688466 0.561983
-0.626712 1.683174 0.452046
2.272617 0.462926 0.710379
-1.018694 1.271371 0.376312
0.384049 -0.911841 0.181354
2.048577 -0.321055 0.503810
-2.533946 -1.356827 1.491342
0.191252 0.472327 0.053717
2.648698 -0.803311 1.480577
2.574720 -1.446508 1.513378
1.926252 1.029063 0.604676
0.705613 2.446413 0.992825
-1.818206 -2.221983 1.356813
-0.308434 0.063828 -0.081465
1.005584 -1.553726 0.475878
-0.876740 2.814218 1.921155
0.582065 0.975943 0.129403
-1.194123 1.781044 0.616715
-2.143901 0.554347 0.532038
-0.258029 -0.392240 0.005785
2.382146 -1.201258 1.155728
0.315817 1.684028 0.279949
0.719688 2.931986 2.027765
0.421121 0.171111 -0.016095
0.302011 -0.383100 0.083595
2.429961 -0.072325 0.747424
-0.334406 -0.703363 0.122583
-0.745827 2.777674 1.414714
-0.709279 1.048433 0.139416
-2.309015 0.839472 0.985365
0.169860 0.611394 0.174434
-1.873584 -1.759988 0.920977
-1.971521 -1.081826 0.651369
-2.290018 -1.016448 0.935561
1.937821 -0.474448 0.505137
1.804195 -0.616105 0.424439
-1.117636 -2.571493 1.394187
-2.603705 -0.933212 1.249374
-0.526373 -1.599074 0.302017
0.761265 -2.625263 1.256729
2.155839 -1.536752 0.938210
-2.572430 -0.418386 0.948398
-1.446767 -2.274539 1.061426
0.289545 -2.309803 0.830214
-0.605742 0.611936 0.045253
1.596496 -1.985942 0.905353
0.444195 2.622387 1.161287
1.277740 2.676500 1.615537
-1.022734 -1.469980 0.395187
-2.456236 -1.124438 1.076190
-2.301310 -0.727855 0.813050
2.094287 -2.276740 1.723523
-0.571655 1.092601 0.136698
-0.843736 -2.842015 1.319413
2.139095 2.036377 1.959787
0.343261 0.428078 0.040353
-1.940060 -2.228365 1.795705
-0.226827 0.379197 -0.029628
-1.645348 -0.100469 0.269325
1.215338 2.217612 0.882285
0.211232 -0.401534 0.006402
0.045742 1.890874 0.394867
-2.587168 1.212170 1.460904
-0.498561 -2.470710 0.876993
-2.758083 1.050240 1.601749
0.020720 -0.211189 0.125442
-0.488046 -0.276855 0.047744
-0.588546 0.997331 0.189377
2.481680 0.180815 0.898994
2.812354 0.710917 1.358366
-2.605770 -1.118577 1.301898
-1.947207 -2.153863 1.846372
-2.132406 -2.089834 1.709717
0.032081 0.089353 -0.034962
-2.836828 0.164616 1.370989
-0.638181 -0.198506 0.049536
2.390632 1.501612 1.443586
1.635435 -2.513273 1.698008
-1.741384 -0.633888 0.427349
-2.084375 0.737574 0.585357
-1.424766 1.739496 0.722211
-0.286517 -1.194297 0.177979
-0.981222 -2.840944 1.783981
-0.487723 -0.077149 0.037367
1.559624 2.483299 1.696875
1.847081 0.978275 0.639382
-3.760982 -0.157273 -0.407915
0.736005 -2.447700 1.112650
0.553404 2.714382 1.412781
0.247314 3.695680 2.956697
-2.325946 -1.231160 -0.794614
-0.641854 2.978120 2.131396
0.913377 -1.155321 0.256369
-1.162496 0.619919 2.766872
2.710797 -2.231200 -0.064439
0.725964 3.557410 2.712466
-2.114783 3.161603 -0.224613
1.432819 3.513807 2.274777
2.293291 2.774521 2.072378
-0.927376 0.380139 -0.355902
3.203516 0.473104 1.490996
1.670189 3.150441 0.712682
1.655747 -3.725448 1.245397
1.201961 1.196834 2.819465
1.322180 -3.908505 0.706230
-1.817789 0.720761 0.499418
2.740676 -3.579726 2.363368
-1.849981 -3.846321 2.963141
-0.508040 -3.731563 -0.505511
1.359332 -2.632547 1.078557
3.144929 2.928706 -0.231277
2.913847 -2.585574 2.335747
-0.810539 -3.622850 -0.550872
0.897106 1.390574 2.260251
2.385444 -3.240111 2.242735
1.554467 1.642090 1.613601
-1.229675 3.734283 -0.958655
1.115904 -1.147429 -0.695679
-1.851639 -3.404289 1.952550
-0.782141 -2.593484 1.263953
-2.766554 -0.280024 1.012322
-1.423805 2.688110 0.277979
-3.178034 -2.817032 1.138646
3.601457 3.001778 1.104249
2.069694 -1.516382 1.906544
0.448538 -0.603666 2.154633
-3.711396 -3.676634 -0.533604
1.060514 3.790468 0.662567
1.510613 -2.153912 0.512495
3.780225 1.642502 0.481873
-3.234121 -1.187451 -0.709059
-1.595746 1.089838 -0.610133
1.235270 3.479891 -0.960054
-1.002928 3.015025 -0.740113
-1.342167 1.750863 -0.547899
-2.959944 -1.157161 2.724251
2.090424 0.883627 2.845234
2.165362 -1.778665 1.785575
2.409744 -2.736309 -0.062676
-3.369155 0.989631 0.489724
0.337586 -1.993433 1.137119
2.056751 -3.174455 1.574303
-1.556405 -1.892675 2.575671
0.550289 3.568978 0.895183
-2.225511 1.958581 -0.889639
-1.464513 -2.905713 2.166828
-0.145662 -2.303932 1.207119
-0.262182 -3.851091 1.327725
1.963392 0.592129 2.948928
-3.828503 -1.878449 -0.623501
-2.275144 -1.784919 0.062041
3.205622 0.239429 -0.330282
-2.682814 2.977774 1.434926
-2.194429 -1.732476 1.646622
-0.329686 1.276028 0.352533
-2.596316 -2.990682 2.891289
0.508718 -0.256731 2.912067
2.782289 2.305375 1.769456
-1.520463 -3.605659 1.370424
-1.720637 -0.822719 1.063549
2.754770 -1.212066 -0.977708
