ply
format ascii 1.0
element vertex 2625
property float x
property float y
property float z
end_header
1.582339 1.195750 2.029248
1.710167 1.090161 2.656404
0.951267 -1.657424 0.963782
-1.148797 1.636199 0.668878
-0.929033 -1.775752 1.196374
0.560918 -1.878273 2.634683
0.392440 1.833187 0.063254
1.889424 -0.741642 0.604884
-0.403589 1.964107 2.655624
-1.856169 0.726831 2.259098
-1.873916 0.447842 1.004034
-1.742422 -0.955992 0.823714
1.394663 -1.466609 1.478550
0.513501 1.928855 1.065905
-0.009587 -2.079224 1.238499
-1.256983 1.531997 1.209044
2.024003 0.352754 0.170072
-0.970891 1.703862 1.429970
-1.179137 -1.560603 2.035848
-1.398510 -1.436285 0.640604
-0.297547 2.035528 0.859303
1.466558 -1.369983 0.968076
2.014132 0.113294 0.383981
1.834353 0.920760 1.237762
-1.954366 -0.003773 1.603155
-1.089778 1.804200 1.586402
1.980728 -0.355759 2.636988
-1.965736 0.341261 2.074392
1.050092 -1.640588 0.788130
-1.941718 -0.132625 1.014188
1.055885 -1.806212 2.427423
1.749568 1.036076 1.749995
1.914095 0.263798 2.626721
1.823901 -0.565242 0.525544
0.280777 -1.925965 2.312058
2.026781 0.268319 2.282513
1.724902 -1.010472 1.816530
0.384498 1.871577 0.294565
-0.358518 1.902760 1.525451
1.997194 -0.241429 -0.019826
-1.074338 -1.652687 2.094288
1.833355 -0.689854 1.914656
0.320863 1.924885 1.809631
1.042473 1.711110 0.675374
-1.789542 -0.965332 1.985708
1.952509 0.677652 0.567947
0.944109 1.739130 2.666334
-1.000282 1.813809 1.071654
-1.918696 -0.566422 2.373246
-1.116815 -1.701105 1.914698
-0.256107 -1.960107 0.119191
2.092642 -0.195552 0.773472
-1.587796 1.223438 1.117234
1.596773 -1.166461 0.253489
-2.091251 -0.170221 2.192897
1.954598 0.572103 2.608640
-0.795351 1.707709 1.171876
-0.131843 -1.876943 0.540947
-1.131004 -1.676901 2.882262
1.660126 -1.183610 0.646069
-0.478457 -2.004039 0.944770
-1.460500 -1.312613 2.031614
-1.281223 1.569752 1.250832
2.025300 -0.383658 1.155794
-1.720004 -0.995346 0.634880
-1.504736 -1.156449 0.994384
1.552020 1.389842 0.682353
1.777693 -1.014047 2.673811
1.855482 -0.583935 0.783052
1.006563 1.762195 2.401681
-1.893068 0.670400 1.619996
0.754034 1.810453 0.884559
1.821194 0.707454 1.473569
0.407380 -1.928009 0.344355
0.850712 1.750369 2.130549
-1.512521 1.293083 1.291016
0.434412 2.027446 0.731940
-2.032283 0.271018 0.699268
-2.062802 -0.115861 1.799924
-1.664676 -1.382262 0.788720
1.565949 1.302914 2.084476
-1.939133 -0.510635 1.391839
-1.617211 -1.205018 1.364173
-1.901437 0.398240 2.372724
-1.480170 -1.257226 0.382921
-0.332228 2.083487 2.768612
0.051868 1.976715 0.360487
-1.902559 0.630137 0.057027
-1.114859 1.794168 2.393985
-0.875735 1.876936 1.682895
-1.947698 -0.564179 2.750085
1.022058 -1.720163 0.251142
1.949983 -0.187591 1.491829
1.841423 -0.741541 1.198858
1.130991 -1.689935 1.091880
-2.055924 -0.002281 2.895587
-0.944493 -1.691972 2.229856
1.846218 -0.606786 -0.069609
-1.715471 0.982466 -0.005305
1.195407 1.644727 2.083448
-1.019073 1.614453 0.955649
1.502860 -1.308594 1.414415
-1.982810 -0.438448 0.510293
-1.007157 1.651556 2.839077
-1.124397 1.688406 2.652870
-1.677821 1.120151 1.343611
-1.571496 1.227082 2.480920
1.569496 1.214689 0.382816
-0.245011 2.033293 0.098772
-1.878775 -0.436178 0.142866
-1.872287 0.672486 2.468798
-1.483071 -1.350324 1.779863
-0.582787 -1.930232 2.376298
1.146454 -1.571747 1.792619
-2.000907 -0.097755 2.956101
1.779338 0.833340 0.262489
-1.385023 1.579552 1.617021
1.977877 0.093636 1.204912
-0.252934 -1.964289 0.676731
-0.602196 -1.917881 0.271165
2.049549 0.218874 2.160544
-0.305681 -1.910358 1.105483
-0.326056 -1.882256 1.280564
1.331066 -1.386448 1.618515
1.551302 -1.130664 1.415666
1.221430 1.600613 2.491952
-0.194952 -2.063039 0.954208
-1.848750 0.957099 1.863071
1.261318 1.512158 1.583952
1.183126 1.557304 2.274002
-1.770542 0.856533 2.234382
-0.989638 1.713266 1.951255
-1.750613 -1.039259 2.501212
-1.533110 -1.270594 1.630275
1.905463 -0.525175 1.914118
-1.549954 -1.263949 0.529449
0.488411 1.874232 1.676702
2.116805 -0.337921 0.582585
-0.329291 -2.028268 1.128745
-0.955517 1.707327 2.947788
0.898891 -1.800463 1.583248
-1.919891 0.334192 1.836010
-1.908177 0.629329 2.616460
1.622483 1.283056 1.389920
1.063408 -1.765009 0.056377
1.879776 -0.717821 1.201835
1.301622 1.463367 2.740532
-1.738656 -1.031858 1.952701
0.931396 1.817930 1.932188
1.637067 1.060530 1.814177
1.888823 -0.558535 2.503711
-0.631596 -1.983417 1.233499
-0.857969 -1.755360 0.210875
-0.886069 1.791013 1.196207
1.286953 1.432802 1.962012
-1.850648 -0.999873 2.043191
1.635493 -1.305575 1.413146
1.164639 1.541637 1.494378
0.214705 1.938691 1.054919
0.712227 1.821644 0.324094
1.460538 -1.230793 1.444534
-1.955830 0.550383 0.642332
-1.564294 1.377528 2.964908
1.027958 1.824075 0.795257
-1.981354 0.291198 0.871354
-0.280001 1.920243 2.832483
0.647112 1.849833 0.934300
1.889311 0.350837 0.081279
-1.202205 -1.638712 0.916341
1.260687 -1.612711 1.587377
2.012967 -0.397914 2.852155
1.829753 -0.896096 1.961096
1.930422 -0.245347 0.154585
0.934416 -1.784247 0.849754
0.755525 1.816202 2.525775
0.829847 1.835399 0.110707
-1.681545 1.117447 1.901081
1.581013 -1.216463 1.271078
0.144563 -1.908703 2.752670
1.783430 -0.952846 2.913948
-1.998483 0.121054 2.730982
-1.762132 -0.918950 1.978818
0.758665 -1.860283 1.902282
-0.004226 -2.003733 -0.017903
-1.077861 -1.614114 0.236652
-1.642036 -1.190336 1.014031
-1.030960 1.846397 1.771536
1.714958 -1.217147 1.813290
0.372124 -2.016434 0.250247
1.667013 1.146402 0.501050
-1.363950 1.430209 0.898810
0.776120 1.833240 2.646300
-0.213084 1.952929 2.606470
-1.419947 1.386766 2.025838
-1.859077 0.570229 0.678400
1.986346 0.030429 2.957236
0.850549 -1.906053 0.068232
1.940731 -0.470101 2.064423
-1.248424 -1.603370 0.594729
-0.411655 -1.937774 2.170679
-1.916298 0.061990 0.707089
2.072113 -0.135597 2.145559
-1.518176 1.254623 1.646403
-1.047485 -1.757316 1.941567
-1.729007 1.020793 0.984276
-0.879273 -1.925388 0.474703
-1.645537 1.184647 2.496846
1.644252 1.020682 0.102090
-1.846890 -0.690302 1.557082
-1.843369 1.002186 2.580273
-0.908602 -1.759314 1.209658
1.996664 -0.293093 1.726686
1.967785 -0.064992 2.793657
0.803806 1.767062 2.560795
-1.387575 1.441894 2.386322
-0.528906 -1.966205 0.639514
1.876275 -0.996146 2.909738
1.843830 -0.674765 1.777518
0.154903 2.011420 1.672954
1.617266 1.198597 0.342361
-1.283815 -1.559390 0.757070
1.914093 0.926894 1.790562
1.849949 -0.568164 2.502724
1.871992 -0.539967 1.065458
-1.911963 0.653131 0.912210
1.687431 1.162000 2.921668
1.213307 -1.644576 1.272954
-0.667098 1.958080 0.592991
-0.071118 2.072653 2.886121
-1.844331 -0.320187 2.569475
0.572724 -1.832333 1.345279
-0.560140 -1.957665 2.576713
-1.852188 0.743961 1.832641
1.772018 -0.737611 0.403228
0.135863 -1.959502 0.622523
-0.674002 -1.837002 2.243686
-0.006979 1.998129 0.622018
-0.186348 1.991496 0.380383
-0.555187 -1.954873 1.470372
-0.256970 1.993995 0.710349
-1.053710 1.675219 1.568127
0.402166 2.052055 1.132341
-0.963720 -1.762891 1.068878
0.298659 -1.920726 1.746877
1.998796 -0.413535 1.741344
0.862091 -1.712710 0.868641
-1.916734 0.282978 0.867887
1.953441 0.323795 2.946173
-0.202464 2.087349 2.907580
0.558187 1.897799 2.817883
0.759024 1.725214 0.165114
1.463075 -1.405073 0.458784
2.023277 -0.013091 1.150433
1.987156 0.446520 2.776815
1.933505 0.577490 1.792972
0.290253 -2.073404 0.460843
0.388262 1.966393 0.821296
-0.844402 1.840257 0.878082
-1.311015 -1.416947 2.675556
1.931851 0.298668 2.604582
2.019550 0.084464 1.812191
-0.126750 -1.992016 2.781973
0.330196 1.996106 0.952022
-0.015538 1.972747 1.735403
0.534767 1.817669 1.258245
0.666215 1.892285 1.972966
-1.716525 -0.835781 0.916345
-0.278011 -1.934507 1.787546
-0.021937 1.982853 1.020186
-1.768769 -0.994935 2.350980
-1.668153 -1.164662 2.706016
1.928765 0.704575 1.174160
1.031196 1.752986 1.081046
1.978211 -0.340613 0.999882
-0.888574 1.811739 0.982391
-0.570330 -1.908252 1.234484
-0.031090 2.030291 1.125288
-0.484840 1.900571 0.120774
0.744190 -1.936330 1.593370
1.437588 -1.468917 1.883258
1.306689 1.448129 2.462140
0.570638 -1.917617 1.442635
-1.845081 -0.576674 2.458664
-1.644788 -1.257652 0.329415
-0.072370 2.048440 3.043150
1.458791 1.409994 2.910980
-1.302145 1.426096 0.946246
-0.609368 1.972543 2.777917
1.875534 0.812358 1.231583
-1.900834 -0.464363 1.763833
1.909308 0.387109 1.707670
-1.803247 0.733781 1.810381
0.453548 -2.020866 2.593276
-1.983691 0.177961 2.870793
-1.641877 1.205955 0.321451
-0.861617 1.838908 1.732797
-0.461598 -1.948391 2.978067
-0.426352 1.990855 0.041188
0.316332 2.040247 0.045772
-1.827497 -0.738190 2.845777
1.330273 -1.468868 0.517340
1.916845 0.333681 2.157596
-0.677958 1.860904 1.808366
-1.137766 -1.560361 2.504560
-1.172269 1.530931 0.417194
-1.476507 1.409973 2.966103
1.383391 -1.361352 1.547987
-0.907046 1.823265 0.811420
1.515907 -1.432538 2.661062
-1.942186 0.612181 2.484744
0.346579 1.959462 2.396322
1.749011 -0.916660 1.691255
-1.470662 -1.319132 1.790729
0.537625 1.915632 0.234525
-2.065050 -0.023426 2.694355
0.391569 1.909764 0.987058
1.130961 1.716480 0.777352
-1.452006 1.372268 2.783443
-0.283055 -1.980790 2.903700
0.948487 -1.848097 2.966901
-1.851675 0.890366 0.264101
-2.040574 -0.004951 2.654497
0.195715 -1.957967 1.607292
-1.745201 0.969958 2.935552
1.394762 -1.533864 2.769769
1.973721 0.753039 0.695481
1.057168 -1.712392 0.325299
0.182628 2.049836 2.775871
1.748881 -0.989749 1.225344
-0.075256 2.034581 2.061511
-1.914364 -0.543661 2.205256
1.325287 1.473687 1.579922
1.048861 1.591243 2.757410
1.682600 -1.119877 1.779471
-1.971236 0.147235 2.174998
1.968424 0.045864 1.654593
0.215748 2.007885 1.717371
-1.172315 1.649951 1.547907
-0.815100 1.749982 1.792238
0.796167 1.786946 1.455311
0.884116 1.747546 2.534049
-1.853771 -0.910371 2.532086
-0.978764 1.752811 1.032579
-1.337161 -1.465015 0.876892
0.019509 -1.998513 1.836896
1.923749 -0.734276 0.814999
0.957071 -1.639712 0.172750
1.923097 -0.298653 0.887243
1.153737 1.593318 1.152230
-0.428491 -1.903147 0.358323
0.902111 -1.715588 1.681919
2.015088 0.136029 1.351739
-1.895983 0.519953 0.272164
-1.926561 -0.576637 0.314820
-1.413443 -1.430179 0.537768
0.563858 -1.943280 0.056502
-1.025387 1.809838 1.374285
1.966987 -0.542738 0.285621
1.523490 1.375327 0.463319
1.952956 0.503586 1.109097
0.512153 1.854922 1.820168
1.445021 1.498381 1.161298
0.721543 -1.819670 0.096061
0.340739 -2.004087 0.205980
1.850417 0.736290 2.015829
1.819823 0.736915 0.096355
-0.185732 -1.995797 2.219413
-0.648349 -1.866669 2.468197
-1.977855 0.089981 2.615342
-1.978031 0.288544 1.454467
-1.507551 -1.307157 1.554866
1.811598 -0.947416 0.640081
-2.037022 0.026757 1.417528
-1.690538 0.951235 1.175351
1.544549 -1.193430 0.631144
-1.073613 1.759793 1.743032
-1.645488 1.116949 0.847817
-2.049795 0.153561 2.743630
-0.644899 1.951244 1.555830
1.955060 0.575364 1.559378
-1.583023 1.018271 2.082350
-1.507439 -1.256264 0.909296
-1.555552 1.176203 0.148474
1.244605 -1.490324 1.040927
-0.498282 1.995425 -0.020004
1.767912 -0.949535 2.023818
0.798675 1.795778 2.855387
-2.035189 0.113000 0.859069
-0.382909 2.008238 0.426702
2.044514 0.207575 0.539743
1.155272 -1.569846 1.284703
1.752223 1.124803 0.567853
-0.957213 1.724540 2.697637
1.116561 1.672956 1.511518
-1.748135 -0.639262 2.350713
0.280313 -1.891510 2.427676
-0.459396 1.994326 2.561185
1.173871 1.691970 1.922006
-1.379840 -1.418006 0.206949
0.009952 2.006746 1.925561
-0.911336 -1.781837 1.949812
0.383281 -1.923989 0.825747
1.154970 1.642168 2.291086
-0.509043 1.902991 2.756244
-1.295872 1.536569 2.826515
-1.315049 -1.529059 1.613809
1.318093 1.372271 1.124134
-1.630688 -1.202880 1.377860
0.003775 -2.084360 0.682723
-0.102327 -1.969713 2.849165
1.022124 -1.704566 1.326949
2.005244 0.220898 1.386184
0.176697 -2.035588 1.621471
1.922630 -0.276674 1.882007
-1.869155 -0.555410 2.039046
1.414631 -1.340787 0.976835
1.915290 -0.680404 2.495111
1.794904 -0.953732 0.836339
-0.231327 1.909999 1.308907
-1.026091 -1.723385 2.451695
0.701892 1.840793 2.594113
0.364386 1.891778 0.744595
-0.709646 1.984926 0.867168
-1.272168 -1.510204 0.956729
-1.634808 -1.131031 1.692499
-1.941882 -0.574597 1.970195
0.647716 -1.926710 0.698784
-1.800314 0.721951 1.800063
-0.191270 -2.030377 2.122653
1.854238 0.763883 0.484847
-1.977107 -0.131533 2.610044
0.093361 1.981144 1.100175
-0.590011 -1.941031 2.126302
0.327974 2.003526 1.636739
0.059098 1.976822 2.478701
1.615112 -1.053119 2.338582
1.793458 0.849659 1.974112
1.484044 1.366418 1.524562
-0.915170 -1.813345 2.113649
2.042988 -0.113663 2.202598
1.117479 1.623619 0.897445
1.310877 1.409172 0.970819
0.861179 1.767027 0.711776
1.963384 -0.066138 1.621515
-2.008929 0.197926 2.342078
1.691044 0.889527 0.906943
1.922042 -0.510900 1.322475
0.635970 1.851649 0.859341
-1.530787 1.213897 2.854957
-0.201630 -1.981111 2.445951
-1.876260 -0.762457 1.984977
0.428527 -2.019876 0.982004
-0.718719 1.864401 1.281209
1.740569 0.994754 2.721319
-1.272061 -1.577590 0.082772
-0.529510 -1.973885 1.172388
-1.184414 1.648321 2.444644
1.700815 -1.160015 1.013038
1.174216 1.569376 2.465238
1.735552 -0.932286 0.334694
-0.892514 -1.792731 0.213215
-1.522732 1.284638 2.297937
-1.919569 0.074041 2.658235
-1.843478 0.657382 2.626065
1.259249 -1.528317 0.433588
-1.780672 -0.949478 1.438787
-0.868245 -1.859971 2.797097
-1.617190 -1.205270 0.589760
-0.307333 2.023039 0.068956
-1.318233 1.542496 1.630187
1.117236 1.533004 0.153969
-1.888422 0.708698 2.932342
1.281422 1.490382 0.949078
0.046901 1.951962 0.978716
-1.858661 -0.814625 0.336901
0.033583 -1.999079 1.926205
-0.166188 2.003144 1.384353
-1.607710 -1.036490 0.903689
-0.686410 -1.885488 2.280713
-0.818807 -1.779077 1.638262
-0.869054 1.887033 1.131968
-0.363923 -1.928668 2.475366
0.636727 -1.930558 0.840724
1.681607 1.085193 0.831306
1.466888 -1.194578 1.691926
0.064286 -1.971177 1.674404
0.214966 -1.991051 0.835745
0.431952 -2.037924 2.983783
0.816785 -1.778948 1.508450
1.802807 0.845035 1.791749
-1.972502 -0.008002 2.068723
1.050822 1.740059 2.168748
-0.796285 -1.862591 0.987339
-1.437573 1.290428 1.810305
1.122889 -1.630657 0.104062
0.363197 -1.965252 2.254298
-0.902491 -1.655401 1.735998
-1.926372 -0.257102 1.335055
0.902709 -1.769614 0.142662
-1.613047 1.220693 2.284382
1.924988 -0.092956 0.707973
0.987286 1.725073 2.456777
-1.586190 -1.225412 1.854263
2.044014 0.386121 0.104274
-1.456159 1.245363 2.268812
-0.090002 -1.931436 2.452538
0.575857 1.802299 0.801757
1.879804 -0.851998 2.170917
-0.066455 1.979526 0.032285
-1.214670 1.578631 0.871351
1.656450 1.106036 1.576380
0.498168 1.973752 2.630250
-0.922298 -1.815560 0.743877
0.859668 1.862525 2.930728
-0.315513 1.942235 0.680886
-1.300854 1.586985 0.155754
-0.088839 -1.902137 1.467289
1.663661 -1.034272 2.275487
1.631563 -1.016557 0.492327
-1.436611 1.395620 2.102438
-1.513511 -1.371692 0.248414
1.442947 1.228551 0.023584
0.227490 1.883443 2.183033
1.970008 0.339825 1.679916
1.273327 -1.497213 3.032726
-1.865426 0.812689 0.709320
-0.395096 -1.959009 1.674382
1.914635 0.561227 0.851853
0.434201 2.004072 0.497685
0.911158 1.773892 1.759708
-1.822773 -0.446627 2.104443
-1.334782 -1.487404 0.963711
-0.438361 -2.005688 2.660313
1.296936 -1.513625 2.943535
-0.642971 -1.829362 1.520566
-0.180371 2.009657 0.764187
0.582828 -1.892952 2.354760
1.706573 0.965097 0.909338
-1.896920 0.727035 1.600322
2.006897 0.021501 0.424232
1.538312 1.256418 0.912676
0.744573 1.794745 0.727348
1.887829 -0.295580 1.219209
-1.345557 1.502188 0.042121
-1.583599 1.262991 0.991117
1.962446 -0.134369 1.041841
-1.486717 -1.290741 1.477534
-0.724585 1.974371 2.478739
-1.829362 -0.598455 1.157210
-0.025045 1.947932 2.016457
-0.017049 2.046865 2.181184
-1.535343 -1.162592 2.897290
-1.893036 0.524567 -0.011339
1.352465 -1.526460 2.061322
2.006000 -0.197793 2.998621
0.282180 1.940857 1.599270
1.978538 0.014943 1.270142
-1.912594 -0.495657 0.055213
-1.093166 -1.647969 0.398489
-1.701619 0.940362 0.417864
1.904524 -0.322859 0.857730
1.604135 1.121895 2.697292
-1.985688 -0.166911 2.635695
-0.292207 1.978442 1.844936
-0.267040 -1.970641 0.988781
-1.851672 -0.203600 1.888562
-0.758650 -1.852116 2.878452
-0.575724 1.920219 2.959459
1.834080 -0.992192 2.913715
1.338922 -1.349313 0.930314
-1.231804 -1.576025 2.434407
2.020154 0.162643 1.282166
-1.800039 -0.821396 1.896972
-0.828026 -1.893136 1.097126
1.594976 1.248879 1.808878
-1.670114 -1.164503 1.219782
-1.535157 1.318434 1.491205
-1.499318 -1.212004 1.884581
-1.165187 -1.601346 1.374679
-1.996915 -0.415518 1.871886
-1.075904 1.632413 0.232634
-0.298004 -1.971268 0.794210
-0.977204 1.857607 2.841719
1.973745 -0.547735 1.592885
-0.760392 -1.870380 0.900635
-1.203371 -1.584921 0.310707
1.927336 -0.332203 1.010926
1.834878 -0.957375 1.182901
-1.119875 -1.616273 1.008018
-0.881382 1.886291 2.577247
-0.160328 2.046214 1.037391
-2.029538 -0.174880 0.681867
-2.057366 -0.262601 0.879510
-0.171796 2.027423 0.588698
-1.944216 0.520377 2.974826
0.601961 1.910853 2.777864
-1.722459 -0.969403 0.311275
-0.059462 -1.976465 0.161632
0.400171 2.027292 2.722251
-2.072694 -0.003291 1.550904
0.292759 1.967900 2.832757
-0.459687 -1.932265 0.288560
0.782933 -1.978129 0.450617
1.051590 1.594357 2.555389
1.910437 0.539699 0.984728
-0.260118 1.992881 1.432876
-0.180465 1.931747 0.891668
-0.164930 -2.064610 2.385544
1.892185 0.711444 1.487991
0.992818 -1.743508 0.768819
0.763724 -1.885799 2.988842
-1.758825 0.852221 1.725901
-1.942776 -0.463127 1.419518
1.963729 0.528785 1.554527
-0.803582 -1.823278 1.969110
-1.088763 1.598737 1.758213
0.237376 1.995646 2.889078
-0.524850 -1.842767 1.485968
-1.649032 -1.189500 3.043279
-0.338704 -1.918661 2.841953
-1.161488 1.682099 0.708821
1.250205 -1.596285 2.916048
1.045735 -1.819498 2.283183
2.004757 -0.400106 0.375295
-1.285991 1.600312 0.140083
1.029029 -1.760049 0.268021
-0.519314 -2.002840 2.838625
1.797486 0.954596 0.793957
0.920638 -1.830373 1.510323
0.853099 -1.771014 0.132097
-0.021652 -2.083273 2.764491
1.354448 1.473415 1.657893
0.976112 -1.763232 1.951864
1.620703 1.134562 0.265521
1.604310 1.140765 2.833137
-2.047486 -0.084229 0.326038
0.541594 1.868154 1.045301
1.960594 0.022358 1.928935
-1.381032 -1.553777 0.150384
-1.225164 1.561005 1.911138
0.885279 1.815481 2.577021
-2.012963 0.264416 1.093443
1.687828 1.028783 0.678270
-0.577042 -1.846896 0.361222
0.492446 1.822743 2.390303
-1.289187 -1.445999 1.008011
-1.455408 1.282600 2.093015
-1.796604 -0.693091 1.248164
0.206938 1.937898 1.305288
1.156328 -1.636887 1.186756
0.176867 -2.020195 2.992032
0.054342 2.044041 0.953132
1.657462 1.109305 2.082155
0.141025 1.919845 0.217887
0.445571 1.944925 3.021046
-2.044112 0.015709 0.441149
-1.723641 0.905574 1.782569
1.319030 -1.454553 1.238332
-0.997236 -1.694803 1.509554
1.369765 1.485696 2.361673
-1.902980 -0.682503 1.083299
0.705263 -1.817381 2.153409
-0.574110 1.933596 0.097341
1.932474 0.279520 1.050858
0.448602 1.949824 0.338890
0.367611 -2.023791 2.960283
0.996752 -1.784258 1.787045
0.692882 -1.833544 0.137701
-2.010588 -0.188392 1.224956
-2.014307 0.074097 1.277699
1.078212 -1.683004 2.327084
1.254792 -1.600210 1.919770
1.791440 0.901777 2.707852
0.649433 -1.905508 2.652524
-1.419866 1.370067 0.650594
2.023342 0.517389 0.784165
1.949983 -0.215127 0.158823
-0.616826 1.876745 1.861597
-0.070652 2.019303 1.358387
-1.952628 -0.315580 1.588976
0.947074 1.733297 1.994539
-2.100875 0.022092 2.838841
-1.717994 -1.119299 2.753164
1.396133 -1.432776 0.447505
1.975218 -0.243972 2.396939
-0.692824 -1.800456 2.671413
1.319199 -1.481445 2.629764
1.225084 -1.645901 2.442127
-0.617550 1.953198 1.759556
-0.618303 2.002923 2.843906
-0.931955 1.697142 0.086911
0.435827 -1.955816 0.665657
-2.007927 0.363879 2.697687
-0.812892 1.823537 1.069217
1.482838 -1.409550 2.223212
0.471427 1.890239 0.620818
0.023883 -1.972640 1.872878
-1.257690 -1.409515 0.265658
1.498738 1.226431 2.687945
0.665925 1.801502 1.311766
0.464122 1.978931 0.476563
-1.662543 1.080929 0.553550
-1.907051 -0.616491 1.804744
1.984621 -0.110265 2.990489
1.796916 0.734765 2.684419
-0.492520 1.865805 0.318260
-0.425649 1.909178 0.466018
-1.956872 -0.121592 0.910955
1.333072 -1.569543 1.274211
-1.755899 0.800183 0.627292
-1.925812 0.532341 0.418313
-1.911999 0.354781 2.426526
-1.941938 0.391860 2.082389
-1.396917 -1.364494 2.940290
1.950093 0.038902 1.000160
0.710175 1.835850 1.334313
-1.332171 1.685562 2.933551
2.029010 -0.313693 1.280576
-1.509623 -1.384770 0.756378
-1.088768 1.619160 2.590534
1.870045 0.542429 0.721700
-1.745449 1.039215 0.438338
0.165518 1.965557 1.661535
-0.102661 -1.987951 0.893147
-1.075613 -1.618169 2.031313
-0.190416 1.952856 1.883396
-1.938135 -0.130296 2.378167
1.322474 1.535394 2.478547
1.997896 0.177285 2.677525
-1.118642 1.605226 1.280768
1.579627 1.260258 1.658673
-0.715916 -1.800148 1.963196
1.536960 -1.327320 0.888691
0.567270 -1.942555 0.747993
1.532392 1.283722 1.501570
-1.881718 -0.480214 1.498422
-1.108392 1.537587 2.611438
-1.853988 0.555597 2.874225
-1.433497 1.477073 0.300846
-1.000461 -1.633585 1.441409
-1.912924 -0.701717 1.083179
1.798790 0.775521 2.048676
1.691497 1.121481 1.657860
-1.715002 -1.036091 2.066673
1.778595 -0.980229 2.618089
-0.106978 -1.982432 1.706743
-1.653415 1.135692 2.435466
1.652259 1.127549 0.603302
1.961350 -0.151317 1.604940
0.112532 1.996866 0.651992
-1.909590 0.189688 0.702713
-1.981275 0.109631 2.664949
-2.059923 0.238897 1.887074
0.524306 1.835031 2.505673
1.602466 1.151134 1.641773
0.901250 -1.631918 2.100949
1.794979 0.805863 1.260126
1.619423 -1.132299 0.271264
-1.972845 0.123143 2.799057
1.187286 -1.646415 2.571315
0.843187 -1.854244 0.355445
0.850690 -1.735877 1.530882
1.594517 -1.362794 2.952760
-1.454164 -1.369722 1.217877
-1.843116 -0.621531 1.243102
-1.144796 1.561004 1.624926
-1.963154 -0.484382 1.740373
2.037889 0.336093 1.977041
-1.622526 1.074282 0.689845
-1.210753 1.627337 1.637222
1.716860 1.002367 2.709077
-1.817556 0.635926 2.285050
1.938944 -0.339581 1.842767
-1.370109 -1.500475 0.394006
1.605804 1.294650 3.014249
1.155174 -1.503618 2.621079
1.633489 -1.048116 0.752242
0.207587 -2.008509 0.286526
0.892515 1.871313 0.779464
-0.339330 2.048200 2.766138
0.978707 1.728232 1.367854
0.314159 -2.066608 1.273213
-1.813253 -0.856725 2.515396
-2.065446 0.007207 0.036281
1.191270 1.586834 1.297276
0.612193 1.826856 1.480316
-0.645639 1.912605 1.946591
1.937907 0.719980 2.027809
2.002957 -0.276173 1.132636
-1.988522 0.288937 2.717912
-1.815161 -0.514205 2.180761
-1.090622 -1.700903 1.390613
-1.913382 0.653205 1.408660
0.375348 1.947895 -0.039697
1.680892 -0.982629 0.472375
1.155194 -1.686334 2.472689
-0.821555 1.718227 0.806755
0.806082 -1.845889 1.324784
-0.876430 1.760885 2.844313
-1.370674 -1.518747 2.019455
1.105587 -1.640575 0.843496
-2.028617 -0.056426 0.222540
-0.220267 1.957599 1.747029
-1.204819 1.513633 2.115073
-1.438658 1.308630 0.819842
-0.912493 1.803308 0.065237
1.054202 -1.708675 1.187303
-0.042925 2.085116 1.470197
-1.537189 1.260002 1.303005
-0.825867 1.878847 0.394653
-0.257483 -2.016530 0.590813
-1.204690 -1.670001 0.910618
-0.459356 2.075888 2.565708
-1.194560 -1.552171 1.356834
-1.229018 -1.596149 1.177091
-0.091283 1.994305 0.467303
-1.286352 1.468899 1.191397
1.966667 -0.225925 2.578096
-1.699472 1.091339 0.038382
-0.820494 1.924942 2.232665
-1.019839 1.690886 2.420550
-0.813329 1.917955 0.620453
-0.139607 -2.066999 1.092873
0.825794 1.872045 1.209711
1.158959 -1.680426 2.176164
-1.100694 -1.697655 0.465917
-1.852073 -0.741166 2.554851
1.942767 0.915723 0.778361
-1.296314 -1.495142 0.355664
1.792834 1.048079 3.072167
1.713269 -1.011858 2.296109
1.174477 1.590345 2.007404
-1.888184 -0.589137 0.679047
-0.806258 1.830802 0.667486
-0.852314 1.862135 2.441515
2.022107 -0.467551 0.639663
1.951592 0.183263 1.276265
-1.560001 1.218076 0.341236
-1.326148 1.510396 1.538253
2.022917 -0.342746 0.416702
0.370239 -1.978338 0.411309
-1.581436 1.196539 0.063615
0.893207 -1.846990 0.176707
-2.030463 0.532789 1.432102
0.635305 1.906873 0.615016
-0.132335 -1.938063 2.726206
1.993749 -0.038978 2.708734
-1.433333 -1.414787 2.468255
1.956553 -0.325657 1.530202
1.018859 1.828709 0.223019
1.258575 1.417509 0.970167
-2.058911 0.002735 0.464355
0.948359 1.778400 0.922993
1.903220 -0.625447 2.275132
-0.652302 -1.901091 2.924902
1.957876 0.111582 0.121385
1.347837 -1.434690 0.803341
-1.261997 1.644163 2.840868
-1.223435 -1.617944 0.824444
-1.771318 0.853958 0.506337
1.730662 -0.981781 2.095602
-1.938232 -0.188680 1.539392
1.617470 1.092983 2.126083
2.032184 -0.162463 1.881605
-1.910699 -0.364146 1.835830
0.509177 -1.905349 2.784957
1.086137 -1.658050 1.610176
-1.411603 1.445476 1.592175
-1.947313 -0.211133 1.102860
-0.253450 -1.995737 0.745350
-1.930301 -0.338931 1.514778
-1.275101 1.459009 2.068850
-0.515896 -1.896254 0.151122
-0.119030 2.052895 2.489762
1.588245 -1.240390 2.139583
2.110731 0.134998 1.161605
-1.294055 1.531179 0.435346
1.496874 1.339665 2.696179
-0.683239 1.897829 2.136671
-1.813425 -0.652252 0.621815
-0.595271 -1.851625 2.137929
1.957874 -0.178266 2.816563
1.937929 -0.098419 2.282079
-0.606220 -1.835227 2.328829
1.878345 0.847164 1.408885
1.826900 -0.758060 2.120033
1.227082 1.671405 1.583695
-1.091707 -1.711958 1.343292
1.264605 1.505839 1.468875
-1.931060 0.614863 0.595415
1.600072 1.151886 0.969893
1.722138 0.891376 1.230367
-1.821455 -0.642467 2.692014
-1.606426 -1.198597 1.631761
1.942906 -0.121363 1.821247
-0.401154 -1.881984 1.235701
-1.613477 1.194405 0.555049
1.986488 0.319117 2.048344
-1.654280 1.256684 0.645065
-0.963642 1.746895 1.013614
1.068599 1.645633 2.245456
-1.771116 0.818403 0.520233
1.767533 -0.816904 0.267278
1.200057 1.593755 2.361581
0.452689 -1.923670 0.763650
-2.140701 0.150943 1.484156
-0.671099 -1.878888 2.014779
1.890917 -0.646463 1.538446
1.959210 -0.386964 2.236649
-0.531642 1.960543 0.433788
-1.342672 1.407963 1.931930
1.627451 1.304956 2.194129
0.336989 1.968911 0.672279
0.267332 1.941091 0.484525
-1.090258 -1.722781 2.404383
0.757913 -1.868567 0.787211
-1.991877 -0.260255 1.906541
-1.722703 -0.778148 2.716203
1.952263 -0.065580 1.229609
-1.556612 1.207763 0.884417
1.911603 0.924281 2.028352
-1.435796 1.467749 1.634193
-1.420870 -1.510325 2.081783
-1.185328 -1.542290 0.588352
2.053260 0.020387 0.083048
1.196437 -1.659283 2.405943
-2.010339 0.009804 0.289286
1.102473 -1.570802 0.739414
-1.967932 0.102836 0.229407
1.393402 -1.419982 0.499999
0.507955 1.980948 0.823366
1.901660 -0.581671 1.463791
1.555026 -1.357061 1.625819
0.058518 1.966758 2.069923
-1.540399 -1.254889 0.886286
1.581568 -1.274569 2.048251
-1.917013 -0.524067 1.115349
-0.947981 -1.713714 1.399526
0.306603 1.907457 1.455823
-0.490886 -1.946719 1.560268
1.979650 0.026276 2.049262
-1.873247 0.555743 1.716846
0.164797 2.004607 2.377840
1.998819 0.356302 0.147931
-1.040233 -1.727637 0.445844
0.757099 1.823483 2.188084
-1.922290 0.288352 0.349427
0.779286 -1.897657 0.878071
1.756547 -1.056314 1.626546
-1.442235 -1.439472 0.871729
-2.023746 -0.053217 0.994844
-1.910827 0.573148 0.191246
0.725549 1.923394 2.725290
-0.235455 -1.987572 0.529385
-1.657626 0.984515 0.412461
-0.917596 1.741631 2.268734
1.929048 -0.521492 1.890370
-1.488340 1.385784 1.738503
-1.410740 -1.412153 0.424491
-1.950370 -0.296182 1.705881
1.791218 1.094383 2.790213
-1.095745 1.693628 0.928063
0.877309 1.775189 2.119371
-1.847476 -0.754413 0.475534
1.474139 1.476996 0.022466
0.085432 1.938379 0.163544
0.237406 -1.950714 2.387367
1.762046 0.917500 1.367879
-1.169064 1.690948 2.539634
0.824501 -1.909351 0.668375
-1.960620 0.568416 2.384669
1.734998 -1.012970 1.378441
0.267800 2.035124 0.929110
0.741933 1.825350 1.695836
1.515012 -1.329071 0.154207
-1.994256 -0.190932 1.891574
-1.126753 -1.644808 1.861358
-1.914585 0.106320 2.320361
0.671301 -1.902511 1.683242
-0.030010 -1.948984 2.464748
0.766248 1.826906 1.656196
0.632804 1.974690 0.375683
0.099017 2.050383 0.315645
-0.239099 -2.034285 1.243172
1.856329 -0.826009 0.910537
0.814830 -1.853061 0.355091
0.992524 -1.807218 2.983379
1.070773 1.865046 2.093311
-1.892497 0.772101 1.549835
0.111612 -2.063959 1.650720
1.428416 -1.292328 0.097665
-0.903474 1.800454 2.225982
-1.902614 0.850796 1.532417
-1.817376 0.896952 2.900306
0.735892 1.909007 2.950182
1.844266 0.677749 0.847768
1.826228 0.967442 0.614402
0.887476 1.853846 0.530521
-1.869805 -0.731274 0.117832
0.718155 1.827623 1.922293
-1.106927 1.564868 0.575015
-0.243896 1.953234 1.786165
0.162347 1.969209 1.333035
0.622098 -1.780479 1.173956
0.079422 2.031833 1.838081
1.799486 0.755898 0.880009
-1.475772 1.210286 1.543343
-1.508756 -1.387982 2.367024
0.126791 2.006061 2.589155
-0.644570 -1.928140 0.100684
2.067943 0.313243 1.494294
-1.264064 -1.586258 2.614072
0.753526 1.720209 1.663909
0.220073 -2.003835 2.134839
0.024835 -1.965278 0.377603
-1.503913 -1.435009 2.798962
-1.748651 -1.067513 1.976841
-0.890864 -1.804901 1.100274
-1.929359 -0.548028 2.337423
-1.891781 0.609514 0.624558
1.591366 -1.281625 1.082718
0.915830 -1.760972 2.718815
-0.957643 -1.731618 0.783371
-1.567064 1.213010 1.129508
-1.868654 -0.961182 2.139013
-1.971688 0.620872 0.699191
-2.037503 0.282054 1.077135
0.225729 1.952913 1.345820
0.418436 1.937268 1.919279
-1.005525 1.636183 2.019822
-1.715359 0.939766 2.705021
-1.948490 0.367316 1.613935
-1.821492 0.890879 1.709990
-1.197754 1.614822 1.261006
-1.889038 0.355229 2.685675
1.036201 -1.745922 1.964807
1.924013 -0.179870 0.894804
-0.031504 1.983534 0.251735
1.954099 0.328723 1.889393
1.883286 -0.648132 1.214456
-0.263018 -1.992258 1.669451
0.142649 -2.032020 2.144333
1.936988 -0.253677 0.172685
0.417316 -2.029927 2.734525
1.938337 -0.531170 1.281726
1.611935 -1.021324 0.343553
2.032290 0.039498 2.151246
1.514655 -1.360146 2.633316
1.942781 -0.604681 1.688119
1.430007 -1.405385 2.424456
1.006066 1.714947 1.740413
-1.949910 0.429406 2.748026
1.960788 0.643261 0.186096
-0.990359 -1.693693 1.520517
-1.984547 0.174035 0.275302
2.017686 0.312027 1.306404
-1.477434 1.424804 1.149574
1.962368 -0.303917 1.233669
-1.850508 0.771016 1.853443
0.165426 -2.067429 0.531581
-0.931023 1.754634 1.117379
1.884984 0.619002 0.835454
1.537633 -1.170505 0.825714
-1.908117 0.671009 2.027946
1.588669 -1.297411 0.697583
0.484021 1.997043 0.797410
-1.154533 1.648164 0.511373
-1.904430 -0.953812 0.881464
1.823432 0.789896 1.318721
0.025161 -1.994983 0.812911
1.672010 -1.053798 1.035654
0.967506 1.802627 1.122466
1.096243 1.640067 0.027266
-2.037585 0.624975 1.378818
0.785340 -1.885192 0.430303
-2.020266 -0.001688 1.717403
-1.019285 1.670013 0.181368
-0.465079 1.870580 2.173480
-1.945189 -0.081833 1.279752
1.922972 -0.068903 0.187745
1.613387 1.226069 1.701353
1.390709 -1.482961 1.489987
1.754878 -0.848617 2.939987
-1.559279 1.184215 0.886379
-2.050612 -0.053038 0.211549
-0.310398 1.941777 1.191872
-1.568276 -1.243326 2.007170
-1.684813 -1.093856 0.802870
1.943300 0.399734 1.006907
1.722972 -0.833224 2.641848
1.931977 -0.704351 1.813759
1.183376 1.580319 2.122713
0.662449 -1.860793 0.554283
0.035873 -1.962076 1.538902
-0.427951 1.975328 1.257033
-1.703007 0.970063 2.822096
-0.601932 -2.038628 0.875435
-1.972540 -0.151887 1.258713
0.522819 -2.034266 1.458673
2.041507 -0.221728 1.743801
0.855296 -1.819489 0.964896
0.205516 2.094190 0.637953
-1.624114 -1.042858 0.274001
-1.665408 1.159479 1.786986
-0.960264 -1.756151 0.434780
-1.756383 -0.998293 0.056583
0.312750 -1.999509 0.221085
1.166902 -1.694421 2.704264
1.546969 -1.251213 1.115572
1.901451 0.675898 1.979857
-0.965846 -1.773380 1.188544
-1.986234 -0.500400 -0.015098
1.987132 0.067425 1.574537
1.994047 0.055286 2.979840
-1.632092 1.159183 1.140492
-0.975930 -1.790076 1.490595
-1.142106 -1.651489 2.771286
-1.545418 1.264861 2.615325
-0.743102 1.866039 1.014755
1.163393 -1.667624 2.236630
-1.955843 -0.363865 1.948259
-1.816868 0.830215 2.908319
-1.366555 1.391544 0.810881
0.075611 -1.924662 0.467556
1.161031 -1.566613 1.862391
1.900046 -0.661944 0.309634
1.718891 -1.088442 0.186900
-0.633464 1.947557 1.892944
1.887779 0.873437 1.478408
1.834001 -0.625223 0.154719
2.033416 0.490270 0.529080
-1.892958 0.705712 0.437245
-1.575016 -1.134564 2.113009
-0.165442 -2.025026 0.060686
-0.710547 -1.857452 0.486330
0.296313 -1.964181 0.980557
-1.157184 1.544328 1.913403
-2.089349 -0.184913 0.865725
0.705146 1.889133 1.868019
-0.155739 -2.011375 0.977899
2.020900 -0.424154 1.435293
-0.471541 1.920291 0.606954
0.788633 1.911627 1.642731
0.699955 1.836851 2.706175
0.377794 -1.942137 1.998425
1.030429 -1.644400 1.927090
-1.914873 -0.180128 -0.027786
1.146690 -1.648675 0.378914
1.379284 -1.369913 0.517957
-1.858531 -0.837816 1.176768
2.004222 0.732277 0.971768
1.761428 0.866196 0.564829
0.853414 1.915311 1.751648
1.597562 -1.269478 0.643798
-1.478817 1.340386 2.621087
-0.532138 -1.893330 2.060971
2.048106 0.043041 0.648962
-1.886323 -0.616061 2.817099
1.945432 -0.238224 2.573810
0.026391 -1.998781 0.724813
-1.820940 0.537394 2.227141
1.973901 -0.003807 0.986222
1.090249 -1.696475 2.286551
-0.365769 1.917264 1.953522
-1.075897 -1.691587 1.850952
0.748113 1.818734 2.802928
-1.933133 0.713838 0.285434
1.476652 1.314344 2.483672
-1.094651 -1.702442 1.778098
-1.939206 -0.329674 1.115585
0.663127 1.856743 1.460808
-1.319547 -1.456271 2.147750
-1.591462 -1.197239 1.281044
1.491467 -1.204786 0.702844
1.948208 -0.599265 2.537086
-1.014657 1.865780 0.197742
-0.570965 -1.938646 1.022592
0.789690 -1.849981 0.630816
0.095906 1.984951 1.134005
-1.309976 -1.508384 0.563075
1.078826 -1.718654 1.860145
-1.381756 -1.404116 1.768026
1.579467 1.206988 0.803829
-2.004252 0.018233 2.300700
1.877095 0.331199 1.377795
-1.751973 -0.953582 1.355794
1.815769 0.628973 2.279102
1.631534 1.056664 0.219600
1.836005 -0.876475 0.422997
-1.931975 -0.441948 0.614385
0.567033 1.831521 1.495414
1.973683 0.146957 0.080169
-0.043487 1.979890 0.690371
0.873928 1.846441 0.063771
1.460603 -1.360662 0.324598
-1.885558 -0.854250 0.281591
-1.892197 -0.560191 0.889816
-1.258032 -1.518897 2.956600
-1.987147 -0.317436 1.062371
-1.314207 -1.399453 2.649261
0.970741 1.738544 2.234377
1.090320 1.647836 1.290119
2.013485 -0.484253 0.949402
-0.118587 1.979016 1.726695
0.547700 1.924852 0.121222
-1.096602 -1.713592 2.634208
1.976150 0.405996 0.533163
1.941547 0.310131 1.279841
-0.735814 -1.775764 0.221100
0.748183 -1.890062 0.171291
-0.686150 -1.943753 2.185745
1.902297 0.581612 0.711078
0.385378 2.018154 2.971972
1.647042 0.958097 1.732727
-1.137463 -1.645724 1.186881
-1.914539 -0.381232 0.398927
-2.019060 0.516089 0.733195
-1.012938 1.643392 2.923395
-1.767417 0.901192 2.045267
-0.720637 1.922890 2.585466
1.911358 0.557874 0.672789
1.855429 -0.510943 0.171379
-1.787577 -1.097736 2.301264
-0.955064 1.751636 2.557845
-0.535505 1.843155 1.162301
0.821598 1.797574 0.972222
1.786243 0.873042 0.270442
-0.816443 1.928633 1.968469
-0.234603 2.046037 1.564134
-1.908100 0.933920 2.783116
1.155971 1.677987 2.059258
-1.818887 -0.809008 1.540955
1.500379 1.375243 1.975184
0.819646 -1.779886 1.344741
1.908879 -0.853778 2.393229
1.978756 0.417993 1.128365
1.517534 1.345327 1.422117
1.956583 -0.390561 2.407492
-1.665789 -1.115440 2.356689
0.340800 -1.888404 0.070620
-1.926855 0.627185 1.704152
0.222985 1.905972 2.320583
-0.374191 1.942389 2.592372
-1.960229 -0.233736 1.284874
-0.522961 1.848151 2.824951
-0.892188 -1.858626 1.670225
1.080299 1.688779 2.181711
0.916662 -1.807964 1.736732
2.034144 -0.249091 2.134489
-1.252991 -1.721883 2.065805
-1.930858 0.340340 2.691210
-1.901389 -0.841407 1.074464
1.787015 -0.997533 2.529394
-0.940813 1.691252 1.734964
-0.867042 1.847283 0.584261
1.903025 0.607837 2.816186
1.049645 -1.715658 1.387316
1.078883 1.661496 0.324378
0.299440 1.991200 2.903305
-0.018669 1.963567 2.923828
0.700081 1.827537 0.927847
-1.112392 1.702644 1.137358
1.716310 1.103691 0.405265
1.961567 0.412650 1.596666
-1.735347 0.827663 2.419918
-0.344132 2.044702 1.344856
-0.396879 -1.978005 0.023919
1.223978 1.586191 1.260441
-1.142470 -1.688168 1.410192
-1.405581 1.354554 0.981038
-1.914386 -0.523828 2.509212
-1.795703 -0.990933 1.746337
0.933377 -1.671697 0.348861
0.901570 -1.898704 1.432494
-1.956358 0.623174 2.531526
1.370862 1.493274 0.283192
-1.829838 -0.851119 2.254897
-1.141703 -1.629347 1.515073
-1.554819 -1.130255 2.787764
1.865402 0.905073 0.908678
1.976912 0.160687 2.158853
-1.369050 1.468309 1.695035
-1.497301 -1.297070 2.711446
1.649621 1.346136 0.635578
0.379261 -1.912207 1.649097
-1.700358 -1.130139 0.161237
1.173060 1.631021 1.627721
0.253498 -1.976344 2.607563
0.304534 -2.018069 2.957978
-1.453595 1.336859 2.010959
-0.478469 -1.943014 1.480480
1.980362 0.093155 0.549810
-1.461690 1.132044 1.395488
-0.111386 -2.030306 1.696876
-1.654415 -1.051837 2.307605
0.192051 1.960399 1.999934
1.905274 -0.855763 0.136281
-1.820006 -0.874163 2.484230
1.402779 -1.352922 1.567431
1.113973 1.704061 0.252222
-1.982816 -0.280991 1.313161
-1.939979 -0.119441 2.714599
-1.143701 1.627215 0.021729
1.516471 1.370297 0.685752
1.578867 1.224126 1.189174
2.007194 -0.499593 1.476973
0.395715 -1.985983 2.227035
0.108827 -1.992817 1.259815
-1.017341 1.709519 1.996453
-1.929507 0.137489 1.183529
-1.591503 1.101109 0.817417
-1.316913 -1.376090 2.022422
-0.395823 -1.969811 0.912198
-1.021601 1.808265 1.763530
1.234048 -1.485152 0.345394
-1.989558 0.029602 2.782751
-2.053023 0.025656 0.794197
-0.104036 -1.983460 2.272071
-0.402986 -1.909795 2.357334
1.398223 1.482451 1.815228
-1.904557 -0.204486 2.505133
0.039531 2.013770 0.508736
-1.193737 1.618176 0.778729
-1.599344 1.308044 1.964428
1.912906 0.580923 2.969752
-0.706458 -1.845648 1.625949
-1.968611 -0.237674 2.393591
1.869722 0.490748 1.885339
-1.279091 -1.502021 0.787748
1.046058 1.694247 0.965490
-1.905566 0.538522 2.879746
1.936983 -0.819165 2.825927
-1.645841 -1.151153 1.913796
1.690615 -1.129873 2.180816
0.357759 -1.964285 0.975585
1.481852 1.230844 0.653736
0.480954 -1.910599 1.490344
2.035480 -0.305811 -0.051018
-1.164342 -1.690321 2.173029
1.527998 1.328715 2.400203
1.782893 -0.993796 1.698549
0.856338 1.693551 2.992439
0.051480 1.994633 2.328493
1.961668 -0.337503 0.061279
-0.295999 -1.924211 1.515473
-1.371348 1.452092 2.728024
-0.942215 1.817380 0.674595
-1.392912 1.396853 2.117036
-1.473629 -1.477113 2.261044
-1.137399 -1.631748 2.121652
-1.600001 -1.038535 2.006465
2.013220 -0.168910 2.334101
1.968682 0.346194 2.028708
-1.975434 -0.227299 1.554911
1.268935 -1.602170 1.681370
2.010881 0.161895 0.966469
-1.782915 -0.993498 2.476665
-0.594319 -1.875394 1.468665
2.031222 -0.012492 0.598891
1.962217 -0.646789 2.374890
-1.881195 0.762690 2.149091
-0.241802 2.094626 3.064082
1.426862 -1.337888 0.728304
0.321835 -1.985162 2.642632
-1.738663 -0.859880 1.965843
1.883565 0.744788 2.160987
0.169103 -1.909695 1.316787
-1.837348 0.966947 0.762517
0.478062 -1.888735 0.592168
1.595655 1.050671 2.352827
-0.833385 -1.781082 2.876389
1.048805 -1.739228 1.709764
0.421333 1.894244 1.270289
1.603283 -1.115765 2.279845
1.963888 -0.410741 1.275554
1.407449 -1.468168 2.879938
-0.766196 -1.902494 1.722901
2.116173 -0.006746 1.815881
1.864548 0.634213 1.655584
-0.319214 1.912248 2.543638
1.543275 -1.343531 2.827516
-1.911990 -0.674396 1.742416
-1.033587 1.656500 1.572381
1.213966 -1.543328 0.670375
-1.961194 0.341725 1.992740
-1.066355 -1.640506 1.988892
2.045057 0.330018 2.259538
2.075332 0.147494 2.479109
1.684955 1.052174 0.186785
0.007516 1.951555 0.833318
1.483294 -1.206218 2.072699
1.530347 1.386677 2.877404
-1.404069 -1.464202 1.061634
-2.025124 0.171757 0.861284
-1.323834 1.547850 1.326858
-0.445810 1.932061 0.984262
-1.961899 -0.394563 1.350611
-1.406663 1.454019 1.301645
1.694245 1.029426 0.121068
-0.508668 -1.944736 3.019314
-0.187722 2.044553 1.778899
-1.443214 1.292242 2.142902
1.789977 0.934876 0.548344
0.273798 -1.862014 2.359658
0.208867 1.910309 0.527685
-2.048173 0.291124 0.786476
-1.491945 1.333657 2.779313
0.751096 -1.845918 2.656243
-1.633920 1.194130 2.432068
0.906743 1.822661 0.099955
-1.843191 -0.821220 1.819430
0.969748 1.748578 2.200670
-0.936850 1.735034 1.648881
0.521260 1.987826 0.868464
1.744280 -1.069025 1.945498
-1.823575 -0.659352 2.845135
-0.112501 2.060443 0.673468
-1.859049 0.486289 2.321807
1.235954 1.561283 0.061372
-1.988597 -0.123072 0.412992
-1.865589 -0.666607 2.100918
-1.602420 -1.164218 1.279211
0.640133 1.913271 2.485607
-1.914523 -0.812774 1.239469
1.876275 0.780869 2.994006
2.026743 0.328745 0.599924
-1.845528 -0.581180 2.373356
-1.983706 -0.172659 1.000796
-0.937313 -1.847329 0.296511
-1.930203 -0.586477 0.792681
-0.457954 -1.940581 0.794882
-1.926396 -0.213096 1.299362
0.264246 1.982071 1.876820
1.696835 0.983848 2.047870
1.177002 -1.734358 0.783160
-2.062239 0.427405 0.124223
-1.722821 0.853209 2.886554
-1.118468 -1.626304 0.382205
0.251847 -1.884731 0.459564
-0.311420 -1.977350 0.954672
-1.864943 0.820115 1.841519
0.265761 -2.058150 2.465425
1.173625 1.637165 1.766667
1.191598 1.596965 0.667325
1.701936 1.007004 0.847891
-1.172103 1.608767 2.714443
-0.549089 -1.850839 1.341915
1.367465 1.384072 1.276629
-1.462754 1.347034 0.224524
-1.894818 -0.657984 1.423818
-1.863028 -0.679246 0.417204
-1.961033 -0.293368 1.809373
1.390236 -1.357253 0.760270
-0.594115 1.840575 0.401365
0.311019 2.031237 2.759335
1.150318 1.589439 2.356772
0.005998 -1.939414 2.019682
0.432316 1.969007 0.775650
-1.896050 0.828587 0.904323
1.835390 -0.736570 0.265992
0.890616 -1.748927 0.145563
-2.008540 0.224977 0.879439
-1.803179 0.889795 0.865778
-1.806473 0.857210 0.564313
-1.946380 0.069457 0.758761
0.301484 2.049906 0.456981
-0.736866 -1.774312 2.168666
-0.165175 2.035779 1.689941
1.419157 1.333677 2.615024
-1.797474 -1.026606 1.692870
1.499044 -1.250164 2.360231
0.799764 1.783756 1.875876
-1.793466 1.028593 0.515462
-0.421019 -2.018144 0.367376
-1.921543 0.411271 0.298367
-0.947667 1.833649 1.436219
-0.564487 1.907771 0.646303
1.589332 -1.311091 2.518272
-1.895074 -0.514574 1.878239
-0.936148 1.647489 2.759783
0.680842 1.859188 1.481440
0.815608 -1.830740 1.329939
1.919080 -0.037083 1.317940
-1.531059 1.231431 1.065160
-0.474911 1.877125 1.435576
0.528104 -1.914684 0.662365
-1.511569 1.131141 0.249829
-0.747307 1.974216 1.602219
1.461719 1.293190 2.259157
1.438868 -1.399050 2.897732
0.250482 2.014762 2.845372
-0.761832 1.806664 1.826368
0.694969 1.748707 0.884249
-1.119623 1.775392 1.739415
-1.045508 1.717134 2.282816
2.017288 -0.125118 0.346875
0.143795 2.047436 2.393676
-1.927302 -0.303932 2.093839
-0.440609 -1.998908 2.389123
-1.179399 1.654535 0.318222
-0.730358 -1.897450 1.817673
-1.856931 -0.652033 2.834007
-1.928586 0.519709 1.890878
1.871946 0.758314 0.362680
0.133938 -1.964461 1.953182
0.981579 1.745053 0.873764
-1.751199 0.981049 2.245191
0.883363 1.816181 0.632899
0.060610 1.979144 0.144037
2.007610 -0.114608 2.235785
-1.959780 -0.078003 1.798515
-0.336518 1.927684 0.172134
-1.753919 0.967216 0.220123
-0.901882 -1.833560 0.375293
-0.367340 1.915922 1.211226
1.636824 1.172008 2.298932
0.045608 -2.007144 1.338812
-2.004958 -0.273800 2.110999
0.486968 -1.920788 1.515786
0.442323 -1.974317 0.259691
1.860133 0.617219 1.836191
-0.363718 1.963196 2.423050
1.530115 1.258818 1.048874
1.487332 1.282267 0.230956
-1.393311 1.345215 1.278731
-0.555545 -1.918906 2.844932
1.939795 -0.000879 0.821633
1.608692 1.078424 0.790873
-1.780211 0.979791 0.595295
-1.659199 1.157815 2.903998
-1.306525 1.498775 0.082735
-0.823867 1.862074 1.524993
1.285526 -1.466276 1.132153
1.018714 -1.728019 0.825411
1.940299 -0.384586 2.845027
0.882804 -1.767926 0.041304
0.611251 -1.914350 1.732125
-1.282438 -1.588849 0.342245
-1.877104 -0.679919 1.306085
1.607527 1.173347 1.654222
1.126242 -1.704481 1.982652
0.428727 1.904271 2.652794
0.580629 1.871089 2.378698
2.005617 0.256547 0.288161
1.035793 -1.691522 0.498202
1.591937 1.096930 1.378008
-1.918715 0.539803 2.133686
1.609652 1.275289 0.222882
0.833645 -1.751111 2.032349
-1.467400 -1.281658 2.438908
-1.305818 1.546847 1.862352
-0.894438 1.718761 1.147096
-1.762106 -0.825024 0.991583
0.901695 -1.886020 2.086023
1.952194 -0.094108 1.909807
0.684711 -1.869235 1.432284
-1.887896 0.718359 0.804790
2.048639 -0.280899 0.878372
-1.406194 1.361946 1.084207
0.495749 1.961161 2.631782
-2.028952 -0.466847 2.119854
-1.625429 1.104587 1.161162
1.674844 -1.083471 1.519474
1.002984 -1.684870 0.435461
-1.866891 0.749474 2.672500
-0.666889 -1.921275 0.820605
1.727961 0.736630 2.309000
-1.601939 -1.121866 1.551198
-1.447332 1.289955 1.717757
-0.953343 1.770272 2.771756
-0.577396 -1.809169 0.576803
1.943659 0.185490 1.659451
-1.833263 0.711141 1.144970
-1.425719 -1.343151 2.332763
-1.973818 -0.181815 2.475320
-1.655393 -1.091021 0.190734
-0.988445 -1.681809 2.180900
1.894419 0.732440 0.189570
-1.125522 1.682990 1.957637
-1.348233 -1.533805 1.100835
-2.029873 0.101967 2.509077
0.917697 -1.642872 2.131585
-1.129536 -1.605957 2.613763
-0.812955 -1.977109 1.075290
1.969138 0.396143 2.943723
1.901647 -0.463259 1.928116
1.297786 1.589621 0.722462
-0.172328 1.988011 2.615901
-0.181047 2.026073 0.590334
-1.693720 0.855263 2.716056
0.255464 2.046786 2.138314
-1.303880 1.611342 1.930093
1.309455 1.484266 2.345538
-1.663212 -1.259940 0.621333
-0.133100 -1.908527 0.085618
-1.337502 1.464387 1.252645
0.472862 -1.934227 -0.085106
-1.276811 1.536065 1.672771
1.935020 -0.044597 1.447388
-1.935605 -0.486985 2.429842
-0.156856 -2.037326 1.736724
0.786867 1.883995 0.024498
-1.838720 0.768168 0.860152
-1.932842 -0.272820 1.045064
-0.724550 1.940466 2.398329
-0.060015 2.181177 0.960321
0.133069 -2.083049 2.538622
-0.504215 -1.954508 2.438039
-1.115824 -1.738571 0.748328
1.693847 1.080185 2.463323
-0.695797 -1.920349 2.824384
1.076390 -1.681474 0.303209
1.377328 1.467763 0.565764
-2.008363 0.114122 0.744299
1.577081 1.335771 2.460817
1.838261 -0.842548 2.595175
1.105032 1.654242 0.385938
0.952707 1.776664 2.130693
0.211203 -2.053025 2.561364
1.070732 1.656069 1.743036
-2.094722 -0.395988 1.885059
2.024276 -0.070316 0.689217
1.283485 -1.562895 2.833623
1.194734 -1.603271 2.470293
-1.925277 0.768098 0.213270
-1.950537 0.476781 0.765919
-0.095817 2.026641 2.793503
-1.587088 1.270195 1.411910
-1.140223 -1.706746 1.032558
1.299948 -1.621078 2.267015
-0.604626 -1.873077 2.167996
2.017084 -0.140296 1.778758
0.369836 1.928341 1.424849
1.953123 0.237298 1.417276
1.772518 -1.022287 1.540555
-1.214929 1.699363 1.237455
-1.874035 -0.193182 0.988273
-0.577956 -1.931132 1.556706
-1.874012 0.608152 0.135063
1.833397 0.528066 1.230385
0.085589 -2.070085 0.732196
1.176320 -1.585326 1.045015
1.566291 -1.272047 2.624867
2.012425 -0.125180 0.888045
2.000875 0.343818 2.038358
1.878401 0.432095 0.598126
-1.640741 1.255507 0.545575
0.587976 1.984242 0.517110
-0.911146 -1.746777 1.666414
1.798171 0.855649 1.139298
-1.318580 -1.475868 2.832145
-1.580006 1.106040 0.178830
-1.961874 0.576825 0.714781
-0.282207 -2.024120 2.057979
-0.221806 -1.969315 0.196832
0.568019 -1.878298 0.889458
1.220832 -1.650859 1.074111
-1.849025 0.415337 0.907640
-1.105233 -1.646515 1.720229
-2.024306 -0.166684 1.495863
-0.802912 1.842687 2.739316
1.421793 1.361583 0.936190
-0.468636 1.826838 0.634048
0.847340 1.903648 0.745570
-1.953133 -0.541248 1.515910
1.435401 1.356258 2.548388
-1.855701 -0.920836 1.400526
1.581016 -1.260490 2.656271
-1.102886 1.628245 2.813503
-1.658300 1.140885 2.484202
1.964899 -0.200322 0.605149
-0.965271 1.783081 0.172763
-1.536396 1.271661 1.779863
1.527456 1.200424 2.822497
1.247257 1.522600 0.713708
2.001281 -0.450238 2.782684
-1.114006 1.543807 0.339599
1.899595 -0.643416 2.424039
-0.733658 1.868367 2.140053
1.032123 -1.758697 0.393859
1.986601 -0.350616 1.781217
1.110759 1.687460 1.413883
-1.479191 -1.129725 1.338375
2.050669 0.575641 0.947361
-1.953512 -0.446426 0.666771
-2.037145 -0.364541 1.289848
1.936062 -0.386744 1.588572
-0.211850 -1.885337 1.615990
1.767050 -0.931386 1.919884
1.867316 0.350380 2.728429
1.502443 1.261695 1.160989
1.300235 -1.524746 0.837032
-1.728207 1.156003 1.804900
-1.679709 -1.070982 2.280615
-0.932786 -1.754330 1.700145
-0.436558 -1.843275 1.919921
-1.248406 1.526962 0.153553
-0.558455 1.842240 1.983786
-1.960879 0.245759 1.968128
-0.662249 -1.912621 0.447420
-1.505714 1.236875 2.966293
0.911922 -1.694641 0.917754
-1.511229 1.213559 1.448449
-1.377306 1.566700 1.965722
-0.576888 -1.948294 0.278168
0.712921 -1.901507 0.510836
0.697275 1.890977 3.016605
-0.294827 -1.946268 2.447457
1.503001 -1.379984 1.992043
-0.174844 -1.996243 1.614145
-0.847334 1.781556 1.215080
0.060039 2.049580 1.029825
1.529456 1.139655 0.193399
0.072274 -2.060387 2.957412
1.765980 -0.850027 2.597793
0.114299 1.983225 1.625410
-1.871877 0.717093 1.396785
-0.737778 -1.933631 -0.002107
1.367507 -1.502442 2.870709
-1.671486 -1.142935 1.882681
-1.093172 1.704189 0.712852
1.977097 -0.445600 2.436217
0.856674 -1.789736 0.440126
1.617320 1.131244 0.168093
-0.458133 1.970648 1.149007
1.928962 0.368516 0.931040
0.325330 -1.936666 0.204353
-0.125173 -2.026158 1.097300
-1.916565 -0.293978 2.750734
-0.522969 -1.894087 1.314767
1.419688 1.408125 0.500804
-1.120860 -1.699385 0.025048
-1.875460 0.631747 1.356416
-1.544480 -1.363183 1.506840
-1.494077 1.320093 0.878825
0.799763 -1.931435 1.581069
1.465982 1.284119 2.732454
-1.638144 -1.154228 2.410771
-1.295574 -1.462678 1.900553
1.145007 -1.626489 1.188222
1.547960 1.378234 1.226541
-1.792508 -0.821936 2.145189
-0.987717 -1.740000 1.805287
-0.819939 -1.864639 2.193960
1.366620 1.417305 1.871525
-2.044884 -0.030143 2.686326
1.636864 -1.228366 2.496420
-0.134698 2.072209 2.515610
-0.834005 1.811609 0.483244
1.182297 -1.688765 2.160963
3.166555 0.158707 1.405907
2.304529 -0.385819 1.488440
3.213402 0.375778 1.794257
2.648456 0.578058 1.481646
3.156696 -0.198935 1.850987
2.655858 0.518623 1.545292
2.509689 -0.099270 1.423462
3.154721 0.168066 1.961697
2.850305 0.317070 1.915382
3.237712 -0.377154 1.664685
3.279573 0.394101 1.740638
2.885831 0.137035 1.348426
2.991579 0.458575 1.467741
2.817807 -0.188430 1.420573
2.750823 -0.412677 1.811511
2.418876 -0.332805 1.428103
2.643709 -0.410620 1.829861
2.320102 0.191228 1.887378
2.506549 0.377184 1.868204
3.188492 -0.000963 1.375759
2.513750 -0.512923 1.629491
2.370777 -0.433379 1.715744
2.758858 0.214168 1.903421
2.409829 0.432935 1.686798
2.878266 -0.110772 1.412376
2.802926 -0.460293 1.568047
2.418939 -0.427851 1.574944
2.834422 0.180314 1.907363
2.585752 -0.547597 1.621506
3.029310 0.084359 1.386825
2.645264 0.521060 1.701060
3.181919 -0.320725 1.866228
3.186874 -0.468331 1.569281
2.870929 0.371941 1.838885
3.048580 -0.475587 1.570682
2.531066 -0.530506 1.535573
3.015661 -0.331720 1.497941
3.121074 -0.001373 1.279487
2.900443 -0.214664 1.964528
2.490580 0.222748 1.384032
3.227871 -0.099917 1.379530
3.111567 0.476511 1.825650
2.633828 -0.534469 1.732640
3.066658 -0.561257 1.524654
2.606073 -0.168743 1.401007
2.425919 -0.299587 1.359546
2.417055 0.050288 1.381890
3.019215 -0.525240 1.690918
2.680511 0.232579 1.979845
3.015314 0.352835 1.946292
2.555579 -0.483019 1.631434
2.626804 -0.314930 1.961118
3.330181 -0.404225 1.564744
2.637620 0.322808 1.877060
2.901959 -0.566271 1.721002
2.783366 -0.105543 1.350900
2.644955 -0.502293 1.783846
2.644629 -0.316258 1.487979
2.947064 0.548314 1.471515
2.668790 0.162133 1.982477
2.865015 0.625534 1.538317
2.373460 -0.047747 1.868498
2.376779 0.258071 1.895787
2.908764 0.286166 2.064221
2.709955 0.273682 1.404328
2.856638 0.666553 1.612245
2.416070 -0.418659 1.773818
3.141196 0.267498 1.352973
2.805493 -0.486664 1.663829
2.507333 -0.297142 1.861369
2.592322 -0.431001 1.492628
2.860243 0.427211 1.424710
2.903747 -0.484773 1.855645
2.597255 0.519451 1.485933
2.819709 0.387303 1.483043
2.798613 0.326413 1.943483
2.457863 0.524186 1.445405
2.647451 -0.563213 1.624643
3.106537 0.331192 1.900404
2.966190 0.218292 1.456829
3.055555 -0.447182 1.518563
3.175616 -0.525587 1.613746
2.964248 -0.541242 1.556787
3.001867 -0.287917 1.955569
2.539180 0.186733 1.370441
2.590252 0.318510 1.298544
2.595286 -0.537914 1.698455
2.575656 -0.443428 1.430484
2.311987 0.002532 1.908868
2.653759 -0.134779 1.301408
2.833533 -0.246079 1.314549
3.218805 0.489071 1.523427
2.529227 0.525515 1.552043
3.076523 -0.310097 1.824806
2.749324 -0.102460 1.928031
3.106307 -0.099827 1.469696
2.809027 0.432276 1.500200
3.049995 -0.464758 1.640139
2.805414 -0.641108 1.707068
2.703713 0.505245 1.778121
3.042107 -0.495647 1.476658
3.108851 -0.293707 1.437705
2.609539 0.336559 1.976789
2.856975 0.380676 1.489276
2.536830 0.179419 1.367327
2.635784 -0.554624 1.698411
3.024571 -0.350084 1.887015
2.781424 -0.318990 1.903835
2.536852 0.308550 1.391508
2.610666 -0.345486 1.893032
3.206958 -0.433855 1.836653
2.712720 0.545563 1.499584
2.678012 0.157305 1.963158
2.411991 0.273999 1.877212
2.901479 0.313033 1.396812
3.044264 0.260506 1.428416
2.424753 -0.118416 1.338246
3.010136 -0.492815 1.765675
3.004081 -0.560093 1.720455
3.008890 0.291522 1.319162
2.514188 -0.437044 1.599729
2.790366 -0.378674 1.871266
2.928822 -0.109089 1.381375
2.698147 0.339588 1.380681
2.443448 -0.371109 1.699580
2.854227 0.649449 1.694233
3.142774 0.479615 1.429618
2.636845 0.578201 1.663055
2.779580 0.377356 1.495143
2.372939 -0.430112 1.838815
2.493794 -0.471869 1.813373
2.331244 -0.355321 1.676912
2.669052 0.060150 1.419078
2.420229 -0.512176 1.895135
2.625216 -0.203949 1.977386
3.003465 0.251046 1.362027
2.551928 -0.398995 1.475698
2.708055 -0.523529 1.809328
3.080889 -0.378618 1.464773
2.833918 -0.592255 1.587841
2.845015 0.439616 1.635030
2.741470 0.536090 1.731830
2.936636 -0.586618 1.603972
2.745829 -0.443341 1.718460
2.981415 0.479509 1.757570
3.205065 0.191172 1.962416
3.079264 -0.446741 1.609947
2.681900 0.599251 1.679302
2.577706 -0.198228 1.981088
3.127224 -0.019959 1.966852
2.656738 0.178654 1.451973
2.971949 0.560056 1.683672
2.472955 0.420982 1.581483
2.512886 -0.329150 1.409391
2.742491 -0.481997 1.942801
2.863198 -0.313674 1.364616
2.506252 -0.225841 1.927438
2.401167 -0.134291 1.869052
2.609277 -0.467011 1.527814
2.641993 0.046326 1.962115
3.016711 0.431732 1.517025
2.594574 0.634154 1.747313
2.637356 0.455982 1.875982
2.371582 -0.353022 1.490208
2.675616 -0.338629 1.938130
3.118579 0.200434 1.396539
2.659846 0.522514 1.753125
2.791211 0.405180 2.013782
2.913515 -0.591133 1.799699
2.706890 -0.566297 1.598920
2.498239 0.487092 1.683993
2.921860 0.226461 1.449948
2.639871 0.262934 1.399248
2.991950 -0.424731 1.844281
2.470267 -0.551721 1.606132
2.774046 0.177876 1.426921
2.621754 0.436559 1.543903
2.367368 0.492365 1.713669
2.400653 0.107875 1.868813
2.692693 -0.627580 1.521671
2.525802 -0.236780 1.932049
2.469626 0.509406 1.726569
2.458848 0.282470 1.947662
2.779777 -0.458848 1.871659
2.456615 -0.092545 1.881608
2.641007 0.004226 1.945234
2.699071 0.619594 1.702861
2.761525 0.507553 1.603729
2.751909 -0.015275 1.498151
2.529517 0.465079 1.677751
2.845310 -0.373838 1.825042
2.741324 -0.490979 1.512778
2.996283 -0.441555 1.528727
2.928722 -0.667578 1.691072
3.179808 -0.398379 1.853144
2.513504 0.430077 1.705108
3.055967 -0.468402 1.773313
2.319254 0.367358 1.470122
3.105008 -0.380710 1.495118
2.448578 -0.303138 1.875197
2.837304 0.562179 1.670686
3.177931 0.261337 1.844495
3.195840 0.093909 1.930374
2.761766 0.281741 1.480631
2.358108 0.176102 1.367341
2.569544 -0.225980 1.948124
2.501722 -0.246967 1.959519
2.753265 -0.148705 1.441550
3.222152 0.130010 1.861479
2.418876 0.047075 1.331845
3.310779 -0.227178 1.463279
2.458489 -0.339713 1.862112
2.468258 -0.094739 1.914657
2.644730 0.501400 1.833683
2.515509 0.136692 2.037960
2.657145 -0.028668 2.023401
3.114467 -0.080386 2.039334
2.795142 0.142379 1.414566
2.620640 -0.579782 1.515481
2.896688 -0.362303 1.416730
2.570486 -0.297962 1.817516
3.007324 0.464095 1.560096
2.886436 -0.544701 1.768063
2.614702 -0.248669 1.901950
2.562707 -0.555771 1.781536
3.240454 -0.239546 1.431766
2.650394 -0.571082 1.783820
2.847271 0.551606 1.525337
2.689192 0.591619 1.538724
2.995564 0.578724 1.713542
3.243680 -0.473780 1.711809
3.178436 0.355732 1.566238
2.243980 0.390492 1.536795
2.738121 -0.449542 1.815924
2.647037 0.355501 1.998332
3.081375 -0.509038 1.615407
2.874671 -0.501469 1.787439
2.644870 -0.168240 1.915030
2.610272 0.321852 1.375828
2.813845 -0.559516 1.816639
3.185339 -0.414910 1.499737
2.776514 0.600668 1.625431
2.531348 0.027284 1.361149
3.096978 0.390907 1.410957
2.577161 -0.408796 1.447664
2.989779 0.496053 1.900229
2.920010 -0.268746 1.981927
2.937606 -0.439699 1.375044
2.595982 0.061801 1.992467
2.735156 0.008894 1.331166
2.523402 0.273382 1.417840
2.676486 -0.070550 1.334306
2.882538 -0.349772 1.928795
2.821726 0.159281 1.948371
2.861735 0.514134 1.552882
2.757477 -0.572114 1.769978
2.900670 -0.511600 1.526722
3.134470 -0.416382 1.743468
2.479308 -0.089908 1.904890
2.440115 0.420107 1.549992
2.561837 -0.519337 1.497341
3.148964 0.166666 1.904833
3.163207 0.550120 1.638240
3.193627 0.157966 1.822499
2.860840 -0.608604 1.762057
2.872386 -0.425851 1.571723
2.442077 -0.378314 1.456757
3.127580 -0.296603 1.955158
2.535134 0.443281 1.865561
2.796151 0.545076 1.787224
3.138309 -0.446363 1.524479
2.336373 0.530870 1.793224
2.996707 0.218509 1.346696
3.208649 -0.159887 1.358591
3.102303 0.061316 1.956659
2.682991 0.480552 1.804332
2.368259 -0.208735 1.833337
3.241453 -0.313280 1.792364
2.860624 0.428895 1.932732
2.587230 -0.262989 1.908256
2.483002 -0.024427 1.905825
2.544217 0.394733 1.334324
3.076691 0.327948 1.814829
2.770571 -0.122238 1.910116
3.108713 -0.500381 1.534311
2.777344 0.343636 1.940302
2.523646 0.559998 1.600928
3.163226 -0.176570 1.405581
3.209327 -0.444727 1.488960
2.489539 0.271716 1.880267
3.012225 0.297640 1.403165
3.195429 0.303998 1.865728
3.093536 -0.421120 1.528842
2.681352 -0.445139 1.492393
2.589786 0.102177 1.350156
2.541523 0.116090 1.935627
2.465197 -0.083940 1.333137
3.207994 0.211076 1.385726
2.745473 0.486303 1.482332
3.238415 -0.237228 1.370501
2.742281 0.605504 1.684381
3.081093 -0.184569 1.949506
3.265793 -0.223349 1.962785
2.613554 0.057037 1.344959
2.931817 -0.484247 1.845133
2.706608 -0.599621 1.714777
2.626803 -0.304671 1.923484
2.346319 0.058175 1.934823
2.476856 -0.481230 1.786619
3.027448 -0.251693 1.803494
2.535647 0.083502 1.963955
2.473844 0.541411 1.684977
2.909408 -0.489918 1.679835
3.114532 0.123156 1.949721
2.720133 -0.629215 1.778075
3.003323 0.041107 1.413340
2.634452 -0.381544 1.509687
2.779695 0.464188 1.681086
3.008411 0.375133 1.925585
2.825646 0.644612 1.776604
2.394910 0.120377 1.384344
2.925489 -0.426471 1.876518
2.896300 -0.332665 1.412386
3.200032 0.047233 1.269045
3.136627 -0.156674 1.375146
3.057963 0.450589 1.702884
2.508440 -0.328666 1.763280
2.612421 -0.166387 1.479855
2.490808 -0.453108 1.486993
2.583025 0.507785 1.528257
2.416844 0.234097 1.833643
3.200454 -0.369383 1.417308
2.495116 -0.070803 1.373834
2.634526 0.330909 1.494854
2.677795 -0.493588 1.515392
3.150143 0.239408 1.431707
2.876363 0.715592 1.718392
2.446578 -0.175870 1.928392
2.855069 -0.273134 1.392380
2.659188 0.373931 1.552921
2.842342 0.368271 1.431109
2.835916 -0.587910 1.593347
3.123982 -0.331082 1.417804
2.772177 -0.113440 1.997269
3.045554 -0.179127 1.819671
2.712189 -0.603469 1.774876
2.916095 -0.411673 1.487051
3.041351 -0.670996 1.661331
2.494690 -0.060199 1.952842
3.079005 -0.501937 1.770905
3.193056 -0.482071 1.628306
3.010804 0.564927 1.665161
3.003262 0.598549 1.741782
2.814606 0.497474 1.499921
2.968609 0.519180 1.567366
2.801529 -0.390963 1.804907
3.211806 0.292068 1.414694
2.986493 0.240023 1.893498
2.576801 -0.110620 1.302751
3.094527 -0.383682 1.771414
2.867771 0.556277 1.721087
3.052193 0.327358 1.412437
3.029174 -0.256593 1.937882
3.073057 0.094179 1.404273
3.046321 0.323647 1.865742
2.362369 0.171358 1.889907
2.763496 0.581911 1.583501
2.319112 0.120193 1.421761
2.489876 0.291706 1.921785
2.519899 0.129484 1.397670
2.435131 -0.448369 1.742207
2.371086 0.116358 1.356581
3.145821 -0.449432 1.577899
2.647085 0.387140 1.448542
3.221126 -0.116973 1.311768
2.629885 0.111397 1.364946
2.992181 0.477430 1.695153
2.440905 -0.507943 1.526376
3.032921 -0.365393 1.354927
2.782510 0.345128 1.798207
2.460470 -0.551691 1.705541
2.541483 -0.558378 1.729564
2.528816 -0.488426 1.807061
2.555297 -0.222529 1.937946
2.944421 -0.448900 1.812775
2.626816 0.477995 1.586310
2.888027 -0.113720 2.028766
2.764999 0.341816 1.404979
2.558566 -0.146754 1.911291
2.307826 0.011964 1.329048
3.083608 0.381103 1.867245
2.477313 0.181574 2.013899
3.106359 -0.378773 1.872675
2.771536 0.054373 1.373004
2.301757 0.361575 1.830386
3.086031 -0.078300 1.960190
2.890714 0.436752 1.418249
3.107648 -0.269961 1.907869
2.910885 0.315351 1.343631
2.574077 0.073252 1.305868
2.629023 -0.533589 1.692267
3.021512 -0.524525 1.774082
2.937935 -0.012834 1.429787
2.840580 0.525976 1.829808
2.666186 0.179546 1.915880
2.758584 0.441876 1.832702
2.617100 0.508989 1.570136
3.268272 -0.396781 1.741437
3.047961 0.586664 1.709280
2.613803 0.559228 1.629522
2.989020 -0.278171 1.822069
2.951663 -0.552902 1.621163
2.669060 -0.192308 1.961738
2.805647 0.159864 2.032295
3.168599 -0.263338 1.915869
2.911973 0.271759 1.993226
3.258661 0.163086 1.909027
3.134120 -0.231306 1.897925
2.525562 -0.125753 1.378935
2.501172 -0.552153 1.622439
2.401580 0.290254 1.808758
2.526324 0.017605 1.276876
2.380684 -0.277363 1.867781
2.866417 -0.250973 1.881261
2.648721 0.309496 1.972897
3.185016 -0.301230 1.847554
2.541657 -0.194352 1.392346
3.276018 -0.222336 1.390663
2.481887 -0.464470 1.856305
2.890675 0.130107 1.368307
2.958112 -0.071862 1.409496
2.638387 -0.554398 1.663238
2.844576 -0.268740 1.461756
2.713647 -0.410134 1.959557
3.207925 -0.252447 1.356698
2.935146 -0.515129 1.521024
2.678062 -0.102836 1.961795
3.163245 0.164136 1.925514
2.811350 0.259239 1.891098
3.145718 0.406022 1.480197
3.107941 -0.326859 1.843758
2.447171 0.136104 1.359477
3.047543 0.151384 1.370388
2.401269 0.601730 1.767544
2.696976 0.609428 1.516087
3.200131 0.166989 1.303605
2.408962 -0.340200 1.555835
2.750359 -0.042688 1.363563
2.574246 0.097696 1.923806
2.363677 0.425098 1.847087
3.183650 -0.473850 1.638729
2.833056 -0.581675 1.627326
3.000710 0.285353 1.826248
2.409343 -0.244254 1.307743
3.168889 -0.185053 1.869005
3.102731 0.429874 1.640176
2.743612 -0.121240 1.309661
3.208663 0.060599 1.885385
3.069273 0.371603 1.915794
2.984525 0.431700 1.834911
2.939424 0.078145 1.967764
2.468945 0.563137 1.595242
2.681199 0.334495 1.399891
3.101893 0.311632 1.371097
2.638489 0.003546 1.990098
3.227149 -0.282490 1.407291
2.629330 -0.223249 1.414035
2.708458 0.633381 1.726573
2.663726 -0.058224 2.058052
2.614904 0.498265 1.786897
3.087748 0.506535 1.625953
3.034571 0.171703 1.414815
2.558022 -0.209626 2.019965
2.731251 0.313405 1.944463
2.674321 0.176513 1.913245
3.061692 0.058201 1.340215
2.908199 -0.318357 1.402838
3.152494 0.251660 1.332258
2.351929 0.387127 1.859887
3.012000 0.500772 1.446786
2.485100 -0.426179 1.728145
2.801608 -0.544393 1.716727
2.531250 -0.351168 1.488837
2.521762 -0.181681 1.942820
2.750768 0.212359 1.494742
3.043748 0.411785 1.392297
2.518800 -0.534313 1.723911
2.364708 -0.345935 1.438127
3.204819 -0.168661 1.225661
2.863227 -0.320157 1.390374
2.547089 0.578586 1.495037
2.915562 -0.548324 1.509832
2.923090 -0.316062 1.496279
3.253204 0.264682 1.908676
2.803245 -0.200190 1.361460
2.320188 -0.132480 1.944993
2.428285 -0.269642 1.335762
3.152023 -0.048298 1.889370
2.612332 0.095651 1.347270
2.940385 -0.507238 1.537071
-0.190186 0.070536 -0.001535
-0.185108 0.074041 -0.129061
-0.089903 -0.068263 0.061587
-1.145391 -1.174929 -0.040630
0.054102 0.005257 -0.063263
-0.453325 0.147396 -0.054638
1.844452 -0.280524 -0.093976
-1.300999 -1.340374 -0.021709
0.306360 -0.147030 -0.102783
1.165208 -0.471560 -0.109621
0.076779 -0.592620 -0.029550
1.475389 -0.940328 -0.048981
0.844085 0.280963 0.130063
0.820712 0.322371 -0.140957
0.300199 0.209665 0.026215
-0.428701 -0.314199 -0.065901
0.191993 -0.015645 0.057553
1.058408 -0.300869 -0.008198
0.027352 0.050651 0.090545
-0.085990 0.088378 -0.007046
-0.234794 1.233581 0.048935
0.175685 0.168020 -0.033670
0.492982 1.883550 0.009664
0.210895 -1.788201 -0.051763
-1.894862 -0.359857 -0.080822
0.521820 -0.878476 0.019306
-0.626377 -1.047179 0.058546
-0.389610 1.506263 0.027177
0.049389 -0.081914 -0.032160
0.097337 -0.222247 0.003600
1.525349 0.527391 -0.049789
-0.535341 -0.338009 -0.134898
-0.121716 -0.291777 -0.068390
-1.416221 -0.423812 -0.067759
-0.473607 -1.441623 0.165193
1.405025 0.705985 -0.023781
-0.815772 -0.309841 0.078806
-1.035445 0.928306 -0.057776
-0.354704 0.156274 -0.069675
-0.911571 1.390590 0.034637
-0.217322 -0.247951 -0.062253
-0.155200 0.104789 -0.070526
-0.937389 -0.817228 -0.044485
-0.585696 1.122825 -0.038452
1.029949 -1.207517 -0.054410
0.718468 0.283256 0.072080
0.022223 -0.184015 -0.006738
0.152044 -0.201812 0.159029
-1.279221 0.169846 0.001788
0.260181 -0.340783 -0.067679
-0.234008 -0.259905 0.056461
-0.447319 0.259181 0.061111
-0.237797 0.229785 -0.113746
-1.674874 0.397831 0.122507
-0.108117 0.039993 0.032815
-1.343286 -0.365602 -0.080381
-0.719546 -0.764264 0.045771
-1.291883 -0.640507 0.116226
0.775868 -0.058410 -0.118787
-0.359699 0.418899 0.051406
0.099647 0.220551 -0.056593
0.662235 -0.112689 0.151575
-2.039097 0.121770 0.087679
-0.341648 0.379767 0.066230
-0.275557 -0.332448 0.075210
1.626117 -0.858490 -0.010061
-0.053593 1.150054 -0.117307
0.378605 0.672251 0.007468
0.291597 0.194845 0.083253
0.049148 -0.018084 0.147484
-1.240280 0.828716 0.061604
-1.708279 0.743429 -0.224693
-0.419693 1.426872 -0.116717
0.076737 0.597536 0.021362
-0.004393 -1.226791 0.131324
-0.232460 0.615122 -0.020975
-1.363188 -0.968524 -0.030813
0.713635 0.891117 0.007205
-0.203428 0.970235 0.161767
-0.381444 1.827357 -0.055878
1.699519 0.493128 -0.020204
0.006317 -0.076284 0.067952
-0.946189 1.084114 -0.008507
0.776800 -0.647076 -0.065581
-1.576405 -0.692207 0.033497
0.707639 -0.617009 -0.084153
1.197892 0.710364 -0.124626
-0.051798 1.968532 -0.022010
0.217968 0.424847 0.074053
-1.019972 0.676705 -0.064908
1.192160 -1.054871 -0.167252
0.086142 0.109357 0.060226
1.260972 -1.267241 0.088990
-0.316914 1.103396 -0.085437
-0.115430 0.472172 0.023549
1.045065 -0.744019 0.015096
1.077647 -0.999973 0.120690
0.038244 1.083249 -0.058389
-0.032446 1.035116 -0.042563
-0.775962 -1.148917 0.115683
0.348194 1.267350 -0.022794
1.224943 -0.160636 0.068074
-1.461341 -0.874153 -0.036985
1.204183 1.260163 -0.059060
-0.331989 0.934789 -0.044112
0.161925 -0.682799 -0.125343
0.023240 -0.108456 0.036594
0.285962 0.020368 0.059894
0.731113 1.513346 -0.023353
-1.820108 -0.621164 -0.056116
-0.221446 -0.762897 0.035745
0.457209 -0.652936 -0.044592
-0.096608 1.399208 -0.012210
0.129310 -1.121758 0.016957
0.537097 -0.926179 0.068344
-1.743738 -0.970626 -0.100942
0.915270 -0.659499 0.128710
0.391495 -0.594725 0.004835
-0.068235 -0.094350 -0.110779
-0.001944 -0.251331 -0.111279
0.532381 -0.894456 -0.087881
-0.012864 -0.324766 0.020243
-1.090826 0.518062 0.010538
-0.476826 1.406444 0.041340
-0.173810 1.687300 -0.070070
0.044187 -0.255416 0.013178
-0.193759 0.569837 0.021313
-1.291432 0.982034 0.034707
1.449289 0.761154 0.051215
0.619057 0.230879 0.002323
-0.011488 0.067411 -0.131884
-0.464306 0.097678 0.149389
0.069248 -1.791929 0.115118
-0.806691 0.907068 0.044574
-0.353682 0.223166 -0.016442
-0.004154 -0.076284 -0.112848
-1.806880 -0.613514 -0.041448
1.170387 0.169611 -0.056742
1.670333 0.786221 0.069014
-0.013852 0.241798 0.016873
-0.722067 -0.181711 -0.098517
-0.196319 0.912311 -0.004764
-0.130749 -0.122389 0.036184
-1.435938 0.301079 0.060946
-1.171893 -0.566937 0.075569
1.983148 0.362482 0.004128
0.438233 0.238853 0.166917
-0.188990 0.973245 0.014475
1.552368 -0.819111 0.133771
-0.169885 -0.110924 0.127089
0.184537 -1.510886 0.116819
-1.035148 0.478990 -0.101049
1.019916 -1.158238 -0.034375
-1.261065 0.411184 -0.025436
0.001481 0.063098 -0.085482
0.130549 -0.168569 -0.000137
-0.369259 -0.710031 -0.067328
-0.408902 -0.940822 0.025097
-0.221770 0.279392 -0.013586
0.670299 0.000687 0.006604
1.658837 0.523039 -0.066680
0.542483 -0.764396 -0.037976
-0.076927 1.918517 -0.033880
1.378835 0.526250 0.093429
0.853686 0.672249 0.021434
-0.556462 -0.008619 0.025039
-0.697626 -1.226754 -0.045529
-0.873978 -0.430645 -0.056838
-0.054712 -0.127152 0.021781
1.448290 1.169790 0.111931
-0.187929 -1.157891 0.059732
1.524844 0.927330 -0.067725
0.265794 -0.340374 0.171539
-0.426099 -0.412191 -0.090517
0.558136 -0.844865 0.029179
0.278079 0.081343 0.063517
0.281635 1.035531 -0.051086
0.775828 0.485145 -0.026876
0.052919 -1.058649 0.100004
0.101676 0.049531 0.204495
-0.335015 -0.079477 0.047581
-0.409621 -0.453891 -0.048265
0.016610 1.088956 -0.008295
-1.861205 0.529512 -0.096562
0.117693 -0.147597 -0.000717
-0.200301 -0.001493 -0.069009
-0.073517 -0.134090 -0.011816
0.001085 0.059230 -0.037578
0.421377 -0.503562 -0.098578
-0.125948 0.073511 -0.033740
-0.451954 -0.289801 -0.045201
1.195392 0.385986 -0.188327
0.272826 -0.440775 -0.003379
0.861048 -0.310652 -0.095331
-0.436655 0.077732 0.123840
-0.686491 0.306053 -0.049109
0.030337 -0.134072 0.089822
-0.439996 1.292453 -0.117888
-0.016186 0.021614 -0.052259
-0.400889 0.680658 -0.080945
-1.584785 0.537181 0.072199
1.028033 0.455007 0.154703
-0.000337 -1.627268 0.077818
0.603100 -1.031452 -0.088129
0.542848 0.131174 -0.081858
0.229856 0.803290 0.062198
-1.675145 1.051937 -0.046357
-1.259905 -0.201431 0.136554
0.422411 1.132513 0.067552
-0.884244 -1.480993 0.110069
1.438924 0.841631 0.020269
-0.092909 0.764113 -0.040882
1.240349 -1.376052 0.134342
-0.735089 0.614342 -0.074611
-0.000212 -0.041903 -0.097202
0.955372 -1.571945 -0.130001
-1.553631 -0.636767 0.064719
0.621477 -0.006118 0.004654
-1.051614 -0.700367 0.125296
-0.012831 0.055856 -0.046785
-0.448282 -0.549352 -0.033587
0.790108 1.734123 0.140724
-0.518874 1.089106 0.115601
-0.229222 -1.252732 -0.042326
0.468571 -0.340950 0.040465
-1.095855 -0.084257 -0.028186
-1.013405 0.884251 -0.086787
-0.198045 -0.387328 -0.037344
0.032966 1.772197 0.037256
-0.901660 1.176310 0.085433
0.072219 -0.914322 -0.067625
1.634513 0.575843 0.061689
-1.154681 1.443906 -0.048184
-0.973419 -0.652260 -0.054245
-0.987748 -0.848651 0.001657
-0.086578 0.253540 -0.033913
0.095625 -0.232516 -0.095044
0.868104 -1.642001 0.109923
0.968594 0.304396 -0.176767
0.085776 0.831953 -0.114643
0.080523 1.312759 -0.086083
0.280618 0.165914 -0.049217
-1.955644 -0.008186 -0.014806
-0.018495 1.089123 -0.022657
-0.130180 0.366374 0.026858
0.014261 0.190480 -0.063489
0.237561 -0.693321 -0.052604
-0.007445 1.010629 -0.114432
-1.711429 0.292518 -0.101632
0.830120 0.175936 -0.109491
-2.589881 2.251714 -1.023746
-1.806663 -1.527227 2.888866
-0.266311 -0.046650 -0.108873
4.001611 2.371806 2.305127
-2.616121 -2.435794 0.376072
2.622295 0.438351 2.915328
3.364059 2.850605 3.478927
1.055377 0.169689 -0.156842
2.934839 0.916880 -0.442950
-1.708693 -0.113796 2.677249
3.840862 2.750525 3.307664
3.725049 -1.152178 2.612982
3.567082 2.539239 0.664202
-1.782924 0.787966 3.124207
0.769249 -1.041856 0.004788
0.698380 -1.053838 2.781832
-1.307252 2.204763 0.485203
-2.360925 0.140131 0.924710
-1.299478 -2.658037 1.993820
1.691502 -1.898024 1.893877
2.687075 0.760280 -0.356437
-1.538159 -0.228404 3.119525
2.646915 0.060967 0.333621
-2.578066 -1.765140 3.806374
1.453217 0.274960 -0.858942
-1.758183 0.372666 1.532281
3.214963 -0.694970 3.743068
3.518516 -2.875610 2.334720
1.701823 -2.392971 2.968147
-0.482203 0.847065 2.537457
-1.024361 2.071610 1.813273
0.910945 0.043835 3.291774
-0.861968 1.169607 2.316880
2.508199 -1.478733 3.112669
-1.145690 2.690548 3.410657
-1.694651 2.460660 3.039451
2.398254 -0.917317 2.329169
-0.039592 -2.563602 0.919248
-2.254330 1.638501 -0.373488
2.245657 -1.193501 1.342161
-2.451335 -1.493927 -0.576776
3.326523 0.315149 0.856451
-2.387787 -2.656276 3.050746
3.735201 -0.039731 1.552728
1.117216 -2.810422 1.042588
2.237834 -0.269912 0.287107
-0.550896 -0.781328 -1.087914
1.004838 -2.188001 0.126251
-0.470662 2.588970 1.387349
3.342635 -0.298188 3.376834
-2.218597 -1.624373 2.823004
0.110693 0.276063 2.159420
1.569896 2.299632 0.054406
3.536297 -2.009261 -0.745970
4.050574 -0.377902 0.596074
-2.325171 2.060177 1.670764
-1.313791 -2.277293 -0.865643
0.759807 1.044726 2.942473
-1.277553 -2.515653 3.642055
0.592881 1.744887 2.416542
-2.921015 1.163966 1.130674
3.867058 2.443994 0.320893
-0.735430 -1.815889 2.074973
-2.916859 -2.326208 0.124425
4.190242 -2.064037 3.291886
3.418811 2.623506 1.956362
1.831690 -0.185946 0.529646
-1.286942 1.775248 2.125296
-1.351095 -1.965939 2.799911
0.877618 1.572567 0.762381
-2.512649 -1.589882 1.214454
0.581692 1.806827 3.266696
4.159415 -1.859290 0.364533
3.809494 -0.822443 -0.709180
-1.328691 0.169850 1.622935
0.877210 -1.648699 0.893439
0.480955 1.943308 2.815983
3.474142 -0.956263 -0.191589
1.686757 -0.937984 3.343941
1.405307 -0.237827 3.271660
2.558780 0.541647 0.390333
2.432172 -0.477365 2.350774
2.586617 1.285640 1.710966
0.406329 1.927133 0.891677
2.247470 2.682971 1.146154
0.130456 0.621400 0.187777
-2.179025 0.951968 1.940624
-2.956339 2.051194 0.856556
-1.211918 -2.094008 -0.162029
3.581981 0.405101 2.625589
3.665950 2.602468 -0.205857
3.162766 1.260099 1.465490
1.476677 2.899682 2.889626
4.173010 0.900318 1.903630
2.483264 2.377063 2.648277
-1.537753 0.053305 2.179292
-0.944782 -1.097800 3.151924
-1.684955 -1.362579 2.090524
-0.579495 2.481712 3.158861
0.297225 2.297378 0.241197
-2.460662 -1.720136 0.585926
4.018020 -2.669560 2.359413
0.634014 -1.719932 -1.077620
2.452273 -2.370727 -0.211934
0.474715 -2.319009 3.020724
2.866604 -2.010325 3.813511
1.605403 -2.417395 0.640708
4.007268 2.307939 2.705774
0.049839 -2.262712 1.736633
3.812876 -0.733193 1.612326
-2.831580 1.493430 0.659704
1.123308 2.270805 2.301549
-0.579358 -0.407267 -0.703948
2.706786 -1.399469 0.746785
0.394442 1.343284 -0.005101
0.388280 1.567889 3.265361
2.684768 -1.445553 1.648435
4.190949 2.403176 -0.931324
-1.091572 -2.289660 0.177919
1.435886 2.456664 0.373148
-1.621088 -1.558145 0.637604
3.765284 0.242157 1.820258
3.168791 1.088373 3.670780
3.869908 1.077463 -0.695627
-0.449971 1.981943 0.219685
