ply
format ascii 1.0
element vertex 2100
property float x
property float y
property float z
end_header
-1.798532 -1.078158 2.225710
-1.929984 0.458399 0.675087
-0.194359 2.196890 2.938969
0.538545 1.988775 0.453685
-0.813466 -1.906612 2.126504
0.127734 2.144988 2.567920
1.523537 -1.487170 1.465964
1.608711 -1.488564 2.392251
1.080608 -1.765077 1.763603
1.140633 -1.733816 1.561142
2.105935 0.520290 2.626474
1.993835 0.716627 2.565608
1.654506 1.368010 0.241348
-1.523055 -1.541548 2.580557
-0.672694 -2.097480 2.573772
0.070589 2.298866 2.935380
1.832674 -0.996076 0.453020
0.930352 1.913732 1.516540
1.948805 -0.707804 2.488878
2.138897 0.379991 1.926718
-2.070624 -0.541895 0.752335
1.471209 -1.374028 0.794409
-1.794500 1.202676 2.254237
0.155972 2.057748 0.020927
-0.451818 2.031722 0.581575
-0.720724 -1.900246 0.467036
0.719238 -1.838038 0.118569
1.651526 -1.274195 1.763818
-1.554942 1.520872 2.565019
2.192689 -0.006985 2.840620
1.268298 1.762521 2.579990
1.139923 -1.637383 0.254528
-1.473336 1.529126 1.891195
1.284637 -1.522226 0.368320
-0.460543 2.034655 1.148222
1.797894 -1.053846 0.629104
-0.101094 2.100058 1.102251
-2.024662 0.725878 2.253490
1.705091 -1.081477 1.814861
0.399695 2.093073 1.959043
0.203284 2.022085 0.154398
-0.223278 2.217180 2.863526
-2.084642 -0.439183 1.510947
1.299593 -1.402343 0.347164
1.527076 1.534750 1.683222
-0.881161 1.996906 1.721054
-1.158166 -1.765623 1.077969
-2.026418 0.587520 1.442182
2.208296 -0.431098 2.720741
-0.833845 2.034144 2.430501
0.362347 -2.034806 1.843156
-1.342789 -1.639272 1.317118
1.428120 1.610328 2.618241
2.074930 -0.309982 2.609210
-1.967042 0.945330 1.614327
-1.268383 1.750902 2.922228
-0.479052 -2.118333 2.734204
2.117332 -0.106742 1.514291
-0.801057 -1.964824 2.884308
0.951585 1.798294 0.790038
-0.874426 -1.890878 1.378782
1.021557 1.825081 1.714910
-0.353722 -2.023658 1.279699
1.017534 -1.921674 2.599939
1.253177 1.620701 1.346503
1.619416 -1.232215 1.105053
-1.942267 0.830664 1.996053
1.989084 -0.631194 0.955436
-2.116911 -0.169540 1.035984
1.886571 0.870662 2.156863
-0.613913 -1.954494 0.169105
0.849168 1.901205 1.070317
1.316497 1.648976 0.146187
1.194194 1.645721 1.142222
-1.579570 -1.232592 0.258731
2.071423 0.024836 0.843189
-1.585258 1.579222 1.276442
0.915362 -1.948698 0.679125
-1.877660 0.584878 0.548148
0.843994 -1.926211 1.823697
-2.103882 0.486754 1.363958
-2.046877 -0.848378 2.676465
-0.704970 -1.966830 0.747382
1.128431 -1.629218 1.281430
0.931561 -1.835166 1.843267
1.509989 -1.481713 2.471358
-2.012562 -0.353903 0.423053
1.022088 -1.861869 1.462736
-0.505089 2.140689 2.990691
0.462694 -1.974217 1.471410
-1.505277 -1.470934 0.306572
-1.166461 1.665160 0.646697
-0.578015 -1.889693 0.076342
1.050127 1.749349 0.315356
-0.663906 -1.993372 2.259313
-0.997509 1.892731 1.488131
-1.256251 -1.707674 0.698501
1.890752 -0.584449 0.133531
1.718980 -1.323238 1.896939
-0.300946 2.174226 2.840764
1.505591 -1.562127 3.009826
-0.528923 -2.204566 2.395250
2.222485 -0.217003 2.907011
2.108507 0.509919 2.452583
-1.390885 1.408292 0.074763
-1.687646 -1.338578 2.977493
1.661256 1.402241 2.492158
-1.106440 1.672822 0.693737
1.364004 -1.589469 1.101613
-1.937544 -0.923304 2.866637
-1.896798 -0.761123 1.492091
2.015791 0.316911 0.642893
-2.060211 0.115157 1.757245
-1.950973 0.742038 0.772472
1.922503 -0.934102 1.488894
0.126431 2.028581 0.870854
-1.455636 1.312092 0.311480
-1.527037 -1.174435 0.093408
0.947772 1.860628 0.585253
-2.023015 0.637670 2.536764
-1.506145 -1.377223 0.869097
-1.708648 -1.295633 2.409398
0.378030 -2.048893 1.410216
-1.673137 1.391324 3.051422
-1.743215 -1.349650 2.016951
-1.514092 1.364402 0.200887
-2.017931 -0.694809 1.128960
-1.658108 1.426851 2.715595
1.847210 -1.102640 2.250982
-1.451450 1.568646 1.591433
-1.954257 0.918312 1.497820
0.218312 -2.066620 2.571714
1.384009 -1.507145 0.251852
2.063067 -0.183724 1.695549
1.696722 1.132520 0.694641
2.040949 0.745764 2.393966
-1.106881 -1.925282 1.975973
-0.531054 2.028929 1.449351
-0.721001 1.840278 0.784204
0.836184 1.848546 1.730974
-0.608895 -2.032872 1.249306
-2.156665 -0.027540 2.797152
-1.800793 0.900752 0.758532
0.365758 -2.018630 1.522418
-0.011095 2.237600 2.781179
0.123671 -1.990519 0.777147
-1.729073 0.956662 1.475518
1.523313 1.497825 1.469531
0.706126 1.970008 2.350097
2.130247 0.215646 1.638366
1.277902 1.593750 0.819408
-1.764807 1.285367 1.180792
-0.000129 2.020088 0.177988
-1.123096 1.687157 0.032286
-2.040684 -0.565210 1.819447
0.644799 -1.910068 0.225109
-1.697280 1.476701 2.376729
0.210580 2.023683 0.246710
2.083358 0.329027 1.250872
-0.102174 -2.029369 0.684397
0.895638 -1.914246 1.853218
-1.926707 -0.880308 2.182674
1.948952 1.035274 2.759567
-0.480269 -2.006293 1.614674
-2.158367 -0.320304 2.823443
-0.396692 -1.947947 1.172178
2.014709 0.131319 0.073319
-1.968750 0.435323 0.237469
-0.125757 2.147728 1.753119
-1.542608 1.325654 0.191338
2.117020 -0.400642 2.404791
1.923480 -0.986671 2.120978
-0.355946 -2.110795 1.670555
1.140187 1.650561 0.669330
0.533070 -2.150583 1.548910
-0.005160 2.003625 1.164852
-0.543390 1.868411 0.427482
-1.879795 -1.026888 2.600015
-1.844644 -1.095778 2.619104
2.149135 0.432366 1.452285
-1.904358 -0.940844 1.357463
-1.796915 -1.063438 1.275748
-0.013287 -2.094742 1.627202
1.530965 -1.493388 1.944878
1.210818 1.679760 0.276333
-1.761328 -1.120352 2.755573
-0.796028 1.842279 0.484999
-0.898601 1.927666 1.756766
0.792082 1.823192 0.968300
-1.622157 1.447371 2.445932
-1.893836 0.833318 1.987634
0.838635 -1.845801 0.449663
2.034023 -0.452988 0.520211
0.472867 1.956307 0.121414
-0.878021 1.997306 2.661104
-1.248405 1.609374 1.172573
-1.871046 0.807284 0.381341
-1.910481 -1.030770 2.269720
-1.988360 0.796635 1.485694
-0.200151 -2.049309 1.209315
0.329623 1.905196 0.751665
2.013327 -0.762250 1.338175
-1.900227 0.907143 1.556246
-0.194876 -2.190833 1.707413
1.868617 -1.222198 2.678945
-1.678326 -1.267963 2.472637
0.190988 -2.242138 2.813779
1.982920 0.042308 1.014042
0.178351 -1.977205 0.351836
-0.017089 -2.161336 1.988118
-0.060023 -1.926377 0.043549
1.625381 -1.190912 0.070849
-1.138265 1.670745 1.023164
-0.471149 -1.968622 0.871307
-2.134906 0.243343 2.039574
-2.068567 -0.720328 2.778322
-2.021940 0.518035 2.026546
-1.808447 1.022929 2.285743
1.251201 1.788292 2.080146
-1.158944 1.825942 1.983020
1.932591 0.789868 1.410185
-0.733978 -1.821116 0.037869
0.795562 -1.897008 0.744887
-0.525234 -2.000994 1.197784
-0.110478 -2.083688 1.044766
0.955402 -1.851236 1.125829
2.048509 -0.151898 1.488241
0.933043 1.926084 2.044288
-1.839522 0.711644 0.057555
1.614639 -1.255692 0.149337
-0.993420 -1.745939 1.680632
1.267999 1.787336 2.130380
0.882693 -2.025775 2.360408
-1.929866 -1.010008 2.991829
2.016829 0.259802 0.888518
0.789590 -2.022905 2.493528
0.082776 1.952485 0.205770
1.079334 -1.734744 0.322496
-1.321331 1.665017 1.810649
0.264766 -2.225665 2.729207
2.042772 0.238090 0.046970
1.680343 -1.269879 2.108549
1.730289 -0.980928 1.693380
1.780647 1.021859 1.107206
1.950336 0.604934 0.855841
2.174465 0.518134 2.765267
1.572258 -1.359483 0.514804
0.670501 1.937455 0.735461
1.924389 -0.591803 0.053242
-0.853477 1.859564 0.170269
2.121862 -0.280847 1.935504
-1.257866 -1.549883 1.157168
-1.075467 1.928870 2.662293
-0.833615 2.073334 2.644234
-1.924582 -0.692684 0.897301
-2.000693 -0.798112 2.438827
0.523293 1.985208 1.013232
-2.162415 -0.359060 2.210046
-2.087587 0.116256 0.831021
1.097127 -1.891793 2.081531
-0.417809 2.127150 2.850365
0.423553 -2.141182 2.731003
-1.083266 -1.760091 2.792086
2.090820 -0.481785 2.381970
1.926399 0.971069 2.433441
-0.571604 1.898366 0.759008
0.914827 1.917674 2.265180
-0.018499 -2.151424 0.977371
1.651594 1.145752 0.444750
1.980034 -1.088749 2.583250
1.093021 1.823521 1.148008
2.156474 -0.151663 1.654794
0.298304 2.113511 2.068444
-1.058611 -1.849674 2.110171
-2.036398 0.391898 0.955734
-1.434972 1.387704 0.073708
-1.856776 -1.077451 2.580244
-1.662795 1.214258 1.466131
2.030972 0.211102 1.300436
-2.025121 -0.478029 0.470809
-1.317863 -1.694509 1.948230
-1.354134 1.474260 0.860479
1.129353 1.811226 1.503887
-1.590784 -1.442067 2.289322
1.905322 0.481728 0.229221
-1.681062 1.193894 0.213239
1.314765 -1.621621 1.679410
-2.042913 0.092197 0.212284
-2.169830 -0.519238 2.552705
-1.084903 -1.875039 2.010308
-2.088278 0.238550 1.279426
0.985129 -1.982166 1.671442
-0.988592 -1.727271 0.155466
0.994982 1.839927 2.266080
-1.752038 1.319977 1.990378
1.952907 0.544353 0.939155
1.744193 1.261804 1.820675
1.835363 -1.128169 2.533549
2.026563 -0.712724 2.409260
-0.766100 -1.981002 1.496455
-2.120286 -0.318070 2.438784
-2.164890 -0.059819 1.940586
-0.741451 -1.947807 0.171400
1.699124 -1.078966 1.147981
2.272717 0.136275 2.584138
1.758289 -1.102407 1.476810
2.036433 0.079266 -0.036572
-1.922806 0.629538 0.296679
-1.935845 -0.807764 1.524174
1.908889 -0.540496 0.270314
1.756416 -0.999526 0.712371
2.157034 0.155326 1.355433
2.091003 -0.246177 1.632294
-0.344556 2.118898 2.478556
-1.588259 -1.500787 2.025380
-1.927647 0.629086 0.237324
1.713715 -1.163315 2.310847
2.239155 0.142876 3.001709
1.080963 -1.817259 1.201460
1.673251 1.440376 2.456656
-1.635304 -1.197138 -0.051128
-0.605613 -2.126540 2.764887
-1.314249 1.728459 3.010461
1.833796 1.097885 2.757983
-1.166765 -1.863699 2.866430
-2.058609 0.178850 1.841063
2.122196 0.199892 2.585056
0.790633 2.032068 1.942632
1.652949 -1.373776 1.210785
1.989990 0.496550 1.088870
1.876669 -0.700986 0.206750
1.967735 -0.009128 1.697944
1.835572 0.986913 1.316640
-1.285717 -1.572063 0.963621
2.052886 -0.267285 1.069512
-1.194748 1.608609 0.231187
1.140865 1.715180 0.878729
0.799268 1.895436 0.790400
-1.121318 -1.879790 2.084516
-1.187674 -1.674021 1.235634
-0.047341 2.017758 0.574897
0.750638 -2.039572 2.514947
-0.437082 2.141509 2.761104
-2.082042 -0.216965 1.088166
0.752410 -1.860066 0.224209
1.928903 0.916433 1.910756
0.431475 2.026823 1.684444
-0.845376 2.013060 1.498716
-1.432948 1.682980 2.870716
1.258829 1.671153 1.959434
1.074318 1.732737 0.120746
-2.128196 -0.230715 2.310674
-2.055318 0.820290 2.366764
0.499820 -2.109705 3.005251
0.366030 -1.935044 0.257796
-2.140397 0.400585 2.860774
-1.938432 0.724766 1.341465
-0.819450 -1.901635 0.227204
-1.810422 1.222083 2.526210
-0.237094 -1.994873 0.975564
-1.645466 -1.112984 0.422224
-1.735690 -1.063240 0.065370
-1.010963 1.809720 0.903592
-1.201520 -1.580779 0.319602
-1.335235 1.576991 1.534862
-0.268020 1.941764 1.077938
-1.464775 1.487858 1.370911
-1.093309 -1.642561 0.726411
-1.530552 1.373828 0.802588
-2.061243 0.384190 1.895654
1.196500 1.951263 1.744410
0.262028 1.992687 0.101942
-1.502979 -1.328424 0.771649
2.157114 -0.231699 1.962912
1.040923 -1.758471 0.877218
-1.589865 -1.614178 2.730548
-1.378812 1.478784 0.117492
-1.237294 1.565916 0.037443
-0.121124 -2.149610 2.215468
-1.264623 -1.657076 2.226327
1.771126 1.083010 2.162001
1.496453 1.520484 1.533318
2.175919 -0.024577 2.338590
0.646074 2.180472 2.594913
-1.845391 0.754442 0.774062
-2.018002 0.466429 1.084545
0.265379 -1.985304 0.475892
0.585582 -2.126268 2.610641
-0.195956 -1.940195 0.252233
-2.239611 0.444147 2.205484
2.014252 -0.535977 1.599590
1.429517 -1.572147 1.451436
-1.695796 1.064334 0.166071
0.647167 1.777592 0.448600
-0.974231 -1.910794 2.839483
1.047478 1.816171 0.486565
1.351590 1.844292 2.653056
-0.225021 -2.035325 0.798363
1.940602 0.760038 0.306152
-2.151756 -0.021295 1.613734
-0.646464 2.097860 2.982263
-0.879963 -1.909562 1.478103
-0.668726 -1.972655 1.717927
1.497063 1.599119 2.410514
1.804920 1.029665 1.649648
-1.874555 -1.074581 2.808721
1.561143 -1.377651 1.272699
-1.239906 1.739494 1.833177
0.959471 1.803010 0.663538
1.649336 -1.176092 0.429580
-1.760626 1.183360 1.844353
-0.449130 -1.883268 0.026300
0.724666 1.980616 1.223687
-0.534989 2.125822 2.034501
1.713270 -1.088416 2.205069
1.998874 0.526748 0.490503
0.586502 2.180858 2.726141
1.291251 -1.623193 0.936583
1.956737 0.503507 1.178494
-1.950769 0.867332 1.745696
-0.429482 -2.116091 1.974343
0.998077 1.747202 0.423683
-1.299794 1.783986 2.684681
1.385038 -1.529975 1.867910
0.181849 2.108648 1.459058
-1.732875 1.428446 2.418571
0.717515 -1.957850 0.265005
-0.581423 -2.121853 2.605120
-1.927944 0.432606 0.720503
1.478749 1.383267 0.826929
-2.040577 -0.224677 0.922767
-1.188630 1.774244 1.536573
0.676834 2.053876 2.190707
-0.619517 -1.964137 1.670740
-0.893764 1.930280 1.367751
1.136560 -1.551151 0.245478
-1.271779 -1.850671 2.950499
-0.706447 1.922709 0.617219
-1.396652 -1.566887 1.676003
2.010026 0.524385 0.955131
1.264023 -1.811757 1.560478
1.763787 -1.032795 0.665190
-0.799660 2.036429 2.525110
-1.951357 -0.387725 0.273110
1.918130 -0.567440 0.491706
-0.396726 -2.132461 2.769333
-1.045206 -1.699114 1.030734
-1.584973 -1.545050 1.958194
1.367784 -1.521107 0.598890
-1.369576 1.652052 0.394636
-0.956490 1.798315 0.086314
1.908124 0.807434 0.185380
-1.830982 -0.971192 0.831548
-1.250005 -1.596807 0.728510
-1.252683 1.705643 1.567799
-1.649441 -1.216661 1.088925
1.768615 1.098902 1.003042
0.851449 -1.956134 2.299647
-1.772903 -0.820711 0.503602
1.707178 -1.209510 0.707785
1.052098 -1.649634 0.470449
-1.488163 1.540617 1.742980
-1.558820 -1.288483 1.579250
-2.082638 0.798822 3.053161
-1.833716 -1.035066 2.656732
-0.065418 2.032442 0.333457
0.950472 -1.756952 1.162109
1.045938 1.760348 1.254457
-1.996756 0.912688 3.000057
-1.981981 -0.571861 1.627340
-0.134381 2.150905 2.440896
-2.020645 0.021764 0.065557
-1.845533 -0.486076 0.230376
-1.858913 1.189815 2.723635
-0.032877 2.101597 2.679101
1.055010 -1.894317 2.756136
2.113881 -0.266685 2.415805
-1.958680 -0.592371 0.144337
0.674555 -2.020141 2.829251
1.630424 1.596248 2.623892
1.538779 -1.311116 0.738811
1.813175 1.041325 1.699584
1.966139 -0.611663 1.080005
-0.551384 2.045596 2.112248
1.616220 1.282145 0.460640
-0.881974 -1.884194 0.807117
1.549925 -1.478528 1.925976
-2.035340 0.017652 0.509221
-1.456450 -1.479803 0.062330
-0.377463 2.021151 2.190472
-1.201840 -1.796148 2.378124
0.469019 -2.030871 0.541714
-0.034603 -2.185556 2.705543
2.096811 0.361347 1.915174
0.226008 -1.865433 0.040074
1.669512 1.007434 0.037325
2.202991 0.093115 1.269248
1.849245 0.997122 2.712302
-0.436920 2.143539 2.415955
0.898554 1.931861 2.672420
-1.554515 -1.487674 1.120167
-1.317051 1.663351 2.165444
-1.460001 1.465671 1.536892
0.487622 1.894611 0.565398
-1.553473 -1.413003 1.348678
-0.565128 -2.114068 2.100885
-1.073518 1.866897 1.867899
0.099036 -2.037226 1.943508
0.436704 -2.144574 2.637704
1.317557 1.693468 2.752946
-1.783557 -1.163490 2.410381
1.372140 1.705444 2.759972
-1.830738 0.762865 1.154284
-1.336697 -1.554551 0.747830
1.811027 1.110030 1.432260
1.894952 -0.705655 1.225227
0.971915 -1.870591 2.122481
1.693145 1.218428 1.647083
-2.071052 0.230620 0.137254
0.578353 1.895263 0.682012
-1.349589 1.746309 2.429523
2.233734 0.462801 2.629195
-1.711896 0.798701 0.444708
-1.625846 1.236476 0.940140
0.478345 2.067754 0.650422
-1.283772 1.737808 2.173809
-0.401463 2.019293 2.025064
0.959221 -1.981808 1.733189
2.037573 -0.601946 0.765640
1.949201 0.531350 0.513522
-1.794409 -1.021096 1.502017
-1.537996 1.509420 2.020865
-0.054425 -1.908532 0.470142
0.634169 2.132657 2.534948
1.353192 -1.600551 0.475105
-0.151404 -2.154236 2.283722
1.732908 -1.129572 0.657941
0.628017 1.954289 1.854555
-1.292854 -1.501161 0.386428
1.297075 1.524239 1.407614
-1.753966 1.201516 0.929705
1.215584 -1.756037 2.003211
-1.968126 -0.527365 1.303473
1.846127 1.170330 1.385480
-0.573763 -2.018275 0.871330
0.182544 2.138205 2.142882
1.809365 1.170113 2.827808
1.746363 -1.006197 0.080296
-0.220133 -2.173577 1.973016
-1.566223 1.422118 1.228174
-0.713142 -2.005840 2.125248
1.238696 1.827352 2.770015
1.004350 -1.823263 2.316279
-2.184283 0.032224 2.663877
1.838238 0.962758 0.959136
0.930021 -1.853747 1.378160
1.185440 -1.779035 1.087368
1.575795 -1.529063 2.112806
-1.619692 -1.516380 2.885108
2.077482 -0.224692 0.750342
-0.969014 1.803253 0.461522
1.838003 1.078710 2.353213
-1.806520 0.942733 0.232895
2.025680 -0.630113 1.778262
-0.631164 1.948077 0.555801
0.681039 1.995797 2.189183
0.424960 2.002540 0.318741
1.181875 1.735206 2.254323
2.088117 -0.422397 1.417925
0.877164 -1.913768 1.573605
0.782187 -2.002787 1.283855
0.732683 1.904411 0.318983
1.214399 -1.764332 1.088005
-2.013639 0.719503 2.493366
1.626804 -1.236720 1.386488
0.576244 2.072920 1.128636
-1.860557 -1.039486 2.522883
-1.174299 -1.876949 2.776759
-1.658555 1.110449 0.082418
0.680794 1.944941 0.099242
-1.931285 0.923003 1.846758
2.116072 0.446111 2.296066
0.994484 1.722443 0.667973
0.867576 1.981167 1.466098
1.949517 -0.830643 0.466993
1.758801 1.214317 1.432668
1.445546 1.432016 0.553177
2.184900 -0.437671 2.453233
-2.023722 -0.479012 0.835537
0.748585 -1.883604 0.726402
1.558397 -1.252671 1.073087
-0.434552 2.073210 2.906768
-0.319040 -2.193531 2.132168
-1.643590 -1.343634 1.572545
1.905603 0.827615 1.286828
1.733610 1.178735 0.855091
-1.920204 0.536819 0.242435
2.015567 -0.075852 1.608544
0.215471 -2.135334 1.557349
-2.084180 -0.499915 0.716778
-0.508401 2.080064 1.863438
1.565710 1.563252 2.824712
0.080844 -2.128104 2.535010
1.488667 -1.591416 2.090925
1.866393 0.704441 0.144911
-1.389228 -1.669812 1.845703
-2.143428 -0.231448 0.800270
-2.052809 0.660329 2.051095
-0.513450 1.917540 0.942121
1.230118 1.857959 2.891484
1.187293 1.868277 2.967239
0.689524 1.934483 1.021425
2.185942 -0.165836 2.855384
0.796541 2.167867 2.868472
2.137156 -0.064856 0.584900
-1.887663 -0.972532 2.702155
-0.542761 -1.986333 1.205283
0.239392 -2.158765 2.178035
0.774157 1.972269 1.675796
2.082052 0.345687 1.075018
-2.123746 -0.562544 2.786927
-0.834351 1.854805 0.990487
2.010524 0.604569 1.711642
1.044840 -1.695270 0.102640
1.474581 1.500843 0.950995
1.223306 -1.782126 2.174305
2.266031 -0.239383 2.513336
1.424542 1.581997 1.351643
1.957715 -0.180906 0.381682
-2.078953 0.444384 2.466562
-1.520372 1.564191 2.609055
-1.345584 -1.718850 3.077311
-0.300125 2.089615 0.811356
0.627639 1.943585 0.174878
1.880159 0.349815 0.218001
-2.020999 -0.514391 2.270578
1.094617 -1.688068 -0.059748
-1.965732 0.472335 0.890664
-1.787097 1.190092 2.096852
-0.176003 -1.966606 0.513359
-0.198770 -2.298089 2.709064
-1.354117 1.360476 0.173983
1.247678 1.664214 1.202254
-1.444810 1.332523 0.401713
1.043899 1.726683 1.037315
-1.561770 -1.357437 0.009324
-0.511992 2.076186 2.607313
0.164792 2.165905 2.500871
1.781753 1.023878 2.311703
1.828470 0.730239 0.234092
0.385764 2.050641 1.832692
1.446589 -1.527401 1.755709
-1.545536 -1.373709 0.952420
-1.376354 1.634961 2.399867
0.043288 -2.007196 0.918579
1.860374 -1.193617 2.086411
1.861421 -0.914499 1.886462
1.983965 0.707533 1.561749
-0.780161 -1.959372 1.896402
-0.725045 -2.091179 2.753486
0.212081 2.123464 2.490552
1.485148 1.498543 2.488717
0.992688 2.009360 2.892385
-2.083323 -0.344574 3.009800
2.022713 0.040715 0.591325
-2.112596 0.623676 2.183342
1.904918 -0.789853 0.669394
0.998052 -1.910013 2.142994
1.546769 1.460994 1.647753
0.323580 -2.048685 1.201638
-1.483311 1.354662 0.425013
-1.977283 -0.768984 2.131736
-1.505938 1.487761 2.075019
-2.207289 0.218306 2.284844
-1.724174 1.258295 1.540363
1.331411 1.726326 2.182660
-0.397488 -2.063251 0.239276
1.390825 1.619725 1.667029
-0.144072 1.953983 0.353806
-1.200228 1.663736 0.149964
2.066834 -0.729033 2.322245
-0.111662 2.129647 2.205250
1.358752 -1.517705 0.488044
1.683229 0.963932 0.138146
-0.200964 -1.935789 0.534887
2.050435 0.427727 0.099262
0.302416 -2.105705 0.578073
1.984740 0.278066 0.748202
-1.626619 -1.188419 0.551497
2.013603 -0.217216 1.270841
-1.850420 1.275032 2.814042
-1.887704 -0.881533 1.292025
-2.075151 0.562072 2.758587
-1.421180 1.527291 0.307571
1.443326 -1.605486 2.006669
1.236999 -1.621489 0.417625
-1.217646 1.733790 1.219796
-0.511727 -2.053714 2.480136
-2.006938 -0.287035 0.414654
-2.049000 -0.596187 1.783701
-1.268826 -1.672170 1.029545
-1.934257 0.637546 1.517219
-2.035922 0.657685 2.292419
-1.960919 0.804832 1.547347
1.877087 0.582346 -0.067069
-0.281280 2.042853 1.155492
-1.874399 1.055367 2.315297
1.655658 -1.150033 0.007197
2.010739 0.419135 0.220306
1.905561 0.889623 1.707821
-2.083880 0.708853 2.338847
1.550038 -1.461750 1.587992
-0.699760 1.968025 1.936339
-1.913110 0.909579 1.672541
1.786246 -1.271655 2.430363
-1.841121 1.077514 2.163944
1.738817 1.123739 1.021831
1.725739 1.266505 1.503116
-1.189708 -1.821890 1.926173
1.941684 -0.842879 1.459374
1.612120 -1.237527 1.225696
-1.899744 -0.097216 0.380920
1.980690 0.690604 2.151811
-2.037688 -0.373827 2.534333
0.609729 1.913272 0.606269
0.363670 2.086560 1.297238
-0.538660 -2.175631 2.599293
-1.250749 1.651564 1.095294
-2.052826 0.260054 1.262679
-2.107314 0.730137 2.059169
0.252798 2.121763 2.842562
-1.910111 0.904558 1.057114
1.295173 1.690877 1.308765
-0.022192 2.064103 0.071327
-1.509239 1.588339 1.352206
0.073563 2.125675 0.819274
2.001099 -0.325895 0.748360
-1.915731 0.584503 0.104114
-1.507759 1.413844 0.784064
1.814210 1.191280 1.479883
-1.914862 0.920520 1.123889
-0.036914 2.138255 2.804706
-1.391200 1.411176 1.001669
1.206138 -1.716684 1.110480
2.091571 0.240349 1.085730
-1.552823 -1.388771 1.975546
-1.656020 1.313298 1.807722
1.927567 0.542186 0.068806
1.250800 1.690697 1.068987
0.127309 2.082829 1.439894
1.524141 -1.383396 1.658533
-1.972227 -0.944300 2.020453
0.735471 -2.014867 2.679181
0.173580 -2.116740 2.141119
2.153572 0.039254 2.860130
0.670170 -1.988154 0.375046
-0.814939 -2.093819 1.525042
-2.119245 0.436031 1.717267
-1.130605 -1.920106 2.917614
-2.120202 -0.161550 0.402773
1.831709 0.620266 0.846747
-0.720440 -1.964096 2.210285
-0.986370 1.800869 0.817326
1.431894 1.635733 1.450859
-1.932906 0.919562 1.441913
0.599741 1.919951 1.348885
0.899217 1.775856 0.311571
1.829690 1.010586 0.094089
1.393504 1.559544 1.056567
0.179616 2.070563 2.224603
1.746939 1.458111 2.879602
1.550962 1.409303 1.280933
-0.623011 -1.822720 0.453691
1.623697 1.369615 1.854224
1.381032 1.547257 0.933432
-1.544025 -1.506110 1.998751
-1.875611 0.828576 0.760838
-1.703249 -1.136419 1.481157
-0.947942 1.878467 0.551803
1.814259 0.826506 1.082954
-2.091452 -0.603769 1.614734
1.913971 0.952905 2.491076
-1.737862 1.208880 1.558514
-1.800629 0.881865 0.778869
2.137721 -0.324910 1.838330
-2.102158 -0.102785 0.882806
-0.737760 2.010320 1.863755
-1.940452 1.064358 2.518392
-0.726816 1.983064 1.869427
2.021731 0.393662 1.315485
0.232908 2.133194 2.298485
0.186729 -2.132541 2.169089
0.949311 1.949644 1.688797
2.082304 -0.251038 0.796033
2.156607 0.621756 2.649712
0.043932 -2.096752 1.309450
-1.355425 -1.642921 2.276271
2.092781 -0.481083 2.314864
1.089280 1.729071 0.294576
-2.111307 0.544757 1.817405
1.953369 -0.558192 0.186816
-2.125720 -0.730878 2.671193
0.392775 -2.098654 1.788228
-0.629266 -2.041440 2.132840
-1.303659 1.795371 2.721741
0.340457 2.054830 2.900567
-1.090464 -1.813302 2.372066
-1.180030 1.764936 1.410152
0.934777 1.932754 2.722897
-2.123283 -0.026620 1.982870
-1.308820 -1.620737 1.901657
0.902173 1.840464 1.343869
-1.940188 0.541003 0.399339
1.824068 1.230480 0.126870
2.150157 0.112119 2.318946
1.878818 0.878255 0.488681
-1.853545 0.967120 1.678864
-1.792262 0.976030 0.357415
-0.033856 2.156737 2.394642
2.007128 -0.426247 0.867758
-1.491416 -1.537958 2.289943
-2.000433 -0.313079 0.337713
1.736660 -1.119568 0.712601
-1.287302 -1.731520 2.578115
0.274504 -2.134348 2.753614
1.507860 1.332669 0.694154
1.050183 1.767706 1.647110
0.238329 2.029291 0.766700
1.606031 1.401302 1.387748
0.413791 -2.062297 2.519273
-1.722518 -1.157352 1.821055
1.342612 -1.527191 0.965561
-0.651899 1.971878 0.766877
-2.077729 -0.520893 2.820716
-1.146535 1.735875 0.716428
-1.983519 -0.233030 0.157953
-1.123662 -1.979375 2.541576
-2.128630 0.200637 2.860267
-2.076897 -0.153354 1.190264
2.062991 0.565225 0.515090
2.092821 0.447993 1.504742
1.538194 1.535535 2.707503
-1.078771 -1.714858 1.160950
-1.585341 -1.260124 0.618081
-1.565636 -1.264207 0.652882
-1.435488 1.525558 1.316271
-1.716502 1.365775 2.420197
2.066911 0.629412 1.910541
0.538873 1.946706 0.685658
-0.166213 1.967199 0.085206
-1.668991 1.068701 0.339132
-1.656389 1.299915 1.230518
-1.024664 -1.811215 0.083840
2.188089 -0.320663 2.209503
0.990459 -1.972563 1.786352
-1.773801 -1.077019 0.954519
-1.978645 -0.360446 0.208790
2.151107 0.315810 2.039883
-0.851601 1.919358 2.054112
1.215826 1.748481 2.327155
-1.205857 -1.661076 0.282852
-1.986031 1.124071 2.748440
1.089924 -1.685721 0.220370
-1.974870 -0.240594 0.284159
-0.701964 1.963969 2.231803
0.419234 -2.104056 1.895944
-1.227554 -1.651171 0.410664
-1.967483 -0.379238 1.109384
-2.007622 -0.849509 1.918390
1.563969 -1.399645 1.926271
1.604313 1.459138 3.002976
2.119944 -0.058893 1.291295
-0.430417 2.179494 2.804968
0.278860 -2.204898 2.558028
-1.299058 -1.795455 2.925817
0.707374 -1.969114 0.997711
-2.142603 0.167609 1.352057
-1.012046 -1.662146 -0.016000
-1.743986 1.094653 1.334442
1.975588 0.669676 1.014104
-0.129210 -2.155870 0.567578
1.747202 1.143439 1.922373
-0.879324 1.829499 1.012431
-1.128773 -1.786737 0.691528
0.977282 -1.803688 0.136772
-1.605373 -1.292408 0.869028
-1.992991 0.323060 0.076580
-1.939451 -1.040520 2.461374
0.084959 2.041464 1.790566
-0.544117 -1.924165 0.575455
-1.987967 0.174465 0.909550
-0.167930 2.139461 1.858184
-1.914979 -0.735936 1.316451
-2.048087 0.132959 0.290366
2.074276 -0.224320 1.506845
0.314235 -2.056762 2.110135
2.100204 0.284060 2.468713
-0.213595 -2.244736 2.565917
1.650447 1.467871 2.315321
2.111379 -0.401756 3.022138
1.779206 1.092606 2.223930
-2.059702 0.479913 1.794269
-0.108369 -2.239914 2.644529
0.315115 2.139868 1.661635
1.710430 -1.464853 2.255178
0.131951 -2.163757 2.641535
-0.541861 -1.956478 0.489399
-0.507597 2.100526 1.150096
-2.133323 0.257550 1.783406
-2.018864 0.400994 1.251028
-0.136964 2.019039 0.270395
1.914833 0.908348 2.581141
-1.415977 -1.536775 1.407426
1.878237 -1.032296 2.301547
0.193981 2.082271 0.324318
0.613495 -1.945174 0.317804
-1.766526 -1.059077 0.956922
1.366099 1.645140 2.036271
1.697723 -1.370831 0.995576
1.058706 1.826257 1.236406
-1.963376 -0.620565 0.430618
-0.332449 2.175228 1.550339
2.084272 -0.494150 2.298767
1.925322 0.928959 1.101408
-1.870056 1.100188 2.911972
-1.662176 -1.229493 1.204608
1.477295 1.461644 1.266164
-0.997240 -1.939867 2.551689
-1.074398 -1.865895 2.416839
-1.636050 -1.331763 1.290488
-1.955358 -0.452249 0.946699
1.806181 1.106107 2.428200
-1.021940 -1.896361 1.405520
-1.608483 1.549598 2.866581
1.608098 1.486292 1.366710
0.923481 1.860765 1.097286
-1.734800 1.007877 0.048546
0.040315 2.042430 0.768838
0.246072 -2.103435 1.444533
1.957611 -0.802414 1.325896
1.783016 -1.001174 0.352775
2.109534 0.499277 2.625444
-1.337845 1.576317 1.043468
0.008507 2.126241 1.581381
-0.389704 -2.133891 2.489100
1.636828 -1.159572 0.665933
1.073438 1.705131 0.195616
-0.665376 1.904303 0.348866
0.436680 -2.004752 0.229261
0.608431 -2.159305 2.881839
1.966569 0.918714 2.522645
1.989050 0.255699 1.582153
1.640020 1.236933 1.093923
1.947510 0.795781 1.499947
-0.000544 2.193112 2.356654
-1.696545 -1.388442 2.735814
1.523925 1.451441 1.993242
1.726046 1.267578 1.952432
-2.201285 0.157505 2.664822
-1.980801 0.857104 0.859607
-1.277889 -1.670344 1.709581
1.883218 0.731544 0.470608
0.928883 1.938497 2.114011
-1.966986 0.808083 1.502447
-0.144393 -2.153563 2.217132
-1.083155 -1.750350 0.107220
-1.128496 -1.781773 1.278377
1.025667 1.813995 1.896135
-1.294600 -1.725221 2.198626
-0.839035 -1.903659 0.939987
2.358648 -0.272748 2.579285
-0.460729 1.963247 0.129533
1.363545 -1.572237 1.000043
-2.088109 -0.737355 2.259034
1.357745 -1.592861 1.309592
-2.035854 -0.401211 0.824137
-0.377141 2.193016 2.558210
2.059159 -0.294097 1.399931
1.378876 -1.612054 2.408720
-0.938881 -1.882409 1.545110
-1.471983 -1.338717 0.348743
-0.433008 2.035468 0.527562
0.057636 1.948379 0.700869
2.094873 0.595843 2.072281
-0.012137 -2.045110 1.366366
-1.841363 -1.122631 2.467203
0.927603 -1.899426 1.207429
0.001727 2.105628 0.334507
-2.072888 0.304504 1.504952
1.520902 1.418906 0.732744
0.931705 1.695726 0.319824
-1.499237 -1.326682 0.051831
-1.812722 -1.104645 2.006519
0.706961 -2.043753 2.106026
0.358399 -2.102152 1.544991
1.579833 -1.288167 0.404029
-2.063447 -0.328660 0.080140
1.594467 -1.361485 1.898060
-2.027605 0.576197 2.121904
-2.163273 0.328077 1.273923
1.772870 0.857149 1.990832
-0.084342 1.808256 0.603735
-0.076723 1.830636 0.614134
0.162864 -1.909506 2.049056
0.981545 -1.653041 2.113590
-1.738408 0.937305 1.604485
-1.527032 1.032168 0.493292
-1.935754 -0.404698 1.263886
2.012481 0.040578 2.331100
-1.723954 -0.801638 1.644181
1.942278 0.518066 2.553341
0.978896 -1.567161 1.864559
1.719841 -0.263506 0.506926
-0.376569 -1.867695 1.483835
-0.891286 1.728768 1.104144
-0.520882 1.784816 0.650128
-1.833408 0.290089 2.794986
1.524513 -1.112155 0.852504
0.852419 -1.615412 1.658173
-1.915117 -0.343245 2.768502
-1.680242 0.847214 0.465140
1.764490 -0.589886 0.445670
-0.416997 -1.792599 0.841514
-1.124207 1.481956 1.547459
-1.051019 1.664479 2.867095
1.084087 1.448146 0.344471
-1.953718 0.600526 2.704514
0.210368 1.866790 0.644774
0.768403 1.790218 2.451320
-0.749939 -1.618483 0.226108
-1.762103 0.694691 1.796896
-0.915557 1.633559 0.795921
-0.608029 -1.724848 1.079069
0.204846 -1.954033 2.687257
0.769525 1.751159 2.520963
-1.980589 0.354879 3.035333
-0.141859 -1.952061 2.470345
0.419267 -1.883313 0.989914
1.337023 1.285090 1.358525
-1.987006 -0.160369 2.901686
-0.740813 -1.569676 0.564815
-1.193886 1.562084 2.267568
0.550921 -1.873082 1.938285
-1.680491 -0.773409 0.215320
-1.896472 -0.104973 2.189900
-1.459944 1.377642 1.916971
1.653949 1.050761 1.817373
1.697782 -1.072534 2.775349
-0.698967 -1.659965 0.984700
1.452066 -1.264311 1.873409
0.669016 1.696740 1.200401
1.752937 0.032602 1.233861
0.238994 1.929812 2.742139
-1.689181 1.146477 2.327839
-1.457090 -1.094803 0.504317
1.854208 -0.519242 2.533557
1.914997 -0.108289 0.894492
-1.685823 -1.091208 2.803467
0.184861 -1.803300 0.947709
1.472837 -1.114585 0.446548
-1.165329 1.561322 1.542615
0.390549 1.986336 2.463020
-1.645985 -0.860314 1.436990
1.244398 1.237137 0.648441
1.179589 -1.529929 1.594199
-1.513717 1.204156 2.518442
-0.830567 1.754198 0.936795
0.123253 -1.833196 0.407226
1.729915 -0.821598 0.609523
-0.557296 -1.732766 0.480405
-1.534437 1.145325 1.073013
-0.826352 -1.627351 2.514448
1.627772 -1.045390 1.262570
0.818559 -1.689643 1.079456
-1.670959 1.210647 2.192842
1.581159 -0.996222 0.782743
-0.149371 1.850890 0.741106
-0.766516 1.742430 2.793293
1.374366 1.398218 2.320928
0.232827 1.748533 0.517113
-1.900557 0.403004 2.232976
-1.936818 0.598060 3.055050
1.825004 0.668685 1.749996
-0.264803 2.014594 3.081610
1.125708 1.526706 1.663196
-1.840793 -0.912126 2.939242
-0.207039 1.908713 2.214376
1.361007 1.198312 1.216696
0.170844 1.788653 0.452475
1.787512 0.820088 2.901205
-1.709737 -0.848259 2.448146
1.862761 -0.401270 2.864227
-1.963513 0.264019 2.127031
1.831447 0.370281 1.065893
1.546623 0.955985 1.281031
1.512929 -1.148414 1.569186
-0.579565 -1.730881 0.452116
1.819980 -0.841692 2.874501
-1.807077 0.601821 1.384587
-1.336281 -1.241471 0.675125
1.827254 -0.685475 2.112714
-1.582090 1.029857 1.820586
0.271026 -1.798780 0.738679
-1.286557 -1.451461 2.339163
-1.917012 0.075803 2.449588
-1.663382 -0.724338 1.180239
-1.339742 1.370422 2.281518
-0.635955 1.746743 1.623148
1.949752 0.174327 2.666102
1.709495 0.659714 1.017848
-0.458726 -1.790958 1.430961
-1.224935 1.487760 1.611138
-1.245845 -1.535089 2.754638
-1.055658 1.733657 2.757856
1.359925 1.446355 2.405893
-1.789643 0.531265 1.194295
1.700495 0.404844 0.539470
-0.259794 -1.861781 0.640784
-1.898073 0.595193 2.406113
-1.789681 -0.051009 0.259127
-0.384376 1.804322 1.227377
1.779997 -0.511962 0.940159
1.557495 -1.097482 2.598330
0.734504 -1.876621 2.436527
1.240202 1.324479 1.936534
1.034207 1.526263 0.603704
-1.668240 0.621557 0.642272
-1.226889 -1.477951 1.248049
1.812291 -0.096940 0.590210
1.349107 -1.294952 0.514554
1.744800 0.546579 0.405964
1.389116 1.350743 2.891017
1.431655 1.046647 0.675666
0.791765 1.731304 1.511459
0.860387 -1.720351 1.869503
1.906765 -0.606614 2.654107
-1.587114 1.090571 0.926224
1.896468 -0.507476 2.750054
2.005368 -0.320299 1.942468
-1.815843 0.502512 1.292503
1.776469 0.625183 0.593394
-1.825390 0.533457 0.884782
0.959414 -1.669811 0.583233
1.660131 0.775216 1.761172
0.910992 1.717084 2.296721
-1.902039 -0.270936 1.241244
-1.936896 -0.088551 2.845552
0.226175 -1.879172 1.636630
1.369062 1.241345 1.315048
-1.662749 0.726670 1.420940
1.880668 -0.097241 1.744111
-0.542426 1.862098 1.595999
0.161521 -1.818216 0.592734
-1.834835 -0.786561 1.476293
-1.426403 -1.305656 1.383128
-1.260176 1.345539 1.168384
-0.706597 -1.739860 0.780857
-0.013761 -1.866123 2.123084
-1.259311 -1.596807 2.717292
-0.387026 1.970543 2.487656
-0.538986 1.786794 0.632147
1.625062 -0.902568 1.225426
1.236911 -1.442006 1.605715
-0.921154 -1.723732 2.175396
1.898102 -0.047266 0.722759
1.713694 -0.819733 1.162346
-0.849854 1.635263 0.880205
-0.838818 1.695931 1.240768
-0.487692 1.930786 1.806874
-0.601061 -1.763451 0.282247
-1.941566 0.349549 2.096387
-1.764213 0.634728 1.988370
-1.367896 1.267596 1.546772
1.359137 1.318821 0.980119
-1.160727 1.387331 0.913962
1.572796 -1.035887 2.087122
-1.444939 -1.170126 2.251749
0.970179 1.577326 0.483535
-0.051738 -1.795371 1.498967
0.018326 1.834802 1.345752
-1.719245 0.793995 2.301340
-1.257192 1.409845 0.792068
1.848577 0.654517 1.516790
-1.730357 0.923251 2.693897
0.349103 -1.865241 0.683137
-0.596075 -1.693550 0.296147
-1.157677 -1.477634 1.665235
1.676604 0.621361 0.454262
1.815947 -0.191973 1.288499
-1.015760 1.643280 1.311879
1.764363 -0.353136 0.767472
-1.759878 0.949570 2.778556
1.698439 -0.766674 0.467181
1.876382 -0.337420 2.163297
1.019128 1.708957 2.484718
1.958558 0.205267 1.917373
-0.695983 1.640327 0.293624
1.847011 0.831366 1.888390
-1.389622 -1.294273 0.689209
1.552900 1.024632 1.089272
-1.729099 -0.635099 0.744920
1.615271 -0.863048 0.266709
1.693615 -0.614699 0.540793
1.219852 1.348293 1.001736
-1.272152 -1.195026 0.332040
0.819938 -1.817178 2.680029
-1.064321 1.462261 0.625674
1.597383 -1.048145 2.477215
0.724944 -1.787540 1.878346
-1.114419 -1.486569 1.094311
-1.800631 -0.589553 1.532918
0.514022 1.807787 2.210582
0.112433 -2.040642 2.855632
-0.315470 -2.040208 2.840835
1.645795 0.976839 0.398651
1.797453 -0.549968 0.864055
-1.361713 -1.201073 1.451051
1.896473 0.259895 1.343364
0.497238 1.837735 1.403813
1.898204 -0.336424 2.024120
0.421071 1.981434 2.794994
-1.112258 1.638223 2.449775
-1.770844 0.869323 2.775734
1.344839 1.441029 0.850644
-1.512295 -1.002093 1.954163
0.804717 -1.795795 2.955147
-0.316075 2.052500 2.956399
0.207162 -1.918634 2.295129
-1.803154 -0.660814 1.124999
-0.808902 1.834105 2.734428
0.035310 1.868136 1.318277
0.644446 1.805647 2.106648
-1.893157 -0.407091 2.920885
-1.547508 -0.957567 0.752157
-1.263864 1.176078 0.220513
1.123618 -1.655428 2.260287
1.840123 0.489035 2.560514
0.647771 -1.884570 2.718356
1.810979 -0.726132 2.837092
-0.070527 -1.948053 2.457875
-0.738537 -1.774418 2.932939
1.715157 -0.725218 2.669721
-1.340578 1.251655 0.993669
-0.519498 -1.880351 1.984008
-0.167090 1.958553 1.977980
1.838531 0.428418 2.175723
1.695481 0.674520 0.859240
-1.905939 0.527988 2.724758
1.843819 0.699426 2.000961
1.159468 -1.416910 0.712728
1.075807 1.597041 2.408067
-0.440154 -1.681952 1.146996
0.984257 1.609270 1.982947
1.950038 -0.284936 2.529422
-0.510561 -1.947050 2.608886
-1.791948 -0.821194 1.670127
-1.622809 0.799437 1.899595
1.812767 0.219486 0.203849
-1.796621 -0.558825 2.141640
0.514612 -1.887667 2.903784
1.495924 -1.316106 2.904489
1.862168 0.637449 2.616935
0.576711 -1.833429 2.224775
-1.748818 0.789443 2.241349
-1.850151 -0.679751 1.081496
-1.904335 0.535091 2.839554
1.400916 1.089397 0.360209
1.860720 0.102455 0.828585
-0.128484 -1.829292 0.384988
0.111193 -1.880527 0.461114
-0.054339 -1.782987 0.684470
1.789392 0.415524 1.206250
0.717679 -1.768846 2.596645
-0.786542 -1.813731 2.474379
-1.691307 0.443372 1.064805
-1.249292 -1.341772 1.367789
0.906506 -1.633332 1.155352
1.566693 0.878056 0.257875
0.792189 -1.674778 0.249527
-1.427835 -1.149236 1.914289
1.311711 -1.357618 2.466734
-0.242028 1.917518 2.727846
-0.387279 1.948340 2.832505
-0.485592 1.827826 0.563734
0.733844 1.674422 1.261388
1.326756 -1.320056 0.901764
1.641161 0.623794 0.607346
0.966561 -1.718977 2.910903
-1.853976 -0.091159 2.282703
-1.239416 1.564154 2.498263
1.728013 0.713795 2.571558
-1.333389 1.267277 0.936613
-0.813867 -1.662784 1.160727
1.692639 -0.227402 0.344258
0.956225 -1.620095 0.865753
0.808079 -1.663115 1.284252
1.321651 -1.167379 0.403909
0.382870 1.882045 2.650229
1.633975 -0.761391 1.977191
-1.702137 -0.936244 2.279163
-1.536692 1.054948 1.431365
-1.582828 0.853096 0.853824
-1.919551 -0.351239 1.525635
-0.927239 -1.551126 1.402718
0.525797 -1.850456 0.835432
1.695991 0.696728 1.173001
1.266042 1.222112 1.417108
0.021701 1.815577 1.553266
1.338647 -1.398040 2.578796
-0.310800 -1.912123 2.422818
1.075366 1.525964 1.720408
-0.357496 1.848117 1.570219
-0.702471 1.863217 2.243644
1.376285 -1.370223 2.660694
1.907595 -0.289813 1.289907
-0.646134 -1.833141 2.923667
-1.288223 1.511777 2.236176
-0.915247 1.642694 0.721796
1.689053 0.812333 1.835887
-0.619901 -1.693009 0.598894
-1.693478 0.921985 0.968805
1.694189 0.440093 1.286443
1.630416 0.695146 0.635410
-1.745782 0.799232 3.017330
-0.131479 -1.829732 1.128238
1.702878 -0.659046 0.634595
-0.319227 1.900224 1.363694
-1.693110 -0.869268 1.721135
1.883997 -0.599997 2.761295
1.720182 0.628894 0.971402
1.685078 -0.958683 1.809333
-1.618938 -0.575670 0.825015
1.168664 -1.351689 0.262470
-1.122636 -1.570802 1.830166
1.698112 0.794436 0.621616
-1.424071 1.209207 1.486230
1.233519 -1.435709 2.752263
1.397062 -1.232781 2.081048
-1.651127 1.008879 1.189173
0.010129 1.870717 0.839270
1.120320 -1.551889 1.395577
1.498112 -1.202812 1.569796
-1.389785 1.455672 2.756186
-1.066963 -1.572388 2.071499
-1.825184 -0.094563 0.648240
-1.624918 -0.790638 0.867650
0.873139 -1.657935 1.674021
0.642792 1.798822 1.755591
-1.937728 -0.431935 2.536637
-1.052145 1.578947 0.983526
-0.344215 -1.730592 0.906906
-1.759510 -0.578877 2.527536
-1.504918 1.253258 2.583759
-1.582957 0.955453 0.468246
-0.762835 -1.658513 1.368826
-1.759824 -0.787267 1.160650
1.460556 -1.203158 1.266946
1.465129 -1.074740 1.150991
1.743133 0.801677 1.697397
-1.815588 -0.638724 2.619764
1.869645 -0.210392 1.900876
-1.520519 -1.166666 2.792039
1.457609 -1.220549 1.801139
-0.911278 1.883822 2.540028
0.785270 1.740229 1.518360
-1.773336 -0.372055 0.419131
-0.843775 -1.653838 0.339166
-1.158422 -1.336783 0.934351
1.733345 0.492133 0.370652
-0.879743 -1.646462 1.652923
-0.044936 1.972236 2.298396
1.679650 1.080417 2.579249
-0.965291 1.603237 0.957559
1.934136 -0.145814 2.462441
1.886161 -0.471334 1.924258
-0.686320 -1.563740 0.570641
1.906557 0.082847 0.253617
0.733134 -1.731012 1.732591
0.919175 -1.615520 0.705982
0.393813 1.903453 2.465149
1.069663 -1.459644 1.396497
-1.779010 -0.814637 2.575065
-1.942618 0.511932 2.898360
-1.518654 -1.136979 2.317226
-1.509943 0.979959 0.415412
1.768948 0.366799 1.292423
1.741237 -0.481961 1.121444
0.796338 -1.759782 3.059812
0.427751 -1.817410 1.115557
-1.314342 1.496242 2.389908
1.693437 -0.683109 0.862080
-1.748060 0.827927 2.365690
-0.285073 1.795354 1.975511
-0.427286 1.965750 2.823197
-1.607423 1.186408 1.741304
1.356381 -1.336736 2.162883
-0.574504 1.783648 0.469310
1.612999 -0.800647 0.181134
-1.870501 -0.005798 2.238818
-1.907863 0.240262 2.757210
1.455975 -1.213324 1.987218
1.630848 1.048114 2.006382
0.683799 -1.649543 1.670826
0.682846 -1.694735 1.159486
1.758520 0.924313 2.555949
-1.837202 0.318272 0.838605
0.447903 -1.907807 2.388954
1.636667 0.928421 1.296298
1.860382 -0.149267 0.651745
-0.720752 -1.614827 0.411142
-0.874068 1.724967 2.423142
-1.247617 1.350273 0.352832
1.892611 -0.512916 1.521931
-1.206864 1.363198 1.580035
0.582107 -1.823468 1.842608
-1.413389 1.401312 2.569420
-1.667161 -0.830512 0.652328
1.027693 -1.713679 0.361330
-0.406315 1.903202 0.924654
0.613780 1.870825 1.542127
0.900686 1.642705 1.034209
-0.021179 1.879837 2.372622
0.940244 1.603721 1.563245
1.548074 -1.005121 0.498821
-1.080427 -1.605901 2.539762
-0.968963 -1.780788 2.910848
1.912416 -0.263415 1.552211
-1.512070 1.175158 1.357564
-1.683772 0.917593 1.923736
-1.777963 0.385304 0.289475
-0.600810 -1.929893 2.790225
0.857347 1.716410 2.633816
0.756511 -1.857938 2.722834
-0.918832 1.645204 1.975521
1.303176 -1.268762 1.316490
-0.300803 -1.850338 2.507574
1.773680 -0.576858 1.168671
-1.784268 -0.458476 0.253064
-1.502198 -1.173853 1.299012
1.891137 0.095107 0.503554
0.963896 1.695284 2.609693
1.800438 -0.203875 0.925850
1.383399 1.122395 0.346111
1.631160 0.837690 1.695119
1.093571 1.388417 0.326461
1.588065 1.005473 0.284365
1.367966 1.310814 1.111312
1.281883 -1.454213 1.898164
0.846787 1.617384 0.926258
0.614627 -1.693738 0.336222
0.224073 -1.915157 2.249218
-0.125177 -1.906169 2.125526
-1.624231 -1.122745 2.588195
-0.852753 1.575707 0.205848
1.219378 -1.503691 2.293422
-0.138787 -1.872745 1.085815
-1.784825 -0.728409 2.448803
-0.972653 -1.601718 1.070435
0.310225 1.776875 0.766184
-2.042838 -0.130785 1.885405
-1.975070 -0.072229 2.352704
1.807731 0.358037 1.707255
-0.664247 1.761696 0.563785
1.576042 -0.978479 0.875077
-0.825330 1.624584 1.388206
1.891310 -0.540636 2.493965
0.862050 1.525914 0.930903
1.808653 -0.502193 2.388380
1.827401 0.015727 0.664432
1.106450 -1.635673 2.789564
1.112083 -1.455753 1.105994
1.344899 -1.192011 1.140877
1.912949 0.267117 2.566320
-1.810537 0.345760 0.281074
-1.818435 0.205723 0.406785
-1.657475 0.835381 0.508232
-1.641064 -1.207861 2.511975
-1.982249 -0.043759 1.867839
0.767451 -1.781847 2.463186
-0.494391 -1.784309 0.694725
1.999671 0.364904 3.022264
-0.045364 -1.826591 1.676608
1.705810 0.853783 0.292324
1.859687 -0.890129 2.878334
0.605939 1.756061 1.842046
1.177659 1.568390 2.421548
-1.212665 1.434244 1.817699
1.793724 0.596778 1.915362
-0.273375 1.953993 2.177762
1.026434 1.557632 1.524846
-1.709194 0.983325 2.434224
0.153191 -1.812153 0.794443
-0.307035 -2.026481 2.511215
-1.602265 1.092332 1.778187
0.798049 -1.829347 3.075492
-1.622156 1.072765 1.078880
-1.158735 -1.515959 2.261308
-1.347732 1.150906 1.322629
-0.619888 -1.662234 0.282722
0.788335 -1.745587 1.119548
0.279385 1.590051 0.183039
0.683036 -0.352586 0.110999
0.802311 -0.999298 0.227461
0.474331 -1.131844 0.160588
0.121443 0.017699 0.114633
0.514650 0.002412 0.157316
-1.610856 -0.189569 0.097436
0.217371 -0.099691 -0.017672
1.601758 -0.267278 0.082242
0.691070 -1.040707 0.003052
-0.322180 -0.353856 0.058025
0.809848 1.007233 0.068061
-0.675513 0.529317 0.153952
-0.090106 -0.011048 0.209884
1.263577 0.320597 0.050443
-0.320221 -0.102295 0.141070
-0.029250 -0.142930 0.001954
1.749740 0.844698 0.154614
-0.080944 -1.200275 0.201781
-0.983137 -0.132728 0.103805
-0.515855 -0.349912 0.153280
0.158396 -1.352222 0.206269
-0.192576 -0.982773 0.136608
-0.460210 1.271979 0.124505
-0.765268 0.212446 0.080302
-0.632205 0.288295 0.209915
1.296177 0.702189 0.096449
-0.172230 0.004669 -0.028918
-0.128824 0.995741 0.128324
0.984948 -0.203634 0.241773
-1.827651 0.507119 0.021204
-0.127451 0.106451 -0.008613
-0.328328 0.417727 0.144776
0.103994 0.037254 0.065399
-1.139086 0.084118 0.116739
-0.083090 0.300143 0.137363
0.118887 1.152042 0.169061
0.003789 0.646935 0.176788
-0.554164 -1.068641 0.113032
-1.497460 0.079655 0.121925
-0.511158 1.054507 0.125057
-1.111652 1.198349 0.121580
0.027019 0.274126 0.107215
-1.234401 0.332015 0.185088
-0.003242 0.499889 0.089321
1.502001 0.167652 0.114560
-0.564421 -1.229445 0.086991
1.083810 0.818950 0.159554
1.920870 -0.133081 0.000747
-1.260346 1.573185 0.209837
0.447229 -0.010653 0.188884
0.262507 0.008769 0.125985
-0.075666 0.644897 0.124834
-0.773610 1.008086 0.103744
-0.070775 0.167015 -0.011441
0.978715 -0.140896 0.204483
1.529581 0.665179 0.146410
0.987987 0.684091 0.091455
0.276575 0.697887 0.118151
-0.984983 -0.514700 0.116665
-0.562264 0.370445 -0.014285
-1.011980 -0.606641 0.192396
-0.959232 -1.461335 0.090430
0.299638 1.559417 0.075116
0.125001 -0.058194 0.067576
1.754893 0.452306 0.069751
-0.481360 -0.219301 0.034506
0.097061 0.868924 -0.021360
-0.802223 1.340468 0.174235
-0.391475 1.715535 0.153687
-1.285591 -0.720704 0.059158
1.170945 -0.170416 0.133522
-1.551226 0.430408 0.255059
-0.348449 -0.434220 0.219041
-0.251210 0.706106 0.087673
-1.104398 -0.108216 0.182432
-0.283816 0.036377 0.076936
-0.120136 1.738867 0.171361
-0.642182 -1.346835 0.114471
0.668373 -0.739314 0.062950
0.340866 0.255410 0.193634
0.020723 0.519445 0.164419
-1.846129 0.462889 0.136697
-0.732833 0.891666 0.119735
-0.312330 0.805830 0.133663
1.245737 -0.041178 0.131346
-0.622166 1.803090 0.151976
1.071117 0.878301 -0.035628
0.149306 0.102220 0.148841
-1.537331 -0.299055 0.261576
0.862990 1.388854 0.248737
0.937963 0.873591 0.060783
1.640281 0.112666 0.140957
1.173696 -0.246085 0.143137
-0.465893 1.030007 -0.046998
-1.560260 0.044507 0.191031
-0.255267 -1.465787 0.112332
1.739266 -0.436949 0.127833
-0.333554 -0.735064 0.151640
0.492674 -0.877085 0.251700
0.599348 -0.095298 0.081796
0.245784 1.325988 0.020674
0.690095 0.767123 0.032674
-0.809003 -1.098874 0.072951
-0.659336 -0.098340 0.226954
0.973530 0.137570 0.074089
1.635202 1.042436 0.095516
-1.327275 -1.013526 0.165049
1.784380 0.312766 0.096107
0.888748 0.587409 -0.020574
0.278455 -0.094966 0.091790
-0.182344 0.028652 0.032137
-0.245694 -0.855750 0.205177
-0.281473 0.120917 0.169739
0.931773 0.823026 -0.004305
-0.534254 0.232561 0.130440
-1.341573 -1.251998 0.075205
0.727909 -1.097400 0.015927
0.572848 0.156521 0.132606
0.768297 0.611845 0.027076
0.155791 -1.444893 0.112630
0.317058 -0.138930 0.049904
1.662920 -1.250710 0.064230
0.483182 -1.226329 0.044800
1.396557 -1.162946 0.149461
-0.065462 1.482623 0.060993
-1.395189 1.275330 0.092126
-0.150027 -1.441167 -0.001590
0.388931 0.002017 0.094801
-0.263920 -0.351875 0.169268
1.339153 0.722423 0.197878
1.517967 0.754844 0.132852
-0.007184 -1.586960 0.034433
-1.514915 0.913619 0.177613
1.785910 -0.666158 0.021067
-1.897634 0.355785 0.136736
-0.693322 0.832361 0.000074
0.359360 0.335673 0.087410
-0.380936 -0.722788 0.107757
-1.642376 -0.112409 0.208049
-0.119159 2.012827 0.246801
1.470637 0.752560 0.197394
-0.338417 0.034915 0.191031
0.989472 -0.496192 0.095681
-1.165590 0.771344 0.140289
0.781163 0.271764 0.087559
0.036445 -0.041378 0.008467
-1.369904 -1.251337 0.133884
1.083443 0.185748 0.030720
-0.266927 0.317646 0.154314
0.180707 -0.465383 0.101011
-0.020215 -1.658369 0.088821
-1.014144 0.858899 0.204338
0.782419 -1.427671 0.219878
1.264493 -1.248149 0.002322
-1.311740 -0.311879 0.115252
0.802140 -0.443985 0.001524
-0.161930 -0.037999 0.053784
-0.361480 -1.335216 0.127241
-1.584105 -0.934267 0.146688
0.088013 -0.554852 0.233595
-0.175924 0.873187 0.128594
0.037229 0.085668 0.132142
-1.810455 -0.499910 0.118598
1.276491 -0.276890 0.134273
-0.223181 -0.017300 0.002314
1.236464 -0.770312 0.156695
1.673749 0.150082 0.051524
0.122658 0.447883 0.063333
-1.239992 0.791089 0.098052
0.248195 1.052020 0.110193
0.499830 0.167152 0.157823
0.005591 -0.029180 0.059551
0.464169 -0.120452 0.028377
0.241874 0.719775 0.074101
-0.709173 -0.240518 0.083662
-0.364645 -0.341055 0.298558
-0.984354 1.265601 0.113994
1.675803 -1.066026 0.189820
-0.655092 -0.768891 0.032299
-0.941910 -0.526978 0.129959
-0.633539 0.280773 0.158852
-1.035877 -0.295923 0.066399
0.073062 0.037969 0.039396
-1.058919 1.238529 0.192023
1.502996 0.048060 0.133809
-0.590459 1.039981 0.177032
0.882384 -0.594239 0.206905
1.080025 -0.111505 0.021377
0.522666 -0.161892 0.130781
-0.126231 1.973175 0.031257
-0.700534 -0.134223 0.099922
0.890560 0.505103 0.056024
-0.968808 -0.863249 0.053948
-1.696860 0.996961 0.006583
0.651978 0.320265 0.092578
-1.036416 0.587851 0.228932
-0.548615 0.158883 0.059983
0.601100 0.486500 -0.083330
-1.621349 -0.290497 -0.030311
-0.249812 -0.025269 0.166849
-0.890067 -0.735357 0.152998
1.408090 0.372070 0.037357
0.998494 -0.540045 -0.065145
0.197489 -1.134876 0.230179
0.565457 -0.750209 0.123987
-0.773391 -0.658588 0.163615
0.216797 0.009046 0.213470
-0.090338 -0.361839 0.029606
0.129241 -1.528454 0.142330
1.552914 0.963022 0.152098
0.112799 -1.783454 0.107401
1.460884 0.942816 0.074777
0.070868 0.009854 0.106431
0.905452 -0.686713 0.014387
-0.321489 1.095725 0.124651
1.402881 -0.307441 0.170126
0.188169 -0.377785 0.102618
-0.266553 -0.489303 0.119775
-0.272476 0.373874 -0.048619
1.330881 -1.217712 0.141826
0.539378 0.165088 0.135358
0.397592 0.894068 0.158110
-0.041457 0.097898 0.058548
-1.495889 -1.218578 0.241983
-1.098098 -0.765287 0.118419
-0.043573 -0.684520 0.124372
-0.046170 0.160403 0.043668
0.191891 0.298697 0.085142
0.736241 -1.164312 0.192654
0.289631 -0.177472 0.229279
-0.187319 -0.084354 0.079093
0.421725 -0.449024 0.047363
-0.919775 -1.046663 0.192448
1.172121 0.052977 0.014263
-0.840595 1.744179 0.162873
0.499232 1.662317 0.105318
1.448709 -1.281160 0.156692
0.346225 -0.234848 0.159109
0.338305 0.051439 0.119862
0.390792 -1.168674 -0.016248
0.255990 0.004372 0.021360
0.229071 -0.336595 0.046394
0.735767 -1.696550 -0.009971
-0.213672 1.312090 0.036796
-0.705327 -1.414131 0.102017
0.419168 1.274547 0.167946
-1.177162 0.574960 0.276442
0.519436 -0.470080 0.132375
0.667388 1.723320 0.282840
0.309133 -0.629655 0.071993
-0.753772 -0.795959 0.048617
0.336271 -0.120164 0.104105
0.113220 1.773648 0.131023
0.658161 0.226368 0.271258
-0.063340 0.656675 0.030828
0.109783 1.597992 0.010764
-0.252779 0.370441 0.039212
0.174666 -0.159839 -0.036584
-0.337304 1.248888 0.055490
-1.276524 -1.409582 0.089047
-1.305017 1.137025 0.225890
-0.044006 -0.448100 0.120102
0.565308 -1.819795 0.087200
0.592052 -1.263503 0.074227
-0.933422 -0.221446 0.126796
0.069872 1.621893 0.072683
0.395958 0.569027 0.086710
1.477183 0.305916 0.144164
-0.545177 -0.244521 0.040598
-0.373140 -0.092329 0.027934
0.283917 0.830548 0.100557
1.312239 0.671897 0.009393
-1.102447 1.544782 0.155634
-0.023753 -0.302671 0.080349
-0.666974 0.632094 0.045306
-1.560749 0.149760 0.066593
0.301862 0.376484 0.062945
0.784960 -1.295982 0.094053
0.900788 -1.787443 0.192371
0.479199 0.831294 0.168120
-0.514079 -1.043040 -0.015201
-0.458515 0.803301 0.132457
-0.069024 0.033112 0.162906
0.832582 0.258339 0.087487
-0.249414 0.038187 0.034790
0.421029 -1.175442 0.048598
-0.162874 -0.019837 0.078708
0.496350 1.242486 0.178765
1.763591 -0.900832 -0.036002
0.085749 0.108102 0.052691
-0.226822 -0.437391 0.119859
-0.161424 -0.055253 -0.015248
1.385746 -0.654318 0.134968
0.308653 0.246005 0.093889
-0.586239 0.748211 0.059440
0.550240 1.486297 0.039610
-0.173590 0.012715 0.050540
0.246701 -0.126350 0.012097
-1.148498 -0.037201 -0.049002
-1.101467 0.082958 0.340725
-0.074898 0.163403 0.062117
0.281772 -0.580575 0.018586
0.172221 1.090772 0.065996
-0.241603 0.288493 -0.009376
0.393689 -0.042615 0.099391
-1.453395 -0.630223 0.067824
0.584640 -0.589200 0.104169
1.750772 0.793471 -0.051871
0.147458 0.064918 0.108233
0.297788 -0.222612 0.152176
-0.620893 0.250333 0.116042
-1.039817 0.626513 -0.001342
-0.266931 -1.318894 0.063071
1.319189 -1.074873 -0.013227
-0.800774 -0.133991 0.173895
-0.548035 -0.348270 0.110085
1.580665 0.822094 0.127468
0.425048 -0.198885 0.064708
-0.590646 -0.166071 0.097334
-1.592073 -0.042275 0.168870
-0.335906 -0.082186 0.068349
-0.618993 0.448869 0.182262
-0.208024 -0.484280 -0.001185
-0.575456 -0.949338 0.231701
-0.083899 -0.091754 0.093600
0.255877 -1.287933 0.007589
-0.402750 0.266951 0.121083
-0.091264 -0.425233 0.036926
-1.423730 -0.504587 0.008098
0.281434 0.103175 0.091901
-1.464195 1.241486 0.034170
1.447152 -0.092725 0.005843
0.073078 1.466510 0.044452
1.042107 0.316033 0.229692
-0.958409 -0.014399 -0.046066
-0.780185 -1.554381 0.292187
0.609773 -0.179159 0.109721
-0.784601 -0.358163 0.059664
1.049277 1.116249 -0.021816
1.565884 -0.337931 0.097263
-1.220818 1.351532 0.192148
-0.761109 1.119924 0.079602
-0.262044 -0.038000 0.043365
-0.411659 -0.587649 0.136020
0.617340 -0.286749 0.107579
-0.223429 -1.747403 0.022971
-0.637716 -1.031466 0.215230
0.000530 -0.061877 0.072587
-0.028954 1.629149 0.208259
0.416562 -0.982259 0.208440
0.153054 0.145860 0.142455
-0.921637 -0.203394 0.110345
1.183466 1.564840 0.233505
0.170642 0.323220 0.027533
0.680380 0.389734 0.186577
0.005423 1.126591 0.158698
-1.794912 0.084008 0.071770
0.201474 -1.036464 0.118172
-0.105223 0.073783 0.104896
0.059301 0.023921 0.225459
-0.562806 -0.067114 0.071526
1.431251 -0.512282 0.145106
0.223279 0.037607 0.070575
0.521172 1.903539 0.136575
-0.572962 0.808012 0.014740
-0.125230 -0.130596 0.046724
-1.527019 0.105123 -0.009477
0.269209 0.359387 0.096972
0.009849 -0.161877 -0.018465
-0.708920 -0.713204 0.013215
1.433354 0.178240 0.143182
0.059381 0.065039 0.071124
0.433598 1.107515 -0.013846
0.059023 0.177163 0.061976
-1.657538 1.026208 0.124352
-0.973237 1.005017 0.105484
-0.090782 -0.983239 0.026869
1.683867 0.586125 0.204998
-0.951780 0.478126 0.124579
-0.473955 0.351563 0.027828
-0.731680 0.706992 -0.183942
-0.054263 -1.013766 0.080722
-0.693730 0.076202 0.281208
0.531145 -1.182807 0.155676
-0.074848 -0.061869 0.001041
-1.260797 0.427243 0.154237
0.246898 0.847297 0.141276
-0.081924 -0.099782 0.040649
-0.212814 -0.804645 0.098579
-0.151692 -0.112341 0.069809
1.266638 -1.222036 0.100456
1.244674 1.261335 0.099744
-0.075519 -1.654447 0.002062
0.123908 -1.142600 -0.021833
-1.437248 -1.516724 0.030513
-0.049334 0.013093 0.102675
0.690259 0.112863 0.007184
0.496485 0.217391 0.117125
-0.114722 1.405439 0.116463
1.311830 -0.809646 0.066651
0.571627 -0.365938 0.079973
0.005690 0.021506 0.105089
0.303778 0.598160 0.145265
0.383957 -1.745499 0.050220
0.283242 -1.611893 0.130440
-1.436587 -0.624497 0.059350
-0.058531 -0.145681 0.119476
0.057167 -0.089757 0.221512
-0.306668 0.104702 0.147814
-0.878003 -0.724919 0.019199
-0.199884 -0.319859 0.078904
0.247436 0.117854 0.145577
-0.320650 -0.193302 0.205530
-0.394335 1.773705 0.013104
0.051148 -0.708077 -0.058368
-1.055891 -0.536077 0.131564
0.683633 0.744546 0.226131
1.700866 0.897008 -0.030685
0.605662 -0.949012 0.030097
0.315824 -1.960327 0.122479
-0.107241 -1.233524 0.083297
-0.582485 0.657296 -0.054042
-0.053006 -0.717434 0.085568
0.960591 0.238726 0.036072
-1.299459 1.180179 0.059431
-0.719090 -0.735620 0.071521
-0.262328 0.670907 -0.001008
-0.311852 -1.131769 0.073506
0.473728 -0.317631 0.146031
1.045865 -1.638096 0.241735
0.176560 -0.531800 0.096069
-0.243757 0.466822 0.129716
-1.131096 -0.119518 0.102689
-0.694914 1.743071 0.109596
-0.053259 0.040015 0.246948
-0.228428 1.866810 0.238865
-1.173965 -0.914642 0.083492
-1.315307 -1.466758 0.088334
1.174317 0.137593 0.053799
0.292695 0.319893 0.188102
0.141147 -1.479352 0.099919
1.843352 -0.314799 0.118261
0.210650 0.554479 0.078225
-0.142952 1.405694 0.204645
0.262602 1.446975 0.003474
0.650679 -1.740895 0.189646
0.729045 -0.380014 0.179501
-0.809449 1.676877 0.106803
-1.088931 -0.580271 -0.029599
-1.432209 -0.139251 0.129818
-0.281909 -0.263493 0.068029
-0.864376 -0.392163 0.005079
0.338872 0.509866 0.260171
-0.124878 1.795114 0.042765
-0.347661 -0.260440 0.064164
0.879614 0.929647 0.103933
0.188065 -0.577396 0.160415
-0.195521 0.286292 0.050055
0.992184 -1.111255 0.065458
0.243387 -0.109145 0.198496
0.276290 1.201918 -0.016143
0.568440 0.197795 0.139758
-0.107767 -0.391501 0.154888
0.806552 -1.495792 0.087967
0.247833 -0.592424 0.044309
-0.451241 -1.819105 0.150362
-0.190033 0.821007 0.128196
-0.864870 -0.030283 0.164779
-0.183925 0.148667 0.005919
0.031989 -0.037075 0.074555
1.312442 0.165451 0.212051
0.087345 -1.403160 0.074636
0.695772 -0.222529 0.126817
-1.351579 0.319211 0.160944
-1.450406 -0.248974 0.009819
-0.535524 -0.011532 0.049403
0.539443 0.010185 0.115449
-1.855023 0.201453 0.043914
-0.965438 0.863731 0.090867
-0.999792 -1.154689 0.089609
0.073068 0.149892 0.149664
-0.434703 1.367615 0.110240
-0.741973 1.578355 0.145837
1.511671 -0.500986 0.168915
0.506399 0.383406 0.195438
0.940485 -0.556024 0.098112
-1.294815 -0.651556 0.147896
-1.030323 0.509970 0.232422
-0.221765 0.545852 0.189401
-0.378409 0.191939 0.156662
0.539391 0.610763 -0.059208
-0.178869 0.338719 0.234982
-0.411049 1.036443 0.188146
-0.160054 -0.918792 0.242332
-0.298379 0.819668 0.164844
0.170185 -0.201657 0.092133
-1.085636 -1.073049 0.057639
-1.828813 -0.319419 0.032333
0.033032 -0.124092 0.089921
2.699047 -2.583617 0.996640
-2.255434 -0.527073 0.794704
1.827810 1.541269 0.052962
0.873790 0.701534 3.420355
-1.633109 1.651336 3.079625
-2.272871 0.076802 2.710958
-1.597754 -1.686279 2.574919
2.216117 2.397060 2.642692
-1.492337 -0.459787 -0.577040
-2.903234 -0.117402 2.241500
-0.158672 2.568507 -0.891914
0.227006 -1.226850 0.634490
2.482661 -0.515258 -0.068935
-0.185623 -0.164368 2.211468
-1.427586 0.889669 -0.835831
1.813042 1.338148 0.256332
2.589659 0.493725 0.867396
-0.894618 0.081465 2.847877
0.760820 -0.344012 1.268676
0.519214 1.771198 -0.292967
2.322326 -0.906457 -0.211115
0.758404 2.845972 -0.070580
-1.406149 0.719446 -0.100661
1.597479 0.874978 0.778851
-2.666837 1.209962 1.127884
1.847674 -0.200109 0.461684
1.999302 -0.009180 0.489155
-0.601446 -2.842797 2.560347
0.874918 -1.787303 1.060132
2.765624 -0.482564 3.282986
-3.151768 0.446907 -0.486350
1.275938 -1.827577 2.234032
-0.430785 3.107067 -0.899520
2.376953 -2.001668 3.608050
2.292255 -1.187993 2.129876
-1.972070 -2.691996 3.627950
1.807495 -1.591086 1.946498
-1.436889 -0.767058 0.909426
-1.892401 2.608658 0.250287
-3.012279 2.941370 -0.774725
-1.697329 2.621592 0.110083
2.890994 -2.789579 3.701947
0.966323 1.202557 1.878273
-1.929672 3.074533 1.242191
2.418434 0.747166 2.495707
-0.571544 1.672071 1.015067
0.682212 3.168660 -0.653949
1.446066 -1.004568 -0.040616
-2.712292 -1.431398 2.194022
-1.210834 -1.570142 0.227029
3.162559 0.864571 3.796658
-0.901008 0.846690 2.037805
2.832608 0.737227 0.691962
-1.135629 -2.885796 1.836810
-0.329190 -2.487526 0.983700
-1.241442 2.072432 2.564278
-0.999731 2.352259 -0.241427
-2.102106 0.069842 -0.103907
-0.962444 3.129632 3.007071
-1.660381 2.413230 3.778511
-0.200141 -1.685755 3.834451
-2.767918 -0.336530 0.068967
-0.472967 -3.059946 0.004118
-1.311318 0.014314 2.066034
1.136768 1.822180 3.864778
3.166557 -1.434430 -0.029990
2.658098 0.043341 0.732554
-2.792884 0.954440 1.921754
-0.297496 1.626575 0.871875
1.144029 -2.009801 2.802458
1.611173 -2.283277 -0.493043
-2.392385 0.684022 0.435117
2.138539 -0.633757 1.154307
0.899272 1.956337 0.571806
-2.240622 1.734078 1.761356
-3.119548 -2.384166 1.590430
1.231722 -0.694961 1.240854
0.820042 -1.862132 0.158284
-1.106120 -2.295569 2.192415
-0.160146 0.098615 1.208367
-0.993031 0.623345 1.020251
0.088128 0.566172 2.188606
2.765323 2.780531 1.373064
-0.239108 -2.448227 1.467821
-3.053313 -0.187695 -0.740100
-1.210772 1.622424 3.120566
-1.932204 2.518327 -0.442595
-1.134952 -1.625206 1.442075
1.135104 0.987439 2.495715
-0.656371 0.719294 2.400938
-0.955477 1.069679 2.642280
-0.435827 2.964630 0.477584
-2.630462 3.158127 2.767350
1.310958 -0.489929 -0.515371
0.807610 2.755653 -0.131503
-0.162683 -2.683424 3.558196
0.085965 2.536916 0.781695
0.644666 -0.014954 1.431922
1.522811 0.434744 1.655326
1.650700 -0.030832 -0.324436
