ply
format ascii 1.0
element vertex 1050
property float x
property float y
property float z
end_header
-1.635689 1.917528 1.920313
-1.350989 1.374534 -2.048511
1.950963 1.644428 1.733490
1.925193 -1.830899 1.858408
1.838014 -0.962369 1.979925
1.314297 1.742026 -2.003648
1.858082 1.810993 1.871623
-1.869942 1.623378 -1.952802
-1.658315 2.033144 1.807422
-1.964572 -1.457317 -2.078234
-1.477631 -1.455437 -2.061627
2.007034 1.752790 1.873297
-1.496416 -1.711547 -1.979450
1.693952 1.857517 -2.011325
-1.614318 -1.573791 1.873626
1.561046 1.937593 2.024798
-1.973544 1.837357 -1.523656
2.019331 2.051510 1.682786
1.850753 -1.823184 1.983438
1.133739 -1.494319 -2.027693
-1.979733 1.889155 -1.823082
1.887423 -1.899088 1.167068
-0.983932 1.381765 1.968119
-1.453865 -1.925002 1.962259
1.894253 -1.818967 1.961124
1.401952 1.611389 -2.035670
1.943076 -1.672766 1.973628
-2.033196 1.606024 -1.722303
1.440487 -1.778637 -1.959132
1.773634 1.944147 -1.892752
-1.980744 1.142092 1.700006
1.781719 -1.846789 1.960584
1.674231 -1.650966 1.951244
-1.933767 1.831557 -1.937365
1.705654 1.967247 -1.999576
1.485807 1.591176 -1.951430
1.749267 1.857750 1.995794
2.054931 1.792720 1.671423
-1.912457 -1.795267 -1.908766
2.017162 1.628521 1.540962
1.600145 -1.683437 2.027615
-1.836800 -1.803406 1.946665
1.942074 -1.808097 1.749512
1.686098 -1.943772 1.822136
-1.849726 1.979057 1.519642
-1.728625 1.591416 2.013287
-1.871765 1.785999 1.895056
-1.684123 1.757664 2.018486
-2.008455 1.913111 1.768291
1.870599 -1.968453 -1.924688
-1.779335 1.870605 1.969771
-1.500393 -1.835857 -1.988915
-1.850556 1.651735 -1.932413
1.862377 -1.759214 1.925270
-1.886651 -1.709186 -1.930576
1.953973 -1.770724 1.499649
-1.742564 -2.040313 -1.658432
-1.902294 1.853505 -1.981497
-1.807526 -1.499660 -1.886526
-2.023696 -1.670570 -1.868613
-1.525669 2.054758 -1.821164
-1.749962 1.932787 -1.850351
1.352906 1.761425 2.038633
1.782102 -1.807957 -1.971052
1.384180 1.642703 -1.951423
-1.700372 -1.903839 -1.990695
-1.502275 1.686456 -1.957686
1.870049 -1.712730 2.049081
-1.738929 -1.749705 -1.883951
-1.107365 1.076999 -1.966482
1.900737 -1.766759 -1.952299
1.778184 -2.028067 1.911181
1.910962 1.642832 1.365868
1.869696 -1.457599 1.874045
1.596576 1.785501 -2.096001
-1.844504 2.048100 1.782377
1.992088 1.897990 1.819122
-1.873404 -1.901202 1.879548
1.239634 -1.128498 2.031519
1.837602 -1.554575 2.016640
-1.813448 -1.941460 -1.748464
-1.941183 -1.562824 1.717949
-1.607169 -1.697335 1.997991
-1.435251 -1.876363 1.936430
-1.866312 1.755597 -2.055818
-1.410498 1.987938 1.814468
1.737290 -1.631423 1.980204
1.974856 1.951007 -1.991930
-2.007723 -1.918955 -1.259839
-1.334967 -1.282274 1.931556
-1.952156 -1.741428 -1.991809
1.866979 -1.939889 1.622937
-1.501615 1.699899 1.990271
1.976733 -1.828517 -2.022948
-1.619715 1.515180 -1.981636
-2.028112 1.821614 -1.788145
2.007169 1.734085 1.826999
-1.808591 -1.872285 -1.780791
1.841204 1.757923 1.855028
-1.900122 -1.707706 -1.830354
-1.766298 -1.836699 -2.032862
1.711804 -1.839365 1.961367
-1.778425 2.057778 1.881912
-1.786991 -2.004295 1.797157
-1.665312 1.906271 -1.900516
1.951278 -1.945582 1.512014
1.326258 -1.899855 -2.049275
-1.839681 -1.988088 1.760949
-1.899139 -1.863933 1.861170
1.923216 -1.953712 1.506342
-1.908197 1.885136 1.850929
1.885423 1.983225 -1.850023
-1.983990 1.543491 1.850523
1.580076 1.642572 1.976901
1.636373 1.901004 1.967283
-1.479584 -1.301369 -1.950465
-1.243352 0.902536 1.984055
1.198120 0.981408 1.981395
1.676904 1.906537 -1.918867
1.643784 1.695113 2.081320
1.882438 -1.723508 -1.953024
-2.026925 -1.461837 1.915957
1.551127 -1.950723 1.822622
-1.892671 -1.803867 1.959498
-1.276400 1.978510 -1.932927
1.625046 1.915290 -2.006937
-1.993457 -1.813658 1.587250
-1.879236 -1.907483 -1.813929
-1.690060 -1.954189 -1.941166
1.823600 -1.722262 -2.030184
-1.993888 1.924627 1.474969
-1.791984 -1.830471 -1.941525
1.973979 1.802670 -1.732403
1.775945 1.813903 -1.990541
-1.744231 -2.009483 1.702081
1.816483 2.078807 1.832846
1.967131 1.877203 1.583486
1.589473 -1.548560 -2.040459
-1.759494 -1.782450 -1.955992
-1.381747 -1.717294 1.916418
-1.908989 1.771291 -1.962410
1.889361 1.752798 -1.927812
-1.853637 -1.999713 -1.761113
1.761146 -1.927126 1.892628
-1.668921 -1.842732 -1.890166
1.769158 -2.000066 -1.865130
-1.849376 1.698225 -1.939971
1.533416 1.681450 -2.034259
1.403633 1.756124 1.971795
-1.886494 1.864946 1.614781
-1.761943 -1.979889 1.914090
1.910610 -1.853462 -1.831024
2.026179 1.968452 -1.624938
-1.647943 -1.851793 1.981202
-1.689203 -1.939723 -1.897287
-1.975684 -1.931510 -1.793972
1.713363 -1.603283 -2.005567
-1.880727 1.666842 1.880019
1.778308 -1.494302 -2.021809
1.880638 1.780146 -1.970148
-1.868257 1.222362 -1.964098
1.956596 1.856538 -1.771672
-1.837825 -1.646555 1.958665
-1.789280 1.925628 -1.948952
-1.920341 -1.844536 -1.992696
-1.962324 1.904292 -1.781331
-1.940812 1.837513 1.879968
-1.838946 -1.779740 1.968856
-1.537757 -1.716549 -2.068587
1.272880 -1.596807 -1.995149
-1.541672 1.457693 2.016690
-1.626127 -1.690774 1.990506
1.833396 1.984789 1.850311
1.754068 -1.985276 -1.753830
1.866820 -1.915932 1.826033
-1.607597 -1.847739 1.925409
-1.441212 -1.476323 2.027082
1.762458 1.137992 1.936170
-1.811728 1.679854 -1.962262
-1.401057 1.533611 -1.968039
-1.724055 -1.731479 1.985308
1.510079 -1.398885 1.992153
1.879823 -1.900274 -1.943588
-1.691215 1.135276 -1.981948
-1.518763 -1.650299 -2.078507
1.717220 -1.886615 -1.966899
1.852661 1.506849 1.984753
1.942805 2.000646 1.796241
-1.644326 1.538698 1.939846
-1.648808 -1.929722 -1.947815
1.638891 1.837340 2.048045
-1.715092 -2.066209 -1.797071
-2.094957 1.660435 1.738021
1.379824 2.026234 1.840295
2.017635 1.778363 1.929283
1.674879 1.931544 -1.868078
1.749046 1.836667 -1.978368
-1.406751 -1.693430 2.043170
1.897305 1.955021 1.317869
1.924766 1.912542 -1.726591
1.991327 1.814598 -1.822300
-1.693313 1.811185 1.806571
-1.485761 1.743575 -2.009449
-1.786955 1.953009 1.854271
-1.674216 -1.368821 -2.027147
1.734999 -1.748630 -1.928184
-1.844136 -1.973470 1.255799
1.631192 1.976669 -1.907034
1.912233 -1.785769 -1.932337
1.941084 -1.674913 -1.929251
-1.565093 1.387109 -2.006130
-1.809136 1.607178 -1.975346
-1.885343 1.926918 1.945336
1.826754 -1.597813 1.912485
-1.748632 -1.830539 1.972705
-1.868524 -1.876572 1.930542
-1.866453 1.068369 1.994466
1.799024 -1.870382 2.000049
1.990763 1.407651 -1.637638
-1.851590 1.877166 1.848985
-1.835246 -1.921037 -1.782105
-1.229358 -1.727939 -1.992922
1.548719 1.348617 -1.928109
1.706369 1.627982 -1.982762
1.631854 -1.804766 -1.962452
1.498503 1.635129 2.000846
1.673159 2.052670 1.898471
2.001655 -1.872196 1.887999
-1.902867 -1.968712 1.724837
1.943399 -2.004912 1.807550
-1.899955 -1.973187 -1.293238
-1.432324 -2.028207 -1.910658
1.931483 1.853312 -1.683095
-1.943298 1.773092 1.643361
1.612351 -1.630721 2.048300
1.689548 1.780340 -2.016438
1.970107 -1.541612 -1.782466
1.892804 -1.577378 -1.983953
1.919657 1.802123 1.757333
-1.634745 -1.943298 1.814823
1.929098 -1.669003 -1.883158
1.844528 -1.565444 2.006857
1.853220 -1.755992 1.876205
-1.380732 -1.534947 -1.967388
-1.705253 -1.877943 1.963310
1.978916 1.678135 -1.883985
1.940147 -1.503014 1.898885
1.785989 1.760392 -1.925279
1.896044 -1.910109 -1.865876
-1.561970 1.883886 -2.015190
-1.902887 -1.755513 -1.875472
1.807780 1.762638 -1.912386
1.494707 1.626444 -1.966669
-1.504521 -1.573570 -2.016976
-1.949778 1.619689 -1.804364
1.461451 1.575908 1.977596
-1.976559 -1.531220 -1.702276
1.649816 1.838500 2.013280
-1.701946 -1.587160 -2.030509
-1.801977 -2.028530 1.446201
1.610798 -1.720673 -2.054660
-1.623085 1.571848 1.989738
-1.844521 -1.888849 -1.901753
-2.000172 1.908337 1.745434
1.574036 -1.081707 2.033840
1.402789 -1.818625 -2.071786
-1.892400 1.890534 -1.822359
-1.924051 -1.844429 1.293176
-1.694016 1.954916 1.907070
1.525674 1.811906 1.901823
-1.646383 -1.885951 -1.945098
-1.820154 2.040930 -1.414607
-1.894173 -1.801547 -1.902070
1.666687 1.681249 -1.935915
-1.957765 -1.720480 -1.804529
-1.659842 1.588164 -2.007884
-1.666438 1.880082 -1.786418
-1.737142 -1.744625 -1.990650
1.958817 -1.869350 1.858013
-1.324697 2.004803 -1.688491
1.651540 -1.961902 1.891863
1.954551 -1.570560 -1.999983
-1.420706 -1.849949 1.976661
1.919279 1.939739 -1.528793
-1.531505 -1.973116 1.944284
1.859609 -1.664911 -1.393519
-1.509134 1.987993 1.718685
1.554689 1.282206 2.009133
-1.931876 1.811751 -2.023584
1.808609 -1.650920 -1.959616
1.899543 -1.920579 1.784740
-1.380913 1.665385 -2.092420
1.864408 1.907299 -1.863615
-1.695886 1.807241 -2.016163
1.635522 1.944345 1.828235
-1.902320 1.770511 1.652749
-1.805630 -1.678896 2.021907
1.725363 1.731801 1.948687
-1.804132 -1.975952 -1.857491
-1.782933 1.905508 1.943913
1.902230 -1.913243 1.352508
-1.988703 1.879972 1.803775
1.846063 -1.809553 -1.928102
-2.030355 1.896408 -1.489100
-1.994040 -1.767792 -1.786310
1.725393 -1.830707 -2.001428
-1.926361 -1.780709 1.880791
2.023982 -1.712565 -1.418080
-1.658870 -1.371234 -2.078172
1.752646 1.417334 -1.968879
1.105548 0.997517 1.978810
-1.769690 1.947578 1.956286
-1.988183 -1.667618 1.383554
1.657940 1.573391 1.964889
-1.886624 1.934079 1.568138
-1.791492 1.645886 -2.029167
-1.777748 1.969958 -1.811528
-1.719035 -1.956579 1.914238
1.589857 -1.495282 1.962593
-1.969416 -1.756831 1.738053
1.602948 -2.050769 1.841380
1.727936 1.656811 1.930318
1.731350 1.941401 -1.541888
-1.956322 -1.906871 1.858158
-1.764714 1.752035 -2.060243
2.019361 -1.754192 1.616180
1.306561 -1.422161 2.138167
-1.740550 1.799605 -2.007225
1.724633 -1.930674 -1.956043
1.828186 -1.291363 2.011582
1.816341 1.913862 1.783203
-1.947394 -1.282439 -1.817003
1.930099 1.818373 1.854962
1.565178 -2.001845 1.551428
1.806110 2.062172 1.992855
-1.996940 1.723814 1.878843
-1.850214 -1.326927 -1.902135
-1.725765 1.766038 -1.983889
-1.655499 1.759872 -2.010687
-1.838168 2.042139 -1.621759
1.680385 1.888981 1.968789
1.939693 -1.898999 -1.721260
1.987222 1.866706 -1.931586
1.750626 1.797683 -1.897445
-1.722069 1.974638 -1.937732
-1.836758 -1.855487 -1.986748
1.255710 1.761544 -1.977360
1.318131 1.088486 -1.941828
-1.921384 1.527435 2.113292
-1.405922 1.803545 -2.035817
-1.625018 -1.565438 -1.955772
1.867361 -1.893961 -1.927440
-2.043462 1.789932 1.783126
1.816811 1.980541 1.838582
-1.732942 -1.790834 1.978656
-1.890769 1.813143 1.918259
-1.359606 -1.621299 2.059428
-1.870467 -1.407777 1.857826
-1.818868 -1.920844 -1.540885
-1.904369 -1.453157 1.432373
-1.833675 -1.822235 -1.974339
1.788937 -1.890254 -1.899527
-1.685344 -1.783567 2.015245
1.927520 1.621703 1.909629
-1.566635 1.656659 1.917544
1.865932 1.970676 1.625741
1.770510 1.399154 2.019705
1.943556 -1.805434 -1.671763
-1.761714 1.951074 1.772200
1.783608 1.916092 -1.997182
-1.806819 1.734458 -1.980619
-1.904288 -1.624848 2.002919
1.944240 1.998879 -1.726888
-1.443514 -1.688266 -1.980563
-1.720672 -1.560835 -1.962057
1.777140 -1.927843 -1.760065
1.760610 1.942898 -1.669191
-1.880613 -1.862475 1.893576
-1.798758 -1.923057 1.944795
-1.717166 1.287227 -2.066092
-1.889408 -2.014347 -1.622698
-1.643801 1.795800 -1.930528
-1.858474 1.588251 -1.967650
1.534428 -2.026895 -1.815508
1.949192 1.939463 1.564047
-1.835130 -1.836747 1.884596
2.053521 1.416777 -1.618876
-1.758492 1.882732 -1.943634
-1.967078 1.826463 -1.878599
1.733324 -1.905559 1.863476
1.863201 1.539302 -1.972538
-1.547131 -1.756825 1.975133
-1.752511 -1.887329 1.892502
-1.513734 1.152603 1.985592
-1.563123 1.591295 2.084936
1.657496 1.894839 -1.543716
-1.846646 -1.870178 -2.013867
1.813841 -1.502791 -2.020659
-1.391488 -2.031461 -1.618050
1.945921 1.635705 -1.757411
-1.729523 -1.670765 1.938732
-1.844291 -1.857326 1.898702
1.836667 -1.971485 -1.796832
1.807190 -1.770171 1.987767
1.917715 -1.887987 -1.602498
-1.910072 1.844609 -1.931640
-1.891699 -1.975368 1.875167
1.987901 -2.070312 -1.865395
1.722708 -1.630234 1.897672
-1.942629 1.884148 -1.764298
-1.538079 -1.823967 1.952748
1.743155 -1.980833 -1.881195
-1.681357 -1.406593 2.024800
2.018164 1.650081 1.596173
1.845320 1.749784 1.957354
-1.843209 -1.808643 1.940456
-1.836200 2.046996 -1.576856
-1.868487 -1.881138 1.832703
-1.922776 -1.718848 1.896667
-1.534110 1.753274 -1.914256
1.814049 1.975005 -1.876262
1.916595 1.911623 1.726308
1.733278 1.673163 1.935345
1.755035 -1.493172 1.951970
-1.757573 2.000996 -1.822563
1.732946 -1.931450 1.852747
1.949331 -1.729924 -1.845498
-1.879627 1.768539 -1.913072
-0.937519 1.050421 1.975005
1.983285 1.860409 -1.729045
-1.628267 -1.980825 -1.749998
1.460590 1.927578 2.055637
-1.726744 -1.947323 1.731424
-1.232356 -1.182784 1.996799
1.329840 -1.890728 -1.886874
1.410510 -1.946944 -1.944767
1.881586 -1.554902 1.910957
-1.412661 -1.320577 1.991828
-1.981190 -1.501590 1.751458
-1.984709 -1.685711 1.758185
1.914785 1.349126 -1.951878
-1.731845 -1.906361 1.903728
-1.666244 -2.030976 1.787057
1.957043 -1.786156 -1.829646
-1.488210 1.606365 1.939254
1.617442 -1.597744 2.030975
1.867181 1.635942 1.971291
-1.879039 -1.995924 -1.846545
-1.956427 1.948217 1.530298
1.845102 -1.657013 -1.988800
1.936131 -1.793061 1.978026
-1.490166 1.453081 -1.982869
-1.909316 -1.631160 -1.443803
-1.826391 -1.523347 1.977161
-1.922602 2.007594 1.923129
-1.830532 -1.878354 -1.923605
1.709544 1.868045 1.955910
-1.996312 1.570335 1.793210
-1.129670 2.029535 1.588939
-1.704588 1.776247 1.968547
1.697751 1.992648 -1.827684
1.797039 -1.713007 1.996986
1.978895 1.865228 -1.432512
-1.941292 -1.682184 1.865871
-1.859226 -1.908887 -1.854584
1.253320 -1.945085 -1.713853
1.967207 1.923114 1.612377
1.780096 1.730078 -2.021047
1.788485 -1.791839 -1.967535
-1.748148 -1.819451 -2.083252
1.923597 1.969203 -1.460589
-1.984351 1.766154 -1.858687
1.763546 2.005820 -1.786371
1.933055 1.778006 -1.852186
1.757653 1.930118 1.838290
-1.889282 1.718121 -2.002304
-1.933549 1.971635 1.827761
-1.553911 1.831370 2.020298
-1.972339 -1.930254 1.148593
1.606920 1.419538 -1.929910
-1.924614 -1.785457 1.818786
1.818379 -2.048754 -1.361678
1.911968 1.865158 -1.928541
1.332215 1.691312 -2.099679
1.436978 -1.703847 -1.927929
1.777117 -1.585517 -2.013006
1.931075 -1.857489 -1.641074
1.895442 -1.778545 1.996895
1.769323 1.537072 1.973787
-1.771164 2.040682 -1.548338
-1.933086 1.368931 1.909540
-1.909069 -1.721185 -1.682377
2.059857 -1.581579 -1.850530
-1.756921 -1.657475 -2.014573
1.620786 -1.488055 2.022104
-1.459692 1.757774 -1.965270
-1.869154 1.957638 1.916836
-1.995498 1.922310 -1.407990
1.255606 1.637036 -2.007259
1.755024 -1.870818 1.834214
1.908410 -1.889653 1.849946
-1.916203 1.852144 -1.689331
-1.872407 -1.861665 1.757669
-1.998318 1.437107 1.947014
1.814906 1.966579 1.555922
-1.546066 -1.828954 1.943826
-1.596442 -1.947101 -1.898285
-1.977842 -1.781275 -1.978176
-1.482495 -1.518883 -1.887913
-1.622773 -1.418819 -1.884134
-1.738765 1.963229 1.722467
-1.580299 1.742444 1.871575
1.948601 -1.519404 2.029677
-1.573168 -1.460281 -2.023980
1.550442 -1.923743 1.989743
1.778779 1.951379 -1.758784
1.900954 1.935299 -1.937677
1.807012 -1.875005 1.981139
-1.972905 1.835314 1.771763
-1.730064 -1.857310 2.005818
1.818088 1.863793 -1.896129
1.972301 -1.616820 -1.859940
1.882763 -1.882264 -1.528966
-1.747634 -1.768593 -2.040468
-1.460961 2.033784 -1.529157
1.731879 -1.855314 1.811728
-1.655506 1.814126 -1.922726
-1.810135 1.633786 -2.030471
-1.875339 1.972754 -1.751647
1.968410 -1.425672 1.845660
-1.909619 1.892317 1.811356
1.926191 1.953175 -1.629209
1.944420 -1.772560 -1.974104
-1.393366 -1.435187 -1.983089
1.821129 1.931643 1.869390
1.224490 1.225547 -2.016095
1.549539 -1.691432 1.931379
-1.765402 1.752742 -2.046498
-1.860583 -1.937017 -1.752262
1.729709 1.554696 -2.035086
1.831092 -1.410834 -1.792633
1.815749 -1.928993 1.981149
2.032055 1.431364 -1.698089
1.881061 1.975499 1.811744
1.791121 1.627178 1.988480
-1.587395 -1.622116 -1.980329
-1.257414 -1.645111 1.968823
1.752050 1.587555 1.979344
-1.671275 -1.794567 1.909198
-1.977305 -1.744533 -1.786750
-1.901472 -2.004718 1.613333
1.631708 2.065653 -1.863134
1.958373 1.713267 1.796323
-1.670831 1.972239 -1.794450
1.992219 -1.978291 1.482706
1.871481 -1.922640 1.580655
-1.821295 1.676387 1.990181
1.578232 -1.610770 -2.079139
-1.886885 -1.913477 1.392287
-1.863593 1.887914 1.967884
-2.016797 -1.854115 -1.794202
1.087466 1.772093 -1.995477
-1.399187 -1.530771 2.007305
1.693185 -1.882556 -2.086198
-1.872341 -1.859634 -1.780485
-1.662288 1.934868 -1.886252
-2.004573 1.812491 -1.782116
-1.611409 -1.915473 -1.925930
1.251091 -1.564437 -1.951277
1.880196 -1.499662 -1.862969
1.387453 1.635253 1.924651
-1.757486 -1.853396 1.942222
-1.504044 1.612619 2.074931
1.457688 1.811247 1.851159
1.841378 -1.978085 1.596716
1.713069 1.979886 -1.764750
1.848273 -1.988505 -1.676576
1.689449 1.675576 -1.925506
-1.385891 -1.962091 2.038122
1.880299 1.911269 -1.935215
1.803015 -1.621371 -1.832716
1.985910 -1.908974 1.468067
-1.350352 -1.864933 -1.866613
-1.966585 -1.859652 -1.666018
-1.778800 -1.641849 -2.059141
1.808885 -1.817341 -1.951305
-1.837312 1.854295 -1.929528
1.922500 1.882585 -1.625969
1.671389 -1.431607 -1.968433
1.736041 -1.869727 1.894676
1.814831 -1.799536 1.937609
-1.900281 1.890845 1.795772
2.026351 -1.757891 1.832111
1.844957 -1.932067 -1.828365
1.922798 1.803641 1.584407
1.263360 1.725739 2.034096
1.844669 1.831718 -1.884222
-1.113623 -1.511940 2.066183
1.755857 1.970509 1.920489
-1.915491 -1.936128 -1.474990
1.411966 1.544315 -2.016170
-1.870694 1.819513 -1.906756
-2.012561 -1.494790 1.687558
-1.775046 -1.966449 -1.600700
-1.680412 1.929562 1.877232
1.789975 -1.796185 1.931594
1.996867 1.527432 -1.888135
1.278393 -1.426025 2.003643
-2.029300 -1.748973 1.591660
-2.028972 1.537221 -1.383883
-1.946575 1.910554 1.526194
-1.508819 -1.981890 -1.826905
1.843948 1.764383 1.955805
1.870095 -1.704739 -1.957227
-1.979792 1.612738 1.293938
1.858815 1.776851 -1.948572
1.812535 -1.935307 1.949525
1.916315 -1.868665 -1.656325
-1.718316 -1.301409 -1.949941
-1.930401 1.900783 -1.842909
1.716328 1.894735 -1.658724
-1.555952 2.005525 1.518217
-1.779272 1.883835 -1.905199
-1.788398 1.950176 1.311025
1.849642 1.823311 1.918711
-1.977600 1.986724 -1.521341
-1.835171 -1.730416 -1.997783
-1.943252 1.617035 -1.835536
1.721984 -1.991471 -1.891785
1.738872 1.867128 -1.887383
1.818957 1.771668 2.036213
-1.983762 1.381791 1.675627
-1.674247 1.596278 -2.031636
-1.187271 1.223799 -2.055002
-1.787640 -1.908573 -1.990493
-1.848787 -1.939761 -1.928411
1.949831 1.939696 -1.734184
1.733859 1.916554 1.856563
1.473483 1.574306 -2.066584
-1.519652 1.904837 2.034617
-1.796765 -1.812698 -1.966308
-1.581796 2.012217 1.886901
1.803691 -1.747985 -2.008193
-1.911231 1.932121 1.696879
-1.543874 1.523734 1.977486
1.827411 1.938956 1.836063
-1.892068 -1.841628 1.484645
1.814985 1.572729 1.931845
-1.316870 -1.107100 -2.091305
1.978062 1.895721 1.474708
-1.854221 2.000496 1.514560
1.813114 -1.792698 1.868546
-1.567750 -1.685407 2.050808
-1.497878 1.794945 2.005130
-1.672321 -1.740478 -2.051108
-1.507266 1.563449 1.996401
1.488987 -2.015981 1.584733
-1.791216 1.988095 1.877088
1.723845 1.923315 -1.908522
-1.775766 2.006947 -1.793038
1.821946 1.824093 -1.831970
1.799006 1.964923 1.477493
-1.942888 -1.844492 -1.723199
1.680365 1.801292 -2.015406
-1.795872 -1.914108 1.801421
-1.426384 -1.606408 1.938749
-1.609997 -1.971318 1.891694
-1.826001 1.572360 1.979305
1.941887 -1.845412 -1.859352
2.010602 -1.815090 -1.740611
1.749546 -1.718090 -2.015994
-2.046253 1.677644 1.567264
1.815758 -1.871029 1.938796
-1.600813 -0.894412 1.977134
-1.898697 -1.532739 -1.967307
1.567907 1.456443 2.043865
1.798488 2.071051 -1.638092
-1.875177 -1.949586 -1.694712
1.760567 1.610638 1.986220
-1.899867 1.591389 -1.975640
1.878056 1.214372 -1.916079
-1.802105 1.915847 -1.846657
-1.511760 -1.286799 2.056403
1.580895 -1.970900 1.808263
-1.747005 -1.860146 -1.910409
-1.546038 -1.674142 -2.065163
1.890220 -1.822425 -2.011708
-1.914504 -1.804990 1.759644
-1.880876 -1.902867 1.884805
-1.485301 -1.906596 -1.979566
-1.875916 -1.722021 1.920536
-1.820334 1.963664 -1.620055
-1.692009 1.438876 -1.998117
-1.439926 1.720695 2.004505
-1.523704 -1.451005 2.035089
-1.858881 -1.510080 -2.040440
-1.860120 1.817332 1.989307
-1.701194 1.606361 1.970239
1.805598 1.816521 -1.990222
-1.765873 1.895112 1.965787
-1.785630 1.876689 -1.960958
-1.540102 1.536934 1.976405
1.623427 1.757025 1.956898
-1.156794 1.819601 -1.910944
2.014601 -1.612973 -1.788313
1.253066 1.177092 1.941638
1.971419 1.629562 -1.636839
1.920055 -1.652815 -1.918183
1.760436 1.786770 2.002197
1.723086 1.983651 -1.858962
-1.467670 -1.848016 2.064209
1.728344 1.917863 -1.954394
-1.394039 -1.686231 -2.000767
1.926314 1.841259 -1.898178
1.391068 1.382657 1.990391
-1.516854 -1.664554 1.921766
1.926873 1.908017 -1.677994
1.843537 1.741530 1.960791
-1.926896 1.802783 -1.958678
1.950539 1.859416 -1.865085
-1.237767 1.385319 1.954467
-1.875329 -1.956956 -1.846515
-1.849961 -2.105143 -1.879094
1.949036 1.369760 1.954919
1.885905 1.700220 -1.864031
1.713814 -2.018424 1.889484
1.905990 1.676836 1.810779
1.597587 -2.016254 1.705130
1.996599 -1.570225 -1.374086
1.773861 -1.815853 -1.970499
-1.382220 -1.950957 1.970762
-1.985462 -1.731460 -1.775646
-1.814938 1.857407 -1.971538
-1.730551 -1.924865 -1.897702
1.642958 1.900044 -1.342179
-1.980716 1.818116 1.847149
1.801490 1.912230 -1.953672
1.181864 -1.179210 -2.049049
-1.917420 -1.669342 -2.001580
1.809853 -1.850947 -1.905581
-1.644869 2.021700 -1.838615
-1.785871 -1.964850 -1.835214
-1.578951 1.968325 1.808402
1.727649 -2.056693 -1.830689
-1.881999 1.949855 -1.876299
1.818434 -1.985823 -1.598921
-1.730186 -1.808852 1.967776
-1.803527 1.945939 -1.784508
-1.564809 -1.375402 1.963200
1.683377 -1.566482 -1.990422
1.558130 1.696595 -2.004390
1.893480 1.732390 1.655357
-1.615261 -1.936339 -1.446176
-1.811384 1.747549 1.966214
1.489245 -1.921279 1.970544
-1.938034 -1.838075 -1.673245
-1.640933 2.017183 1.447047
1.271328 1.024198 -1.998471
1.858020 2.009457 1.514949
-1.939656 -1.792806 1.853720
2.091577 1.665265 1.537446
-1.786908 -1.847793 -1.981035
-1.553124 1.399810 1.981973
1.767294 1.941479 -1.777381
1.808912 -1.323982 2.034665
-1.906362 1.912805 -1.810606
-1.785412 -1.435042 1.858646
-1.992828 1.855664 1.681381
-1.953969 -1.801011 -1.831428
-1.892317 1.923757 -1.795221
-1.788528 1.658560 1.939684
1.712125 -1.439268 1.960410
-1.771792 -1.310758 2.003075
1.784813 1.571139 -2.046429
1.850895 -1.797599 1.904193
1.835180 -1.862431 1.917151
1.571672 -2.021372 -1.887776
-1.702489 1.922135 1.855088
-1.201445 -1.489008 -2.028161
-1.892532 -1.713842 -1.987159
1.565675 -1.777128 2.028749
1.850738 -1.926905 -1.936558
-1.735957 1.745432 2.038722
1.864353 2.024746 -1.843810
1.973191 -1.938949 -1.895475
-1.902092 -1.913218 -1.940368
-1.589257 1.883930 1.921633
-1.995248 -1.919306 -1.711025
2.000492 -2.022240 -1.718480
-1.913624 -1.887209 -1.649584
2.042519 -1.917169 1.754110
-1.581646 -1.845293 -1.917534
1.667037 2.013096 -1.932802
1.824278 -1.540322 -1.975907
1.686127 1.984847 -1.712251
1.695286 1.866314 -2.048936
-1.603565 1.988616 1.419734
-1.932285 -1.844540 1.738854
-1.722253 1.800260 -1.916040
-1.724544 1.643114 1.913288
-1.822751 1.814466 -1.900825
1.726555 -1.813983 1.905204
-1.930749 -1.786447 1.802226
-1.829636 1.984463 -1.560162
2.010722 -1.699940 -1.535771
1.787161 -1.952328 -1.774810
-1.976917 -1.853103 1.514503
-1.779286 -2.020968 -1.751781
1.784683 -1.993543 1.783357
1.847090 -1.701717 -2.023985
-1.998401 1.640054 -1.774297
1.769182 -1.987592 1.910480
1.690818 2.057420 1.822893
1.914616 1.797069 1.955534
-1.935975 -1.933956 1.645410
-1.827172 1.619149 -1.925584
1.771773 2.006276 1.897957
1.990052 1.764335 1.638484
1.789960 -1.793170 2.034965
-1.175316 -1.954747 1.926873
-1.903168 1.744441 -1.992270
-1.564602 1.830886 1.965743
1.948555 -1.895550 1.585918
1.944752 -1.729325 1.911246
-1.871501 1.952600 -1.693643
1.730744 -1.765065 -2.043264
1.819155 1.885715 1.637961
-2.020087 1.669423 1.905614
-2.011709 -1.596297 -1.848848
-1.597851 1.876338 1.962803
1.617412 -1.067934 2.041409
-1.839930 -1.811991 -1.990027
-1.862640 1.746752 -1.982279
1.791017 1.802680 -1.922308
1.826309 1.930036 -1.865656
2.029255 1.733410 1.799630
2.021186 1.953044 1.506693
1.306812 -1.856379 -2.003892
1.896224 1.999934 1.845748
1.811230 1.236174 2.024412
1.465559 -1.361365 -1.984417
-2.016407 1.914268 1.772601
1.837964 -1.620194 1.941334
1.539159 -1.530559 1.938273
-1.605898 1.888359 -2.023656
1.603390 2.041889 1.705472
-1.372199 1.820524 -2.032965
1.868794 -1.889113 1.869145
-2.105168 -1.842317 -1.652307
-1.915902 -1.727449 -1.229502
1.392367 -1.917410 -1.914612
1.573372 1.589744 -2.091549
1.922907 -1.835668 1.925060
1.754582 1.975078 -1.701309
1.070569 -1.369279 2.025039
-2.027264 -2.007042 -1.778148
-1.750980 1.841317 -2.035413
-1.830571 -1.910500 -1.797617
-1.651612 1.762839 -1.956594
-1.774098 2.039729 1.779558
1.975683 1.794395 1.913503
-1.814897 1.740145 -2.021837
-1.950004 1.431012 1.970201
1.866358 -1.824253 -1.995124
-1.661236 -1.763546 1.946910
-1.888382 -1.858714 -1.897672
1.430442 1.483615 2.014098
1.901558 1.758372 1.702918
1.716038 1.997027 1.694426
-2.008326 -1.846625 1.532262
-1.934068 1.640142 1.886647
-1.847836 -1.804000 -1.879603
1.869466 -1.371655 1.986290
-1.827427 -1.787171 -1.966626
-1.969487 1.722133 1.953753
-1.574675 1.481302 2.017595
-1.599782 -1.956828 -1.895306
-1.770946 -1.830920 -1.928480
2.054084 -1.576253 1.889206
-1.824349 1.989366 1.918695
1.961087 -1.886609 -1.809709
-1.566027 1.879655 -2.008839
-1.919914 -1.690911 -1.916140
1.917498 1.787061 1.661058
1.627375 -1.638133 -1.895454
2.090575 1.819218 -1.783130
1.957043 -1.650463 2.023057
1.013879 1.435238 -2.017449
-1.746027 -1.862634 1.981661
-1.588802 -1.616803 -2.026580
-1.822860 -1.725799 -1.928777
1.672384 -1.483859 -1.984975
-1.553284 -1.848473 2.030114
1.658767 -1.838824 -2.062894
1.477624 -1.885412 1.853294
1.828341 -1.994661 1.450859
1.898703 -1.936206 1.868597
-1.820709 -1.707594 -1.985015
-1.731237 -1.907954 1.870411
-1.554846 -1.726121 1.977898
1.518655 -1.609620 2.056060
1.663838 1.476860 -2.021296
1.720112 1.901166 -1.898465
1.916693 -1.922747 -1.456685
-1.793288 -1.879680 -1.967009
-1.711608 -1.951024 -1.830258
-1.612402 -1.983216 -1.834362
1.829219 -1.835993 -2.006259
-1.677925 1.458248 -2.015886
-1.835443 -1.845645 1.912634
-1.636672 1.616342 1.991585
1.849228 -1.886150 -1.886862
-1.385904 1.698592 -1.956705
1.772943 1.945714 -1.911619
-1.522427 -2.018284 1.930802
-1.462151 -1.736561 2.077050
1.541678 1.643084 2.074865
-1.696837 1.870302 1.939843
1.803818 -1.518618 1.935871
-1.889719 -1.885439 1.746015
1.870777 -1.959523 -1.879735
1.748201 -1.737651 1.916676
1.734616 -1.554668 -2.007147
-1.518284 -1.736978 -1.986374
1.780127 1.677478 1.996444
1.049379 1.247724 -1.925982
2.066171 1.826686 1.256190
1.376264 1.395538 1.997956
1.909083 -1.867223 -1.815634
1.616284 -2.060036 1.800285
1.728023 -1.968835 -1.841209
-1.982279 -1.907596 -1.699020
1.936879 -1.625577 -1.997597
1.751825 -1.478228 -1.997595
2.000462 1.716751 -1.506425
1.853665 1.651576 -1.956082
-1.960300 1.898318 -1.865249
1.820893 -1.559134 -2.061575
-1.298987 1.768075 1.881667
1.694774 1.797479 1.952179
2.005868 1.475643 -1.997775
1.801846 -2.057042 1.778902
-1.947408 1.870098 1.583134
-1.731086 1.560544 -1.963522
2.004057 1.772297 -1.484407
-1.596020 -1.992323 -1.622571
-1.938608 -1.859789 -1.794854
-1.893783 -1.648127 1.804092
-1.903035 -1.852700 1.767786
1.729743 1.822777 -1.840066
1.351153 1.803286 -1.954033
-1.885053 1.837860 -1.808451
-1.852983 -1.753196 2.024417
1.906347 1.292360 -1.930161
1.958267 1.579403 -1.818972
-1.480835 1.930626 1.877708
-2.014429 1.826526 1.777536
1.739081 1.903839 -2.040250
1.915222 1.752468 -1.901163
-1.702481 -2.037498 -1.696969
-1.539692 -1.582373 -1.978866
-1.433999 1.333095 -1.966019
1.732177 1.383646 -1.912343
-1.592341 -1.750944 1.976106
-1.736651 -1.768840 2.062302
-1.567907 1.581751 -1.963012
1.697699 -1.679695 1.988967
1.911012 -1.664112 2.042488
-1.732654 1.469255 -2.003608
-1.685151 1.796421 1.887031
-1.835016 1.628819 1.906775
-1.530897 -1.662162 -1.963980
1.413064 1.839604 2.020935
2.046015 -1.605532 1.708269
-1.990557 -1.664104 -1.905741
1.367090 2.063152 1.897025
-1.496373 -1.658628 2.111162
-1.876115 1.901628 1.873838
1.746664 1.904270 1.312272
-2.065372 -1.763318 1.643606
2.015933 1.884191 1.704856
-1.720545 2.034995 -1.728424
-1.882906 -1.959009 -1.788849
-1.673432 -2.009489 -1.847252
1.971809 1.879455 -1.715255
1.701874 -1.729920 -2.005591
-1.842317 2.028768 1.719736
-1.822002 -1.732189 2.045419
1.833788 -2.051178 1.606381
-1.587993 1.880114 -2.050935
1.771072 1.528023 1.917166
-1.920182 -1.836393 1.911768
1.857113 -1.833243 -1.523464
-1.823276 1.897935 1.656949
-1.806002 1.445554 1.972153
1.936642 -1.875254 1.829794
1.753589 1.960109 -1.872254
1.645158 -1.843934 -1.891703
-1.893477 -1.768290 -1.948489
1.932519 1.884426 -1.648848
-0.500456 3.982532 1.422394
2.479047 0.977633 -3.063990
4.874580 -4.942191 -3.099319
-2.515575 1.114007 0.763115
-4.144394 -4.405803 -3.722010
1.788902 -2.079997 4.458470
0.805537 0.765730 2.533217
3.753753 0.974172 -1.573555
3.267300 0.906403 1.843374
-1.439821 0.823991 0.066188
1.563105 1.397736 4.457282
0.635979 2.815114 -2.886884
-3.529434 1.867669 4.976791
-2.167707 0.109744 -0.683090
2.396389 -3.593063 0.327119
-1.440511 -2.781188 -1.137554
-2.711990 -2.446397 -1.620093
-1.786611 2.937685 4.575325
2.348984 -0.598093 0.982598
0.016041 2.790891 -4.116561
2.651920 4.398199 -2.501090
-2.918485 2.451185 4.531435
0.229911 4.058347 -3.822050
-1.709747 0.155910 -2.322693
-4.640145 -0.107789 4.851404
-2.996187 2.151779 -2.385202
-0.891320 4.467482 4.888498
0.256496 -2.089294 -3.637095
-0.715003 4.103425 -1.684756
-4.177719 3.483101 -3.616853
-3.919899 -1.275511 2.449040
1.385796 -3.608414 2.825107
-3.213036 -4.740562 0.353716
3.270831 -1.037025 3.305147
2.834100 -4.925435 1.474944
1.611905 0.456700 -4.852483
-0.832477 -1.628427 -4.742484
2.232835 4.846468 4.300989
2.615868 4.054695 -0.036547
-3.935982 -2.531459 1.892523
-0.157706 -2.482643 4.259312
4.319140 1.023584 -3.952891
0.866277 4.428667 -2.331492
-4.857918 -0.847236 3.875076
4.461273 2.402224 2.026943
1.654272 2.634821 0.686020
3.966352 4.725787 -4.401912
1.880500 4.530167 4.348273
-3.362969 4.634711 1.958147
-3.197262 -4.073174 -3.357147
