ply
format ascii 1.0
element vertex 1050
property float x
property float y
property float z
end_header
-1.399852 1.622285 -1.818989
1.973888 -1.697671 -0.805075
1.503266 -1.292281 -1.947100
1.412085 1.371497 2.079747
-0.520612 0.649644 -2.770475
1.173841 -1.486408 -2.240540
-0.026162 -0.161706 2.969164
-1.923565 -1.878632 0.216772
1.338129 1.421170 2.038129
1.650219 1.621042 -1.355508
1.892734 1.900506 0.709366
-0.585338 0.842755 2.674636
1.409005 -1.326830 -2.052360
-0.935522 -0.842631 -2.593304
1.333329 -1.684664 -1.775527
-0.921778 1.392798 -2.247385
1.318097 1.098723 -2.344999
0.586037 0.466607 -2.896784
-0.966697 1.093213 2.601315
-0.063568 0.073561 -3.041498
-0.928440 -1.146650 -2.583526
-1.487415 1.813177 -1.199305
0.150924 -0.127149 -2.982776
-0.087839 -0.069423 2.968991
1.657638 -1.832700 1.428516
-1.373341 0.875350 2.074237
1.839154 1.676341 1.011940
-1.955879 1.724694 0.061212
-0.205086 0.237419 -3.051094
0.512885 0.500309 -2.940300
1.247858 -1.404401 2.047366
-1.387479 -1.461618 1.984411
0.951550 -0.848747 2.533185
2.014273 -1.551626 0.372266
1.770173 1.676252 1.233791
-1.508270 1.769273 1.264175
1.671843 1.601579 -1.596664
-0.829509 -0.988181 -2.568918
-0.145001 -0.162243 -2.934650
0.860925 0.762920 2.731804
1.740756 1.919926 -0.679414
-0.054995 0.105681 -3.008325
-1.334891 1.366584 2.064434
-1.075796 1.152822 2.325918
1.274160 -1.451702 2.128568
-1.404456 -1.928181 0.871877
1.679605 -1.861543 -0.946027
-1.872831 -1.845943 -0.057042
0.023283 -0.055704 -2.916650
1.906295 1.778156 0.840015
-1.951113 -1.592770 0.840705
1.056221 -0.878222 -2.532397
-0.085747 0.029890 -2.918370
-0.859968 -0.830122 -2.757173
-0.360708 -0.316483 -2.957911
-1.603157 1.637041 -1.719938
-0.896419 0.973967 -2.598550
0.756555 -0.776207 2.827659
1.529363 -1.977756 -0.157248
1.847298 -1.871506 0.796457
1.501179 -1.617334 1.827749
-1.528279 1.872908 -1.066001
0.418849 0.390173 2.872278
1.783871 1.754932 -0.931653
-0.583115 -0.653781 2.723136
-1.003099 0.804663 2.660691
-1.854079 -1.955386 -0.210155
-1.182697 -1.319373 -2.230251
0.426266 -0.447606 -2.904572
1.342876 1.497651 -1.930867
-0.825303 -0.672263 2.715937
0.811451 -0.750335 2.752633
1.482016 1.746963 1.452109
0.594328 -0.519452 -2.840864
-1.070137 1.048461 2.477263
-1.637135 -1.127731 -1.901826
0.369929 0.403726 -3.017140
0.235766 0.273415 2.872305
-1.000933 -1.065856 2.587981
-1.612185 1.971082 -0.450438
-1.919790 1.939862 0.328482
1.428022 -1.244402 -1.939802
-0.275242 -0.313821 2.939870
-1.298957 -1.294851 2.232148
1.250582 1.303135 2.258567
-0.809600 -0.892036 -2.634523
1.458385 -1.864056 -0.471416
0.875496 -1.122574 -2.599858
0.709957 0.778962 -2.754015
-1.155842 0.959634 2.429237
-0.862960 -1.261057 2.268162
1.526384 1.705423 1.635178
-0.155505 -0.180753 -2.994912
1.771176 2.020139 0.363886
-1.393319 1.346995 2.197226
-1.379569 1.221132 -2.163390
1.898255 -1.752347 -0.341868
-1.485239 -1.768434 -1.203853
-1.914553 1.871759 -0.782528
0.726197 -0.598862 2.876465
0.606948 -0.594779 2.856233
-0.041704 -0.029004 -2.952987
-0.065959 -0.183190 3.053319
0.811309 -0.801773 2.650614
1.717046 1.902052 0.817350
-1.732989 1.521519 1.416220
0.747219 -0.757381 -2.827457
-1.636367 1.690060 1.385083
1.759440 -1.676261 -1.495195
1.418725 1.680292 1.507979
-0.034072 -0.065823 2.914668
1.336677 1.235972 -2.248411
0.356190 -0.472076 2.991159
1.579552 -1.481700 -1.797584
-0.192330 0.139902 -3.039671
1.184592 1.243777 -2.394573
-0.005994 -0.019238 -2.994659
-0.326451 0.237433 -2.980793
-0.628353 -0.574652 -2.843433
1.696788 1.511197 -1.526524
-1.534155 1.969214 -0.508049
1.803909 1.808465 1.256810
-1.435023 -1.248593 -2.030172
1.308971 1.383901 -2.116715
1.917319 -1.744618 -0.733396
0.484682 -0.484034 2.819691
1.380280 1.422996 -2.009022
-1.536570 -1.289992 -1.779868
0.688189 -0.570259 -2.826173
-1.393633 -1.702747 -1.727896
0.022110 0.056212 -2.990908
1.674182 1.498543 1.444866
-1.159842 1.262956 -2.365985
1.088611 -1.065931 2.563702
-1.774660 -1.965586 0.595987
-0.644773 0.963354 -2.692973
-1.324717 1.368678 2.117774
-1.494555 -1.423867 -1.921288
-0.546135 -0.463657 -2.855956
-0.279232 0.222409 -2.951692
1.356894 -1.327369 -2.123955
1.758659 -1.956396 0.986427
-1.153105 -1.563001 1.922286
1.149992 -1.254650 -2.438929
1.557497 1.477378 1.920564
-1.367320 1.987794 0.120298
1.355923 -1.478009 1.873398
1.982193 1.829804 0.677594
-0.945657 0.884865 2.653856
-1.698565 -1.768816 -1.401213
-1.828311 1.875844 -0.585958
-1.432484 -1.519691 -1.923442
-1.295592 1.072063 -2.398617
-1.117649 -1.098671 2.409654
0.034879 0.079747 -3.073809
-1.715878 -1.936032 0.845842
1.692701 1.671724 1.580653
-1.149390 -1.346450 -2.208722
1.150937 -0.874377 -2.454392
1.206319 -1.358823 2.147568
0.284420 0.351358 -3.018197
0.845524 -0.790183 -2.642836
-1.637399 -1.132442 -1.645360
-1.314003 1.202321 2.255512
-0.718265 -0.675243 -2.740824
-1.156520 1.213563 -2.275618
-1.344478 -1.448297 -2.138203
-1.206124 -1.198707 2.245627
-0.991347 -1.017611 -2.490456
1.619617 -1.906602 1.199394
1.645267 1.439675 1.809361
-0.467225 0.387371 2.926878
-0.735804 0.552171 -2.816572
-1.189498 0.927831 2.379299
0.803989 -0.807516 2.798364
1.006168 -0.925770 2.513847
1.814785 1.795549 -0.897243
-0.788590 -0.866985 2.593913
0.471499 0.471019 2.844320
-0.372811 0.296427 -2.939964
0.770917 -0.640719 -2.748681
1.254592 1.301727 -2.301721
1.222709 1.189199 2.340993
1.081548 0.880175 2.556905
0.750693 0.339833 -2.817018
1.461558 -1.002157 -2.174012
-0.631055 0.612241 -2.795854
0.122492 0.141879 -2.985390
1.138363 -0.740391 -2.623511
-0.572792 -0.523772 2.835483
-1.850380 1.880570 0.488661
-1.690303 1.724760 -1.372299
-1.325661 1.215911 2.263010
-0.792414 -1.015453 2.614169
0.586530 -0.712745 2.732741
-1.974365 -1.887317 0.210292
1.695485 -2.007390 -1.006974
-1.586605 -1.359037 1.791766
1.785544 -1.887504 -0.044750
0.636373 -0.652643 -2.857961
-0.104169 -0.116073 2.988606
1.240375 1.004906 2.390121
-0.095623 -0.165262 -2.951323
-1.903105 -1.949289 0.153965
1.288629 -1.632155 -1.563298
1.350925 -1.489312 2.081417
2.135562 1.760376 0.324343
0.584136 -0.494932 -2.823476
-1.654769 -1.444845 -1.700838
-1.878256 -1.686658 -0.581714
1.609592 1.846546 -0.999320
1.520160 1.636629 1.722258
-0.298229 -0.359330 3.007759
-1.554549 -1.459051 1.829836
0.486816 -0.387409 2.868314
1.887707 1.367843 1.004381
0.381439 0.331524 -2.962580
-0.619094 -0.531601 2.942205
-0.900378 0.806681 2.674089
-0.286414 0.478004 -2.941134
1.389678 -1.670353 -1.772614
-0.161745 0.188784 -3.047087
0.928051 0.938339 2.541049
-0.571004 0.680594 2.790864
-0.869081 0.804672 -2.649430
0.779023 0.892778 -2.678510
1.506512 -2.007282 -0.086793
1.909639 1.736380 0.803092
-1.640052 1.603437 -1.592418
0.567416 -0.773873 -2.771317
-1.639832 1.308319 1.758699
-1.249167 -1.321382 2.344468
-1.463024 1.435795 -2.134687
-1.115987 1.168057 2.494091
0.839464 0.890256 -2.642338
-0.329478 -0.579572 2.996154
1.890067 1.566378 -0.802970
-1.872116 -1.791286 -0.753012
1.082437 0.898079 2.526099
-1.979940 -1.711928 -0.131443
1.090873 -1.131191 2.473789
0.477278 0.501400 2.940703
1.083387 -1.187452 2.284809
1.235078 -1.554958 -2.003728
1.904740 -1.926317 0.385767
0.899066 -0.912190 2.678606
-1.918113 1.476749 -1.044130
-0.685123 -0.670757 2.776356
1.868811 1.649833 -0.770479
-1.856195 -1.788981 -0.978146
-0.374132 0.294422 2.959131
1.867126 -1.849910 0.690187
-0.809945 -0.772876 -2.768393
-0.160059 -0.221980 -2.994141
1.647513 -1.728497 -1.379876
-1.144753 -1.222279 -2.404462
-0.921349 -0.868089 -2.599034
0.159697 -0.020281 3.097378
-1.411411 -1.674222 1.628523
-0.881775 -1.026915 -2.528889
-1.586315 1.643773 1.728152
0.535839 0.441710 2.911345
-1.439866 1.304159 2.118364
1.115623 1.219575 2.333211
-0.982549 1.376778 2.207545
1.624017 -1.667493 -1.437074
-0.798915 -0.801822 2.754148
0.333363 -0.252579 -2.885594
1.512943 1.704374 -1.481455
0.359555 -0.240793 -2.993607
-1.919583 -1.774982 -0.110850
0.358523 0.507013 2.985084
0.137467 -0.173268 2.929112
-1.214446 1.254925 -2.179623
-1.334260 1.433710 -2.069765
1.272026 1.462310 -1.902078
0.345533 0.326404 -2.948141
1.759878 -1.837394 -0.276938
0.619444 -0.872600 2.735831
-1.404489 1.309689 -2.013457
1.000939 1.318301 2.203947
0.470145 -0.597538 2.933678
-1.560171 -1.561364 1.756522
1.048891 1.289982 -2.309087
1.043827 1.150144 -2.394194
1.874150 -2.059577 0.301137
-2.100673 1.662698 -0.001361
0.272500 -0.586871 -2.916929
-1.279088 -1.617891 1.869111
-1.913233 -1.426554 0.721700
0.702484 -1.031517 -2.563746
1.256933 -1.116626 -2.293933
-1.881764 -1.864796 -0.965891
1.483414 -1.463260 -2.063694
-0.106362 -0.090973 -2.965543
1.766829 1.838310 -1.037568
-1.396548 1.211565 2.087270
1.814887 -1.797384 0.976915
-1.876430 1.973984 -0.144989
-0.096135 0.058776 -3.037330
1.821666 1.660763 -1.165028
-1.983334 1.857379 -0.030307
-1.359938 -1.577183 2.111519
-0.341337 0.252123 -2.970452
1.847573 1.904084 -0.538291
-2.023803 -1.845264 -0.079142
0.647056 -0.973937 2.672065
0.636258 -0.591464 -2.896006
-0.720667 -0.746733 2.578145
-1.767590 -1.479397 -1.298392
-1.907796 1.813478 -0.665890
-1.631156 1.560772 -1.682290
-1.955075 -1.795006 0.321438
-1.225403 1.444281 -2.048586
-1.933438 1.667160 0.526153
-1.437774 1.841337 1.272212
1.918145 -1.507353 -0.801654
1.485534 1.215157 -2.112240
1.654151 -1.557192 -1.789062
-1.077309 1.400210 -2.187334
-1.267168 -1.162998 -2.334708
-1.852439 1.909461 -0.317748
-1.319330 -1.339093 2.151773
1.144925 -0.946895 -2.527534
2.010323 -1.178494 -0.642610
1.504058 -1.495980 -2.071212
-0.918816 0.886871 2.577983
-1.838688 -1.749595 -1.151297
0.516335 0.606712 2.844210
-1.606858 1.615990 1.864878
-0.110606 0.166443 -3.055276
0.496672 -0.503247 -2.818673
1.617877 -1.692268 1.551728
-1.912602 1.929134 -0.376379
-1.676830 -1.868694 0.810874
-0.411811 -0.496711 2.961215
-1.628701 1.957272 -0.732881
1.297995 -1.276415 2.203978
1.248715 -1.491113 -2.068717
-0.156678 0.079938 3.091939
-1.859945 -1.686150 1.140072
0.803864 0.723099 -2.706267
0.555366 -0.631137 -2.778465
1.008269 -1.031039 -2.538604
0.652870 0.690606 2.807516
0.971499 0.972270 -2.572948
-1.054286 -0.848900 -2.569376
-1.371198 -1.598963 -1.749601
-0.343654 0.310773 -2.959993
0.363160 -0.526315 2.897266
1.598536 -1.670062 1.389493
-0.876278 1.027358 -2.536293
-0.665363 0.684035 2.804041
1.257089 1.020089 -2.393438
-1.965313 1.769247 -0.434482
1.698383 -1.329889 1.674658
-1.956071 1.817786 0.094720
-0.214537 -0.295165 -3.006851
1.470320 1.369728 -2.002360
-1.919189 1.621523 -0.746801
-1.399989 -1.476848 -1.888656
0.062142 -0.002775 -2.979113
-1.898274 -1.672667 0.517550
-1.874626 -1.566762 1.317349
-1.559045 -1.846425 0.982533
1.905247 -1.549761 0.905536
1.898937 1.973838 0.269660
0.896028 0.695611 2.799423
-0.322458 0.194205 2.977461
1.036371 1.247166 -2.323008
1.096335 -1.372656 -2.280297
-1.626090 1.290468 1.915570
1.557796 -1.892886 0.092162
1.876599 -1.954393 0.253509
-1.443495 -1.916877 1.016904
-1.951484 1.928164 -0.074577
1.664247 1.448582 1.589505
-1.436771 -1.901648 -1.114005
-0.841772 0.698208 -2.655572
0.929055 0.987102 2.546444
1.614123 1.550656 1.721319
-0.761835 0.634879 2.875519
-1.988661 1.650912 -0.695256
1.683560 -1.461327 -1.482739
0.993887 0.964943 2.609358
-1.695437 1.835870 1.236570
-1.095471 0.896492 -2.471841
1.953684 1.700625 -0.769756
0.175981 -0.178829 2.990960
0.693466 0.699348 -2.834207
1.528188 -1.555460 -1.630402
-1.487982 1.827709 -1.010260
-0.822857 1.273487 -2.339907
-1.115788 1.285843 2.306743
-1.232599 1.642057 1.768523
-0.849381 0.974042 -2.594548
1.765184 1.691972 -1.287621
-1.184954 -1.421271 2.098116
-1.983136 -1.782470 0.592289
0.404951 -0.488702 2.919771
-1.458244 -1.477616 -1.968253
-1.766110 -1.876582 0.664942
0.054549 -0.048102 -2.978256
-1.745112 -1.342104 1.630694
1.894375 -1.813006 0.738167
-1.848159 -1.890551 0.069373
0.738269 0.815168 2.801616
1.497849 -1.469014 -1.923290
-0.234942 0.229372 -2.878558
1.175982 -1.043882 -2.451331
1.361349 -1.210734 2.225455
-1.788585 1.965419 -0.477985
-0.250964 -0.202048 -3.081847
0.725847 -0.569502 -2.777910
1.985826 -1.919828 -0.124949
-0.526664 0.421519 -2.845659
-0.616840 -0.675582 2.844469
1.520855 1.725769 -1.405328
-1.007001 0.942769 -2.550643
-1.802097 -1.733305 1.231727
1.944137 -1.951760 -0.516333
-1.679104 2.083202 -0.285920
-1.060602 -0.792406 -2.602958
-1.137903 -0.709605 2.418165
-1.375259 -1.329854 -2.138712
1.296821 -1.410881 2.169246
-1.511209 -1.408321 -2.016360
1.293561 1.385127 2.244729
-1.855880 -1.620484 -1.166765
-1.584412 1.460878 -1.760969
-1.924514 1.995489 -0.079374
-1.445462 -1.199375 1.953612
1.687800 1.093986 1.682022
1.679036 -1.895529 0.310164
0.147056 0.054393 -3.024830
1.945084 -1.554194 -0.170409
0.839984 -0.710321 -2.571448
1.088074 -1.125432 -2.422419
0.240576 -0.259171 3.011153
-1.870907 1.960739 -0.285426
0.256912 -0.351299 -2.894953
-1.036994 0.827314 2.552356
1.751440 1.933842 0.641667
0.802174 0.688644 2.745740
-0.135958 -0.096378 3.025738
1.808280 -1.889121 0.865904
-1.759134 1.327271 -1.444267
-0.695239 -0.803428 2.904868
1.229988 -1.476183 2.031161
0.123073 0.118082 3.019237
1.101654 0.996816 2.461943
0.955901 -0.918248 2.658584
-0.757698 -0.813619 2.673121
-0.339353 0.304529 2.948476
-0.731038 0.617554 2.841846
-0.753209 -0.797528 2.802865
0.444925 -0.499308 2.885193
-1.689389 1.824805 -1.103517
0.949021 -1.150851 2.492078
0.779093 -0.762989 2.783721
-1.628792 -1.081518 -1.687935
1.831977 1.853288 -0.921883
-1.988643 -1.913281 0.233171
1.721743 -1.581763 1.471374
0.503472 -0.533306 -2.887198
1.214450 -1.349598 2.226850
2.045660 -1.883448 0.080259
1.903193 1.622916 -0.930039
-1.615147 -1.494557 1.761906
-1.897443 -1.754578 0.465278
0.623051 0.495541 -2.847742
-1.341553 -2.009673 0.678811
-0.424724 -0.534695 -2.867868
-1.798917 -1.716846 1.084541
-0.677343 0.526257 2.878523
1.531784 0.898410 1.849304
0.592788 -0.618382 -2.858511
-1.940559 1.956628 -0.191465
1.426281 1.468847 -1.955759
-1.953235 -1.791019 0.092145
-0.281169 -0.358714 2.985326
-1.895748 1.869026 -0.641103
-0.867469 -0.807698 -2.770036
-1.633393 1.276002 1.860896
-0.333194 0.289838 3.020898
-1.024847 -0.890339 2.571456
0.569327 0.980941 -2.649742
0.401693 0.445900 -2.904177
0.990539 1.172937 2.370462
-0.293311 -0.398407 -2.858823
-0.600947 0.523706 -2.781282
1.115102 -1.255923 2.349652
-1.981865 -1.762710 0.807242
0.834467 -0.743595 -2.796159
0.443014 0.358474 2.931349
-1.877951 1.884415 0.841921
-1.132952 1.032046 -2.467219
-1.223943 0.923739 -2.420484
1.235612 -1.385278 2.047933
-1.611836 -1.678716 -1.340883
1.458655 -1.554073 1.813745
1.320582 1.495083 -2.059223
1.501976 1.596030 -1.727855
0.549098 -0.526347 2.919506
-1.906772 1.721711 -1.063606
1.206560 -1.232690 -2.249308
1.749546 -1.666404 1.137987
0.545692 -0.515285 2.983365
-0.294279 0.234250 -2.985707
1.033855 0.898896 -2.636869
1.936301 -1.901113 -0.293241
-1.508168 1.688033 1.770817
-0.024767 -0.133360 3.068942
1.658846 1.781676 -1.249882
0.674267 0.825442 2.731066
1.717415 -1.981256 -0.634231
1.177091 1.244100 -2.377798
-1.419197 1.979864 -0.675689
0.042031 0.100112 3.073028
1.840760 1.550509 -1.305059
-1.380552 -1.664639 -1.834030
-1.906607 -1.423371 0.571194
1.171578 -1.217309 -2.282912
0.373388 -0.371417 2.953910
-0.257391 0.291318 2.852358
-0.180642 -0.330232 3.016569
1.613012 2.069997 -0.397825
0.264836 0.228398 2.973600
0.984649 -1.071422 -2.508936
-1.132224 1.353140 -2.336652
0.732221 -0.757685 2.749121
0.930087 1.190774 2.419843
-1.116683 -1.045768 -2.506433
-1.238589 -1.119692 2.330081
-1.673632 1.977808 0.398518
1.608958 -1.385240 -1.702993
1.821833 1.637018 1.473302
0.758392 -1.012571 2.576885
-1.348661 1.634365 -1.908373
-0.066897 0.128011 -3.021389
0.270321 0.271412 3.000289
0.343844 -0.370280 -2.899835
-1.732940 1.342207 1.731293
1.815903 1.303858 0.937957
-1.685566 -1.742710 1.328605
-1.264855 -1.564524 -2.018601
-0.699918 0.952141 -2.707710
-1.606198 1.696231 -1.461395
1.579722 -1.754280 1.403712
0.665614 0.777900 2.833688
2.107258 1.834192 0.235221
1.328645 1.304172 2.149889
-1.214578 1.109658 -2.303295
1.892202 1.824804 0.942425
-1.127911 -1.250613 -2.359323
1.994140 1.615828 0.513559
-0.639880 -0.572754 2.875227
-0.717548 -0.663822 -2.739074
-1.474408 -1.144742 2.141517
1.425782 -1.427401 2.092386
1.316842 -1.205891 -2.201830
0.905553 0.951228 -2.483124
0.446034 0.414888 -2.947789
-1.420406 -1.714667 -1.681499
-1.688001 -1.435580 -1.694660
-1.835164 2.023250 0.765973
1.187219 1.308199 2.189188
1.163699 1.146687 -2.346019
1.655987 -1.404542 -1.759639
-1.132188 -1.908992 0.137989
-1.937576 1.550770 -0.574733
-1.602824 -1.875143 -1.206435
-1.603764 -1.369445 1.879282
-0.166605 -0.169951 -3.020925
1.770294 1.802544 -1.067031
-0.929952 1.051317 2.522755
-1.345192 1.390657 2.146863
-0.256189 0.147581 -3.047795
-1.549117 1.465988 -1.916347
-1.644122 1.335248 1.878653
-0.584786 -0.702673 -2.809802
1.982967 1.612623 -0.760520
1.830609 -1.645732 -1.240936
0.023309 -0.027034 3.066064
-1.636096 -1.639228 -1.443546
1.720118 -1.906731 0.911713
-2.018455 1.861171 -0.005008
-1.190490 1.257871 2.282135
-1.602950 1.844827 -1.191241
1.645495 1.899116 0.818180
-1.667141 -1.906333 1.097898
0.861657 0.972872 2.679107
1.983240 -1.778292 -0.197754
-1.358708 0.903728 2.215456
0.634666 -0.580370 -2.899589
-0.952889 -0.983051 2.513828
-1.882341 1.948722 0.118455
0.526259 -0.545302 -2.837877
0.516366 -0.546877 2.829602
1.908883 1.768001 -0.176021
1.154347 -0.969301 -2.483927
-1.320757 -1.468089 2.023347
-1.968626 1.889117 0.112587
-0.793814 0.793630 2.780387
-0.044412 0.032952 3.082566
1.949844 -1.931097 -0.319737
-0.557440 0.565038 -2.803442
1.653564 -1.534832 1.392201
1.924407 1.858806 -0.781138
-0.176893 0.075477 -2.940534
-0.847389 1.011971 2.603860
0.242583 0.183630 -2.992033
-0.162296 -0.260569 -2.954589
1.422507 -1.334588 -1.972264
1.773706 1.470966 1.520013
0.265024 -0.207736 2.973364
-1.029949 0.941402 2.637396
-0.453165 0.507052 -2.905216
2.000545 2.022542 0.374275
-0.200882 -0.201562 2.871415
-0.337918 -0.413207 2.954381
1.420982 1.625864 1.785212
0.432936 0.413558 -2.944073
0.588251 0.635500 2.812804
1.657429 -2.021944 0.020947
-1.047430 0.972103 -2.565438
0.345324 0.322504 -3.028098
-1.176783 1.199980 -2.310478
-1.801647 -1.604620 1.248574
1.728611 1.319001 -1.409684
-1.860101 -1.727250 1.198455
-2.039553 -1.705665 0.167149
-1.902885 1.874458 0.713247
1.569754 -1.062274 -2.037284
1.325571 -1.220605 2.239124
-0.105825 -0.120429 2.843208
1.707844 -1.508142 1.381517
-0.039726 -0.084060 3.045679
1.072268 -0.621454 -2.542506
-1.479319 -1.393237 -2.001763
-1.839199 -1.983242 -0.087254
1.551044 1.454928 -1.966096
-1.400648 1.417899 2.014939
1.669150 -1.614855 -1.587656
0.978679 -1.207566 -2.447436
-1.234903 1.684278 -1.700107
1.583552 1.466104 1.823642
0.975800 0.872398 2.568039
0.504133 -0.601202 2.985168
-1.371899 1.302779 -2.152937
1.723819 1.415371 -1.404185
1.676325 1.347433 1.899189
0.527010 0.311268 -2.850869
-0.580617 -0.595345 -2.789321
-0.512043 0.510526 2.940444
-1.474524 -1.646120 1.826984
-1.792960 1.692006 -1.223889
-0.941519 0.955444 2.677509
-0.042556 -0.023693 2.977706
-0.737773 0.805260 -2.751724
-1.699225 -1.796746 1.146780
-1.086457 -1.191451 2.378034
-1.775131 -1.652758 1.181491
1.757191 -2.009744 -0.586416
-0.834126 0.721703 -2.790622
1.897324 1.891864 -0.595227
1.852810 1.820235 -1.256071
1.268601 1.617001 1.891887
-1.526148 -1.959824 0.793950
1.662479 1.364832 1.740739
-1.270125 1.273703 2.275519
-1.852129 1.866373 -0.817153
-1.952597 -1.907156 -0.390151
0.230630 0.344652 2.990719
1.962690 -1.784164 0.947899
1.739894 2.016005 0.470949
1.495005 -1.548627 -1.765172
1.774154 -1.695075 -1.297219
1.438344 1.420970 1.924628
-1.949505 1.277698 -0.160548
1.911079 1.882731 0.254664
-0.210347 -0.177909 3.078405
1.716885 -1.923246 -0.904200
1.321222 -1.476082 -2.230004
0.778355 -0.782995 -2.776552
1.116071 -1.268710 -2.315085
-1.835955 1.812248 -1.071501
-1.194527 -1.125886 2.373404
1.074764 -0.875292 2.550290
-1.335342 1.473669 -2.125495
0.871068 -1.114498 2.513960
0.941346 0.956569 -2.634968
1.508062 -1.458769 -1.814248
-1.925071 1.686247 -0.645149
-0.458028 -0.587184 2.871766
1.346989 1.475779 -2.026182
-1.617681 -1.873088 -0.920978
-0.739816 0.877820 2.724711
1.597014 1.792561 -1.161911
-1.491263 -1.320059 -1.930176
-1.953805 1.653863 0.138331
0.604858 0.558294 2.992507
-0.820736 0.761347 -2.793229
0.005522 -0.014146 -3.049891
-1.902110 -1.758041 -0.927891
0.688512 -0.708439 2.721148
-1.447703 1.707224 -1.531283
-1.181101 -1.033336 2.351569
1.712608 -1.458574 -1.609493
-0.119837 -0.053854 -2.953274
-1.226619 -1.150339 -2.433841
1.829990 -1.610198 -1.255357
-1.659370 2.036837 -0.640106
1.684187 -1.842729 1.321331
0.465308 0.567854 2.845618
-0.966546 0.869053 -2.671836
-2.020261 1.483176 -0.357663
-0.377270 -0.360326 -2.896220
-1.209917 1.187785 -2.303636
-0.321234 0.236231 -2.959388
-0.687873 0.691851 2.770565
1.429347 1.550963 1.810493
0.340415 -0.258390 -2.931128
1.830607 1.697786 -1.127708
1.931588 -1.884169 0.012212
0.594485 -0.519970 -2.820011
-1.964156 -1.748067 0.418521
-1.268914 1.363130 2.233105
-1.836216 -1.812104 1.121124
-1.239335 1.415232 2.022624
-0.631219 -0.560205 -2.887136
1.909518 1.813250 -0.389913
-1.781114 1.841349 -0.933281
1.055179 1.187995 2.396597
0.702794 0.643579 2.799559
1.931930 1.751095 -0.795792
-1.981198 1.634454 -0.154728
-1.584834 -1.968739 0.929561
-0.896156 0.641436 -2.607096
0.454529 -0.436438 2.907232
1.580766 1.153941 1.827719
-1.751923 -1.268035 -1.654871
0.640503 0.640214 2.751762
1.048734 0.832115 2.550370
0.461765 0.333672 -2.879381
0.785446 -0.958801 -2.597771
-1.397814 1.138969 -2.255270
-1.792042 1.817452 -1.146221
-1.378329 1.693932 -1.724784
-0.289207 -0.429646 2.918891
1.784506 -1.754501 -0.894101
1.191437 -1.138592 2.404102
-1.653827 -1.513858 -1.700994
-1.883827 1.861590 -0.856293
0.215852 0.089926 -3.029550
1.164188 0.962491 2.476083
1.861462 1.948818 0.810292
-1.342503 -1.523610 1.905236
-1.412695 1.121449 2.135200
-1.766588 -1.698504 1.422369
1.925892 1.913874 0.020446
1.237365 -1.203458 -2.454407
1.808340 -1.464013 -1.262430
-1.703610 -1.808963 -1.260107
-0.889515 0.870841 2.695088
-1.707273 1.079803 1.706785
1.713511 2.011742 -0.353040
-0.609425 -0.631081 -2.828074
0.547687 0.540804 -2.864161
0.052060 -0.003944 3.091565
1.054756 0.816922 -2.536698
1.857955 1.588574 -1.168113
1.543385 -1.633008 1.571955
-0.403378 0.293807 -3.067698
-1.405068 1.497823 -1.997053
1.332131 1.285110 -2.243408
-1.101207 -1.127158 2.405478
-0.218060 0.272647 -2.901657
-0.088867 0.154624 2.938427
-0.191017 -0.204620 -3.061160
0.097075 -0.121729 -2.954187
1.895312 -1.960202 0.194044
-0.185607 -0.143226 2.920422
0.309630 -0.393580 -2.949803
-1.700250 1.395602 -1.663954
1.413900 -1.387543 2.176976
-0.996193 -1.002776 -2.534257
0.615556 0.675333 2.836639
1.801589 1.714669 1.024043
-1.980642 1.480843 -0.600260
1.984451 1.479156 0.453270
-0.228906 -0.242411 -2.951972
1.492500 1.801460 1.675540
0.599551 -0.927343 2.719342
-0.039971 -0.004515 -3.060157
-1.381995 -1.596616 1.740199
1.038085 -1.239103 -2.306269
-1.169471 1.004391 -2.373917
0.749253 -0.902700 -2.743571
1.970094 1.741399 0.481751
1.434513 -1.566914 1.601190
1.191920 -0.953698 -2.422652
-2.021086 1.696895 -0.370814
-1.017765 -0.731577 -2.525718
-2.077626 -1.882921 -0.111819
-0.923978 0.980126 -2.650930
0.235784 -0.139729 2.959036
1.348946 -1.392156 1.943176
1.120962 -0.678630 -2.459087
1.708488 -1.834873 1.006253
-0.751218 -0.779313 2.684057
1.641553 -1.403348 -1.332893
-1.548151 -1.826163 -1.403730
-1.816154 1.993915 -0.372445
-1.452682 1.241713 -2.216878
-0.511845 0.598889 2.932533
1.087578 0.901219 2.487201
-1.754211 1.861802 -0.644813
-0.185978 0.101243 2.929295
0.058760 -0.039077 2.993784
-0.560821 0.549974 2.899344
0.329532 0.355003 -2.988628
-0.030753 0.071491 2.915093
0.189222 0.288952 3.077129
-0.861838 -0.839057 2.604273
1.533097 1.821047 0.975183
1.440556 -1.300901 -1.987854
-1.004339 -1.137560 -2.392667
-1.635696 1.511246 -1.804955
1.186338 1.047397 2.374199
1.691886 -1.660522 1.486693
-1.435089 1.392998 -1.973321
-1.463766 1.538886 -1.828637
1.078909 -1.060418 2.570603
-0.131464 0.048864 -3.020348
-1.864870 1.993933 0.301571
1.441007 1.374307 2.049030
0.097964 -0.213717 3.013254
-0.240288 0.237283 -3.076947
-0.444517 0.398867 -2.933937
-1.334954 -1.506476 -1.874993
-1.649024 1.628875 -1.460056
1.253917 1.033160 -2.260518
0.727639 0.790733 -2.675106
1.873138 -1.581411 0.636767
1.853721 -1.903370 -0.372264
-0.840042 -0.481365 2.706399
-0.700165 -0.804120 2.731862
-1.495569 1.871788 -1.426682
0.778149 -0.612851 -2.842131
0.320401 0.194737 2.889971
1.274093 -1.249040 2.294734
-1.209855 1.817441 -1.280017
-0.781837 0.993593 2.648073
-0.227988 -0.237023 -3.008067
-1.714515 -1.945911 0.406759
-1.353771 -1.272137 2.102552
0.581241 -0.879302 -2.676278
1.118095 -1.127100 -2.407379
-0.948977 1.078925 2.478687
1.599973 -1.953757 0.290487
0.177806 0.061037 -3.003610
-0.872375 -1.046341 -2.549974
1.448580 1.361855 -2.035654
-1.902852 1.587679 0.890957
0.151891 0.105593 -3.068778
1.502176 1.697744 1.432560
-1.198319 1.534603 1.813486
-0.175504 0.193201 -2.996555
1.558079 1.717133 -1.438920
-0.981800 -1.410778 2.199701
-0.252569 0.198134 2.995922
-1.978209 1.836470 -0.552507
0.175029 -0.176401 -2.929620
-0.552707 -0.853625 -2.722073
1.958290 1.816584 -0.471583
-0.940992 0.703406 -2.632391
1.032791 1.085015 -2.450779
-1.778292 1.937619 0.053935
1.651764 1.469529 -1.694401
1.604854 -1.483689 1.776569
1.645773 1.321874 -1.698217
1.231419 -1.222873 2.347380
-1.714544 -1.760827 1.325391
1.295202 0.998729 -2.305951
0.150977 -0.048350 2.967970
-1.747281 1.944860 1.057351
0.910681 -1.024876 2.503952
1.353823 1.704350 -1.771721
-1.132676 -1.131109 -2.430635
1.041598 -0.966249 -2.639018
-0.655831 -0.700108 2.848874
-1.160398 -1.108949 2.367072
0.176112 -0.196493 3.013318
0.628472 0.603319 -2.844862
0.627458 0.781237 -2.717451
-1.869541 1.812717 0.565418
-1.666062 1.838137 1.313361
-2.065016 -1.276985 0.235571
0.560644 0.527173 2.860638
-0.561889 0.462567 2.859811
1.763367 -1.921412 -1.032241
1.917019 1.457993 0.406790
-0.045489 -0.012012 -3.057112
-1.462185 -1.207854 2.054735
0.092596 0.055243 -3.039090
1.859942 1.851694 0.848587
-1.753057 -1.788096 1.105263
-1.364342 -1.925418 -0.998856
1.833409 1.728744 -1.043630
0.761724 0.879013 2.729139
-1.901497 -1.840901 -0.337662
1.448031 -1.265665 -2.045783
-0.788073 0.811404 -2.759600
-1.803276 -1.886544 0.601259
-1.340251 1.320412 -2.190028
0.282894 0.229144 2.914284
1.960108 1.783159 0.140546
-1.371739 1.451621 -2.008654
0.922769 -0.989008 -2.484041
-2.013803 -1.952060 0.554733
1.620310 -1.638872 1.621681
-0.990881 0.683123 -2.558819
0.864939 0.580258 2.726545
1.707844 -1.934203 0.677015
0.054450 0.019954 2.965072
1.562672 1.174325 1.991902
-1.974763 1.694656 -0.286078
0.353940 -0.332167 2.948482
0.580926 0.633291 2.837859
1.825871 1.831876 -0.642380
-2.058297 -1.401383 0.076235
-0.214779 0.313392 -2.984697
0.039935 0.045075 -2.987688
-1.029358 0.753998 -2.683943
-1.542445 1.387002 -1.896087
1.660476 -1.543868 -1.551571
-0.225095 -0.271901 -3.013851
1.059068 1.330072 -2.161895
0.315615 -0.304723 2.937403
-1.916629 -1.898125 0.685628
0.192119 -0.336073 -2.898493
-1.397746 1.302182 1.923716
-1.659218 -1.676514 1.563335
1.975020 1.821027 0.458245
1.734784 1.286518 1.633073
0.333798 -0.261960 -2.972264
-1.950768 -1.562732 -0.232076
-0.556878 -0.615348 2.895219
0.705416 -0.857898 -2.741767
-0.456453 0.483402 2.924141
-1.791177 2.015032 0.033308
-0.695120 0.576835 -2.845958
1.284119 1.591654 1.668024
1.741963 -1.761755 -1.386786
1.969584 -1.928342 -0.117496
0.635262 -0.648718 -2.817637
1.980354 1.710182 0.351596
-0.083305 0.137577 2.979714
-1.657419 1.564374 -1.645989
1.880164 -1.931487 0.235438
1.862843 -1.880748 0.379170
-1.781392 1.606852 1.295768
1.747657 -1.726728 -1.330284
-1.498159 1.568644 -1.705793
-0.754427 0.991406 2.595945
1.308677 -1.419561 -2.118896
1.504496 -2.001137 -0.436369
-0.283189 0.476455 -2.854542
-0.895686 1.132957 -2.487213
-1.472582 -1.753790 -1.550307
1.882067 1.957382 -0.157338
-0.708071 0.636330 -2.806070
1.270006 -1.374653 2.194248
0.797651 -0.563443 -2.733313
-1.368931 1.085273 2.287572
1.651329 -1.812896 -1.090195
0.336859 -0.369887 -2.951205
-1.731819 -2.035131 0.396605
1.081113 -1.149271 -2.535391
1.673572 1.507810 1.595465
-1.779375 2.005064 -0.164419
-0.938936 -0.918383 -2.635815
0.441444 0.404985 -2.920605
1.126649 1.303571 2.189744
0.839613 -1.113447 2.582823
1.531075 -1.655919 -1.678328
-0.609022 0.406013 2.879161
1.993699 1.972613 0.005808
-1.134618 1.393738 2.141119
1.753256 -1.848946 -0.983706
0.050329 0.175380 -2.951781
-1.935650 1.388527 0.491549
-1.735113 1.941451 -0.297576
1.241466 -1.136533 2.343362
-1.901500 -1.606087 -1.007429
-1.666695 1.702390 1.401609
1.317030 1.751707 1.270796
-1.556636 -1.588103 1.781977
-1.900202 -1.927261 0.541089
-4.905814 -1.709421 2.843305
-4.206724 0.245776 1.190715
3.787450 0.854259 4.393427
1.924381 3.405052 3.896755
0.414536 -2.760430 -0.117338
-0.919703 -2.317052 -3.560460
-2.319247 0.470505 -4.658288
-1.198635 -3.591942 4.498193
4.022566 3.827526 4.522613
-3.487435 -0.804692 1.679623
-2.558028 -1.086993 2.608549
-1.967050 0.844815 0.310333
2.911744 -0.449368 3.700240
4.735969 1.378592 2.654961
-4.189093 -3.758127 -1.677767
-3.367653 -0.583178 -0.961800
0.557346 2.612571 0.043170
-2.386711 -3.407596 4.149932
2.617802 -2.439642 -3.050827
0.549188 3.638649 -4.499785
-3.095931 3.444683 3.254336
1.543673 4.492598 -0.744198
-4.924026 -4.597537 4.360116
-0.681660 -2.102141 3.380076
2.638076 4.338217 -2.414248
-3.440616 -0.163606 4.287422
0.357238 4.821439 0.766590
-0.716215 -1.570458 2.421385
-3.824440 0.316993 -2.714464
2.492365 -0.883221 -2.648730
-2.062113 0.272961 2.211384
-0.080915 4.841707 0.126358
1.763466 -3.039742 4.325977
2.191536 -4.122332 -1.704614
-4.118695 0.183453 2.546749
0.711346 -0.788132 -3.603158
2.726257 -3.389843 -4.120450
2.551896 4.573581 -2.528789
-3.157473 -4.495323 -2.611597
-2.221611 -3.889743 -3.896037
0.969978 4.256971 -3.457303
-4.341174 -1.102180 -3.414378
-2.723537 -0.212721 -1.448031
-2.325343 -3.639102 4.849635
-3.363985 2.767492 -4.650006
4.695285 0.099324 3.781864
-4.906084 -2.371385 3.111735
-1.580911 -3.455736 1.917362
1.294408 -4.162185 4.076416
-2.831175 4.967118 -0.219783
