ply
format ascii 1.0
element vertex 2100
property float x
property float y
property float z
end_header
-0.748418 0.566986 3.090287
-1.077863 0.019808 3.508288
-0.239954 -1.540629 2.305943
0.416080 0.965266 3.783346
-1.057551 -0.040964 3.381552
-1.463400 -0.955061 0.801192
-0.592683 0.949417 3.505109
0.978049 0.082659 3.325956
-0.310980 -1.737347 1.672691
0.244806 -1.682561 1.547762
-0.416622 1.706264 1.406705
-1.800440 -0.166990 0.923576
-0.329866 1.702027 1.712660
-1.748628 -0.178394 1.693759
-1.017276 -0.899671 2.605538
0.008698 1.014311 3.351186
0.805975 -0.519090 3.337120
-1.268874 0.704606 2.334713
-0.151824 -0.982420 3.420295
-0.365382 1.020728 2.977435
-1.356275 0.889557 0.324805
0.950753 0.030702 3.832366
-1.337673 -1.109611 0.659699
0.350834 0.982045 3.024570
-0.315527 1.000672 3.342446
0.376480 -0.904392 2.941317
-0.737513 -1.475448 0.463934
-1.608877 0.148710 0.522502
-1.449266 -0.952915 1.213386
-0.917394 0.397177 3.424577
0.967301 -0.333200 3.890543
-0.574402 1.558289 0.442198
-0.281845 -1.664858 0.700761
1.429751 -0.160565 0.089280
-0.673795 1.209042 2.463236
0.922878 0.575428 3.654537
-0.967472 0.054360 2.971218
1.512716 0.703502 1.809351
0.519541 1.439661 -0.063155
0.246239 -1.709890 0.970028
1.643075 -0.677250 1.562024
-1.137685 -0.054134 2.957072
0.006982 -0.963653 3.237233
-1.217797 1.208877 0.878980
1.669708 0.412405 1.338930
1.136828 0.474848 2.549466
-0.479342 1.649248 0.699826
-1.049261 0.034495 3.336079
1.453115 0.844900 1.556397
0.021072 1.620675 1.927735
-0.248117 0.963156 2.956810
1.479205 0.851721 1.272872
0.486702 1.651692 1.696758
-0.049041 1.479704 2.216603
1.454933 -0.848881 1.013032
-0.430004 1.232867 2.620867
-1.428159 -0.041484 2.422999
1.563427 0.035618 2.029008
1.593392 0.546654 0.436376
1.022365 0.874187 2.509374
1.702403 -0.334480 0.774849
-1.605430 -0.698236 0.823860
-1.145900 0.964861 0.049851
-0.982919 -1.490913 0.990757
-1.154354 -0.860084 1.976685
0.210585 -1.596770 1.812543
-0.454278 -1.266461 2.519623
1.825662 0.217498 1.491772
-0.194946 1.785320 1.031102
-1.445317 0.556914 -0.018018
-0.379557 0.968347 2.957977
-0.998391 -0.375620 3.038045
-0.337864 1.392233 2.364371
-1.420304 -0.966188 1.263889
0.690003 1.547071 0.787740
-1.691951 -0.202553 1.807984
-0.719002 0.982190 2.805484
0.971459 -0.790755 2.633413
-1.535159 0.426836 1.868530
0.543682 0.886867 4.059730
-1.029436 0.719162 2.584084
-0.092450 1.654988 1.805240
0.441007 1.711379 1.446305
-0.722572 -0.651605 3.473847
-0.898966 -1.207824 0.005460
-1.102074 -0.193161 3.688287
1.588761 -0.063969 0.204212
1.326113 -1.145832 1.509770
1.357830 -1.107440 0.786869
1.511346 0.601975 1.887555
-1.642224 0.096653 1.762105
1.597361 -0.285027 1.501353
1.603488 -0.617911 1.761405
0.977405 -0.946198 2.473262
0.871003 -0.914203 2.592489
-0.967714 0.413571 3.289887
1.007040 0.086758 3.344342
-1.663364 0.187895 0.818374
-1.344552 -0.225374 2.530936
0.092493 -1.564301 1.953709
0.781823 0.654991 3.542917
0.909165 -0.076845 3.860773
0.702437 1.538595 0.894326
1.059266 -0.207559 2.992986
-0.650629 -1.477376 1.775217
1.428345 -0.779539 0.647752
0.760477 1.623904 1.059692
-1.082654 0.064440 3.527757
1.590742 0.764836 1.678665
1.340998 -0.690896 2.271343
-1.114818 0.210530 2.771293
1.059847 1.351619 1.579557
-1.436562 0.737399 0.430443
-0.115464 -1.606336 1.913997
0.448926 -1.753031 1.295905
-1.423217 -0.838540 0.429719
0.022431 1.016030 3.594710
1.402007 -0.213031 2.468108
-0.955546 0.421700 3.575079
-0.833685 0.331630 3.116552
1.407921 -0.638287 2.100784
1.653165 -0.081011 0.662105
0.985805 0.195389 3.607496
-1.717364 0.238619 0.796796
-0.247306 -0.925615 3.226532
-1.681914 0.239910 0.601466
-0.468620 1.589802 0.408318
-0.314595 0.852016 3.216268
1.747445 0.072760 1.422091
-0.734822 0.813352 3.780985
-0.860758 -1.501701 1.803497
1.636723 0.226787 2.018239
-1.508215 -0.684170 0.263986
1.071304 -0.843396 2.461726
0.122272 1.725046 0.776218
-0.493613 -1.698595 0.910919
1.405805 -0.662604 1.866057
0.473582 -1.621905 0.532088
1.256514 0.036560 2.657255
1.631977 -0.140667 0.548762
0.345622 -0.933615 3.084802
1.647370 -0.639982 1.149999
0.078741 -1.006304 3.807360
1.389141 1.137552 0.958511
-0.662924 0.711924 3.298150
0.758657 -0.617280 3.379402
0.993225 0.521795 2.778888
-0.480387 -0.943801 3.732797
-1.149172 -0.306545 2.648975
-0.681460 0.769922 3.944044
0.560259 1.599427 1.673679
-0.707598 0.695310 3.886417
0.686525 -0.942199 2.827500
1.215058 0.950353 0.488164
0.277642 1.527630 1.821692
0.765069 -1.514834 1.096483
-1.363036 0.922985 1.923807
-0.042259 1.284902 2.654192
1.493433 -0.701460 0.261924
0.565055 -1.190022 2.511315
-1.709380 0.328647 0.963166
-0.175165 -1.101572 2.835226
-0.817064 0.685016 3.666544
0.786984 1.409440 1.883615
0.522252 -1.196305 2.514733
-0.825508 -1.601436 0.808487
0.761171 -0.544516 3.139067
1.296598 1.238048 0.903793
0.588745 -0.909318 3.410105
1.652938 -0.451200 1.566371
0.911957 -0.466841 3.909157
-0.201569 1.018873 3.030707
-0.271834 0.991173 3.501584
-1.287991 0.793713 0.375975
-0.629899 1.568486 1.730665
0.538449 1.294661 2.383823
-0.308283 1.154737 2.707160
0.724793 -1.393527 0.078859
0.368290 -0.983364 3.706623
-0.435877 1.611795 0.925252
0.715306 0.745742 3.306485
1.568873 -0.465037 1.847650
0.446725 0.810075 3.162072
-0.766385 0.655007 3.845830
1.231605 1.309297 0.811589
1.543510 0.841375 1.399892
-0.288282 0.877350 3.124261
0.906744 0.011207 3.600177
-1.217892 -0.590851 2.644932
1.564153 0.848974 1.331607
-0.476890 0.883561 3.989932
1.050873 1.134869 0.493332
0.311422 -1.474860 2.116870
-0.714187 0.661759 3.835873
0.009116 -1.614640 0.462054
0.321254 1.483067 2.151253
-1.362719 0.841951 0.361921
1.623911 0.013303 2.025432
-1.477480 0.540770 2.133214
1.046792 0.077214 3.666222
-0.734523 0.739538 2.859300
-1.553708 -0.592402 1.327943
-1.504189 0.117939 2.278181
-1.570171 0.295523 0.749237
0.665371 1.538977 1.028441
-0.042456 1.012499 2.847729
-0.956708 -1.228797 0.116533
0.218896 -1.162366 2.863393
-1.009773 1.505259 0.853185
1.369861 0.853796 1.787188
0.861204 1.444304 1.427991
0.372635 1.594227 1.617206
1.543979 -0.889417 1.490986
1.605126 -0.771825 0.979357
0.475629 0.841031 3.556305
0.111789 1.052905 3.111439
1.364067 -0.702097 0.410205
-0.107881 0.967544 3.805730
-0.904812 -0.498485 3.802057
-1.594365 0.813645 1.323388
0.684537 0.807967 3.357542
-1.088599 -1.095269 2.048268
1.032946 1.360438 0.495479
0.185598 -1.727768 0.476993
-0.960904 -1.055614 2.395882
-0.224068 1.446129 2.347032
-1.119591 0.216440 2.721527
1.287247 1.056779 0.649208
1.501917 0.592958 1.698140
-0.346957 0.914770 3.945356
-0.138664 -1.643123 0.554802
-0.828156 -0.569965 3.968506
1.509005 -0.110826 2.150753
-1.458564 -0.044174 2.243076
-1.754724 -0.029401 1.564055
-0.936385 1.411598 1.458609
-0.015031 1.007585 3.496898
-0.104858 -1.757299 0.754704
-0.458297 1.602515 0.645749
1.333050 0.921216 1.682915
-1.345087 -0.521955 -0.014767
-0.072416 -0.927027 3.674365
1.691780 0.462625 1.431821
-0.466049 -1.474797 0.200489
-1.156321 -0.153022 2.741970
0.847766 -0.363701 3.865145
-0.318364 -1.479469 0.403158
1.414759 0.916452 1.303360
0.006701 1.721877 0.687147
-0.988768 -0.060155 3.387021
-0.487693 -1.633426 0.521822
0.899689 -0.022749 3.280759
0.231838 1.659602 0.598172
-1.746373 0.536491 1.532089
-0.438005 0.859129 3.896941
-1.422200 0.987072 1.405528
-1.018201 -1.247220 1.406568
-1.346933 0.054840 2.462953
0.185299 1.016791 3.644373
1.547392 0.576933 0.329686
1.364882 0.822128 0.399183
0.175456 1.426427 2.071208
1.318092 -0.989075 0.685408
1.466135 -0.727157 0.521328
-0.717122 -1.471729 1.866892
0.243272 -0.998113 3.137802
0.510695 0.899873 3.122020
-0.236060 1.706137 1.557417
-0.924347 0.251452 3.408771
0.220114 1.470348 2.307403
1.613444 0.667900 1.264476
1.518325 -0.422490 0.311659
0.442589 -0.893011 3.861156
-1.248081 -1.198987 1.114738
-0.798374 0.332543 3.723470
1.597217 0.615315 1.197374
-1.295541 0.222027 2.605848
-1.346581 1.077731 1.123593
-0.962475 -1.407725 1.543898
-1.430054 -0.896519 1.555999
-1.653573 0.265035 1.472450
1.517267 -1.017625 1.420233
1.582427 0.274183 0.463162
-0.695686 1.565324 1.537751
-0.783982 -1.424071 0.385225
-0.814135 -0.635916 3.806116
-0.114580 -1.537091 0.218278
0.656765 -1.537594 1.975570
0.689692 1.518492 2.022469
-0.677439 1.651980 1.174157
1.085673 -0.074294 2.860724
0.427126 -0.864321 3.254622
0.941435 -0.260346 3.230896
-0.281508 -0.830792 3.418966
-0.388346 1.082192 3.612075
1.767054 -0.171967 1.465167
-0.803701 1.323607 2.159233
-1.425535 -0.495998 2.343209
-0.846884 -1.179034 2.211611
1.236231 -0.446619 2.555300
0.650441 1.001251 2.819131
-1.011464 0.163719 3.361546
1.587580 -0.308506 1.849197
-1.021442 -0.284245 2.846240
-0.803299 0.828929 2.936310
-0.569447 0.750357 3.287663
-1.406691 -0.921078 1.904446
-0.579577 1.623420 1.543785
1.319072 0.277748 2.351310
-0.494988 -1.058985 2.970542
-1.455871 0.663433 0.422452
-0.028693 1.156855 2.826159
0.171766 -1.281545 2.611911
0.457246 -1.622094 0.445755
-0.547361 0.995852 2.819844
-1.564330 0.426790 0.501236
1.629523 0.556677 1.351978
-0.275120 -1.497049 2.113356
1.024149 -1.450408 1.465575
-1.502652 -0.921652 0.859165
0.032590 1.183654 2.835567
0.907482 1.484154 1.256296
1.327754 -0.071528 2.431900
-0.225066 -1.264543 2.751404
0.841590 -0.446222 3.692234
-0.746689 -0.607961 3.345739
-1.237930 -1.210306 1.341366
-0.606824 -0.795963 3.625657
-1.356994 0.238367 2.348320
-0.944984 -1.248347 0.567796
-1.541825 -0.985501 1.475659
0.755011 1.299583 2.243291
0.309090 -1.585158 0.375811
0.839251 -1.527512 1.838071
-1.140271 1.303789 1.437382
-1.309509 0.776069 2.310674
0.514311 1.530567 1.890839
-0.241728 -1.715432 0.520575
1.002575 -1.316272 1.671807
-0.425436 -1.727586 1.243303
-0.335067 1.442118 2.202361
-0.845563 1.294047 0.404577
1.444753 0.989883 1.125921
0.612661 -0.779685 3.698231
-0.743547 0.693257 3.333470
0.957305 0.518771 2.818822
0.790913 0.739398 3.885336
-1.720207 0.559094 1.702823
-0.336691 1.527031 0.382558
-0.168977 -1.050204 3.601746
-1.668441 -0.031332 1.275402
-0.869309 -0.438706 3.764112
1.556171 -0.560221 1.237231
1.751462 -0.160228 1.387490
-0.220158 1.569736 0.091236
-0.393273 1.548426 0.249315
1.514499 0.535785 1.822828
-1.154793 -0.278091 2.769127
0.397951 1.637363 1.378502
0.948588 1.386367 1.834734
0.027668 1.612265 2.005825
0.271321 1.544151 0.356853
-0.927247 0.376910 3.418559
1.371099 -1.005150 0.846579
0.954518 -0.471745 3.278110
-0.153261 -0.971835 3.279687
0.749500 0.759890 3.684802
-0.653227 0.746734 3.769358
-0.177832 -1.326914 2.505757
-0.965881 -0.028190 3.493946
1.533133 -0.140850 1.953373
-0.435895 -1.414889 2.283096
0.126557 1.547147 1.972704
-0.808384 0.699612 3.666151
-0.839753 -1.490670 1.484247
1.707319 0.401225 1.692886
1.285277 0.110079 2.642339
-0.982195 -0.180079 3.929572
0.925947 -0.242619 3.878245
1.555023 0.047626 2.311100
0.441287 1.042414 2.859963
0.499704 -0.975692 3.720240
-0.198738 1.673151 1.638854
1.196949 1.239676 1.341092
0.755348 -0.653596 3.124921
0.652335 -0.730988 3.728269
-0.152287 -1.619145 0.652464
0.171215 0.897517 3.697872
1.748062 -0.309610 0.914178
1.058294 0.644141 2.674182
-0.421118 0.959141 3.602409
-1.000019 1.024683 2.460488
1.622480 0.242884 1.861054
-1.516098 -0.995710 1.197065
-0.890839 1.147019 2.239147
-0.786148 -0.631719 3.627437
0.391609 -0.913740 3.211920
-1.541697 0.700397 0.785275
-1.499683 -0.447227 2.100849
-1.690450 -0.510598 0.830769
0.600544 -0.906731 2.946183
0.935512 -1.225857 0.003319
1.463109 0.766165 0.577816
0.109538 -1.520381 0.181628
1.297188 -0.909154 0.347345
0.733407 -0.772191 3.215918
-0.069440 1.681234 2.081800
0.270013 1.435943 0.149209
1.080600 1.359997 1.168227
-1.325932 1.178827 0.994360
-1.448288 -0.274847 2.334849
-1.133649 -1.107656 0.415869
-0.728067 1.582189 1.714625
-0.211851 1.788512 0.836952
-0.736082 0.554651 3.642480
0.738420 -0.699755 3.416351
0.636337 -0.706791 3.950192
-0.688265 1.342259 0.164080
-1.209026 0.851296 2.122243
0.670257 1.040365 2.623976
0.288428 -1.807416 0.820942
-1.547762 -0.017120 2.200594
-0.473621 -0.908450 3.285630
-0.415632 0.877989 3.790399
1.725315 0.366581 1.546449
-1.010986 1.456830 0.549466
-1.279012 -0.881775 0.056407
1.080917 -1.223178 0.317623
-0.958034 -0.675153 2.868712
0.062346 1.315134 2.667839
-0.105647 1.667427 0.510368
-0.565623 0.879826 3.102858
1.687203 -0.013816 1.653150
0.163603 0.929173 3.299338
-0.885184 1.145783 2.673831
1.545791 -0.722947 0.594056
-0.076547 1.253146 2.696550
-0.436805 -0.900448 3.805760
0.819190 0.600611 2.815812
-1.252686 -0.325747 2.565200
-0.998755 -0.356029 3.234951
-0.413019 1.450621 2.185258
-0.608749 -1.090749 2.538627
1.144194 0.645963 2.623123
-0.610262 1.294221 0.040091
0.147689 -1.654196 0.498400
0.106513 1.738512 0.599732
0.403259 -1.352319 2.492169
1.760593 0.126615 0.507045
-0.802638 -0.490054 3.931186
-1.512791 -0.904387 1.124341
0.432853 -0.952659 3.316337
0.840847 -0.521119 3.657929
1.183086 1.203887 1.306663
-1.036131 -0.082304 3.772847
-0.397076 1.492594 0.303719
1.703311 0.562860 1.190033
-1.003237 -1.295347 0.507227
-0.784200 0.543978 3.083118
0.072295 1.010882 3.336269
0.831240 1.534771 1.588390
-1.376417 -0.623021 1.892289
0.615971 1.600761 1.158638
-0.930837 -1.063490 2.569276
-0.066112 -1.247046 2.783629
0.237256 -1.120523 2.903528
-0.913293 -1.312705 0.025319
-0.836328 -0.412198 3.136131
-1.075318 -0.175432 3.782314
1.394719 0.916023 1.120066
-0.737676 -0.662991 3.752687
-0.490919 -1.480460 0.147472
-1.110153 0.012060 3.491067
-1.426097 -0.494479 0.054118
0.084166 1.718243 0.841218
0.935330 1.534299 1.499675
1.438982 -0.956885 1.032860
1.564148 0.936495 1.051951
-0.810162 -0.578136 3.458268
-1.644063 -0.710782 0.900760
0.689448 0.778785 3.657161
-1.511283 0.278977 0.234774
-0.986601 1.426173 1.119559
0.522563 1.039428 2.607398
0.460463 1.196666 2.681648
-1.045439 -0.824947 2.442082
-1.508681 0.776579 0.401440
-1.566240 -0.550090 1.981105
-1.524195 -0.443135 1.840027
0.543553 0.943696 2.929470
0.949234 1.545452 0.942540
0.912617 0.282692 3.565555
1.242353 -0.936517 0.262014
0.844946 1.078610 2.561710
-1.539956 0.170936 -0.013881
-0.799175 -0.693264 3.108555
0.414531 1.354171 2.458759
-0.978873 -0.001182 3.135883
0.354115 -1.556863 0.551897
0.620052 -0.779081 3.694889
1.566476 0.684711 1.161131
1.171254 -0.656304 2.513120
-0.046551 0.986632 3.366687
1.645197 -0.414588 1.204951
-0.146692 0.870419 3.365883
0.812445 1.588981 1.229701
-1.752129 0.251622 1.066226
-1.618768 0.047616 0.664528
0.064774 -1.143273 3.940593
0.844664 -1.081801 2.402734
-1.046372 1.372896 1.777960
-1.187206 -1.271840 1.220870
0.708561 1.376401 -0.047450
0.050094 -0.943689 3.662584
0.892326 0.449422 3.954931
1.426827 -0.883034 0.468070
-0.615570 0.724560 4.066519
1.806485 -0.028865 1.337766
-1.115708 -0.500995 2.725378
-0.267411 1.750336 1.067447
-0.843418 1.313420 0.391440
-0.897053 0.884705 2.790163
-0.162135 -1.072812 3.214575
1.642374 -0.541572 0.958847
-0.732771 -0.646881 3.514069
-0.766956 -1.565874 1.334617
-1.084515 -0.554048 2.770599
1.332892 1.199816 1.046861
0.856701 0.666803 2.964602
-0.390580 1.650641 0.686839
-1.523914 0.009914 0.074053
1.439516 -0.367530 2.051816
-0.461671 0.876724 3.771807
-0.544854 -0.790928 3.202052
1.256528 1.176515 1.689829
0.813917 -1.519229 1.316660
0.291714 1.045743 3.797877
0.678889 -0.581291 3.581764
0.897895 -1.416489 0.947579
0.153045 -1.031450 3.387328
-1.509846 0.495290 1.927838
-0.066715 -1.643192 1.920279
0.646802 0.866632 3.163818
0.577937 1.402485 0.139623
-1.618526 -0.054502 1.538930
-0.003360 -1.757685 1.233121
0.412438 -1.086277 2.948800
1.418179 0.780843 0.270276
-0.007408 -1.467146 2.270613
0.604696 -0.772357 3.823440
-0.473126 1.005675 3.394951
-0.917660 0.314236 3.422679
-1.324435 -1.065952 1.577634
-1.481119 0.518518 2.103008
-1.603972 -0.497487 0.326190
-0.881983 0.371962 3.406215
0.587435 -0.930381 3.269119
-0.856808 -1.016657 2.619760
1.716850 0.279493 0.868883
-0.873407 -1.531503 1.308426
0.385736 -0.960091 3.123485
1.521869 -0.884080 1.110752
-0.217617 -1.509574 0.139723
-0.790560 -1.676283 1.134617
-0.920040 1.369988 1.664885
-1.529418 -0.569886 0.847822
-1.152980 -1.278555 0.888112
0.740332 1.413041 0.454095
1.472054 -0.792670 0.383510
-1.705950 0.443830 1.139382
1.307431 0.590137 2.473213
1.061130 0.403929 2.885358
-0.286770 -1.404016 2.380666
-0.219008 -1.788966 1.444605
0.872470 1.435243 1.625439
0.482316 0.778922 3.485713
-0.110482 -1.694394 1.105040
-0.566591 1.464152 0.232208
-1.445965 0.832991 0.282170
1.286428 -1.012251 0.728295
0.807319 -1.502660 0.948041
-1.006820 1.115028 2.122510
0.315611 1.644987 0.824027
-0.317218 1.299930 2.675444
-0.922737 -0.505240 3.037948
-0.814485 -0.678179 2.895568
0.444104 0.876587 3.194932
-0.241364 -1.669569 0.764492
0.942432 -0.163266 3.085129
1.263425 -0.913053 0.136464
1.658888 -0.020711 1.624494
-1.151607 1.203851 0.621983
0.699214 -0.732360 3.910715
-1.282508 1.154218 1.838651
1.066568 0.498700 2.759415
1.182789 -1.167647 0.777917
0.222995 1.415688 2.192979
0.860087 -0.394897 2.991133
1.543244 0.670812 0.953810
1.526553 0.633416 0.823607
-0.864368 -0.536832 4.031449
-1.470365 -0.296424 2.139404
0.780779 1.397919 0.589162
-0.929375 0.370556 4.011264
0.467291 -1.716746 0.977246
1.480775 -0.792184 1.411125
-1.041041 1.353254 0.701376
-0.025515 1.573869 2.117320
-0.457876 -0.811053 3.039027
-0.808116 -0.492468 3.760347
1.072297 -1.217372 1.503354
-1.594440 0.480794 1.790237
0.948474 -0.422575 3.799888
1.543189 0.879502 1.155176
0.992127 1.434516 1.304283
-0.797246 0.449241 3.639942
0.886309 -1.463646 1.372294
1.598409 0.729832 0.847035
-0.198291 1.551036 0.410946
-0.866363 1.477746 0.896653
1.326151 1.264344 1.347539
-1.350969 0.681755 0.098672
1.579583 -0.276617 1.947743
0.639110 1.535034 0.644397
1.247120 -0.815736 2.339230
-0.655515 1.622072 1.363536
1.615615 0.384333 1.850278
-1.543864 -0.589634 0.751749
0.660753 -1.571589 0.789601
1.008156 -0.076939 3.699142
1.164135 0.989014 0.088129
0.809241 -0.729072 2.880749
-1.081810 -0.154549 2.921805
1.015575 -0.386874 4.007014
-1.651667 0.320628 1.751949
-0.985524 -1.327277 1.693924
0.608602 1.247525 2.521713
-0.907496 -1.362313 0.329827
1.145296 1.332040 1.743166
1.611717 -0.263607 1.009548
-0.396096 -1.557206 1.831632
-1.402239 -0.486255 2.337226
-1.565248 -0.284087 -0.033010
0.873487 -0.377132 3.742758
1.153644 0.681250 2.462696
0.121344 1.018870 3.680681
-1.696952 0.040496 1.575780
1.493394 -0.758913 1.341713
-1.033724 -0.218100 3.697633
1.488639 0.911447 1.177927
1.261670 1.202323 1.639009
-0.844592 1.341444 0.262129
-1.670154 0.559839 1.100889
-0.546130 -0.820354 3.867996
0.434851 -1.498745 1.941723
0.354482 -1.535161 0.222657
-0.241545 1.064326 3.261191
0.244609 -1.504411 0.048451
1.362416 -1.030649 0.941987
-1.454151 0.537552 2.142588
0.869612 1.379098 0.494265
-1.197370 1.121403 1.995560
-1.329346 1.045563 0.797563
-0.512901 -0.937139 3.433343
-0.333321 -1.623003 0.415438
1.558700 0.294081 0.415508
1.171933 1.270018 1.657700
-1.646331 -0.221302 0.928076
1.078480 1.193092 0.145762
-1.684385 0.335885 0.705713
-0.940501 0.020377 3.627414
-1.455783 -0.974367 0.830438
1.300231 -0.995971 1.995891
1.343985 0.634157 -0.003652
-1.153654 -0.570928 2.481762
0.008844 1.021440 3.022132
1.684462 0.305432 0.736920
-0.422436 1.340859 2.540720
1.706144 -0.520326 0.895538
0.517015 1.707205 1.492295
-0.935212 0.598739 3.227454
-1.535804 -0.352363 2.130878
-0.655974 -1.204718 2.452625
-1.370724 -1.086140 0.953140
-0.635801 -1.535288 1.588277
-1.511339 0.296236 2.004348
0.485158 1.733172 1.162643
0.728472 -0.625838 3.416428
1.610903 -0.500473 1.660113
-0.317397 -1.684163 0.837940
0.878160 -0.266708 3.598052
-1.590595 -0.540971 0.669404
0.899154 -1.434069 0.344537
-1.279977 0.825398 -0.103952
0.847152 1.309766 0.294003
-0.548994 -1.238129 2.347593
0.563054 -0.816713 3.126644
0.600512 -0.770852 3.672612
0.009938 1.581480 2.034806
1.013129 1.041360 2.161841
-1.710521 0.234543 1.637149
-1.679813 -0.122019 0.433672
-1.576884 0.330552 0.413459
1.012230 1.184597 0.231669
0.518313 -1.246794 2.435075
-1.413781 -0.797950 1.741507
-0.739766 -1.328177 0.317961
0.780475 -0.609049 3.331112
1.071056 -0.166757 3.323602
-0.030708 -1.768492 1.093608
1.572582 0.063114 0.216935
0.703095 0.666690 3.630981
1.355075 0.889896 0.482749
-0.748424 1.540102 1.172975
1.457612 1.035138 1.134610
-0.037170 -1.557773 0.191429
0.851512 -0.418263 3.508565
0.876617 1.329884 2.026670
1.264725 -1.025864 0.221589
-0.139795 -1.320607 2.483874
-0.929528 0.541408 3.776603
0.614780 1.515446 2.045329
0.236073 1.493174 0.162343
-0.865148 0.560227 3.195245
-1.488489 0.939790 0.726448
-0.966611 -0.184336 2.931911
-0.171820 -1.299904 2.650282
1.693850 0.517385 1.200734
1.494070 0.354194 2.133749
-0.703685 -1.601615 0.900333
-0.946550 0.894315 2.581585
-0.911804 -0.686534 2.777381
1.546644 0.219177 -0.040938
-0.366092 -1.332926 2.355766
-0.300651 0.879988 3.589604
1.086734 0.088855 2.994710
-0.530163 1.082362 2.800814
1.320710 0.653339 0.052419
-1.736076 0.032062 1.519347
1.358101 -1.054386 1.457780
-0.396421 -1.589331 0.756928
-0.774530 -0.601479 3.308798
-0.015034 -1.407876 2.435315
0.451794 1.342081 2.208824
0.624084 -1.655521 1.367529
0.607698 -0.891711 3.210460
1.583272 0.420193 1.074207
-1.505036 -0.902789 0.971381
-1.135996 1.049753 0.381287
-1.767673 -0.070267 1.552283
-1.265876 0.139877 2.671220
1.201955 1.242504 1.356114
-1.202810 1.124660 0.544209
-1.613801 -0.449220 0.839439
1.529801 -0.601069 0.326055
-1.374493 -1.053056 1.366855
0.950698 -1.394687 1.686395
-1.114771 0.437791 2.869426
-1.755163 -0.343255 1.207101
1.214472 0.616610 2.400321
1.791794 0.087977 1.214525
0.857755 0.816732 2.628472
-0.611664 -0.927145 3.632898
0.846788 -1.553632 0.978526
-1.330110 -0.857452 2.163910
-0.495827 1.165522 2.571086
1.565363 0.095592 0.272846
-0.576109 1.449973 1.949685
0.118460 -1.786519 1.042670
1.093139 0.680666 2.624601
-1.499832 0.484529 1.912166
-0.743499 -0.606477 3.352662
0.073544 1.661357 1.905899
-1.272424 -0.812764 2.171664
-1.279069 0.041625 2.705890
1.328222 0.558426 2.375296
-1.634719 -0.508640 1.277252
0.387215 1.445068 0.327814
1.125419 1.036332 1.916384
0.771886 -1.448482 0.378391
0.348556 0.854587 3.957514
-0.100978 -1.388312 2.380838
-0.837195 -0.501732 3.150031
-1.588994 -0.745060 0.904462
-0.796976 -0.601449 3.407197
-0.208491 -1.093906 2.933468
1.742862 -0.240278 0.709767
1.747564 -0.037867 1.173350
0.713460 -1.177112 2.528375
-0.531043 0.753896 3.546084
-0.900328 -0.493976 3.855965
0.524267 -1.551280 1.852434
-0.970588 0.225854 3.756282
-1.013453 -1.334140 0.663321
1.490278 -0.790520 0.200769
-1.748458 0.140186 0.796638
-0.322644 -1.728340 0.990315
-0.501163 -1.679613 1.085640
-0.224752 0.975584 3.948217
1.282888 -1.206398 1.472108
1.597668 -0.446887 1.918083
-1.039646 0.035535 3.506256
-1.665295 -0.494141 1.464853
-0.848552 -0.658968 2.956304
-0.025650 1.576532 2.122561
0.154285 1.306813 2.671857
0.932830 -1.463178 1.175165
1.454064 0.545637 0.374825
1.539867 0.938037 0.964803
-1.537403 -0.719956 1.730032
-0.981085 0.271317 3.175957
0.056737 1.610603 0.656002
0.457430 -1.746553 1.192052
0.836665 -1.520740 1.314790
-1.132670 0.060993 2.947285
1.153718 1.340402 0.506089
1.381425 0.928948 1.736004
0.448831 1.571980 2.045187
-0.004115 -1.708075 0.853935
-0.719533 -0.750764 3.032063
0.839100 1.449754 0.893192
1.356880 -0.464555 2.305922
0.136816 1.018244 2.894555
0.254582 -0.949746 3.465254
1.480287 0.594925 0.062464
0.368076 -1.789942 0.858441
-0.945616 -0.293194 3.071574
1.387625 -0.906765 0.436003
-0.406351 1.476761 0.587733
0.598163 -1.603668 0.899036
-0.039889 1.720015 1.256818
-1.289917 -0.585370 2.487466
0.199046 -0.970681 3.613553
1.567353 0.634655 1.872939
0.976615 0.320130 3.494301
0.153343 1.697305 1.445948
-0.943353 0.354462 3.269986
1.302664 0.905439 0.274129
1.033130 -0.118478 3.894611
0.474972 0.906581 3.302803
0.912742 -0.142656 3.132899
0.962517 -0.440120 3.901823
0.819073 -0.484823 3.153995
-0.643342 -0.806252 3.620363
-0.660952 -1.558191 0.878121
-1.709118 -0.323396 0.803601
-0.908373 -0.470628 3.331907
0.965036 -0.510442 3.055633
1.010959 1.237516 2.035919
0.609862 -1.252463 2.481561
-1.390809 -0.755379 2.022269
0.477799 -1.624730 0.943661
-1.030652 -1.374299 1.265125
0.938692 -1.213956 1.861397
-1.214019 1.302386 1.147249
1.024072 -0.270930 3.092176
-1.394766 0.658432 0.207870
-1.112263 0.699225 2.469531
-0.235445 1.737826 0.899526
0.690716 -1.457486 2.029644
0.752515 0.685089 3.815639
1.527844 1.024834 1.255195
-0.942271 -0.708023 2.728886
-0.280557 1.593269 1.253599
-0.336377 -0.945360 3.663548
0.490268 -0.881373 3.849475
-1.241616 0.796173 2.297648
-0.795904 0.748720 2.758222
1.226893 1.067208 1.681291
0.928766 -1.421976 1.704974
-1.331505 -1.053104 1.249000
0.227308 1.074578 2.832051
-1.298765 -1.089467 1.729282
-1.518904 -0.340467 0.067303
-1.584181 0.754989 1.319915
-1.652249 0.278885 0.755154
-1.532435 -0.524936 0.384878
0.258341 -1.077407 3.633746
1.721417 -0.587289 1.156650
-1.430631 -0.642837 0.423222
-1.114105 -1.145742 2.120916
0.775096 1.442665 1.839967
1.344150 -1.136530 1.784535
-0.926157 1.451003 1.407589
0.313014 1.226548 2.632074
-1.468826 -0.916408 1.363652
1.476443 0.160641 2.063142
1.090853 1.288719 0.775581
1.311315 -0.474325 2.461074
-1.000906 -0.951954 2.360289
-0.840735 -0.557254 3.934726
-0.544129 -1.616970 1.729616
-0.840867 -0.598293 3.363149
1.603552 -0.389257 0.747075
0.432781 1.184064 2.621039
1.516134 -0.854003 1.516207
0.943763 -0.403218 3.278230
-0.875336 0.937720 2.562138
-0.556373 0.838824 3.145195
0.621870 1.559693 0.622845
-0.579600 -0.693321 3.711987
1.534441 -0.744306 0.650127
1.753326 -0.393561 1.568212
1.284595 0.091055 2.605654
-0.968172 -0.451231 3.489294
-0.331796 0.994165 3.207580
1.036301 -0.988152 2.462707
0.774310 -0.726742 2.954580
-0.916608 1.389448 1.180080
0.780694 -1.441191 0.555005
-0.022627 1.672284 1.817732
0.669739 1.611217 1.486753
0.193623 0.977556 3.461705
1.167114 1.057696 1.815791
0.299269 1.664504 1.662093
1.628208 0.682228 0.991430
-1.443455 -0.321701 0.160614
-0.087108 -1.447261 2.216829
-1.506645 0.544551 1.932086
0.017085 -1.402522 2.369610
0.841674 0.604858 3.256779
-0.947427 1.353011 1.880985
-1.349507 0.988437 0.772692
0.174325 -1.769134 1.164538
1.529369 0.691629 1.783975
-1.130851 -0.242566 3.528367
0.758824 -1.453680 0.576852
-1.291014 1.057159 1.671631
0.479252 1.392289 2.410345
-0.033172 1.679967 0.783225
-1.128320 0.374542 2.884909
-0.999422 1.358429 0.462473
-1.571963 0.340415 1.563425
-0.734625 -0.552474 3.351970
-0.922033 -1.334999 0.246056
-1.166732 -0.115825 2.956014
-0.814828 1.207111 0.076982
0.550954 -1.604888 1.643217
-0.891193 1.076616 2.396261
-0.239284 -1.566257 0.074424
-0.308269 1.591971 1.909945
0.522419 -0.945390 2.877079
0.130324 0.971875 3.132943
0.589212 -0.780250 3.504432
1.657628 0.368626 1.147927
-1.494889 0.435568 0.194161
-1.641309 0.332075 1.563285
0.930529 0.211732 3.778503
-1.146749 -0.989828 0.082799
-0.386716 1.530631 0.254724
-1.409292 -0.932318 1.341388
0.774868 -0.988079 2.635928
-1.080445 -1.115270 0.314774
1.291577 1.024863 0.440951
-0.977756 -0.243047 3.774580
-0.969730 -0.120011 3.279202
0.340416 -1.767569 1.227709
-0.642338 -1.349008 2.389457
1.166029 -1.171512 1.608286
-0.761827 0.690318 3.017558
0.927063 -0.378015 3.284011
1.718329 0.377270 0.807931
-1.456509 0.895853 1.019049
0.850189 -0.555199 3.565495
-1.171664 1.118565 0.413886
-0.991426 1.359839 0.795911
0.665175 0.949121 2.818789
1.013798 -0.305140 3.423170
0.422142 -0.891402 3.677326
0.701577 1.397697 2.129852
0.977204 0.198728 3.827446
-0.950127 -1.126455 2.429589
0.834838 1.376976 0.163920
-0.502208 1.216065 2.705789
-1.315403 0.842567 0.073831
1.494035 0.774274 0.573804
-1.244539 -0.870632 2.189269
-1.598093 -0.330851 0.919204
1.086139 1.067100 1.934543
-1.511223 0.337052 0.326894
-1.393106 -0.943553 1.560117
0.926863 1.428003 0.752997
0.699367 0.781777 3.651881
1.350104 -0.085533 2.371663
1.580502 -0.252833 1.865173
1.071146 -1.164650 0.499518
0.802638 1.493557 0.776118
1.553249 -0.007172 2.177851
-1.623672 0.547860 0.684121
1.105986 -0.022304 2.959967
0.978724 0.079077 3.339411
0.406097 -1.549858 0.048356
-1.218013 -1.248290 0.618521
0.735730 -1.599563 0.936212
-1.348374 0.877727 1.710058
0.757279 1.583837 1.427131
-0.768970 -1.537083 0.411917
1.252096 -0.150512 2.653114
0.218392 -1.745091 1.268962
-0.024132 1.602242 0.454154
1.580830 0.035702 2.028974
-1.596731 0.409419 0.459016
-0.354937 -1.619259 1.904189
-0.436694 -1.646876 1.275097
-0.580205 0.996752 2.935626
0.928694 0.514872 3.078092
-0.177551 1.701665 1.231578
-1.387977 -0.925083 1.935138
-0.463222 -0.921006 3.423689
0.752721 1.179868 2.407369
-1.198125 1.091824 2.042921
1.518905 -0.354506 2.115203
1.388512 -1.041338 1.235629
0.217020 1.008678 3.401007
1.189729 -0.089496 2.793066
-0.956082 -0.890888 2.561413
-0.963907 0.341492 3.609618
1.491267 0.479731 2.095168
-0.310795 0.978297 2.876815
-0.397303 -1.482587 1.837937
0.769832 1.279424 2.114936
1.655033 0.096665 1.681058
-1.627789 0.681087 0.724386
-0.109032 1.016904 3.329428
1.172447 -1.384188 1.050135
0.665824 -0.838096 2.974499
-0.760421 -0.772530 2.930488
-0.999588 -0.350361 3.384953
-1.289541 0.882911 2.099416
0.484417 1.652726 1.250139
0.279121 1.706229 1.105849
0.954613 0.429267 3.537799
-1.415197 -0.300606 2.481131
1.334293 0.818970 0.229715
1.663015 0.046768 1.888724
0.360955 0.905764 3.241324
0.802715 -1.339787 1.742160
0.766802 -0.740800 3.052765
-1.589735 -0.445775 1.691004
0.599306 -1.305479 2.197923
-0.313081 -1.614163 1.805246
1.159349 1.179553 1.474461
-0.558061 -1.422294 2.106486
-0.073431 -1.332188 2.514596
1.033149 -0.252484 3.697788
-0.540271 0.900600 3.095251
-1.526381 0.865225 0.901962
-0.210075 -1.771281 1.227773
-0.761561 -1.569683 0.730376
1.549891 -0.210110 0.365867
-1.704694 -0.437769 1.114784
1.480908 -0.626569 0.330296
-0.046382 1.375282 2.407519
-0.603936 -0.753805 3.534796
-1.337603 1.058533 0.677840
1.637069 0.043228 0.615655
-0.820891 1.307559 2.071625
0.333332 0.865409 3.385210
-0.294427 1.162157 2.595991
1.099858 1.013189 2.085548
-0.120835 1.722471 1.291673
-0.050463 1.037526 3.168617
-1.369699 1.111772 1.649046
-0.295256 -1.604452 0.454110
-0.478347 0.776828 3.135935
-0.102169 -0.978014 3.645783
1.097516 1.310629 1.793262
-0.892750 0.471712 3.358300
-0.761436 -0.606207 3.406792
1.564459 0.282379 0.259581
0.512226 -0.783157 3.337117
0.114009 -1.534291 2.123676
-1.811567 0.055576 1.132655
0.747526 -0.734678 3.404093
-1.272480 -0.856428 0.145736
-0.226735 -0.960080 3.950371
-1.221260 0.090521 2.536573
0.101727 1.011287 3.753585
-0.391482 -0.984202 3.765871
-0.561942 -0.776304 3.243572
0.967188 -0.278010 3.268469
-1.133807 0.122160 2.735520
1.386699 -1.152689 1.148595
1.458084 0.989318 0.637235
-1.655624 0.328597 1.113925
-1.186615 -0.752737 2.449392
-0.331877 0.996236 3.887782
1.262804 0.524138 2.528926
-0.482948 0.860482 3.538801
1.748737 -0.153631 0.582374
-0.651795 -1.073213 2.664664
-1.494410 -0.324514 2.315771
-0.857374 0.444368 3.402762
0.244503 -1.162855 2.576866
-0.753946 -1.553800 1.775792
-0.879968 0.159287 3.483207
-0.068824 0.955838 3.262593
-0.849853 1.046800 2.451206
0.572123 -1.597104 0.588787
-0.718174 0.692129 3.497287
0.544804 1.301447 2.535770
1.430956 0.980795 1.115388
-1.781460 0.111945 1.330244
-0.732185 -0.859278 2.795552
1.186763 0.107093 2.711081
-1.685024 0.139611 0.915146
-0.633913 1.417295 0.377775
0.488340 0.955462 2.977035
-1.175676 -1.080337 0.733760
1.044759 1.519370 1.242943
0.908528 -1.407387 1.750687
0.757313 -0.569762 3.196903
-0.977774 0.413775 3.218696
0.827190 -0.427793 3.281786
1.592771 -0.629110 1.879143
-0.214391 1.682744 0.598241
0.955048 0.185714 3.258878
1.421067 0.895106 2.073505
-1.425691 -0.529328 2.349665
-0.418860 -1.618621 0.381291
-0.693469 0.651393 3.327386
-0.003121 1.325498 2.738244
0.453554 -1.572288 1.697613
0.548749 0.984165 2.952878
1.208291 -0.104109 2.635565
0.455001 -1.524137 -0.009200
1.251959 -1.164796 1.602340
0.757405 -1.426167 1.501153
-0.115577 -1.193986 2.723057
0.191228 1.553512 1.954937
1.534259 -0.551111 1.401402
-0.162062 1.467458 2.377564
-0.658595 0.784514 3.979523
-1.497168 -0.550454 0.266797
1.141898 -1.259523 0.700064
-1.433086 -0.974238 1.335143
-0.007723 -1.716939 0.522146
-1.695906 0.241046 1.040024
1.562191 -0.655293 1.594798
-0.395947 -1.171731 2.644918
-0.801829 -1.445959 1.703635
-1.352527 0.846224 -0.005562
0.480580 1.076462 2.763452
0.733880 0.706759 3.528188
-1.610773 -0.703666 1.423063
-0.790439 -0.584184 3.401469
0.327231 0.937561 3.596675
0.940437 0.110161 3.716359
0.972521 1.292785 0.584200
1.344544 0.210359 2.656071
0.227898 1.689554 1.001836
-0.538084 1.640181 0.918129
-1.005830 1.344063 0.833619
0.981037 0.547927 2.723032
1.123878 1.310851 0.545068
1.064371 -1.158569 0.335291
1.418963 -0.259122 2.225355
1.681741 0.070987 1.696797
-0.896613 -1.473439 1.421982
-0.388916 1.726179 0.761966
0.049478 0.942256 3.019299
1.189518 0.059272 2.698058
0.756618 -1.486500 1.595123
1.048945 1.241522 1.747050
1.054462 0.359359 3.036948
1.119342 0.611003 2.728529
-1.506616 -0.169097 0.174508
-0.526881 -1.480321 0.066919
0.087712 0.903025 3.762489
1.566948 0.272551 0.194711
-0.118498 -1.453894 2.228099
-0.604169 -1.613032 1.099673
0.823347 -0.492010 3.107984
0.684781 -0.639574 3.414397
-0.305906 1.706020 0.775095
-0.417172 0.908318 3.621150
-0.353100 1.756937 1.436993
-1.344447 -0.833270 0.171585
0.348444 -1.448849 2.132671
-0.436961 -1.622649 1.078919
-0.653444 0.682670 3.306862
-0.453922 -1.491363 0.354771
0.104033 -1.738550 1.869859
0.306061 -0.903490 3.911915
0.331042 1.690149 1.609361
1.308054 0.843950 -0.072586
0.598756 -0.925034 2.968386
-1.201519 -1.100818 1.709272
1.234944 1.170158 1.762496
0.963030 0.392248 3.186039
-0.441376 1.731718 1.407932
-0.363072 1.448625 0.146907
-1.555621 -0.751265 1.231070
0.607784 -0.904293 2.796123
1.277693 1.224965 1.251143
-0.466740 0.802962 3.533618
1.329794 -0.929652 1.987490
0.098518 -1.146757 2.971855
-0.941769 1.492973 1.178994
-1.024184 0.243468 3.406240
-0.807605 -0.546580 3.674098
-0.980368 -0.116514 3.690647
1.333249 -1.072977 1.630415
1.522480 -0.327606 0.164746
0.832676 -1.383021 0.361713
0.400054 -1.133106 2.626797
1.466043 0.792867 1.877800
-0.574030 1.346190 -0.014133
-1.462565 0.234175 2.106435
0.603865 -1.091730 2.684945
0.605263 -1.655141 0.765577
0.438607 1.276500 2.476282
-0.892705 1.382863 0.698959
-0.058125 1.673323 1.853922
-1.233093 -0.645267 2.498620
1.599614 -0.786663 1.642946
-0.292973 1.758744 1.160573
-0.195148 1.070752 2.859657
-0.163073 -1.185925 2.796751
-0.462277 1.578025 0.495246
-0.373302 -0.954286 3.886871
0.215118 -0.940146 3.125965
-0.150406 1.270477 2.686336
-1.363044 -0.970005 0.262185
1.340272 0.031741 2.496778
0.597204 0.682388 3.464033
-1.622648 -0.594538 1.472877
-0.717956 -0.673562 3.838704
1.129811 1.258405 0.892353
-0.765329 1.578943 1.341123
0.373325 -1.595863 0.681642
0.878838 -0.522301 2.982632
0.789065 -0.869000 2.808539
-1.547221 -0.509576 1.686469
1.538552 0.339448 2.005216
-1.517578 0.517574 1.773617
0.682825 -0.752777 3.899001
-0.937453 -1.410227 0.720594
1.620456 0.175491 0.727129
-1.487832 -0.435982 2.078910
-1.699153 0.169692 0.728864
-1.092124 1.316231 1.615565
-0.344399 0.885687 3.780454
1.665390 0.096296 1.585139
-1.405680 0.119148 2.490529
0.487528 -1.416006 2.224983
0.951880 -1.298745 1.898952
-1.207091 0.084160 2.749562
-1.770755 -0.183532 1.347624
-1.328090 1.084623 1.388826
-0.098577 1.757033 0.700998
0.779510 0.937851 2.741346
1.285867 -0.898228 2.048660
-0.783747 0.636772 3.026839
-0.970285 -0.026006 3.560520
0.653330 -0.868997 3.922014
0.207510 -1.426368 2.347321
0.239310 -0.935055 3.833566
-0.225677 -0.981101 3.115902
-0.507169 0.798539 3.625326
1.355121 -0.397575 2.473896
0.166215 -1.004148 3.337481
0.020847 -1.044537 3.776689
1.088250 0.660234 2.421258
-0.460911 -1.696156 1.375452
0.008015 1.590160 0.614233
-0.666490 -1.155025 2.535124
0.301637 -0.930450 3.139658
-0.745662 1.128369 2.462783
0.981540 -1.435878 0.654952
0.990169 -0.253987 3.342607
0.974435 0.373703 3.801602
-0.603068 -1.617025 1.132948
0.432891 1.727007 1.285675
-0.056164 -0.961237 3.190559
-0.766937 -0.586361 3.093009
-0.254822 1.024908 3.457561
-1.153460 1.325718 0.890504
-0.514996 0.950296 3.247451
0.910133 -0.432078 3.504247
-1.053900 -0.182708 3.638136
0.706471 1.529880 1.735296
0.615201 -1.398590 0.228227
1.312952 -0.538441 2.450710
-1.052372 -1.117828 1.936883
-1.106730 0.428744 2.705751
0.702584 1.603280 1.471521
-0.029972 1.549598 2.049415
-0.239879 -0.924544 3.845384
0.988224 -0.769524 2.525463
1.319870 -1.098275 1.446502
1.462355 0.735418 1.915467
0.675082 -1.276840 2.322478
0.837983 0.522285 3.557513
0.981927 1.253082 1.984351
1.607783 -0.199281 0.542755
1.720922 0.152482 0.621956
-1.637372 0.659656 1.703174
0.307483 1.666148 1.199840
1.050419 -0.327219 2.963553
0.763302 0.941955 2.731524
-1.316112 0.884188 0.876133
-0.834315 -0.790396 2.728359
1.333367 0.543013 2.125681
-1.642163 -0.481169 1.436251
0.142182 -1.052509 3.664561
0.941421 -1.168810 2.211589
-0.832014 0.941114 2.666223
0.943101 1.409396 1.620339
-1.440344 -0.935975 1.102261
-0.659985 1.685462 0.914572
-0.669027 0.803760 3.675408
1.047054 -0.234854 3.964130
-1.518371 0.846062 1.330831
1.543317 -0.227969 2.040003
1.616721 0.628155 1.262311
1.235948 -1.172415 1.097201
-0.724284 1.558798 1.842233
-0.029330 -1.306588 2.463905
-0.496448 0.833813 3.187129
-1.804611 -0.138563 1.385823
-0.880961 -0.585318 2.951231
-0.897670 0.489358 3.904282
0.399237 -1.642932 1.710513
0.915598 0.432986 3.115366
-1.159727 0.743613 2.623788
0.765739 -0.716811 3.673228
1.316146 -0.442359 2.561108
-0.996917 -1.308921 0.327405
-1.054731 -0.025903 2.962585
1.271603 -1.237113 1.367701
1.413067 -0.320111 2.146450
0.328931 0.874989 3.688729
0.228425 0.951949 3.336498
-1.064258 0.332868 3.239355
0.471072 -0.936654 3.196367
0.021598 1.010187 3.720084
-0.067387 1.838955 1.036510
-0.322572 -1.770202 1.076852
1.010102 1.497792 1.338106
-0.242433 1.519769 0.039652
-1.270653 -1.180033 0.635895
-1.171929 0.938512 0.205135
1.278236 0.657892 0.002290
-1.484406 -0.816894 1.096187
-1.609555 -0.655473 1.863915
1.011028 -0.017983 3.500106
-1.669572 0.828297 0.914687
-0.637743 1.458559 0.401481
0.628933 -0.633772 3.274595
0.792614 -1.533180 0.529409
1.450225 0.896503 1.135473
-1.410841 -0.941252 1.949026
-0.819852 -1.183493 2.272045
0.409845 -1.471071 2.216133
-0.601808 1.572869 1.617397
-0.168788 1.422758 0.108266
0.538023 1.630854 1.060601
-0.976510 -0.970934 2.402331
-0.961350 -1.337538 0.700501
-0.789289 -0.668155 3.091332
-1.086163 0.760890 2.454240
0.954484 -1.465737 0.476165
1.619796 0.534784 0.426429
-0.981131 0.049636 3.289909
-1.680007 0.544572 1.654717
0.567393 -1.723283 1.354048
-0.462079 -0.893119 3.307947
1.403342 0.295196 2.263078
-0.157591 -1.729011 0.809627
1.399666 -1.040194 1.103990
1.289701 0.831809 0.071229
-0.838034 1.477088 0.763257
-1.188797 1.226653 0.351190
0.305318 1.677939 0.610362
-0.822961 -0.381766 3.283883
-0.246974 -1.179743 2.520212
0.628430 0.940456 3.034761
-1.024005 0.038647 3.159680
-1.469362 -0.181173 0.145259
-1.623492 0.637510 0.635242
1.473790 0.370792 2.142717
-1.317159 0.079924 2.603067
-1.475930 0.740476 1.795027
0.012779 -1.655284 1.800339
-1.101167 -0.817374 2.466464
0.215277 1.082673 3.726130
-0.713690 1.201770 2.443750
1.578603 -0.030060 1.936564
1.737173 0.301639 0.986465
1.030396 1.203074 0.300666
-1.291220 -1.291817 1.390932
-0.228831 1.768342 1.341208
-0.679782 -1.352576 0.213859
-1.505210 0.645517 0.538811
0.959770 0.074126 3.188981
1.256191 1.174297 1.420592
-1.733947 0.066104 1.302846
-0.229557 -1.753151 1.067596
1.149523 -0.359880 2.891907
1.130654 -0.232043 2.842344
0.807350 0.613207 3.837792
0.010911 1.653455 0.289597
1.512244 0.733442 1.849682
-0.837897 -0.352858 3.641643
1.059390 0.144363 3.255097
-0.013410 -1.054301 3.860745
-1.235032 0.970667 0.167210
0.326809 -1.739137 1.086697
-0.531811 0.804352 3.030456
1.530292 -0.730390 1.666340
0.778111 1.380768 1.922992
-1.175942 1.340176 1.132007
-0.187415 1.592962 0.478848
-0.264880 0.993919 3.676461
-1.419089 -0.797893 0.535868
-1.357666 0.475657 2.403818
0.396461 1.275706 2.643713
-0.033368 -1.140048 2.782093
-0.906792 1.114532 2.238631
-1.663362 0.593634 1.517461
1.360841 -0.669230 0.208131
1.113125 0.394087 2.833907
-1.199714 -0.977128 0.257864
-0.793781 0.959193 2.508820
0.876983 -1.460090 1.906801
-0.757150 -1.446862 0.304229
-0.863560 -1.478284 0.842001
1.686504 0.199773 1.487524
-1.377127 -0.671853 1.888959
-0.788553 1.003884 2.553752
-0.308575 1.030124 3.897969
-0.143678 -0.992556 3.769039
-1.336848 -1.267599 0.960795
0.580993 -0.924294 2.757359
1.444557 0.829453 0.298765
-0.936740 -0.527844 3.406523
1.197418 -1.181563 0.166697
1.602688 0.541887 1.671518
0.900191 0.518859 3.053803
0.869656 0.552930 3.560885
1.063400 0.986162 1.977377
1.220655 0.272108 2.845395
-0.469879 0.941754 3.346829
-1.370887 -1.126288 1.529608
0.941679 -0.696020 2.649684
1.098443 1.189096 1.689641
0.152293 -1.571324 2.035772
0.964964 0.007838 3.183016
-0.399794 1.319879 0.077466
1.241502 0.771498 2.472606
-1.222422 -1.258112 1.437645
1.706255 0.581620 1.183769
0.246222 1.448787 0.134435
0.677393 -1.380156 0.144032
-0.155431 -1.030566 3.409405
-0.138262 1.016224 3.134491
-1.633250 0.047894 0.691987
-0.959411 0.032643 3.249870
-1.164979 1.288496 0.837964
1.249427 -1.116881 1.937142
0.250822 1.674697 1.115034
-1.643550 0.341774 0.760349
-0.987492 0.107218 3.596850
-1.183439 -1.095350 0.452678
-0.680590 0.762786 3.565661
-0.817227 -1.489468 1.557510
1.461348 -0.951815 0.888648
1.406932 0.345451 2.441181
0.888284 0.298382 3.357278
1.635361 -0.488074 0.764288
-1.458762 -0.251611 0.147102
-0.383067 1.669221 1.452232
-0.045653 -0.965858 3.930132
0.822314 -1.317841 0.114709
-0.318763 1.181646 2.513366
1.648335 0.639268 0.774770
0.941321 -0.683566 2.812811
-1.206265 -0.045895 2.646851
0.472578 -0.735212 3.704705
-0.765898 1.516108 1.758886
-0.532361 -1.575182 0.434763
1.262803 0.082077 2.621655
0.547012 -1.680613 0.668426
1.003246 -0.520554 3.793362
-0.085264 1.575362 2.125241
0.981952 1.171336 0.237323
-1.254091 0.096505 2.594205
-0.596379 1.615151 1.342791
-0.689463 -0.693133 3.043687
1.435847 0.013177 2.350137
1.564703 0.650552 1.664862
-1.285544 -0.732528 0.088610
0.854156 -0.516240 3.480384
-0.671181 1.464676 0.327224
0.778305 -0.635093 3.697355
0.369608 1.743478 1.516059
-0.855749 -1.444476 1.631625
0.676968 0.586963 3.465934
-0.427792 1.487253 0.017246
-0.897392 0.387244 3.377906
1.799183 -0.061783 0.904748
-0.592061 -0.769061 3.063006
1.193193 1.076244 1.968233
0.714514 -1.505629 1.500690
1.279155 -0.274773 2.389469
-1.482245 0.407728 0.125126
-0.305970 -1.701653 1.633652
1.593732 0.283057 0.601130
0.628913 0.974475 2.942073
-0.221827 -0.998897 3.663246
-1.068309 -0.203886 2.996188
0.449772 0.874086 3.172657
1.694650 -0.119542 1.586707
1.247825 0.117993 2.598193
0.500318 -1.620792 0.745238
-0.313797 1.720086 1.445710
-1.002668 -0.213711 3.858925
-1.766759 -0.364326 1.205538
-0.018934 1.749931 1.273686
1.247834 -0.190762 2.499200
0.824513 0.639717 3.305028
1.678338 0.028697 0.403781
-0.170885 -1.451479 2.348383
-1.315434 -1.088878 0.505124
1.278847 -1.116314 0.657323
-1.362725 0.947796 1.888736
-0.094067 1.768598 1.457002
1.191617 -0.039284 2.764971
1.579564 -0.265895 1.760145
0.081256 1.563489 0.062874
-1.577792 -0.357404 0.550301
-0.505530 1.530609 0.442607
0.953507 0.985115 2.382413
1.559970 -0.622495 0.502699
-0.980502 -0.365930 3.813404
0.489488 1.255609 2.515834
0.287007 -1.190350 2.750824
1.033174 -0.079923 3.904535
-0.579703 -1.399966 2.177493
-1.615376 0.299091 1.925238
-0.948364 -0.451119 3.788460
0.047238 1.672925 1.290808
-0.665697 0.776970 3.093362
-1.169737 1.003408 0.115864
-0.940193 1.483926 1.029012
-1.621778 0.193678 1.933899
-0.842665 -0.605904 3.828897
-0.351849 -1.640892 0.736315
0.838914 0.530690 3.079349
-0.416035 0.811330 3.175214
-0.971705 -1.475339 0.905388
1.744240 -0.216523 0.786057
-0.826255 1.532186 1.046858
-0.016308 1.054082 3.566280
0.985524 -0.093222 3.447624
1.277136 -0.982838 0.631082
1.600050 -0.293254 1.682456
-0.913626 -0.422877 3.708608
-0.422582 -1.522835 2.126199
0.825390 -1.404304 0.413047
-0.757929 1.515144 0.544594
-0.881261 -0.385144 4.062492
1.693418 -0.174936 0.937214
-1.152689 -0.941913 2.288719
0.535384 -1.643447 0.780514
-0.734893 1.450823 0.576392
-0.087464 1.323428 2.583261
0.424936 -0.933286 3.473432
1.662865 0.370739 1.366378
-0.908507 -1.262559 2.135947
0.287522 -1.511143 2.141985
0.971894 0.070970 3.848985
1.143897 1.086946 0.286472
-0.198053 0.955563 3.901714
-1.590263 -0.000575 1.798681
1.310363 0.076875 2.653549
1.074041 0.867544 2.303172
-0.368803 0.876196 3.947339
0.701394 -1.565010 0.911370
-1.054216 -0.629374 2.686079
-0.921257 0.309391 3.106824
-0.618363 -1.242289 2.486231
1.643163 0.582084 1.433443
-1.056624 1.444444 0.996691
1.439494 -0.876508 1.306381
-1.481157 1.098000 1.230543
-1.012556 -0.088402 3.207290
-0.977396 -0.131660 3.281594
1.168949 -1.198513 1.889673
-0.164009 -1.009255 3.447177
1.547671 0.027330 0.139692
0.023174 -0.997583 3.382695
-1.306439 -1.021769 1.232448
-1.602827 0.235893 0.340843
-0.030878 1.708101 1.020102
1.469987 -0.145786 0.030012
0.862809 0.576321 3.422418
0.984330 0.295060 3.712357
1.357619 -0.759142 2.274864
0.552777 -1.581616 1.614853
0.365799 1.547388 0.433500
0.406923 1.023726 3.848410
1.515436 -0.616129 1.804589
0.529869 -1.640124 1.337512
0.294484 -0.979329 3.942186
-0.404233 1.449303 0.087261
-0.907333 -0.445038 3.211951
-0.072147 1.107719 2.873966
-1.284738 1.124824 0.533338
1.217921 -1.022681 1.986533
0.989135 0.266278 3.458161
-0.253640 -1.325396 2.505643
-0.974516 -0.222127 3.499735
-1.560518 -0.683867 0.502998
0.901456 -1.002036 2.639590
0.941109 1.436207 1.465987
1.123283 -0.800768 2.466133
0.423891 -1.565532 1.373749
0.882234 -0.302729 3.281644
0.635378 1.495045 0.566977
0.489368 0.775342 3.993175
-1.352044 0.058169 2.585410
-0.709209 1.712467 1.358548
0.199386 1.599003 1.310643
0.460139 1.526052 0.309931
-0.064770 -1.541211 2.132019
-0.654676 -1.663491 1.136988
-1.573814 0.237124 1.931880
-0.947131 1.479102 1.395879
0.426275 1.565282 0.423191
0.552751 -1.391980 0.027651
0.638210 -0.652340 3.810943
0.452687 -1.274927 2.517613
-1.049898 0.002385 3.658630
-0.997988 -1.244625 1.747149
0.046949 0.988408 3.414031
0.186365 1.647980 1.337463
0.938237 -0.448814 3.424943
-1.337889 -1.260383 1.235380
-0.753613 0.844960 2.643747
0.695149 0.677135 3.380331
-0.175004 -1.621584 1.772517
-0.914133 1.544233 1.004490
1.319644 -0.340542 2.484941
0.991820 -0.676602 2.777475
-1.625397 0.145118 1.591344
0.926508 -1.296517 1.875380
0.468722 0.863296 2.971264
-1.644526 -0.289034 0.721271
0.275011 1.379415 2.345799
-0.736748 -1.647336 1.301364
-0.994943 -1.437124 1.818024
0.740958 -1.644773 0.902730
1.174206 -1.201297 0.869933
-0.575788 -0.901213 3.675222
1.407929 -0.603800 0.162969
-1.638893 0.679502 1.462912
-0.946609 1.491954 1.781682
-0.937046 1.190910 0.325759
-0.874127 -0.272285 4.016010
1.357808 1.000547 1.147387
0.973703 -0.428997 3.769037
-1.681089 -0.801939 1.162001
1.426137 -0.929114 1.587913
-0.584457 0.779984 3.914146
-0.963371 -0.115791 3.854467
1.001344 1.410319 0.973253
-1.162338 -1.109073 0.244481
-1.392425 1.127351 1.035476
0.105159 1.693507 0.887527
-1.398673 0.618355 0.043709
-0.146054 1.340429 2.573221
-0.305258 -1.047032 3.489525
0.439860 -1.661978 0.949505
-1.358295 1.121856 1.598772
-1.025179 -0.114067 2.870146
-0.404721 1.046608 2.816407
-0.486451 -0.960173 3.946077
-1.665066 0.590892 1.506161
-0.937805 -0.300462 3.503537
0.145145 -1.005620 3.855797
-0.819828 -0.515382 3.608316
1.683981 0.061922 1.661961
-0.391183 1.555695 1.749251
1.579765 -0.566415 0.674831
1.450563 -0.617705 0.163410
-1.244448 -0.863754 0.217534
-0.090602 -1.685796 0.448276
0.876585 0.999707 2.663492
-1.451906 0.509664 2.110656
-1.279761 0.438557 2.368400
-1.188664 -1.244753 0.694118
-1.520583 -0.290030 0.166487
1.199340 0.316607 2.700568
1.290961 -1.156035 1.885666
-1.114151 1.344782 1.474284
0.167262 1.631636 0.409368
-1.018314 0.082959 3.691349
0.423123 -1.223285 2.675311
0.498656 -1.370644 2.169092
-0.879376 1.516054 1.289113
-0.375302 -1.003981 3.181494
-0.575327 -0.796750 3.151676
0.382288 -0.954303 3.811661
0.079170 -1.655657 0.336604
-0.729459 1.311872 0.142730
1.000848 0.779565 2.703852
0.980044 -0.934533 2.442184
-0.856842 1.012579 2.574207
0.966782 1.241231 1.939092
-0.415098 1.539700 1.951124
0.414922 -1.253711 2.549384
-1.573364 -0.068544 1.834759
1.125597 -1.181601 1.133894
1.483846 0.747354 0.536647
-0.978048 -0.257641 3.117540
0.936981 0.197379 3.764726
-0.696148 1.654719 1.387457
0.371574 -1.310239 2.420868
1.554297 0.142918 2.101143
-0.114946 -0.939950 4.009748
-1.284092 0.983208 0.498054
0.157891 -1.509980 0.239228
-1.033020 0.165017 3.451083
1.366271 0.792665 0.199258
1.321200 -1.022107 1.509433
1.361689 -1.142360 1.059997
1.566984 -0.058016 0.033637
1.207236 0.965599 0.276769
-1.649918 -0.024867 0.275664
1.058533 0.327873 3.688034
-0.774671 1.493899 0.872361
-0.441309 -1.669878 0.663861
-0.894494 -1.281652 1.940639
-1.650972 -0.213798 1.982457
1.523059 0.716001 2.072307
-0.919534 1.562560 1.026514
-0.821800 1.303878 2.262261
1.015096 0.264638 2.920122
-1.458739 0.624117 0.166501
0.467189 -0.728367 3.069414
1.457353 0.662948 1.965843
-1.405698 0.855187 0.564364
1.330421 0.066644 2.580524
0.798573 -0.638523 3.290025
0.564852 -0.792883 3.880396
0.991889 0.909057 2.512289
-1.176336 0.570537 2.580380
-1.076646 1.430794 0.956029
-1.562011 -0.004664 2.027420
1.140963 -1.000822 0.122361
1.492282 0.537081 0.545110
-0.150526 1.615630 0.422748
0.646728 -1.358346 0.210347
1.267599 -0.918274 0.144174
0.727768 1.451703 2.110296
1.627437 -0.512982 1.385715
1.704006 0.267554 1.429662
0.740764 -0.699453 3.053904
-1.493606 0.282149 2.144520
-1.030787 -0.077951 3.702514
-1.643210 -0.008657 0.449913
-0.727488 -0.938190 2.866774
0.216144 1.079831 2.893206
-0.927244 -0.497109 2.898020
1.128659 1.277098 1.732362
1.202363 -0.575071 2.581936
-1.662754 0.052697 1.936372
-0.758899 1.495696 1.731966
0.877628 1.199057 2.336881
1.384228 0.536919 2.305482
0.602481 1.237369 2.369197
0.899262 -1.426366 0.813867
0.819232 -0.612052 3.199348
-0.999073 -1.447699 1.224528
0.511604 -0.899410 3.525398
0.803370 -0.609237 3.170238
0.990383 1.319529 1.139526
0.812109 1.601707 1.135756
-0.884981 -0.334662 3.963020
-0.707733 1.074565 2.817418
0.069128 1.641142 0.385939
0.577856 -0.865357 3.990647
-0.292102 1.096888 2.743561
1.777279 0.065146 1.067810
1.631989 -0.612653 1.600428
0.406346 -0.804523 3.771702
-0.070207 1.429946 2.225348
-0.532206 0.868031 3.378801
-1.097711 1.316458 1.829936
0.646050 0.866792 3.142914
-0.648396 -1.583772 1.583540
-1.243455 1.017551 1.851770
-0.949580 -0.107985 3.448524
-1.288666 1.023206 0.634111
-0.360676 0.864669 3.810479
-0.252068 1.064146 3.302783
-1.410742 0.770549 0.819917
0.769789 1.389964 0.370686
-1.543780 -0.236329 0.146226
-1.089077 -0.481243 2.652495
0.516944 0.888161 3.793951
0.769298 0.709133 3.936422
1.114630 -0.456407 2.868799
-1.426347 -0.569115 2.192793
1.590957 -0.171170 0.314007
-0.926145 -0.118553 3.825619
0.567477 -1.042099 2.604503
-0.973940 0.180379 3.811871
-0.678241 -0.781167 3.123670
-1.396188 0.837743 1.767446
-1.462481 0.280472 2.192703
-0.787219 -1.603541 1.376410
1.116437 -0.302719 2.899633
-1.032934 -1.064334 2.376816
-1.020114 -1.051335 2.153448
-1.387836 -0.820331 0.310760
-1.592960 0.033321 1.874974
-0.361202 -0.930296 3.667368
-1.034878 0.486590 2.818781
-1.404871 0.916305 1.931374
-1.200893 -0.864020 2.318412
1.713805 -0.075859 1.107385
-0.249015 1.014175 3.627735
0.640379 1.596987 0.783377
0.350451 1.471931 2.178276
0.239040 -1.216585 2.756955
0.534343 -0.849947 3.801512
0.455859 -1.268167 2.516524
1.287893 -0.388198 2.650641
0.991809 -0.233881 3.110578
-0.242961 0.995643 3.617161
1.644726 -0.677389 1.336093
1.013844 1.426748 0.963645
-1.688276 0.400044 1.445632
-0.398002 -0.914761 3.674965
-1.497139 0.021268 2.347329
0.856673 -1.336692 0.392915
0.573237 -0.815325 3.329968
0.573832 -1.495706 2.030428
-1.067266 -1.204985 1.912827
0.529212 -0.825550 3.285511
1.561006 -0.839019 1.250958
1.291829 -0.465164 2.490475
0.573949 -0.740197 3.655274
0.741731 1.026321 2.804529
1.610954 -0.403778 1.567658
1.544769 0.386799 0.160194
1.048248 1.168030 2.101415
1.140010 0.454656 2.819554
0.035507 -1.700514 0.726851
-0.298398 -1.547453 0.477036
1.317563 -1.158311 0.767141
-1.546836 -0.460545 1.981733
1.278129 -0.487937 2.603226
-0.284253 -1.586871 0.720564
0.797951 0.632520 3.639471
-1.367508 -0.864763 0.098900
-0.207876 0.956062 3.366994
0.949843 -0.286581 3.618762
-0.773894 1.301714 1.981056
0.259388 -1.470381 2.221608
0.377671 -1.217976 2.610210
-1.473622 0.567674 1.947491
1.221523 0.218056 2.516657
0.846643 1.571308 1.334599
-1.159463 1.400078 1.380146
-1.608163 0.557697 1.781290
1.279146 -0.671709 2.370221
0.169157 -1.717185 0.613231
-0.567684 0.787587 3.744026
1.444010 -0.733751 1.740204
0.384802 0.956911 3.743022
-0.914485 -0.757634 2.797166
-1.024018 0.208977 3.130747
-0.563920 -0.788921 3.864321
-0.077092 -1.611886 0.246194
1.695217 -0.202072 0.558088
1.754522 0.479202 0.916170
1.648522 0.134402 0.533087
-0.560401 -1.648182 1.321734
0.881231 -1.219538 2.010957
-0.955091 -1.218280 0.137490
-0.080903 -1.692779 1.149139
0.797116 1.481491 0.344058
-0.605503 -0.822587 2.959936
1.001154 1.354617 1.019351
-0.998202 -0.086791 3.392327
-1.762069 0.362144 1.286192
0.909844 -1.389409 1.916267
0.654285 -0.750080 3.030331
1.100682 0.093477 2.773160
-1.674171 0.286813 0.751944
1.044668 1.478186 1.445961
-1.624806 -0.235658 0.119131
-0.753272 1.564539 1.125829
-0.641748 -0.872023 2.907986
1.543940 0.627187 1.515270
-0.544267 0.789138 3.515106
0.569385 -1.654082 0.516249
0.060865 -1.734988 0.698939
1.003218 0.122973 3.123397
-0.731575 0.690002 3.665736
0.799599 -1.379039 0.340853
0.981850 -1.439557 1.359544
-0.709268 -1.609467 0.979034
-1.210105 -1.322611 1.288134
0.825281 -1.514489 0.972255
-1.330528 -0.873565 2.307661
1.237595 -0.315492 2.691420
-0.984048 0.139289 3.554836
-1.130262 -0.343007 2.920912
1.700235 -0.377095 1.058347
0.705274 -0.938950 3.007403
-0.520663 0.792794 3.921408
1.291075 0.078613 2.631858
-1.593524 -0.196158 1.676595
0.516033 1.151240 2.754758
-1.239229 1.118753 1.421512
-0.276229 1.685887 0.917603
1.514803 0.635811 0.318161
0.798791 -1.370566 1.895205
0.745288 -1.265933 2.173891
1.110135 -1.068888 2.236601
1.649385 -0.101113 1.393234
-0.704905 1.363442 2.120481
-1.530122 1.017525 0.865906
-0.495493 1.683686 1.017071
1.652759 0.495488 1.610574
1.054806 -1.316679 1.646319
-0.522760 -1.621998 1.891942
-0.632152 -1.560000 1.800384
0.918431 1.197380 2.224902
-1.501842 -0.007293 0.258585
1.542608 0.692979 1.574512
0.779471 0.522493 3.361155
0.583574 0.767528 3.727366
-0.899540 -0.373087 3.765547
-0.322029 1.574938 0.575129
0.782433 -1.624768 1.102529
-0.605703 -1.581335 0.782688
-1.530253 0.579190 0.817827
1.246776 1.171765 1.638554
-1.756951 0.031361 1.119585
-0.230910 1.036242 3.307932
1.222122 -1.184457 0.991896
-0.700869 -1.576328 0.995207
-1.234638 1.032648 0.641314
0.974147 1.381322 1.050665
-0.685423 -1.010648 2.631838
-0.325764 1.505760 0.226817
0.736054 -1.518768 1.453245
-0.378728 0.950106 3.338016
1.589052 -0.364204 1.747316
1.544887 -0.361610 0.035471
0.431845 -1.323465 2.402410
-1.660891 0.734829 1.658586
1.005754 0.221419 2.985871
-1.623952 -0.089547 0.244482
-0.321587 -1.516581 2.116119
0.753104 0.707330 3.579532
1.471427 -0.726705 2.074908
-0.495684 -1.439841 2.106419
-1.276981 -0.425909 2.385599
-0.608479 1.275763 2.541083
0.099414 1.140033 2.691959
0.891092 -1.290325 1.909876
0.855387 -1.192957 2.326124
0.822629 -1.529329 1.335071
0.869177 -1.426261 1.349988
-0.959807 -0.030472 3.621815
1.569583 0.443491 0.362934
0.776889 1.498499 0.991175
1.650231 0.241028 1.635427
-0.959994 1.330724 1.921302
1.405709 -0.891791 0.627373
-0.287229 -1.703362 1.488863
-0.509820 0.893274 2.994087
-0.911646 0.673611 2.968598
-0.222695 1.685612 1.514479
0.989752 -0.405092 2.903299
0.746028 0.592229 3.258274
1.415352 0.815108 1.902099
0.941351 1.146508 2.142496
-1.054508 1.329644 0.687875
1.343125 -0.899939 0.200190
0.831220 1.188211 0.212953
-0.597138 -0.858168 3.368419
1.555859 0.804766 1.040441
-0.437611 -1.290933 2.514352
-0.406920 1.513676 2.095097
0.988655 0.054459 3.126549
0.426874 -0.945999 3.759044
0.758469 -1.073717 2.565672
0.244080 -1.599229 0.216023
1.606179 0.797158 1.346234
1.698833 -0.208178 1.740725
-0.521321 1.558626 0.284448
0.159055 -0.979071 3.527864
0.704163 0.911498 2.757172
2.544877 2.256564 -0.943440
1.541495 -0.541019 0.417564
1.704653 -0.730969 -0.688416
-0.848497 0.568994 3.235015
-0.020201 -1.967698 0.552266
0.743160 -2.618789 3.668542
1.807809 0.072566 0.550779
-1.527730 1.966127 3.033974
1.970397 1.878506 3.499753
-1.758869 -1.500326 3.183030
-1.439003 -0.815851 -0.988142
-2.155551 -0.588711 4.478903
-1.544913 -1.803359 1.229304
2.487422 -0.082521 1.054099
-0.033915 -2.380662 4.740354
0.665335 -0.293043 -0.676731
1.409118 -1.138015 -0.555259
-2.417771 -0.114301 1.278647
-0.147840 -0.295640 -0.445642
0.551053 -1.023774 4.621916
-1.607746 0.351809 -0.781328
0.637117 -1.847229 1.381207
-2.454034 -1.765186 -0.812679
-0.911995 -2.705704 1.329062
-1.047363 2.717390 4.441559
-2.742754 -1.585329 -0.844427
-1.230413 0.606880 1.344776
0.535732 -2.588929 3.040448
-0.767773 -1.451955 3.588702
1.404876 -0.958873 4.859651
-2.070382 1.691479 3.421622
-1.422119 0.202742 1.208670
1.260360 -2.501228 -0.508027
0.918150 0.438118 1.066376
-2.364798 1.315620 3.989561
1.831367 1.090604 0.563048
-2.648300 -0.763306 -0.043725
-1.828470 2.339406 0.838912
2.196396 1.006795 2.086257
-2.350611 -1.878208 4.120697
-0.607372 0.119108 4.849938
0.400125 1.979701 -0.745207
-2.600907 -0.348238 -0.748957
-2.118466 1.649264 2.107486
1.735747 2.488790 0.493464
2.012777 -1.283690 4.228005
-1.083271 1.447118 4.792584
1.077259 -1.043167 0.774600
-0.159399 -2.212565 -0.280626
-1.106287 1.696704 -0.355860
1.730948 0.189697 4.822963
2.066714 -2.094180 -0.616984
2.191824 -0.287915 3.688336
2.333645 -1.072237 -0.638764
-2.320543 1.233985 3.944814
-2.639905 -1.215707 3.169640
-2.172160 -2.226763 -0.714774
-1.388197 1.291840 0.531953
-0.953727 -2.710575 0.989640
-0.068403 2.475928 3.318123
-2.417335 -1.061953 0.425832
-0.974899 0.269682 2.923815
-0.685956 -2.256782 0.078613
-0.978766 -1.182128 0.277027
-2.357873 1.453352 3.417104
1.522280 2.161941 4.289026
-2.017347 -0.745537 1.564526
-1.944333 0.871155 -0.358230
0.356537 2.426034 1.114537
0.482837 0.652576 4.620546
2.535143 1.422733 2.908489
0.808483 -0.623105 -0.139393
2.393568 -1.725761 1.648424
0.773545 -1.871285 -0.912582
0.022413 -0.162484 4.829836
1.170521 -1.952243 2.287012
1.902272 -0.183120 4.327039
0.371862 1.999401 0.818820
-1.111236 0.925762 -0.354418
-0.500734 -2.318355 3.428788
1.899406 2.240269 3.154573
2.490857 2.615447 1.442606
0.639706 2.605781 1.083889
1.122159 -1.104613 4.209406
-1.496132 2.599202 1.810916
2.305928 0.739068 2.229474
-0.685120 -2.633845 -0.798239
0.771114 -2.217875 0.581161
-0.500548 2.068832 0.938756
2.026897 -1.164891 4.749202
0.120469 -0.548072 4.102323
0.852002 2.073357 1.261000
-1.077656 1.078989 1.144685
2.690909 -2.300847 0.533277
0.218008 -2.457205 -0.273551
-2.415565 0.938547 -0.378445
-2.700301 0.894216 1.147504
-0.104908 0.335999 1.528115
-0.367648 -2.464445 4.651569
