ply
format ascii 1.0
element vertex 1050
property float x
property float y
property float z
end_header
-0.000802 0.158369 -0.880168
0.865863 -0.086115 -0.624120
0.140685 -0.145413 0.846487
0.028587 0.034148 -0.991196
-0.044211 0.101044 -0.758897
1.659726 0.295274 0.112437
0.440615 -0.051656 -0.720930
-0.054328 0.494910 0.727019
1.326375 0.197800 -0.394420
0.117191 1.431452 0.150512
0.550815 0.193816 -0.593501
0.581315 -0.053956 0.570589
1.954347 0.005035 -0.017326
0.204245 -0.344637 0.748573
0.028360 1.632265 0.260892
0.011327 -0.089001 0.991227
1.439482 -0.527330 -0.021532
0.028410 0.125762 0.935757
-0.082719 -1.721639 0.003819
-0.307052 0.077783 -0.934812
1.138509 0.047505 0.395163
-0.936372 0.135470 0.604624
0.188156 -1.329216 -0.139360
-0.767831 1.105140 0.075452
1.277271 0.703822 0.009673
-0.037890 -0.214223 -0.891513
0.480700 1.490139 0.007526
0.912212 0.008582 0.463237
-0.501207 -1.133914 0.273382
-0.237960 1.565993 -0.096182
0.128393 -0.942473 -0.534605
1.389390 0.219706 0.165024
-1.040223 0.921103 -0.040230
0.565146 -1.318630 0.111640
0.147668 0.078393 0.944663
-0.263509 -0.481431 0.683847
1.257133 -0.104429 -0.288530
-0.053641 -0.002617 0.971885
0.961009 -0.070194 -0.470676
0.263498 0.205336 -0.792638
0.723150 -0.438431 -0.483139
0.190442 0.481739 0.554113
-0.045919 1.947811 0.066049
0.169582 -0.063100 -0.848917
-0.447988 0.997992 -0.282868
-0.791864 1.138312 0.094033
0.004091 0.015010 -0.933671
-1.911399 -0.023848 0.098946
-0.779268 -0.270658 0.394589
-0.238869 -1.700138 0.067030
0.282186 1.610579 -0.110937
-0.465947 -0.403240 0.496697
0.041462 0.440933 0.762437
-0.187694 -1.305286 0.228644
0.134921 1.311700 -0.110926
-1.691858 -0.215389 0.018062
-0.093420 0.343444 0.784255
-0.033095 -0.079293 -1.081535
-0.397425 0.014828 -0.756816
-0.476249 -1.460671 0.083158
0.025129 0.068465 -0.966718
-0.442173 0.074364 0.948782
-0.022735 -0.074938 -1.073309
-0.417346 -0.337396 0.624163
-1.529091 0.176330 0.106446
0.608721 0.424917 0.458737
-0.019237 -0.097095 -0.846455
0.006048 -1.256908 -0.334691
0.629587 -0.176269 0.516896
-0.051396 -0.028665 1.053613
-0.058845 -0.064263 0.999901
0.232050 -0.099785 -0.821151
0.004966 1.929817 -0.028489
0.044056 0.032564 0.914791
-0.813280 0.671424 0.252364
-1.238676 0.396387 -0.114674
-0.013048 -0.051366 0.967673
-0.028828 -0.139713 -0.834373
0.045333 -1.409869 -0.250764
0.049393 0.467059 0.768476
0.056723 -0.016403 -0.926711
-0.084145 0.933267 -0.567325
-0.012229 0.031106 -0.922010
0.015224 1.513762 -0.173713
-0.218886 -1.184191 -0.329952
-0.001776 -0.006799 0.977808
-0.005541 1.416848 -0.274447
-0.015963 -1.458347 0.192065
-0.209916 0.042635 0.965025
-0.102735 2.007223 -0.055163
0.772576 -0.026817 -0.696620
0.340359 -0.177873 0.713789
-0.640144 -0.020724 0.661550
-1.792718 0.092608 -0.025988
1.957805 -0.004098 -0.041378
-0.047109 0.041164 0.946568
-0.916254 0.488918 -0.263119
-0.091159 0.701949 -0.598627
-0.016058 0.042981 -0.938692
-0.049511 0.444450 -0.635953
0.033006 0.101764 0.888789
0.072594 1.367327 0.307732
-0.003226 -0.146296 0.910910
-1.633850 -0.376824 -0.106136
0.050594 -1.837299 0.084985
-0.065490 0.154366 -0.862246
-0.070551 0.041127 -1.050886
0.066604 0.181740 -0.953731
-0.307923 -0.253689 -0.605120
-1.739767 0.082120 0.231935
-1.496202 0.118548 0.251341
-0.221837 -0.047197 -0.928669
0.015265 0.029220 -0.974736
-0.534799 0.200970 -0.562066
-1.681588 0.004908 -0.030793
-0.080506 0.904242 -0.608676
0.115305 0.352459 0.671894
-1.453814 0.036859 -0.217855
0.857646 -0.000414 0.485370
0.574012 -0.144441 0.624773
-1.134703 0.797957 0.017256
-0.035683 -1.137803 0.327687
-1.209335 0.166060 -0.442143
-1.415150 -0.662587 -0.013375
0.862337 -1.067422 0.024675
-0.805194 0.370124 0.416129
1.499094 0.069305 -0.285908
0.238147 0.099067 0.792481
0.813239 0.963622 -0.050350
-0.180137 -0.040730 -0.898987
-0.120273 1.901802 -0.060787
0.700304 0.932807 -0.263726
0.077516 -0.049190 0.974913
-0.012528 -0.068734 0.977300
-0.037477 -0.213177 0.876262
-0.188062 -1.652517 -0.023744
0.092587 -1.593299 0.223605
-0.656809 -0.425066 -0.503127
0.049679 0.004754 -0.925373
0.108153 0.753939 -0.531717
-0.015510 0.131079 0.884728
0.146270 0.116930 -0.740135
-1.645687 0.176243 0.060397
0.115211 -0.064146 -0.987808
0.832707 -0.998903 -0.055834
-0.725290 0.637022 0.268646
0.173512 1.110508 0.345023
0.144773 1.829821 0.073643
-0.629046 -1.378386 0.025604
-0.008346 0.143207 0.828930
0.196239 0.037830 -0.939631
0.021336 -1.813057 0.077229
0.361234 0.681650 -0.523577
-1.161035 0.534674 -0.246886
-0.625791 0.097808 0.686304
0.335027 0.078995 0.773312
0.746014 -0.832755 0.212302
-0.013133 -0.034298 1.030270
0.829742 0.405110 0.359560
-0.050928 -0.040596 -0.958313
0.787459 0.421885 -0.366889
-0.227092 1.344787 -0.222630
0.286802 0.471310 0.611888
0.187880 0.943988 -0.392287
-0.171189 1.583546 -0.060349
-1.433131 -0.656943 0.004456
0.582738 0.019849 0.630005
-1.461494 0.201409 -0.191384
-0.016676 -0.005216 0.968401
-0.065548 0.019575 1.015892
-0.024375 0.227461 0.882345
0.436706 0.160689 0.777254
1.575409 0.220359 0.075163
-0.121620 -0.422837 0.779844
1.523433 0.359687 -0.010387
1.645959 0.335405 -0.014705
-0.037973 -1.794076 0.101417
0.069662 -0.108915 1.025259
0.024843 0.159895 -0.809435
-0.030155 -1.927239 0.017148
0.261098 -0.045080 -0.796904
0.081340 -0.148231 -0.854983
-0.810036 -0.470707 -0.346180
-0.468100 -1.434606 0.096731
0.138194 0.988160 -0.487369
-0.528964 -1.461851 -0.214556
0.271318 0.315150 0.633937
-0.045943 0.436896 -0.692507
-1.017940 0.180424 -0.457373
-0.109683 -0.983179 0.381328
1.914534 -0.148617 -0.037529
1.112665 -0.157041 0.465670
0.302793 -0.236482 0.683603
-0.276952 0.397499 -0.698692
0.099045 1.585365 0.090567
-0.870832 0.490580 0.243267
-0.136461 -0.662252 0.504134
-0.531984 1.092452 0.173908
0.506626 0.459059 -0.405853
0.644113 -0.718572 -0.283113
-0.731260 1.286436 0.062216
-0.144917 -0.412632 0.671865
0.452451 0.382487 0.660103
-0.057056 -0.116331 1.099947
0.088249 -0.078094 -0.937500
-1.117562 -0.766490 -0.110778
-1.174870 0.335589 0.234559
0.086535 0.045118 -0.868496
0.227282 0.073454 -0.951411
-0.447923 -0.013556 0.756465
-0.334467 -0.001683 0.913480
-0.338887 0.221697 -0.668489
0.628570 0.291134 -0.627475
0.069350 -0.002940 -1.049942
-0.499203 -0.068309 0.627100
1.640855 0.265762 -0.113710
0.088187 -0.108028 -1.101638
0.008730 0.013283 0.978820
0.101637 -0.203901 0.953369
0.485997 -0.477584 -0.566664
-0.048261 -0.250075 0.949690
0.341308 1.080881 0.302842
0.825588 0.068976 0.523811
1.005000 0.220976 0.407870
0.698029 -0.673909 -0.247395
0.013246 0.093714 1.020958
-0.014428 0.091957 0.909327
0.169067 0.336259 0.830216
-1.282291 -0.341714 -0.125756
1.761324 -0.087823 -0.040684
-0.229703 -1.687400 -0.046017
0.172254 0.085171 -0.795759
0.064598 -0.686192 -0.654935
-0.056813 -1.432427 -0.298298
-0.006699 0.733742 0.641026
-0.093987 -0.019124 0.898508
0.020504 -0.039882 0.918753
0.299030 -0.188190 -0.722968
-0.182744 0.216596 0.898061
-0.011260 0.026422 -0.970973
0.218337 -0.146350 -0.948929
-0.010830 -0.047640 -0.943267
0.087663 0.888267 0.540672
-0.361696 -1.009498 0.242217
-0.212435 0.003993 0.832890
-1.816768 0.002435 -0.134895
0.460266 0.200210 -0.696996
0.939786 -0.400292 0.418888
-0.048528 -0.137061 -0.955160
0.052047 -0.107041 -0.943904
0.374488 -1.581334 0.039414
-0.010616 0.292494 -0.946376
1.020963 -0.202067 -0.346038
1.145393 -0.697192 -0.215518
-0.161464 0.585755 -0.512585
0.850148 0.043285 0.620464
-0.836446 -0.373708 -0.375476
-0.350167 -0.000476 -0.877607
0.983544 -0.875161 -0.127951
0.061873 -0.023762 -0.995625
0.142848 1.758608 0.035312
-0.210206 -0.609627 -0.712420
-0.133829 0.556849 0.698051
-0.181263 -0.010886 -0.988035
-0.154214 -0.763219 -0.634267
-1.037664 -0.006475 0.504645
1.880799 -0.004536 0.091600
-1.810446 0.060757 -0.107599
-0.025345 0.609945 -0.731711
-1.334443 0.026450 0.313009
-0.809069 0.417366 0.454081
-0.034289 0.009191 0.953578
-0.265817 -1.679185 -0.052935
0.200810 -1.455699 -0.257725
0.221346 1.226656 -0.316440
0.110908 -1.143477 -0.368554
-0.001437 -1.084332 -0.439075
0.760435 -0.153346 -0.648640
-0.059184 0.110157 -0.965701
-1.846386 -0.137744 -0.042398
1.251381 -0.571584 0.111890
0.337886 -1.853272 0.021170
-2.005068 0.073941 0.111330
0.136595 0.010045 -0.938745
0.334318 -1.091542 -0.356018
-1.221569 0.729270 -0.056489
-0.144479 1.954607 -0.046137
0.326052 0.917562 0.445685
1.752057 -0.004820 -0.128529
0.371001 -1.536429 -0.081737
0.134422 1.519541 -0.286606
0.079243 -0.001824 -0.854593
0.601604 0.320413 0.558448
0.756145 0.988949 -0.233525
-0.453295 0.072922 -0.849853
-0.358319 -0.739260 -0.469311
-1.123080 -0.599363 -0.115644
0.300669 -0.002282 0.879307
-0.092905 -0.380185 0.782817
1.116187 -0.032931 0.558351
0.015985 1.929422 0.047959
-0.927397 0.129332 -0.571420
0.049908 -0.174651 0.937776
0.033668 -0.089748 1.012992
0.010313 0.036898 -1.027094
0.048216 0.264477 -0.864044
-1.538474 -0.274440 0.029187
-1.208365 0.666012 -0.109208
0.379268 0.414772 -0.564367
0.304877 -0.098315 0.813524
0.099913 -1.892366 0.017181
0.696405 -0.003354 0.657566
0.399007 -0.070557 0.853464
-1.914578 0.148563 -0.040501
1.423843 0.581328 0.015510
-1.997670 -0.043196 -0.034852
0.960843 -0.642272 0.188154
-1.828005 0.148712 0.053772
1.479358 0.503206 0.070719
0.012926 1.463287 0.281792
-0.287356 1.108842 -0.218611
-0.104934 0.004491 1.100733
0.014357 1.047709 -0.584005
-0.149334 -0.042210 0.943017
-0.041000 -1.498861 0.194805
0.024488 -0.073526 0.965164
0.093216 -0.917731 -0.463175
-0.120355 0.117645 0.899850
-0.026321 0.066301 0.900538
-0.033695 1.813145 -0.004403
0.003088 1.995277 -0.010097
-0.037188 -0.081490 0.876337
-1.186248 -0.074954 -0.484299
0.570162 0.071078 0.746372
0.781100 -1.217676 0.027054
0.017083 0.402213 -0.829725
-0.173126 -0.014232 0.880852
0.128213 1.177281 0.297916
-0.222509 -0.908243 0.349838
-0.006153 0.061373 -1.013660
-0.082639 0.415470 0.860913
-0.093322 -0.249350 -0.896342
-0.886480 0.955263 -0.095295
-0.049603 0.503413 0.697628
0.019189 0.648109 -0.645272
1.214777 -0.022521 -0.393115
0.878686 1.146870 -0.075149
0.005888 -1.255362 -0.322671
0.844594 0.065724 0.531397
0.070716 -0.527482 0.738797
0.023412 -0.519702 0.796448
-0.089633 0.349143 0.775482
-1.627459 0.285232 -0.037193
-0.069227 -0.130408 -0.797633
1.238406 0.016133 0.431078
1.854148 -0.107483 -0.002945
-1.893508 -0.016798 -0.035746
-0.055364 -0.083690 -0.859250
0.040804 0.010058 -0.972551
1.194392 0.646838 0.054986
0.063692 0.187861 -0.728478
0.066888 0.153165 0.885006
-0.021055 1.883657 -0.021000
-0.018995 0.627962 -0.703854
0.032659 -0.022728 0.917515
-0.082405 0.026388 1.008367
0.114940 -1.956031 -0.044936
-0.093384 0.085175 -0.922711
0.273364 0.106598 0.800744
0.645331 0.184569 -0.620795
-0.371310 -0.007914 0.765205
-0.015317 0.040009 1.006825
0.042014 -0.930708 0.512521
-0.129090 1.215839 -0.473591
0.008067 -0.026950 -0.944341
-0.002443 -0.244206 0.895135
0.121599 -0.117616 -0.832672
-0.627410 1.089755 -0.091410
0.592528 -0.107859 0.715693
-0.008459 0.041412 -0.992199
0.010252 -0.551197 0.830332
-0.137037 -0.750229 -0.597873
-0.091396 -0.074148 0.865165
-0.043405 -1.042642 0.433669
0.197996 0.910177 0.437433
-0.030369 0.518995 -0.658848
-0.277338 0.740417 0.564383
0.865025 -0.024641 -0.505626
1.968093 0.050904 -0.058323
0.749980 0.139549 0.442965
0.288260 -0.070739 0.912235
-1.457641 -0.571378 0.004975
0.035108 0.091624 0.926678
0.477878 -0.021081 0.733852
-0.063990 1.863827 -0.140746
-0.235068 1.031490 -0.391752
0.172495 0.463843 0.783841
-0.060822 -1.192128 0.358023
-0.160451 -0.308057 0.871120
0.106538 -0.573542 0.676146
-0.032827 0.005593 1.015733
1.304379 0.111690 -0.406723
-1.785866 -0.089702 0.009890
-0.069169 -0.518171 0.864295
0.577883 -0.421766 -0.466347
0.463269 0.784688 0.373551
-0.277839 -0.230282 0.742752
-0.554901 -1.313781 0.032775
-1.061186 0.105540 -0.364611
1.040653 0.012765 -0.446049
-0.089875 0.021571 -0.793001
1.809182 -0.011102 -0.092084
1.834789 0.050413 -0.153884
0.800919 0.026448 -0.547282
-1.077779 -0.001299 -0.437816
-0.020717 -0.963342 -0.515144
0.023496 -1.834953 0.056862
-0.581389 0.702525 -0.412683
0.333190 0.270335 0.651215
-0.250348 0.811420 0.421611
0.628867 -0.275617 -0.667135
-0.869808 0.192746 -0.369548
-1.401351 -0.346357 0.046872
-1.374038 -0.018132 -0.320534
0.287946 -0.328951 0.643881
-0.217209 -0.370791 0.800369
0.005481 -0.462956 -0.836116
0.992900 -0.112642 0.432263
-1.412557 0.371079 -0.016223
-0.997077 -0.588055 0.313359
1.502130 -0.511621 -0.006496
-0.033095 -0.607872 -0.621962
0.011085 0.315484 -0.850110
0.103871 0.062096 1.031133
-1.292822 0.193014 -0.227000
-0.002078 -0.020797 -0.997549
-0.093985 0.088564 0.939605
-0.904407 1.116038 0.076798
0.306818 -1.192201 0.214592
-0.066411 -0.195963 0.841245
-0.451467 1.546877 0.038620
-0.772210 -0.076759 -0.613310
0.050290 -0.545514 -0.623739
-0.121170 1.518069 0.129448
-1.717803 0.156974 -0.078300
0.039397 1.505145 -0.199737
-0.317414 0.068741 -0.807557
1.096869 -0.824806 0.014290
1.707140 -0.017011 0.092864
-0.249169 1.427664 -0.163325
-0.017479 -1.190911 0.376103
0.232698 -0.015875 -0.899188
0.056071 -0.117450 -0.979824
-0.708755 0.926958 -0.224124
-0.010448 -0.005357 1.041851
-0.029872 -0.090464 -0.902777
-0.278547 -1.562975 0.047256
0.112636 1.500032 0.315066
-0.028641 0.281052 0.826608
-0.443214 -1.581269 0.055030
-0.718752 0.800763 -0.292802
-1.176547 0.726396 0.004584
1.948198 -0.021283 0.064672
0.254455 0.491994 0.702286
0.002795 0.272389 -0.863510
-0.171294 -1.287881 -0.333556
-0.028060 -1.797620 0.031483
-0.998041 -0.543106 -0.392644
-0.012658 0.006903 1.009544
-0.216127 0.182615 0.750508
-0.047639 -0.071278 -0.912732
0.012072 0.034264 0.970384
-0.118631 -1.061774 -0.431314
-0.151992 -0.748675 -0.549601
-0.207147 0.197396 0.903667
-0.210878 0.064480 1.027348
-0.042789 1.449445 -0.205237
0.284421 -0.289165 -0.719504
-0.134101 0.036598 0.864017
0.292728 -0.037368 0.729706
0.105537 -0.006675 0.891192
0.244744 -0.405989 0.632960
1.437259 0.000779 -0.312272
-0.364322 -0.015581 0.851118
-0.086822 -1.826400 -0.006471
0.396921 1.214006 -0.094585
-0.062952 -0.031627 1.011155
0.204199 1.401179 0.293606
0.114012 -0.198172 0.911326
-0.031324 -0.242662 0.942928
-0.170020 0.357115 -0.799635
0.554826 1.223072 0.094728
0.944943 -0.805692 -0.049255
-0.035494 -0.015507 -1.025895
0.299360 0.954111 -0.404011
1.769727 -0.006423 -0.104078
0.722510 -1.166172 -0.138302
1.393592 0.416014 -0.117130
0.768390 -0.456767 0.345536
0.896962 0.431904 0.299618
-1.484462 -0.176988 -0.148843
-0.083875 -0.673931 0.674914
0.075075 -0.172260 -0.889731
0.093110 -0.034587 -0.908848
-0.748015 1.076227 -0.122151
-0.063289 -1.840916 0.091077
-0.997379 -0.742190 0.152420
-0.507996 0.537893 -0.422648
-0.285896 0.063726 0.821134
-0.073961 0.028436 -0.958398
0.328230 1.381735 -0.112441
-0.012476 0.392129 0.822124
0.451481 -0.038717 0.731457
-0.862955 0.201601 -0.470871
1.223816 0.600702 -0.150677
0.045140 0.752491 0.632348
-0.269179 -1.389922 -0.179285
-1.646874 0.210309 0.046832
-1.155753 -0.974777 -0.071314
0.103960 1.424610 -0.214504
0.550969 0.070659 0.587862
-0.171867 0.105865 0.909468
-0.004756 -0.644214 -0.573006
-0.209060 1.135941 0.365004
1.858571 -0.021845 0.206120
0.195385 -0.051785 -0.862711
0.114175 -1.874107 0.080421
0.006847 0.135238 0.929919
-0.133508 -0.430693 0.648570
-0.043504 -0.090557 -0.925668
-1.615114 -0.091498 0.204210
-1.644523 0.040303 0.166543
-0.461332 -1.457076 0.003166
-0.810065 -0.221696 -0.422314
0.599005 -1.186201 -0.111033
-0.354799 -1.065622 -0.259420
-0.099652 -1.081076 -0.393737
1.745018 -0.299759 -0.102536
-1.087683 -0.165196 -0.202953
0.237667 -0.352769 -0.668871
0.632874 -0.504179 0.373837
0.056606 -0.094995 -0.910577
0.035483 0.112439 0.944811
-1.261902 0.008818 0.412280
0.355362 -1.435010 -0.065872
0.310482 -1.689755 0.034434
1.433678 -0.427737 0.084986
0.564848 -0.019173 -0.751300
0.027529 -0.265462 -0.915656
1.968132 -0.140044 -0.056980
-1.646636 0.160355 -0.107361
0.633867 1.171384 0.182201
1.349159 0.033161 0.343141
0.303622 -0.152725 -0.734419
0.268283 -0.935798 -0.407269
0.033088 0.875723 0.565324
0.471203 0.034548 -0.884802
0.610125 0.164257 0.618292
0.297621 0.041982 -0.774933
-0.589004 -1.351349 -0.043155
-1.139089 -0.294677 -0.400596
0.502322 -0.036211 -0.660564
-0.444914 0.805937 0.464582
0.026893 0.003893 -1.029582
1.940941 -0.020327 0.069343
-0.118186 0.919582 -0.471415
0.801305 -0.994200 0.050364
1.283611 -0.185653 -0.252785
0.357413 1.036016 0.296557
-0.106115 1.192737 -0.310959
-0.097056 0.126343 0.935418
-0.010282 1.121826 0.442006
-0.768469 0.544925 -0.366520
0.207288 -0.194607 0.824062
0.242249 -0.513214 0.599670
0.963730 0.363301 -0.324348
0.048086 -0.010058 0.995835
0.015684 1.645635 -0.251166
-0.166469 -0.360986 0.822961
-0.253366 -0.160039 -0.853935
0.045789 0.002309 0.976731
1.131301 -0.874481 -0.042209
1.413092 -0.069529 0.201813
0.003480 -0.201380 0.800989
-1.371544 0.316221 0.103706
1.937783 0.085785 0.023286
-1.110916 -0.873359 -0.158948
1.684558 -0.005015 0.138442
1.514197 0.171269 -0.232156
0.022928 -1.418710 -0.265327
1.328482 -0.784107 -0.024961
-0.214517 0.356185 0.713242
1.429171 -0.293142 -0.083269
-0.039279 -1.591643 0.193853
1.248867 0.617028 0.093699
0.010111 -0.219639 -0.869655
0.108514 0.120051 -0.777783
1.438336 -0.011345 0.183232
-0.238753 0.299059 0.769402
-0.120406 0.236660 0.786451
-1.689358 0.285617 0.068710
0.186506 1.990788 0.020291
-1.168671 -0.452492 0.233587
1.415505 -0.022904 0.303959
0.120302 -0.127800 -0.897671
0.238210 -1.614878 0.006592
0.131076 -0.021300 0.957752
-1.083643 -0.801507 0.065214
0.227233 0.285633 0.836230
0.014127 -0.118912 1.009279
0.818199 0.130151 0.566499
0.057037 -0.328486 -0.783896
0.023287 -0.010858 0.984092
-1.190919 0.180436 0.345438
-1.676807 0.405750 -0.066409
0.872109 -0.361409 0.384015
0.322731 -1.410863 0.195335
-0.943051 0.218713 -0.387892
-0.673201 -1.024860 0.214397
0.719525 -0.445965 0.400865
0.301580 -1.227697 -0.296760
0.007371 0.633797 0.667186
-1.619106 -0.095003 0.135101
-0.258323 -0.664101 0.590971
-0.075238 -0.004665 0.977076
0.152254 -1.352426 -0.259758
0.072733 0.084319 -1.022575
-0.245757 -0.785929 0.412495
1.778943 0.096910 0.128832
1.493028 0.250799 0.153161
-0.064113 0.129618 -0.990939
0.061530 2.004027 0.019353
1.847111 0.070902 -0.065276
0.089995 -0.136515 0.791723
-0.392834 -0.364272 0.588348
-0.627108 -0.177218 -0.633704
0.059653 0.125182 1.008054
-1.976860 0.036315 -0.016738
0.061019 0.088523 -0.862249
0.420792 -0.039027 -0.782768
0.027133 -0.012061 -1.069292
-0.090530 0.876218 0.587698
0.046922 -0.295466 0.785389
-0.027977 0.331225 0.823879
0.811200 -0.372674 -0.458464
-0.385682 -0.447090 0.615788
-0.360297 1.109772 0.200030
0.318978 0.357675 0.676119
-0.096140 0.077719 -0.922012
0.024149 -1.773862 0.126653
0.463920 0.263462 0.644872
0.065194 -0.178691 -0.897281
1.549696 0.074045 0.120116
0.055939 -0.005823 0.989398
0.220020 0.001074 0.872150
0.423325 0.094001 -0.775836
-0.225628 -0.614459 -0.616750
0.115267 0.040867 0.977811
1.687356 -0.191141 0.000140
-1.824202 -0.108463 0.058972
-0.062858 1.976739 -0.019941
1.066537 0.059753 0.459369
1.515509 0.036440 0.289110
0.077373 0.076757 0.903407
-0.330325 1.616636 0.046042
-0.059024 -1.757035 0.103791
-0.832958 1.104876 0.023793
-0.251176 0.576500 -0.621797
-0.028711 0.203839 0.859573
0.127123 0.024692 -0.972672
-0.188328 1.002067 0.313496
0.652030 1.351405 -0.014614
-0.708493 -1.332468 -0.057812
-2.075573 -0.026643 0.018195
-0.307858 -1.357992 0.231869
0.435222 1.236102 0.187600
1.293594 -0.684291 0.043081
-0.025073 -0.004874 -0.970486
0.053003 -0.541497 -0.750112
-0.093081 -0.476125 -0.725756
0.185657 0.041000 0.977049
-0.014353 -0.041885 1.028754
-0.054583 -0.047630 0.986072
0.009884 1.263235 0.275450
0.003636 0.004716 -1.033797
0.565190 1.481840 0.000355
0.011783 0.155464 0.922273
1.245523 0.698561 -0.009236
-0.004962 -0.079638 -1.017950
-0.038829 0.082016 -1.064098
0.128638 -0.085170 -0.852757
1.380881 0.307430 0.117900
-0.802766 0.448914 -0.404488
1.723633 -0.141912 0.024548
-0.051255 0.043907 -1.006340
-0.676816 1.257602 -0.004781
-1.163252 -0.025957 0.408805
0.172537 0.090057 0.891473
0.486826 -0.094243 0.829133
-1.222515 0.730520 -0.089317
0.046907 0.038930 -0.956909
-0.024966 -0.101931 0.901272
-1.028916 0.604455 -0.285669
0.679265 0.010546 0.695186
0.713772 -1.108749 0.094598
0.079352 -0.080713 -0.945634
-0.897854 -0.045608 0.522376
0.342675 1.140432 -0.275090
-0.582264 0.113231 0.671943
0.164174 0.476352 -0.660351
-0.103235 -0.353299 0.867894
0.321274 -0.253367 0.837698
0.352586 -0.934618 -0.364778
0.013699 -0.110035 0.803277
0.063023 1.019513 0.372944
-0.011258 -0.047209 -0.936448
-0.059888 0.441442 -0.702061
-0.634910 -0.033541 -0.607412
-0.072631 -0.415692 -0.816254
-0.117271 -0.277950 0.757790
-0.093867 1.571733 0.201992
0.222035 -0.022516 0.838714
0.904580 0.920280 0.011681
-0.171186 0.477684 -0.805562
0.091407 -0.407409 -0.771467
-0.030380 -0.017175 -0.917521
0.129871 -1.556630 0.194590
-0.043560 0.015307 -0.985715
0.032459 -0.103807 -0.876729
-0.886262 -0.625175 -0.284557
-0.163887 0.037915 0.877184
1.809609 -0.087085 0.108958
-0.170857 1.125689 -0.445567
0.445357 -0.469478 0.452243
0.854486 -0.372441 -0.324714
-1.727379 0.118738 -0.010255
-0.793432 0.329542 -0.508099
0.027750 -0.036554 0.954330
-0.096144 0.009131 0.965992
-0.056084 0.104634 -1.006115
0.012081 1.652309 -0.182101
-1.176073 0.019895 -0.379123
-0.178243 -0.139299 -0.853991
-0.439632 -0.002488 0.710195
-0.066420 -0.039669 -0.969610
0.114493 -0.392272 0.810873
0.108003 -0.573977 -0.681409
-0.012248 -0.025381 -0.962352
0.035609 0.090164 1.050586
1.747982 0.008837 -0.106133
-1.177710 0.710471 0.109327
-1.008045 -0.402045 -0.327888
-0.177656 -0.131446 0.825237
0.846092 0.835754 0.261908
-1.357307 -0.051077 0.277225
0.972661 0.552957 -0.304123
0.061037 -0.000572 -0.997519
0.012516 -0.005643 1.022090
0.361118 -0.119190 0.799322
1.118150 -0.090661 -0.515310
0.329654 1.355345 -0.226090
0.576138 -0.091324 0.723545
0.026595 -0.738357 0.634583
-1.760012 0.010124 -0.181208
-1.054916 -0.226196 -0.395891
0.019526 -0.001944 -0.916265
-1.229685 -0.055579 -0.436047
1.334692 0.013604 -0.284197
0.004274 0.026923 0.990160
-0.451075 -0.396283 -0.531648
-0.719825 0.408591 0.399439
0.408511 -0.893080 0.461487
-0.301105 0.141895 -0.779956
0.647252 -0.233853 0.579798
0.143570 0.015823 -0.969289
-1.000311 -0.480108 -0.206097
-0.003839 -0.103145 0.929696
-0.704953 1.144823 0.047283
-0.236990 -0.061828 0.817316
0.230031 0.281195 0.751101
0.892982 -0.209200 0.464034
-0.056796 -0.085335 -0.997041
-1.627448 0.115413 -0.000280
0.085089 -0.030534 0.963013
-0.060441 0.268175 0.823172
-0.182478 1.645289 0.167757
1.496630 -0.427572 -0.051956
-0.200454 0.404678 0.755425
-0.924909 0.000052 0.512627
-0.037622 -0.815637 -0.472212
0.012103 0.005274 0.972111
-1.751298 0.081350 -0.114706
-0.053606 0.620576 -0.669056
-1.433692 0.489285 0.049722
0.071925 0.009148 0.985916
-0.023613 -0.713093 0.688530
0.522385 -1.540835 0.017911
0.055632 0.041073 0.976577
0.060441 -0.039515 1.012649
0.042771 0.208813 -1.049160
-0.085959 -0.542681 -0.729107
-0.144644 1.008124 -0.509475
-0.571025 0.292490 0.630199
0.727566 -1.195483 0.034419
1.547759 0.211985 -0.053001
-0.036612 0.042004 1.000193
0.024337 -1.039453 -0.557506
1.756972 -0.003895 -0.088307
0.296469 0.155863 0.669510
0.032282 -0.035710 -0.939687
-0.711489 0.020917 0.591470
0.789261 1.248479 0.002199
-0.103168 0.028479 -0.956306
0.046886 0.034104 -0.981903
0.047806 0.322391 0.817485
1.634813 0.134482 0.067103
-0.734796 -0.973014 0.166891
0.010545 1.380638 -0.314719
-0.076412 -1.336926 0.293570
0.745412 0.414120 -0.518731
0.427465 -1.607272 -0.042146
-0.009970 2.038134 0.033678
-0.678487 1.221646 -0.084874
0.087700 1.172185 0.389810
-1.073526 -0.043673 0.494743
1.963314 0.040896 0.011043
-0.022362 0.065624 0.972714
-0.165881 -1.787509 0.059360
0.066384 -0.049888 0.996332
0.593989 0.193835 -0.615580
-0.006265 -0.174009 -0.895085
-0.143334 0.812489 0.493904
-0.822000 0.425973 -0.278732
-0.516875 1.509337 -0.003347
-1.612532 -0.307304 0.081429
1.040174 0.744951 0.183159
-0.056785 -0.806274 -0.612588
-1.545120 -0.477550 0.122785
-0.088503 1.452924 -0.162896
0.131738 -1.926038 -0.005941
-0.029795 -0.748537 -0.610405
0.124273 -0.068541 0.932852
0.067812 0.015001 -1.002007
-0.065164 0.794817 0.651043
0.557336 -0.774447 -0.344399
0.583500 1.425713 -0.021281
-0.006822 1.922598 -0.161816
0.259274 -1.006471 -0.287942
1.701368 -0.217115 0.050757
-0.380790 -0.207617 -0.726135
-1.387791 -0.561456 -0.046707
-0.066190 -0.120807 0.955205
-1.564483 0.038707 -0.089823
-0.186291 0.174376 -0.853887
1.873455 0.052893 -0.000376
-1.035799 0.074114 -0.429879
-0.134573 -1.791498 -0.117790
1.388790 -0.083009 -0.171265
0.050776 -1.038534 0.405032
-0.001455 0.203952 -0.891350
-0.043566 -0.158548 -0.862816
0.206020 1.126642 -0.386584
-0.440361 0.086534 0.743913
-0.519669 -0.310420 -0.631714
-0.102160 -0.470153 0.808095
-0.016325 0.555056 0.706257
0.110271 -1.743583 0.135939
-1.451452 -0.118142 0.323058
1.462459 0.455574 0.096440
0.047933 -1.952160 0.052843
0.468673 -0.129366 0.664665
-0.093962 0.053481 0.919766
-0.009403 1.367588 0.340233
0.654206 -0.674515 0.277982
1.705628 -0.096696 -0.109538
0.065278 0.407645 -0.785082
1.333326 -0.246058 -0.144818
0.295691 -0.078355 -0.818737
-0.048089 -0.022640 -1.025047
0.012446 0.043069 1.018894
0.370199 -1.758170 -0.010701
0.178584 0.005115 -0.860888
0.645141 -0.645495 -0.441801
-1.976510 -0.043996 0.031774
0.333770 -1.711623 -0.076222
-0.006684 0.045985 -1.039942
-0.694461 1.218457 -0.050759
0.238142 -0.140700 0.752586
0.270595 0.376514 0.577458
0.846035 0.384882 0.316510
1.080909 -0.259437 -0.301394
1.333809 0.666945 0.022653
0.001075 1.708320 -0.188471
-0.004336 -1.456067 0.137691
0.062258 0.000627 -1.048185
0.015412 0.048581 -0.919820
-0.058952 -1.452393 0.199027
0.197785 1.184331 -0.308097
0.168578 -1.756295 0.033161
0.850029 -0.918048 0.014644
0.623464 0.006235 0.600766
0.518855 -0.630859 -0.491840
-0.682289 0.050664 0.647046
-0.862960 0.372878 -0.415020
-0.165302 1.209789 -0.361012
0.000205 0.054260 -0.937841
-0.139772 0.017512 0.919927
-0.022503 -0.162789 -0.839264
-0.338773 0.381539 -0.656282
-1.268794 -0.274786 -0.172197
-0.042858 0.174409 0.936035
-1.883345 0.050988 -0.049818
0.904853 0.138492 -0.554550
-0.069791 0.000101 -1.061117
0.032886 -0.455515 -0.750760
-1.854241 0.080469 -0.052472
-0.024773 -0.242210 0.907214
0.055055 0.029865 0.948322
0.093250 0.102807 1.077548
-1.427925 -0.048702 0.280706
-0.201426 1.482907 0.210008
-0.058331 -0.014937 1.107845
-1.441846 0.083526 -0.207068
-0.099729 -0.228174 -0.908946
0.114809 0.067721 -1.006963
1.185013 -0.512549 0.246357
0.083927 -1.779151 0.070732
-0.022219 -0.018696 -0.940015
0.216421 1.085122 -0.445151
1.098616 -0.211308 0.359613
1.229607 -0.641399 -0.089645
0.357710 -0.036945 0.818033
0.126003 -1.575897 0.176489
1.383128 0.554974 0.021928
-0.066229 0.069609 0.961424
0.456750 -0.039072 -0.695155
-0.799915 1.199080 -0.052480
0.869865 -0.015299 0.554934
0.583145 -0.097339 -0.744823
-1.473869 0.195521 0.333329
-1.826369 0.285597 -0.037456
-0.214288 -0.008503 -0.926797
0.010629 -0.074283 -0.931498
-0.768401 0.344567 0.535965
1.774380 0.068107 0.081370
-0.052091 -0.102281 0.848523
1.344300 -0.117858 0.352484
-0.163125 -0.019988 0.896831
-0.000953 1.848504 -0.033548
-1.488261 -0.418787 0.036957
-0.209465 -0.942414 -0.506721
-0.280680 -0.936448 -0.426853
-0.487673 -0.115680 0.840354
0.054828 -0.018443 0.925970
-0.269379 -0.620903 -0.529153
0.640688 -0.722660 0.280651
-0.190633 1.506498 -0.105530
-0.001385 0.024756 1.006738
0.310000 -0.797610 0.444638
1.737342 0.071523 -0.015745
-0.004993 -0.021713 -1.012569
0.194160 0.064034 0.946819
0.006738 0.275191 -0.845204
-1.602360 -0.383086 -0.026751
-0.115512 -0.019418 0.961966
0.187793 -0.066298 -0.915311
0.109544 1.118920 -0.383376
-0.330980 0.679247 0.460426
-0.122529 -0.006369 0.965062
0.102849 0.779808 -0.491645
-0.039675 1.790089 0.095189
-0.454666 -1.631033 0.002570
-1.407663 -0.363425 -0.017818
-0.130759 1.362565 -0.150789
-0.152218 0.056795 0.902861
1.248150 0.381081 0.263214
1.074764 0.104207 -0.442386
-0.677311 -1.099802 0.146719
-1.108721 0.245123 -0.335922
0.455253 -1.245193 0.195312
0.439935 0.793718 -0.469670
-0.197024 0.031806 0.856600
-1.564494 0.444924 -0.039004
1.153287 0.005079 0.337784
-1.685890 0.374247 -0.038542
-0.097120 -0.090546 0.877209
-0.613265 -0.074971 0.749075
0.046568 0.014074 -0.953357
-0.002915 -1.444176 -0.332821
-1.419629 0.218959 0.146061
0.039601 -0.237010 0.856242
0.069033 0.588708 -0.647810
0.491975 -1.450036 -0.032217
0.720375 0.887588 0.203678
0.083253 1.455398 0.223781
0.526267 -0.136342 0.608112
-0.202741 -0.013439 0.955123
0.383271 0.035380 -0.842571
-0.076920 0.059997 0.875736
-0.601244 1.095836 -0.170632
3.060872 1.943220 2.029642
3.098950 0.912687 -2.316846
1.538658 0.352379 1.072407
1.298909 3.719166 -1.766864
-2.717297 -2.332971 2.288430
-4.395949 3.362405 3.613523
2.477478 3.601788 -2.565829
3.547048 -2.420209 -1.599492
2.700299 3.171058 1.678253
2.689391 -2.159787 -2.666243
-1.967059 -2.211122 -3.907132
-0.730237 3.373158 -3.562939
-0.110057 -1.077480 -3.577428
-3.993359 3.695899 3.413125
2.080311 4.139682 1.556927
1.563552 3.981043 -1.959960
3.065084 -4.841532 -2.718038
-4.210759 2.383929 -3.045924
-3.550883 -1.402856 -4.986782
-1.596392 2.676347 0.512107
1.951861 0.343348 3.912675
-1.451294 1.608299 4.708190
4.431048 2.148408 2.251016
-2.726411 -2.616146 3.464964
-0.439576 -3.485916 -3.024165
3.259502 -2.726643 3.631007
2.708810 3.253669 4.610745
-2.372481 -3.675030 3.670855
1.840643 0.966918 2.833525
0.804916 -1.987976 0.200156
3.069666 0.158628 -1.216266
-0.696872 0.980638 0.958881
-2.518203 4.676003 -1.683845
0.123652 3.363315 -4.754651
1.117679 -1.944192 1.421426
-4.193078 -4.589444 -1.142480
-2.200245 -0.296025 -0.347135
2.610872 -0.924823 -0.754274
-3.485146 1.329777 1.271108
4.332010 2.324346 -1.677928
-2.853460 1.871667 4.148937
-4.656776 -0.761592 2.462748
-1.640166 -1.589612 2.149269
-0.516570 1.373643 -3.384193
2.983016 2.223434 -1.230100
1.082877 3.041780 3.698581
0.941061 -3.681203 4.879088
-3.821210 0.838345 0.556102
0.699139 0.315957 3.898405
-2.729258 2.580826 -2.946238
