ply
format ascii 1.0
element vertex 1050
property float x
property float y
property float z
end_header
-1.820732 1.955336 -0.258432
2.954261 -0.415004 0.656858
2.549616 0.641195 0.889687
-1.377236 0.877271 -1.085125
1.010551 -2.040307 -0.355374
-1.923987 -1.949584 -0.531123
1.594239 -1.392924 -0.958433
2.749372 -1.068560 -0.639459
2.212917 -1.347225 -0.836009
-1.698403 -1.042557 -0.937703
2.424558 -1.278185 -0.805326
-1.464957 -1.381288 -0.859320
1.296089 0.575248 -0.872497
2.647756 0.901920 0.691298
1.722038 0.769278 0.996730
-1.894089 1.801548 0.651877
-1.488200 -1.075300 0.876754
-2.025306 -1.035127 0.932994
-1.607095 0.397541 0.990057
1.221130 1.318146 -0.936186
-1.377933 -1.603577 0.778609
-1.974556 -1.050962 -0.975632
2.867146 0.473787 0.647636
3.034248 0.309166 -0.401857
2.478527 -1.185542 -0.841199
-2.388850 1.537145 0.737392
0.462716 0.274529 0.969181
-2.310988 1.065891 -0.854951
-2.919587 -0.784804 -0.236899
1.941566 1.515922 0.789669
-2.002579 -0.892982 -0.986604
1.638805 1.910481 0.421566
2.768550 -1.263020 -0.545987
-0.825237 -0.118230 0.961165
-2.108733 -0.584489 1.010484
2.996157 0.244555 0.617278
1.480972 1.235246 0.883812
1.191787 0.662737 -1.030265
0.351830 0.637850 -1.040638
-2.617333 -1.219732 0.778348
-2.462341 1.574175 0.625828
-2.546520 1.485824 -0.653608
2.195580 1.187921 0.813201
1.785144 -1.251700 0.993333
2.983801 0.851277 0.464864
-2.768917 -0.321826 0.742951
2.973063 -0.946018 -0.274830
-0.497940 0.583771 -0.978264
-2.266200 -1.539408 -0.648761
-1.859397 -1.669926 0.705654
0.346747 1.631556 0.885154
2.089188 -0.366626 -1.004511
1.597302 -1.564179 -0.836905
1.358074 -1.684638 0.905463
1.073255 -0.264746 0.994834
-0.231881 -0.191597 -0.911742
-0.517360 1.975851 -0.304102
-2.780974 -0.467975 0.651485
-2.075047 -1.638566 -0.745300
-2.011995 -0.862670 -1.001095
-1.510258 1.377875 0.883857
-2.794667 0.860883 -0.609533
-2.441706 -0.914221 -0.794825
-1.444234 -0.320172 -1.046831
-2.741115 -1.026342 -0.638308
-0.849323 2.027098 0.242983
-2.816244 -1.235145 -0.410163
2.749484 1.008948 0.714488
1.084716 0.631671 0.970069
-0.751731 -0.893530 0.962331
-2.331445 0.914950 -0.792172
1.529688 -1.255861 0.917171
-1.019352 -0.318072 1.022108
2.286843 0.848040 -0.937439
-2.574764 -1.294646 -0.736456
1.144486 -1.191626 -0.995487
-2.353467 -1.746313 0.219056
-2.363942 -1.309319 -0.784586
-2.672465 -1.230251 -0.666336
1.342441 1.715519 0.800974
-2.225580 1.698408 -0.725231
1.494589 1.441285 -0.956168
2.827170 -1.038167 0.638214
1.154132 1.525441 -0.790888
1.011032 1.783824 -0.790870
-0.498374 0.226625 0.960512
2.829863 1.205451 -0.455794
1.924167 1.424404 -0.898960
2.717285 1.541860 0.332134
2.393880 1.514005 0.747334
-1.907669 -1.670713 -0.721933
2.350838 -1.530421 -0.707332
-1.686480 1.021687 0.946149
-2.938753 -0.793357 -0.590628
0.312929 -0.620121 0.984922
-2.388829 -0.853040 0.955918
-1.859909 -1.842651 0.545787
-2.785211 -0.144261 -0.639907
1.616270 -1.997995 0.394018
-2.548965 1.674550 -0.432623
-1.143399 -0.909542 -0.933775
0.235119 -1.636997 -0.827108
-1.910808 1.656949 -0.826447
1.815092 0.743701 -0.914341
-1.209234 -1.872983 0.720749
-2.670565 0.665365 0.758708
1.441024 -1.251991 -0.939321
2.275571 1.949198 0.092084
-2.540889 1.712841 0.185738
1.483120 0.410957 1.021579
1.162192 1.652537 -0.914699
-1.880777 -0.993842 -0.913696
-2.197473 0.640506 0.956383
2.302766 -1.521655 0.747256
-1.328354 -1.970950 0.515667
-0.886337 1.307607 0.934621
1.317876 -0.556459 -1.000226
-0.903432 0.960267 -1.054503
2.528007 1.452948 -0.717096
0.918874 -0.534418 -0.988625
2.643928 -0.510613 -0.710786
2.973936 -0.352092 -0.038512
1.986813 1.358041 -0.849442
-2.973889 -0.257823 0.252423
-0.865689 0.680132 1.043747
-2.532516 1.636202 0.551676
-2.807007 1.230189 0.606146
0.221370 1.078959 0.984934
-2.961429 -0.799120 0.345040
-1.580495 0.703336 -1.005235
0.434145 -0.989794 0.911933
2.736618 -1.429715 -0.293921
-1.903782 -0.597244 -0.840276
1.526524 1.712271 -0.765648
2.342326 1.715183 -0.470392
2.876852 0.643870 0.386429
-0.651079 -1.312010 0.971616
1.647675 1.355705 -0.909596
-1.259024 -0.855919 -0.898253
0.920646 1.284534 0.945390
-2.325759 -0.369117 -0.875568
-3.050655 -0.887575 0.455421
-0.969411 -1.367063 -0.901745
-2.645425 0.527817 0.799287
-1.903208 -1.741854 0.825179
-1.765412 -1.054389 0.864194
0.847605 -1.101392 -1.017872
2.186601 1.878985 -0.513818
1.882919 0.986479 -0.963919
-1.469271 0.110592 -0.994444
1.105843 -0.877675 -1.002746
1.777995 1.008231 -0.953742
1.748968 -1.905694 -0.546993
-1.687574 0.641468 -0.915182
-2.911661 0.967974 -0.331996
-2.263643 -0.940526 0.827936
1.120658 -1.860804 -0.675839
-0.378652 -0.980409 -1.080508
2.677009 -1.397520 0.570069
2.481449 -1.693361 -0.227086
-1.949303 -0.974225 0.880940
1.150775 1.134521 -0.986191
1.790783 -1.150965 -0.955742
-0.793387 -0.533533 -0.926441
-2.193730 -0.283874 -0.884727
-2.033531 0.946643 -0.862361
2.157159 1.726487 -0.464134
2.952943 0.338074 0.525517
0.461039 1.615353 -0.939747
-1.173192 -2.030851 0.013611
2.840723 0.992164 0.447024
-0.518936 -1.023994 -0.948125
-2.118033 -0.494543 0.971011
0.604665 -0.684178 -1.033689
-1.783537 1.979454 -0.506956
-2.647289 1.139210 -0.675650
1.414268 -1.910968 0.540827
-0.476485 -1.552473 0.833725
0.315599 -0.060641 -1.015948
-2.552776 -1.219058 -0.734201
3.033441 0.691752 -0.364972
-1.013120 0.704297 0.943312
2.322676 1.364288 -0.776761
1.691763 1.883741 -0.532780
0.996682 -1.705593 0.897304
-2.464329 -1.227059 0.710289
-1.228435 1.756293 -0.876205
-3.054429 0.442982 0.530860
-1.600788 -1.230107 0.856959
-0.854166 -1.487493 -0.851011
-1.430924 -1.484870 0.865156
0.659691 0.558089 -0.899554
2.143399 1.513793 0.889095
0.715111 0.161778 -0.872090
2.751746 -1.404245 -0.414235
-2.626995 0.669453 -0.677888
-0.854511 0.201632 -0.970578
2.528443 1.453123 0.702975
-2.945958 0.991448 -0.354485
-2.775097 -0.814155 0.600954
-0.941871 1.654852 0.772822
1.050310 -1.495319 0.798625
2.157883 1.609273 -0.745818
-0.567702 0.046515 -1.008764
2.537936 1.228933 -0.692143
2.840989 0.683039 0.680507
-0.869508 -0.853301 1.124045
-0.346234 0.263434 0.979322
-1.305334 1.878449 -0.639860
-0.947368 0.589238 -1.020062
-1.498977 -2.055186 0.281373
1.224191 1.705952 -0.836402
-1.726718 1.651432 0.775730
2.632656 1.564543 -0.370094
-2.526850 -1.453270 0.614645
-2.413184 1.559881 -0.660713
-2.948360 0.800282 -0.337793
2.075370 1.255154 0.846481
0.515960 1.005182 0.950312
1.911376 -1.787901 0.265634
0.638883 0.190106 0.985902
2.668207 -1.583271 -0.485998
-2.253113 1.735589 0.504018
-2.011958 0.867732 0.975851
1.540982 0.936873 0.983339
-1.512843 1.326975 -0.978752
-1.009666 1.091825 -1.025182
-2.727356 -1.083928 -0.703051
1.278720 1.390583 0.949542
-2.176125 -1.818417 -0.367976
-1.321578 0.819197 1.035962
-2.909593 -0.738749 0.626589
2.787577 -1.133979 0.491123
2.667498 -1.325650 0.607726
-1.990852 1.582292 -0.782298
2.361746 -1.826194 -0.037564
-2.045281 0.401735 -0.881502
-0.424179 0.447279 -1.070421
0.432414 0.516047 1.047431
-1.650914 1.217375 -0.887161
-1.815079 1.236451 0.911181
-1.755967 -1.172692 0.935987
1.517403 1.616277 0.862891
-2.189054 1.417343 -0.842409
1.482400 -1.123794 1.015887
-1.430109 1.216133 1.019676
1.706493 1.919157 -0.625379
2.860849 1.134675 -0.384537
1.512700 -1.522121 -0.920650
2.657924 1.439370 -0.518596
1.198213 1.855018 0.616059
2.157334 0.262573 0.917616
1.653008 0.793648 1.003544
2.846107 -1.366277 -0.296534
1.062956 -0.613486 1.053886
-1.764691 1.139991 -0.949264
0.921347 -0.813288 -0.891964
-2.753185 -1.342072 0.214120
-2.932425 0.883216 -0.355986
-2.187593 -1.072748 0.849463
-1.201871 -1.506845 0.872889
1.311832 -1.902954 0.585120
-2.258999 -1.824900 -0.453540
1.637787 1.758353 -0.666382
2.541377 1.602194 -0.527672
2.174267 -1.773592 -0.552517
-2.530785 -1.280990 -0.716653
1.204321 1.965571 -0.392128
0.503780 -0.367638 -0.907860
1.494806 1.249225 -0.953413
-1.532217 -1.202389 0.976475
-0.669164 -0.733677 -0.991510
-1.551129 1.865512 -0.436315
2.280798 -0.877265 -0.997039
2.566879 1.588705 -0.585534
-0.480644 1.083601 0.975810
-1.786843 -1.930446 0.413818
2.343819 0.870661 -0.894664
1.066684 1.744436 0.878819
-0.734631 -0.684860 -0.948194
0.504212 -1.503208 0.850336
-2.713771 0.979233 0.714223
-1.573831 2.007512 0.461774
-2.652852 1.027833 0.874056
0.836874 0.536367 1.023032
1.628693 1.801895 0.747194
2.429999 -0.433421 -0.900450
-2.262262 -0.402586 -0.880085
0.816532 1.331539 0.943262
1.039674 -0.492428 -0.987592
-2.110816 -1.615989 0.716872
1.796156 -1.337296 0.904918
2.285712 0.714702 0.888573
-1.599755 1.252757 -0.945300
0.388864 0.388131 -1.011696
1.290682 -0.458347 -0.957959
2.714480 1.113853 -0.825787
-1.403825 -1.303639 0.880909
-2.148554 -1.775635 0.623933
-2.893064 1.186841 -0.588194
-0.014989 -0.170284 -1.093111
-0.534383 -1.386823 0.933188
2.976633 0.720401 -0.641569
2.292925 1.098894 0.868371
-2.990717 0.750529 0.396026
1.438356 1.814435 -0.689425
-0.637145 -0.980445 0.983234
-0.878858 0.876991 0.973363
0.825641 -0.022271 -1.021847
2.775151 1.130356 0.628151
-2.327418 -0.277507 -0.777590
-2.130664 0.506835 -0.914142
1.242663 -1.820086 -0.655139
2.790254 1.062009 0.615486
2.728480 1.445704 -0.211101
2.916915 -0.944351 0.320717
2.856952 -1.099005 0.526986
2.102988 -1.846587 -0.694968
1.149728 -1.689619 0.788272
1.088007 -1.958444 -0.618885
2.586403 0.525068 0.792822
2.331192 1.517330 0.583322
1.250438 -0.269597 -1.046951
2.449528 -1.347935 -0.820827
2.318673 -1.869183 -0.438231
1.869786 -1.343274 0.824773
-0.742086 1.328832 0.956722
-2.086078 1.928487 -0.161470
-2.158038 1.591286 -0.793948
2.296314 -0.370553 -0.951922
-0.277378 1.179367 -0.803514
-1.771897 -0.837030 1.051139
0.311356 -0.305949 0.931993
1.738413 0.951047 -0.920737
-1.668130 -1.280781 -0.993956
-2.484519 -1.561003 0.683342
-1.178707 1.306867 0.910762
-2.602088 1.031152 -0.802290
1.970403 1.499028 0.752299
-2.225382 -1.731423 -0.657925
-1.113570 1.109110 0.929116
-1.392634 1.765687 -0.784309
-2.825815 1.243867 0.473750
-2.568342 1.588083 0.346916
-0.369509 -1.309346 -0.956616
2.075539 -1.499746 -0.822564
-2.786900 1.417707 -0.223982
1.476418 -1.856012 -0.698904
2.953349 -0.862892 -0.513671
1.443974 1.936274 -0.584521
-1.726163 -0.737982 -1.012184
-0.829278 -1.386588 -0.942124
1.688598 0.789170 -0.876882
-2.232438 -1.486330 0.789321
1.676185 0.234428 -0.952877
0.938455 -1.881359 -0.602017
2.447489 1.341035 -0.773828
-2.862802 -1.111302 -0.506271
1.656741 1.884804 -0.586106
1.132831 1.197984 -0.939852
-2.177302 0.286914 -0.888518
1.376782 -0.412752 0.989166
1.013267 -1.663167 0.972247
-0.529477 -0.622961 1.009371
2.134612 1.263466 -0.924429
1.131851 1.432202 -0.934763
2.825507 -1.053644 0.184339
0.212753 -0.147902 -1.025582
-1.548580 0.438819 -1.018072
0.276219 -0.297708 -0.995041
-2.204271 -1.516485 0.674397
-0.251334 -1.497580 -0.831161
0.923737 -1.684283 -0.793154
-2.766932 1.272743 -0.686915
-0.517613 0.188657 -0.955971
1.303223 1.933056 -0.584225
1.514503 1.753566 0.836402
-0.347350 -0.899847 0.964287
-0.802061 -1.395231 0.897976
-2.070791 -1.108487 -0.904596
-1.475342 -1.813605 -0.806205
0.821006 -0.643189 1.015638
-1.723298 -0.987984 0.943827
0.661363 -1.114963 -1.037100
0.566102 0.307587 -1.029995
1.022883 1.447658 0.917840
1.709914 0.737359 0.935052
-2.366496 1.220710 -0.758663
-2.655882 -0.908236 0.735140
-2.246256 0.983811 0.930650
2.861371 -1.199949 -0.601483
-0.801125 -1.833405 -0.551074
-2.795498 1.241607 0.482406
-2.613682 1.650264 -0.314008
1.092482 -0.569660 0.959914
-3.086289 0.625749 0.212724
-2.139769 1.880795 0.358905
-2.807337 1.075084 -0.573973
0.465375 -1.511757 0.866474
2.509312 1.132572 -0.652468
-0.791503 1.995579 -0.529897
1.909644 -1.820510 -0.578816
1.721973 0.660925 0.971013
2.431072 -1.308606 0.754949
2.311797 -0.680332 0.948963
-2.248739 0.872204 0.856305
-2.545953 -1.659776 -0.493595
-2.270772 1.396761 -0.758576
-0.951617 0.481557 -0.952039
2.035075 1.678285 0.643331
-2.756815 -1.040517 0.582758
1.198506 1.480781 0.845069
2.733464 -1.334452 -0.560644
2.211409 -1.662180 0.619671
-2.790612 -1.275745 -0.402067
0.698285 0.513082 -1.015017
-1.799520 -0.489259 -0.936498
-2.079564 -0.625431 0.996856
-1.956587 -1.273593 0.874050
1.504176 1.319338 0.908055
1.945997 -1.471936 1.021978
1.567738 -0.006617 0.982106
0.234295 1.617452 -0.856334
1.917775 1.312757 0.894124
-1.367509 -1.129152 1.027343
1.899730 -0.830338 1.000604
-2.351877 -0.670773 -0.999534
-2.400243 1.268852 0.823740
0.499601 0.294654 -1.045452
-0.667231 1.891368 -0.636379
-2.354735 1.638230 -0.610880
2.504466 1.299569 -0.795966
-1.257921 -1.215194 -0.883827
2.341613 1.813551 0.610174
-1.819012 -1.190431 -1.087429
-1.434743 -1.463887 0.873435
-2.624622 -1.096540 0.837921
-2.855729 -1.245566 -0.543857
-0.745785 -1.942312 -0.640686
-1.204378 -0.488386 -1.026295
-1.016776 0.777911 0.993623
2.450743 -1.139133 -0.842782
-2.009729 0.737294 0.923803
-0.319101 -0.120511 -0.982351
1.639188 -1.988738 -0.230998
2.605730 -1.142755 -0.800137
-1.626058 1.818585 0.636456
0.425201 -0.106540 0.955071
-1.677804 -1.015363 -1.061398
1.445866 1.946175 0.494132
-1.610817 1.658620 0.777289
2.846358 1.177558 0.157562
2.077417 1.291498 0.827587
2.040730 -1.034840 -0.908166
2.510341 0.960672 0.861013
2.106710 -1.462265 0.923439
2.106798 1.765664 0.650666
3.060667 0.542454 -0.227919
-2.138859 -0.444849 0.940002
0.654766 -0.261762 1.077486
-2.238687 1.595150 -0.757764
1.274229 0.235927 1.032140
-2.731176 -0.582204 0.678169
-1.488101 1.955565 0.390415
1.581056 1.570391 -0.870690
-0.649267 -1.872955 0.692075
1.792113 1.825167 0.723391
-2.528556 1.516792 -0.592540
1.757393 1.349661 1.013379
1.295924 0.431401 0.985767
2.273699 -1.661063 -0.691965
0.938036 -1.406835 0.898588
2.427481 1.722656 -0.225345
2.010424 0.393978 0.924373
2.898220 0.636564 0.571259
0.421136 -2.012481 -0.561627
-1.325185 0.903476 -1.061575
1.745264 1.837751 -0.619992
-0.449916 1.261061 -1.034420
2.664655 -0.452857 -0.684529
-2.445018 1.643592 -0.407950
1.858365 -0.222899 -0.923284
1.570176 -0.784071 0.950794
-2.912177 0.631091 -0.251913
1.598915 -0.823065 0.963334
-0.956821 -0.579543 -1.008771
0.985742 -1.891440 -0.610148
-2.562537 -1.640079 0.636556
-1.830517 0.304720 -0.986416
-0.872405 -0.481730 -1.008404
1.836995 -0.465342 1.014529
1.589439 1.065253 -0.995923
-1.040143 1.661847 0.819725
1.521498 0.432131 -0.936747
2.328425 -0.446103 0.878483
-2.295085 -1.319279 0.842954
2.924205 1.096786 0.112442
-1.420833 -0.499860 -1.005575
2.109661 -1.838369 -0.327141
2.471341 -1.452667 -0.612273
0.325337 1.566790 -0.886237
-1.440107 1.243057 -0.972904
2.698236 -1.566949 -0.283759
1.294498 -1.824270 -0.652205
-1.718162 -1.122320 -0.979661
1.820960 1.839460 0.563874
-1.858022 1.497006 0.756842
-1.817148 1.131140 -0.901440
-1.356411 -1.908178 0.599243
-1.734879 -1.990418 -0.240165
-1.944894 1.747142 0.880143
1.899306 -1.792196 -0.701984
1.842220 -1.007257 -0.994467
2.913152 -1.121206 0.397384
2.302569 -1.719150 -0.338376
2.028288 -1.825999 0.664773
1.898475 -1.683369 -0.766285
2.549504 -1.513299 -0.508589
1.992281 -0.903115 0.789165
2.236657 -1.538721 0.611210
-0.970633 0.529690 1.113829
0.999449 1.624191 0.931508
-1.736808 1.919654 -0.333326
0.068043 1.322308 -0.921393
-2.599003 0.611401 0.737708
1.216621 2.014954 -0.529573
1.282102 -1.607007 -0.918825
-0.533442 1.322404 0.930217
-2.293731 -1.153818 -0.846708
-2.440997 1.310729 -0.774031
2.711422 1.169396 -0.667726
-2.729223 -1.496442 -0.355485
-1.148353 0.940309 -0.962662
2.909810 -0.906553 -0.569199
1.475467 1.890440 -0.711193
-1.860318 -0.391320 -0.963045
1.625108 0.827018 0.944856
-1.587770 -1.493984 0.862306
1.970250 -1.500314 0.750018
-0.627002 0.537182 -1.001884
-2.133643 1.708774 -0.545196
2.803066 1.353589 -0.219005
-1.805656 -0.418734 1.000605
-2.909631 -0.858550 -0.574556
2.448409 -1.424591 0.759480
-0.870437 -1.925362 0.591653
-2.733804 -1.525792 0.309848
2.723049 -1.308215 0.543754
-2.834910 -0.944815 -0.576420
-1.854865 1.542338 -0.792843
2.556260 -1.204999 0.853513
-2.565904 1.121710 -0.760606
-1.959439 0.766693 1.002425
2.886862 1.069996 -0.261160
-2.915654 0.705585 0.424339
1.408667 -0.956352 1.001211
1.545880 -1.756207 -0.628261
1.170511 1.511521 0.910952
-2.139707 1.760278 0.618283
1.892725 0.817375 -0.905450
1.707970 1.571020 0.875319
-1.675251 -1.969957 0.204418
2.593100 1.470523 -0.746669
-2.088724 -0.688022 1.009125
-0.995396 -1.941278 0.406804
-1.318389 -1.165840 1.036604
2.512179 -1.258121 0.812835
2.959872 -0.187131 0.150169
1.631123 1.736422 -0.761947
1.113340 -0.637957 -0.918432
2.718278 1.382863 0.512919
0.233190 -0.716255 -0.953569
-1.127145 1.142015 -0.901132
0.325160 -1.409517 1.068538
-2.059449 1.010021 -0.950462
2.938265 1.224204 -0.387157
-2.079820 -1.247286 0.884773
1.044154 1.084935 0.990942
-1.052482 1.856229 -0.626980
-1.446390 1.840113 -0.641203
1.507029 1.163417 -1.004507
-2.311374 1.169047 -0.810933
0.250581 -0.069987 0.919452
0.188735 -1.231295 -1.021251
-1.347564 -1.786638 0.822429
2.843277 0.386919 0.626522
1.234871 -1.815787 -0.939346
1.083895 1.586112 0.780050
1.868013 -1.428819 -0.890378
-2.794458 1.206216 -0.679358
-2.859524 -0.567350 0.623450
-1.995542 1.848518 -0.288717
1.378867 -1.496724 0.852166
-3.023108 0.323443 0.085658
2.349381 1.018304 -0.710274
-2.353072 -0.777673 -0.871089
1.446581 0.792664 -1.018395
-1.273646 1.778555 0.665362
-1.534622 1.114902 0.974517
-0.149326 -0.576420 1.019720
2.558141 -1.002218 -0.797877
1.405133 -1.915968 0.467646
2.907826 0.666712 0.500293
0.523279 -1.860325 -0.565407
2.529110 -0.287747 0.802560
-2.670343 -0.499238 -0.821179
2.662106 1.066253 -0.686214
-0.071163 0.068215 1.003557
0.932791 -0.703154 -1.005805
0.303305 -0.790471 0.953115
2.811198 1.455121 0.187689
2.529816 -1.638242 -0.161562
-0.625951 -0.333372 1.036535
-0.633664 1.307160 -1.000106
1.301823 -1.529482 0.878663
0.910219 -0.662778 -1.105579
0.866941 1.883245 0.669131
2.252745 -0.843898 -0.927536
1.243160 1.101379 0.905754
1.769292 -0.972553 -0.977376
2.143081 1.633278 0.579831
2.686655 1.347755 0.599098
-1.313237 1.685926 0.839322
-2.312827 1.354125 0.784594
-0.559452 1.000293 -0.991123
-2.953080 0.572988 0.170895
2.469674 1.478261 -0.519281
0.542813 1.164289 0.959510
-1.498831 -1.346694 1.009306
0.506258 -0.945942 1.006456
1.717662 -1.017219 -0.908341
-2.199188 -1.573643 -0.680020
-2.204007 1.574146 -0.722385
1.947725 0.760062 0.962417
-2.667882 1.564005 -0.498153
-1.374307 1.878123 -0.657303
1.994322 1.032590 -0.935151
2.743861 -1.055182 -0.719749
0.554161 -1.692561 -0.741259
2.492130 1.607685 0.627255
2.908282 0.948955 -0.282633
-2.568625 0.268676 0.907025
-1.302302 -0.742400 0.940763
-1.428789 1.008215 -0.843125
-1.354933 1.287139 -0.923502
-2.617731 -1.560078 0.601729
-0.253617 1.363397 -0.966592
-0.863267 -1.842240 0.595328
0.773711 -0.758099 -0.959192
-0.751928 1.450674 0.989942
1.842212 1.774877 0.600222
-2.499080 1.430306 0.606670
-2.069740 -1.808241 -0.201063
-1.869433 -1.426592 -0.927304
2.979216 0.725037 0.440167
-2.655307 -0.937814 -0.782595
-0.692432 0.193114 1.016907
2.799259 1.503788 0.243973
-2.089132 1.769344 0.731173
-1.166775 -1.620476 0.709170
2.993504 -1.264683 -0.193508
-1.077269 1.252706 -0.922223
2.214475 -1.759477 -0.487925
1.694319 1.890847 -0.603444
2.881127 -1.013649 0.481522
0.799007 0.874418 -0.933382
2.515406 -0.846992 0.831590
-1.422699 1.450099 -0.868249
2.206637 -0.852618 0.944296
2.583694 -1.431951 -0.612390
-0.364568 0.532661 1.002137
1.182622 -1.282466 -0.973642
-2.536870 1.458032 -0.621404
2.850213 -1.228695 0.403583
0.410329 1.969633 0.305687
-2.776352 -1.383141 -0.560458
-1.612378 0.851062 -0.969579
2.081401 -0.258508 -1.046760
0.785255 -0.602039 0.972238
-2.362086 1.411224 -0.807040
2.019742 -1.180432 0.843838
-2.051754 0.974223 0.797415
1.057349 0.261770 -1.005292
0.634431 -0.717723 -1.004727
-2.062015 -1.236610 -0.776805
-2.184093 1.560635 0.838459
1.412388 0.319791 1.062574
-3.021754 -0.819209 -0.368360
-1.878756 -1.391317 0.965780
2.921782 1.300841 -0.281196
-1.577936 -1.079328 0.804845
-1.677977 0.761434 1.043728
2.258261 1.471891 0.805862
-0.480690 0.952943 0.963682
1.041868 -1.500572 0.928288
0.787220 0.476368 -0.938667
-1.209668 1.785892 0.767543
-2.024571 -1.537651 0.866739
-0.600937 -0.385328 1.023933
-1.911962 1.819926 -0.453016
1.696008 -1.434969 0.907589
-0.676384 1.348774 0.973212
2.980275 -0.825198 -0.183351
1.932838 -0.867962 0.952751
-0.769738 0.472123 -0.977658
2.518469 1.096780 -0.763113
-2.678979 0.821135 0.890274
-0.778163 -1.308329 -0.903354
-0.113518 0.209869 -0.994217
2.238911 -1.530110 -0.750109
-2.771097 -1.499489 -0.544145
3.099754 -0.770870 0.216302
-0.527184 -0.283475 0.973240
2.165852 -0.986450 0.902804
0.593704 -0.795511 -0.989134
2.327696 -1.716021 -0.585897
0.972491 -0.988865 -0.960905
2.253886 1.559003 -0.771631
-3.027937 0.722127 -0.345751
-2.818766 1.343236 0.124760
-2.875973 -1.302395 -0.295060
-2.891933 -0.966820 0.639872
-1.743308 0.983040 -1.048000
-2.332278 1.809265 0.407828
2.564475 -1.670992 -0.566860
1.501612 -1.133443 -0.813753
1.010837 2.016282 -0.469607
-1.740919 -1.233494 0.864701
-1.939796 1.861145 -0.588543
1.185231 -0.196578 0.958740
-2.386254 1.234561 -0.830065
2.554095 1.661553 0.425735
-1.933827 -1.695639 0.760173
1.479734 1.629267 0.894774
-0.144732 -0.365956 0.907538
-0.058478 -0.083224 -1.053219
-1.964686 -1.141858 0.985236
-2.695066 -1.354793 0.474790
-1.972648 -1.963056 0.281076
-1.933801 -1.303997 -0.883799
-0.245574 -0.379671 -1.002746
-2.272787 -1.654522 0.430459
-1.315667 -1.489241 0.864422
1.109576 -0.220194 1.063404
1.299677 -1.121312 0.941117
1.027774 -0.066278 -1.006176
0.558962 -1.214550 -1.100174
0.706843 0.287768 0.973129
2.105253 -1.635877 -0.714883
-2.270640 1.776627 0.480176
1.676632 -0.735286 0.988498
1.069177 -0.797685 -1.031497
2.075208 1.971356 0.556154
2.150318 -0.889254 -0.901225
-2.531696 1.126217 0.799925
-2.834240 -1.283111 -0.236799
-2.825665 -1.329710 -0.203754
2.709221 0.994594 -0.798925
-3.000244 0.549786 -0.280765
2.737196 1.502227 0.208837
-0.284368 0.453891 -1.052657
-1.831135 -1.154667 0.981272
-0.841204 -1.185334 -0.983008
2.220960 0.794760 -0.864536
-0.632427 -1.029252 1.026942
-2.368035 -1.723727 0.468136
-2.327989 -0.681818 -0.797795
1.745625 1.502454 -0.933489
-2.419469 -1.698427 -0.382701
1.712724 -0.220556 0.996665
0.178534 -1.498182 -0.989413
2.372915 -1.667130 0.483141
-2.757261 0.193932 -0.793848
2.001303 1.051521 -0.930111
-2.399307 1.274658 0.795892
-2.121287 0.839708 -0.871178
2.575603 -1.611996 0.357517
-1.642782 -0.280285 0.942736
-2.319137 1.449797 0.833031
1.442196 1.887252 -0.491506
0.991551 1.696191 0.829690
1.991493 -1.762818 0.709978
-2.174818 -0.410504 -0.923668
-1.440165 -1.918886 0.584681
-1.112723 0.802540 1.006590
-0.637154 1.732494 -0.756591
-2.426623 1.658102 0.547209
-2.225451 -1.301729 -0.849829
2.920595 -0.870466 0.367030
2.825635 -0.384699 -0.714921
2.026321 1.596994 0.769537
0.574674 0.283188 -0.988302
0.675555 1.887167 0.703633
2.081134 -0.577603 -0.868260
-1.002963 -1.802747 0.837611
-1.195852 1.012175 0.956729
0.678821 -1.392108 0.953883
2.557949 0.084857 -0.798016
-0.781792 1.011788 0.900900
2.621314 -1.122179 0.733075
-1.430041 -1.077297 -0.921294
-1.946133 -1.255722 0.944697
-1.960879 1.848397 -0.570997
0.380506 0.219911 1.021681
2.925834 -1.247197 -0.189220
-1.073296 0.250265 -0.959414
-1.132324 -0.639310 1.036669
-1.408120 1.443214 0.903449
-1.513671 -1.010947 0.988136
2.568321 0.929513 -0.770504
-2.635993 -1.204193 -0.772834
-1.186092 -1.386322 0.866973
-2.820903 0.586052 -0.721179
-0.681527 0.418213 1.053778
-2.429857 1.721780 -0.521178
2.672889 -1.510112 -0.560162
3.099609 0.738164 0.487844
-2.065929 1.862416 -0.163105
1.914440 -1.443488 0.845253
-2.187384 1.145618 -0.835131
2.618648 -0.544416 -0.776899
1.885077 1.635535 0.796995
1.686202 -0.756083 0.894982
-1.839953 1.919712 0.204612
2.418763 -1.339217 0.781967
2.269694 -1.739282 0.216271
1.972906 0.964249 -0.899602
1.004321 1.795249 0.865868
2.915908 1.044913 0.445624
-2.372580 -1.721060 -0.138147
0.900000 -0.530504 1.046550
2.784938 -1.268419 0.500857
-0.733470 0.438613 0.967140
2.513584 1.002930 0.774665
2.973051 1.108265 -0.083713
2.313266 -0.915392 0.852442
1.653176 -1.083690 -0.911756
-2.415907 0.641257 0.834272
-1.221883 -0.537637 -0.998010
-1.410994 -1.735107 0.695332
-2.084733 -1.787592 0.559145
-0.176444 0.528998 1.107229
1.932484 1.556005 -0.808851
2.783194 -0.529004 0.623427
0.969760 1.605704 0.840473
-1.471910 0.726289 1.002856
-1.711727 -1.342294 0.809822
-2.736291 1.107114 0.642239
-1.482241 0.886402 -0.967783
-1.421364 1.116162 0.873618
2.592117 -0.665250 0.889525
-1.930486 -1.868129 0.636802
1.084026 1.718351 0.774462
-1.774954 -1.761069 -0.704599
-0.363533 0.842500 0.897966
-2.831346 -0.812361 -0.734394
-1.979271 -0.764293 -0.936077
1.326992 1.740744 -0.716089
2.904272 -1.231585 -0.418625
-0.871331 0.875671 -0.916515
-2.271729 -0.876205 -0.953298
-1.726851 1.272855 -0.988568
2.740394 0.577466 0.723921
-0.437901 0.725058 -0.979754
1.655638 -1.958079 -0.598931
-1.174293 -0.700306 -1.024661
2.471441 0.547445 -0.863589
2.411370 0.525989 -0.844259
1.427586 0.881183 -1.030332
-2.151913 1.890857 -0.447977
1.113068 0.472628 -0.996279
-2.202222 -0.577327 -0.940849
-1.380145 -2.030956 0.227002
-2.715531 -1.240273 -0.611930
2.188345 -1.037713 0.760626
-0.535897 0.692563 -1.007360
-0.569833 -1.453361 -0.843071
-1.156479 0.469183 -0.919240
-2.566212 -1.015550 -0.804153
2.251146 -1.661765 0.711798
-0.586974 0.766819 -0.907971
2.238752 -1.375662 -0.786008
-1.097991 -1.659749 -0.868397
1.613325 -0.620606 0.973465
0.714662 0.689709 0.988764
-2.758423 -1.450096 0.499995
-1.427623 0.646551 -1.033204
2.273447 1.682586 0.662754
-1.308383 -0.868872 -1.005051
-2.493584 0.829248 -0.796895
0.786506 1.741160 0.827337
1.903194 -1.465792 0.766405
0.925456 -0.711617 0.984505
1.282725 -1.900911 0.337151
0.341320 -0.807817 -1.087226
1.596011 -0.905734 0.936599
0.274526 0.971333 1.090115
-0.956903 -1.962833 0.556554
1.408957 0.878490 0.958112
0.673173 -0.802169 1.034146
2.865555 -1.092832 -0.159920
1.024492 -1.940265 0.217973
2.939340 -0.924106 0.278278
1.020748 -0.584655 0.964073
1.791304 1.768278 -0.643337
1.893084 -1.476374 -0.886513
1.793230 1.709512 -0.674659
-1.240435 -1.944904 -0.258268
-2.835983 -0.466311 0.809072
2.900583 1.331726 -0.314573
1.346196 2.082434 -0.487355
-0.630151 0.432455 0.991353
-0.544259 1.422873 -0.916020
-0.012584 0.448762 -1.045672
-1.146583 -0.315867 0.942094
-1.403594 -0.758854 -1.003896
-2.578589 -0.418370 0.892524
-1.207820 -1.293021 0.936088
-2.271224 1.298900 -0.740561
-2.697301 -0.723218 0.674036
0.869386 -1.825732 0.637332
1.933446 1.917728 0.248768
-1.872034 -1.071423 -0.971688
-1.396457 2.016011 -0.533383
2.851376 1.107318 0.551489
2.862011 -0.759600 -0.700415
-2.894742 -0.579296 0.498420
1.775257 -1.648421 0.792628
-1.540140 0.832688 -0.936508
2.932081 -0.498351 0.136300
-1.368460 -2.004135 -0.318055
1.694573 1.835202 -0.575782
-0.527250 -1.043843 0.920966
2.067990 1.152017 0.935761
2.651658 -0.894538 -0.756355
0.822901 -0.435367 -1.066971
-0.871243 0.324573 -1.059657
-1.143530 1.312013 0.904518
-0.311688 0.399524 -1.038272
-1.298245 0.629066 0.935453
-0.481818 -0.664427 -0.989995
-2.850089 1.086183 -0.585246
2.030395 1.325908 0.816422
2.344248 1.304050 -0.792187
-2.871916 1.198122 0.187037
-0.517501 1.719819 0.806589
2.440954 -1.217408 -0.780200
-1.175635 -0.200778 -0.922899
1.333166 -1.204906 1.040156
2.448102 -1.462477 -0.713875
1.429399 1.854700 0.573811
2.894656 -1.298074 0.096326
1.482537 0.919012 -0.947559
2.491085 1.478022 0.524747
0.767375 1.556459 0.855489
1.767016 0.446212 1.037762
-1.858620 1.705517 -0.715729
-2.307243 1.430721 -0.724743
-0.517461 -1.257911 0.918799
2.368228 -1.539651 -0.591558
-1.009568 -1.879420 0.598957
2.480827 -1.645615 0.563508
1.952072 -1.595400 -0.952060
-2.323243 1.632703 -0.695437
-2.370350 -1.768160 0.369153
-0.818167 -1.375146 0.976152
-1.392249 1.431704 -0.877207
0.394346 0.204713 0.902884
-2.626677 -1.626546 0.193481
2.159123 -1.844218 -0.472180
-1.797428 -0.827021 -0.856818
-2.425454 1.710653 0.447539
-2.626568 -1.439598 -0.470578
3.003580 -0.866020 0.353563
0.809818 0.366587 -1.017019
1.523967 -1.589828 -0.849901
0.578342 -0.629825 1.004833
-2.270228 0.697891 -0.887335
2.152504 1.668628 0.710890
0.798442 -0.392886 1.055789
1.793670 1.668434 -0.768431
1.678188 -1.848781 0.724613
2.361833 -1.700384 0.402977
0.794549 -1.277632 0.940515
1.972830 -0.769469 0.968141
-1.432140 1.118980 0.880744
1.663098 1.255577 -1.017032
-1.167840 -1.192407 0.938653
0.580949 -0.578079 1.007267
-0.357094 -1.959529 -0.324219
2.509523 -1.481779 -0.559644
-0.586316 1.521991 -0.942067
-2.731746 0.547957 0.677223
1.336974 -1.951326 -0.267423
1.893882 1.462847 0.786597
-1.636905 -1.507158 0.792516
2.817536 -0.912772 0.655388
-2.682604 -0.660159 0.788753
-2.923040 -0.572169 -0.544316
-2.060236 1.776518 -0.645208
-4.951998 -3.303519 -0.963851
-1.474560 -0.062087 -2.281282
4.457783 1.663921 -1.047998
0.799275 -0.148331 -3.977731
4.658896 -0.151224 -4.483300
-2.013733 -1.226686 -1.561362
0.608862 1.446351 0.714835
-1.474250 -2.816082 -1.799418
3.343877 2.179888 -1.198610
-2.265527 2.701219 -1.200092
2.458385 4.831564 -1.848127
-0.022829 -0.449600 1.067033
0.152053 2.302917 -1.052000
3.486506 -1.699990 -0.587107
-0.546753 3.412870 -2.725189
4.031788 -1.265804 1.722696
-4.312039 2.509890 2.011985
0.423352 -4.060562 -0.194883
-3.283147 1.016061 -4.971198
-0.623454 -3.400485 -2.250065
-0.145844 4.046042 1.106758
-4.109446 2.067203 3.085209
-1.038405 3.447888 3.380591
0.858331 1.839645 -2.578152
2.554635 -4.296621 2.580718
-2.037200 -3.617766 -0.406816
-2.763470 -3.395883 4.163642
4.456020 -2.440043 4.564851
-0.569073 -3.814526 -4.788195
3.476591 2.016478 1.437525
2.746493 2.743968 -2.266757
0.632860 4.347584 0.756753
2.116824 -2.929783 3.841472
3.486816 0.317273 -4.564401
1.280298 -0.290251 -4.089847
3.977781 -2.858757 -0.088018
1.608471 2.538888 1.760413
0.503366 2.225652 0.854187
-0.335622 -3.606899 1.587824
4.568904 -0.384176 -1.344639
4.889309 1.238670 3.459129
0.078253 -3.250279 0.185536
-3.700773 -1.183466 4.764116
-1.742696 2.900508 -2.880617
-3.837272 4.107361 -0.059319
-2.418187 0.092097 -1.892134
-2.219533 -1.583026 3.056833
-1.178085 3.541692 1.742531
3.821264 0.029875 -3.951729
-4.493780 1.628161 -0.102523
