ply
format ascii 1.0
element vertex 1575
property float x
property float y
property float z
end_header
0.632403 -0.313516 -0.040103
3.852049 0.001420 1.229444
-0.777423 -3.143416 0.461687
-0.870217 0.171756 -0.020831
-3.988441 -0.026922 1.448907
-3.564138 1.357190 0.982160
-1.793660 3.127491 0.793405
-0.737919 1.520937 0.121561
0.863254 1.296399 0.176925
3.024995 -1.797116 0.687882
3.264282 0.319865 0.650572
-3.355922 -0.853127 0.619723
3.350704 -0.550850 0.639483
-2.574755 0.162145 0.356862
0.590599 2.733176 0.398846
-1.107616 -0.242469 0.154488
2.081391 1.002116 0.317094
-3.083749 -0.106734 0.472837
-2.293969 -3.175012 1.560312
-3.779572 0.193407 1.021386
-2.219810 -2.156523 0.571499
-2.210363 -1.294778 0.396966
-0.836330 -2.307140 0.327558
-0.974789 0.591134 0.181121
0.797728 -3.738047 1.076791
1.023701 0.433659 0.017384
1.263290 -1.717766 0.201649
-0.210134 0.348194 -0.030932
1.015869 2.939353 0.420769
-0.845434 0.009953 0.027035
2.072166 0.691463 0.202049
1.091994 1.220479 0.083337
-1.008678 1.550747 0.230659
1.107582 -3.541900 0.877134
0.716744 -3.714885 1.120572
0.211904 0.136000 0.003015
-0.467001 -2.523196 0.323661
0.360055 -1.227796 0.092260
3.671816 1.732937 1.343053
-0.172292 3.731353 1.075750
-2.401895 -2.844127 0.914130
-2.974383 2.659651 1.394141
-0.461613 -0.597266 0.112440
1.978245 3.490654 1.549600
1.119189 -3.240688 0.679087
0.739458 -0.632995 0.050388
-2.380778 0.263486 0.382069
-0.037211 0.038640 0.001064
0.877559 -1.876611 0.177185
-0.438402 -0.246003 0.005994
-3.137854 -2.317138 1.276122
-0.131283 -0.891210 0.125726
0.017451 -0.010621 -0.031523
-1.483256 1.512762 0.204960
3.237881 2.038618 1.007732
0.773640 3.159866 0.579810
0.025279 3.777258 0.936020
-0.486787 -0.751971 0.029172
-1.940707 2.744249 0.620274
1.364666 3.295008 0.752530
1.668908 3.492404 1.144514
-1.905261 -0.116547 0.200512
-0.900433 -2.184819 0.307358
-0.742238 0.110627 -0.049649
-2.543221 0.909502 0.495624
2.933733 -1.831442 0.635261
2.123967 1.925854 0.463698
0.738541 2.393445 0.332180
-0.140890 -0.321299 0.060169
1.425271 -2.328292 0.359352
-3.922160 -0.573979 1.425763
-0.624588 -2.604232 0.367189
3.567868 0.898589 0.929551
2.653701 -0.087543 0.407065
0.557333 -3.330541 0.738304
1.051871 0.492083 0.188753
1.414004 2.949875 0.658373
-1.295596 -3.141123 0.753774
-2.597375 -0.524958 0.382875
0.974777 -1.270754 0.150933
-0.333175 3.931302 1.369415
2.339239 1.723094 0.443526
-1.197399 -1.589486 0.182375
-2.137420 -0.914368 0.315087
-1.461728 1.679703 0.274850
0.282379 0.416138 0.011913
2.083290 -3.226471 1.077928
0.314829 0.308021 -0.029914
3.451386 -1.355802 0.894098
3.461667 0.994629 0.778455
-3.921128 -0.713243 1.383422
-2.068706 0.662670 0.194613
4.012128 0.564809 1.328434
-3.779049 1.239534 1.472394
-0.329570 -0.187080 -0.028933
1.803186 -3.076257 0.769213
0.286915 0.518626 0.036148
-0.095817 -3.556543 0.796936
-1.132509 0.602754 0.002560
-2.481460 2.527065 0.699511
-2.063407 2.680733 0.872127
3.023395 1.298340 0.691438
1.772880 -1.747418 0.285750
-3.411687 0.898660 0.821657
-0.263657 -1.201004 0.091355
-1.792106 -0.554981 0.171659
-1.350852 3.499919 0.906871
-0.430884 -0.194207 0.004190
1.716654 -2.186223 0.465449
3.234379 -0.038653 0.696140
2.206297 1.745775 0.479537
-3.023482 1.783409 0.704894
-1.078725 -1.861134 0.169719
0.435640 -3.570314 0.885210
2.150082 -1.925837 0.502836
-0.567116 1.592811 0.167701
2.948229 -1.084562 0.540163
0.757012 1.329258 0.080711
-0.659550 -3.426064 0.733790
2.164395 2.876956 0.909420
-1.405310 2.408812 0.462401
2.855338 -2.302427 0.938815
3.938146 1.040718 1.424638
-0.048786 0.113610 0.036370
-0.220848 0.886574 -0.003954
0.596832 -3.772911 1.200377
-0.397243 3.726485 0.999693
-2.618544 1.714836 0.617902
0.176452 -0.465247 0.068439
-1.542143 -2.390809 0.429757
1.670359 -2.751400 0.698006
0.785421 -2.252819 0.307699
-3.201194 0.556083 0.668277
-0.785002 3.206076 0.542468
-1.496497 -1.179255 0.147721
0.112298 -3.520327 0.770822
0.100749 -0.279565 0.002491
0.167918 -2.363627 0.366258
-3.124185 -0.150550 0.589023
2.521758 2.199793 0.716356
-1.273877 -3.552333 1.047428
1.733054 1.854840 0.377289
3.230193 2.348924 1.599588
2.221982 1.889606 0.605369
0.995123 3.859228 1.573844
0.086958 0.573355 0.032497
2.123735 -3.401617 1.463895
2.711860 -0.838374 0.417303
3.637419 -0.599539 0.870793
-2.762832 -2.296174 0.932478
3.186795 0.714425 0.449094
0.969424 -3.176792 0.647917
2.666547 -1.964336 0.673121
-1.069742 0.011368 0.041455
-1.530874 0.443040 0.083780
-0.860586 1.736218 0.172467
-0.005732 -0.107881 0.032380
1.087888 0.259760 -0.053341
-0.213151 0.087219 -0.034114
-0.297285 -0.042568 0.024475
2.556898 2.553540 0.826487
-1.111295 -1.658102 0.156068
3.681950 0.728848 1.010006
-0.714303 3.909554 1.239612
-1.007408 3.762017 0.957437
-2.591477 -2.241215 0.671781
2.367452 -0.552331 0.329038
-1.548929 -3.432840 0.978551
-1.930705 3.501437 1.366903
-0.338292 0.226481 0.057855
-0.128666 -3.683813 0.942317
2.301517 3.387003 1.480474
-0.570420 0.435780 0.092560
-1.595225 -2.358999 0.422545
-3.221784 0.938270 0.722244
1.131361 -3.348511 0.783689
-2.310166 -0.386085 0.264962
-0.754332 0.190967 -0.117110
0.443867 0.094200 0.017882
-3.454718 1.871444 1.267975
-1.969095 -3.389677 1.227994
-0.594339 1.595590 0.094859
-0.541671 0.358991 -0.055233
-0.670635 -3.163407 0.573724
0.511708 1.296154 0.166787
-0.398140 -3.887992 1.227041
-0.523483 2.060563 0.254127
-1.791691 -0.490763 0.157305
3.141067 2.362732 1.304425
2.748856 1.878943 0.723061
-1.156965 3.156214 0.643841
-1.579985 -2.188920 0.385292
2.822044 2.746314 1.137582
-0.194810 -1.520003 0.150719
0.075382 0.460188 -0.049156
0.440707 -1.157581 0.046697
-3.169689 -1.641762 0.765401
-1.832780 -2.876937 0.678935
1.917676 3.482695 1.379544
2.598330 1.430517 0.528113
-0.756062 -3.044294 0.579403
1.467749 0.898174 0.129714
0.207015 -0.611017 0.054015
2.959529 -0.783324 0.568611
-3.524667 -1.880528 1.262427
-0.764908 0.613231 0.046526
1.484626 3.010864 0.701035
1.907366 -3.560926 1.391100
-1.240745 -3.511757 0.935803
0.828901 2.583914 0.410287
-0.297461 -3.887360 1.324161
-3.160254 -1.365437 0.745827
2.749364 -2.710734 1.338598
-0.387945 2.264545 0.228666
3.748467 -0.585535 1.103770
1.994668 3.384047 1.344908
-3.347264 0.238012 0.582032
1.898185 3.457233 1.232591
3.861147 0.932815 1.397378
0.773208 2.068051 0.248145
0.087246 0.913175 0.042588
-1.090212 2.361176 0.388489
-0.650850 -3.660017 0.815620
-0.440340 1.976718 0.187185
2.492108 1.166900 0.562519
1.322912 -2.238207 0.325305
1.516929 0.048583 0.064399
3.071610 -2.153258 0.911924
2.074885 1.244486 0.339359
-0.110312 -1.547256 0.183667
0.432058 2.014575 0.318605
2.399824 1.289813 0.315937
1.230097 -0.504133 0.083118
-0.806555 1.668359 0.177743
-0.868729 -0.692656 0.080684
-1.443702 -1.096700 0.164380
3.989359 -0.613458 1.531517
0.252956 0.432100 0.008676
1.126283 -0.960911 0.124700
1.482542 -0.389187 0.091298
-0.034797 -0.440203 0.006788
-0.609897 -3.912018 1.179312
-0.172616 -2.153876 0.310819
0.680586 -0.080669 0.059129
0.589619 0.597596 0.150341
0.285017 0.938150 0.097720
0.947768 3.783129 1.189424
-0.792918 0.124030 0.028628
1.079959 -1.991790 0.278782
1.808208 -2.850151 0.678626
3.526750 -1.827108 1.350559
0.029415 0.753199 0.123549
-0.349658 0.420520 0.024717
-3.560482 -1.501039 1.155853
-3.387609 -0.917041 0.777013
-0.995920 -0.128328 0.060591
3.794673 0.885309 1.293367
3.256689 -2.310718 1.186646
-3.164532 -1.835977 0.963393
-0.119463 0.028982 -0.026901
-1.002387 0.106391 0.043769
-0.575027 -2.774173 0.493500
1.144765 1.942849 0.285341
0.563856 0.280787 -0.019738
0.912489 -0.557139 0.031112
2.087821 1.362304 0.300610
-3.992579 0.296567 1.299603
3.923067 0.975778 1.422544
0.202381 1.746381 0.073988
-3.125664 -0.676099 0.594858
3.292790 0.216034 0.670743
-1.876337 -2.717839 0.707229
1.113653 0.250371 0.025670
0.006617 0.001730 -0.062963
-0.403486 3.839413 1.036877
-0.218854 -0.596322 0.110492
-1.838423 -0.022649 0.121429
-0.306275 2.291518 0.263032
-0.951071 3.217839 0.649988
-0.710832 -2.489303 0.337551
1.319980 -2.690207 0.575872
-2.647098 -2.954630 1.316524
0.089910 1.214559 0.016819
1.211561 2.139194 0.311678
-0.171098 -0.628086 0.103711
-0.452383 4.046004 1.532705
-2.807429 -2.300153 0.860534
-2.545582 -0.194280 0.404883
-1.085663 -0.418286 0.072588
1.359472 -1.957226 0.293647
0.580826 -3.373998 0.682446
-0.281476 -0.776253 -0.019578
2.611025 -0.281317 0.335421
-1.513391 -0.196224 0.142155
-0.914480 -1.028529 0.035085
2.030958 3.088672 0.913734
2.421493 -3.031527 0.984993
-0.040628 -2.276852 0.434677
-2.633954 -2.914012 1.494226
0.996630 1.601279 0.191654
-0.343811 -3.637292 0.957456
-1.889933 3.451937 1.242918
0.131626 0.231613 0.013977
-0.084732 -3.585972 0.833029
1.570618 3.634196 1.274036
-0.671844 -1.356247 0.070596
1.324999 -2.698909 0.644711
-3.028182 2.568676 1.236915
0.905263 0.445722 0.075765
0.758422 1.061016 0.093102
-3.254497 -1.651235 0.929166
2.834225 -2.126215 0.802050
-2.276538 2.677511 0.724291
-3.371289 -1.915832 1.351125
3.166140 -2.207811 1.056317
0.039305 -0.287189 -0.072893
2.631006 -1.270109 0.528292
-2.619955 2.772689 0.986981
-3.626854 1.126798 0.970626
-0.047296 -0.065435 0.001557
0.174490 0.265680 -0.012231
3.294706 1.595271 0.982508
-0.367820 0.656009 0.064844
3.401401 0.882140 0.773423
1.780384 1.173121 0.180038
0.931219 -1.512533 0.174626
1.880516 -1.336882 0.280640
-4.028557 0.339212 1.316156
-0.751208 0.372634 0.051834
-1.170044 0.883829 0.056923
-1.405445 -2.131028 0.335416
3.902801 -0.422401 1.156629
-0.552382 2.227669 0.245674
0.789368 -0.159165 0.114944
0.691249 -2.846141 0.520800
-1.532633 -1.097562 0.094342
-3.494600 -1.164331 0.803005
0.327890 0.086654 0.018143
-1.622434 3.451484 1.040238
0.386444 -2.438779 0.339705
1.368239 -0.423107 0.038091
-3.958461 -0.755997 1.445045
3.323636 -2.139106 1.265565
-0.770343 1.080260 0.052875
-0.002977 0.568244 -0.038132
0.323593 -1.229326 0.031908
-1.542920 3.471933 0.958238
-2.571649 -2.941432 1.297378
3.695540 -1.100916 1.165400
-1.797739 3.001724 0.682452
2.784546 -2.937301 1.329509
-1.199454 3.839145 1.331345
-1.444748 1.046008 0.213542
0.137229 -1.052768 0.070924
-0.921178 -1.351325 0.067574
1.346536 2.341009 0.334642
-0.125527 -2.832394 0.369893
0.368011 0.247985 0.020537
1.122802 3.713372 1.147891
-0.157760 0.287984 0.018078
1.324874 -3.815166 1.279309
-0.746708 -2.304126 0.320204
1.039528 3.240203 0.709112
-0.006319 -0.001813 -0.040600
-1.400118 3.718347 1.449352
0.037986 2.972732 0.488936
1.135809 3.000571 0.573085
-2.682857 -2.499053 0.808157
-0.137145 0.073892 -0.043260
-2.189045 1.863104 0.429002
2.423947 -2.678474 0.846550
1.871487 -0.033623 0.207372
2.042617 -2.407458 0.557224
1.422508 -2.483851 0.550791
-1.770694 3.193402 0.848595
2.176572 2.526083 0.662140
-1.584036 2.861575 0.608651
0.523224 -0.180420 0.020444
0.011210 0.329977 0.037142
-0.257059 1.984639 0.254523
-0.107695 -0.019663 -0.044739
0.402384 1.237089 0.048808
-1.044359 1.953357 0.247863
2.821832 -0.602606 0.391863
-3.367493 -2.060410 1.453049
-0.534725 -1.446667 0.136291
-2.926653 -1.419833 0.659336
0.064800 0.071351 0.026555
-3.000021 -1.515355 0.739377
2.443454 -1.516236 0.379828
-2.011794 2.312572 0.590547
-0.487776 2.340080 0.374248
-2.143070 1.055056 0.344378
0.489458 1.166019 0.105492
3.561775 0.635005 0.873591
-0.529233 3.804673 1.026463
-3.902126 0.744728 1.403422
-1.223165 1.665134 0.238525
-0.328979 -0.540683 0.008534
-0.079450 -0.067878 -0.062925
-2.579033 2.726287 0.907363
-3.037676 -1.662171 0.699702
0.849654 -0.583763 0.005794
-2.430567 -3.090059 1.202678
1.569586 -2.120950 0.391430
-0.103247 0.066534 -0.003671
1.582808 -3.742769 1.373217
-0.048139 -0.048089 0.022889
-1.193245 2.291019 0.300708
-3.339219 -1.978709 1.020623
-1.754610 -3.039600 0.753527
-0.640720 0.945169 0.065485
3.864873 -0.754491 1.158453
-3.068796 -0.753241 0.544568
-3.086933 -0.378345 0.672197
-0.427659 -0.089926 -0.032677
-2.802311 2.688027 1.139612
1.014609 -0.187064 0.110402
1.886454 3.414980 1.115864
-2.044551 -3.472490 1.299231
-0.213060 -0.137701 -0.024900
-0.545161 -2.352454 0.352918
0.597770 -0.665208 0.021060
-1.163253 1.424707 0.121104
3.774488 0.919057 1.364908
2.302263 3.306246 1.450698
1.050631 0.512788 0.058706
-2.431110 -1.792400 0.517428
-3.245297 -2.387285 1.357225
2.707405 -2.956211 1.428359
0.799642 1.717581 0.247385
-0.098130 -0.291249 0.008378
-0.300353 0.164326 0.021351
-0.905306 2.315738 0.413083
-3.884960 0.058645 1.062073
0.295164 -3.375381 0.618224
0.041665 0.021558 0.032496
3.483448 -0.851037 0.817244
0.086729 1.277472 0.077454
-0.367679 3.621831 0.859874
-1.093559 1.970345 0.215465
1.246995 -2.778620 0.550824
0.944088 1.306013 0.126848
0.036898 3.544458 0.874080
2.791844 2.947607 1.487970
-1.545597 0.883750 0.158180
-1.404706 -2.122349 0.355785
0.720600 -3.419263 0.830173
-0.553467 -0.314716 0.019423
-3.651582 0.711028 0.856124
3.256760 -1.303824 0.800407
-1.727028 1.528012 0.294436
3.679241 1.046724 1.426786
0.195247 1.145014 -0.019468
-0.657786 0.006620 -0.019839
2.413653 2.827284 0.887259
1.702876 -3.084809 0.852654
1.010256 -3.830108 1.351948
1.768988 0.717923 0.242100
0.074145 1.340642 0.084251
-2.805965 2.772989 1.082779
-1.714449 -1.756247 0.272073
-0.772943 2.225311 0.309836
-0.323014 -0.115454 -0.013881
0.860881 -0.735126 0.154964
0.097975 0.137959 0.018130
2.046210 -1.962171 0.473163
0.471938 -2.661352 0.449377
-0.044452 -0.086804 0.008917
1.958651 -3.486133 1.152461
0.758307 1.106803 0.107661
-0.252530 -0.410909 -0.011518
0.758709 0.913633 0.066299
-2.766085 -2.188683 0.833787
-0.129344 -0.232604 -0.107155
1.828889 -2.512580 0.482835
0.213958 -0.440731 0.067040
3.091404 2.468889 1.485762
-0.023112 -0.012074 -0.078712
-3.355960 1.958820 1.250689
0.629058 3.610570 0.883166
-0.923183 -1.371636 0.127353
0.054323 0.072600 -0.008518
-2.315070 -2.033439 0.582706
-2.733888 -1.338688 0.424150
3.367253 0.329895 0.693510
1.273931 -2.801953 0.525426
-2.059923 -0.735019 0.281110
-0.505105 -1.176418 0.040208
1.423331 -3.087491 0.746277
-1.984169 0.993378 0.275188
0.438190 -0.621795 0.025537
1.063392 -3.682265 1.208684
-0.038188 -1.366765 0.080510
1.091026 -3.382485 0.853595
-0.287820 0.169838 -0.054323
0.068609 0.214456 -0.031450
2.891771 2.610783 1.170469
1.142820 1.759098 0.257467
3.075246 -0.300231 0.475729
1.731342 2.091696 0.392589
-0.006655 -0.366750 -0.024855
1.759060 3.497992 1.135693
3.295090 1.793665 0.963885
-3.771923 -0.329399 0.968988
-0.114508 0.443358 0.001881
-3.864734 -0.726273 1.213241
0.143028 1.454140 0.131940
0.464948 -3.974641 1.331821
0.454519 0.256231 0.031298
1.805104 -3.325625 1.186714
-3.808604 0.592503 1.122223
0.927151 -2.227901 0.230162
-0.739407 -3.554701 0.956320
0.991650 2.453447 0.337495
-0.115994 -0.025548 0.021892
1.932460 -1.050489 0.285916
1.584090 3.043338 0.758357
3.476036 -1.277152 0.988710
1.929124 2.406528 0.539359
-0.142441 -1.219274 0.045020
2.856983 -0.738358 0.485739
-0.972930 2.197449 0.304239
3.109991 0.552230 0.699043
-0.684592 -2.769249 0.495305
2.383284 -3.141617 1.274532
-3.229446 -1.881705 0.923347
-3.549357 1.839194 1.499438
-0.703267 -3.895569 1.205117
-0.581953 -3.465762 0.817314
1.821223 3.534120 1.359808
0.484644 -0.847082 0.053089
0.285076 -1.083988 0.090335
-0.842869 1.659389 0.245573
1.235377 -3.477863 1.001267
-1.923821 -3.356803 1.052279
1.653495 -3.508111 1.270882
-3.962130 0.001076 1.124162
2.091339 2.280665 0.534381
-0.239556 -3.129639 0.575542
0.168818 0.357132 -0.028406
0.586535 0.279056 0.025398
-0.194764 -3.293093 0.718376
-2.095868 -2.010778 0.496709
-2.879345 0.941581 0.430919
0.215602 -2.052764 0.275510
1.245614 0.832561 -0.054271
-1.296791 0.670223 0.093466
3.921925 -0.695737 1.140217
-0.069411 -0.158605 0.031550
1.189195 -2.241754 0.369927
1.895021 -0.034286 0.128432
-0.442977 -0.758155 -0.006482
1.042750 -3.876533 1.262165
0.104254 2.184749 0.181391
-0.953603 -1.156146 0.151173
-3.952520 0.407549 1.326876
0.289248 -0.929156 0.084179
-0.292791 -1.467250 0.146507
-0.263952 1.067291 0.095616
-0.275135 -2.232306 0.241083
2.140184 -1.981281 0.441631
-2.454063 1.250055 0.481939
3.136517 1.968990 0.972753
-1.279156 -1.526236 0.221788
-2.397586 0.497529 0.276985
1.127982 0.181287 -0.003193
-2.003408 3.311102 1.046963
-1.530314 -2.885243 0.619371
-3.731779 0.804793 1.053216
0.468729 2.747477 0.396696
-3.453360 -1.633807 1.061576
-0.248405 -0.139430 -0.087804
-1.372727 -3.758482 1.338529
-0.417060 -2.117195 0.207275
-1.816375 -3.547546 1.328703
0.397197 0.098208 -0.101900
1.026559 -0.368173 -0.007074
-1.901040 -0.402435 0.148861
1.509600 -3.561054 1.324129
-1.885310 -0.002838 0.193665
-2.169515 -0.692206 0.206319
-0.836796 -3.433351 0.809643
1.211150 0.325966 0.063417
-1.377952 -1.816500 0.296361
-0.632925 3.970610 1.529727
2.726896 -0.608747 0.415611
3.977660 0.668786 1.397781
-0.828486 3.786756 1.448208
-1.157588 3.812838 1.438341
-0.293867 -0.450911 -0.045508
0.210598 -3.563110 0.783824
-3.703797 -0.750524 1.062543
0.192172 3.914752 1.380086
-2.503809 2.672949 0.919540
3.711718 -1.546061 1.313119
-0.723168 -0.833414 0.043604
-0.264186 -0.118820 0.009160
3.369348 -2.230258 1.287516
-0.617472 0.467926 -0.000417
-0.803803 -2.435254 0.392464
-0.763261 -1.775687 0.131734
1.481041 2.008709 0.275326
-1.813808 3.491356 1.494296
-3.090322 2.525088 1.381944
-1.783515 -2.990379 0.800832
1.898632 3.122132 0.846822
0.465885 -0.309129 0.029223
2.026745 2.966392 0.931312
0.859805 2.446675 0.361762
1.566903 -1.416968 0.238642
0.758996 -2.305799 0.294770
0.376561 0.832758 0.014930
2.005546 1.546913 0.313920
-0.405500 0.322541 0.039722
-0.142341 -1.570846 0.101862
0.770540 0.691712 0.040867
-0.012930 -0.912308 -0.009617
1.249725 1.534244 0.181272
2.867267 -1.588426 0.606129
0.175199 3.392484 0.673960
0.456596 1.020434 0.071997
1.349713 2.144479 0.255437
2.404052 -1.753637 0.504011
0.287615 -1.470001 0.096404
-3.263595 -0.819031 0.619836
-1.371570 1.176570 0.106029
0.481697 3.611102 0.861510
-3.097936 1.428283 0.753447
0.066101 0.199234 -0.066374
0.611240 0.053479 0.026802
0.911866 -2.460223 0.309354
1.094375 -2.285517 0.307807
0.268498 -0.030838 -0.017604
3.887879 -0.743635 1.513082
0.468698 0.051268 0.105656
2.449182 2.077184 0.550173
-0.702510 -2.589707 0.315032
-0.846876 2.181920 0.226276
0.313388 -0.068370 -0.034163
-3.747906 0.759059 1.057364
-2.221923 -3.187033 1.017065
1.173066 3.384901 0.760509
1.174802 -2.613297 0.330346
1.011345 -1.201367 0.103753
-0.072407 -0.051169 -0.001889
0.121077 -3.508848 0.804077
-3.585764 -0.262393 0.851261
3.425942 -0.780156 0.672526
-1.135501 -0.160777 0.015341
1.513330 3.327228 0.880615
-1.353879 -0.349376 0.081324
0.081453 -0.493212 -0.021134
0.814755 2.422486 0.381408
3.119883 -2.480685 1.463168
3.019257 -2.422823 1.111500
0.225408 1.522935 0.098401
-0.453961 -3.816395 1.120617
-1.890196 0.739646 0.176563
-3.072715 -0.003506 0.532986
-1.802342 -2.043454 0.346990
-3.030265 2.545148 1.144159
0.124376 3.846161 1.102116
2.397948 3.191129 1.394109
-2.539464 2.259947 0.623763
-1.908200 2.171514 0.451219
0.955470 3.098729 0.608205
-0.537535 1.530745 0.050942
3.938896 -0.367158 1.398336
-0.829570 3.321231 0.728773
0.251739 -0.042014 0.114466
-1.519181 1.035756 0.231577
0.584867 1.206671 0.004259
-1.164649 -0.459530 0.100663
1.932046 2.038168 0.321466
-1.473683 2.762045 0.577413
-0.555368 -2.083547 0.279845
1.467082 -3.588310 1.093917
3.276265 -1.844549 0.933423
1.555865 -2.744442 0.539682
0.929784 0.017426 0.061697
3.763918 0.204394 1.011530
-1.595253 -1.046023 0.204197
0.302897 -0.185022 -0.013913
0.581106 3.166832 0.596507
-1.119369 -3.905092 1.239399
1.618615 2.296460 0.500966
-0.294603 -1.276888 0.122393
0.659847 2.855201 0.566019
-1.944919 1.356441 0.287205
-0.515999 -0.132772 -0.014521
3.216466 -1.971646 1.086491
2.139080 1.895696 0.547436
-2.994572 -2.557446 1.155522
-0.101938 0.410862 0.062217
-1.730470 -3.321725 1.137007
-0.813563 -0.268815 0.008647
-2.759897 2.452584 0.892042
-2.161622 2.449752 0.584635
-3.262167 -2.338019 1.409502
0.785303 -0.441313 -0.027663
1.213655 2.153243 0.252731
-1.146357 -0.278706 0.111073
-1.683190 -0.359859 0.197539
-2.603696 -0.837593 0.311839
-1.147207 -1.345535 0.139577
-2.289803 -3.303738 1.333077
-2.464974 2.870213 1.020879
3.899378 -0.522730 1.311305
-3.209717 0.087451 0.591844
3.344403 1.894262 1.067224
-0.304571 -1.566024 0.123566
-2.704229 -2.866384 1.299025
1.078448 1.286102 0.151117
1.786884 -3.341606 1.035929
0.630277 0.149038 -0.023386
2.638960 -2.398969 0.886535
-3.421021 1.646100 1.095625
0.636064 -1.424933 0.050049
-1.664569 3.101192 0.787312
3.643883 -0.955247 0.981056
-3.786319 0.210037 1.006735
-0.492424 -3.538791 0.838561
-3.212005 -2.308346 1.404694
1.001085 -3.090143 0.537004
2.288449 3.200553 1.146599
-0.577408 -3.610641 1.008389
-1.989113 -1.958990 0.397145
3.045911 -2.011192 0.842271
-2.181236 -0.392850 0.238610
3.865143 1.087813 1.405162
0.042913 -0.599957 -0.034548
0.731875 -2.548490 0.337570
2.063863 0.123855 0.221993
2.069771 -0.650417 0.332063
2.590667 -2.096086 0.703858
-3.428559 1.488312 1.004331
-0.047429 0.758419 0.026368
3.920942 0.504328 1.343270
0.980774 -0.861382 0.104257
-1.797894 -2.787658 0.597399
-1.200849 0.690761 0.038635
1.504838 -2.607118 0.488671
2.521687 2.747437 0.931325
2.237979 -0.832580 0.378724
-1.540206 -2.490253 0.472295
0.695099 2.303219 0.260352
0.491821 2.656421 0.395683
0.422487 1.725656 0.205921
2.725818 2.546327 0.924742
-3.272908 2.342250 1.393703
-0.270588 -0.419484 -0.021545
-0.326041 1.537848 0.091712
-1.329579 -3.573780 1.172701
-0.032783 3.932505 1.422444
0.465885 -0.668617 0.076641
2.208699 -2.422449 0.597659
2.457860 -3.099844 1.293510
-3.082791 -1.593604 0.791723
0.021679 3.166471 0.566030
-0.559958 2.603811 0.362123
-0.211466 -0.778825 0.013076
1.726772 -3.208860 0.825225
1.896179 3.476179 1.391331
1.721866 -1.066331 0.292500
-2.765844 -2.628506 0.980842
0.545807 -2.994478 0.519055
0.025843 1.000541 0.039611
-1.300823 3.158921 0.801688
3.424436 1.976616 1.430268
-3.236566 -2.149425 1.156629
-2.929079 0.438647 0.541375
2.811404 -0.554349 0.506389
-2.085116 3.268670 1.091374
3.902578 -0.886983 1.423886
-0.235328 0.357142 0.031801
-0.792611 2.268462 0.320609
3.314270 -0.829976 0.611889
-0.433288 2.117491 0.261200
1.001889 -2.253859 0.372554
-0.393946 3.751885 1.044230
0.271168 -3.607322 0.785764
-3.279599 -0.634104 0.680780
3.251196 0.272363 0.594613
-3.932179 -0.906535 1.259540
-1.934535 -1.952724 0.441395
2.781301 1.400403 0.467847
0.546001 -3.268545 0.615946
1.819511 1.377474 0.294659
2.290003 1.329265 0.372513
-3.008258 1.817712 0.688412
-1.736847 1.126608 0.196318
3.261066 -1.465428 0.790549
0.225786 -0.426723 0.009177
2.718334 1.216660 0.523105
-0.836509 0.851574 -0.026952
2.888503 -2.595423 1.273805
-0.016966 2.094698 0.181089
-3.837597 -0.067130 1.021234
0.242979 -0.034354 0.094808
2.453583 -0.933981 0.385153
-3.932122 -0.248892 1.212394
-2.513092 2.716477 0.853314
3.091440 1.926876 0.810160
0.047856 -0.013719 0.013813
2.657267 0.879917 0.431494
-3.313625 1.804669 0.973067
1.557396 -3.538500 1.105025
-2.545747 -1.076432 0.475415
-0.462394 -3.604891 1.086896
0.187757 -2.783622 0.378849
2.077660 -3.432484 1.422352
-0.549061 2.437686 0.426635
2.643453 -2.114574 0.716086
-1.445945 0.299893 0.088365
-0.606006 0.273262 0.059566
0.057824 -0.107355 0.010194
3.193560 -0.518739 0.618221
-0.095311 0.596656 0.036971
1.276821 2.734756 0.497275
-0.508242 0.414269 -0.044171
-2.139352 1.211981 0.246206
-2.088856 3.438188 1.398729
-3.568709 0.154329 0.783824
-1.075405 3.911490 1.247178
3.441126 1.597138 1.074679
1.792342 2.692527 0.621821
-0.563556 3.023369 0.571032
3.268065 -2.195136 1.106974
-0.244117 -3.942021 1.276775
-1.116826 1.606669 0.167257
-0.912169 1.874172 0.173361
-2.171250 2.140602 0.614509
0.584652 0.803956 0.076259
2.538548 0.198485 0.304764
-2.885897 2.513953 1.164793
-3.153756 -0.850183 0.589945
-1.932339 -0.960125 0.262641
-0.489961 -0.516127 0.085642
-2.207380 2.732395 0.778963
2.916787 -1.662575 0.761413
-1.577033 -3.255511 0.787446
-0.120836 -0.982102 0.008985
0.805300 3.188194 0.586302
-3.100530 -1.950702 0.921935
2.304699 -3.305395 1.455850
1.192354 3.580270 0.915653
-2.192815 -0.315413 0.236499
-0.611084 -1.032692 0.086751
0.269143 -0.816993 -0.030114
0.076046 -0.018161 -0.036643
-1.074065 -3.730948 1.045537
-0.332192 -0.618191 0.004548
0.226525 -3.368351 0.564447
3.673540 1.432345 1.116963
0.924372 3.903010 1.162257
2.223158 2.481299 0.697713
1.509637 0.363320 0.075191
2.983723 2.480426 1.169374
-0.863656 0.928727 0.019238
0.133942 -3.703416 0.881563
-3.621230 0.344177 0.887191
-2.920503 -2.029649 0.825779
-0.473276 0.784657 0.032458
2.427422 1.444764 0.427250
0.780858 -1.675536 0.127088
0.998351 -2.858796 0.425085
-0.051279 0.241800 0.035576
-0.325364 -1.864983 0.241065
1.392246 1.091956 0.152447
0.652065 -2.885017 0.516047
0.112377 1.361610 0.099345
-3.188174 -2.352775 1.374202
-3.894742 -0.810631 1.058994
0.121429 -2.658633 0.335952
3.717018 1.277942 1.291729
-0.715492 0.246178 0.081510
-0.828907 3.935774 1.363696
-1.120794 1.773566 0.096626
0.609924 2.316947 0.272013
0.014665 0.025528 -0.068860
-2.672457 0.625540 0.368194
-1.124791 -1.592783 0.181659
3.757874 -0.112767 1.089268
-0.586095 -0.003344 0.010869
1.278393 -1.333369 0.256406
-0.308642 0.734923 0.032147
1.446637 -2.324084 0.414448
-0.764831 -1.172844 0.070388
-2.245609 -3.379275 1.425718
3.645512 0.160977 0.856042
-2.928006 2.032309 0.713615
-0.070743 2.648390 0.444032
-0.801938 0.217700 0.006478
3.046718 -2.231587 0.973574
-0.655835 2.219677 0.329616
-1.077209 -2.453577 0.454376
-1.925846 2.796824 0.740415
2.707090 1.139740 0.500471
3.813330 0.910310 1.415688
0.144770 1.626139 0.148800
1.377711 -2.614667 0.511529
2.159822 -2.487260 0.547393
-1.995088 0.625631 0.350045
-3.441975 1.779652 1.196701
1.121080 -2.144238 0.265309
-1.663740 2.850632 0.697626
-3.624610 1.627006 1.277097
-1.095707 -2.250293 0.302110
-3.494428 1.894449 1.486415
0.356952 -1.075774 0.049915
1.160353 -1.514211 0.171193
1.657582 -0.521135 0.114480
1.216695 2.452538 0.405685
-1.182862 -1.223309 0.179159
-1.682703 3.565307 1.385502
1.385773 -3.697896 1.470937
2.870460 -1.789357 0.679481
3.851936 -0.320891 1.250359
-1.595494 -1.399684 0.218579
-1.270277 -3.297201 0.684199
-0.594669 -0.286560 -0.016640
0.263934 -2.226477 0.265876
-0.819127 -0.083063 0.128836
0.420128 0.503031 -0.050492
-0.069623 1.475849 0.197962
0.660222 0.072755 0.051801
0.104618 0.009372 -0.046261
-2.937287 -1.741828 0.726204
1.020416 3.192543 0.638442
-0.506355 0.139689 0.021094
3.167221 1.486864 0.832905
2.527779 -3.045319 1.349810
-1.223781 0.461900 0.160941
3.465739 1.859215 1.212884
2.099868 3.452897 1.381443
2.675046 2.807922 1.021916
-1.049788 -2.751671 0.483901
2.528340 -1.939453 0.498125
1.932431 -2.858948 0.756179
-1.778248 -0.670110 0.183836
-2.054619 1.593051 0.314684
-1.769836 1.685005 0.204138
2.342900 0.991667 0.447288
-0.006196 1.693698 0.223930
-2.613472 0.321019 0.424854
2.679004 0.635685 0.366506
-0.246423 0.116575 0.140238
0.295279 -1.556563 0.122722
2.096116 1.306240 0.257529
3.869071 1.067861 1.380848
-3.696206 -1.135730 1.091765
3.505780 1.210378 0.849108
-0.091161 0.007488 0.038119
2.025423 1.657665 0.313922
0.371657 -1.537546 0.190818
-0.297822 0.500747 0.051374
-1.323299 2.282718 0.377306
3.380925 2.056544 1.187130
-2.778806 -2.351826 0.956992
0.259637 3.940669 1.483439
0.528809 0.210055 -0.024993
1.029399 0.561756 -0.032935
-3.332752 2.157716 1.448614
-2.845470 -0.778030 0.556670
1.326953 1.672985 0.213374
-0.955077 -2.566979 0.430596
-0.626362 -0.177182 0.002216
3.706261 -0.535858 1.010295
2.087316 1.337783 0.364801
0.464017 -1.152749 0.054906
0.241153 -1.132096 0.068049
-3.148428 1.953790 0.888999
-2.157952 0.358519 0.215440
-1.621668 -0.692799 0.213176
0.050942 -0.089130 0.026036
-0.159984 -0.043462 0.040039
-3.642276 -1.457691 1.297738
0.450082 -3.983016 1.482462
0.064836 -0.163245 -0.086332
-2.513954 0.540243 0.298173
-3.363695 -1.804716 1.183174
-0.362576 -1.959567 0.253646
-0.066531 -0.085885 -0.068584
0.009821 -0.984137 0.039458
-1.599521 -1.685735 0.252960
-1.977213 -1.531769 0.285786
0.195255 -0.792770 0.043282
-0.710689 -0.444507 0.064389
0.169296 -1.151017 0.078287
0.008344 -0.566015 -0.076143
2.266796 -1.690549 0.446067
3.612918 -1.384934 1.237025
2.254336 -1.253588 0.376535
-3.623276 0.783365 0.963877
0.152991 -0.194352 -0.013828
-2.027538 -0.457698 0.276494
-3.172758 -0.637176 0.537797
1.769401 -2.144315 0.400366
1.294878 1.063508 0.157250
0.146160 0.620477 0.000986
-1.330155 -3.295564 0.822433
0.246524 -3.190749 0.606238
2.126959 2.672769 0.611846
0.161331 -2.157740 0.247706
0.444980 1.316944 0.132780
-0.419313 0.186931 -0.073765
-0.515333 0.440818 0.153493
0.537599 3.799705 1.006590
-0.994480 -1.000324 0.092661
3.902460 0.074398 1.245858
-1.527572 -1.972491 0.336076
-1.998749 -1.767071 0.393379
2.865899 0.315937 0.456124
3.856479 -0.638958 1.233779
-0.157332 1.721938 0.081001
1.277457 -1.076723 0.072268
0.726207 2.989307 0.497069
-0.193626 -0.006021 -0.028001
2.554348 -2.799467 0.976637
-0.202904 3.845851 1.047512
-0.592502 -0.356344 -0.008091
-2.252224 -0.827400 0.268922
-2.636855 0.820420 0.459210
-0.216637 -0.969182 0.040544
-2.918684 -1.621856 0.795931
-0.493940 -3.810099 1.142779
-0.278195 -3.897705 1.264242
-0.773762 -1.214356 0.078730
0.279936 -1.635563 0.128135
0.101594 1.126668 0.025445
-1.335313 -1.508374 0.270944
-2.450441 -0.601396 0.404916
1.950506 2.436015 0.559807
0.691505 0.068615 0.011061
3.242489 1.697916 0.834038
-0.726602 1.763933 0.284625
2.812559 -2.712185 1.049522
-2.394671 -1.515996 0.394920
-0.018982 0.063589 0.010954
2.112934 2.321257 0.694224
-1.045210 2.503064 0.311812
-3.054034 -1.784687 0.701158
-3.508536 -0.491890 0.819935
-2.160994 -0.216136 0.244586
-0.646256 2.470136 0.370237
-1.147156 2.875754 0.541044
-0.484028 -0.024889 -0.015156
-0.389978 2.247934 0.268126
1.457157 -0.485536 0.072615
-0.056395 -0.042044 0.035923
0.016906 -0.850098 0.084940
1.670474 0.952578 0.156193
-1.047139 -3.871483 1.315729
2.386092 2.929594 1.038577
-2.318088 -0.890034 0.324494
0.077514 -0.610780 0.081846
-0.141221 -0.145371 0.004451
-0.375294 -2.587217 0.327025
-3.102699 -0.688605 0.613085
-1.110194 3.821396 1.449205
-0.084489 0.268833 -0.097765
-1.588058 1.572632 0.303264
1.209463 -0.721164 0.137487
-1.605360 -3.460955 0.834703
-1.149096 0.474366 0.020849
-0.554388 -0.497627 -0.002604
0.821070 -1.802474 0.165223
0.110943 -1.048441 0.046777
0.645822 3.001342 0.535717
-0.524897 -3.303979 0.663030
-4.032223 -0.270518 1.421451
-3.052121 -2.508642 1.470431
2.619334 1.499227 0.518956
3.345100 2.116580 1.155059
0.631452 -0.622838 0.063618
-2.860714 -0.378032 0.486223
2.424228 2.338380 0.804131
1.379841 -0.012486 0.078461
1.478309 -1.972938 0.268398
-2.235326 0.251992 0.293555
0.545494 -0.272469 -0.029385
-0.144944 -0.416520 0.002996
-2.706122 -0.781169 0.404750
1.656406 1.387854 0.237290
-1.564810 3.521312 1.207938
-0.332669 -3.847623 1.172950
-1.971380 3.036931 0.784708
1.768509 -0.728768 0.113929
0.872923 -3.809331 1.325580
-2.960353 0.211391 0.420133
-2.198843 -3.352184 1.353307
0.740540 -3.147054 0.621740
1.721783 0.475497 0.146598
3.066040 -1.211828 0.689116
0.636976 -0.387550 0.046041
3.097479 -1.940379 0.807413
-1.247925 1.648633 0.186752
-1.587144 2.495419 0.473570
0.485135 1.658976 0.219410
-3.014901 1.560840 0.656821
2.383235 1.824407 0.474734
-3.342419 2.223838 1.425043
0.824342 0.734312 0.007304
0.894428 -3.364161 0.685107
-0.501997 -3.150920 0.566414
3.379690 -1.279264 0.799597
0.176809 -0.863809 0.042551
0.486511 2.909088 0.513926
-0.145725 0.451338 -0.024086
-3.471359 0.306011 0.708481
3.632146 -0.011284 0.848422
0.073833 0.815535 0.053967
-1.510958 -3.413378 1.003737
0.871577 1.185608 0.150200
3.591192 -0.103512 0.856982
1.107001 0.093043 0.050129
-0.788847 -0.560697 0.067118
3.001131 -0.668873 0.611993
-1.946115 -1.788023 0.328476
1.722359 0.038463 0.163629
-0.154387 0.274829 -0.027819
-0.296803 -2.839472 0.348371
0.202718 0.262398 -0.025585
2.165533 0.480702 0.216732
-3.784855 0.058840 0.939097
-2.501254 -1.763210 0.550746
2.154200 -3.119014 1.047454
2.655453 2.608085 1.071990
-1.467240 -0.968733 0.206285
3.054377 -0.558157 0.563825
-0.080211 -0.045549 -0.054687
1.619090 0.900227 0.157353
-0.834775 1.546947 0.176544
0.343713 3.935948 1.425336
0.338661 -1.116557 0.093749
1.085151 3.412903 0.789261
0.624150 1.680928 0.152458
2.970592 2.661320 1.339089
1.415469 -3.038621 0.552662
3.940595 0.223949 1.391741
-0.049051 -3.575153 0.881909
-0.823342 -0.804084 0.041593
0.509553 2.060135 0.242705
-2.628284 -1.813030 0.657959
-0.466510 -2.012535 0.129366
-0.017968 0.003661 -0.021009
-1.243239 2.190855 0.384960
1.227238 -0.742053 0.070939
0.184799 -0.080947 0.050635
-3.216379 2.188297 1.156182
0.095842 -1.045242 0.090472
0.128728 -1.580373 0.160142
-2.570553 0.653039 0.453331
1.510794 -2.243299 0.373293
-2.813933 2.860955 1.341864
0.737902 0.814073 -0.012990
-1.491144 0.558191 0.141281
2.960909 0.817368 0.557244
-0.310304 -2.591139 0.311202
0.186221 0.110864 0.080461
-0.522841 -0.114518 0.001523
-0.191049 -0.512727 0.053373
-0.762628 -1.755205 0.171389
1.603847 2.543229 0.548885
-0.615292 2.370978 0.245124
-2.560682 2.102201 0.748811
-1.856604 1.052096 0.224348
-0.291451 1.328405 0.075427
0.553855 -3.456685 0.771900
1.458940 1.601519 0.283291
-0.725455 3.651753 0.962524
-0.238078 1.626649 0.060481
0.988167 -0.479915 -0.066733
-0.588452 -1.039486 0.166667
0.271212 -1.059846 0.023474
-3.796768 0.271155 1.061739
-1.978659 2.127921 0.449707
-0.068383 -0.820248 0.008217
-0.677095 2.751874 0.446753
-0.216065 0.486524 -0.001823
1.116458 -3.110612 0.674396
-3.020088 0.947011 0.549469
3.345198 -0.250985 0.707644
1.625491 -0.095328 0.055196
-1.981874 -3.445838 1.534333
2.307473 2.241834 0.631755
0.026082 -0.998763 -0.036357
2.828251 -2.848773 1.456193
0.143572 1.582138 0.099170
-2.270358 2.016482 0.540805
2.462266 0.203510 0.350745
1.393959 -0.158495 0.132348
2.206714 -1.443151 0.347161
1.776550 -1.531614 0.279091
-0.067821 -3.907313 1.251594
0.687532 -3.017186 0.525986
-1.814700 -3.583024 1.442251
2.407943 -1.964735 0.548309
1.240641 0.158631 0.109854
1.218615 -2.244134 0.390531
-0.998743 0.329977 0.114604
-0.925412 2.932495 0.534966
3.115324 -1.751088 0.898357
3.070354 2.178673 0.933975
0.550564 1.934323 0.115502
1.636241 3.570511 1.443860
2.607738 2.771349 1.128279
-0.159329 3.001764 0.477871
0.653815 0.383853 -0.133447
-3.721750 -1.022491 1.157812
0.049415 -0.725697 0.061916
-1.282244 0.198433 0.084371
1.727370 -0.885013 0.109904
1.157150 -3.583281 0.891187
2.768536 2.139302 0.732206
3.569720 -1.722606 1.454053
3.554839 0.895667 0.862846
0.298835 -0.001434 0.001719
0.190271 0.114321 -0.063814
3.514385 -0.916526 0.890262
1.361555 3.014782 0.704343
-3.271314 -2.234893 1.402354
-0.856693 -1.062936 0.061666
-2.247384 -3.287882 1.354712
0.824806 0.337790 0.096666
-1.853561 0.832782 0.220837
-1.212952 -0.607237 0.145338
1.095662 1.428828 0.108530
0.238423 0.404348 0.016656
0.389186 0.384406 -0.011301
-2.464718 3.078607 1.430400
0.636599 1.409450 0.093555
0.347687 -0.658944 0.046131
3.866397 -0.042564 1.091746
-2.934408 2.293745 0.962628
-2.740529 2.511129 0.898016
-2.680722 -0.658349 0.385335
0.220641 -0.860100 0.047140
-1.675257 3.101394 0.887483
1.256285 -3.752288 1.244075
-1.115215 -3.140546 0.778162
1.551305 -2.669485 0.518272
-0.343727 3.973915 1.351139
-2.639822 2.789049 1.113498
3.051565 2.367750 1.175319
3.238900 1.156850 0.695814
0.334587 0.382731 0.044300
3.634672 -0.797788 0.944088
3.305691 -2.211131 1.438969
3.362718 1.865743 1.057487
-1.892690 -3.195064 1.029039
2.501415 -3.038455 1.411752
-3.968282 0.614334 1.378827
-0.031282 3.061721 0.546057
-1.588989 -2.773082 0.608863
2.755711 -2.349823 0.891583
-2.759515 -1.579818 0.629785
-0.609390 -0.498506 0.115261
1.765988 -3.234409 0.861653
-0.065570 0.263283 0.008535
0.646573 1.246447 0.062332
3.421998 2.024307 1.354352
-1.668152 0.585299 0.154096
-1.639717 -0.729024 0.133410
0.479658 1.749534 0.149920
-1.500474 -2.492254 0.432389
-1.541041 -3.350908 0.854526
1.030701 0.023163 -0.030608
1.343055 1.155481 0.182465
1.729936 -1.312910 0.271475
2.884213 1.005596 0.509770
-3.052676 -2.367817 0.989180
2.740447 0.626884 0.451778
1.692617 0.801624 0.133793
2.604409 -2.513752 0.892642
-3.051365 1.150800 0.656205
1.904517 2.736642 0.642108
-3.325089 -1.705426 0.981647
-2.251644 2.294302 0.611416
0.185258 3.921401 1.194984
-3.878125 0.036227 1.115342
-1.072400 3.311609 0.794254
0.232697 -0.819860 0.051508
2.460406 1.242147 0.415548
3.037923 -2.578343 1.226035
-0.797787 -1.184168 0.170734
-3.089140 -2.578761 1.228544
-1.061798 -3.518801 0.841719
0.420193 -0.709567 0.002428
2.027824 1.657970 0.417853
-0.011798 -0.412884 0.032422
-0.761659 0.098572 -0.023539
0.774078 -2.984016 0.559633
1.223034 3.618364 1.077723
-0.156070 -3.001045 0.565648
-0.319198 1.232001 0.150011
1.304259 -2.056568 0.299094
2.931568 2.733024 1.324413
-1.514154 0.440925 0.076928
1.905897 -2.910674 0.820439
-1.213278 0.047209 0.045542
-1.440408 3.462672 0.964050
-3.095226 -1.120811 0.623330
-1.467041 -0.843385 0.119995
1.273135 0.124564 0.032248
-2.409181 0.157850 0.298998
1.069861 1.231909 0.000159
-0.601888 -0.617091 0.017913
-1.813012 1.430536 0.316962
3.988133 -0.116726 1.461940
-3.281549 0.968127 0.700691
-3.644196 1.193720 1.054336
-0.127531 3.365311 0.643562
-1.119773 0.336023 0.070379
2.988761 -0.102250 0.484535
2.271587 -2.197299 0.461212
3.294270 -1.028634 0.744451
-0.707134 -1.876342 0.270840
1.700746 -3.199649 0.790322
-3.561204 0.816541 0.776536
-0.115232 -0.051078 -0.075838
-3.074820 -1.814412 0.805524
0.488487 2.660963 0.354332
0.051824 -0.016763 0.030038
-1.974665 -2.433091 0.580059
1.380652 2.900170 0.666172
-1.167264 -1.057837 0.051969
0.460417 0.858692 0.007952
3.683074 -0.869143 0.996866
-1.601415 1.491088 0.181326
0.012192 2.649345 0.414233
2.330360 0.830473 0.274140
-3.585535 -0.914972 0.964515
0.624849 -3.470064 0.728817
-2.695320 1.842986 0.546797
1.919451 -1.593351 0.236262
-0.076371 -0.893682 -0.053487
-1.584603 -1.011571 0.191615
0.080080 -2.806405 0.375980
1.374097 -3.722752 1.414101
0.405225 -0.046507 0.020233
-0.648741 2.313800 0.317349
-0.847290 -2.279709 0.403708
0.087879 -0.095420 0.044104
3.072312 -0.752177 0.546837
0.673844 0.193361 0.046554
-0.362953 -2.511829 0.231189
-0.500830 -2.262862 0.270807
1.180867 1.406666 0.221589
-2.100435 -1.752015 0.378031
2.601630 -1.001662 0.456532
0.865618 2.882731 0.508261
-1.176715 -2.525470 0.415861
-1.410982 2.420561 0.437526
-0.088747 0.770225 -0.037572
-0.672485 0.693523 0.087316
-0.328165 0.607213 0.101140
3.022474 -0.896809 0.583545
-3.661366 0.598951 1.149294
1.556156 1.737926 0.274878
-3.610632 0.672692 0.926057
0.669719 0.502585 0.060261
2.899646 1.680563 0.637773
-0.726713 2.480186 0.383250
1.938353 -3.118611 0.947302
-0.639100 1.780016 0.126996
3.669791 -1.459742 1.195141
-3.917293 0.336609 1.440863
-1.134875 0.507769 0.121090
0.767491 0.481017 0.067177
-3.213535 -1.253697 0.807629
-0.726681 -0.245039 0.103228
-2.031866 -0.147510 0.249155
1.088724 -3.855024 1.270650
-0.108210 0.159358 -0.089833
0.714442 -0.998932 0.091987
2.852122 -0.983433 0.511737
-0.083717 -0.095365 -0.004422
1.475096 2.443538 0.435367
-3.035954 -0.976462 0.559728
3.790456 0.977335 1.327885
0.273692 -1.758416 0.148214
-3.964466 -0.737888 1.501428
-0.208038 -2.745049 0.405614
-0.186053 -1.491394 0.118119
-0.845994 -2.368549 0.302158
-1.530184 -1.309320 0.202990
1.497828 -0.106877 0.125438
-2.837784 2.828805 1.503282
2.249139 -1.953640 0.528214
-3.084574 0.720838 0.656602
-1.673849 -3.042297 0.820036
-1.693677 -0.996824 0.297268
0.709492 2.059366 0.257547
-1.637461 -2.151597 0.414511
-0.591405 -0.116901 0.026511
0.806709 -0.756895 0.097188
-0.204997 3.578368 0.737037
0.299217 -0.497491 0.083864
-3.805411 -0.758053 1.239968
0.723454 2.196105 0.273418
-0.071028 0.155262 -0.051840
-0.339969 2.757132 0.453038
-3.372259 1.208936 0.761903
0.131314 -0.787947 0.110276
-0.897434 -2.395893 0.349660
0.361775 -1.879725 0.201418
1.164366 2.473755 0.372460
0.203522 1.053481 0.002422
1.552533 -1.269886 0.252872
-2.226137 0.632402 0.232000
-0.600338 -3.941803 1.338621
1.256155 -0.850003 0.142166
2.370799 2.321670 0.736606
0.343542 -0.045944 -0.056965
3.456642 0.165486 0.787013
2.337610 -2.095731 0.513416
-2.710195 -1.368666 0.541761
-0.099468 -3.416668 0.804711
-0.868737 2.689191 0.507903
-3.231905 0.639430 0.748306
-0.244977 -1.017630 0.057642
-2.525877 -1.097849 0.403137
-3.027087 -2.099189 0.895996
0.593889 -0.158403 0.100924
2.490224 0.857943 0.326927
3.656874 1.151230 1.055135
0.280814 1.577392 0.180512
-3.202843 2.440058 1.428391
-2.028285 0.585058 0.261860
3.903367 0.644867 1.410824
-0.036212 -0.032751 -0.021149
2.011686 1.988142 0.425012
0.721481 3.596455 0.835003
-0.157486 3.661319 0.838365
-0.426105 -3.655210 0.989436
-0.428487 2.574169 0.401196
0.055828 -0.206500 -0.002244
0.272826 -0.261910 -0.011180
-0.451454 -3.205378 0.668503
-1.053707 -2.453995 0.381156
-3.661105 -0.609454 0.965830
3.689695 0.526214 0.968306
0.684043 3.444596 0.765361
0.805000 2.860720 0.399226
0.231481 -3.574434 0.878661
1.710523 -3.377725 0.931735
-1.388743 -2.572017 0.541847
1.698152 2.411528 0.578027
3.087099 -0.011000 0.523868
-2.666194 2.891837 1.126472
1.329945 0.804794 0.059232
-0.327157 0.484658 -0.087408
-0.700798 2.249797 0.310184
2.757837 -2.324152 0.842005
-2.074968 0.771305 0.289062
2.181676 1.289903 0.353637
-0.748054 -2.985540 0.566977
3.085618 -0.753663 0.560675
3.294754 -2.219410 1.297837
1.107166 0.352173 0.116786
1.115012 1.183573 0.084734
-1.421249 0.668471 0.084867
3.193039 0.604989 0.681731
2.726270 1.981989 0.681950
0.181471 -0.344267 -0.037904
2.218664 -2.729811 0.825374
-3.919935 0.329190 1.479040
-1.461437 -3.695460 1.182553
-0.472732 -0.219682 0.023396
-0.575741 -1.909558 0.158176
2.232545 -1.765666 0.558847
-2.033473 -1.672297 0.438780
0.334383 -2.689344 0.475291
3.142512 -1.470887 0.743600
-0.103523 -0.551323 -0.007890
-2.326404 1.129545 0.340711
0.765030 0.401882 0.039053
-0.374687 -3.825192 1.153790
-3.089526 -0.496887 0.610849
1.057861 2.963494 0.605554
0.147637 -3.152664 0.622334
3.838096 0.765928 1.369338
-2.334380 -1.094666 0.320357
-0.040963 0.064748 -0.009983
2.718966 -0.672142 0.579656
0.591193 0.761378 0.031685
3.421882 -1.374626 0.893339
1.863143 0.507332 0.291180
-1.506162 0.591411 0.164180
2.452767 3.079142 1.214894
-2.406444 0.398218 0.248613
1.981387 -1.742659 0.391363
-1.805915 0.312716 0.220143
-0.355130 1.844793 0.148998
-2.710662 -0.582384 0.447449
-2.517840 2.222262 0.644333
-2.800203 1.208257 0.460317
-2.183203 1.045367 0.253630
3.390061 0.163415 -0.454385
0.365927 -1.112420 0.111921
3.916718 -4.828646 1.038767
2.935283 -3.013362 2.026569
-0.840924 -3.597629 -0.389215
4.676673 -1.972989 0.532315
-3.054930 4.511697 -0.245945
-4.685138 4.352072 -0.970390
3.047798 -0.674265 0.501842
-2.470809 1.610558 -0.077603
3.502817 4.779867 1.832281
-0.542825 -2.256576 2.447330
-0.293972 3.687455 0.486587
-0.035087 -2.696440 0.606235
-4.714915 1.040702 1.558733
3.338194 3.312716 0.684842
-2.831364 -4.439553 0.941240
3.509217 -3.322174 0.228271
1.203880 2.298328 1.336274
1.039515 -4.737118 -0.224000
2.369289 2.170244 0.814940
-1.488106 -1.908198 1.775751
3.837666 0.934055 -0.342990
4.230752 0.320571 0.873217
-2.226158 3.371217 1.189232
2.717744 -1.780877 -0.626227
0.187504 -3.392596 0.159180
4.706260 -2.603157 -0.505651
1.070795 -1.223581 0.676510
3.935831 -4.932345 -0.731096
-2.550896 -0.146454 0.960993
-1.010041 1.537930 -0.072786
-1.094485 -2.639542 -0.140812
-3.842736 -1.006039 1.859298
-0.405019 4.853647 1.516573
1.781533 -4.790087 -0.746238
1.371345 -3.736055 0.231332
0.080922 0.748080 1.491268
-3.640938 4.861866 0.310673
1.944541 0.142836 1.025660
2.782333 -2.508854 -0.390188
3.772661 4.282744 1.578914
-2.296191 3.174566 -0.107249
-0.840845 -0.013960 2.404687
0.148311 3.492280 0.817252
-4.498899 1.998995 1.899854
1.399969 3.830682 1.130355
-3.243892 1.938972 -0.205064
2.119960 -1.454697 1.238704
-0.228939 2.239660 1.210326
2.893938 -2.163511 2.373566
1.220204 -4.681185 1.631300
-0.557804 -1.760292 1.932857
-0.216189 -0.935111 0.586313
-3.120148 -2.003497 -0.788233
-2.487562 1.418840 1.626997
3.056554 1.454890 0.699461
-1.248657 3.384430 0.316934
0.990969 -3.260599 1.082644
0.819062 -3.410347 0.351869
1.997042 4.741181 1.161203
0.133236 -0.284363 1.438728
4.346772 -0.303332 -0.808242
0.830658 1.412714 -0.270002
-1.675201 4.670305 -0.402070
-3.048632 3.624014 -0.019807
1.911664 4.349329 1.659182
2.767098 -3.926721 2.291439
-2.333391 1.175261 0.138135
-4.049724 -3.339320 0.537932
3.204527 2.914256 2.001391
-2.100619 -3.627463 1.626921
1.267493 0.925528 -0.877526
-1.800668 2.862689 -0.877819
-0.409784 1.284968 1.428204
