ply
format ascii 1.0
element vertex 1575
property float x
property float y
property float z
end_header
-0.364742 1.249354 0.375414
0.028425 2.227884 1.443943
1.928129 0.062762 0.789456
-0.201290 1.630840 0.665248
0.317956 -1.873758 1.048246
-0.781853 -0.715443 0.257422
0.697584 1.271128 0.450003
0.466521 2.394636 2.514417
-1.487157 1.526453 1.178267
-1.165853 -2.294659 2.403591
2.021961 -0.800709 1.309665
-2.135629 -0.348801 1.352417
-1.119439 -0.313423 0.288124
-0.927118 0.655914 0.358028
-1.065905 -2.274894 2.303332
-0.117221 1.266126 0.373682
-0.811866 -1.979509 1.235213
1.880296 1.510405 1.888015
1.134153 2.319410 2.358289
-1.587310 1.197602 0.970865
1.628734 -1.812187 2.488731
0.529208 -0.235597 0.030007
-1.799912 0.170833 0.838342
-1.550402 -1.595030 1.466727
1.086906 -2.255719 2.266593
-1.108274 -0.094375 0.266126
-2.313441 0.638268 2.001498
1.915201 0.732978 1.165621
-0.375746 0.948465 0.312861
1.804916 0.583710 0.854133
0.663836 -1.074367 0.446794
0.697195 2.376110 2.086090
0.476086 0.598677 0.076350
-1.386803 1.392792 0.888117
0.996272 0.191529 0.142620
2.349801 0.651047 1.802372
1.923164 -1.161687 1.503835
-1.364842 2.174395 2.349333
-0.842011 1.223897 0.578591
0.520548 -0.733346 0.179122
1.612897 1.297012 1.043181
-0.435272 2.441301 2.041184
-0.080942 -0.666779 0.087411
0.390246 -0.372610 0.044724
-0.146435 0.132028 0.077218
0.343933 -2.305697 1.594370
0.448630 1.402003 0.539440
-1.537563 1.025763 0.839406
-1.745815 -1.303904 1.253777
-0.417211 1.963141 1.005289
-0.856851 2.113775 1.545685
0.499947 -1.267115 0.414795
-0.900876 0.204874 0.168485
-1.451094 1.356236 0.959062
0.430730 -0.511174 0.163500
0.779330 0.621747 0.221992
-0.856414 -0.874506 0.392426
-0.576322 0.373232 0.121758
-2.423222 -0.205585 2.069639
-0.710057 -0.208696 0.062701
1.474136 -1.606946 1.149841
-0.412861 -2.198862 1.367878
1.802577 1.701563 2.137956
-0.993653 -0.401726 0.164185
-0.140318 -0.086410 -0.005274
-1.282495 -2.097085 1.824896
-1.812954 1.392727 1.422510
-1.471569 1.986822 2.307194
0.044464 1.790240 0.828737
-2.388164 -0.732358 2.443133
-0.592100 -1.968112 0.899809
0.016426 0.910842 0.180130
-0.671951 1.803139 0.796700
-2.218648 -0.973370 1.585230
-0.287298 0.696580 0.099562
1.076400 0.848455 0.437848
0.075076 -0.047988 0.029232
-0.624559 -0.641257 0.112891
-0.289748 1.327759 0.494192
0.559913 -0.308209 0.096951
0.110172 1.076091 0.251804
0.234682 0.640687 0.047638
2.446922 -0.259740 2.347430
0.220095 2.355037 1.777173
2.251588 0.308646 1.503749
0.749308 -0.290970 0.183526
0.599174 -1.616282 0.707968
0.194128 -1.194741 0.288783
-1.965773 1.382111 1.741036
-0.811172 0.808076 0.354325
0.175703 -2.258292 1.342794
-2.294758 0.791409 1.758637
-0.526153 -0.027013 0.046513
-1.233477 -2.170047 1.837427
-2.036347 0.591591 1.244789
0.014799 1.451145 0.459535
1.935435 -1.524735 2.020774
0.153349 -0.130556 0.001741
-1.159301 -0.778578 0.395806
2.175627 -1.198923 2.080773
-0.343664 -2.215084 1.307837
2.256210 -0.950706 2.021350
-0.238830 0.023686 -0.062305
0.168855 0.261714 0.060156
0.066142 -2.488931 2.205883
-1.355509 0.361724 0.408324
0.164235 -0.699367 0.053214
1.266457 0.955668 0.519642
0.549171 -0.318776 0.023671
-1.633487 -1.943090 2.044175
-0.111190 -0.620231 0.144192
1.166812 -1.433645 0.799839
1.448600 0.162186 0.457676
2.094463 -0.880199 1.694945
1.837898 1.569533 1.549817
0.875630 1.254220 0.470155
0.494601 1.641348 0.689698
-1.154175 0.312638 0.363490
-1.764463 -0.805260 0.828595
0.022633 0.057791 0.039469
-0.422500 -0.107299 -0.008527
-0.536489 0.193228 0.086047
-2.131048 -1.132226 2.293073
-1.706909 -1.651188 1.860092
0.108878 -0.025124 0.009189
0.285215 0.002854 0.016887
0.281574 -1.378378 0.422603
-1.041348 2.055108 1.416130
0.033207 0.029285 -0.028701
1.362572 -0.509148 0.438156
-0.991156 -0.857814 0.271815
-0.065548 -1.815692 0.759114
-0.025172 0.252981 0.107579
1.741972 0.528545 0.798754
1.147167 1.905070 1.441514
0.946122 -1.077490 0.452330
0.935150 -1.838319 1.162345
-1.935643 1.477533 1.815178
0.976107 -0.740025 0.253582
-0.040033 -0.131914 -0.075142
1.117568 -0.743121 0.533455
-0.915331 0.264021 0.202192
0.305603 -2.084323 1.115821
-2.026318 0.407390 1.211072
2.343321 0.547195 2.085757
-0.667264 2.221415 1.589541
0.592292 -1.953551 0.978957
-1.544747 1.602136 1.374173
0.092289 0.418586 -0.022947
0.635728 0.878918 0.213279
-2.309986 0.999072 2.384037
0.060968 -0.373087 0.003759
0.201503 0.379484 0.111964
-1.286919 -2.032396 1.540039
-1.053803 -1.205681 0.607797
-0.680496 1.010154 0.259940
0.319849 -0.407158 0.052750
-0.303902 1.658394 0.573871
-1.581408 1.748044 1.639568
0.196306 1.262676 0.362071
0.305214 -2.129777 1.244690
1.411458 -1.426884 0.953498
-1.306850 -0.659028 0.324509
-2.536734 0.370838 2.085923
0.504430 -0.501825 0.121654
0.547153 -1.847671 0.915120
-0.501916 0.397291 0.029474
0.009015 0.008344 0.021294
0.446625 -0.192971 0.033263
0.810970 0.753279 0.429700
2.420233 -0.418610 2.279790
-1.684133 -0.927290 0.828123
2.395356 -0.872108 2.488396
-1.251964 1.433534 0.972269
0.877268 -0.812594 0.366616
-0.289313 -2.353991 1.692915
-0.567442 1.907984 1.031438
0.042539 -0.027193 -0.000518
-2.185897 -1.059115 2.218122
-1.586029 0.740989 0.708692
-0.110049 -0.523374 0.150064
-0.203805 -0.550159 0.078635
-0.180251 0.328720 -0.017954
1.428629 0.699355 0.554102
1.270761 2.191182 2.382087
-1.065019 1.311169 0.772261
2.443952 -0.153601 1.880800
-1.305637 -2.107072 1.805818
-0.199072 -1.696519 0.598035
-2.153455 1.161910 2.264042
1.900246 -0.106081 0.951882
-0.653263 0.682471 0.152090
0.253154 -1.923317 0.853734
-2.106871 0.111505 1.112337
0.531972 2.032647 1.094476
0.979137 -1.331023 0.578407
0.657005 -0.980318 0.319431
0.794563 -0.077798 0.162247
1.366648 -0.438524 0.423296
1.012562 -0.162272 0.154541
0.208447 0.065563 -0.048912
-1.099585 -0.434306 0.213532
0.090045 -0.543022 0.010559
-2.232172 0.477707 1.488587
-0.470521 0.327943 0.050755
0.303008 0.082320 -0.032969
-0.280438 0.304091 0.109047
-1.719624 -1.695347 2.009727
2.254628 -1.033016 2.068502
-2.195603 -0.694913 1.637841
1.498620 -0.841201 0.650332
-0.244106 2.275302 1.620211
-0.589196 -0.010167 0.041133
-0.151932 1.765528 0.766034
-1.769771 -1.053692 1.138122
1.020677 -0.481186 0.252797
0.253363 -2.224687 1.423448
0.095906 -0.325502 0.054603
0.713251 -2.383798 2.284651
-0.602887 -2.407689 2.550559
-1.238201 1.226692 0.724195
1.700808 -0.448770 0.776498
-0.931215 1.093022 0.439981
1.057384 0.344603 0.248573
-0.957250 -2.158685 1.595253
-0.118759 -1.286936 0.388660
0.691921 -1.743269 0.829737
-1.915774 -0.360524 0.918673
-0.829283 -0.578876 0.178973
1.078314 -1.095327 0.315673
-1.178527 -2.085539 1.816864
-0.053424 0.500590 0.081602
-0.413349 1.980915 0.980777
0.715459 1.281839 0.534874
-0.628094 0.620137 0.118705
-1.768688 -1.345879 1.413446
-0.166643 0.686835 0.067852
0.168392 0.887252 0.197349
-2.006398 -0.603710 1.010210
0.166539 0.229626 0.184158
0.145753 -1.237150 0.325383
-1.481067 1.448011 1.012564
0.381469 1.642216 0.609664
-2.205752 -0.284668 1.521177
-2.448759 -0.201763 2.069113
-0.278883 0.405039 0.017344
0.248909 0.074292 0.020953
-0.055860 -0.038255 0.035355
-1.513945 1.199836 0.993694
1.359508 -0.493666 0.454394
-1.763418 1.726998 2.290303
-0.224537 -0.483871 -0.033649
1.300395 -0.182692 0.398429
2.447423 -0.343063 1.812040
-0.207708 -0.850584 0.025845
2.313187 0.012923 1.528187
-2.465889 0.151733 2.351486
1.179165 1.063404 0.574103
-1.364947 1.043406 0.755203
-0.305002 1.687151 0.667623
1.500740 -0.015121 0.542521
-0.282549 2.394866 1.841697
-0.181517 0.096649 0.034156
-0.679072 0.230852 0.169420
-2.429633 0.841452 2.463675
-1.505304 -2.006861 1.820276
-0.592126 -0.299218 0.122240
1.209597 -1.054089 0.659877
0.274582 0.421227 0.007813
-0.136491 0.765283 0.145270
0.486700 -0.619793 0.158749
-0.367858 -1.321302 0.413314
-1.122421 -1.272285 0.598073
-0.482501 1.831805 0.907035
2.539092 -0.421796 2.025286
0.529013 1.427143 0.435449
-0.041498 -0.032892 -0.038455
1.273038 2.035644 2.187784
-0.999819 2.054096 1.586543
-2.338944 0.496897 1.788660
0.341617 0.727138 0.172279
-0.465582 1.870496 0.813469
1.117511 1.793786 1.461036
-1.893797 -1.654448 2.400809
0.717637 -0.259654 0.061382
0.252515 -0.226736 0.075202
0.007574 0.047147 0.027867
1.524296 -1.076300 0.868788
-2.059010 0.174606 1.176331
-0.920423 -2.058660 1.311280
1.052708 -1.496734 0.793801
-2.292439 -0.049145 1.619055
-2.389327 0.795294 1.960139
2.249438 1.035561 2.174160
-0.268623 -0.619325 0.044816
0.814508 -0.504388 0.255459
-2.459108 -0.315689 2.219800
-0.830455 -1.101489 0.395583
-1.569217 1.082028 0.808147
0.720200 -0.307164 0.172613
2.381960 -0.813130 2.303533
-2.445614 -0.530766 2.140005
0.013790 0.997223 0.232757
-1.054946 -1.880816 1.463210
2.269446 -0.517330 1.630777
-0.100029 -0.027379 -0.035919
-0.158186 0.020453 0.116217
0.023527 -0.342461 -0.069634
2.171269 -0.439385 1.303350
2.101229 0.463668 1.245932
0.799393 -2.323317 2.433868
0.695101 2.333297 2.287455
1.530954 -1.964506 2.176228
-0.185285 -1.248118 0.374287
-0.209198 0.148220 -0.034933
1.550840 1.934721 2.215043
-0.846063 0.201813 0.088602
2.046166 -0.753432 1.310555
-0.247651 0.586491 0.185539
-0.545520 0.385939 0.121845
1.123438 1.508554 0.761068
0.085720 0.143278 -0.027113
-1.747427 1.250749 1.395742
-1.888455 -0.067041 0.886728
-1.710751 -1.348713 1.335381
-0.735823 0.413452 0.130144
-1.161480 1.901665 1.346610
2.057625 0.487441 1.134292
1.451058 0.548303 0.546332
0.176925 2.159967 1.145939
0.245261 0.361309 0.026093
0.018040 0.523431 -0.008522
0.204994 1.023914 0.324005
0.085057 -0.071991 0.024170
-1.945856 1.495124 2.452247
-0.050591 -0.099268 -0.033934
-1.150262 -1.911565 1.237102
-0.886443 -1.708819 0.873104
-0.198527 -1.000054 0.205195
1.569575 -0.772394 0.664564
1.274019 -2.146108 1.869180
0.305307 -0.781536 0.110672
-0.603953 -1.983670 1.104343
0.392434 -0.017093 -0.078382
0.805811 -2.351653 2.025295
0.102623 -0.705660 0.045270
-0.682148 -1.033815 0.337385
1.914642 -0.092132 0.959035
0.437524 2.299596 1.453444
0.536751 -1.935866 0.925529
-0.710917 -1.925173 0.839050
-2.075273 -0.958252 1.337410
0.667780 0.149002 0.159320
-0.139745 2.443544 2.280330
-0.434416 0.872610 0.282435
-1.828200 1.642718 2.028436
-1.624604 1.358587 1.297598
-0.038689 -0.826492 0.184236
0.066219 -0.163698 -0.076785
-0.941044 -0.630235 0.216699
-2.019537 -1.292898 1.801800
1.053325 0.639455 0.306075
-0.069839 -0.399041 0.030894
0.024189 0.165924 0.046397
-0.382726 2.184477 1.314332
-0.339703 -0.647345 -0.011237
0.006497 -1.035617 0.351482
-1.845625 1.734935 2.523671
-2.109676 0.087623 1.208024
-0.851845 1.912048 1.259107
-1.811172 0.309425 0.774967
2.098359 1.194410 1.679633
1.245386 1.925415 1.635238
1.019226 0.171865 0.241047
0.051213 0.111006 -0.008356
1.258080 2.075791 2.352058
-0.980303 0.174570 0.263206
-1.230724 -2.145064 1.945529
1.995202 0.241212 1.080686
-1.495018 1.809831 1.566101
0.152802 -2.175076 1.274151
0.645532 0.728846 0.191170
1.829349 1.443028 1.571810
2.112954 1.105575 2.544274
-1.625219 -0.841214 0.813026
-1.475169 0.452859 0.681163
0.775831 -0.633176 0.249578
-0.243591 1.727363 0.730627
1.959161 -0.368806 0.954355
0.174913 -2.492114 2.034990
-1.752914 0.711190 0.810545
0.358695 -1.325218 0.475246
-0.795440 1.131356 0.360567
-2.012434 -1.316965 2.081433
1.125871 0.053242 0.247209
-1.405296 -0.117152 0.404390
1.961951 1.537537 2.375188
2.051103 -1.067258 1.549259
0.073163 2.322661 1.532093
-1.851840 1.361805 1.650926
-0.749498 -0.310933 0.199585
-0.261674 -0.952595 0.185641
1.888458 1.480215 2.497286
-0.463604 0.261057 0.045931
-1.840048 -0.530211 0.968602
-0.866110 -0.656878 0.319907
-0.309942 0.621531 0.050218
0.512265 -0.881518 0.244663
-0.636635 0.403654 0.050153
-0.142828 1.434461 0.511035
0.489647 2.373578 1.900960
-1.549951 0.524231 0.602879
1.898707 -0.600138 0.931829
-1.781545 0.050571 0.783254
-0.281352 -1.101122 0.278586
0.289735 -0.323638 -0.029859
-1.349303 2.073450 1.967442
-0.519890 0.046898 0.021796
2.182081 0.208165 1.382690
0.272332 -1.024362 0.182402
1.174297 1.538069 0.896092
0.636889 0.849198 0.248083
-0.225755 -0.019396 0.049940
-0.325441 -2.059037 1.061616
1.444742 -0.080710 0.493476
0.475057 0.490945 0.087017
-0.614743 2.319058 1.697630
1.951440 0.252238 1.012416
-2.457266 -0.086744 2.325194
-0.506374 1.441712 0.501809
1.855083 0.465632 0.916132
0.168528 -2.495836 2.475929
-1.703430 0.611549 0.809675
-0.162893 -2.247653 1.597666
0.752605 -1.805836 0.928514
2.282589 0.815486 1.980578
-1.681357 -1.104943 1.130135
-1.147195 0.244832 0.224323
0.393868 2.466693 2.275130
2.208711 1.026204 1.736423
-2.078416 0.295188 1.152118
1.500009 -0.168939 0.519261
-1.215938 0.023750 0.321376
-1.340880 1.645282 1.247133
2.103260 0.989688 1.610818
-0.309566 -1.016915 0.189376
-2.075248 0.609717 1.333223
-0.747077 -1.576750 0.778789
-0.827744 1.095115 0.388676
-0.349335 -0.460143 -0.007236
0.069702 -0.039521 0.067124
-0.402043 0.549015 0.143348
-2.378811 0.288988 1.525555
0.387647 0.008806 0.049389
-0.298461 1.073034 0.228277
-0.223320 1.474406 0.438131
-2.297869 0.690582 1.994505
-1.769719 -0.127028 0.808767
-0.090717 -1.153155 0.249484
-1.709941 -1.562123 1.726086
-0.371570 1.586550 0.607131
-2.515283 -0.326982 2.385968
-0.115704 -0.625409 0.011553
2.315608 0.866514 2.270758
2.043189 -1.437134 2.408952
-0.165890 -1.146910 0.288522
-0.563689 -1.009560 0.278789
1.294661 -0.640623 0.500532
-0.143612 0.031897 0.008699
-0.036364 0.034569 -0.077914
-1.093066 2.065331 1.568169
-1.094983 -1.727953 1.135515
0.240272 -2.329360 1.585951
2.223811 0.465013 1.350659
-1.583542 1.264479 0.964225
2.219721 -1.192819 2.039089
-0.525879 -0.182874 0.014173
0.670463 -2.262929 1.935499
0.427697 2.027981 1.053344
-0.044274 0.066905 -0.036050
-0.600492 2.472280 2.183774
0.969010 -0.696002 0.292646
1.057144 -1.488378 0.731007
-0.477918 -0.001466 -0.004846
-1.574004 1.889261 2.300625
-0.259093 -0.068937 -0.000342
1.227846 -2.167031 2.033091
-0.135649 -1.488921 0.454939
-1.371137 -1.175684 0.726976
0.180940 -0.385756 0.092098
2.235624 0.540458 1.674068
2.006239 0.543810 1.155457
-0.653751 -2.337287 1.997840
-1.513676 -1.005545 0.779192
1.660774 -1.217238 1.102884
-2.205500 0.620234 1.389636
0.720164 -0.467111 0.110794
-0.508619 -2.240758 1.505776
2.130438 0.308246 1.328031
1.943284 -1.152946 1.537487
-1.326918 0.362184 0.377982
-0.875092 -1.956124 1.357458
-1.684176 1.851241 2.382390
-1.395576 -1.975815 1.881879
0.144281 0.867886 0.152791
-1.738960 -0.070196 0.663325
-1.387615 -0.042452 0.418516
1.960679 1.322925 1.656924
-1.488509 0.864405 0.756251
-0.007793 0.170073 -0.076367
-1.392230 -1.730914 1.468162
0.969462 0.035719 0.164680
-0.953950 -1.244303 0.568986
0.167922 -0.199436 0.008895
-2.281716 -0.401289 1.524799
-2.368734 0.760644 2.288635
0.624388 -1.595003 0.727800
1.265995 -2.145534 2.222040
0.335127 0.197179 0.064907
-2.149769 -1.444742 2.261552
1.118693 2.217289 2.219095
-2.265950 -0.703953 1.739975
0.479305 0.066365 0.024028
0.133166 1.377036 0.408100
0.201605 0.664201 0.071642
0.336533 -1.185153 0.357669
1.501202 0.769654 0.516563
0.212900 0.665927 0.059250
-0.490327 -0.337645 0.136575
-0.025863 0.576738 0.018889
0.866063 0.966950 0.454901
1.312528 -0.664969 0.672940
0.077838 0.154735 -0.056629
-0.894058 1.187521 0.394243
2.008508 1.617516 2.368834
2.023607 1.320224 1.812948
-0.085870 0.126055 0.028000
-2.133614 -0.484085 1.177292
0.902144 2.342044 2.057466
2.304466 -0.548886 1.852075
2.363243 0.573575 1.933490
0.636646 0.883724 0.205047
0.072587 0.603661 0.074096
1.188620 2.124525 2.470367
-1.788638 0.378141 0.755047
1.845761 1.636058 2.386010
-1.039856 0.887873 0.425272
-1.269963 -0.120045 0.288977
-1.570960 0.514045 0.608211
-1.644709 -1.742642 1.662737
0.309056 2.097541 1.102909
1.508604 -1.833054 1.891152
0.611424 -1.605144 0.720580
-0.264679 0.102119 -0.055828
0.004620 0.507108 -0.005451
0.296989 2.234454 1.524333
0.590154 -2.367150 1.756537
-0.966145 -0.223719 0.263681
-0.742084 -1.710742 0.860094
-1.704558 1.598360 1.807794
-0.376167 1.435904 0.506045
0.343441 0.803621 0.187849
0.993650 1.485405 0.734790
-0.579834 0.524964 0.145220
-0.191393 -1.044321 0.175189
0.251238 -0.179708 0.033409
0.071397 1.246517 0.322185
-0.295934 -0.537129 0.124186
0.852157 0.033897 0.141726
-1.417530 -0.144102 0.335482
-1.719621 1.734244 1.652999
-0.579185 2.346092 2.351386
-1.675218 -0.970313 0.849682
2.201045 0.432610 1.544037
2.320733 -0.686814 1.990890
1.097982 -0.715051 0.434872
0.943556 0.038772 0.106027
0.667484 2.348433 1.751756
0.761376 -0.093231 0.086118
-0.139375 1.295725 0.324541
-1.067632 0.465957 0.266502
-0.473274 -1.581562 0.638560
1.633731 1.602192 1.267191
-0.321480 -0.337906 0.043168
1.156813 -1.104334 0.683083
-2.121940 1.277021 2.258425
-1.142196 0.996642 0.594011
1.805431 1.223760 1.055665
-0.030616 -1.997814 1.096040
1.369195 2.070060 2.043205
-0.805293 1.399400 0.526061
-2.086557 1.086268 1.883956
0.102076 -2.500153 2.444095
-2.045377 -1.085133 1.612183
0.467337 -1.862606 0.934216
-0.512053 -1.038626 0.217592
-0.813667 1.745322 0.935952
-1.452910 1.062148 0.753159
0.288457 -0.982231 0.191807
0.499828 0.054346 0.054678
-0.135198 0.057059 0.008170
-1.028463 -0.158817 0.303510
0.777112 2.159897 1.473371
-0.341260 0.447125 0.104880
-0.487672 -2.366139 1.941715
-0.331033 -1.727741 0.696799
1.896785 1.097526 1.131233
-0.888713 -1.412997 0.648832
-0.250210 0.215871 0.095388
1.834879 1.675337 2.131042
0.437886 1.073144 0.240566
-0.051567 0.708958 0.095799
-2.025820 0.963617 1.376861
-1.511394 1.964883 2.368379
0.278761 -0.115934 -0.023337
0.183188 0.106791 -0.123370
1.924938 -1.649343 2.405374
-0.234791 0.315774 -0.028985
0.058175 -2.349557 1.481688
1.336871 -1.071846 0.799953
-2.023193 -1.407463 1.962489
-0.828575 0.603100 0.155468
-0.751400 0.349986 0.168186
-0.397078 -1.363157 0.414598
1.299392 2.012440 2.435706
1.029240 -0.360475 0.241083
-1.796186 0.357311 0.983873
2.069326 -0.979785 1.277887
-1.645030 -1.821036 2.013868
-1.452046 0.124115 0.472403
0.884405 -0.338262 0.106615
-2.001215 -1.550558 2.255008
0.182222 2.377997 1.731259
1.030462 1.586323 0.778956
-1.425487 -0.219979 0.486890
-1.082711 0.204184 0.237751
1.463569 0.950328 0.822558
1.152211 1.759649 0.954743
-0.685720 0.308935 0.075714
-1.871681 0.739483 1.063232
1.117555 0.845262 0.384116
-2.198859 -1.150179 2.213266
0.767584 -1.029493 0.367608
1.495571 -0.295464 0.454841
-2.298280 -0.759113 2.012843
1.220204 0.336281 0.136024
-0.443912 0.480561 0.145380
-2.219813 1.028305 2.053013
-0.181132 1.069697 0.242350
-2.396817 -0.435975 2.253000
-0.949471 1.164269 0.528569
2.001548 -1.434544 1.967526
-2.401248 -0.729562 1.932741
-0.623156 2.136132 1.405931
0.199447 -0.001819 0.039966
-0.792070 1.125756 0.453277
-0.285467 1.438575 0.442621
1.108509 1.654216 0.969056
-0.128923 -0.060641 0.049607
0.113496 -2.471222 2.402622
-1.609644 -1.352908 1.129287
-0.551208 -0.814803 0.251174
0.052344 -1.935310 1.031531
1.484035 1.490041 1.219100
1.191919 -0.848268 0.384190
1.915777 -1.544870 1.934852
-1.454874 1.482565 1.048413
0.626187 0.592470 0.154757
0.832106 2.335931 1.810805
-1.232527 1.940326 1.587173
-1.288755 1.837057 1.345142
-0.890233 0.520020 0.284715
-1.120374 1.552352 0.940411
-1.305227 -1.469686 0.972452
0.429779 -0.112690 0.096997
-2.024187 0.392519 1.124838
0.349443 1.150766 0.287484
0.094999 -1.893226 0.945131
-2.148189 0.336516 1.295469
-0.774480 -0.457508 0.097544
-0.023267 -0.896145 0.138734
0.798739 1.565152 0.784765
1.260117 2.112942 2.421898
-0.426388 1.354238 0.447793
1.139793 2.174063 2.105102
-0.705783 0.527571 0.076071
-2.172904 0.032358 1.405735
0.214852 0.244430 0.094797
-0.773872 2.095508 1.337889
0.711447 2.308196 2.350396
1.884356 1.691830 2.375602
-0.095795 0.389140 0.048398
-2.050430 1.503572 2.274289
0.501264 1.325899 0.362152
1.979859 1.332024 1.744939
0.354445 -1.887350 0.906705
-1.386228 -1.726617 1.663486
-0.363094 0.099890 0.022992
0.669163 -1.700809 0.790077
1.499388 0.001130 0.558140
1.330501 1.840591 1.269105
-1.031222 0.122089 0.238409
-0.248463 1.059445 0.248827
1.054967 -1.617864 0.844540
-1.020055 0.532683 0.309945
0.423128 0.088258 -0.032483
-1.289251 1.555472 0.994927
-1.725902 1.656587 1.953423
1.205445 1.783696 1.134090
1.816715 1.376065 1.501516
-0.826645 -0.740570 0.333309
0.407249 -0.196969 0.025678
2.057451 1.355927 1.948141
-1.204903 -0.322790 0.351360
-0.648445 0.146860 0.184738
1.481129 -2.017467 2.021130
-0.599097 -0.482759 0.131824
0.119289 0.115104 0.117755
0.247334 -1.449489 0.391394
-1.234770 0.505548 0.439090
-0.736885 -0.176465 0.132761
-1.600079 0.587420 0.762816
-0.642586 -1.897249 0.866888
-0.423770 1.596412 0.646456
0.747616 0.095588 0.080949
2.132207 -1.351925 2.040322
-2.088871 -0.031015 1.234135
-0.505298 -0.368906 0.110704
-2.064341 1.489650 2.397206
-0.005553 0.078811 0.027897
1.073736 -0.030305 0.218472
2.088568 0.580044 1.225572
0.688639 -0.743951 0.218327
1.575047 1.834247 1.920104
-0.470130 1.708684 0.724536
-1.318736 1.566779 0.965577
0.710391 1.449272 0.689249
-0.899940 2.088721 1.720913
-2.347520 -0.141129 1.834030
0.159572 0.029444 0.017078
1.039429 -1.256090 0.590279
0.161506 1.709401 0.606230
-0.412750 -2.106948 1.120696
1.260139 2.235455 2.183726
0.290205 0.921980 0.216446
-0.227007 -2.404315 2.109900
0.087363 -0.005664 -0.010265
0.896236 -2.270530 1.921873
-2.146932 -1.053067 1.695314
0.676144 -0.834870 0.275192
0.905613 2.248494 2.464564
-2.354682 0.801388 2.401348
2.049282 -1.083368 1.604434
-0.666857 0.511477 0.140787
1.154656 -0.937752 0.421070
0.735726 0.605748 0.128776
-1.334149 2.099318 2.164578
-0.559061 1.602719 0.702899
-1.322286 -2.198730 2.003271
1.173814 1.178649 0.699159
1.352327 -0.034211 0.328785
0.318729 1.225835 0.261926
-0.151661 0.118844 0.008661
-0.355027 0.639341 0.090920
-1.267506 1.809671 1.368533
-0.002852 2.084361 0.984691
-0.226753 -0.301185 0.086919
1.263175 -0.102408 0.386634
0.183775 -1.016410 0.221837
1.280539 -1.131839 0.788066
-1.178327 -1.549159 0.830180
0.097111 -0.382261 -0.035338
0.141946 0.821936 0.085248
1.603719 1.158861 0.931132
1.467509 2.047702 2.242000
1.440874 -1.440230 1.064892
-0.682397 -2.349225 1.931677
2.076390 -1.192400 1.566845
0.925902 -0.649786 0.320331
-1.148362 1.216800 0.576947
0.161572 -0.410005 0.086778
-0.187109 -2.483510 2.490077
-0.384011 -0.543958 0.107371
0.956917 1.749561 0.955265
-0.784683 0.268172 0.186944
2.446889 0.257334 2.398040
-1.852215 -0.235549 0.959623
0.168885 1.282539 0.311096
-2.104851 0.303098 1.153231
-1.199272 -1.909120 1.578428
-1.314627 2.188343 2.242680
-0.028611 -0.039778 0.026437
2.066107 0.354450 1.260508
-0.027796 0.666584 0.061443
1.882004 1.263448 1.267130
1.875384 -1.739476 2.047060
-2.172593 1.133901 1.972567
-1.328775 -1.736409 1.211942
1.117771 -1.715811 1.069950
0.076751 0.063192 -0.039560
-0.618553 -1.702989 0.828501
-1.120493 2.071011 1.630414
1.169063 2.077595 1.604291
1.295752 0.098691 0.391139
-0.249401 -1.506365 0.530556
-1.583697 1.246276 1.010557
0.167282 2.449513 2.250696
-1.067348 -2.252579 1.916418
-0.755475 1.414272 0.649730
0.296096 2.289455 1.478637
0.548846 2.332247 1.926279
-0.818434 -0.111632 0.163231
0.826942 -1.531984 0.783143
1.075430 0.029830 0.229100
1.510479 1.731638 1.721530
-0.970220 -2.148680 1.525740
-2.047790 1.471645 2.334084
-0.484281 -0.069816 0.052484
0.249194 -2.537052 2.317174
-0.951549 -0.230106 0.211997
-2.314960 0.145043 1.508331
0.099288 2.428560 1.469128
-2.351466 -0.404176 1.881069
1.729950 -0.125410 0.704542
-0.834083 2.341832 2.507360
-0.075400 -0.263971 0.016454
0.851545 -2.362197 1.916818
1.145471 2.167342 1.877325
-1.558601 1.822731 1.852004
-1.028734 -0.737863 0.426116
-0.594712 0.154935 0.080003
-1.138806 -1.516689 0.861147
1.876958 0.463633 0.936933
2.291074 1.168705 2.441431
2.012644 0.920128 1.417602
-1.308499 -0.688735 0.398212
-1.893528 -1.588891 1.872857
-1.179321 0.336531 0.324499
-0.339141 -1.597744 0.615735
1.480640 -0.231266 0.495507
0.012653 -0.090462 0.096174
0.149758 -0.217383 0.050484
2.436208 -0.010389 1.862096
0.772914 0.669825 0.206922
1.850430 0.726872 1.026269
0.111329 -0.030477 -0.057878
1.230071 1.329944 0.746601
-0.496924 2.070187 1.273836
0.486379 -2.250870 1.648440
-0.122529 0.160614 0.104928
1.086936 -1.916645 1.314778
0.601581 1.049864 0.344073
1.645981 1.538624 1.285540
1.811224 1.483585 1.569752
2.339495 0.791548 2.144153
1.515693 -0.393214 0.501253
0.154932 -0.157416 -0.000427
1.903877 1.301882 1.456259
-0.810722 -0.873373 0.253900
0.894651 2.210551 1.728868
0.199742 0.234779 0.018181
1.282556 -1.544101 0.866340
0.643166 1.840533 0.993506
0.529304 -2.380369 2.492611
-0.006795 -0.586639 0.030516
-1.467824 -2.024312 2.509808
0.229511 0.630251 0.056540
-0.641423 -2.199313 1.423583
-2.444870 0.008205 2.439122
-0.270311 1.080865 0.222442
1.337935 0.907889 0.493450
-1.943800 -1.393146 1.983329
-0.257721 0.255431 0.031969
-1.122570 0.846080 0.431391
-0.065706 0.510342 0.157605
-0.563903 2.073460 1.289758
-2.309913 1.055493 2.252829
1.328877 0.400671 0.473593
2.500981 -0.080819 2.389908
0.085612 1.608211 0.525977
1.150318 2.124649 1.741586
-1.531019 1.138137 0.838296
-1.079548 2.188636 2.249793
-0.197827 -0.007860 0.012778
-2.462374 -0.043069 2.099939
0.775765 -2.373369 1.923779
-2.194787 -1.132691 2.315028
1.149167 -0.784354 0.352116
-1.206570 -2.150283 2.408962
-2.136224 -1.180396 2.431648
2.022643 -0.988712 1.366657
1.367140 1.531259 1.011028
-1.921415 0.840978 1.012843
-2.469798 -0.021178 2.079383
0.433265 -2.448558 2.039607
-0.778713 -0.541024 0.136011
-0.153638 2.331788 1.665345
0.303932 -2.268720 1.595659
0.290166 0.786549 0.154588
-0.194547 -0.672201 0.093457
1.305029 1.712415 1.329186
-0.098493 -0.048468 -0.057690
-0.273545 -1.988731 0.975035
-1.233190 -0.353473 0.293388
-0.117542 -2.436118 1.990100
0.886187 -0.586404 0.177389
2.126826 1.111615 1.757719
1.226496 -0.317752 0.395571
-0.018332 -0.119024 0.127490
0.394655 1.277211 0.404479
-0.322016 -0.270589 -0.127411
2.213183 -1.149062 2.343667
1.451540 1.822177 1.757727
1.047980 1.077863 0.515210
-0.143967 -0.218940 0.061714
-1.019746 -0.453677 0.221087
-2.019738 0.100454 1.044652
-1.446380 -1.861872 1.560197
1.036514 2.108531 1.515822
2.340728 -0.257954 1.628332
-1.113141 2.205689 2.236071
0.372496 -1.381896 0.514975
-1.383593 -0.507697 0.380797
-0.806132 0.138562 0.165457
-1.802905 1.025944 0.965211
-0.126975 -0.581258 0.126242
-1.281202 0.491115 0.394830
-1.887575 0.130951 0.710483
-1.430584 -1.819983 1.379679
-0.461988 -0.398014 0.061764
-0.021072 -0.800220 0.164558
0.684814 -2.375811 2.034313
2.351913 0.863211 2.147219
-2.029906 -0.882142 1.476200
1.268669 -1.649692 1.318165
-1.352476 -1.953596 1.829609
2.504175 0.183889 2.443510
-1.871361 -0.255923 0.846658
-0.001116 -0.190045 0.053778
0.564337 0.969653 0.433196
0.267329 -0.528830 0.055799
-1.029666 2.317427 2.290025
2.053855 -1.214856 2.321551
-1.557387 0.774063 0.678335
0.887212 -0.650543 0.193904
0.514882 -0.416548 0.065508
-0.231921 0.224725 0.016869
-1.156902 0.895287 0.501716
-0.819966 0.743012 0.328988
-0.645862 0.751615 0.167457
-1.056743 -1.350374 0.700440
1.478290 0.375064 0.548906
1.891260 -0.516782 1.075058
-2.483633 -0.071149 2.266083
-0.864229 -0.331234 0.214309
2.075345 0.365997 1.156239
-0.383457 -1.397031 0.431741
-2.261564 -0.840661 2.298031
0.666587 -0.439180 0.116452
-0.293521 -0.425654 -0.025872
-0.298241 -0.071649 0.053212
0.008449 -1.561072 0.482063
-1.236104 2.026478 1.690568
-0.697242 0.013425 0.086042
-0.700369 1.575961 0.637490
-1.067631 0.114025 0.327055
-2.460340 0.662210 2.263367
-0.008046 1.469095 0.400064
1.078693 0.397080 0.337074
-1.267719 0.354278 0.363227
-1.123919 -1.245178 0.617284
0.891504 -1.668448 0.764388
1.725679 -0.554170 0.847341
2.025143 -1.320476 2.066188
-1.432918 0.609047 0.550227
0.121601 -0.350987 -0.054280
-1.231878 1.755083 1.151199
2.309122 -0.303683 1.696417
-0.338771 0.247970 -0.055009
-0.726284 -2.413534 1.959688
-2.320031 -0.829677 2.201954
-1.443690 -1.296082 0.910184
-1.677573 -1.376251 1.331015
-1.952866 0.551274 1.056389
-2.448037 -0.435724 1.989491
2.131326 1.433500 2.361045
-1.359392 0.530342 0.532324
0.038226 0.014676 0.041351
-0.763098 -1.202036 0.475888
1.049285 1.694544 1.009270
2.362158 0.558370 1.943444
2.266556 -0.082868 1.417422
0.819774 2.349931 2.480999
2.077338 -0.985454 1.564682
1.185485 0.210240 0.201366
-0.556399 1.470693 0.658846
1.211620 -0.046178 0.363105
-1.371350 0.614246 0.509996
0.599375 1.929873 0.798866
1.420300 1.690937 1.461215
1.550494 -1.802847 1.623567
-0.057224 -1.619121 0.689609
-0.226129 1.853367 0.909748
1.206315 -0.658789 0.448560
1.284350 2.091087 2.491601
1.636683 1.875817 1.994547
0.097109 -0.548819 0.062018
0.325852 -1.739266 0.743216
-0.985463 -2.281785 2.167098
-0.017133 0.198812 0.051183
0.522164 1.000145 0.327166
-0.757877 1.706266 0.799612
-0.334453 1.559397 0.424108
-2.244472 0.504066 1.474997
-0.341050 0.128712 0.101894
0.488534 2.137195 1.531987
0.270761 -1.431795 0.462744
-0.674878 -1.235098 0.460076
-1.799619 0.103809 0.647962
0.059096 2.414191 2.104714
0.106786 -2.462506 2.109229
1.878477 -1.523030 1.947011
0.552745 -1.030860 0.270620
-0.063427 0.360490 -0.022081
1.256596 -1.200046 0.735068
1.836619 -0.564313 0.985741
0.457076 1.722152 0.659531
0.682397 -0.694107 0.164354
2.273748 0.110578 1.610016
-1.405269 -2.082281 2.068177
0.474118 0.007176 0.047592
0.031657 0.500255 -0.013365
1.038177 -0.166000 0.236755
-0.706458 2.054411 1.270338
0.660428 -0.182462 0.095624
1.153648 1.708961 1.219736
1.071848 -0.810562 0.326027
-0.857578 0.182593 0.244409
-1.717305 1.761223 2.304378
1.443606 -1.807164 1.751288
0.028021 1.537021 0.684576
-1.025808 -0.708606 0.224905
-0.393269 1.862579 0.823887
-0.060597 -0.183534 -0.040008
-0.613647 -1.040784 0.344851
-0.225522 -0.166883 0.030097
0.641393 2.027729 1.081083
0.933809 1.397465 0.660283
-1.858490 0.648801 0.838810
0.866044 2.308956 2.034662
-1.206439 -0.752952 0.453799
-0.934592 1.718762 0.863841
-0.416957 1.201555 0.308178
-2.056204 0.678361 1.173725
-1.340759 0.807023 0.584648
0.870340 2.134334 1.400839
-0.417199 2.413176 1.770543
-1.562227 0.759758 0.890503
-0.626472 0.219883 0.061195
-0.006041 0.278486 -0.006259
-0.700547 0.149098 0.120134
0.877087 -1.127970 0.360269
-0.964236 -1.880122 1.182888
2.133150 1.259366 2.258980
1.405872 1.358911 0.920461
-1.712633 1.811217 2.503042
2.462648 -0.082051 2.128807
-1.509516 -1.310182 1.113371
-0.011643 1.670481 0.709494
-1.073769 -0.794499 0.471173
-0.745675 1.650282 0.691552
-0.888950 0.486884 0.179590
1.705947 0.530858 0.980880
0.778756 2.370930 2.087603
-1.494966 -1.086499 0.702707
-1.971475 0.427465 1.052584
-0.882777 0.678707 0.397615
-0.387343 0.990742 0.188818
-1.521657 0.952707 0.725128
0.544938 1.359186 0.359580
-0.287612 0.914818 0.186978
-1.916669 -1.599129 2.371325
-2.127003 0.415703 1.157811
0.767446 -1.329976 0.602013
2.377265 0.318253 1.623615
0.202482 2.215108 1.517722
1.543376 1.764793 1.734443
-1.336597 -1.857610 1.348569
-0.718685 -2.085307 1.390956
1.681782 1.515610 1.366826
0.602396 2.268053 1.795923
2.128000 -0.098630 1.176672
1.632823 -1.549124 1.503871
1.988618 0.391689 0.855742
0.102005 -0.251914 0.043528
0.600112 2.176607 1.451896
0.945913 -2.300778 2.034092
-1.336735 0.573467 0.468579
-0.329894 -1.370907 0.429305
2.028307 1.319824 1.834911
-0.001039 -0.025722 0.045553
0.074196 -0.079848 -0.074653
0.616045 -1.673560 0.886482
-0.481661 0.257434 0.003212
0.433955 -0.624728 0.097260
0.592585 -0.907140 0.338753
-0.058977 0.047181 -0.032104
-0.831792 2.087382 1.352599
-1.838917 0.390622 0.886462
-0.476305 -0.834711 0.194840
1.998513 -0.781518 1.075371
-0.241349 1.367104 0.380611
0.550821 -0.397948 0.049108
1.492939 0.483639 0.536965
-0.244902 0.460851 0.034583
-1.600495 0.093786 0.567701
1.158934 0.491302 0.328713
-1.477188 -1.253344 1.013510
0.576937 0.775014 0.209250
1.385032 -0.730206 0.489873
-0.062808 2.171136 1.142003
-0.540342 1.077605 0.391160
-1.749625 0.350930 0.683458
2.441814 -0.413857 2.051654
2.324252 -0.561280 2.016525
-1.254292 0.663440 0.431063
0.780340 -1.790568 1.061619
1.049083 1.178968 0.639312
1.346269 -0.984273 0.659501
-1.930389 0.576155 1.031657
0.443237 -0.230163 0.099347
2.178223 -1.159373 2.065142
1.780693 -1.698841 1.929473
0.673838 -0.876887 0.219064
-0.187639 -0.182312 0.118231
0.891995 -1.935694 1.228308
-0.895838 -0.006510 0.139389
-2.070941 1.170466 1.910781
-1.324496 -1.727406 1.270653
-0.478959 0.900946 0.241752
1.186183 1.930297 1.461668
0.014054 0.504050 0.081176
1.722824 0.501823 0.828869
-0.458686 0.632592 0.124365
2.000998 0.742572 1.066635
-1.346804 2.027900 2.177846
-0.442076 0.709811 0.139745
2.498867 0.382485 2.434662
-1.236622 1.011764 0.683373
0.065312 -0.164307 0.050416
-2.150825 -0.558680 1.297375
0.302515 1.197812 0.338292
-0.612838 -2.155858 1.606219
-0.176682 -0.782994 0.108075
1.895789 0.702441 1.006168
1.710175 0.285771 0.737819
-0.652431 2.414724 1.997817
0.670924 -2.000684 1.224944
0.088242 0.014289 -0.067841
0.386825 -2.108786 1.260562
2.094751 -0.991912 1.557144
0.617489 -0.063338 0.053562
-0.034396 1.121542 0.223226
-1.684760 0.013975 0.588897
-1.498860 -1.717142 1.357883
0.358701 0.718064 0.144100
-1.062227 0.606848 0.412761
-0.329642 0.738398 0.192752
1.602171 1.724093 1.694979
-1.695496 -1.335928 1.176003
-0.030423 -0.098059 0.005191
0.299295 -0.225477 0.047434
0.189721 -0.107688 -0.008730
-0.106741 1.034812 0.352208
0.477873 2.096330 1.234325
-0.669834 -1.680597 0.788999
-2.313812 -0.890696 2.400127
-0.100418 0.035425 -0.023205
-2.060464 0.699008 1.298233
-1.725825 1.554561 1.481274
-0.522066 0.130351 0.104276
-2.202920 1.323723 2.386453
0.531554 0.628469 0.128962
0.196023 -0.816354 0.085964
-0.192399 0.151344 0.061413
0.839922 -2.242049 1.843201
-0.749495 -2.412419 2.041907
-0.096252 -0.764268 0.138426
1.694632 1.142597 1.153654
-0.507887 -1.362600 0.480789
-1.637726 -0.818392 0.718932
-0.973468 0.089645 0.277611
-2.209375 -0.886880 1.816163
0.159367 -1.372108 0.445555
-0.061259 -0.453353 -0.129139
-1.885784 -1.059502 1.284191
0.495028 -2.107363 1.254302
-1.749648 -1.407205 1.478234
-2.041702 1.113798 1.433650
0.064604 -0.143284 0.017297
1.834797 1.225909 1.287175
-1.918620 1.170464 1.495603
0.168521 -2.551574 2.372401
-0.408824 1.487325 0.567594
-1.421170 0.690672 0.559691
-0.146280 0.074046 0.010979
0.015060 -0.311451 -0.026006
-0.082197 0.665927 0.208077
0.004541 2.127404 1.152093
2.065531 -1.167682 1.952315
-0.146537 -2.262495 1.547311
-1.414487 1.018910 0.697398
1.175644 -0.398185 0.368753
-1.218175 1.263331 0.590870
0.179657 0.034560 -0.040814
-2.394585 0.464647 1.901988
-0.625680 1.221924 0.370504
-1.331853 -2.129477 1.888485
1.406790 -1.037759 0.726734
0.548045 -0.099496 0.101321
1.834447 0.847201 1.077833
-0.240909 -0.129303 0.020492
-0.156369 -2.083143 1.031451
0.188633 0.620292 0.042904
-2.424059 0.032324 1.556840
0.045803 0.605027 0.086404
1.756540 0.240246 0.678243
-2.131828 -1.412001 2.164711
1.650795 1.771311 1.816993
2.321492 -0.098315 1.534132
-1.157383 -1.621987 0.946023
0.449017 2.286149 1.826559
-1.764751 -1.511447 1.805464
-0.055271 0.841913 0.173594
0.986059 0.153280 0.277902
-1.498058 0.232558 0.506856
0.069193 -0.748474 0.185757
0.414475 -0.454901 0.031269
0.010032 -0.063803 0.050462
0.205491 0.784458 0.106715
-0.628110 -0.556560 0.135179
-2.310915 -0.897646 2.466654
-2.389865 0.404338 1.702441
0.730862 -1.485058 0.669673
1.146826 0.345766 0.421520
0.842320 -2.181030 1.919062
-0.429112 0.798247 0.210632
-0.782533 0.509813 0.198089
0.324762 -0.248203 -0.009450
1.544787 0.313571 0.549558
-1.403462 1.137317 0.844343
1.273528 -2.025084 1.642814
-1.977270 1.198292 1.721975
-0.892266 2.284481 1.933967
0.252282 2.134684 1.151722
-0.055637 0.034862 0.012422
1.131649 -1.153361 0.627842
0.206452 1.874765 0.833378
-0.343880 1.469090 0.484322
-1.471195 -1.936108 2.098653
-0.114920 1.530951 0.475187
-0.648342 2.164953 1.459923
-0.708379 -2.208820 1.777593
-0.084047 1.716111 0.631700
-0.337977 -0.093931 0.036085
-2.571518 -0.030358 2.428629
0.557130 -0.596364 0.148286
1.665139 -1.200026 1.064393
1.583487 -1.935120 1.992752
0.473259 0.194913 0.094651
0.262328 -0.498008 0.095611
-0.034750 -1.205508 0.347134
0.460228 0.738087 0.191667
-0.483778 0.271692 0.132103
0.098995 0.336483 0.044558
0.590500 -2.412316 2.208097
-1.821359 1.463897 1.781811
-1.007546 -1.386272 0.714807
-0.056247 1.598575 0.505253
1.135491 -2.007477 1.288454
-2.462245 -0.022922 2.352765
-2.508097 -0.394085 2.349606
0.870002 0.192946 0.087512
-0.730763 2.173060 1.586894
-1.685785 0.310852 0.700456
-0.126123 -1.212114 0.268988
1.245035 -1.694542 1.184877
-2.336182 -0.351519 1.565876
0.844800 -0.425812 0.168514
0.551427 0.697497 0.192728
-1.233522 -0.170471 0.357150
-0.558970 -0.012896 0.089669
1.272970 1.879013 1.314593
-0.192731 1.240309 0.375683
1.214419 2.006393 1.969357
0.672737 -0.717191 0.139133
-0.259002 -0.102314 0.026137
0.264082 -0.249653 0.029674
-1.392185 1.526624 1.105271
-0.769225 1.175803 0.277276
-0.291518 1.235531 0.466240
0.190374 -0.500077 0.119039
2.211252 1.056209 2.159738
-0.769647 -1.157440 0.474585
-0.293442 -2.206380 1.270583
1.638286 1.713395 1.714141
0.616123 -2.393342 2.431363
1.462133 -0.756651 0.705447
2.452236 -0.423864 1.989064
-1.515652 -1.590290 1.212004
-1.937050 0.842776 1.283862
2.415624 -0.595949 2.141697
0.277388 -2.326563 1.601133
-2.141919 1.107799 1.557958
0.502018 -2.000527 0.956301
-0.757604 -2.106475 1.520053
-0.847210 0.625095 0.078929
1.651166 -0.775071 0.904790
-1.758767 -1.480791 1.696180
2.296752 0.874833 1.830166
-0.695082 -1.559438 0.709649
0.075964 -0.282604 0.033182
0.059491 -0.001279 -0.017821
2.097684 0.107384 1.144718
0.646875 -1.874789 0.906555
1.354618 -1.744392 1.329752
-0.001574 -0.116686 0.001146
1.580051 1.218981 1.011123
0.315618 2.381017 2.313035
0.859355 -0.189859 0.092691
-0.304653 1.750174 0.736238
-0.003025 -0.807579 0.066216
-0.007550 -0.106980 -0.029661
0.847260 -1.576113 0.732133
1.564669 1.896102 1.777698
1.429318 2.047755 2.233558
-0.632807 -0.366330 0.055185
-1.061692 -0.656295 0.320587
0.727232 -2.388243 1.989773
-0.298609 0.707990 -0.008253
1.709918 -1.540331 1.415498
0.827474 -1.705772 0.919808
0.332018 -0.113266 -0.011381
-0.360103 -2.130049 1.357636
-1.701585 0.193491 0.691995
2.393168 -0.314333 1.838236
0.216018 0.127604 -0.016521
2.004722 1.416284 1.980214
-1.264595 -1.579250 1.018567
1.824904 -0.930338 1.088817
0.334642 -0.763245 0.116240
0.057296 -0.020240 -0.056056
0.059057 -0.046931 -0.003103
0.344349 -2.291949 1.827218
-1.451751 -2.036784 1.821438
0.895816 0.266912 0.070447
0.914836 1.964386 1.470446
2.172613 -1.193572 2.018844
-0.298381 -1.968414 0.989172
1.814666 0.706110 1.025197
2.104745 -0.745163 1.417159
-0.242447 0.175690 0.029646
-0.011634 -0.844418 0.129603
0.403995 0.778366 0.214219
0.878340 -0.325930 0.216744
-2.143294 1.352845 2.519127
-0.484447 -0.976545 0.332756
-0.792694 0.775163 0.251334
0.516731 -1.589199 0.652737
-0.531231 2.177020 1.500589
1.658384 -1.050555 1.035892
-0.804067 2.338912 2.087120
-0.819951 -2.365676 1.863615
-1.122035 2.262925 2.460389
2.158996 -0.395497 1.346399
-1.206057 -0.103048 0.321928
2.415144 -0.372838 2.050429
0.066566 -0.007465 -0.017071
-1.395168 -0.342866 0.453341
0.428057 1.670137 0.691894
1.239119 -1.802239 1.276171
2.564680 -0.248066 2.456168
0.414777 -2.072983 1.231469
2.248775 -0.813286 1.855016
-0.701675 -2.379008 2.366347
-1.369524 -1.713124 1.379071
-1.462582 0.245783 0.471931
-1.659290 -0.310943 0.606610
0.897016 -1.581049 0.871871
-1.890453 -0.643569 0.880461
-0.770482 -0.055148 0.146834
-1.480474 -1.954159 2.369312
0.539685 1.971646 1.125852
-0.867949 -0.325542 0.264963
-1.532963 -1.029845 0.889889
1.543038 -1.031823 0.869686
1.821550 -0.154380 0.699119
-1.406831 -0.690487 0.551176
-0.874973 1.424204 0.528977
-0.707786 -1.701751 0.941173
-1.900283 -1.502283 2.138351
1.154723 -1.756638 1.225403
-2.061980 1.354654 1.855608
-1.222479 0.494716 0.489043
2.045638 1.316737 2.021579
0.642441 2.366271 1.704479
-1.180127 1.615968 1.025326
-2.380587 0.580336 2.198677
1.921531 1.150115 1.494718
0.812962 -0.391258 0.203340
1.457701 -1.636322 1.269725
-0.972099 1.174021 0.441558
-0.335734 -1.509105 0.591803
-1.366432 0.820187 0.559649
-1.571509 1.929779 1.957020
0.949011 0.441223 0.181326
2.334629 0.263269 1.984164
0.093280 -0.042183 -0.058635
1.356704 1.462577 0.800912
-0.070330 1.992157 1.089739
-0.368832 -2.033806 1.185604
-1.950707 0.001172 0.928751
1.516275 -1.470168 0.998383
0.183445 -2.320695 1.976786
-0.157939 1.339949 0.243510
-0.028120 0.194849 0.024496
1.166254 1.126363 0.486139
-0.598965 -0.685149 0.202735
-0.675344 2.108688 1.163666
-0.700326 1.269848 0.537396
1.454526 -1.126354 0.783109
-1.012651 -1.541996 0.919674
0.198446 0.104978 0.073179
-0.327468 0.381193 -0.055979
-1.569701 -0.846521 0.652183
-0.337849 0.728093 0.149018
-0.371212 0.027983 0.038977
0.193561 0.319139 0.016068
-0.045742 -2.456443 2.135882
0.382474 0.838773 0.110374
-0.116532 -1.437419 0.466561
-2.012721 -1.103504 1.877939
-1.179498 0.050239 0.279817
1.717154 1.733923 1.856259
-0.330458 -0.244197 0.025830
-0.295213 -2.492189 2.409903
1.191167 2.194582 2.304240
-0.711079 -2.478214 2.458245
0.386302 -0.957199 0.137484
2.432364 0.842077 2.023623
0.383192 1.199980 0.402343
1.974797 1.548580 1.941885
-2.386742 -0.695765 2.449626
0.073498 0.039376 -0.022302
-0.007217 -1.292583 0.245922
-0.956914 -0.347280 0.255746
-0.960427 -2.263636 2.477174
-1.771029 0.081684 0.739826
2.187376 -1.157239 2.035947
0.119703 0.037967 -0.066495
-1.148881 -1.819351 1.075100
-1.116700 -0.033761 0.258368
-1.268270 -0.954412 0.650572
0.182856 -0.074582 -0.040086
-0.227268 -1.290847 0.367855
-0.741261 1.201936 0.501349
-0.453857 -2.206734 1.253504
-1.157280 0.339689 0.271227
0.377583 0.782410 0.271226
0.342102 2.173493 1.160894
0.064117 1.786347 0.739548
-0.075438 0.116511 0.073557
1.383521 -0.177174 0.380245
-1.192130 2.121461 1.998950
0.700259 -2.428043 2.362002
-1.150622 -1.588810 0.963620
-1.517113 1.104771 0.689911
-0.981971 1.131665 0.396867
-0.017589 0.682703 0.101084
-1.603376 0.202793 0.543364
-0.850966 0.697951 0.220049
-0.453086 2.387898 2.088040
-1.507290 1.055602 0.789673
1.539088 -2.033325 2.083595
-1.006334 -0.324278 0.151991
-1.064140 -2.163143 1.970214
2.351076 -0.443623 1.631334
-2.519721 -0.224339 2.481001
1.654945 -1.215283 1.132530
0.572345 -2.109523 1.324135
1.337016 0.545392 0.521896
0.646501 1.309140 0.633714
-1.291716 0.181233 0.320741
2.347844 0.536100 1.703448
-1.872700 -1.448273 2.018150
-0.480773 -0.284336 0.005743
-2.266307 -1.341541 2.289591
-0.042997 0.082119 0.064735
0.083987 -0.433982 0.074163
0.409659 0.251008 0.084042
-0.370415 1.291264 1.997523
2.818049 -2.134772 3.487495
-2.591485 1.626914 1.923367
-3.170370 1.481288 -0.134971
-1.540729 2.943664 2.376971
0.031143 -0.243575 1.988508
-0.113613 0.875355 1.874485
-0.444595 -0.551196 2.183367
3.110171 3.349401 0.538988
-2.946520 0.274422 2.532160
-2.023074 0.657994 -0.087869
-3.244913 -3.155324 2.670453
-1.991495 -2.421791 1.018105
0.995825 2.148662 -0.727313
2.743799 2.919318 0.277282
-2.840210 2.487955 0.334326
2.101208 -1.553319 0.904965
-3.373012 0.976616 0.974721
2.379109 3.397234 2.111868
-2.113484 -1.841232 3.094371
1.329438 2.327119 1.479264
-1.630880 0.252089 3.029866
3.449934 1.490961 1.682120
-3.028482 1.868881 -0.933201
-2.741312 -3.110337 -0.222888
1.418020 1.033750 0.808631
0.709689 0.935972 0.387229
-2.305888 0.657569 0.599826
-0.701535 3.099812 2.898119
-1.175227 -1.003079 -0.819224
2.472910 1.454981 -0.983406
3.272956 3.080316 1.567338
2.024624 -2.345119 3.395070
-1.496788 1.600744 -0.209102
-0.324392 -2.188877 2.866023
-0.596672 0.822540 0.063993
3.403132 3.057926 -0.851968
-2.730333 0.917557 1.876706
-1.351115 -0.475905 2.866466
-0.312845 2.124181 0.070330
-0.203758 1.056287 0.146549
0.486573 -0.146005 -0.227174
0.980237 0.718655 -0.770404
-0.005513 2.515227 0.215863
3.351428 1.948178 0.376199
-1.414531 1.730637 -0.090091
0.207143 0.772430 0.441407
1.991090 -0.092436 1.783894
-0.471499 -3.207092 0.063910
2.124398 1.015248 2.192774
1.772613 1.520725 -0.258350
-2.422006 -2.322425 -0.469495
1.897673 1.424670 3.130814
-2.966358 2.552298 0.264983
1.433668 3.301071 2.036272
-3.402378 -0.038230 -0.770211
-2.993338 -0.638805 -0.063649
1.606435 3.149056 -0.844496
-0.373669 -2.721602 -0.415684
2.723150 -3.394835 -0.089290
2.420282 1.007017 0.420927
3.470588 -3.489774 2.374162
-0.469078 -0.148522 2.289412
-0.055402 1.541512 0.932755
2.566940 -1.342889 -0.160824
-1.226136 0.594915 1.360505
3.405142 -3.381529 3.250372
3.406820 -2.687700 1.197920
-1.146815 -3.125841 1.642438
2.011994 1.155555 2.454476
2.771108 1.056364 0.130531
2.508401 1.680845 1.665838
0.706888 -1.711587 0.133663
0.652215 2.636196 2.432571
-0.003320 -1.762977 3.158406
