ply
format ascii 1.0
element vertex 1050
property float x
property float y
property float z
end_header
0.166127 0.600724 -1.837762
-1.436215 1.104742 -1.008343
0.969989 -1.734077 0.200111
-0.997359 1.422956 -0.916625
-1.945675 0.182969 -0.291510
-0.201595 1.569217 1.256809
-0.593621 1.866921 0.350410
1.742293 -0.513980 -0.974244
1.620304 1.085232 -0.137617
1.069336 -1.580266 -0.842502
-1.110259 1.610204 0.387754
-0.381718 1.168168 1.666541
0.296810 0.443840 -1.887834
0.591335 -0.509139 -1.848781
0.076207 -0.171192 -1.941463
0.423996 0.414416 -1.889788
-1.780992 -0.198303 -0.881476
-0.940902 -0.723885 -1.665481
-0.277825 -1.701665 1.070520
-0.854824 0.005675 1.823444
-0.132689 1.981177 -0.426285
0.546826 -1.422961 -1.305464
0.890406 -0.124231 -1.758520
-0.010139 -0.851671 -1.859275
1.063866 -1.137126 1.178061
-0.780308 1.091733 -1.456949
0.424866 0.383213 1.913850
0.255269 2.017104 0.035433
0.948993 -1.691650 -0.486222
-0.543019 -1.720002 0.832344
-0.171896 0.242508 -1.868159
1.075984 1.059380 -1.425124
-0.001019 0.809109 -1.814554
-1.461468 -1.394222 -0.189856
0.110439 -1.951130 -0.188166
1.479451 1.255245 0.207777
-0.991306 0.426048 -1.688791
-0.792396 1.258513 1.400957
-1.302331 0.388952 -1.450624
0.425268 -1.839004 -0.545120
-0.043434 0.328114 -1.993697
1.311942 -0.028156 -1.520028
-0.432999 0.157519 2.005154
1.084269 -0.103739 -1.689905
1.956329 0.014994 -0.623649
-1.130038 -0.505149 -1.498521
0.846231 1.735586 0.671688
-1.448197 0.060060 -1.395846
1.538279 -0.884540 -0.908779
1.640334 0.917861 -0.857660
-0.123298 -0.580919 1.955490
-0.211433 -1.077526 -1.750605
0.958337 -1.467539 1.013363
0.549978 0.928658 1.652753
0.414956 -0.200253 1.946737
0.050867 0.079413 -1.992865
-0.430088 -0.934020 -1.750124
0.679295 0.699257 -1.767172
-1.895429 -0.634804 -0.165100
-0.390775 -0.026110 -1.930651
-1.792507 -0.071594 -0.893016
0.475639 0.304476 -1.801054
1.950361 0.567131 -0.244324
-0.717060 -1.232805 1.393275
2.031879 0.047880 0.185029
1.814714 0.703871 -0.541966
-0.645987 -0.064349 -1.934100
1.064083 -1.570962 -0.505564
-1.037117 0.670541 1.529466
-1.566791 0.986793 0.467440
-0.829603 0.076382 1.905510
0.148261 -0.216121 -1.917461
1.816876 -0.457982 0.672156
-1.117731 -1.492422 0.600179
-0.164356 -1.662175 1.222154
-0.486175 -1.232233 1.490840
-1.481887 0.670068 1.145227
1.794985 -0.889979 0.029486
0.006150 -0.014016 1.944179
-0.950277 1.749376 -0.043420
-1.893215 -0.413967 0.274735
0.368270 -0.160370 1.876822
1.607101 1.171580 0.440026
0.084554 0.220431 1.953752
-1.649064 -1.106942 0.579645
-1.044554 -1.363779 -1.120654
0.038692 0.098424 2.002660
-0.696885 -0.363040 1.808017
-0.573184 0.475875 1.891643
-0.973127 0.231030 -1.676366
-0.982068 -0.878364 1.380399
0.065079 -0.096288 1.960666
-1.617333 0.752821 -0.673787
-0.385844 -1.692501 -0.934351
0.360416 1.709087 0.928742
-0.689858 1.358878 -1.206111
-1.069218 -0.883183 1.435491
0.229614 -0.144335 -1.954214
1.114949 1.529657 -0.417996
0.023602 -1.251618 -1.574117
1.128317 0.875636 -1.367146
0.505385 -0.639595 1.804443
1.588173 -0.691357 1.095960
-1.765318 -0.446138 -0.449587
-0.657620 1.810023 -0.565924
0.239742 0.026480 1.989593
1.038052 -0.463121 -1.626463
1.014691 -1.052906 1.405838
-0.465120 -0.287200 1.914656
1.294109 -0.923675 -1.129377
0.394451 -0.523331 -1.853295
-0.824481 0.509001 1.817120
0.205785 -1.855477 -0.698123
-0.152123 0.037805 -2.024693
0.284470 0.032048 -2.002332
-0.785859 -0.356355 1.797632
-0.280597 0.395759 1.904427
0.939124 -0.909943 1.508562
-1.525362 1.000517 -0.643788
1.649524 0.645596 0.679913
0.965477 1.284619 1.013965
-0.039102 -0.012724 -2.009698
1.580488 -1.109410 -0.606932
-1.504885 -1.219819 0.157453
-0.851716 1.757416 -0.051247
0.168669 -1.934496 -0.250907
0.257923 -1.556756 -1.286334
-0.062774 -1.745371 1.071614
-1.198922 0.619774 -1.423021
0.257915 -0.175794 -2.028571
0.747549 -0.651111 -1.776888
-0.952698 -1.577538 -0.838084
-1.222419 -1.147000 1.096772
1.032400 -1.252431 1.034917
1.464368 -0.083865 1.453067
1.622156 0.598726 -0.798379
-0.498352 1.234474 -1.519104
0.274673 1.979262 -0.165861
-0.297506 -1.987530 -0.306775
1.182453 0.205719 1.615285
-0.520879 -0.046449 1.947733
-1.317301 -0.429894 -1.442038
0.630350 0.851229 -1.711909
1.987218 -0.610874 -0.704931
1.153923 -0.458645 1.623660
-0.290095 -0.351569 1.955201
0.959576 1.415206 1.104215
-1.241045 1.454502 0.439475
0.750719 -1.589572 -0.838246
1.038714 1.469211 0.780963
1.102897 1.522273 0.784228
0.355992 -0.802163 -1.791828
1.626197 -0.908148 -0.656802
-0.180334 -1.158704 1.543977
1.043453 -0.191864 1.639835
0.053856 0.932898 1.700466
1.058337 0.132881 -1.683997
1.795176 -0.806298 -0.092691
1.456676 -0.822895 -1.117299
-1.124945 -1.573822 -0.182874
-0.016687 0.045140 -1.991822
0.356103 0.048900 -1.939524
-1.116539 0.386884 -1.534184
-0.494984 -0.269305 1.834501
-0.345342 -0.930008 -1.748850
-0.064223 0.069893 -2.024356
1.874040 -0.160706 0.683140
1.114011 1.124152 1.294450
0.375991 1.966934 0.175414
0.547806 0.588945 -1.832223
0.231515 -0.033685 2.016537
1.221972 -0.209492 -1.512292
0.065055 1.087848 -1.738303
0.965515 -1.523553 0.761416
-0.914693 1.429244 1.015313
-0.048433 0.222202 -2.006691
0.703070 0.165806 1.961488
-0.107821 1.965003 0.045971
-0.643113 -1.575489 1.154372
-1.450785 -0.650852 1.077588
-1.090269 -1.677822 0.224627
1.483113 1.255240 0.427938
-1.005874 -1.586564 -0.507933
-1.367842 -1.486633 0.252343
1.227345 -0.228895 1.509024
-1.174640 -1.294677 -1.089345
0.065442 1.675128 0.722076
0.233345 -0.263761 2.065574
-2.040253 -0.015759 -0.032887
-1.455886 0.014125 1.348442
-0.459323 1.352439 -1.367975
0.788320 -1.557204 -1.000538
-0.619939 -1.764836 -0.689419
-0.303279 0.112095 -1.964363
0.532775 -1.569618 1.190219
-0.003071 -0.040931 -1.995134
0.914281 -0.935443 1.464724
0.633704 1.195676 -1.495577
1.360300 -0.197496 1.520902
-2.026469 -0.281920 -0.224244
1.513807 -0.904987 -0.789534
1.959649 0.384377 0.303123
1.892997 0.481395 0.244659
-0.917127 1.150811 1.395242
1.108755 -0.900539 1.354373
-0.047881 0.150935 1.901446
0.889707 1.320613 -1.299588
0.618022 0.266776 1.908455
1.929260 -0.209420 -0.480685
0.705533 1.664047 0.622797
-0.408492 1.193345 1.704745
-0.314863 0.496828 -1.898034
0.060274 -0.089028 -1.981230
-0.662828 0.630194 -1.720782
0.130787 1.491304 -1.338018
-0.139155 -1.312721 -1.613394
1.127341 -0.503586 1.567408
-0.960899 0.162144 1.849703
-0.411790 1.237118 1.388899
0.488565 0.959809 -1.677618
1.394118 0.451646 -1.414181
-1.693078 0.588386 -0.984412
-0.212307 -0.336648 -1.943772
0.099983 1.808117 0.910388
0.035342 0.085943 -1.985387
0.797121 -0.387088 -1.838622
-0.193530 -0.037414 -2.081608
-1.072819 -1.405459 -0.887725
-0.701945 1.575375 -0.914273
-0.229984 -1.150196 -1.716360
0.099667 -1.381217 -1.443909
0.506337 -1.345450 -1.389843
-0.036491 1.697612 -0.938903
-0.646826 -0.390017 -1.896943
1.151187 1.574493 0.667942
1.772121 1.018472 -0.122863
0.317343 -0.953548 -1.666511
0.839948 -1.085812 1.467986
-1.026545 -0.059085 1.737392
0.384087 -1.008930 -1.705912
-0.891394 0.242250 1.773914
-0.836315 0.641850 1.724452
-0.065452 0.017988 -1.940002
-0.492622 -1.643042 1.078335
-1.316433 -0.679124 1.465747
-0.222331 -0.250925 -1.973242
-1.028869 1.617220 -0.743203
0.053151 1.885244 0.683821
-0.667937 0.417067 -1.834293
-0.326268 -0.852563 -1.853397
0.106901 -1.320775 1.615067
0.181723 0.113598 2.022957
1.118572 -0.648477 1.503484
0.293972 -1.304708 1.392265
0.988992 1.130876 1.339655
-0.677167 0.423516 -1.877529
-0.525786 1.897303 -0.475422
-0.946594 0.400418 1.785061
0.500822 1.805416 0.427596
-0.111490 -1.220869 1.548733
-1.350314 -0.124893 -1.457479
0.768292 -1.785022 0.603369
0.656968 0.959331 -1.606403
-1.753253 -0.455871 0.777094
-1.618431 -0.450519 -1.092662
-0.017250 0.392122 -1.886197
0.525562 -0.697878 -1.786652
-0.581434 0.049193 1.884523
-0.011992 -0.116036 -1.863332
-0.093422 1.475045 1.461898
1.790662 -0.903264 -0.235983
0.981111 1.726879 0.613110
-1.539409 0.094805 1.267956
-0.405780 0.411699 1.909611
-0.417660 -0.406599 -1.967745
0.162199 -0.308206 1.875529
0.263878 1.951910 -0.135295
0.832460 -0.501027 -1.692951
-0.377755 -1.695550 -1.012319
1.088175 1.067611 -1.257510
0.035375 -0.104992 1.947396
0.428430 0.250564 -1.923670
-0.632322 -1.210568 1.455347
-0.468168 -1.891850 0.206043
1.830041 0.191461 -0.852288
-0.199308 0.276996 -1.981027
-0.529786 -1.313904 -1.324849
-0.541541 0.844858 1.701912
-0.742220 1.436888 -1.161747
-1.600247 1.229097 0.242329
1.378958 1.368839 0.268186
1.176645 -0.144467 1.689931
0.330879 -1.111214 1.649143
-0.308408 -1.937829 0.095295
-1.850934 -0.662174 -0.544068
-1.660310 -0.924073 0.215822
-0.157855 0.126336 -1.987227
0.325138 -0.665180 1.799176
-1.148921 -1.613895 0.284486
1.540103 -1.087860 0.114763
-1.128188 -1.636914 -0.379684
-0.388869 1.530649 -1.086788
0.177140 0.965343 1.775209
-1.170658 -0.313081 -1.464851
1.389443 -1.328749 0.399943
-1.267154 1.052059 1.226075
1.238488 0.707785 1.424000
0.045992 1.768041 0.946744
1.031842 1.008522 -1.399875
-1.519905 1.318218 -0.200781
-0.494504 1.935039 0.337075
-1.765597 -0.091258 -0.895714
-1.570871 0.504899 1.224153
0.370716 -0.858419 -1.802418
0.103694 0.799958 1.824327
1.602413 -0.233121 1.183684
1.952671 -0.073062 -0.272879
-0.110382 -0.112319 1.900337
0.117545 -0.310501 1.917245
-1.976912 0.187266 0.003085
1.551965 0.268985 1.344406
0.505455 1.092901 1.596667
-0.963205 1.221907 1.173976
1.724261 -0.862107 -0.491324
0.180276 -0.275549 2.011297
-1.267903 -0.918733 1.331571
-0.197563 -0.022854 -2.053216
-1.657905 0.618516 1.045575
1.329039 -1.335040 0.624593
-0.874375 -1.619213 -0.669758
-0.864203 1.659834 -0.706981
-1.689738 -0.981578 -0.291821
1.973618 0.333132 -0.164526
-0.057561 2.013986 0.194259
-1.974834 -0.033173 0.555370
-0.283948 0.355550 -1.934877
1.575698 -1.036149 0.820552
0.116540 1.003168 -1.744359
0.749810 1.346358 -1.194585
0.153529 -0.864213 1.767455
0.801348 -1.213707 -1.310164
-0.106298 1.979618 -0.076501
-2.010405 -0.261056 0.338394
0.324891 0.415123 1.892133
-0.697445 -0.659600 -1.712970
-0.515544 -1.919177 0.704528
-1.113634 0.228862 1.671891
-1.862642 -0.486172 0.496692
-0.298667 1.250613 1.576015
1.755569 -0.706545 -0.810199
-1.548329 0.101531 1.040216
1.801292 -0.597930 -0.026233
-1.467283 -1.367938 0.014972
-1.624739 0.731786 -0.999543
0.704584 -0.156126 1.925738
-0.891160 -1.696362 -0.640810
-0.865314 0.719144 1.680435
-0.751075 1.826451 -0.142946
0.068679 -0.570308 1.935421
-1.825304 -0.079881 0.711665
1.323800 -0.426069 1.470480
1.175985 0.264758 -1.438106
0.568743 -0.298710 1.935238
0.348665 0.100612 1.995695
0.442601 -0.205057 1.897614
-1.333740 -0.994249 -1.215435
-1.150945 0.543045 -1.671564
1.654804 -0.963063 0.665538
0.816118 -0.962133 1.496917
-0.126005 -1.276129 -1.541964
0.199181 0.996730 1.774770
0.036169 2.002422 -0.347432
1.231930 -1.478040 0.059690
-0.783472 0.600606 -1.731930
-0.312691 1.015671 1.718318
-0.615835 1.704788 0.908966
1.160906 0.721309 -1.470630
-1.388102 -1.147976 -0.748022
0.707961 -0.402406 -1.813989
-0.113616 1.316457 -1.401551
-0.036099 -0.737494 -1.945260
0.975758 -0.051262 1.676620
0.665273 -1.628365 -0.910280
0.053831 -0.021228 -1.978796
1.026721 -0.773537 1.482318
1.448312 -0.118334 1.338313
0.709921 -0.335033 1.805900
1.382997 1.469284 0.465781
0.364018 -0.174211 1.911799
0.092719 -0.632942 -1.891274
0.114216 0.004444 -2.001299
0.105373 0.193857 -1.988697
-1.236623 0.696104 -1.337373
-0.169013 2.000620 0.326022
0.598993 0.843114 1.731858
0.789394 0.677877 -1.651986
0.009567 -0.215594 -2.024813
-0.438516 1.297085 1.639317
-0.693881 0.060984 1.989249
1.439000 1.241334 -0.173691
0.764501 -1.612699 0.826076
0.133021 -1.910340 -0.789030
1.040446 -1.432918 1.017143
-0.888884 -1.695601 0.788849
1.272485 0.713374 -1.301000
-1.258759 0.208732 1.564383
0.875950 0.884607 1.428487
1.789698 -0.051918 1.182065
-1.723337 1.005588 0.267636
-1.438208 -1.365864 0.121321
0.997742 0.724159 1.571476
-1.053869 -0.713766 -1.540913
1.236495 -0.565137 1.482364
0.927388 -1.146951 -1.343729
1.421314 1.253009 -0.299462
-1.103894 0.081608 -1.715123
0.619711 -1.562400 -1.070759
1.514533 0.220933 -1.303118
-0.512961 -0.568886 1.788966
-1.588129 -0.912035 -0.669601
-1.802357 -0.283577 0.661080
0.715167 -0.020051 1.815172
-0.020933 -0.341631 1.986504
-0.269637 -0.449825 1.972477
-1.256346 -1.106918 1.128986
-0.919669 0.748769 -1.544775
0.471168 -1.007642 1.693873
0.320169 0.064677 -1.866399
-0.323078 0.283752 1.997527
-1.041772 -0.262645 -1.748653
-0.698680 -0.373893 1.881807
-1.033788 1.575579 0.689677
-0.459481 -1.249752 -1.407971
-0.192610 0.844833 -1.816799
-0.932400 -0.741163 1.600583
-0.946543 -1.824372 0.056923
1.894997 -0.031541 0.633980
0.521811 -1.158431 -1.609766
-1.330727 -0.515966 1.458983
-0.089075 -0.155264 -1.954901
-0.293507 -1.929230 0.252694
-1.285863 -0.756871 -1.314534
-0.428646 0.962418 1.696891
-0.120546 0.665726 -1.992909
-1.064205 0.953549 -1.488399
1.017737 -1.108736 -1.313789
0.800750 1.262873 -1.238112
1.124544 -1.677071 -0.098200
-0.190399 -0.402717 -1.877598
1.439302 0.105764 1.431155
0.722161 -0.775595 -1.768422
-1.332831 -0.057043 1.480838
0.335045 -0.262420 -1.912224
-1.110246 -0.492352 1.524403
-0.781090 1.781681 -0.319615
0.364720 0.116847 1.960056
1.387845 -0.143968 1.292473
0.163662 -1.716356 -0.922189
-0.402208 -1.779478 -0.752836
-0.841456 -1.794383 0.494812
-1.091566 0.929130 -1.440155
-0.371337 -0.665365 -1.821593
-0.470255 1.998771 0.175650
0.196234 0.005005 1.938872
-0.288045 1.899381 -0.591783
1.354677 1.462161 0.472947
-0.824265 0.413118 -1.697347
0.020432 0.878580 -1.771416
1.212472 -0.417367 1.497497
-0.329912 -0.298870 2.019892
-0.170073 1.049486 1.695049
-0.276123 -0.150080 -1.890388
-1.255589 -1.505324 -0.067863
-0.825216 1.761885 -0.383875
-1.969336 -0.344933 -0.418067
1.305226 0.046646 1.612691
1.012254 0.407632 -1.743295
-1.399106 1.008572 -1.079649
1.212720 0.633730 -1.460099
0.604643 -1.840136 -0.125161
-0.425992 -1.364451 1.329972
-1.803948 0.415738 0.730529
0.280753 -0.447563 -1.964944
0.460708 0.624035 1.863863
-0.224116 0.448209 -1.913275
0.513395 -1.179368 1.582798
0.803200 -0.170441 -1.962597
1.026486 0.323866 -1.697646
0.657906 0.702173 1.801676
0.884501 0.363031 1.684289
1.603612 1.117431 -0.567876
-0.541063 -0.186762 -1.959996
-1.462855 1.116704 0.904708
1.405979 1.467588 -0.553460
-1.594352 1.147140 0.143571
-0.845796 -1.031525 1.402904
0.391275 0.718468 -1.826568
-1.353490 1.490808 -0.376738
-0.046048 -0.438821 -1.960837
-0.112210 0.237204 1.919625
-1.027601 -0.275928 -1.584992
1.788901 -0.201434 -0.878924
0.600364 0.058344 1.922849
-0.365333 1.538324 -1.250190
-0.060637 0.031308 1.957322
0.297202 -1.827928 -0.664793
-1.185441 -0.425064 1.551890
0.526706 -1.424322 1.180971
-0.501624 1.509625 -1.224761
-1.251796 0.463534 1.476880
0.264192 0.990480 -1.728861
1.280083 -0.310097 -1.586867
1.849066 -0.428027 0.469769
0.474892 -0.431578 1.886229
1.704375 -1.071007 -0.359888
0.830583 0.538800 1.644530
1.403629 -1.218623 0.672217
-0.652642 0.699396 1.729813
-1.244234 0.759246 -1.245338
-0.634739 -0.839701 1.708198
-0.263348 0.388439 1.819217
-0.177299 -0.526263 2.032929
1.007498 0.932817 1.465249
0.448819 1.426313 -1.344855
0.387080 -0.332826 -1.957776
-0.657490 -0.864799 -1.781855
-0.803103 0.837910 1.606274
0.598564 0.957772 1.567185
0.762959 -0.780745 1.730246
0.784828 1.129945 1.298840
0.262409 0.298646 1.935454
1.351766 0.313966 1.347307
0.006187 0.552590 -1.908601
-1.873587 0.150347 0.798306
0.783322 -0.971691 1.554776
0.269048 0.057000 -1.953589
0.285856 0.845012 1.811984
0.555418 1.175249 -1.624958
-0.256444 -0.759194 -1.866895
1.198792 1.501684 -0.686537
0.434490 -2.003418 -0.200995
-0.449292 0.515834 1.964411
0.116592 0.635512 2.020838
0.452007 -0.588638 -1.813171
1.328411 -1.465088 0.387815
0.118074 -0.107921 -2.107604
0.201776 0.234541 2.004563
-0.518950 1.168854 -1.682752
-0.068125 0.123965 -1.911267
-0.725567 -0.200262 1.871507
-1.732621 0.834268 0.730829
0.040237 1.928378 0.312569
0.630386 1.863750 -0.411698
-0.347805 1.887882 -0.734006
-0.663559 1.299315 -1.233340
-1.998176 0.073713 -0.045702
-0.050535 -0.856122 -1.866164
0.819562 -1.104234 1.486484
1.489092 1.034586 0.842560
0.222552 -0.269817 2.006462
-1.866453 -0.386095 -0.515309
1.717694 -0.114674 -1.030576
-1.721853 0.676728 -0.802462
-0.052638 -1.864515 -0.875119
-1.877772 -0.007066 0.785969
-1.725277 0.856732 0.611298
1.735845 -0.432428 -0.742538
-1.343924 -0.414442 -1.415001
-0.401948 0.305167 1.978285
0.441658 -0.308303 1.905637
-0.117168 -0.147050 1.861899
-0.159350 -1.036662 -1.543665
1.051448 -1.641773 -0.045478
-0.026833 0.963972 1.714059
-0.791739 1.030068 1.494548
-1.660304 -0.633541 -0.951818
-0.640863 -0.572148 1.800835
0.599797 -0.570792 -1.844581
0.010439 0.333342 1.950860
-1.165138 1.504437 -0.702680
-0.427085 -0.231695 1.970056
-0.096742 -0.246669 -1.964806
-0.143852 -1.691528 -0.975139
-0.778425 0.812076 -1.496369
0.494999 1.613312 1.099067
-1.369759 1.136438 -0.794738
0.240463 1.974875 0.129667
0.206748 1.820747 0.680511
0.064255 -0.130159 -2.007791
0.792082 1.538663 1.017129
1.160971 -0.364553 -1.512709
-0.421380 1.839466 0.369532
-0.941522 -0.669944 1.631311
0.360346 0.039979 -1.956057
-1.478316 -0.686445 -1.278430
0.645027 1.870133 -0.399985
-0.237337 -1.292961 -1.398966
-0.954245 -1.628556 0.930632
0.804820 0.929420 1.558355
-1.892483 0.622126 0.348074
-0.841886 0.764813 -1.635058
0.107324 -0.213638 -1.974259
-0.266881 -0.288811 -1.909377
0.631160 0.264057 1.888111
-1.261774 -1.541167 0.558204
1.611620 0.577909 -1.119210
-1.342844 -0.617954 -1.271563
1.554093 0.764137 -0.992950
-0.171129 1.157413 -1.681063
-0.966749 0.053377 -1.675169
0.146204 0.013756 2.001612
-0.237812 -1.945887 -0.293950
-1.413207 -0.079354 -1.340430
0.671586 -0.010575 1.863687
0.403096 1.844749 0.682594
0.357217 -0.787286 -1.938361
-0.801827 0.336790 1.865479
-0.591388 -0.158975 1.932925
-0.014994 -0.470267 -2.011227
1.281590 -0.921517 1.170800
0.108173 -1.451104 -1.448278
1.581694 1.409489 -0.461883
1.333587 0.992897 -1.147020
1.064801 1.538992 -0.608710
0.064236 -0.091644 2.082416
1.366584 0.187844 1.506144
-1.144279 0.449925 1.726770
0.182839 -0.310850 2.003541
-0.166105 -0.354645 -1.913242
0.919460 -0.803018 -1.504544
1.724742 0.606817 -0.581430
-1.297295 -0.839376 -1.286509
-0.925044 -0.760564 1.637768
1.412273 1.369146 0.475523
0.121943 0.075173 2.013555
0.388996 -1.951295 0.344025
1.935006 -0.466726 -0.410084
-1.410752 -1.209102 0.305654
-0.965924 -0.737568 1.523200
2.014406 0.122742 0.506102
0.551860 -0.128294 -1.903254
0.347232 -1.885500 0.583240
0.940383 -0.251740 1.754668
0.581575 1.359928 1.173806
-1.191655 0.260645 1.489990
-0.299189 -1.836707 -0.773849
0.608218 1.861402 0.704465
-0.051731 -1.523577 1.206601
-1.279534 1.019688 -1.204797
-0.993143 1.036173 -1.378206
0.723575 1.665153 0.922140
-0.659815 -0.440948 -1.956758
1.820302 0.113596 1.002166
0.025762 0.339464 -1.874092
-0.124745 0.226841 -1.945959
-0.209313 -0.449037 -1.922650
-1.538336 0.947853 -0.783657
-0.193484 -0.797455 -1.756822
0.829591 1.203333 -1.362161
-1.306694 -1.310902 -0.507064
-1.544876 1.218065 -0.431737
0.356184 -0.104159 -1.891883
-0.145725 -0.029419 1.992783
0.247212 -0.104455 1.993262
0.562249 -0.253000 1.890136
1.854324 0.381887 0.662368
-1.068003 1.345933 -1.064426
-0.274083 0.545150 1.894751
-0.128385 1.365843 -1.543443
-0.872487 -1.494909 0.965876
-1.357143 0.502641 1.246303
0.139480 -1.976007 -0.367106
-0.052218 0.240127 1.941295
-0.718768 1.850301 0.188463
-0.315905 -0.640316 -1.901197
0.321575 0.187278 1.926345
-0.470200 -0.796724 1.771355
-1.888042 0.734678 0.018694
-0.055406 0.105797 2.027161
-0.658331 1.885948 -0.042379
-1.338362 1.436669 0.302691
-0.125789 0.357744 1.873034
-0.760534 0.370906 -1.751972
-1.405938 1.291227 -0.347806
0.844770 1.008154 -1.613413
0.455258 1.899202 0.499552
-1.062595 -0.972633 1.363681
0.446705 0.471547 1.891047
1.052258 -1.395878 1.005279
-0.625196 -1.621341 -1.089552
-0.320081 1.706184 1.006802
0.779891 -1.885194 -0.152297
0.461127 -1.954524 -0.286857
1.638665 -0.124734 -1.009580
-0.276169 1.166248 1.612894
0.224257 0.132027 -1.973653
0.096983 0.160247 1.983927
0.245308 -1.493156 -1.446999
0.096786 1.087351 1.779854
-0.949032 -1.646365 -0.809397
-0.423285 -0.280260 -1.925194
-0.566145 -0.968342 1.642427
-1.605415 0.125993 -1.396544
-0.499560 1.103574 1.568797
0.783308 0.375391 1.782902
1.535968 0.324464 1.285316
0.083529 -0.165063 1.941155
1.129858 1.537252 -0.621877
-1.507664 0.906046 -0.954720
-0.072235 -0.115352 -2.019862
-0.308784 1.238572 1.580941
-1.311395 -0.999662 -0.989697
0.244484 0.727487 1.897414
-1.429814 1.294720 0.700737
-0.851801 -0.241429 1.790448
0.081544 -1.836443 0.824615
-1.696545 -0.415879 -0.990497
-0.036792 0.243454 1.995452
-1.039619 0.123104 -1.721301
0.448688 0.857604 -1.847713
-0.001375 -0.030066 2.086401
-1.120498 -0.476301 1.543792
1.076990 1.527244 -0.641627
0.186733 1.001786 1.732233
0.514814 -1.516188 -1.160998
-1.834399 -0.531436 0.730481
0.107893 0.088899 -1.969902
0.872356 1.140496 1.445097
1.138194 -1.067312 -1.212639
0.015022 -0.126971 2.016287
-0.714035 1.369992 1.198167
0.130465 -0.069798 -1.976308
0.353730 1.962974 0.567202
0.816236 -1.772867 0.593269
-0.449823 0.122174 -1.934446
1.375051 -0.291662 1.427711
-1.696152 0.779493 -0.721963
-0.320524 -1.886674 -0.539589
1.511408 -0.296019 1.268359
1.168938 -0.714862 1.504550
1.977447 -0.422716 -0.609853
0.772263 -0.764981 1.721847
-1.369085 1.309111 0.028477
1.582880 1.204930 -0.074780
-0.064460 1.667285 -1.058106
-1.397256 -0.166677 1.397475
-0.837574 -0.194085 -1.861336
-0.847155 -1.605110 0.812650
-1.812451 -0.469658 0.855412
-1.788188 -0.405046 0.939467
-0.404661 -1.383848 1.400105
-0.271646 1.730461 -1.042399
1.958106 0.269587 0.113053
-0.682213 -0.408125 -1.878577
1.279439 -0.687709 -1.201606
-0.432033 0.027674 2.019410
-0.135164 0.427715 -1.939325
-1.272213 -1.527615 0.400556
-0.420835 0.839739 1.758849
0.776462 1.054576 1.517074
-1.948551 0.178276 -0.256380
-0.103191 0.105449 2.016097
0.004856 0.031554 2.047804
-0.077059 0.051246 -1.998945
-1.003242 -0.443344 1.682102
-1.637837 -0.963486 0.670855
-1.152260 -1.372596 1.130120
-0.196735 -0.010192 -2.061611
-0.247184 -0.010036 -1.992297
0.906245 0.624947 1.694546
-0.194417 -1.610486 -1.074260
0.080178 -0.038886 -2.041033
0.374898 0.764676 1.813796
-0.522981 0.361432 1.960906
-1.909631 -0.353110 0.298247
0.518630 -1.344309 1.279789
-0.780775 -1.837097 -0.600609
1.389723 0.959087 0.925062
1.757577 0.795405 0.199258
-0.673765 1.638342 -1.008663
1.129848 -1.001784 1.298970
-1.846194 0.277197 0.841670
-1.144446 1.175462 1.135928
0.781851 -1.710109 -0.566358
0.039333 -0.204254 1.862150
-0.666152 0.606117 -1.878432
0.513340 1.461725 -1.238931
0.000361 -0.305879 -1.961263
0.613445 -1.509862 1.219070
1.644620 1.209209 0.121767
-0.059711 1.596029 1.122935
-1.455057 -1.300974 0.220616
0.701916 -0.009444 -1.860082
1.809372 -0.726903 -0.448902
0.349309 1.969979 0.486814
0.039143 -0.122992 1.957888
-0.021287 -0.077049 -2.031496
1.354891 0.190893 -1.376623
0.023814 0.038230 2.077577
0.951199 1.595020 0.818690
0.617434 -0.196915 -1.957104
1.924333 -0.586395 0.095419
-0.169313 0.175794 1.910107
-0.319575 -1.788769 -1.035455
0.169700 0.753715 -1.907413
-0.365292 -1.265267 -1.459913
1.505624 -1.109968 -0.807538
0.753242 1.887331 0.052457
-0.111923 1.943710 -0.499142
-0.751325 0.894189 1.515744
0.171643 -1.149412 -1.667490
0.216273 1.929741 -0.338199
1.450524 -1.269821 -0.570819
-0.386624 -1.024543 -1.629569
1.362657 -1.519692 -0.095442
0.268897 -1.922323 -0.752270
1.480198 0.844043 0.992313
-0.457103 0.367804 -1.893119
0.892325 1.474291 0.930519
-1.783376 -0.344085 0.827073
0.045240 0.124969 -2.001604
0.319615 0.076186 1.949296
-0.041683 -0.064419 1.897240
-1.339421 -0.649232 -1.287364
0.031686 2.002886 -0.380830
-1.352004 1.370174 -0.585023
0.678387 -1.225392 -1.417140
-1.310101 -0.387417 1.410143
0.034710 0.718350 -1.892135
0.876105 1.632510 -0.941065
0.228498 0.166193 -1.923266
0.906921 0.535492 -1.731234
1.264186 -0.670288 1.449239
-0.013764 -0.949151 -1.785391
1.719722 0.101889 -1.017051
0.577815 -0.493470 1.828738
-0.063724 1.469040 -1.428220
0.046606 0.064976 -2.012168
-0.402877 2.016541 -0.018295
-0.041591 1.012275 -1.705423
0.499182 -0.277840 1.917081
0.287767 2.114109 -0.062420
-0.017898 -0.213078 2.008835
-1.191549 -1.373761 -0.916289
1.158220 0.316740 1.605244
-0.062754 0.344149 1.948090
-1.105158 0.816535 1.388001
0.114028 -0.715561 -1.941471
-0.599038 -1.576866 1.076318
1.205379 -0.976127 1.263102
-0.313668 0.080482 1.962039
-0.878205 -1.245854 1.309165
-1.545935 0.212839 1.212599
-1.172717 1.619544 -0.070865
-0.786161 1.764427 0.280570
-0.070216 1.685633 1.090493
0.909186 -1.074131 -1.381438
1.779047 -0.927776 -0.490561
-1.589578 1.184055 -0.316492
-0.788083 -0.990907 -1.543306
-1.389525 -1.236295 0.802987
-1.068227 -1.035957 -1.343571
0.267182 1.040741 -1.725518
-0.459209 0.909238 -1.707018
0.510052 0.902385 1.668905
0.116257 -0.026762 1.976537
-0.560773 -0.540341 1.890712
0.459595 0.401323 1.868351
-0.768023 -0.602744 1.784327
-0.985279 1.320878 -1.068484
-0.311293 0.496835 1.818079
-0.583763 1.869874 0.227667
0.243121 -0.514893 1.862136
2.026614 -0.013986 -0.556726
1.037450 -0.670163 -1.509830
0.009689 0.364337 1.999856
-0.729742 1.042599 1.627611
1.360316 -0.851711 -1.275191
1.689356 -0.814977 -0.857534
0.306095 -1.921638 -0.266452
0.633132 1.259093 -1.379135
-0.264951 -0.200393 1.917270
-0.783833 0.316963 1.865850
-0.867998 -0.733741 -1.676082
0.112205 -0.922003 -1.800374
-1.161961 -1.665475 0.002377
1.334184 0.173068 1.533021
0.103043 -1.596905 -1.147958
0.341339 -0.833367 1.762992
0.700125 -0.176237 1.960534
-0.168629 -1.148714 1.565406
-0.114576 -0.623172 -1.966792
0.230035 1.978063 -0.458039
-0.216534 -1.828372 -0.569095
0.594344 -0.481817 1.876717
-0.125615 0.453050 -1.908393
1.548673 -0.651379 -0.999594
-0.905271 0.202976 -1.677720
0.198492 -2.059548 -0.509825
0.813866 0.189513 1.938503
-0.337747 1.954546 -0.062574
0.328484 -1.971698 0.025819
0.607235 0.152866 -1.834146
-1.695057 -0.405493 1.068472
-0.416188 0.725524 -1.735377
0.180775 -0.844956 1.788540
-0.239352 -0.249866 2.023011
1.011681 -0.887585 1.515570
-1.754286 0.096459 1.055045
-1.299050 1.563296 0.041749
1.631403 -1.153844 0.080706
1.972170 -0.130524 0.432899
0.532351 -0.446727 1.780637
0.858113 0.996908 -1.568977
1.605722 -1.183985 0.546413
0.188392 -1.842141 -0.814893
0.411618 1.701344 -0.781211
0.957457 -0.845519 -1.479087
-0.073800 -0.160112 2.012740
0.061550 0.036191 -1.998909
0.481104 1.785014 -0.448731
-0.305755 -0.323764 1.935042
-1.693238 1.081562 -0.366178
1.693582 -0.056277 -0.953445
0.405645 0.712120 1.722283
-0.983570 -0.708100 1.504913
0.859663 -1.722636 -0.697214
0.803598 0.312645 -1.718780
0.309258 -0.745929 -1.823464
-0.215519 0.252786 -2.003349
1.067170 -1.633355 -0.367516
0.468320 2.033647 -0.286212
0.721125 0.026869 -1.848889
-0.248010 0.145016 -1.980745
0.799278 -0.530459 1.762193
1.298067 0.121502 -1.455793
1.434930 -0.653885 1.276748
0.723110 1.023221 -1.561343
-1.706521 0.819594 0.669080
0.068918 -0.086093 -1.993597
0.970589 1.253873 -1.158770
-0.903230 -0.070624 1.685353
-0.561621 0.157381 1.922768
1.747218 -0.013997 0.965219
0.274761 -0.089476 -1.966910
-0.066522 -0.048926 -1.956935
1.893402 0.327433 0.418797
1.877121 0.464491 -0.385023
1.040241 1.240668 1.166348
0.173167 -1.792172 0.644222
-0.044454 0.827809 -1.819350
-0.264469 -0.549583 -1.865603
-0.259160 -0.169785 1.931930
-1.068610 -0.734100 1.466589
-1.951786 -0.245651 -0.284396
1.612596 1.287283 0.024339
0.124159 -0.099386 -2.026838
1.999758 0.110707 -0.213428
-0.109842 0.045835 -2.012521
1.869519 -0.274304 -0.849907
0.666117 1.029168 -1.543055
0.890332 1.845555 0.157592
0.045925 0.222730 1.963024
0.143892 0.068125 -2.009690
0.116703 0.995953 -1.744876
0.421537 1.243318 -1.424788
-1.321962 1.136998 -1.067482
0.197499 -0.066518 1.966522
0.326470 -0.954857 1.724054
-1.656441 -0.911455 -0.069831
0.036069 0.341075 1.967271
0.710300 -1.819034 -0.667394
1.834454 0.022396 0.608758
-1.692870 -0.246999 0.908070
-0.107537 -0.578701 1.909152
1.069847 0.072264 -1.667463
-0.331398 1.983302 0.011551
-0.624294 -1.062216 -1.551408
1.684667 -0.959739 -0.736765
-0.006611 0.016949 1.922109
1.906625 -0.328230 0.576060
0.614690 -0.264745 1.814833
0.055672 -0.581469 1.940312
0.786939 -1.600152 0.651393
1.304102 -0.434304 1.443368
-0.684806 1.840575 -0.491010
0.275439 1.967900 0.258452
-0.425126 -0.073072 1.936814
0.218455 0.485698 2.000389
0.044797 -1.336906 1.527246
0.092523 -0.056583 1.968700
-1.617203 -1.036226 0.592868
-0.229944 -0.097461 -2.013197
-0.807795 0.000869 1.877975
0.791208 -1.742248 0.723459
-0.312028 -0.334947 1.945260
-0.010197 -0.587969 -1.999061
-0.490156 -0.169287 1.998859
0.525899 -1.268118 1.497504
-0.590110 -1.397557 1.286920
-2.660626 -1.881383 -2.472819
-2.891067 4.673669 4.171581
4.153908 2.484364 3.865183
-0.433237 4.264740 -2.791321
-0.635512 -2.148023 0.964712
4.429596 -1.535279 -3.895972
1.752429 -1.069784 -0.922850
1.718151 -2.891048 -3.526603
0.074298 0.107987 0.003649
2.949207 -3.556820 -4.619314
-2.245342 -2.612295 1.446474
4.956898 -3.981241 -2.590373
1.544538 1.429545 -0.756353
-0.017589 0.501653 2.048304
-4.907865 4.898006 4.189612
-3.527887 -3.661443 -2.773816
-1.898073 -1.661061 -1.387567
-4.987366 -4.491958 -0.227818
2.061474 -1.356552 4.841801
4.000681 3.629749 4.239214
-2.232057 3.563433 -3.400513
-4.652128 3.988108 -3.203982
4.463902 -4.902603 3.500687
4.998054 -2.348806 -2.936469
-2.859705 -3.531373 -0.356899
0.703627 -1.957495 -2.086558
3.534320 0.295967 -1.808012
-2.783225 0.048058 -2.884841
-2.221905 -2.312893 -0.475657
3.626190 2.728786 3.623390
3.943230 -0.323792 2.896724
-4.957987 0.343093 2.651465
4.461313 2.440163 -1.372778
4.455149 -4.996350 2.001152
2.972828 -3.069559 2.500337
2.381276 -0.215476 -1.669321
-4.305110 -3.180594 -4.166722
-3.419448 1.770917 -4.860073
-3.562315 2.411755 3.579373
-2.757498 -0.360736 -1.775433
-3.537345 3.155320 -0.532511
0.738837 -4.115099 3.225594
3.015632 1.543635 -0.609354
-1.030485 -4.752657 4.472933
4.608525 2.873297 1.667290
-3.497861 1.304930 -4.932301
-3.213172 4.793759 -1.798514
-3.220097 -3.268618 -0.240697
-3.821425 -0.877023 2.813740
-2.247671 1.037492 1.101406
