ply
format ascii 1.0
element vertex 2100
property float x
property float y
property float z
end_header
0.005744 0.202600 -1.804695
-1.644735 -0.934122 -0.740353
-0.251900 0.887428 -1.717056
1.097102 -0.849081 -1.470304
0.783009 1.841074 0.758992
-1.545299 -1.752321 0.050925
-0.587489 -1.020890 1.779315
0.457824 2.347985 -0.403775
-0.444002 -2.026280 -0.754488
-2.291046 -0.118677 -0.403933
-0.921189 1.927772 0.547230
2.299139 0.569376 0.067547
1.585616 1.093514 0.880166
0.072500 1.141349 -1.746032
-2.296213 0.211771 -0.531558
-1.960638 0.822725 -0.462620
-2.541472 -0.164215 -0.121278
-0.198361 1.474619 1.450336
-0.806555 2.092942 0.549673
0.056091 0.054571 2.449789
-1.769970 0.180773 1.158133
-0.902786 2.126619 -0.447595
-0.327091 -0.521333 -1.802258
2.026323 -0.778436 0.587901
1.104264 -0.069374 -1.810356
-0.035635 0.059735 -1.884653
-0.687057 2.347040 -0.041014
-0.026832 -0.007305 -1.795480
2.109500 0.944501 -0.114128
2.193425 0.532333 -0.301191
1.359229 -1.446736 -0.728655
1.162596 1.908375 -0.263167
-0.122165 2.355434 0.277356
-2.343220 -0.206534 -0.297160
2.321450 0.556631 0.136267
0.878160 2.074547 -0.249096
-0.477237 -0.276070 2.303833
0.016189 0.097223 -1.792285
1.308612 1.614986 0.727527
0.033751 0.020384 2.474796
1.978786 -1.011698 0.536716
1.560124 -1.468662 -0.470738
-0.738830 0.234657 2.147781
-1.820614 0.587024 -0.801971
1.508769 0.488268 -1.283662
-0.658134 0.795824 1.880693
-0.496051 -0.270894 2.178282
0.080203 -0.110618 -1.816534
-2.261791 -0.708354 -0.288868
0.015323 0.258541 -1.799237
0.127237 0.073616 2.414053
0.187148 -0.173326 2.417505
-0.903855 1.221496 -1.223093
1.949982 -0.209933 0.857953
0.118387 0.091234 2.495242
-1.754787 -0.636359 -0.914028
-1.393164 -1.109552 -1.069607
-1.240885 -0.456211 1.654558
-0.095300 0.173951 2.409995
-0.550830 -0.893633 -1.781916
-0.519559 0.148588 2.155683
-0.253424 0.015452 2.416473
-0.087707 -0.079931 2.417704
-1.023268 0.990662 -1.384693
-0.661626 0.346728 -1.773258
0.407659 0.195861 2.340386
0.079943 -0.897730 -1.778785
-1.555560 1.632234 -0.258264
0.790532 -0.166269 2.122167
2.512401 -0.008314 0.100542
0.513708 0.915519 1.817597
-0.297809 0.323232 -1.842502
1.629098 1.185439 0.583466
1.127443 0.184453 -1.777900
-0.043433 -0.446894 2.208862
-0.425426 0.221207 -1.819035
-1.862183 -1.219475 -0.157512
0.006809 0.286263 2.413441
1.308139 -1.988295 -0.083472
-2.011627 -0.316160 -0.874215
-0.080876 0.004824 2.494357
-0.939554 1.591217 0.860516
-0.769103 1.342019 1.313257
-1.909596 1.452413 -0.118285
0.639799 -2.094398 -0.604336
-2.403177 -0.013838 -0.296287
-0.017550 -0.010340 2.509386
0.029639 -1.351285 1.557542
0.442741 -0.055560 2.316054
0.646750 1.999027 -0.730251
-2.193513 1.072855 -0.032626
-2.137438 0.857907 0.358492
0.279589 -0.417450 -1.727022
1.404889 1.930833 0.014532
-1.888220 0.200051 -0.992531
0.663907 -1.501217 1.138279
-2.203110 -0.172124 -0.607033
0.349227 -2.079263 -0.605643
-0.631634 -0.385315 -1.794745
1.364042 0.765969 -1.171937
-0.442480 0.170825 -1.823056
1.817415 -1.004871 0.636940
-1.067614 -0.870013 1.501608
0.221600 -2.509176 0.033004
-0.677036 -1.773008 0.951215
1.640315 1.611237 -0.130638
-0.080072 -0.038855 -1.820651
0.923712 0.097751 1.941947
2.112185 0.615187 -0.444470
-0.067452 0.431162 2.270211
2.131930 0.421493 -0.603346
-1.499704 -1.826942 0.067468
1.861206 0.044741 1.082799
-0.028908 0.966666 2.081597
0.026070 2.495702 0.032431
2.040615 1.015395 -0.075143
0.263850 -2.161977 0.662800
0.367431 -1.262227 1.565160
-1.748970 0.124011 -1.260874
0.892209 -0.227134 1.916107
0.469325 1.285841 1.433181
1.495937 1.725128 0.003038
1.337456 1.826056 0.267635
-0.543930 1.528351 -1.126377
1.079516 0.984301 -1.332535
-2.187922 -0.369016 -0.535906
-0.158216 0.041090 -1.823881
0.119992 0.108328 -1.819315
-1.459373 -1.832036 0.161578
0.187186 0.027228 -1.784157
-0.906310 0.891337 1.550239
-1.066219 0.800091 1.649674
-0.003636 -0.099222 -1.766798
1.916197 -1.197323 -0.199987
1.085192 -1.220777 -1.120115
-2.142049 -0.560369 0.515945
0.846527 2.208143 -0.335821
0.295483 0.349282 2.224973
0.063051 -0.005010 -1.870572
-2.373357 0.853274 -0.040326
-0.460381 1.313936 1.547235
-0.099163 0.209642 -1.824807
0.393965 -1.472394 1.505120
-2.013183 -0.324407 0.691268
0.068170 0.142791 2.439834
1.577428 -0.884079 -1.068490
2.423427 0.477152 0.027456
1.321406 -0.113456 1.555318
0.628068 1.539647 -1.209936
0.593654 0.427115 -1.780546
-0.353800 1.947891 0.921478
-0.414498 2.216951 -0.507856
-0.246079 -0.832023 -1.790602
0.778538 -1.573822 -1.039594
-0.110609 0.127614 2.448469
1.670445 -0.636106 -1.099834
1.300439 -0.765314 1.534027
0.030540 0.038497 -1.775337
2.435787 0.382144 -0.016979
-2.083954 0.406421 -0.832902
1.682627 0.778091 1.012126
0.222903 -2.057959 -0.930263
-0.038708 1.388082 1.564178
1.732234 0.346919 1.274915
-0.146919 0.058491 -1.805317
0.542376 2.152789 0.622637
0.062832 -0.044723 2.484871
-2.103165 1.052724 -0.224810
2.380868 0.251494 0.151513
1.226137 0.932623 1.413322
-0.391554 -0.233391 -1.775948
0.001136 0.418079 -1.842993
-0.551920 -1.253762 1.473037
-0.616563 0.088611 2.257991
-0.902188 0.112904 1.943662
-0.210384 -0.006166 -1.839851
-0.051549 -0.317305 2.392778
-0.874857 1.438357 1.176796
-0.005002 0.010377 -1.832965
2.247595 0.842356 -0.177528
-0.149920 -0.587135 -1.817356
-0.206483 -2.158580 0.695005
-0.919279 0.454976 -1.795515
2.408846 -0.320443 0.122499
0.157597 -0.086349 2.540079
2.138886 0.374521 0.555140
2.029871 -0.994552 0.309117
-0.386214 0.167402 2.207348
-0.794829 -2.187826 0.237138
-0.260465 2.037449 -0.719974
-2.108704 -0.379072 0.752745
1.000819 -0.729603 1.635064
-0.110745 0.371800 2.411586
-1.814269 -1.419352 0.080459
0.328045 2.104826 0.830796
0.515655 0.239490 2.211913
-0.821549 0.514590 1.939884
2.213669 -0.034503 -0.674242
-0.065997 -0.022742 2.435094
-2.012444 -0.971125 0.165848
1.061296 -2.168923 -0.022221
0.724528 0.908860 1.710204
0.497247 -0.267102 2.218126
-1.824023 0.659467 0.715885
0.094402 -0.108996 2.490670
0.323224 0.040317 2.310419
0.775102 -1.053612 1.425687
1.284771 -1.166268 1.109334
-2.301335 0.539186 0.293526
0.927740 2.171078 0.065421
-0.361674 -1.339048 -1.579440
1.431739 0.203387 -1.394870
1.067177 0.989132 -1.489255
-0.148292 -0.088247 2.428310
2.213010 -0.883128 0.008727
-0.230523 -0.770162 1.953785
0.971365 2.204322 0.043501
0.877620 -0.310760 -1.730747
1.960288 0.045009 -1.025704
-0.934350 -0.905711 -1.465571
-0.785547 0.356634 -1.804298
0.865247 -1.835098 -0.836345
0.484423 -0.453712 2.212142
0.383543 0.933488 -1.784930
-1.212157 2.063516 0.008336
0.140402 -0.013903 2.462576
0.479336 -0.320037 -1.740014
-0.118491 -1.625343 1.314283
-1.022314 -0.038310 1.900606
-0.983946 0.246276 1.864082
-0.022312 -0.151799 -1.802715
-0.049007 -2.519345 -0.030631
-0.255177 -0.578593 2.109509
-0.786764 1.795836 -0.843255
1.100960 -1.832693 -0.666004
-0.006167 -0.171228 -1.889160
0.506994 -0.149719 2.333888
0.610579 1.090126 -1.733122
0.084608 2.270990 -0.571601
0.264080 -0.032731 2.320189
-1.324627 -1.617854 0.460422
0.309390 -0.667710 -1.777636
0.719813 0.272754 -1.727970
0.337839 1.699700 -1.221300
-0.427968 -0.147927 -1.766183
-0.396046 0.037708 -1.884278
-0.370965 -1.938736 0.833035
-1.400935 -1.235517 0.958501
0.034704 -0.071552 2.506508
0.874351 -1.208060 1.472002
-1.252022 -1.895063 0.245362
0.719011 2.355695 0.097562
0.749813 -2.082543 0.287318
-1.231492 1.098800 1.240468
0.266124 -0.486226 -1.804327
-1.758387 -1.458437 -0.053079
1.711667 0.863634 0.707996
-0.011481 0.060304 -1.792486
-0.115323 2.520962 0.057262
0.628220 2.142526 0.362604
0.892463 -2.210756 0.105191
0.027741 0.044846 2.393501
0.299728 -0.649532 2.100814
-2.339811 -0.568095 -0.020219
-0.665501 -0.696437 -1.805887
1.988680 -0.108645 -0.955941
0.243828 2.063893 -0.742400
1.152215 -1.815725 -0.362434
0.589128 0.156781 2.220560
-0.237493 -0.037541 2.409625
-0.008972 -1.784342 1.283689
-0.292856 2.176195 0.649310
1.725780 0.704762 -0.859411
0.178134 0.390206 2.344563
1.741833 0.145042 1.246434
1.093452 0.032182 -1.734644
-0.173087 2.548049 -0.032407
1.820065 0.370193 1.044057
-1.224575 -1.992121 -0.155076
-1.847607 -1.256051 0.249910
-0.186196 -0.336700 2.378449
2.181759 -1.138775 0.027370
-0.564428 -1.543552 -1.282593
-0.818735 -1.683601 0.894527
-0.719191 0.951201 1.833222
0.513806 1.058076 -1.805845
-0.126390 0.087950 -1.809474
1.864814 0.601709 -0.902150
0.006250 0.045150 -1.856719
-0.554495 0.121135 -1.712417
-2.014975 -0.644968 -0.547277
0.465890 -1.286093 -1.522886
-0.037782 -0.177858 2.382589
-0.895670 -0.319025 1.874517
0.014509 0.196593 -1.738011
-0.050009 0.865006 2.003314
0.789480 0.207149 -1.827315
0.935655 -0.103984 -1.782754
1.446561 -0.688690 1.149361
-0.438002 -0.040601 2.279829
0.358421 -0.102208 2.272644
-1.709732 0.882478 -0.928689
-0.114562 -0.684075 2.149273
-1.858417 -1.077610 -0.398818
-0.305413 1.813357 1.183684
1.619033 -1.170351 -0.730799
0.083711 0.259398 2.471985
1.456900 -1.609193 0.549469
-0.028116 0.042317 2.486097
0.025649 -0.199714 2.370233
-0.231139 -0.560035 2.171368
-1.193149 -1.232402 -1.181008
0.125391 -0.009489 2.521172
-0.985405 -0.927857 -1.527756
-0.070849 0.065903 -1.882934
0.107953 -1.023704 -1.769476
-0.436786 -0.967020 -1.691426
-1.227031 -0.477697 -1.642590
1.472426 -0.018719 1.401084
0.810158 -1.564289 1.132309
1.976222 1.212890 -0.109746
1.680156 -0.353504 -1.144615
1.351079 -1.765032 -0.114982
0.580752 1.156211 -1.582821
0.076598 -0.025073 -1.807898
1.200726 -0.316534 1.645579
0.234992 -2.421013 0.023135
-1.312191 -0.413042 -1.604105
-0.618503 -0.931879 -1.761215
1.168032 0.337014 1.679878
-1.399470 1.717761 0.355399
0.782595 -1.087412 -1.415196
-1.141545 -0.170204 -1.744127
0.799215 -0.002014 2.182992
-1.043890 -0.195719 -1.787228
1.564602 1.413703 -0.533398
-0.209717 0.619594 2.161487
-0.030790 0.033196 2.472298
-0.035925 0.268775 -1.870088
-0.732947 2.192557 0.342281
-1.264045 -1.724540 -0.735631
0.351723 -2.226366 -0.529817
-0.593287 -2.322491 0.007668
0.014709 -0.063845 -1.747113
1.486675 -0.297984 -1.515452
1.343516 -1.808619 0.006951
-1.993066 -1.207289 -0.001409
1.517946 0.701669 -1.218891
-0.433635 1.231264 1.652166
-0.446837 1.619275 -1.215281
-0.049702 -0.381325 2.304468
0.170464 0.041302 -1.807534
-0.162431 -0.034547 2.533379
1.447901 -0.148077 1.377563
-0.087094 -0.032224 2.590676
-1.844202 -1.253439 0.403692
2.239141 0.640992 0.085386
-0.919416 -2.025790 0.336884
0.503008 -1.244339 1.566917
0.131753 1.367242 1.678352
0.769355 2.357360 -0.058727
-0.217398 0.057141 2.493385
-1.740540 0.644431 1.003710
0.228976 -2.457166 0.021524
-0.043804 -0.063794 2.453852
1.997338 0.675905 0.759627
-1.876011 -0.390333 0.975795
-0.410659 0.191613 2.315072
-0.686344 -1.685494 1.117311
-0.833393 0.161013 -1.707615
-2.329145 0.563643 0.070348
0.782334 1.167152 -1.519597
-0.215342 0.657089 2.293804
-0.554444 1.110865 -1.819077
0.269323 -2.350261 0.258875
0.963574 2.149023 0.206025
-2.248910 -0.138251 0.489646
-1.557694 -1.412521 0.689502
0.872962 1.666451 -0.765067
-0.866614 0.093321 -1.715119
-2.497231 0.185465 0.174446
-0.022525 1.773422 1.262366
-2.442939 -0.206252 0.001407
2.012513 0.125286 -0.884524
0.534682 -0.199972 2.148968
-0.027040 -0.179250 -1.745567
-0.034105 -0.027534 -1.815315
-0.008241 -0.073838 2.524290
1.567344 1.718253 0.107094
-0.502824 -2.279356 -0.392442
1.723511 -1.243209 0.380672
-1.239391 1.445117 -0.780131
-0.279751 -1.185524 1.685438
-0.395414 0.144004 2.371711
0.780610 1.040874 -1.580979
-0.110866 1.007349 1.936281
-0.053615 2.392865 -0.137333
1.712106 -0.353542 1.176446
0.057010 -0.113580 -1.806486
0.100677 -1.267042 -1.728631
2.165807 -0.044103 0.789539
2.408580 -0.343115 0.047419
2.062100 -0.507672 -0.633952
1.139351 0.058798 1.740388
-0.941291 -2.121068 0.274983
0.836112 -1.108842 1.499818
0.595324 0.344521 2.126426
1.873428 0.477268 -0.975827
-0.115392 2.093574 -0.900703
-1.614859 0.426508 -1.227250
0.021635 0.102633 -1.814752
-0.083030 0.394755 2.313453
0.059202 0.180280 2.404134
-0.020829 -0.935007 -1.752368
0.017842 -0.140460 2.385873
-0.074705 -0.068534 2.474847
-0.935976 -2.047189 0.387982
-0.645872 -2.318380 0.224117
-0.232020 -1.067424 1.805521
0.000861 0.004382 -1.852473
0.377589 -0.155933 -1.761905
0.203308 -0.302950 2.298010
0.779787 2.159630 0.362580
-0.001364 -0.319346 2.416982
0.035703 1.170507 -1.661747
-1.069868 1.699506 0.738529
0.809971 -0.321182 -1.787853
1.144255 -0.285983 1.814053
0.489052 2.439463 0.210417
0.850530 -1.465932 -1.165048
0.092054 -2.217298 0.485813
-0.042403 -0.016505 -1.859196
1.166108 -0.024613 1.727385
-1.621545 1.671047 -0.067750
-0.158396 0.085102 -1.820599
-0.084638 -0.204516 2.358498
-0.642087 0.578922 1.997778
-1.465100 -1.006681 -1.077551
0.523624 0.272087 -1.835448
0.554686 -0.235383 -1.813852
0.480764 -1.932930 -0.863952
1.464706 -0.915690 1.099746
2.182412 -0.769035 0.197144
-1.947395 -0.810881 -0.570155
0.009848 0.000353 -1.824511
-1.411946 1.689226 0.349092
-0.178162 0.347871 2.333878
1.517506 1.219612 -0.664214
0.406949 0.112126 2.313445
-0.183394 0.127206 -1.869631
-0.606674 -0.212738 -1.709690
-0.328747 1.608463 -1.334560
-0.876102 -2.206911 -0.118500
0.125868 -1.301699 1.685298
1.249206 1.942624 -0.127615
-0.334100 -0.222627 2.294668
0.557416 -0.196124 -1.785012
-1.704634 1.348625 0.353317
-0.169942 -0.159050 -1.811273
-2.552928 -0.033310 -0.003479
-0.169587 0.040901 2.457790
-0.882613 -0.143537 -1.817992
-0.112914 -0.164659 2.557928
-0.346570 2.442953 0.003631
0.975642 2.005644 0.253276
1.275575 0.127110 1.712312
-0.252099 1.830279 -1.094961
0.679412 -1.613069 -1.238720
-0.648782 -2.060646 -0.577341
2.173329 -0.593438 -0.525269
-1.530627 0.204534 1.383338
1.179989 1.974337 -0.030913
0.174318 -0.898545 -1.680911
0.466391 -1.527181 1.360715
0.104667 0.039376 2.440410
-1.813452 0.358598 -1.077189
1.666657 -1.317132 -0.585737
0.085227 0.215798 -1.764536
-0.021536 -1.277961 1.680441
0.022397 0.202423 -1.910342
-0.057492 0.077024 2.565352
0.134747 1.996474 0.972377
1.534172 -0.181418 1.397053
-2.196242 0.010480 0.566252
-0.685904 0.659707 -1.755409
0.013474 0.020175 -1.865286
0.546165 -1.134632 -1.619182
0.835912 -0.889341 -1.597445
1.171050 -1.617226 -0.725165
-0.929018 -0.719673 1.757226
-0.652614 2.387080 -0.287675
1.112904 -2.062375 0.167485
0.173619 0.487247 -1.773331
-1.908225 0.458156 -0.852585
0.014975 2.444910 0.147280
-0.562184 2.284353 -0.158242
-0.009513 -0.018826 2.388043
1.661569 0.047333 1.334948
-1.047664 -0.357233 1.788364
-0.623393 -1.126594 -1.647331
0.287937 -2.304461 0.487298
1.956716 -1.126519 0.037230
-0.349813 -1.123184 -1.760999
1.037417 -1.885127 -0.428831
-1.986842 0.031627 -0.999242
1.412395 0.335773 -1.423029
1.635928 1.643652 0.049585
-2.421415 -0.167411 -0.206038
-0.159749 0.119311 2.447629
-0.268905 0.000157 2.494031
-0.112162 -1.420598 1.529911
-0.597148 0.801079 -1.705135
0.235986 0.278711 2.229926
0.675307 -0.587394 1.866295
-0.092917 0.196920 2.493955
-2.253454 -0.452613 -0.251608
-0.477088 0.363122 -1.789394
-0.413378 0.141067 -1.764625
1.104475 1.297554 -1.190903
-0.884568 0.285508 -1.829043
0.128630 -0.088135 -1.801285
-1.010956 -0.383431 -1.801135
0.607300 1.519790 -1.311486
0.786722 0.936767 1.686843
-0.261739 0.986851 1.786295
0.971319 -1.235949 1.270924
0.013097 -2.515489 0.305264
-0.274040 1.034946 -1.773104
-0.610597 -1.779827 0.860932
-0.192619 -0.434459 2.255272
-1.940730 -1.358848 -0.008215
-0.678492 1.239835 1.521061
-0.482752 2.062000 -0.719797
1.484876 0.330537 1.429188
-0.881895 -1.037418 -1.511699
0.081490 0.794685 2.131498
-0.612908 0.787222 1.945200
0.019785 -0.813042 -1.800492
0.943212 -1.668699 0.930231
-0.023763 -0.023097 -1.850822
-1.703177 1.519959 0.102152
-0.037770 -0.093848 2.525091
0.281401 0.175853 -1.735106
-0.602513 -1.332834 1.344025
0.007776 0.027484 -1.825503
0.293604 -0.056836 2.366341
1.378892 0.258555 -1.599594
0.386581 -0.029111 2.428199
-0.084887 0.026903 -1.869908
-1.310635 -0.653414 -1.416768
-2.070247 -0.552187 0.680450
-1.851116 0.207031 1.179108
-1.249048 0.695578 1.588172
-2.225103 0.223457 -0.440730
-0.651647 -0.417561 2.124489
0.000392 0.195902 -1.829760
0.063322 -0.542658 2.269206
-0.780921 0.132735 2.067453
1.334973 -0.772245 -1.333824
-0.133414 2.424913 0.153720
0.141890 -0.072688 -1.815640
-0.175906 -1.695051 -1.323807
0.295908 2.125296 0.632947
-0.148812 -0.074420 -1.789512
0.883360 0.195706 -1.809058
0.607416 2.347660 0.181305
-0.079213 -0.219706 2.446381
1.622750 -0.094901 -1.345728
-2.306157 -0.247605 0.556440
0.985770 -1.074882 1.490325
-0.643872 -2.283354 0.007184
-0.783459 1.144058 1.546137
2.048967 -1.052941 0.022669
0.931783 -0.353112 -1.671832
-1.240955 1.958009 -0.076203
0.416407 2.234316 -0.442743
-0.183833 0.800919 -1.852503
-0.490994 1.235310 -1.596939
-1.976671 0.779939 0.414693
0.027700 -0.008422 2.492891
1.033756 -0.089970 1.831203
0.702283 0.117268 2.090608
0.673738 -0.177303 -1.804890
1.228549 1.906909 0.278084
-0.885838 -0.236038 1.947122
1.128771 0.273118 -1.852735
-0.593043 -1.863168 0.954246
1.391488 0.143845 -1.528719
0.065704 -0.071481 -1.721251
0.067236 -0.037833 2.484068
-1.834437 0.516447 0.982547
-0.532909 0.859708 1.906383
1.912997 -1.024777 -0.349046
0.345527 0.111193 -1.705135
-0.262820 1.733493 -1.206270
-0.097981 2.085919 -0.584940
2.080879 0.012765 -0.793465
1.249764 1.703385 0.528319
-0.162472 0.010879 -1.801331
-0.045721 -2.462281 -0.163032
0.098308 1.365052 1.553069
-0.332259 -0.567922 2.145829
-0.419861 0.476472 -1.878885
-0.176312 0.002253 -1.819400
0.169179 1.038156 -1.808029
-2.147870 1.004222 -0.044242
-0.913912 2.180181 -0.259798
0.288171 -0.198751 2.397426
-1.441156 -1.900593 -0.032684
1.334799 0.414823 1.499783
-0.134937 -0.081990 -1.848784
-0.335013 -0.678620 -1.697062
-0.659450 -1.908409 -0.836354
0.737799 -0.520548 -1.781376
-0.231808 -2.321557 -0.411110
-0.555283 -0.139940 2.243533
1.723045 1.533717 0.201019
0.719311 -0.065774 -1.861283
0.848772 -0.983092 1.568757
-0.028521 -0.117300 -1.773704
-0.075418 -0.316239 -1.753701
0.175141 0.027428 2.426610
1.711398 -1.586425 0.404483
0.533114 -1.840565 -0.852720
0.788570 -2.241561 -0.096824
0.306570 -2.171120 0.647696
-0.374491 0.490190 -1.658616
1.021808 0.407118 -1.740297
0.428563 1.310057 -1.570924
-0.631341 2.257171 -0.084640
0.161972 2.432011 0.053215
-1.306158 1.128355 1.030849
-0.378749 -0.588838 1.939284
-1.701501 -0.699914 -0.856401
1.826883 -0.930401 -0.642725
-1.584874 -1.677204 0.168226
-0.355324 0.427925 -1.741038
0.358794 0.101829 -1.936243
0.985862 0.057423 -1.669948
0.169487 1.452840 1.516573
-0.782050 1.134841 1.462277
-0.088071 -0.690730 -1.810265
-0.436143 -2.173033 0.616071
-0.639197 0.031243 2.226093
-2.303390 -0.492808 0.189478
-0.170925 0.141836 -1.835868
0.078086 0.295006 -1.820455
-2.423041 -0.473034 0.147833
0.053478 -0.026511 -1.743190
-0.804544 -1.283836 -1.533380
-0.813507 0.756171 -1.649434
1.410601 -1.184362 -1.031837
0.002039 1.810457 1.170639
-0.667548 0.986634 1.681624
-0.702780 -0.312804 -1.780161
0.322397 1.288160 1.610911
-1.803607 0.307293 1.076567
-1.181748 -1.568636 -0.865524
1.970631 -0.213934 -0.921509
-2.259836 0.185856 0.584878
1.232178 -1.042265 1.125419
0.281670 -0.415103 2.314663
-0.043470 -0.136196 -1.828053
-0.698676 -0.108952 -1.797789
0.800416 0.230074 2.070888
-2.168968 -0.873824 -0.390690
-1.266632 -1.738525 0.385677
0.772221 -2.091672 -0.452818
-0.091980 0.077557 2.432929
0.031689 -1.669801 1.250952
-1.306508 -0.005861 -1.681356
2.202415 -0.666476 0.295507
-0.018963 2.481528 0.117125
2.337929 0.662148 0.088436
-0.220601 0.132737 -1.788874
-1.382667 1.418933 0.804884
0.227169 0.548428 -1.723928
-1.469203 0.326697 -1.478568
-0.218941 0.999207 -1.846296
0.138297 -0.036868 2.405777
-0.027515 -0.008070 2.476091
-0.799163 1.890466 0.706699
-0.175776 -0.282592 -1.860707
1.148111 -2.030461 -0.257978
-1.206968 1.209065 -1.069657
0.374505 -1.651349 -1.020710
-0.363532 0.197297 2.335615
-0.430965 -0.029763 2.269952
-1.709156 -1.493089 -0.022369
-2.160868 -0.997212 0.256253
0.106492 -0.181113 2.371671
-2.213849 0.130453 0.596385
0.223718 1.842999 -1.193468
-2.229245 -0.853914 -0.122617
1.334160 1.822306 -0.176273
-0.533653 -0.238414 2.134918
1.101305 -0.635476 -1.572485
-0.291066 -2.395574 0.079791
-0.143503 -0.007340 2.431099
0.216670 -1.353470 1.514397
-1.111205 0.598758 1.578618
-0.320491 -2.115810 -0.773844
0.158613 1.318661 1.635617
0.453257 0.384918 -1.752808
-0.057837 0.038493 -1.852415
2.317614 -0.798069 0.023480
-0.878819 2.271693 -0.050351
-1.993307 0.911115 -0.616394
-0.903093 -0.182214 -1.755000
-0.733583 1.067907 1.489770
0.454583 -1.951713 0.835729
-0.154674 -0.249363 2.280836
0.004700 0.074524 2.548482
0.004483 0.251616 2.365837
-0.301359 -0.495226 -1.808491
-0.375271 -1.164548 1.712816
-0.220551 -2.266328 -0.391621
-0.921092 -0.673921 1.750810
-0.666873 -0.304595 2.209778
1.868453 0.028349 -1.053747
1.612823 1.797208 0.080870
1.924403 -0.131159 -1.084673
-0.031349 -0.022162 -1.793092
-1.322684 -0.579542 1.453687
0.048564 0.024443 2.433544
-0.277803 0.905918 -1.711043
0.330141 0.046510 2.305474
-2.266589 0.051360 0.526435
1.524358 -0.018537 1.441577
0.711938 -2.291826 0.163251
-0.249820 0.891751 1.954584
2.381104 0.432578 0.009056
1.674431 -0.163168 -1.408744
-1.775247 -1.431641 -0.175644
-2.086362 0.949534 -0.538710
-1.643712 -0.137785 -1.263300
-2.131280 -0.007660 0.771434
-2.310529 -0.471778 0.218650
-2.131463 -0.411895 -0.655089
0.648678 -2.419595 -0.086077
-0.019615 -2.406354 -0.431352
0.022296 0.404114 2.334726
1.666753 -1.443774 0.307155
1.184389 -1.292084 -1.082029
1.509011 -1.559043 0.423507
-0.097192 2.228994 -0.552387
1.567670 1.678734 -0.381103
-1.243144 -1.197547 -1.164378
-1.615107 -0.462602 1.190482
-0.071441 -0.600815 -1.776825
0.009000 1.773099 1.192232
-1.267314 -0.387414 -1.679561
-0.066514 0.403710 2.388271
0.235371 -1.080574 -1.816411
0.029245 -0.851291 -1.773402
0.048608 -2.033677 0.801381
0.133774 0.246382 -1.823661
0.073640 0.991999 1.889884
-0.511860 1.787353 0.968122
1.498476 1.313659 -0.800808
1.425323 -0.471596 1.228199
0.397622 -0.088119 -1.789019
-0.320320 1.883955 1.043848
0.222879 0.076579 -1.721016
-1.054836 -0.025063 -1.711382
-0.699607 -1.156818 1.568876
-1.204981 -1.489717 -0.910653
-0.162783 -0.161151 2.443366
-0.751546 -2.257816 0.085451
-0.136711 2.194777 0.583625
-0.253282 -2.410199 0.052742
-0.031444 -1.241004 1.749080
-0.399601 -1.224640 1.635140
-1.565139 -0.205283 -1.373211
0.685927 0.931448 -1.687225
-0.918394 -2.010405 0.396800
-0.086859 -0.431410 -1.709909
-0.252916 0.302911 -1.798867
1.457630 -1.364176 -0.777725
0.457878 0.466408 -1.795648
0.133757 1.511411 -1.494360
0.517550 -2.257743 -0.333921
-2.004485 -1.117187 0.141279
-0.763278 1.230182 -1.463901
-0.005452 0.031088 2.466747
0.470852 1.006127 -1.730436
0.433811 2.300197 -0.414274
-1.845979 0.599470 0.975312
-0.111364 0.001371 -1.769788
0.185426 -1.433416 1.460321
-0.168297 -0.481378 2.275879
0.006532 -0.013707 -1.783278
-1.307690 -0.986676 1.177267
-0.587758 0.281782 2.135080
-0.203381 0.114808 -1.839819
-1.346954 -0.908787 1.225642
-0.075360 -0.072042 2.474165
-0.994745 -0.067739 1.987912
-1.853557 -1.190255 -0.427139
-1.233474 0.575149 1.441863
-0.243570 0.459258 -1.737591
-0.887656 1.169148 -1.390642
0.431031 2.243062 0.498887
2.175632 0.829236 -0.317158
0.133736 -1.217805 1.694833
-1.070559 0.011141 -1.692504
-0.696990 -0.230492 2.056116
1.733152 -0.905577 -0.639013
-1.179367 -1.514159 -0.849992
-2.369855 0.546228 0.023497
0.117919 0.459242 2.201916
0.050657 0.027842 -1.846553
-0.251563 2.416303 0.245850
0.717235 2.107894 0.411628
0.198039 0.063225 -1.721627
0.144937 1.611215 -1.355517
-1.292988 -1.644520 0.529264
1.471391 -0.705788 1.291026
-2.425308 -0.141233 0.077099
-0.182585 -1.327326 1.489546
0.113139 0.017814 2.433789
0.029063 0.037728 2.523757
0.281516 -0.008197 -1.840791
-1.229017 1.539142 0.729965
1.859056 -0.236038 1.059519
-1.026847 -1.613609 -0.858028
0.680290 0.156671 -1.832930
-0.700473 1.551948 -1.179391
0.654038 0.272831 2.129389
0.079841 -0.355785 2.284354
0.089144 0.074479 -1.908185
-1.937003 0.364934 0.788050
-0.679120 1.621966 -1.032544
0.068982 0.217152 -1.818257
0.268976 -0.139440 2.429021
0.162719 0.057427 2.477239
-0.217823 2.305939 0.351451
1.092100 1.908081 -0.434551
0.151009 -0.544007 -1.814035
2.243850 -0.713581 -0.344059
-0.117103 1.851690 1.016563
-0.050859 0.594899 -1.803471
2.419968 -0.085404 0.253607
-0.154740 -0.009556 -1.821705
0.096927 -0.004247 2.529759
-0.068628 -1.968209 -0.909067
-2.173792 -0.565762 0.468331
-1.839364 0.428646 -1.066124
2.123494 -1.203093 0.068261
0.266419 0.156139 -1.796525
-0.594816 0.519035 2.120972
-0.987886 -0.041713 -1.801251
-1.050264 -0.244242 -1.709890
-1.444473 -1.903479 0.074056
1.392387 1.939548 0.063804
0.992525 -0.759928 -1.613754
1.303705 -1.935133 -0.106270
0.893949 1.972426 0.510712
-1.930947 0.599120 0.862345
-1.230896 1.931465 -0.318745
1.303127 -0.911250 1.331031
-1.024005 -1.156669 -1.291153
0.197499 2.075933 -0.869298
1.915325 0.979055 -0.590853
-1.796644 -0.953938 -0.715109
-0.254959 2.150572 0.645425
-0.613997 -2.256407 -0.109254
1.938954 -0.989385 0.546714
-1.629927 -0.157974 -1.238206
0.641655 -0.798775 -1.755874
0.569863 -2.279745 0.045342
2.016016 1.136448 0.255644
-0.744215 -1.837617 -0.847964
0.096876 0.087030 -1.810639
-0.018696 -0.008459 -1.858250
2.198379 0.168800 0.570050
2.111808 1.066434 0.227238
1.872405 0.951312 -0.652776
-1.710080 -1.296749 -0.292472
-1.826660 -1.171057 0.360565
-1.538942 0.957217 -0.867904
1.960870 0.709332 -0.602988
0.382880 1.783168 -0.880517
-0.943507 1.020277 -1.563107
-0.677329 -1.418094 -1.234544
-1.511605 0.992957 -0.966294
-2.541937 0.104866 0.058552
-2.190684 0.678443 0.270990
-0.179845 2.314481 0.568977
1.280340 1.955140 -0.364405
-1.934253 -1.032992 -0.372633
0.077727 -0.395540 -1.841274
-0.179878 -1.983979 -0.935543
-1.771095 0.995172 -0.701345
-1.255975 0.618789 1.558463
-0.255073 2.360586 -0.167697
-1.856833 1.474120 -0.052978
-1.149073 -0.825832 -1.442723
-1.289921 -0.536497 -1.574311
-1.351823 -1.259050 0.924969
0.048366 0.262654 2.454392
-0.346249 -2.469687 -0.081487
0.094114 1.140257 1.784415
2.274024 0.810752 -0.162248
0.131717 -0.622648 -1.802411
-0.041301 -0.088314 -1.776103
-1.770445 -1.294282 -0.454855
2.318768 0.663694 -0.221864
-0.605857 -0.218305 2.166163
-1.667435 -1.468701 0.531912
-0.072956 0.435982 -1.799374
1.029401 -0.356983 1.793428
0.490884 -2.263113 -0.117967
-0.112731 -0.053225 2.464250
-1.394746 -1.882010 -0.017948
-0.553644 0.485660 2.154337
-1.405376 1.444940 0.571992
-0.484083 0.421598 2.091010
0.054813 0.044016 2.519209
0.118018 -0.523237 2.248845
0.059859 -1.960075 0.972932
0.113186 -2.306525 -0.450069
0.917974 -0.225799 1.950310
-2.104633 0.584991 0.404790
-0.998467 -0.351280 -1.759472
-1.644332 0.914677 0.861552
0.243857 1.873884 -0.950749
0.218976 -0.169067 2.407705
0.725055 -0.735017 1.799305
0.073978 0.026286 -1.782013
-0.101643 0.257466 2.346006
0.444492 2.142768 0.598920
-0.011264 0.218245 -1.810229
-0.917058 1.446655 -1.096071
-1.297043 0.434855 1.460969
0.123555 -0.554859 2.230919
1.064116 1.719711 0.817073
1.106428 0.078720 -1.777205
-1.479969 -0.215444 1.478460
0.230589 -0.057458 -1.827711
-0.317349 -0.274897 2.195953
-0.050667 0.001749 -1.831577
0.019943 0.401116 2.355651
-1.811093 -0.573259 0.801669
-2.259210 0.761095 -0.237609
-0.218867 0.144940 2.473724
0.680050 0.725236 -1.784637
1.520680 1.593839 -0.502574
0.411529 0.366385 -1.849859
-1.000162 1.337063 -1.109286
0.217048 -1.511901 1.371898
-0.737136 2.226141 -0.085918
-0.089128 0.021294 -1.676365
1.058749 0.297132 -1.768564
0.660870 1.975753 -0.851389
-0.568277 -2.384023 -0.168605
-0.952795 -1.798289 -0.537773
0.437810 1.101281 1.729815
0.062155 -0.089070 -1.924223
-1.794980 -0.285234 -1.151100
-1.358173 -0.228254 -1.498007
1.906990 -0.454028 0.852534
0.193276 0.120574 2.361446
-0.606982 -0.126216 2.156521
0.062002 -1.703714 -1.164957
-0.342467 -1.591852 1.348231
1.743089 -0.334098 1.064221
1.850506 0.252590 1.103028
-0.332021 -0.205817 -1.783069
-1.773342 0.319193 1.068191
-1.691002 -0.345582 -1.029751
-1.677367 -0.340838 -1.194290
-0.358964 2.276497 -0.417711
0.084163 -0.332623 2.417675
1.872975 -1.339367 0.029421
0.006160 0.027968 -1.900749
0.617816 0.013397 2.366519
0.849651 0.608744 1.884624
0.368509 0.417541 2.159588
0.256287 0.031485 2.481075
-0.947677 1.177779 1.421350
0.455868 -0.059559 -1.796813
2.211880 -0.834790 -0.068181
-1.150519 1.871922 -0.369723
-1.925765 0.948587 -0.375385
0.059984 0.074553 2.492274
0.672459 0.755896 -1.776175
1.180062 -1.175544 -1.101797
-1.514778 0.932716 -0.936444
-1.557345 0.580446 -1.225105
-0.802493 -0.190704 1.936489
-1.255837 0.129914 1.623285
1.414053 1.509728 -0.848886
1.007791 0.049269 1.941446
-0.132336 0.371175 2.203478
-0.083618 -0.054098 -1.756385
-0.024997 -0.551023 2.237935
-0.425244 0.414810 -1.851139
2.047404 -1.220219 -0.071728
-1.933477 1.159112 0.399769
-0.771651 -1.306064 1.209667
-0.429541 2.333871 -0.110292
-0.597962 0.285197 -1.787479
-0.019334 -0.155602 -1.725843
0.230460 1.612217 -1.309714
-0.988097 -1.763691 -0.644401
0.532919 -0.017519 -1.766555
-0.372361 -0.874857 -1.804990
0.495830 2.349139 0.136679
1.434615 -1.780312 -0.028152
-0.545267 2.374200 0.043112
-1.331569 -1.714987 0.451278
0.734844 -0.481457 -1.703724
-0.370185 0.343575 -1.781026
-0.012875 -0.920681 1.934284
0.582088 2.388614 0.070956
0.997073 -0.902548 1.483695
-0.247414 -0.193637 2.485682
-0.132351 -0.177114 2.431036
1.378151 -1.545901 0.706648
1.076663 -1.996014 0.331613
1.120014 1.516250 -0.873060
0.318589 -0.682104 2.137619
0.381091 0.471844 -1.829825
0.732457 1.213481 -1.302240
0.001572 0.102299 2.407416
0.480487 1.002697 1.729205
0.620134 -1.538275 1.196570
1.285917 1.880090 -0.086057
2.099309 0.282652 0.703461
-0.020129 -0.005523 -1.873266
-0.024735 0.078788 -1.858885
1.284237 1.950967 -0.021852
-1.517213 1.762453 -0.091873
2.359234 -0.055319 0.358798
0.854858 -0.710699 1.777103
0.607725 -0.043971 -1.787528
-1.790646 0.406816 -1.022769
-1.285755 -0.067391 -1.706155
-0.845809 2.143237 0.200984
-0.026056 0.029782 -1.810914
-0.380051 0.869142 2.002763
-1.388923 -1.914062 0.075963
-0.165411 0.032148 -1.818480
0.196510 1.678606 1.291523
0.049246 0.052009 2.423678
-0.054099 2.163143 0.636666
1.116250 0.866874 -1.507128
0.308363 0.105262 2.400233
0.095957 1.256975 1.745646
0.179714 1.585809 -1.435669
0.615304 -1.916654 0.865599
-2.416263 0.262002 0.235967
1.335664 -1.914283 -0.112331
0.205057 -0.535676 -1.850873
0.274585 -1.196520 1.685653
-0.057878 -0.035065 -1.801882
0.150491 -2.016556 0.856688
-0.226755 -2.139901 0.559252
1.847267 1.404331 -0.251440
-0.714241 1.088422 1.608436
-0.888113 0.534499 1.794108
0.375186 -0.942054 -1.801391
0.999248 0.667094 -1.718562
-0.029331 -0.076349 -1.867339
-0.167331 -0.103173 -1.802523
-0.001270 0.113738 2.430200
0.594815 -0.366649 -1.865425
-2.154811 -1.009045 -0.096515
-0.024299 -2.181091 0.506390
1.118461 0.787079 -1.539808
0.351999 -2.415657 0.190714
-0.680870 -0.838933 -1.820778
0.399651 0.267229 -1.822979
-0.035490 0.062533 2.499929
0.226044 0.617057 -1.836016
0.768279 0.112472 2.149370
-0.139765 0.089740 -1.787167
-1.318705 1.932293 0.080350
-0.122427 -0.244563 2.441982
-0.042464 0.017125 -1.842965
-1.838002 1.189775 -0.448083
-0.590697 -1.043216 1.810276
1.336426 -0.628598 -1.404649
0.087073 -0.025665 2.532434
1.207334 1.229553 -1.026788
-1.517884 -1.616132 -0.247934
-1.501751 -1.826634 0.038467
2.063350 -0.911331 -0.412262
0.256451 -0.040330 2.359003
-2.261288 0.583255 0.427360
0.004576 0.053487 -1.822359
-0.171514 -0.700090 -1.839545
0.514435 0.083557 -1.755338
1.404418 -0.601642 -1.283608
-2.442833 -0.157753 0.092982
2.513226 -0.207446 0.059526
-0.160212 -1.289816 1.716239
0.382220 2.310275 0.375167
-1.121700 -0.798703 1.416787
-0.032923 -0.159455 2.445754
-1.302357 -0.722728 -1.321167
-0.264018 1.042574 -1.758282
1.334347 0.964166 -1.116375
-0.124971 -0.089374 -1.836860
1.719246 1.491630 0.084169
0.368304 1.605910 1.256345
0.935634 2.177659 -0.130709
-1.182910 1.022062 1.188287
-0.411445 1.773846 -1.125773
-0.111988 -1.683970 1.124740
0.609310 -0.120537 -1.802579
0.329204 2.397353 0.172333
1.384856 -1.723830 0.384327
1.185966 -1.200135 -1.206935
-0.032910 0.039628 -1.810549
2.375181 -0.156599 0.011207
-0.006795 -0.055764 -1.818152
-0.040661 2.291244 -0.412895
-1.264079 -0.615738 -1.511447
0.005379 -0.033702 2.407032
0.211119 -0.528377 -1.738933
2.153135 0.961121 -0.014541
-0.013129 -2.127228 0.569901
0.245372 0.925023 1.944354
-0.029054 0.048104 -1.743455
-1.154658 -1.683035 0.514085
1.702655 1.398700 0.247934
2.198522 0.454723 -0.528241
0.083691 0.180864 2.475082
0.789606 -0.450401 1.967096
0.647290 -2.194764 0.281667
1.676753 -0.361095 1.203021
-0.156249 2.219942 0.270629
-2.284717 0.166694 0.306708
-1.372887 0.129344 1.543475
-1.461304 0.249171 -1.341302
0.307829 1.323112 1.620111
0.164459 0.085609 -1.743107
0.091576 0.891108 -1.775199
2.338739 0.058354 0.375852
-0.754478 1.777639 -0.771147
-1.059880 1.884743 0.527382
0.002088 -0.011807 -1.831399
-0.434979 -1.952291 -0.776543
0.916902 -2.042450 0.501270
-0.621177 2.193214 0.591391
0.750623 0.656582 1.892058
-0.053365 -2.392384 0.353843
-0.031280 -0.456150 2.220537
-1.111774 -0.496392 1.710115
-0.608400 -0.169698 -1.830546
0.097486 2.107474 0.697463
0.011754 -2.266480 -0.439907
-0.771159 0.251507 -1.724033
-0.992097 -0.048409 -1.767772
-1.811399 1.402690 -0.147358
-0.113610 -0.047739 2.455034
0.016412 -0.108803 -1.785637
-0.049824 0.089026 -1.814043
1.764118 -0.236597 -1.147311
-0.209064 -0.680689 -1.741411
2.091679 1.045444 -0.172104
-1.782184 -0.880349 -0.745678
-0.288386 1.611794 1.290046
-0.042762 -0.068658 2.502039
2.328551 0.405416 0.293786
-0.969159 0.730744 1.632785
-0.015314 0.097938 2.458477
-0.055392 -0.074511 2.469194
0.938852 -2.195833 0.035843
2.137757 0.060413 -0.758695
0.430791 -1.144476 -1.747493
-1.841207 0.398572 0.997258
0.612480 2.343367 0.135963
0.392303 0.340253 2.311362
2.484098 -0.201153 -0.091388
-0.529802 0.446554 -1.852821
0.086926 0.196295 -1.878903
0.447368 -0.812292 -1.810707
-0.051938 -2.016470 -0.893659
-0.207588 -0.093789 -1.732159
0.374206 -0.365496 2.222891
0.761464 1.280282 -1.479278
0.470008 -0.510467 -1.914046
-0.136136 -0.089404 2.431858
-0.686931 1.031620 1.650267
-0.165047 -0.177877 2.453767
0.058197 -0.073570 -1.830173
0.368793 0.755111 -1.735084
-0.165691 -0.022301 -1.778748
0.878403 -1.245928 -1.350429
1.098601 0.665391 -1.705140
-2.429615 -0.531389 0.072160
-0.254660 -1.826335 1.034420
-1.285840 -0.595271 1.555286
1.047668 0.089709 -1.820875
-0.235413 -0.591102 2.069330
-0.405048 2.411240 -0.030382
0.074959 0.454981 -1.764850
-0.087061 -0.299024 2.359513
2.294471 -0.425405 0.261404
-0.199614 -1.870974 -0.939054
0.994386 1.154715 1.241347
-0.088239 1.093703 -1.650932
2.081251 0.928928 0.373896
0.131907 -0.237796 -1.736124
0.042499 -0.052567 -1.803974
-0.008536 0.024315 -1.871653
0.024442 1.917654 1.021330
1.798385 1.136217 0.583871
0.030835 -2.355500 -0.314372
0.089283 0.193775 2.388345
0.608454 2.297276 -0.073161
0.013910 0.029592 2.593144
-0.835179 1.282007 1.294144
2.001533 -1.317542 -0.014201
-0.809680 0.074728 2.081267
-0.624620 -1.160988 1.631680
-0.297861 1.190896 1.697926
1.943962 -0.405006 -0.802270
-0.120186 -0.183993 2.365732
0.012753 -0.457477 -1.760718
-2.287880 0.738307 -0.042627
0.068552 -0.129297 2.490478
0.014514 0.152647 2.545244
-0.026063 -0.247350 -1.770745
-0.136883 0.204494 -1.865862
-1.393564 -1.093963 1.035867
0.108192 2.247007 -0.516193
0.369132 0.212701 -1.864880
-0.199986 0.058225 2.417905
1.469365 -1.839176 0.070099
0.446491 -2.361022 0.159386
-2.469994 -0.509993 -0.012949
2.227722 -0.389156 -0.514161
-1.283704 1.960370 -0.299646
0.292671 -1.329633 -1.570707
-1.986664 0.255602 0.802490
1.894091 -0.112892 1.084598
1.246873 -1.197083 -1.064716
0.568201 -2.233377 -0.353173
0.012117 0.121080 -1.784255
-1.766898 1.621476 -0.051472
-0.063274 0.092891 -1.826128
-1.933174 -0.956922 0.374129
0.207358 0.338749 2.362730
1.672314 0.424439 -1.141708
0.020567 -0.144672 -1.837623
-0.112570 -0.058590 -1.898979
1.131097 0.661900 -1.610585
-0.752137 -1.513759 -1.305078
2.221193 -0.748298 0.437246
1.411174 1.630389 -0.526032
1.376326 1.686910 -0.441273
-0.759340 -2.006878 0.630919
-0.000747 -0.027820 2.521021
0.014076 -0.045417 2.509592
-2.475456 -0.101761 0.170605
-0.811464 -0.290337 1.935611
-0.732400 -0.189673 2.068826
-0.125866 0.340727 2.305828
0.122728 -0.692909 2.254929
-0.172351 0.427338 2.317406
1.262150 -1.852069 -0.303880
-2.284177 0.124224 -0.450880
0.267246 -0.134883 -1.785830
0.344683 -1.485682 -1.497616
-0.253888 -1.524192 -1.362082
0.940504 0.312721 2.057520
2.108877 0.246512 0.646601
-1.357584 -1.783837 0.271004
-0.297243 0.274265 -1.703407
0.035189 0.560198 2.149820
1.114737 2.057219 0.086280
1.463299 -0.333277 -1.354662
-1.773084 -1.148811 -0.540214
-0.588794 1.496041 -1.289025
0.365835 -0.319321 -1.794941
1.380400 -0.797631 -1.114356
0.307371 -1.709477 1.230347
0.014672 0.025491 -1.821922
-1.436110 0.379188 -1.491253
-1.295087 0.027642 1.735718
0.466717 -0.104166 -1.840097
1.054477 -0.898224 -1.342694
0.032827 -0.012802 2.527647
0.086696 -1.164501 -1.754819
0.513302 0.520716 2.149511
-2.337305 0.282229 -0.192633
0.056032 -1.371122 -1.541094
0.070977 0.125380 -1.752956
0.270701 -0.716923 2.026580
1.479745 -0.976790 -1.220743
0.409098 0.041323 -1.778399
1.778556 1.201326 -0.342212
-1.625335 1.270841 -0.612900
-0.066529 0.010948 2.490638
0.141555 -0.421093 2.337571
-0.270141 1.623512 1.327795
0.105101 -0.704702 -1.711487
-1.259514 0.835851 1.465194
0.171385 0.251950 2.411988
-0.156002 -2.160238 0.693254
-0.186102 0.622402 -1.673756
-0.105102 0.045872 2.464731
0.382459 -2.016896 0.847252
-0.534423 -2.182024 -0.436978
-1.766367 0.942769 0.533912
-0.692423 1.406836 -1.443351
0.159352 -0.240890 2.426068
0.014032 0.506190 -1.825533
-0.687782 -2.362821 0.014659
-0.990541 0.948117 1.563702
-1.091526 1.749491 0.489915
0.305589 -0.662257 2.130569
0.259564 1.676380 -1.436898
-2.294049 0.147092 0.288934
-0.027135 -1.170354 -1.736479
1.529585 0.383651 1.251621
1.056672 -0.053449 -1.715152
0.162995 -0.054415 2.440814
0.686097 -0.042459 -1.720704
0.487915 -0.399706 -1.791721
-1.878125 -1.336326 0.225383
1.382629 -1.311982 0.842893
0.000981 -0.009210 2.534292
-1.534598 1.713463 -0.140328
0.105600 -0.213992 -1.817165
0.583058 -1.186359 1.596163
0.494748 -0.259705 -1.837606
0.572815 -1.394571 1.527801
-0.352433 -0.107994 -1.866362
1.553127 -0.033476 1.448095
0.880611 0.765529 -1.715036
0.772978 1.067276 1.668517
-1.830805 -1.456318 -0.226107
0.008851 0.081013 -1.902559
-0.066504 0.045095 2.579121
1.591929 0.467638 1.369974
0.011274 -0.018358 2.543282
0.407718 -0.980940 -1.783696
-0.336158 -0.086574 -1.827094
-0.908391 -1.502549 -1.031638
1.761944 0.889615 -0.747147
-2.385106 0.219994 -0.368630
-0.070332 0.019914 2.415963
-1.892703 0.580879 -0.815538
-0.947129 0.032539 -1.782831
-2.197321 0.561674 0.460855
0.829616 1.873063 0.726969
0.163664 0.203437 -1.730407
0.054313 -0.384711 2.458476
-0.915924 1.344724 1.132318
-0.852699 0.180615 1.944313
0.477067 -0.677060 -1.794037
-0.023709 0.176671 -1.894106
0.629512 -0.318381 2.073461
0.088945 -1.253109 1.651704
-0.222088 2.294588 0.510334
0.121134 0.148483 2.439796
-2.318411 0.493414 0.088815
0.405873 1.078550 1.743642
0.014613 0.167983 2.511533
-0.274784 0.953158 1.936141
-2.396080 0.047225 -0.239559
0.714432 0.136348 -1.836885
0.014354 0.072723 -1.830760
0.006908 -0.146790 -1.734675
1.120475 -1.739586 -0.732122
-2.297647 0.887377 0.059493
-0.795744 0.043128 -1.803867
-0.224657 1.191880 1.671771
1.000073 -1.543124 -1.048650
-1.172925 -0.609546 1.584707
-0.286320 -0.221951 -1.970917
0.002438 0.098696 2.405629
-0.030124 0.007676 2.477921
0.616160 0.469392 2.039493
-0.940337 -1.866949 -0.656626
0.373761 -1.029812 -1.691787
-0.021902 0.045715 -1.852606
1.800088 1.512363 0.045415
0.339621 0.416111 2.212041
0.241654 1.838413 1.166027
-0.362289 0.144217 2.208783
-2.211398 0.097600 -0.530980
-0.335763 1.183747 -1.691052
-0.024142 -2.396560 0.226569
-1.348472 -0.815862 1.290799
-0.077368 0.966202 -1.794362
-0.052223 -0.083282 -1.723189
-0.551274 0.204518 -1.771431
-0.312578 -0.559106 -1.779229
2.104378 -0.536846 -0.457185
0.365401 -1.031719 -1.794512
-0.465812 0.113686 2.249700
-1.902277 1.459425 0.004503
0.060761 -0.945801 -1.830087
-2.327545 -0.531363 -0.190745
-0.524013 -0.073200 2.247948
0.469986 -2.349331 -0.010372
-0.162332 0.167749 2.429538
-0.640510 -0.754165 1.813187
-0.763966 2.266090 -0.151868
2.347595 -0.265872 -0.335163
-0.317412 -2.168257 -0.575454
-1.570586 -0.646324 -1.232582
-1.190489 -2.065857 -0.042519
0.034163 0.521585 2.243441
-0.298736 -0.755030 -1.745299
-0.014662 -0.027068 -1.792272
-1.286857 1.361800 0.686455
-0.059857 -0.055725 -1.800499
2.261910 0.615824 0.150198
-0.968039 1.043775 -1.424038
0.966117 -0.959172 -1.589340
-0.020825 -1.882052 0.982038
0.505559 -0.761930 -1.804148
0.018256 2.558551 0.125792
-0.272405 0.216842 -1.830670
1.171939 -1.627155 -0.675985
0.328657 -0.177128 2.338368
0.306663 -2.590261 0.003465
-0.032697 0.059137 -1.829846
-1.116094 0.417645 -1.764929
-1.261266 -1.454141 -0.779993
-1.168329 -0.131086 -1.704805
1.053712 -0.333286 -1.747460
-0.096771 0.033898 2.448502
2.155480 0.330904 -0.693472
-0.313796 -0.737952 -1.736591
2.095575 0.033025 0.815491
2.093732 0.027546 -0.651446
-0.451661 -0.939948 -1.716664
-0.445197 0.333976 2.344472
-0.643437 0.175189 -1.792412
0.233927 -0.306297 2.423321
0.038325 -0.018587 2.453843
0.475474 -0.462761 -1.819265
1.615125 -1.508165 0.395184
-1.573191 -1.168749 -0.799525
0.107005 -0.127418 -1.818763
2.039546 -0.463883 0.573828
0.331384 -2.328489 0.363327
0.353391 0.071335 2.321634
-0.230645 -0.004151 2.548952
-1.031274 1.674518 -0.790463
0.043076 0.919868 -1.741897
0.759449 -0.230367 -1.782461
-0.127107 0.239792 2.336866
-1.040702 0.241333 -1.785852
-0.542401 -2.021484 0.716297
0.058075 -0.754461 -1.775721
-0.780157 0.595556 1.901437
2.021805 0.143504 -0.878306
0.259700 1.409573 -1.399237
-0.053373 1.127099 1.862175
1.067764 0.077178 1.959897
1.521704 1.307734 -0.790033
0.405905 0.181008 -1.845174
-0.323811 0.090547 2.301601
0.160278 -0.785530 2.025238
-1.972523 0.854848 0.615210
-0.492442 -1.759831 -1.162737
-2.412071 -0.531425 -0.030231
2.371145 -0.144312 -0.363839
-0.803443 1.086478 -1.620435
0.401458 -0.261164 -1.785952
-1.874916 -1.183927 0.109390
1.083281 -0.520825 1.687926
0.493736 0.582018 -1.778119
0.437386 -0.915211 1.683323
0.275832 0.074705 2.320586
-0.575554 2.272905 0.098132
-0.061816 -0.265040 2.370461
0.066669 1.730337 1.273193
-1.611546 1.468972 -0.502976
-0.903095 1.223427 -1.319726
-0.016245 -0.036185 -1.820712
0.521807 -2.161289 -0.564754
-1.086883 0.149477 1.760456
-0.003157 0.052022 -1.835588
-0.417049 -0.910493 -1.797892
-0.103424 0.365727 2.397918
2.361604 -0.234591 0.311932
-1.309002 0.239276 -1.495232
-2.244050 -0.827963 -0.131001
-0.132171 2.434905 -0.006164
-0.873165 1.806292 0.651778
1.568283 -1.724657 -0.028017
-2.450145 -0.203511 -0.049820
-0.128367 -0.034005 2.406830
2.091872 1.002609 -0.197770
0.137675 1.992169 0.943628
0.583477 -0.019974 -1.717490
-0.037926 0.077448 2.454270
0.803991 -0.121530 -1.781395
-0.426604 0.385965 2.255125
0.075603 -0.073598 -1.890032
1.570460 0.026991 1.435733
-2.478051 0.143537 0.067978
2.321118 -0.694186 0.162386
-0.270119 0.951653 -1.737510
0.734284 1.500124 1.219783
0.238203 -0.252556 2.448125
1.477849 -0.447157 -1.330933
0.235418 0.358979 2.253318
0.976673 2.194135 0.056618
2.102889 0.368739 0.765899
-0.035718 -0.581564 -1.818455
-0.063572 -1.962723 -0.945674
1.035834 1.941237 -0.412695
-0.135436 -0.927498 -1.711708
0.519966 2.391796 -0.123465
2.224971 0.404138 0.411441
0.529130 0.010667 -1.716507
0.022183 0.071686 -1.802612
0.886950 2.149237 -0.246030
-0.001616 0.078922 -1.809464
-0.002190 -0.129363 2.418069
0.121104 -0.239512 2.491271
0.155753 -2.424646 0.146378
-1.039491 -0.081224 1.844023
0.129473 -0.149679 2.448729
-1.026396 -1.757845 0.672333
0.036768 2.118374 0.623166
-0.064402 0.085089 2.405046
-1.587905 -1.112299 0.850020
0.022241 -1.160718 -1.662619
-1.090003 1.658357 0.605362
-0.885773 1.623074 -0.991026
0.114304 2.320527 -0.392032
-0.092347 0.200897 -1.885394
-0.464301 -1.082045 -1.688657
-1.626998 1.230610 0.678509
-0.041016 -0.426330 -1.792105
-2.151824 -0.036623 0.636603
-1.252143 0.831586 1.387841
-1.530522 -1.262079 0.751332
-0.622430 0.010808 2.253335
0.097564 -0.535365 -1.811445
-0.011834 -0.058490 -1.808832
-0.891324 1.685971 -0.885912
1.407401 1.042205 0.992457
0.838972 2.077037 0.168103
2.014974 -0.292221 0.872888
-0.250997 2.473442 0.003391
0.751122 -0.941530 1.686805
0.230641 -2.170884 -0.591053
1.426197 0.483204 -1.458475
-0.599032 0.151273 2.269973
-0.204361 -0.187067 2.373026
0.209515 -0.633733 2.151420
-0.057229 -0.076736 2.436748
2.068321 -0.944600 0.390172
-0.037988 -0.013224 -1.771102
0.406081 -0.011961 -1.794399
-0.023940 0.061475 -1.894447
-0.240801 0.247888 -1.837292
0.512651 -0.565244 -1.795047
0.103321 0.177468 -1.840558
-0.023495 0.406822 2.352846
0.826181 0.917277 -1.713135
0.066526 1.121010 -1.781436
-2.023646 -0.195993 -0.788900
0.250142 2.571274 0.064767
-0.745405 2.033377 -0.581609
0.296683 0.025022 2.524397
0.142309 -2.041903 0.771868
-1.802274 -1.006993 0.517550
-2.186536 0.171838 0.575438
-0.001312 -0.018438 2.512352
-2.490149 -0.156176 -0.249278
0.074670 -1.891636 0.922750
-0.041787 -0.044011 2.483168
0.803084 -0.866621 1.713553
1.138857 0.687602 -1.584888
-1.820097 -1.121552 0.442972
1.797163 0.357222 1.306238
2.025816 1.239422 0.118620
0.559035 -0.381245 2.115281
0.292416 0.353009 2.363385
0.324623 0.003429 2.417149
0.301229 -0.679155 2.050921
0.632718 0.390920 -1.837277
0.862734 1.993261 -0.326631
1.970477 -0.799187 0.360571
-0.284314 0.195403 -1.840553
0.880849 -1.994696 -0.434706
0.123800 0.233338 -1.868051
0.368991 -1.212401 1.702334
-1.013267 -0.456048 1.765700
-0.490615 -2.415169 -0.051898
-0.190657 -0.361279 -1.806966
-1.968034 0.175920 0.822930
-0.131595 -0.211299 2.390643
0.109009 -0.176239 2.466259
-1.385561 -0.963950 1.148613
1.732847 0.551664 1.106139
-1.693787 1.679508 0.034916
2.039723 0.309169 -0.781378
0.227327 0.593470 2.222755
-2.051532 1.036299 -0.377862
0.756536 -2.419502 -0.094949
0.028281 0.386170 -1.869662
0.360542 -0.068567 2.334656
-0.558992 -0.856966 1.805794
-0.038830 -0.045623 2.468792
0.696666 0.015011 2.153329
0.074651 -0.025246 2.455179
0.136992 -0.061280 2.458457
0.547715 -1.162123 -1.499968
0.819009 1.603640 -0.924379
0.233006 -0.560079 2.272023
-2.245804 -0.168880 -0.609932
-2.449074 0.289931 0.034759
2.364535 -0.544095 -0.083320
-0.144348 1.781179 1.111224
0.001121 1.729322 -1.200117
0.012617 0.111357 2.441419
-1.492409 1.125784 0.880626
0.872394 0.771888 -1.731531
-0.089170 -1.978465 -0.865888
2.528096 -0.414602 -0.050633
-0.976852 -0.108080 -1.739676
-0.089271 -2.550174 0.070774
0.050031 -0.653859 2.229456
-0.314809 -0.040851 -1.778672
0.039727 -0.018748 2.414884
-2.488800 0.099821 0.086414
-0.299805 -0.024071 -1.891217
1.729364 -0.053332 1.210909
-2.333624 -0.495503 0.124287
-0.061078 0.096183 -1.863980
0.203608 0.234479 -1.839284
-0.397897 -1.975391 0.890718
0.440220 -0.623222 -1.838807
0.009121 0.811945 -1.722247
-0.087006 0.078769 -1.818449
-1.279488 1.968943 -0.102125
1.366321 0.307003 1.537326
0.463460 1.717894 1.116338
-0.689291 0.225623 -1.699917
-1.668079 0.103145 1.243703
2.303761 0.555676 -0.146169
-0.006470 0.207004 -1.894146
0.518915 0.592922 1.997540
-0.231904 -0.882582 2.037826
-0.862672 -0.990850 -1.655094
-0.895379 -0.650870 -1.687159
-0.179485 2.477666 -0.018167
2.062786 -0.396136 0.717846
0.469382 0.751207 1.946641
0.396296 1.816221 -1.143947
-1.247901 -0.656014 1.541847
1.876719 -0.770298 0.577363
-0.568486 0.157840 2.190523
0.612101 -1.587228 1.135355
1.389452 1.322678 0.735464
-2.191467 0.948537 0.189204
2.236417 0.259403 -0.515105
1.016448 0.556586 1.712046
-0.044830 0.035039 -1.878647
0.468983 2.305603 -0.211635
-0.838079 0.262489 -1.691835
-0.652476 0.406660 -1.701149
0.169908 0.046758 2.459933
-1.251976 -1.648753 -0.589509
0.047329 -0.082609 2.523544
-0.506902 -0.112951 -1.796123
-0.141990 -1.054027 1.898075
2.153127 0.834977 -0.250139
-1.850927 0.308371 -1.026560
0.883091 -0.749443 -1.718232
-0.166574 0.220922 2.340153
2.304579 0.323919 -0.322496
0.563251 0.522125 -1.848175
-1.238615 1.678287 0.680097
-0.564548 0.984357 1.697277
-1.510109 1.857552 -0.047266
-0.028176 -0.001003 2.567076
-0.727882 0.599005 -1.681051
-0.033746 0.380477 2.347878
-0.668997 -1.363829 -1.339879
-1.532238 0.942246 1.042633
-0.309585 0.444855 -1.804065
-0.017527 0.025273 -1.834201
0.228055 0.338579 -1.827104
-0.094431 -2.513442 -0.032805
0.652175 -1.816169 0.889148
-0.417501 -0.054387 -1.766951
0.786801 -0.951666 1.622907
1.900941 -1.126351 0.098922
0.039873 0.020194 -1.832876
1.794446 -1.405321 -0.292226
-2.043204 -0.932895 -0.311027
1.285426 1.665391 0.651865
-0.026242 -0.128805 2.422736
-1.146025 -1.053751 1.282002
-0.250206 0.092623 -1.818140
-1.210859 -1.665528 0.629757
-1.092452 -0.099646 1.908573
2.019319 0.712004 0.684700
-0.179795 -0.284673 2.331496
-1.797873 -1.366137 0.493784
-0.010382 0.116816 -1.859692
0.014252 0.312555 2.375584
-0.337056 0.460281 -1.823450
0.137544 0.059689 -1.807664
1.647454 -0.058591 -1.223818
0.071983 -0.716042 -1.763775
-1.452383 1.043611 -1.023334
0.245461 -0.588427 -1.712893
1.063636 0.197189 1.726884
0.394717 -2.270591 0.315910
-0.340728 -0.561255 -1.810490
0.072474 1.492930 1.447756
0.979869 0.863926 1.479145
-0.031520 -0.007155 -1.816324
0.164278 0.328926 -1.721672
-0.696736 -0.501440 1.850146
-0.677692 0.948072 -1.714966
-1.461732 0.698620 -1.254506
1.306069 -1.102148 -1.099397
1.752476 -0.529053 1.133618
-1.864934 1.305934 0.188740
2.158867 0.591811 0.455005
0.208304 0.251553 2.335402
0.709582 1.807407 0.839612
-0.011754 1.190660 1.845347
0.373193 0.208849 -1.764950
0.596903 1.477680 1.367643
-1.370185 -1.354670 0.900461
0.289282 -0.475518 2.223019
1.361607 0.795876 -1.329393
-1.496046 -1.826649 -0.125447
0.059729 0.005249 -1.788094
-0.139847 1.320982 1.479493
1.373507 -1.798698 0.133998
1.068858 -1.642239 0.873648
0.788394 0.188158 2.028705
-0.509163 1.777115 1.056068
0.989943 1.704246 0.798207
-1.648395 -0.754587 -1.095663
-1.653245 1.092968 0.721708
-0.057011 -0.041139 -1.903459
0.172793 0.389982 2.233652
-0.060102 -0.019863 -1.868637
-0.578117 2.164634 0.281344
1.746847 -0.041204 -1.184598
-0.097669 0.028294 -1.782351
0.414388 1.446892 -1.478777
0.694391 0.491086 2.062807
2.243216 -0.697911 0.068962
0.524743 0.686750 -1.691306
-1.996140 0.061425 -0.821404
-1.701061 1.646770 0.090250
0.678785 1.315995 -1.331485
-0.692687 0.220312 2.084441
0.366946 0.315228 -1.785409
0.349729 1.529728 -1.382806
1.191279 -1.460414 0.901004
-2.202829 -1.049665 -0.071023
0.055260 0.027465 -1.903829
-0.133051 -0.024565 -1.837656
-0.081917 0.221940 2.477476
0.213098 0.526920 -1.799686
-0.194227 -0.828413 1.986553
-0.774082 1.162203 1.543191
-2.292579 0.953297 -0.153336
0.680368 -1.291255 -1.362923
1.746732 -0.968989 -0.761600
0.015960 -0.200273 2.444698
-0.652647 2.301749 0.263263
1.451212 0.291502 1.422076
0.772917 -1.072323 1.529052
-0.267411 -1.779286 1.105804
1.216647 1.382323 -1.037808
0.973131 2.078145 -0.265009
0.108314 0.112294 2.402334
1.542691 -0.973418 1.068406
-0.211439 -2.010301 0.886349
-0.800167 1.760953 -0.799820
-0.026629 -0.121046 2.521045
0.296870 0.882979 1.998301
1.496692 -0.799207 -1.208290
0.091576 -1.838796 1.205248
-1.003701 -0.940740 -1.676856
-2.345751 0.029349 -0.205724
0.000828 -0.051323 -1.848244
0.924066 -1.658893 0.848129
1.354203 0.994579 1.187144
1.271927 -0.412217 1.626980
0.006288 -0.010196 2.532034
-0.527860 -0.228863 2.229158
-0.100686 0.026084 -1.841666
-0.791068 -1.761816 0.913929
2.346522 0.419998 -0.157603
1.474043 0.829579 1.131453
-1.303818 0.651244 -1.429001
-0.578862 0.489573 -1.805373
0.612828 -0.126515 -1.843329
-1.597287 1.075827 0.849013
-2.481440 -0.367562 -0.023019
-0.159682 -0.012428 -1.882348
-1.613794 1.580549 0.070974
1.090751 0.472702 1.644069
0.041024 -2.478695 0.216761
-2.467477 0.110925 0.063318
-0.314459 0.157383 2.282587
0.562473 -0.833000 1.836934
2.254528 -0.185466 0.431438
-1.590839 -1.627075 0.109829
-0.068786 1.574346 1.409383
-0.148569 -2.542644 0.015803
-1.459885 -1.761187 -0.130268
-1.283436 1.832432 -0.380844
0.369470 -0.617002 -1.833076
0.080282 -0.019676 -1.821808
-2.387184 0.100405 -0.496401
1.248094 0.559109 -1.634413
-0.520649 1.155861 -1.708902
-0.115281 1.005770 -1.647268
1.371942 -1.534130 0.617843
-1.456958 0.083100 1.435881
0.158617 -0.015873 -1.940941
-0.215009 1.051723 1.708196
0.184183 -1.260367 1.659046
-0.078936 1.516879 1.390972
-0.066536 1.537793 1.489448
-0.080352 0.425894 -1.822010
-0.194630 0.079220 -1.856480
0.591128 1.921853 0.562875
1.703133 -1.663653 0.071376
0.922894 -2.128866 0.267158
-2.271582 -0.280072 -0.444021
-0.080072 0.130993 2.537902
0.833232 -1.863380 -0.733838
-2.155798 -0.111061 0.617700
-0.782471 2.023188 -0.640602
-0.198010 -0.199643 2.419734
-1.146409 -1.728326 -0.603846
-0.978106 -1.977683 0.286494
-0.123133 -0.068762 -1.816099
0.730799 -0.453383 -1.825515
0.079245 -2.458392 0.386208
-1.177929 -1.641456 -0.748070
-1.331665 -1.013508 1.067520
1.567393 0.161631 1.414623
0.202197 0.412424 -1.778658
1.588320 -0.006186 1.359829
-2.188061 -0.411126 0.498632
-0.229235 0.024638 2.432742
-0.273530 0.081454 -1.856401
2.434644 -0.286616 0.149829
0.934926 1.694180 0.773095
2.282666 0.863710 -0.006678
-1.931324 -0.097374 1.126236
0.092356 -0.090392 2.531363
-0.321933 0.416875 2.203585
1.979354 1.150347 0.131115
-0.251371 1.823569 -1.104382
-0.458372 0.576205 -1.746301
2.436747 -0.398995 -0.073589
-0.860788 2.195730 -0.193042
0.940402 2.132505 -0.173397
1.014876 1.656569 -0.621853
0.098308 -0.079349 -1.847481
-0.164342 0.381127 2.262783
1.941749 -1.165762 -0.268616
1.689494 -0.040307 1.160576
-0.740391 0.118054 -1.773135
-0.466490 -0.077104 2.245731
-1.682558 0.317067 1.175487
-2.144094 -0.713960 -0.392091
0.537317 0.046652 -1.886460
1.061966 2.105459 -0.088908
-1.070152 -0.935877 -1.517203
0.262766 -0.500979 2.192701
2.422503 -0.366985 0.024760
-0.328692 -2.468731 -0.011580
1.374304 1.178936 -0.918737
0.605606 -0.549340 -1.791857
-0.345362 -1.186285 -1.547504
-0.547289 1.026807 1.740832
1.680693 -1.379710 -0.347155
0.091089 0.652907 2.071671
0.918612 0.788263 1.680194
1.266303 0.321109 1.651083
-0.895924 0.382901 -1.846820
0.764101 1.608795 -0.872405
0.835554 0.122823 -1.781360
2.230250 -0.788056 0.310656
0.326163 -1.816189 1.130203
-1.082943 -1.616880 -0.751809
-0.662269 -1.965600 0.750957
-0.643457 -1.035988 -1.684503
1.907544 1.008620 0.571825
1.583567 -0.676297 -1.115440
-0.305790 -0.964563 -1.836056
1.111531 1.278319 -1.170368
0.583236 0.065570 -1.868165
-0.361313 1.287283 1.568569
-0.302829 1.941236 0.813823
0.209191 0.143614 2.508304
0.135901 -0.318652 2.457268
1.016224 0.438577 -1.740116
-0.436482 0.363761 -1.791038
0.949998 -1.878324 -0.626728
-0.884564 -1.228089 -1.542319
-1.926096 1.314114 -0.011052
2.009634 -0.146064 1.039420
-2.144692 0.535371 0.459841
-1.160100 1.034831 -1.361819
-0.855563 1.154880 -1.585765
0.228784 0.981948 1.881426
0.835448 0.573089 -1.895569
-0.796867 1.495017 -1.005047
-0.684062 -2.262308 0.050487
-0.239006 1.439267 1.362228
0.341296 -2.047072 -0.841961
-2.501816 0.413251 -0.144852
-0.290946 0.740970 -1.812879
1.378925 -0.619384 1.467395
-1.203160 -1.439829 0.956268
-0.029340 0.017373 2.466270
-0.326019 -0.215073 -1.680395
-1.396372 0.134150 -1.569836
0.288132 0.995864 -1.794126
-0.668757 -0.082644 -1.828932
-1.071297 1.619413 0.836388
0.469203 -0.406441 2.097131
2.186181 -0.659155 -0.415470
0.222486 0.044710 -1.902159
1.438985 -0.362222 1.438841
-1.792360 1.436178 -0.303195
-0.053874 1.131072 1.888402
-1.517348 -1.901376 0.158335
-0.258397 0.621713 2.238871
0.815727 0.227416 1.895519
-0.062943 0.594769 2.196383
0.376251 -0.083757 2.257262
-2.316668 -0.391614 -0.173384
1.099949 0.052266 1.923891
-0.370096 0.249815 -1.785990
0.017361 0.756142 -1.733652
-0.580205 -0.371002 -1.827384
-0.282352 2.115700 0.676463
0.209978 0.066921 2.405747
-0.280585 0.848884 -1.775606
1.703997 -1.638302 0.064675
0.187615 -2.433243 0.069194
-0.204566 2.496997 -0.195756
0.175475 -0.521456 2.192263
0.277449 -0.551279 2.228396
0.448515 -0.946319 1.862801
-1.470286 0.834769 1.312596
-1.934995 -0.698969 0.595261
1.714876 -1.716483 0.039641
0.895002 2.252917 -0.022358
-1.758356 1.466711 0.162340
0.964311 -2.054465 0.066573
-0.135357 2.296614 -0.380459
0.018472 2.111033 -0.780454
-0.035499 -0.075160 2.550628
-2.428566 0.039212 -0.393375
0.191213 -2.475043 0.023565
-2.320576 -0.579776 0.132220
2.022979 -1.287132 -0.067907
-0.065922 0.101395 2.435395
-0.199365 -0.350312 -1.778738
0.121581 0.001380 2.470483
-0.150620 0.726080 -1.790877
0.055343 -2.154122 0.731684
-0.012515 -0.040669 2.588253
0.394512 1.983136 -0.769098
-0.007577 -0.053726 2.513157
-0.063466 -0.079922 2.385642
-2.277481 0.514641 0.346159
1.457802 1.797032 -0.066893
-0.628092 -1.498720 -1.314984
-1.674072 -1.335254 0.502692
-0.084110 0.420902 -1.781645
0.914739 1.764245 -0.687183
-1.878710 -0.486517 -0.897844
-1.731627 1.475349 -0.038778
-0.033798 0.009664 2.489903
-0.740896 0.737918 1.750000
-0.155772 -0.023835 2.525770
-0.115704 2.042409 0.746572
0.161420 0.256849 2.454103
-0.620401 1.177049 -1.471134
-0.499528 2.026565 -0.835270
-1.880017 -0.336038 0.939689
2.406117 -0.503319 0.047783
0.978003 1.626739 -0.920141
-0.103810 0.309738 2.421593
-0.341093 -1.963332 -0.887404
2.110020 1.014806 0.242084
3.220356 0.065096 0.023702
1.335049 0.783017 -2.182459
0.435061 -1.654431 -1.359125
3.390830 3.044568 -2.644259
2.794519 1.422354 1.592100
-1.876638 2.765080 0.542166
-0.954714 -0.100661 3.098533
-1.583475 -2.984385 -2.031369
-1.786741 -1.437571 -0.554842
1.645312 -3.171051 -0.736373
-1.699113 2.443080 1.356007
1.395745 3.378962 -0.761302
2.415891 -3.110509 1.100486
2.137993 0.397424 -1.316298
3.132610 0.260789 -2.389323
2.033220 1.580030 -0.449676
-1.861393 1.287990 2.511191
-3.386836 0.494977 0.180539
-0.434625 -1.866079 -1.588343
1.319279 0.978724 2.267129
2.925706 2.118770 -2.499131
-3.441883 -2.549037 1.885747
-1.309369 -0.156196 1.090400
-1.179209 -3.351870 -1.365903
1.113175 -3.129740 2.908571
2.034562 1.271677 0.729199
2.762020 0.554434 -2.270991
1.251300 2.307029 2.372615
3.006584 3.451422 0.526627
-2.414696 2.942123 1.031191
-0.117794 -1.555041 1.305256
-2.189194 0.920432 0.425327
1.251274 1.294213 2.250038
0.364186 2.374670 -1.312677
1.390500 -1.914374 1.899915
0.470527 2.661806 -0.783858
-3.295534 -3.464215 2.646118
1.744638 -0.731246 0.306646
-2.721010 1.166072 3.474734
-0.906088 0.471126 2.219933
-1.686729 3.487732 0.283205
0.474544 0.888123 1.659309
-2.155080 0.195236 0.400540
1.505485 3.373381 1.278568
2.833809 -1.514229 -2.302208
-1.115077 -0.986552 2.221502
-1.116146 3.055527 -0.982688
2.018640 -0.368877 -1.214171
2.647837 1.480381 0.483573
-0.885633 0.120430 -1.665923
-1.892307 2.977799 0.449029
-2.348257 -1.771671 1.238800
-2.986946 -3.090687 -1.133538
-2.676521 3.343911 -1.898558
0.565663 -3.103486 0.280507
-0.081477 0.299437 -1.168140
-0.808631 -0.367287 2.423363
-2.093676 -2.504833 -1.598090
-2.213021 -1.942823 -2.213700
1.253525 0.060128 -2.675897
-0.618198 0.721832 0.052669
0.898544 -2.891725 -0.416220
1.328504 -0.530007 -0.273846
1.959320 1.719927 -1.943026
-2.390548 -3.392452 1.369650
-2.792919 2.054954 1.151168
0.093365 -2.443477 -1.490397
2.148794 -0.953328 1.445479
-1.946803 -1.852877 -0.905743
2.669295 -3.029461 1.694597
3.268967 -1.898379 -2.224267
-2.975028 1.146861 1.658627
0.770746 2.621616 2.383894
2.891887 -0.213323 -1.224912
-2.783269 1.819759 3.396958
-0.186048 -3.330600 -2.024411
3.492277 3.205030 2.119738
-0.297415 -3.274405 -1.223464
1.271783 3.336043 2.700269
0.346646 -3.411396 -1.410177
-1.875152 2.196163 1.203940
-3.221625 3.491408 2.872586
3.270914 0.748440 2.928965
-2.618644 -2.146474 -0.268742
-1.510383 1.491602 -1.005732
3.098670 -0.711411 -0.674439
2.432328 -2.656504 2.255216
0.630947 1.497240 0.460835
-2.938244 3.266739 -1.190703
-3.240905 -0.581260 1.736457
-1.322401 -3.457112 0.610742
-1.406491 -0.576435 -1.761322
-3.361487 -0.967568 -1.668806
0.933814 0.309181 2.136379
1.171224 -1.940028 -2.683971
-2.509048 -3.031729 -1.230716
-0.283210 3.170571 1.793921
-0.888668 -0.945155 1.237544
1.080537 0.970607 1.327811
1.437539 1.989028 1.014450
