ply
format ascii 1.0
element vertex 2100
property float x
property float y
property float z
end_header
-0.845008 1.638109 3.233302
0.778460 -1.643079 3.004141
0.886733 -2.730135 1.326129
1.817314 0.316577 3.175808
-2.576782 -1.161321 1.097681
0.833780 -2.628560 0.441336
-1.620204 -2.398833 0.552506
-1.766532 -0.801733 2.708280
2.155350 -1.836004 1.313244
0.974342 2.756603 1.140774
-2.215609 -1.596039 1.582101
0.123236 1.772713 3.261447
-2.776104 0.942331 0.809989
2.091763 -1.700539 0.270782
1.620828 0.675345 2.730699
-0.616296 -1.756948 2.637572
2.526024 1.205863 0.534462
-0.996574 1.449721 2.653044
2.164574 -1.504414 1.668111
2.105127 -1.454125 0.051705
-2.114246 -0.474204 2.152145
-2.782553 -0.154690 0.563183
-1.798824 0.326481 2.564667
-1.575958 -1.313081 2.099338
2.012447 -1.994550 0.781532
1.034553 -1.718824 2.270618
-2.832330 -0.486080 1.404317
-1.765906 -0.552369 2.403964
-1.104033 1.489824 2.663335
1.352848 1.078314 2.658381
2.506983 1.369875 0.543269
-0.360818 2.690061 1.426897
-2.255204 1.891233 0.697189
-1.780868 -0.528596 3.297481
-0.047970 1.670605 3.182189
2.347618 0.864882 0.076668
-1.215029 -1.558033 2.471346
1.426040 -0.966355 3.291277
-2.364355 1.454103 1.470833
-0.868608 1.957532 2.067024
2.021523 0.542050 2.358926
-2.856850 -0.485175 0.926171
-2.049086 0.542717 2.225117
1.342102 2.265622 0.240879
-2.776507 0.708913 1.106796
0.341967 -2.880107 0.773561
1.052485 1.334500 2.527572
2.171160 -1.782174 0.835927
-1.481452 2.088036 0.104052
-0.113990 -2.181234 2.112423
0.014510 -2.768666 1.455783
-2.274405 -0.058722 1.930392
0.945518 -2.657374 0.822700
0.090418 2.464443 1.843605
-0.640428 1.709686 2.973058
2.119603 1.135439 2.080841
2.400086 -1.525239 0.703505
0.998650 2.636952 1.573521
-2.504968 -1.491363 1.144961
1.620128 0.658994 3.050433
1.144198 1.353716 2.627602
0.603955 2.670096 0.474521
-0.838727 1.881770 2.287688
1.484571 1.375698 2.249085
-0.395655 -1.732856 3.256734
1.327149 2.509778 1.124979
-1.841500 0.079427 2.800770
-1.372456 1.672961 2.143895
2.463909 1.247122 0.344930
0.139518 -1.750676 3.191994
1.721262 1.754037 1.806612
1.343325 -1.018051 3.016763
-0.211187 1.720606 2.740096
-0.066247 -2.667823 1.677297
-1.649084 -0.495743 3.362162
0.981576 1.476681 2.711741
2.620973 -0.841417 1.214529
-1.542086 2.463505 0.874494
-1.331976 2.422637 1.448516
-0.363201 1.828532 2.732879
2.818343 -0.388851 0.688052
-1.950905 -0.341498 2.208243
2.052936 1.741521 0.220520
1.870686 -2.089836 0.361047
0.629065 1.912109 2.361469
-1.448069 -2.215332 0.404142
-2.445899 1.510930 1.063179
1.874495 0.381214 3.424863
1.564775 0.906269 2.990777
0.336763 -1.774505 2.834002
-0.589485 2.065927 2.058628
-0.870290 1.516188 3.410494
1.532731 -2.451538 1.196250
1.673466 0.717536 2.568058
1.421000 -2.492955 1.557425
-1.123074 1.442289 3.133727
-1.692210 0.589072 2.553337
-2.344069 -1.486772 0.305586
-1.273160 -2.527005 0.597883
1.339979 -1.035703 3.263471
1.402289 -2.423770 0.574793
-1.469748 -1.725833 2.070486
-1.738996 0.080116 2.930820
-1.648713 -0.627286 2.671087
2.732944 -0.909242 0.940575
-1.074967 -1.578008 3.118841
-1.253235 -1.804505 2.057623
0.743962 -1.795870 2.390103
2.084113 2.043193 0.845787
-1.436513 1.162735 2.465993
2.694737 1.137894 0.768754
-1.762750 0.734398 2.401735
2.869879 -0.450341 1.179997
2.722986 0.341327 0.295076
1.032073 2.616421 0.401205
-2.823107 0.441829 0.876980
2.294481 0.239220 2.005592
0.530392 -2.563730 1.685068
1.670025 -1.116376 2.296692
0.595426 2.647769 1.519344
0.048678 -1.956241 2.289887
1.982364 0.254565 2.353402
2.966658 -0.234386 1.348197
1.898995 -2.305446 1.109688
-2.731906 -0.294427 0.407818
-0.409508 -1.689409 3.088249
-2.508398 -0.993859 0.288730
0.261591 2.538753 1.862922
-1.420223 1.034318 2.547863
-2.026411 -1.852345 1.347254
-0.676285 1.599890 3.366337
1.254249 -1.486786 2.302126
-1.843514 -1.886430 0.092639
0.836385 2.799267 0.745600
0.667881 -2.557388 1.505162
1.176548 2.310096 1.758114
-1.836130 0.188669 2.533191
2.572169 -0.461513 1.593366
-1.192302 -2.505682 1.483796
2.667144 -0.687955 1.450527
2.890702 -0.071319 0.555481
2.565386 -0.172134 1.722606
-2.080457 1.933123 1.276802
1.617860 -0.935187 3.222280
-0.017827 2.086481 2.234221
1.815799 0.073566 3.274179
-2.900891 -0.205689 1.246756
-2.297088 -1.081510 0.059987
1.866024 0.765355 2.277595
-0.226163 2.855042 0.946469
2.865214 0.116738 0.699661
-2.231089 -1.067923 1.958474
2.639302 -0.695150 1.596460
-1.896326 -0.002456 3.089983
0.866763 1.596896 3.264146
2.650382 -0.347363 0.211859
-0.386902 1.737055 2.806567
-1.044524 -1.502602 2.811979
2.530599 -1.396607 0.760816
1.294828 1.288497 2.586807
1.016308 -2.583925 1.344786
2.483560 0.537476 1.719413
-0.190106 2.971250 0.726946
-1.383585 -0.964276 2.774310
-1.442319 2.291504 0.683712
-1.926657 0.813729 2.216490
2.112603 -0.884077 1.992053
0.935638 1.589432 2.588175
-1.847509 0.106286 3.071751
-2.666221 -0.564901 1.586390
-1.070184 -2.233461 1.862061
-1.184588 -1.252727 3.325468
-1.796526 -0.606064 2.321499
-2.335922 1.051327 0.084800
-0.778701 2.731651 0.655969
-0.125662 2.671147 1.763694
-2.579969 1.464030 1.001410
0.774538 -2.850367 1.088732
-2.665150 0.088693 1.573729
-1.381382 -2.410743 0.417164
2.777318 -0.309445 1.443520
-0.172042 -2.722548 0.513685
0.668358 2.663002 0.400017
0.083040 -1.872061 2.485341
0.665165 -1.615605 3.078914
-1.540390 -1.064877 3.359155
-2.087538 2.043871 1.329170
1.230513 -1.373992 2.933836
1.927467 -0.451030 2.257104
-1.625926 -1.122052 2.331582
2.848269 -0.361005 0.525074
-1.467786 -2.405710 0.734559
-0.898640 -2.464341 1.677915
-0.180066 -2.770947 0.428457
0.585393 -2.736255 0.422877
0.272003 1.774512 2.592702
-1.936986 1.763791 1.648493
-2.183274 0.318591 2.187995
1.696373 0.539100 3.461432
-1.206833 -2.264568 1.817178
0.892335 -1.531939 2.496468
-1.719908 0.891050 2.338276
2.672971 -0.558754 1.661291
-2.687356 0.723743 1.383395
1.470251 2.510409 1.142002
-2.084797 2.020795 0.742699
1.690593 0.585150 3.071042
-1.746642 0.545454 3.412912
-1.795159 0.564538 3.245059
-1.603760 -0.991249 2.539558
-1.099199 -2.603966 0.565908
-1.666388 -2.120702 1.646195
1.181647 1.927252 2.231795
-2.408619 0.425985 1.875914
0.994140 -2.746063 0.913932
2.515878 -1.183131 1.581766
2.095859 1.916370 0.580268
-1.564943 -0.975223 2.951820
1.744256 0.450795 2.354380
-2.616952 1.247140 1.326794
1.670349 2.030037 0.325810
-1.691631 -1.672789 1.998061
0.959041 2.417608 1.723190
1.755663 0.527464 2.387515
-2.682541 1.136573 0.804633
1.583233 -2.264378 1.422608
2.009523 -1.669844 0.044576
2.077133 -1.551386 0.153096
-0.091314 1.787737 2.950491
-0.870942 2.548169 0.394945
0.700151 -1.683858 2.567310
-0.029695 1.700772 2.683705
1.760229 -0.290231 3.256898
-1.739403 -0.358455 3.442614
1.019222 -1.998491 2.040006
1.878381 0.221291 3.434169
-2.039702 -1.909674 0.604165
2.586868 0.000699 1.655764
-1.781215 0.160012 2.642150
1.458158 1.064738 2.848910
-2.706977 0.249966 1.536465
-2.674131 -0.905023 0.565624
-1.841775 -0.951364 2.233070
-2.090371 1.820216 0.470202
-2.016688 0.644053 2.115240
0.950476 1.455682 2.503904
2.782666 -0.284888 0.549526
2.741201 1.055949 1.073684
-2.488388 -1.383119 1.441965
0.142321 1.872238 3.021329
-2.338046 -1.232473 0.251546
-0.309019 2.859439 0.851660
0.614764 -2.775969 1.423946
1.002355 2.504684 0.265638
2.177180 1.888286 0.797287
-2.745736 0.659031 1.366930
2.558425 -1.113431 1.522484
-0.994590 1.565006 3.479263
-1.002298 1.501102 3.344869
-0.784499 1.598968 3.378796
1.399590 -2.612937 0.923275
2.665459 1.063808 1.237278
-1.759744 -2.052564 1.432703
-0.521399 2.442663 1.692587
0.315582 -1.863087 3.308617
1.342317 1.210710 2.841805
0.457996 -2.904993 1.363139
-1.113532 1.364110 3.435057
0.134022 2.389895 0.008104
0.770141 1.611117 2.762157
-0.704470 1.688213 3.138427
-2.806095 0.723898 1.245511
0.297491 -2.857872 1.204665
2.466941 -1.522356 1.185759
-0.236284 -1.705555 3.043539
-2.071033 -1.110350 2.007291
1.681017 -1.198220 2.224875
-1.716895 -0.056855 3.309646
2.630839 -1.341688 1.079033
1.078041 1.438288 3.053302
1.456522 -1.545373 2.298782
-2.895535 -0.401361 0.686248
1.726115 0.473203 2.698081
-2.276315 1.290061 1.773796
1.249274 -2.352580 0.231126
0.058009 2.551480 1.766304
0.245074 1.738411 2.775589
2.136521 1.631381 1.719293
-2.472761 0.279715 -0.030073
-2.477953 -1.114963 1.626161
1.444013 -2.514936 1.334614
1.508034 0.917293 2.561973
-1.818623 -0.173653 3.141105
2.024973 -1.943291 1.334597
1.996765 -1.828226 0.359704
1.655704 -0.687679 2.960191
0.774152 2.844636 1.217766
-1.518844 2.368866 0.635113
-1.008475 2.675808 0.636217
-2.577973 1.188815 1.093252
0.742927 -1.570115 2.966670
0.897982 1.594597 2.792428
2.610191 -1.063100 1.057367
-1.717943 -2.069791 0.250317
-2.674345 -1.153527 1.267147
-0.168848 2.800641 0.522933
-2.562354 -1.216237 1.191805
-1.917510 -1.866913 0.311476
-1.347110 1.223916 2.583231
2.574474 1.236137 0.673009
2.145991 -0.123760 2.162966
-1.450792 -2.353345 0.422231
-2.377003 -1.439848 1.618724
-0.091263 2.141087 2.210086
-1.813112 0.128928 2.686364
-1.040093 2.624975 0.546283
1.628668 0.620068 2.564595
1.663819 0.335486 2.553795
1.489599 2.520053 0.886896
0.917219 -2.607118 1.440517
1.220961 -1.345936 3.002620
0.715854 -1.616738 2.435694
-1.826640 -1.108969 2.230702
0.706429 -2.810389 1.103433
-2.322673 -1.568050 0.456390
0.114334 -1.739986 2.906667
2.216955 -1.965257 1.032479
-1.939710 -0.884368 2.161685
-1.903362 1.534069 0.067526
-1.490346 2.116960 0.249065
0.332335 1.760809 3.453487
0.607050 -1.695179 3.211135
-0.306623 -1.909623 2.291966
0.224149 1.634213 2.620922
2.881220 -0.530417 1.081080
-0.469170 -2.763110 0.605725
-2.185432 -0.647966 2.096847
-1.793358 -0.314458 3.132564
0.388108 -2.591331 0.282681
2.302681 -1.016422 -0.005823
2.060098 -0.559964 2.133137
-0.406164 2.878081 0.986637
0.576867 -2.170960 2.089211
2.201062 1.010512 1.903845
1.127707 1.398249 2.600791
-1.226831 1.342785 3.059779
1.645394 0.788576 2.438356
-2.821351 0.514117 0.956717
-1.550394 0.953873 3.338092
-2.370785 -1.495464 1.486866
0.111532 -2.353961 1.947375
0.601143 1.711612 3.516480
-1.750417 -0.718076 2.941253
-0.897399 2.660884 0.614089
2.344129 0.154540 1.945307
-1.471536 2.468676 1.295196
-1.711920 -0.491280 2.774898
1.094633 -2.409799 1.703023
-1.031624 -1.366899 2.459439
2.396568 1.710388 1.327545
-0.133421 2.913309 0.501119
1.183115 1.230411 3.284755
1.417145 -1.160764 3.262747
-0.487681 -2.875090 0.935729
2.473577 0.092042 1.715716
2.476888 -0.696464 -0.051466
-1.472536 0.995741 3.494388
0.627480 -1.869065 2.208018
1.891801 0.095636 3.520522
-0.150869 -1.833210 2.426758
-2.197742 1.841520 1.197906
2.742510 1.099283 1.023925
-0.784094 1.513713 2.561279
1.177545 -1.354936 3.066965
1.143286 -2.494521 1.619815
-1.590764 -1.981308 0.054193
2.661166 0.252607 1.707237
-1.695739 2.011858 0.255389
-2.888278 -0.204226 0.860355
0.328950 2.346346 2.001460
-2.346873 0.277346 1.982118
1.924466 0.030015 3.241148
-2.666319 1.193328 0.811146
-0.059817 -1.860812 2.677254
0.661310 -2.188827 2.053554
-1.282123 -2.546986 0.682293
-1.916793 2.207219 1.227381
-1.837565 -0.492999 2.975587
0.969976 1.701114 2.212211
0.860117 -2.346658 1.852386
-0.644340 2.779527 0.650043
-2.572291 1.227395 0.803334
1.570764 -0.893293 2.481804
-2.758535 0.472848 0.375658
0.703930 -2.341373 1.942932
-1.760554 0.057384 3.161593
-0.216871 -2.760644 0.387676
-0.207619 1.783628 3.013858
2.547683 0.517782 -0.051657
1.168964 -1.319155 3.530877
1.221911 2.493848 0.460900
-2.792176 0.684219 1.314582
1.103029 -2.253686 -0.011848
-0.140257 2.902015 0.975320
0.906989 -1.554999 2.777139
-1.438541 -1.399826 2.320022
0.485331 1.675915 2.938142
2.206606 1.323697 1.745809
1.289154 -1.140667 2.671194
2.508800 1.116490 0.513393
-0.868525 -2.849413 1.018286
1.794650 0.180446 3.453697
-1.854525 0.320761 2.767214
2.539172 -0.106179 1.599249
-0.445841 1.704831 3.221233
2.851639 0.312904 0.396370
-2.583544 -0.846723 1.501810
2.468259 -1.714783 1.028887
1.849202 -0.655165 2.261333
-1.220027 -1.254345 3.286439
-1.087161 -1.453326 2.424143
0.697981 -2.830016 0.950317
-1.959502 -2.226716 0.581032
-1.148069 -2.486868 0.407238
2.805090 -0.936624 0.827032
2.515402 1.503348 1.076915
0.422103 2.799411 1.537574
-1.769444 0.585593 3.230349
-0.132702 -1.778543 2.705614
2.220430 -1.584198 0.470675
-1.159469 2.546438 0.451762
2.314384 0.899537 1.906462
2.070280 1.787398 1.540107
0.708674 2.793363 1.284157
-0.223851 -2.055040 2.234908
-1.847043 -0.084809 3.444179
-2.633930 0.844423 1.445794
-1.886987 0.330523 2.376181
-1.433190 1.835417 2.005462
1.357623 -2.084603 -0.023644
1.527586 -0.981176 3.201827
0.987824 -2.694199 0.812538
1.420268 1.070327 3.034429
1.805336 0.214205 2.764824
0.738088 -2.751042 0.608355
-2.974482 -0.146770 1.030173
-2.833104 0.199526 0.446955
-0.067325 2.890327 0.952888
2.518890 0.144674 1.962205
-1.642847 0.594073 2.917741
-1.726921 0.603464 3.274307
-2.749516 -0.693018 1.025387
1.392314 -1.064547 2.515109
2.468980 1.389231 0.875721
-1.838942 0.556570 2.269634
1.160067 1.951701 2.144961
-1.754722 0.431829 2.807389
-0.424705 -1.736002 2.979049
2.173670 1.897513 1.485267
-2.549832 1.156477 1.313783
-1.936657 2.081761 1.582337
-1.780418 0.136940 3.355182
-1.730578 0.363330 2.943902
-0.748551 1.599056 2.612231
1.990523 -0.324626 2.297754
-0.760973 2.073843 2.185628
1.267316 -1.267311 2.396745
-0.093412 2.253328 2.108395
-1.526309 0.862972 2.774235
-0.968204 2.633961 1.448171
0.249318 -2.577420 1.726666
-1.144051 -1.288959 3.083800
-2.161777 1.773731 0.507337
2.737087 -0.660536 1.614367
-0.390263 -2.260649 1.968478
0.192983 1.706098 2.826482
1.507920 -2.453364 0.888168
-0.390576 1.860289 3.346396
2.003847 -1.862249 1.502834
0.692468 2.687012 0.598182
0.428003 2.778042 0.406692
2.830149 -0.061311 1.380446
2.159672 -1.847941 1.311806
1.463382 2.370657 0.649727
-2.230299 -1.811572 0.932781
-0.311882 -2.281681 1.955862
0.748562 2.844012 0.750198
-1.850432 1.790532 0.137849
0.669566 2.428941 1.751791
0.341671 -2.168346 2.185836
1.469992 1.050879 2.585059
-0.699927 -2.535050 0.210917
-1.317952 2.482036 1.452886
2.174030 0.245854 2.178732
-1.056464 -2.720981 1.423649
-2.374312 1.026638 0.200517
-1.567519 1.392813 2.270692
2.175277 1.931408 1.155882
0.567350 2.610912 0.121500
1.753183 -1.964294 0.010871
-1.337448 1.191253 2.707218
1.764445 -2.037719 1.732286
-1.642369 0.666399 2.683110
2.204163 -0.707549 2.072543
0.944745 2.783429 1.125919
-2.192445 -1.911190 0.884064
-1.756493 -0.496013 2.775655
-1.091301 -2.593521 0.543430
1.265972 2.688225 1.338124
-1.856673 0.280259 2.631888
-0.387010 1.808521 3.061577
0.606190 2.927288 1.153480
-1.254898 1.390926 2.652635
-0.679615 2.272298 1.968745
2.316388 0.998885 1.661265
-0.287446 1.812250 2.716239
1.498064 0.977680 2.673793
0.599061 2.789194 1.068508
1.220699 1.291966 3.328383
1.620057 2.341888 0.454890
-0.594311 -1.690698 3.038949
2.068522 1.946154 0.757335
-1.019085 1.586839 3.187471
0.707833 -1.583467 2.976193
1.458019 -1.080967 3.255175
-2.584821 0.949797 0.309577
2.433221 1.713117 0.928052
-0.067136 -2.586066 0.186488
2.722601 1.270714 1.063854
-1.138223 -1.879322 2.128194
1.990306 -2.074234 0.997236
-1.845605 -0.089238 2.911787
-0.131287 -2.742570 0.397436
-0.029013 2.793910 1.497222
0.961375 -1.547868 3.001986
0.412099 -1.689788 3.341052
1.817207 2.321709 0.902540
-0.283661 -2.832602 0.762343
1.598382 0.654882 3.054216
1.741596 -0.833870 3.346183
-0.927530 2.667693 1.376593
2.460146 1.408613 0.653009
-2.286996 -1.801583 0.810267
-1.241581 1.639552 2.313936
-1.536544 -1.034420 2.453104
1.826482 -0.239270 2.476664
1.495255 2.502113 0.804084
1.322654 -1.154819 2.714154
-0.004979 -2.895467 0.896139
2.440875 0.200109 1.906658
2.760716 0.840829 1.004266
-0.467923 1.679803 2.766339
-0.066837 1.943193 2.494856
-2.817177 -0.981820 0.840065
1.523452 -1.289648 2.323499
1.669763 -0.629835 3.334142
-1.604172 -0.835389 2.516383
1.589617 -2.493716 1.137165
-1.530383 -2.085082 0.201769
-1.519115 -2.619482 1.130863
-2.073820 -2.140615 1.211566
-2.126597 1.550611 0.149644
-1.890866 -0.401943 2.408066
0.193704 2.704369 1.653968
-0.188531 1.844933 2.506772
1.776745 -0.514555 2.757847
-1.956421 1.700357 0.039754
1.750979 0.484683 2.511860
-2.201006 -1.699562 1.375050
-1.527189 0.730750 2.777832
0.157758 2.577702 1.770146
1.725024 -0.697246 2.532597
0.624593 -1.744451 2.810947
0.542345 -2.805022 0.606995
0.483449 1.734573 2.964672
-1.389891 -2.564851 1.047602
-0.848739 1.628150 2.996479
2.465237 -1.445273 0.986687
1.477814 2.355987 1.515421
0.501230 1.795278 2.860209
1.983979 1.807811 1.696657
-0.242568 1.707825 3.505735
-0.480912 -2.460110 1.747317
-2.462905 0.616460 1.853335
2.663733 0.518792 0.284171
0.872579 -1.635751 3.208820
0.484837 1.791700 2.813275
-2.263453 -1.163107 0.102958
-1.137267 1.371867 3.441385
2.467330 -1.205181 0.341849
-2.832910 0.632911 0.443417
-2.299110 1.734162 1.209322
-1.855973 -2.310003 0.952479
-2.409169 -1.008983 1.625830
-2.408854 0.820881 0.038182
1.707966 0.594741 2.785877
-0.312227 -2.728268 0.392581
-1.812714 -1.492947 2.109988
-2.647498 -1.041770 1.415095
1.644827 -0.757834 3.169560
-1.160934 -1.703732 2.359552
-0.852104 1.646774 2.530878
-1.806835 2.271049 1.131135
2.965775 0.181726 0.697548
-2.540100 1.353853 1.202945
-2.487943 0.867835 0.204549
-0.899311 1.629608 2.807318
2.342576 1.295530 1.775377
1.096028 2.693690 1.067719
2.262197 0.786589 1.937172
-2.306160 -1.625139 0.605429
0.071730 1.809494 3.177984
2.279541 1.482123 0.357182
0.256352 -1.850348 3.191387
-1.533850 -0.884094 2.818491
1.659083 0.695751 2.639094
-0.578050 -1.649133 2.697759
1.201423 -1.310624 3.384078
1.935549 -1.683573 0.090343
1.476764 1.058932 3.286212
1.522917 -0.959199 2.779541
-1.045711 -1.584403 2.538829
-0.611898 1.637949 3.249033
2.825910 -0.543092 1.135485
-1.758373 -0.404620 2.398017
-2.582433 0.096535 1.913087
1.295060 2.446054 0.254937
1.704669 -0.084243 2.573457
-1.668826 -1.684792 1.924296
-1.701984 -1.223301 2.244542
1.753245 2.293391 0.679158
0.723286 -1.759647 2.435715
-1.341324 -1.138752 2.743865
0.218928 2.661754 1.670088
-1.771694 -0.340118 3.345078
-1.732501 -2.344244 1.326932
-0.031102 -1.846001 2.523670
-0.774761 1.601677 2.429149
-1.728086 0.258520 3.227517
-1.561852 0.992741 3.390298
1.726159 0.343952 3.295398
1.189806 1.279689 3.399737
-1.396102 1.202732 2.937030
-1.439887 1.038057 3.371858
-2.867854 0.420907 0.738232
1.072399 -2.670350 0.933472
1.229134 2.429180 0.473918
2.363030 0.677933 1.824930
2.130239 -2.002444 1.185948
-1.394441 1.049630 3.182005
-1.235073 -1.515229 2.321798
2.021393 -2.074137 1.241046
-2.378745 -1.599405 1.423252
-1.428685 2.688436 0.739423
1.450232 -1.348604 2.236405
1.738612 0.430098 3.470192
2.270533 -1.423940 1.595242
-1.997630 -2.097485 0.658828
-1.732799 -1.191621 2.098284
1.015613 -1.490889 2.574864
2.751799 0.906214 0.679418
0.435683 2.073829 2.132081
-2.623866 -0.749327 1.480580
-2.689480 -0.685725 0.471189
-1.847766 1.684675 0.100883
-1.590363 2.080328 0.191132
2.424627 1.507288 1.373693
-2.537885 -1.199697 1.252373
2.081612 1.468745 1.686333
2.516099 0.437245 0.045939
-1.798087 1.463569 1.969476
1.836075 0.467734 2.331688
1.335206 -1.257102 2.901028
-1.574458 1.687339 2.016601
0.128932 1.727539 2.653297
-1.493883 2.157662 0.241381
-2.596310 -1.108726 0.522822
-1.385566 -1.077578 2.973413
2.398912 -0.673624 1.939889
-2.593679 -0.525502 1.586648
-0.093938 2.746691 0.699190
-2.617374 -0.774328 1.498673
2.363149 1.348815 1.473351
-0.522350 1.981650 2.149824
2.606041 -1.313890 1.093220
1.484714 -1.718601 1.996297
2.869161 0.181557 0.921953
-1.831451 0.173918 2.473522
2.640027 1.039237 1.339801
2.896050 0.200801 0.597672
2.289021 -0.743413 1.862367
1.299057 2.570183 1.304798
0.317737 2.756327 0.435163
-1.818429 -2.066477 0.415307
-1.948075 -0.397014 2.166973
2.800982 -0.436682 0.845572
2.349644 -1.552812 1.452975
2.118965 1.262437 0.016322
-1.851999 0.571781 2.371814
0.298408 1.893826 2.604088
-2.354987 0.923351 0.136143
-0.415288 2.675417 1.530535
-1.934166 2.163497 0.898582
-2.909385 -0.552556 0.907095
-2.608242 -1.147534 1.040326
-0.231981 2.546533 1.719144
2.055839 1.464953 0.031636
-1.341951 -1.254638 2.975145
1.008298 -1.450772 3.109223
-1.571884 -2.146504 1.562778
-1.116372 2.574093 1.454686
-0.736349 2.159725 2.104657
0.134632 -1.831785 2.840426
2.703042 -0.555536 0.347999
-2.329980 -1.148428 0.157148
-2.471113 0.143453 1.890231
-1.768554 1.461467 2.097960
1.489114 -2.089202 1.831014
2.410261 -1.451858 1.438148
2.508897 -0.806258 1.571985
-0.838341 2.764016 0.703028
0.585198 2.454722 1.902703
1.852793 -1.164828 2.224947
2.045365 2.068616 0.892725
1.709654 2.274008 0.398224
0.340254 2.034841 2.255304
-1.518534 1.669627 2.202203
-0.110970 2.671909 1.705838
-2.139787 -1.076658 1.924317
-0.689298 2.833409 0.586556
-1.144414 -2.458280 0.391390
2.659815 0.629300 1.473120
-1.543788 2.421939 0.885600
-0.351531 -2.738604 1.510653
1.539845 -2.398435 1.354810
1.307655 2.203747 0.312133
-0.070202 -1.806909 2.653798
0.836989 -1.617059 3.381080
0.827676 -1.482072 3.337922
-2.507929 -1.241449 0.539054
-2.706633 0.466245 1.636919
-2.660714 -0.588444 0.462305
2.553772 0.543528 0.320289
2.418269 -0.732939 1.898461
-0.100729 2.011975 2.314833
2.198689 1.691490 0.335057
1.774432 0.452227 3.481805
0.567191 2.711362 0.491475
1.565253 -0.911236 2.463058
-0.736728 -1.696324 3.192993
0.109120 1.690521 2.963848
-1.757427 -0.717487 3.086191
2.739675 -1.139751 0.866133
0.851453 1.518343 2.739225
2.050597 1.850802 1.371775
1.819097 -0.283168 3.403368
0.801642 2.661852 1.397671
2.523708 1.396044 1.323989
-1.979500 -2.049848 1.329075
1.023478 -1.758422 2.296364
-1.135383 1.361744 2.492012
-1.334210 1.105281 2.562022
1.603769 -0.819554 2.417609
0.944806 -2.198420 2.016991
1.204685 1.413689 2.554320
2.010298 -1.486633 0.006302
-2.676649 -0.034428 1.714503
-1.180716 -1.629291 2.422320
-2.045428 1.749454 0.331780
1.124337 1.429632 3.343845
2.303796 -1.772923 0.799672
0.842147 -2.690915 1.358536
1.096163 1.526611 3.461694
2.131026 -1.086650 1.826128
-1.291190 -2.472621 0.572055
1.223153 2.105717 1.968332
-2.481811 0.096191 1.850267
0.649995 -1.872605 2.258066
2.596472 0.195123 0.257405
-1.843617 2.043605 0.427684
-0.918235 -1.495277 2.555222
-2.204688 1.534562 0.247762
1.683505 -1.691970 1.959854
0.221247 -1.717394 2.969693
-0.886240 -2.611119 0.491613
-1.237836 -2.346399 0.181990
0.399320 -1.772167 2.877421
1.920191 0.529187 2.330997
-0.605147 1.656346 2.950084
-0.901847 -2.659325 1.345439
2.820097 -0.384850 1.372564
-2.001729 -2.056335 1.221628
-0.418035 2.878547 0.815936
0.715529 2.809718 0.845391
1.206454 1.360609 2.817517
2.085003 2.073601 1.196460
2.686312 0.383156 0.467536
-2.589488 0.885212 1.546040
1.425097 1.088163 2.719597
-2.768773 1.113420 1.075668
-0.994061 1.470230 2.600842
-2.851190 0.387949 0.677578
-2.873333 -0.491464 0.989112
2.509327 -0.959054 1.648861
2.742012 -0.626186 1.388824
-0.230940 -2.605217 1.619040
1.148457 -2.328856 0.113082
-2.154218 0.631347 2.127364
-2.455568 -1.069084 1.559646
-0.838789 -1.674774 2.859009
-1.637991 -0.801199 2.667911
0.827798 -2.687270 0.458338
1.449098 -2.330376 1.484813
-1.749532 -0.366533 2.696400
2.608810 -0.499405 0.477900
0.069987 2.022458 2.260818
-1.918475 -0.819463 2.341408
0.195556 -2.829844 1.067217
1.243241 2.292740 1.640078
1.774575 -1.168358 2.153923
-1.197483 1.732234 2.210049
-2.181345 1.769882 1.312554
1.252449 -1.410439 3.411289
-2.227034 1.483471 1.604945
-1.140866 1.389650 2.686294
0.623940 1.776752 3.524946
1.793538 -0.176658 2.512317
2.494059 -1.432047 0.915273
-0.937116 2.705310 0.973756
-0.005416 -1.752883 3.577158
-1.185201 -2.509968 1.534271
-0.916640 2.468756 1.621767
2.577110 -0.289867 0.269840
-1.583733 -0.846595 3.086099
-2.673621 1.043416 0.731083
2.356362 -1.429994 0.542995
-1.961129 -2.100484 1.203297
2.019804 -0.359373 2.319138
0.753990 1.888640 2.193042
2.121367 -2.089516 1.248379
-2.589304 1.353201 1.089389
0.924240 -2.767564 1.061218
0.662525 2.511263 0.213443
-1.598850 -0.891621 2.268127
1.821802 -0.415263 2.394126
-0.472161 2.522530 0.093946
2.795185 0.147322 0.645868
0.346548 -1.843422 2.367031
2.351938 -1.826525 1.203311
-1.361974 2.496088 1.412917
1.878840 1.888649 0.327202
2.445466 1.109770 1.491580
-2.386084 -1.665010 1.109801
-1.817539 -0.192845 3.397760
-1.909381 -1.602325 1.776384
2.123844 1.291662 1.809119
0.779009 -2.518685 0.126992
-0.834861 1.546808 2.363980
-0.605814 1.700998 2.754544
-0.962277 1.465861 2.841070
1.499087 0.974948 2.848333
1.112702 -2.537604 1.511226
2.470680 0.894405 1.642078
1.817640 -0.447063 3.153068
-1.302277 1.260250 3.284733
2.257298 -1.888514 0.849581
0.466150 -1.678808 2.738217
-0.725972 1.660039 2.771861
-2.531223 1.119986 0.478850
-2.554350 -0.926478 0.376110
0.876139 -2.637387 1.455434
-0.996676 -1.526285 2.560737
1.838512 2.027403 0.441233
-1.744297 -0.409432 2.967400
2.876735 -0.475240 1.214865
-0.609986 -1.624732 3.083200
1.940152 -1.860971 1.528548
-1.711201 -1.975927 0.242845
2.235294 -1.653017 0.328980
-2.520052 -0.578840 1.714230
-0.428720 -1.729790 2.821092
1.726675 1.294158 2.107197
0.896781 1.492814 2.910390
0.117527 -1.931159 2.322909
0.262719 2.806254 1.235131
-0.750236 2.295146 1.937157
1.058966 -1.706484 2.374856
1.356383 1.162255 2.768356
-1.805561 -1.951540 1.584772
2.902988 0.021447 0.869178
-1.665453 1.997613 1.685386
0.919930 -2.472078 1.644113
1.848521 -2.147350 0.508255
-2.740022 -0.894232 0.720516
-0.732044 -1.871044 2.358391
1.896678 2.106002 0.558062
0.743280 1.659978 2.777030
1.697774 0.498946 2.566629
2.316000 1.721883 0.490006
-1.588530 -1.198534 2.398317
-2.625605 0.962439 1.354379
2.412828 1.599943 1.030658
-2.527801 1.010808 1.453539
0.773935 1.679245 2.421643
-2.144313 -1.547946 1.642244
-2.548946 0.250211 0.023823
0.361703 -2.481660 0.059217
-2.530222 1.506892 1.089180
0.437704 2.412728 1.857599
-0.946743 2.342035 0.100964
-0.319359 2.857567 0.934737
0.721248 2.725965 0.562729
1.814793 -0.255643 2.790505
1.400767 1.568742 2.266190
2.024084 1.937638 0.986537
-0.102447 2.137090 2.257380
-1.737836 0.137745 2.796447
-1.523407 2.548187 0.822637
1.657334 0.705262 2.667371
-1.357693 1.270418 3.144020
0.239815 -1.786791 3.381225
-1.309092 -1.366584 2.672768
-0.307594 -2.636612 0.299281
2.764393 0.208255 1.509170
2.130558 0.557961 2.167916
2.283383 0.144724 2.110131
1.389746 -2.280574 0.353719
2.379180 -0.851659 1.724045
1.756556 0.461396 2.609222
-2.881946 -0.084996 1.169287
-2.785073 0.373387 1.443977
2.283806 1.385625 0.257163
0.713256 1.649557 3.394088
-0.640089 -1.898417 2.198368
1.723248 -0.345332 3.047197
0.768895 -1.713578 3.130772
-1.621554 -2.202084 1.524386
1.827569 -0.432866 3.340542
-1.088771 -1.547090 2.321743
-1.725027 -0.529034 3.182440
0.798156 -2.625798 0.586429
-0.707695 1.712634 3.429152
2.146272 -0.028633 2.220688
1.653407 -2.234620 0.528289
-0.084389 1.818684 2.445353
1.451092 1.735564 2.121787
-2.557610 0.994077 0.429292
0.216980 -1.769961 3.052354
-2.855544 -0.192103 1.373900
1.187644 2.073437 1.958993
0.759395 -2.751933 0.793997
0.969573 1.364676 2.997638
0.627272 2.840627 0.860864
1.686619 0.545561 3.026881
1.336458 1.944045 1.882769
-0.204489 -2.881435 0.907088
0.973755 1.432739 2.660752
1.691066 0.537873 2.561971
-0.058479 1.776767 2.571607
-2.518909 -1.091965 0.486773
0.382627 -2.810320 0.431679
-1.048444 1.496022 3.217625
-2.343000 1.070159 1.648309
1.332151 -1.287443 3.248804
0.219228 -1.867909 2.396565
2.800059 0.572506 0.697979
-0.127727 -2.527390 1.837320
2.845041 -0.745952 0.912621
-1.496980 2.394743 0.575133
-1.942088 2.295666 0.903936
1.308127 -1.306627 3.363285
1.332501 1.222656 2.850639
1.647930 -1.976032 0.014717
-0.479987 -1.631160 2.467640
-1.554820 -2.300343 1.440092
-1.901067 0.883111 2.293517
0.588003 1.950049 2.160386
-0.392977 -2.805863 1.154927
1.740851 -0.457026 2.804860
1.770890 1.732823 0.020739
1.893854 2.126489 0.591338
0.436706 -1.818899 2.839336
-0.986508 -1.560043 2.848825
-2.000440 -2.113086 1.072058
-2.175432 1.856044 0.975542
0.012602 -2.826381 0.494597
-1.290658 2.524997 1.239429
2.332087 1.633221 0.577487
-2.761275 0.819672 0.556535
0.386680 1.863053 2.448837
2.665000 -1.111789 0.755531
-1.777601 1.675445 1.871692
0.309478 2.933771 1.096109
-0.608639 -1.758380 2.373741
-1.550843 0.956416 2.481856
-1.583291 0.669525 3.170335
1.884253 -2.026775 1.599877
1.542281 -0.898415 2.851278
2.523598 -1.441031 1.218707
1.001261 1.416830 2.808520
2.668618 0.603477 1.455961
-0.934234 -1.532438 2.804688
2.200413 1.833349 0.759548
-0.765597 2.626379 0.366997
1.784714 -0.361165 3.184784
-2.847033 0.462581 0.932851
1.253214 2.088121 2.002693
1.116287 2.331718 1.714815
2.394955 1.569122 0.541413
-1.118390 1.420387 2.467852
-1.231761 -1.302434 2.606712
2.497912 0.852982 0.160561
2.746225 -0.705627 0.299197
1.552344 1.023451 3.071724
-0.399606 1.768506 3.345016
1.743275 -0.478160 3.325659
-0.465147 -2.337377 2.069145
2.773095 0.675672 0.960448
-1.347967 2.277519 0.206100
-0.477768 1.666564 3.220976
2.070421 1.826836 0.517246
-1.620822 -2.252847 1.472207
-0.130631 2.935261 1.291242
0.069703 -1.754831 2.939326
-1.568724 -1.623195 2.025749
2.251921 0.937354 1.871834
-2.168175 -1.684225 1.436558
-1.956934 1.972376 0.528333
2.375203 1.668560 1.159070
1.719290 -0.293402 2.732645
-1.152805 -1.977075 2.027896
-0.815584 -2.408546 1.855922
-0.378387 2.789638 1.497215
-1.578033 1.345456 2.306660
0.072596 2.030849 2.282131
2.062449 1.802768 1.625471
0.689893 1.942687 2.350353
-0.837130 -1.695265 2.911553
-1.853072 -0.997565 2.276720
0.945952 1.604612 2.668479
0.400037 -1.768813 2.528210
-2.558111 1.043096 1.533419
2.725765 0.776221 0.464234
2.545693 0.105060 0.169540
-2.158096 -1.510354 0.193590
0.808761 -2.438480 0.188217
2.580679 1.187751 0.872540
0.758974 2.815643 0.930599
2.377972 -1.156980 1.705611
-0.434370 -2.739451 1.532519
1.545415 1.978674 1.818356
0.898086 1.645028 2.516299
0.777269 -1.565811 3.593461
0.716535 -1.563918 2.637511
2.271142 0.975837 1.867067
0.820263 2.607440 1.620532
-1.903340 -1.712654 0.077408
-0.758830 2.606763 0.498110
1.943187 -1.610926 1.913223
-0.111674 -1.782807 2.478538
2.201058 0.472947 2.042557
-0.952664 -1.569153 2.979697
1.780714 0.382021 2.707711
1.271210 1.115870 3.383625
1.310893 -2.495107 0.687383
-1.249206 1.676038 2.240843
0.120935 -3.006592 0.951949
-2.643805 0.422226 1.518793
0.572656 -1.716485 3.426249
0.553371 -1.750023 2.810264
-2.714390 0.737496 0.503538
2.188347 -0.574189 1.995454
-0.717459 -1.805738 2.323356
2.940882 -0.570784 0.997481
1.392984 -1.174707 2.693357
0.988033 -2.331250 0.158110
-1.659954 -0.573179 2.812958
-2.118542 0.437031 2.086696
-0.229984 -1.843618 2.627497
1.397726 -2.383824 0.585378
0.619245 -1.718637 2.460518
0.015160 -1.789334 3.166266
-1.848277 -2.049332 0.347945
0.790522 -2.930068 1.049946
1.756362 0.383160 3.373343
0.662700 2.551779 0.162764
0.784283 2.764935 0.763929
-1.802078 1.245715 2.139157
-0.213108 1.748929 2.746042
2.572521 0.747436 0.420067
0.115352 2.966376 1.065667
-2.793292 0.517337 1.209427
-0.110195 1.779614 3.205338
1.826108 -0.177976 2.596669
-1.207316 1.197068 2.874632
2.832541 -0.604911 0.762251
-2.588266 -1.298920 0.914144
-2.683443 0.711333 0.504952
-2.167481 -1.899738 1.203780
-1.615469 0.701135 3.097123
1.647719 -1.500160 2.075492
-1.352111 -1.131605 2.574123
-0.194708 -2.360444 1.996097
-1.017605 2.306091 0.098929
-2.607673 0.731919 1.329665
-1.569755 1.917327 1.793665
0.980412 2.132838 1.955917
-2.762283 1.094568 0.894748
-2.498117 1.677065 1.078969
2.846656 -0.388010 1.301039
0.625649 2.012673 2.173248
1.421371 2.347688 0.393406
-1.073629 1.500112 3.414405
2.061886 -2.042230 0.742964
0.397055 -1.747404 2.906403
0.765837 -2.572242 1.552576
-1.922423 0.077673 3.036758
0.524825 -1.723249 2.571639
-2.624512 -0.787362 0.377273
-1.777018 2.344728 0.790631
-2.419706 1.345653 0.422661
-1.904932 0.289414 3.147055
-0.547851 -2.872735 1.139568
2.599842 0.254068 1.829464
-1.631964 0.776312 2.734630
0.957754 2.722447 1.180355
2.540896 -1.078025 1.467839
-1.715097 1.488014 2.071458
1.393613 1.635933 2.127484
1.567285 0.489855 2.536045
0.854401 2.222880 1.910591
2.346415 1.609031 0.838703
2.832172 0.498175 1.252958
-1.030396 1.516575 3.054727
-0.815309 -2.532350 0.311847
-2.433577 -0.484195 1.862916
-2.128478 1.532073 0.190511
-0.172290 2.855979 0.759637
1.043887 2.328891 0.201187
-0.406056 -1.736757 2.506832
-1.758388 0.610761 3.068534
0.434278 -1.721245 3.438330
1.692497 1.389328 1.989093
-2.649016 -0.640467 1.591926
-2.029540 -0.545477 2.113213
-2.848038 0.758849 0.894751
1.816758 0.351791 2.521971
1.817174 -0.088508 3.489105
1.389760 -1.198446 3.003754
-0.683414 2.711687 0.599845
0.972763 -2.436377 1.749808
-1.874491 1.732657 1.891197
-1.276323 -1.474482 2.383201
2.325699 1.060622 0.094283
-2.430112 -1.637901 0.635242
1.843205 -0.140979 3.426032
-1.076209 -2.678735 0.842559
0.027400 -1.808284 2.749665
-2.482535 -0.683366 1.640829
-1.696203 0.412466 3.344280
-0.012630 2.334997 2.101876
-0.965469 -1.990532 1.894334
1.667415 -0.640818 2.533986
0.901838 -1.583356 3.241498
-2.201079 -1.065746 1.862022
1.636744 0.743578 3.355527
-1.394314 -1.206538 3.380481
1.615694 1.270367 2.285286
-1.066480 -2.717992 1.195296
2.338641 -0.561239 1.898678
2.068298 0.141974 2.271149
1.434315 -2.225670 0.384838
-2.144949 2.035355 1.164810
-1.813856 -1.008969 2.219041
-1.817795 1.747954 1.853648
-1.515910 0.987729 3.035390
2.484398 -1.530359 0.895799
-1.421087 2.406436 0.654077
-2.449215 1.439789 0.780009
2.510051 -0.504192 0.074650
-0.147968 2.373973 1.899401
0.565579 -2.440034 0.127962
-0.159312 -1.808022 2.743262
-2.906169 0.040120 1.005309
-0.941014 -2.729097 0.790545
-2.754917 0.522323 0.405855
0.850681 -1.680406 2.225385
1.732690 0.207071 3.269965
-0.937665 1.617254 2.821338
-1.081328 2.572599 1.419983
-0.643670 -2.603214 0.174525
-2.488729 0.991381 0.363986
0.598019 1.695279 2.966876
-1.625214 -0.842094 3.263308
2.618412 0.712782 0.368159
0.319800 -1.666732 2.944074
1.704364 0.521050 2.987485
1.394796 1.236674 2.789427
0.359613 2.799378 0.502430
-0.123276 1.782466 3.299127
0.409832 -2.704793 0.434492
0.872053 -1.639146 3.175107
1.765548 -0.037128 2.424408
-1.560078 -2.392222 0.824369
-2.179054 1.359555 1.777418
0.565844 2.818404 1.010890
-1.724585 -2.202175 0.673439
-2.261704 -1.666001 0.471531
2.076282 1.695271 0.464206
-2.611574 -0.935425 0.259595
0.936882 -2.752662 0.519804
0.736652 -2.711874 1.385298
-2.820781 0.159283 1.491244
0.946848 2.305261 0.047621
2.809346 0.831694 0.976006
1.099194 -1.650493 2.262455
1.938110 1.633216 1.755834
1.909394 0.778719 2.142370
1.687162 0.872470 2.701900
2.201222 -1.999144 0.988760
0.226820 1.742340 3.319694
-2.545702 -0.191865 1.742256
-0.830039 -2.524878 1.431257
-1.397783 -2.501427 1.004030
1.773217 2.217547 0.568528
1.801115 1.180525 2.111577
1.928802 2.059141 0.711440
2.873029 -0.376695 0.732510
1.100230 1.521679 3.261444
1.143819 -1.263692 3.471745
0.978121 1.511650 2.814332
-1.837805 0.793729 2.318611
-2.343322 1.174028 0.202001
0.718370 2.349865 1.775928
-1.610349 -1.223539 2.247173
1.318675 -1.144994 2.558760
-1.324906 1.249310 3.144291
0.151632 1.788037 2.580168
0.284914 -1.729454 2.682089
-1.196983 -1.390590 2.987671
2.762280 -0.567650 1.427852
-1.677196 -1.896850 1.895416
1.652731 2.340820 0.871135
-1.510523 1.831839 1.938468
1.487552 1.641354 2.096272
2.582960 -0.803477 0.286481
1.639973 0.697663 2.562021
1.781490 0.439422 3.436849
1.557033 1.086941 2.348398
-1.180917 2.653780 0.809407
0.367074 1.697639 3.273537
-1.447741 1.082079 3.257803
1.460794 -1.119911 3.275654
2.065312 -0.979912 2.132945
1.365441 1.051748 3.427445
2.005390 1.267423 1.976582
1.805121 -0.110960 2.966986
0.499341 -2.900689 0.860014
2.170342 -0.710278 2.089140
2.630686 0.267669 1.582945
0.170284 1.935887 2.332249
2.450004 1.292041 0.997874
-1.384756 -1.243627 2.481175
-0.880637 1.685609 2.596973
1.035511 2.041847 2.069094
-0.865153 -1.514104 3.157664
0.434198 -2.160766 2.186353
2.394099 -1.762949 0.664561
-2.640480 -1.217206 1.243314
-1.636956 0.711931 3.355304
-0.946357 -2.678012 1.174471
-0.907993 2.514332 0.323789
0.286549 -2.101485 2.170560
1.770278 -0.170866 3.127632
2.848314 -0.298546 0.642658
0.383692 -2.531724 1.687352
-1.926419 -2.072789 0.845469
0.100653 1.809251 3.563001
-0.912181 1.910956 2.093970
-2.718904 -0.365575 1.469326
-2.775538 0.313043 0.355623
-1.949810 -0.374653 2.302904
-2.618419 -1.172269 0.678482
1.997947 -1.012562 2.199854
0.912975 1.710507 2.329637
-1.812607 -0.294477 2.456559
-1.530737 1.168020 3.281935
1.258013 -2.438576 0.431027
0.838664 2.594434 1.671101
0.100254 2.763511 0.501842
-0.705065 2.783753 1.043153
1.720042 1.921686 1.775676
2.616241 -0.714118 1.210317
2.852206 -0.514001 1.409330
-2.483274 1.155409 0.241632
-2.775562 -0.503807 0.568705
-2.179663 1.207224 0.140211
-1.553352 0.970057 2.735211
-2.197584 -1.876564 0.699421
-1.647369 -0.715634 3.032536
2.636288 0.582174 1.689127
-0.187906 -2.439945 1.952631
-2.160236 1.967731 0.898332
1.509533 -1.752357 2.029218
0.934326 -2.052982 2.147542
-2.255321 0.836987 2.092403
-1.221867 1.390028 3.417349
-0.242778 1.807561 2.759979
1.534971 -0.683454 3.390641
-1.405488 -1.117846 3.281285
-2.104114 1.710536 1.497342
2.613345 -0.967358 0.458624
-1.716126 -1.892182 0.061994
1.570488 -1.826053 1.938552
-0.363244 -2.593437 0.088410
-2.674640 1.160605 0.999636
-1.483270 1.390750 2.220199
1.386824 2.440150 1.380820
0.247035 2.379566 1.937723
-0.774547 -1.586998 2.857506
-1.720201 0.452689 2.562161
-1.294954 -1.261545 2.617332
-0.349356 1.770810 3.379287
-1.521513 -1.167230 2.384193
-0.006951 2.626123 0.206577
-1.188998 -1.354315 3.005565
-2.944258 0.238372 0.721904
-1.483076 -1.963399 0.178802
0.209178 -1.955272 2.357482
1.365491 -2.659374 0.707440
1.183978 1.365934 3.297713
-2.131790 1.921367 1.292413
2.269332 0.847165 1.933670
1.736931 0.103175 3.070612
-1.922019 -1.794797 0.364688
-1.607079 -0.985877 2.525380
1.764154 -0.223782 2.573427
-1.425443 -1.121880 2.709161
-1.774443 -0.594782 2.733545
-0.752473 -1.579076 2.897388
1.479479 -1.896327 1.905297
-0.598329 -2.592710 1.613591
1.753739 -2.089100 1.666481
-2.660482 0.336649 0.451233
2.384925 1.575727 0.492770
1.408756 1.950507 1.924681
2.234556 -0.260928 2.169704
1.193988 -1.301371 3.035740
-1.029031 2.682543 1.088930
1.152765 -1.252832 3.410771
0.888696 -1.882346 2.147155
1.681216 -0.838052 2.837410
-2.574978 0.325262 0.158854
2.173380 -1.486622 0.219518
1.110251 -1.486277 3.177725
0.780281 2.512900 1.635907
2.759359 0.244956 0.398229
0.686340 -2.762799 1.151911
0.191816 -1.774766 2.708427
0.347361 2.714630 0.640624
-0.798527 -2.647398 1.462093
-1.551682 -2.165872 0.169270
-0.435776 2.945218 1.088296
1.298831 1.119855 2.448312
2.557782 -0.370569 0.020175
-1.042408 2.694159 1.019208
0.398796 1.901465 2.391283
0.038604 -1.830195 3.325406
1.144579 -1.418233 2.801408
-1.724658 -0.691240 3.315272
2.030665 1.311452 1.883439
1.610432 -0.961310 2.858151
-1.121759 -1.563251 2.271707
2.951811 -0.638195 0.918722
-0.554593 1.717790 3.245743
2.807331 0.330047 0.581302
1.068894 2.480369 0.237296
1.946814 -2.032169 1.292783
2.501562 -1.043809 0.225122
2.578736 0.980539 0.722209
1.934129 2.097974 1.071488
1.698027 -1.049100 2.418658
-0.326707 -2.711335 1.584286
1.339101 -2.221049 0.166210
1.688429 -0.478341 3.371473
1.844256 -1.390352 2.017100
-1.526573 0.985103 3.184631
-2.520410 -0.340672 1.948345
2.494504 -0.843386 1.582162
1.658194 -0.824070 3.317272
-1.568433 1.011685 2.648695
2.570308 1.340393 1.274770
1.059740 1.470450 3.474604
-0.905576 1.526294 2.753204
-0.979408 1.464504 3.304640
1.828171 2.182932 0.864135
-2.787288 0.571914 0.646535
-0.557962 -1.717435 2.757548
-1.653470 0.860125 2.893461
1.746803 -0.738147 2.723762
-1.322246 2.252278 0.216430
-2.256304 0.400773 2.072006
-1.750934 2.305966 1.272206
-2.450924 -1.104417 0.385115
0.964928 -2.589920 0.551951
-0.399898 -1.777162 3.331036
-2.338941 -1.243969 0.191656
-0.903094 2.506106 0.246958
-2.678676 0.451324 1.590446
-1.191157 -1.416790 2.597906
-2.580520 -0.652293 1.596367
1.046202 -1.390784 2.726108
0.150273 -1.754302 3.097547
-2.203857 1.467184 0.122156
0.312506 1.828208 2.400294
-1.602419 -0.820908 2.592634
-0.549211 2.254683 2.044665
1.639092 -0.759279 3.465447
-0.145788 2.571044 1.763064
-1.806558 2.003886 1.484986
-2.365293 -0.127498 2.007090
0.336601 -1.685760 3.446233
2.423186 0.676987 1.890979
2.184557 -2.089944 0.998175
1.476240 -1.191681 3.213499
2.903289 -0.328955 1.004723
-0.552860 1.683591 3.411044
-0.852898 -2.660779 1.374052
0.119776 1.905814 3.443142
0.832879 -2.506041 1.681770
-1.394785 -2.290828 1.517558
2.738591 0.431837 1.540661
1.474690 -1.073726 2.998644
-2.396763 0.892323 0.167213
1.636392 -2.177631 1.425681
2.741700 -0.723704 1.402352
-2.069688 1.595550 0.124457
-0.826618 -1.601462 2.430005
0.722247 1.656613 3.223998
2.006807 1.954030 1.346485
2.181335 1.410972 0.126960
-1.524956 -0.745351 2.632996
-0.675520 -2.680198 0.319004
2.221590 -1.863896 1.018420
-0.797468 -1.573812 3.222667
-0.220308 1.851920 2.977817
-2.195528 1.735028 0.501613
0.725947 -1.662977 2.578388
1.389838 -2.445014 1.295147
2.846056 -0.639177 1.100606
-1.435511 0.966896 2.983059
1.712543 -1.965944 1.734751
-2.693044 0.072355 1.602103
2.036361 1.405575 -0.002465
-1.718684 -0.635800 3.476043
0.115006 2.893683 0.758017
2.139125 2.023840 0.758039
0.212601 -2.395347 1.788785
1.350077 1.227943 3.086432
-0.205740 2.182516 2.201449
1.863204 -2.283428 0.916152
1.378020 1.177525 3.430697
-2.409104 -1.474636 1.449934
-0.289058 -2.862361 0.609305
1.107393 2.724286 0.708792
-1.016974 -2.560990 1.390713
0.617593 2.797515 1.319229
-0.126287 -2.619761 0.279369
2.241910 0.853513 1.870709
2.062690 1.721922 1.485294
-0.071305 -2.672299 0.304692
2.691969 -0.643154 0.518841
2.699120 -0.249088 0.444079
-2.684659 0.663598 1.461842
1.805070 -0.438297 2.516552
-1.420645 2.446301 1.259629
-2.346156 -1.716515 1.235300
-1.764871 0.317746 2.960423
-0.986347 -2.672555 1.368250
0.094568 -1.746974 2.613986
1.333339 -1.227262 3.067548
-0.521325 1.769642 2.968591
-2.816713 0.082537 1.644888
-2.338627 1.461636 1.287088
1.202723 -1.819358 2.288070
1.784926 0.616638 3.352346
-1.849692 1.917361 1.522609
-1.302775 1.265450 2.657468
0.616081 1.655411 2.483211
2.650606 0.508945 0.387207
0.635884 1.688976 2.647539
1.342918 1.183636 2.750440
1.207163 1.347095 2.731683
-2.722783 0.190206 0.287129
-0.075913 2.893036 0.773349
-0.562565 -1.717430 3.145801
1.003103 2.655104 1.328876
0.765222 -1.655775 3.517160
-0.361582 1.735059 3.387852
1.611919 1.466390 2.139412
-1.517366 0.824444 2.970377
0.685209 2.434343 1.786930
-2.111061 1.827960 1.425978
-2.358339 0.118055 1.933705
-2.334064 1.677599 0.751628
2.472054 0.564561 0.086905
0.689949 1.666844 2.911056
1.270291 1.283789 2.804287
1.446570 -2.202980 1.701345
-0.291748 2.646850 0.270764
-1.278707 2.475907 1.370221
-1.534830 -1.931679 0.027205
1.179918 2.339285 1.620612
1.524590 -1.145403 2.318799
-2.477884 -1.381918 1.250616
0.276217 -2.512871 1.830539
-2.493521 1.677293 0.804337
-0.356304 2.846002 0.655085
-2.626852 -0.016615 -0.026250
-2.661272 -1.052060 0.827113
-1.628920 0.836548 3.345716
-0.301096 -2.005642 2.303728
-2.571574 1.392988 1.230370
-0.131203 2.802865 0.441455
-2.408183 1.545908 0.701274
2.472107 0.685671 1.776383
-0.504177 1.647450 3.227509
0.924358 -1.527527 2.785486
-1.498535 1.035838 2.433140
2.137674 1.871310 1.396328
-1.630813 0.921845 2.952682
0.755465 -2.754954 1.328428
-0.753860 -1.680464 3.334980
-2.440400 1.449385 0.605705
0.283284 1.762867 2.530130
-1.734268 1.449772 2.138716
2.298245 -0.901013 1.923161
1.652606 -0.714302 2.663630
2.059549 1.512123 1.760723
1.326425 2.174357 1.714220
1.675667 -1.882763 1.808973
-2.298957 1.846003 0.834674
0.740240 -2.552424 1.638152
-1.377804 2.138067 0.120219
-0.783113 -1.955696 2.200561
2.878296 -0.507915 1.188013
2.935696 0.187637 1.213443
2.560469 1.005360 0.670010
2.416549 1.129925 1.637740
0.180055 -2.521205 0.038635
1.016588 2.521130 0.423679
-0.151118 2.082767 2.213109
-1.300348 1.236500 3.162931
2.490983 -0.977560 0.183876
1.812595 0.018408 3.265412
2.490199 1.401891 1.103288
-0.743234 2.271101 2.001159
1.786012 -0.400750 2.394508
1.381894 2.454648 0.506314
1.524158 2.112433 1.630557
-0.319238 1.944797 2.326533
1.709359 0.449940 3.301265
1.807166 -0.063063 2.715953
-2.176620 -1.960425 1.078852
1.766625 2.051799 1.628284
1.796836 0.614219 2.506056
-2.282240 -1.682957 0.880518
-1.439031 1.249667 2.268505
-2.007420 1.887758 0.486474
-2.475985 -1.026667 0.324910
1.810178 -0.410519 2.665473
-1.344941 1.154321 2.632304
-2.481247 1.484753 0.544962
1.613856 0.729040 2.485228
-1.742755 0.503259 3.206132
-1.295021 1.362190 3.123078
-2.500124 -0.569446 0.116256
-0.564021 -2.512575 1.697334
-2.414144 -1.129486 1.604073
-2.720042 0.780849 1.311595
0.129427 -2.520263 1.742712
-1.660235 2.382852 1.049823
2.706478 0.095064 1.455017
1.622229 -0.752581 2.920502
-1.654406 -2.053495 0.397740
1.075497 -1.358129 2.784284
-0.435430 -2.406269 1.935725
1.728318 -0.614323 3.312370
1.446457 1.502707 2.274901
1.519244 -2.484960 0.883939
1.940229 1.720698 1.693435
-1.637436 2.225859 1.456819
0.305740 1.743530 2.739379
1.980150 -1.222023 2.126049
1.614093 -0.734397 3.067633
1.597201 0.959889 2.681739
1.752350 -0.032691 3.098482
-0.708682 -1.813276 2.228831
1.079672 -1.464165 3.375850
0.517773 2.849270 1.067981
0.459593 2.767780 0.495522
2.849931 0.378631 1.397195
1.390547 1.307710 2.349054
-0.266592 -1.737536 2.887381
0.956126 -1.488600 2.692575
-0.112239 -1.803610 3.370676
1.991712 -2.063931 1.277401
0.773311 2.284928 1.895691
-0.222122 2.870160 0.834309
-0.747801 -1.655039 3.254246
1.283442 1.136229 3.061425
1.590589 1.981928 -0.005913
-0.348631 1.952353 2.349051
-1.465540 -1.048006 2.447955
1.733108 0.657445 2.742951
-1.667979 1.536589 1.955822
2.247894 1.187759 0.017028
-0.049438 -2.684011 1.546624
-0.131203 -2.191731 2.145554
-1.741706 -0.414545 2.966973
2.828398 0.483163 1.179375
-2.815847 -0.045775 0.815395
-1.661828 0.762193 2.864833
-0.018762 -2.785631 0.548651
-1.738885 -0.412956 2.730254
-1.800607 -0.379959 2.722805
-0.865640 1.737890 2.390897
-1.713604 -0.125843 3.566309
-0.666968 -2.861629 0.934244
-1.465896 -0.967830 3.400500
-0.696619 -2.618769 1.497043
2.481949 0.439910 1.807848
0.365752 2.442089 2.060973
-1.563672 -2.378063 1.058961
1.142545 2.004779 1.964012
1.608653 -0.438599 2.509443
-2.485055 -1.190216 1.418419
0.764799 -2.795144 1.111928
2.022722 1.904677 0.337194
1.973250 -2.240982 0.869400
-1.438131 2.605521 1.118570
1.088227 -2.641189 0.819327
-2.649486 0.480982 1.573614
1.536543 -1.001616 3.033506
2.455987 1.662865 1.356336
1.879825 1.094623 2.194430
2.839302 0.418521 1.175700
0.048577 -1.753673 2.670327
-1.915024 -2.104420 0.546003
-0.387335 1.802950 2.817522
-2.579203 -0.142216 1.835600
0.926358 -2.766332 0.903247
-2.083615 0.140496 2.257805
-1.205855 -1.417732 2.520790
-2.376478 1.260101 1.584562
0.289793 1.758471 2.590873
2.286598 1.039530 1.867011
1.563381 -0.871850 2.616087
2.546041 -1.247120 0.591919
-0.228945 1.695178 2.456349
-2.451076 0.974536 0.135740
-1.189274 2.391928 1.683642
-2.508894 1.219375 0.420065
1.556067 2.201302 0.258278
1.695706 -0.761869 2.990113
2.745314 -0.138011 1.393377
-1.025889 -1.996806 2.051781
1.430594 1.078127 3.469224
2.648208 -1.403051 0.830262
1.619582 0.445022 2.654217
-2.352648 0.701690 1.828901
-2.724572 0.425694 0.220443
-0.011985 1.794433 3.299347
1.226041 1.293476 3.048067
2.781407 0.459997 1.492063
-0.441117 2.726816 0.354616
1.582017 2.325340 0.502511
1.755914 2.351125 0.944509
0.321432 -1.837972 2.988949
-2.539675 0.190809 1.809920
-0.648151 -2.252491 2.160227
-2.012064 2.268420 0.937012
-2.320329 -1.303513 0.129797
-1.047404 -1.404922 2.759886
-1.598858 -0.831185 2.536987
-2.552564 -0.590426 1.733685
0.054296 2.125983 2.226329
0.215761 2.832453 1.261875
-0.283845 1.838407 3.017350
2.365735 -1.055736 1.580203
2.306315 -1.353355 1.554863
0.453115 -2.787226 1.201212
2.723251 0.171701 0.330029
0.222580 -2.799836 0.572048
2.123949 -0.853494 1.986783
0.998497 1.337661 2.687060
1.161992 -1.309358 2.495307
-1.358312 -0.979366 3.266837
-0.012919 -2.675479 0.045523
0.665694 -2.833338 0.875867
1.601571 -0.711018 2.893909
-0.958893 -1.555242 3.336894
0.446443 2.707146 1.572043
0.263254 -1.770251 3.125517
0.248757 -2.523415 1.870264
-1.215724 -1.382446 2.408483
-2.219101 1.885644 0.664151
0.369585 -1.810227 2.779602
-0.942612 -1.463944 3.175026
1.013100 2.141759 1.982935
0.429388 -1.801012 2.649914
0.477370 -1.758347 2.631390
-0.286342 1.778425 3.142485
-0.513747 -1.758466 2.726134
1.774689 -0.058892 2.965931
1.091906 2.508517 1.591107
-2.345048 0.943755 1.796128
1.618574 0.858013 2.627563
-1.382174 1.123899 2.693066
-0.408098 2.517513 1.932646
1.670295 0.656772 3.294440
1.699527 -1.869993 1.701266
-0.058589 1.856316 3.160990
-0.972391 2.643193 0.508990
-1.681649 1.103379 2.288183
-1.477508 0.999304 3.563452
-2.914264 -0.311782 0.921590
-1.114874 2.406625 1.634781
0.166861 1.824524 2.566153
1.623693 0.770243 2.539296
0.728170 -1.583929 2.614213
0.198034 -1.876357 2.709843
-1.578084 2.224914 0.304929
-0.921585 -2.564243 0.542084
-2.599902 -0.426980 1.743077
1.185036 1.471148 2.502176
-0.745441 2.699673 0.456468
1.470642 1.809781 2.070954
0.050665 1.720179 2.843604
-2.720011 0.042829 0.559998
-1.860297 0.066283 2.549489
-2.737909 -1.025640 1.012633
1.221547 -2.097238 -0.063321
0.231418 1.773886 3.111146
-2.627815 -0.304254 0.407637
-0.287235 1.754310 2.999358
-2.312583 -0.960463 0.095521
-1.346466 1.077849 2.865410
2.783319 1.000084 1.096558
1.695698 -1.438713 2.138274
1.559258 -2.099651 0.222427
-0.111832 1.723431 2.827119
1.710290 -0.485767 2.736787
-2.100054 1.879148 1.342301
-1.378710 -2.688801 0.843507
0.654502 1.627246 3.115442
-0.334258 1.692365 3.119670
-1.118580 1.387691 2.593191
1.730105 2.245743 1.088103
-1.288635 -2.560177 0.798714
-0.556705 1.781440 2.546482
-1.588053 -1.577641 2.049423
0.798348 -1.806165 2.314337
-2.052345 1.983533 0.498817
1.826057 0.636559 2.410465
-0.023191 -2.379683 1.938378
-2.689958 0.189997 0.384128
-0.648681 2.794742 1.006428
2.393590 -1.643800 0.853724
-0.165355 -1.817091 2.952129
1.348943 2.488410 1.294841
1.443894 -1.405228 2.143282
0.832005 2.715858 0.603268
0.946271 -1.723890 2.224258
2.820065 -0.521522 0.872462
0.526634 -1.742994 3.092077
1.462156 -0.923002 2.864921
1.129641 -2.143563 2.005626
-2.189538 1.553453 0.382546
1.263130 -1.244524 2.702771
0.621324 -1.673098 2.563547
0.934062 -2.787741 0.678855
-2.771745 0.158927 0.659741
1.615258 -2.435626 1.198615
-2.353410 -1.654430 0.809499
-2.728940 -0.754990 0.469224
1.248818 2.480846 0.468517
2.079147 -1.005187 2.012557
0.374685 -2.685545 1.647544
-0.907619 -2.533125 0.312188
0.294294 -1.764553 2.754267
0.461078 2.790240 0.351004
-1.019343 -1.778116 2.270903
0.886427 2.077614 2.102934
-0.593263 2.671152 1.600343
0.125992 -1.818212 2.764648
0.155785 -1.697688 2.741712
1.646116 2.207385 0.602417
-1.889051 -0.036350 3.045700
2.127102 -0.315531 2.176115
2.819284 -0.761406 0.736888
-0.176649 -1.703992 3.010035
1.400335 0.839528 2.552009
0.547864 -2.813618 1.161376
2.673033 -0.491583 0.301472
1.668392 -0.635195 2.553341
-0.949697 1.427177 3.423786
-0.225752 2.037465 2.393635
0.158628 -1.774669 3.534588
0.003450 -1.729745 2.958698
0.713165 -1.613724 3.156464
-1.456091 -1.598600 2.203601
1.572347 0.746510 3.400922
-1.935235 1.157615 2.036533
0.645429 -2.489604 1.908244
1.667844 -0.738955 3.137763
2.878731 -0.275430 0.839016
2.586972 -1.189259 1.506935
0.342257 -2.689927 1.589099
1.949169 -1.669970 0.170258
-0.134866 -2.540585 0.096336
1.516996 -1.406695 2.294316
-0.832574 2.140106 2.144998
-1.443482 2.473434 0.562143
-1.676757 2.291744 1.322560
1.267511 1.253538 2.463489
1.733945 -1.719112 1.893845
0.094768 1.764015 2.916781
2.518666 0.780959 0.295093
-2.709195 0.957928 1.316224
2.483085 0.172040 1.976939
0.081758 -2.628044 0.183219
-1.208787 1.306731 3.221167
1.810091 -0.079634 2.431120
-2.703024 -0.941471 1.334147
-1.505168 -1.918564 1.992953
1.581559 -1.473669 2.130360
-0.685409 1.680194 3.528201
-1.275675 -1.978328 1.954044
0.195707 2.830583 0.379017
-0.125553 1.762594 3.350457
2.469086 0.116051 1.806481
-1.953600 -0.755410 2.128253
1.367475 1.405544 2.461147
1.854125 -2.100147 0.670937
2.807398 -0.136117 1.401288
0.753760 2.582444 0.291785
0.053503 2.879347 0.608095
-1.766527 -0.410608 3.083594
1.659477 -2.378876 0.769015
0.809064 -2.347976 1.900964
2.291851 1.580181 1.530534
-1.258797 2.687322 1.104906
-2.568085 0.955497 1.422581
-1.809076 2.126459 0.881428
1.324679 1.138439 3.040487
-1.161367 1.848481 2.048606
1.617257 2.481428 1.091739
-2.794343 0.738513 1.041743
1.768137 -0.946427 2.214757
-2.555662 0.846382 1.543000
-2.521966 -1.381220 0.680654
2.702842 -0.839331 1.029529
1.211578 2.140906 1.887309
-2.504795 -1.118913 1.558750
1.165259 -2.660118 1.275152
1.244311 -1.335345 2.702837
1.917183 0.175590 2.352581
0.539612 1.746850 2.403065
0.419720 -1.727094 2.915387
-1.234861 2.635494 1.035044
-1.503347 1.184379 2.419490
-1.105953 1.317761 2.900748
1.597681 -0.828752 2.488100
-2.195884 -1.872583 0.948185
2.812084 -0.613506 0.861172
2.732570 -0.563173 1.555463
-1.248000 1.765691 2.151389
0.689983 1.614569 3.094896
2.118886 1.991702 0.897044
1.512017 1.492260 2.093644
0.980314 -2.628903 1.412268
0.705456 1.704406 2.435235
2.266394 -1.167056 0.086893
-0.130363 1.842711 3.136366
-0.941674 -2.404544 0.100975
-1.755381 -0.381758 2.661076
-0.285482 -2.237758 2.219527
-0.852209 -2.640936 0.541922
2.446427 1.546704 1.214089
-0.875619 2.686514 1.459363
2.709875 0.089477 0.303699
0.103805 1.885110 2.444654
2.829232 0.401022 0.451445
-2.489061 -0.867230 0.280165
-2.917524 -0.065283 1.331467
1.804367 -0.081482 3.141039
-1.207253 -2.429798 0.373279
2.555480 0.099225 0.111475
2.743922 -0.656022 1.310701
1.744749 -2.256042 0.619309
1.095629 2.314026 1.860012
-0.283241 -2.290767 2.197659
-1.625163 -2.221361 0.351601
1.484891 0.901799 3.144541
-0.992923 -2.589181 1.229751
2.303208 -0.982679 0.038448
1.223679 -2.543563 0.493672
-1.265007 -1.297867 2.550685
-2.376006 -1.363973 1.434366
1.534488 2.573706 1.135061
-2.056918 -1.830095 1.439784
-2.211448 1.365284 1.677218
-0.813585 -2.715238 0.569330
-1.707928 -2.235073 1.320956
-1.836281 -0.234089 3.052497
2.582822 1.385625 0.779460
1.603552 0.900602 2.478315
0.611597 2.666471 0.469084
0.203097 2.406435 1.926066
-0.074588 -1.870054 2.463509
-1.432466 1.643012 2.077144
-2.353716 -1.080101 1.618444
-1.848474 0.134621 2.702331
1.671872 -0.781443 2.444278
1.975081 0.075889 2.195278
-2.770914 -0.603647 1.361859
-2.609047 -1.013331 0.791077
2.234244 1.338035 0.147146
-0.175632 2.336794 1.967543
2.203046 -0.029515 2.077092
-2.047932 1.451262 0.083264
-1.237692 -2.525257 1.294129
2.185143 -0.198490 2.012125
-1.357392 2.447078 1.276005
-0.534268 2.786282 1.301452
0.885045 2.279858 0.012558
1.773113 -0.142842 2.584791
-0.320171 1.711787 2.788306
-1.503740 -2.346308 1.368611
2.572453 0.897398 0.412806
1.261853 -2.263430 0.187188
0.210622 -1.745064 2.957882
0.921455 1.490241 2.846585
-1.135591 2.317281 0.182760
0.019140 -1.885038 2.804068
-1.842970 1.330999 1.899620
2.719181 -0.679573 0.607037
-1.181744 -1.346295 2.470508
2.126513 1.786226 1.501234
1.375487 -2.337228 0.495513
2.588961 -0.328300 0.165396
2.626677 0.256870 0.109660
1.755975 0.322035 2.966289
2.662220 -1.082139 1.331361
2.680289 -0.569759 1.428660
-0.195522 -1.808335 2.948052
-1.486164 -1.278096 2.341772
1.609376 1.018183 2.965206
1.787167 0.027461 3.023795
-1.569552 0.914883 2.532837
1.467740 -2.259004 0.153938
0.657120 2.643671 1.332502
-0.243285 1.896627 2.824779
2.328852 0.578402 2.046236
1.086033 1.526830 2.814721
1.721606 -2.005775 0.297421
-2.750931 -0.448742 0.557661
-0.865041 2.579449 0.358888
-0.728734 -1.712621 3.065590
-0.344819 -2.672154 0.240999
-0.433234 1.785214 3.383560
-0.748605 -1.634494 2.779207
-0.932277 -2.640341 0.878279
-2.640955 0.353142 0.268323
2.762638 -1.079285 1.141537
0.314875 1.984212 2.215885
0.510510 1.740878 2.865743
2.451841 1.056247 0.417407
-1.164182 -1.169567 3.430591
2.698999 0.226607 0.104071
0.636842 -2.332909 1.932724
1.683949 -0.555800 2.960741
-1.095063 2.649770 1.023580
-1.751343 2.156297 0.565467
1.033307 -1.772774 2.373233
-2.137897 1.965445 0.925335
-1.348679 2.454289 1.433779
1.306224 -2.640870 0.808867
1.309813 -1.264343 2.990281
-2.671006 0.179419 1.450737
2.463030 0.849351 0.048006
0.101333 1.761369 2.395827
2.667261 1.065917 1.282444
-1.075538 -2.325825 1.849302
-0.988420 -1.612588 2.365385
-2.957181 0.270084 0.729744
0.963511 -2.413967 0.276249
1.708966 -0.394891 2.528873
-2.603962 0.690114 1.538801
-3.640158 2.568557 0.822175
-1.560736 1.103215 -0.988514
-1.396770 -2.586468 -0.388492
-2.539277 -2.782534 0.597541
-3.355295 0.599103 0.273666
-1.477256 1.060036 3.441648
-0.060294 -0.443863 3.669972
-2.178299 -1.270315 0.111947
3.250506 1.848914 4.432099
1.423307 3.075277 -0.224778
-2.789287 1.266217 2.072095
2.944905 -3.110638 3.283156
-2.834102 0.733818 -0.869150
0.899214 -2.378626 3.331268
-3.148681 -0.317530 3.364612
0.066473 0.991558 2.745490
1.094577 1.297616 4.209401
-2.224749 -1.772828 4.086622
2.480442 0.168993 0.434231
3.464949 2.966257 3.970780
2.322836 -0.521421 2.618897
2.131498 -2.961413 1.369031
-1.445184 1.676351 -0.534672
-0.362646 2.054284 3.011095
1.671289 -3.647399 -0.184936
-1.210374 0.025213 -0.321172
1.708975 1.606794 1.673473
3.067547 1.164356 0.226626
-1.394837 -3.556283 0.236116
-0.716050 2.797936 0.326826
-2.904065 -0.231599 3.278566
-3.479356 2.152378 1.826024
2.363067 -2.335106 -0.249115
-1.630742 -2.060851 1.796087
-0.141562 3.375779 -0.626830
2.329436 1.691968 3.024274
2.151720 3.654823 3.707368
-3.167596 -3.513857 1.892188
0.631828 -0.832459 2.981905
-2.193242 -3.735178 0.344743
3.151784 2.931109 4.371587
-2.610749 -2.029132 4.123553
1.959826 -3.881827 -0.694424
-1.056941 2.746743 -0.137525
-3.792320 -3.685835 0.416097
-1.956793 2.385422 -0.404590
-2.829276 -2.274235 2.226705
-0.885588 1.109629 1.713710
-3.876006 -1.854534 1.553700
-1.106527 -0.450963 -0.605144
-1.918532 -3.619537 3.181831
2.157437 -0.408798 -0.555046
-3.856941 2.568035 4.212987
-0.320321 -3.087028 2.734881
1.082522 1.018499 0.362159
1.211632 0.181227 3.304634
3.274396 1.517176 1.234605
-2.492238 -1.560533 2.748838
-1.416345 -2.559956 -0.850181
-3.885136 -2.797090 2.711812
2.598038 1.079526 3.487823
2.400480 1.447857 4.413351
-3.141537 -1.725275 2.225745
3.061654 1.829825 2.958736
-3.197011 -3.229763 -0.469138
0.148632 -1.194529 1.569163
-3.478683 0.867048 3.525976
-0.085813 3.075340 0.071557
0.789958 0.729231 0.346839
2.488014 -2.938828 1.724191
-1.527331 2.133152 1.022440
0.960322 3.206402 4.008691
-2.049633 2.987832 4.249243
-1.119482 -1.893869 3.227518
-3.030212 -2.495868 -0.156244
0.624282 -0.118650 2.374614
0.801133 2.408278 1.875808
2.522474 -2.344944 2.982768
3.173440 1.535510 -0.595182
-3.786383 1.715002 3.621032
-3.213796 -3.135628 -0.104301
2.348715 -0.922740 0.291914
-2.164952 -2.751426 1.203445
-0.244774 -1.184520 4.449172
0.850124 1.914455 -0.919668
-3.567670 -1.802211 0.628656
1.038060 -3.346539 -0.513764
0.811275 2.134569 2.076639
-0.971219 -3.277575 2.627202
2.753319 -1.562274 0.994004
-0.300934 2.883122 4.099753
-1.460374 -0.871090 -0.188262
-3.605559 -1.253506 -0.085838
-0.620822 0.496343 0.127219
3.404256 2.449855 2.064769
1.231071 -2.207790 3.724617
-1.291898 2.340462 -0.131836
3.667445 -0.982609 0.217223
-0.273451 -3.157585 1.591676
0.415334 1.098601 -0.689531
