ply
format ascii 1.0
element vertex 2100
property float x
property float y
property float z
end_header
-0.981911 -1.088715 0.340983
-0.612314 0.073666 3.943962
0.057197 1.418750 1.449755
-0.101205 -1.389138 1.112406
-0.971654 -0.656222 3.531637
0.396394 0.362267 3.954295
0.499081 0.192436 4.785938
-0.619928 -0.836792 3.582861
-1.337332 -0.477702 1.767211
-0.357386 -0.356313 4.288741
-0.229524 -1.300472 2.197250
-1.330951 0.789450 0.795564
1.260203 0.533883 2.086735
-0.253337 0.453085 4.476555
1.170601 -0.046422 3.406585
0.159745 1.348667 1.794764
0.498447 1.317755 1.268619
-0.658687 -1.060361 3.325782
0.463928 0.309652 4.089306
-1.475979 -0.349884 0.216872
0.858408 -0.919576 2.312716
0.733441 -1.043937 3.084787
-1.217408 -0.276442 3.136551
-0.031111 1.415520 0.834441
0.140364 -0.477073 4.913674
0.429660 0.014601 4.008522
-1.348437 -0.163719 1.910256
0.869165 1.038606 2.603134
0.859573 -0.483328 3.650652
0.392896 0.246452 4.524258
1.301234 -0.586924 1.888680
-1.226333 0.015929 2.914379
-0.530027 0.067982 4.855389
-0.368355 -0.257124 4.150258
-0.483794 -0.146569 3.961580
-0.605692 1.431560 0.714018
-0.314755 0.376630 3.954429
-0.769690 1.218674 2.336873
0.352476 1.361167 0.866775
-0.120640 -1.255282 2.749052
0.508865 1.206846 2.468244
-0.485409 -1.241959 2.640477
1.150134 0.884944 0.444682
-1.124525 1.024213 0.601688
1.459807 -0.300900 1.212893
-1.265776 -0.347367 3.176415
0.026249 1.530833 0.054744
0.020242 1.285670 3.049697
-0.222001 1.361338 2.579011
-0.397198 -0.312036 4.441571
1.220313 0.924872 0.583726
1.268480 -0.018990 2.737281
-1.319645 0.599281 2.185298
-0.652096 1.353994 0.582129
-0.759134 1.221458 1.466875
-0.496171 -1.467514 0.547483
-1.204954 -0.622278 1.957945
-1.224185 0.501352 2.058548
-1.161797 0.906081 -0.027191
1.243591 0.170579 3.507873
-0.516727 0.200594 3.950040
-0.294246 1.245293 2.836925
0.474349 -0.046524 4.535915
-1.463147 0.574826 0.783003
-0.498914 0.106382 4.460234
0.309644 -0.419224 4.322596
-0.825713 -0.289638 3.685600
-0.392695 -1.344218 2.304738
0.742414 -0.076221 3.791521
-0.519847 0.147557 4.438927
-1.421432 0.373395 1.490171
-1.277266 0.214323 2.784551
1.087695 1.089977 1.098121
-0.905065 -1.079593 2.206528
0.240440 0.449750 3.990193
0.839068 -1.286824 0.931094
0.877334 1.065659 1.816285
0.472067 -1.342552 1.567718
1.266322 0.075113 3.485921
1.297925 -0.013254 3.279053
0.421506 -0.260085 3.814528
1.353424 -0.013375 2.995738
0.220641 -0.501739 3.982162
0.366981 0.330306 4.360358
-1.239659 0.360837 2.957340
1.390260 0.643625 0.550753
0.411686 0.174553 4.028039
-0.805881 1.230416 0.304661
0.372496 0.364284 4.862848
-1.425232 -0.174717 0.628859
0.472841 -1.230745 2.935184
-1.071165 -1.048598 0.834244
-0.338130 -1.259280 3.221775
-0.151558 -0.487967 3.906217
-0.476661 -0.142311 4.935616
1.391772 -0.536794 0.703067
-1.032523 0.915913 1.165549
-0.163084 1.490763 1.390408
-0.514085 -1.068144 3.283205
-0.281418 1.309903 2.374194
0.543057 0.267759 4.907219
-0.431148 0.063498 4.993145
-0.331330 -0.261576 4.851293
-0.268929 -0.437207 4.128315
-1.094928 0.696913 3.093409
-0.614346 1.109444 2.651416
1.094504 0.692130 3.279052
-0.951736 -0.062786 3.692946
-1.341358 0.312297 2.128732
-1.037104 1.012322 0.495833
1.387184 0.434052 0.085038
-0.666671 -1.288963 1.188090
1.491237 -0.060423 1.144242
-0.500347 0.206124 4.431697
1.432969 -0.172560 0.886500
0.234447 1.400562 2.177233
-1.112447 -1.020269 1.019929
0.433576 -0.331877 4.674304
-0.772091 0.869139 3.407869
1.065067 0.663032 3.507062
-1.052781 0.838945 1.359972
0.644994 1.346318 0.681022
-1.232833 -0.680805 1.148619
0.430769 0.294018 4.770082
0.919575 -1.058159 2.603553
0.252050 -1.461041 -0.014466
-1.288171 -0.692295 0.161851
1.214771 -0.523935 2.493218
1.326471 -0.483230 2.266978
-0.276079 1.335476 2.234855
0.319251 -1.389817 1.658586
-0.159229 1.423664 1.708829
1.452695 0.113402 0.679646
-0.247948 0.416251 4.638011
1.118405 -0.857783 2.401146
1.402736 -0.201959 0.587165
0.149579 1.545676 1.608235
-0.491353 1.211623 2.008401
1.397974 -0.188260 1.666281
0.312589 1.255141 2.920452
0.223253 -1.201104 3.327873
1.023018 -0.874016 1.411623
0.908548 -0.914478 2.772171
-0.411175 1.235765 2.758530
-1.055007 -1.074145 0.212547
0.989029 1.083631 0.718529
0.280997 -1.279817 2.326694
-0.504785 -1.283861 2.499951
-0.203942 -1.474126 1.283565
-1.470171 -0.024311 0.237848
0.072388 0.485555 4.387605
-0.842216 -1.211323 1.270206
-1.403999 -0.405400 2.038834
-0.838081 1.024798 3.408159
0.408248 -1.485769 0.470975
0.616039 -1.271851 0.708630
-0.466474 0.104144 4.477143
1.017218 1.039715 1.075248
0.777662 -1.201781 0.329661
0.458603 -1.153437 3.080029
-0.503184 -1.281602 2.232799
-0.454231 -0.080041 3.932822
1.300961 -0.693609 1.712706
-0.941104 1.004394 1.350293
1.299984 0.323227 2.886498
1.401445 0.435739 0.816355
-0.851664 -1.181028 0.773817
1.256017 -0.597392 1.495348
-1.363702 -0.696871 0.852446
-1.373844 -0.694549 0.068568
0.719962 -1.268737 0.253768
1.342073 -0.579828 0.867414
0.314409 0.470519 4.023032
-0.503334 1.242791 2.055680
0.526552 -1.257934 2.666743
0.074818 1.473621 0.814210
-0.590633 -1.291568 1.253514
0.344970 0.444533 4.684018
0.488530 -1.353468 2.136753
1.168897 0.461902 3.045853
0.715290 0.824515 3.592675
1.351931 0.437055 2.260652
-0.256015 1.464085 0.444526
0.132824 -1.114195 3.243187
-0.189628 -1.388536 0.958777
1.383720 -0.666994 0.409177
-0.754116 1.163879 1.596287
-0.252433 0.434862 4.039525
-0.444535 -0.348736 4.056500
1.496158 -0.051456 0.406964
-0.606426 1.250528 2.419838
0.395402 1.276849 2.261567
1.027335 -1.141553 -0.008279
-0.092835 -0.536434 4.229161
0.508151 -0.273703 4.284307
-1.328392 0.570230 0.918872
-0.071492 -1.491820 0.597810
0.273890 0.358358 4.874509
-0.958156 0.674117 3.350092
-1.315063 0.538820 2.250391
-0.635427 1.416221 0.822612
0.251168 0.508465 4.060225
0.984927 -0.865308 3.298380
1.111096 -0.200832 3.505950
1.298546 -0.587137 0.565113
1.281447 -0.620445 1.731200
0.850243 -0.892207 3.173343
-0.310789 0.759130 3.825731
-1.021729 -1.054006 0.294646
0.988807 0.911883 1.697532
-0.327967 -1.374631 1.047531
1.211689 0.517024 2.796708
0.607579 1.156909 2.096336
-0.768383 -1.187299 0.641162
-1.284331 -0.624850 1.752989
1.103923 1.010261 0.074531
-0.971008 -0.657174 3.482386
1.044326 0.622761 2.859925
0.882958 0.744532 3.433070
1.434608 -0.688954 0.202714
0.703082 -0.911389 3.103274
-1.394495 0.580939 0.752028
0.865408 -1.054461 2.394051
1.507357 0.019453 1.190795
0.478367 0.141943 4.770407
-1.204992 -0.539166 3.115615
-1.034218 0.992268 1.481197
0.253147 1.368900 2.359468
-0.040949 -1.294871 3.080694
0.671881 -0.989261 3.320190
0.009950 -1.286988 2.230845
-0.025584 1.488428 1.582802
-0.765278 1.003002 3.066724
1.273513 -0.787014 0.400700
0.255621 1.003451 3.626476
-0.774553 1.112355 2.423675
-0.260034 0.340053 4.552165
0.727169 -1.328564 0.748101
0.242425 -0.417436 4.571618
-0.643487 -0.885124 3.586732
1.282449 -0.857409 0.309882
0.863179 -1.122901 2.012843
-1.272377 -0.103752 3.456079
1.158184 0.193280 3.040528
0.197385 -1.571353 0.867070
-1.334576 -0.585087 1.467649
-0.536377 -0.069015 4.025862
-0.427693 -1.126101 3.220319
0.860025 -1.087302 3.406583
0.009635 0.542705 4.628556
1.478382 -0.191192 0.284020
-0.174443 1.434052 0.274520
0.308698 -0.329471 4.883293
-0.622037 -1.064309 3.168146
0.608999 -0.056092 4.081622
1.322694 -0.545179 1.576314
-1.443063 -0.281382 1.094565
-0.654367 -1.337681 0.499159
-0.900861 0.764158 3.315754
-1.338096 -0.019296 1.857199
-1.196534 -0.528207 2.583788
0.196905 -1.504225 1.020636
-0.185273 1.187808 3.017868
-0.010466 1.230592 3.230180
-0.737818 1.365401 0.481794
-0.102898 1.429732 1.505678
1.040466 1.133874 0.266020
-1.292301 -0.289650 2.703853
-0.227508 -0.345752 4.371155
-0.573238 -1.182137 3.162028
-0.012796 0.516708 3.972623
-0.225878 1.500652 0.549959
0.540614 -1.388755 1.329158
0.640817 -1.186979 2.499128
-1.064641 0.624393 3.170122
-1.088681 -0.760436 2.516709
-1.264575 -0.047240 2.982174
-1.444497 -0.143910 0.349423
1.074948 -1.041054 1.354772
1.050888 1.050188 1.025348
-0.997197 1.159042 1.510322
-0.769125 -1.193416 2.082117
1.245259 -0.450244 1.188019
1.216232 0.994877 0.547739
0.172292 -1.348982 2.018213
1.271252 -0.326897 3.360487
-0.439223 0.030291 4.358638
-1.181494 -0.786307 1.845869
1.406085 -0.499936 0.889289
-1.317954 0.643545 1.981274
0.345518 1.169254 3.308348
-1.261416 -0.682157 0.981803
-1.001302 1.152167 0.678106
-1.476960 0.501686 0.845115
-0.082517 -1.398064 0.772572
-0.300817 -1.253940 2.746005
0.717764 -0.620831 3.656265
-1.251821 -0.725099 0.770198
0.204482 -1.481279 1.507071
-0.136366 1.447754 1.656870
-0.023374 -1.400489 2.232806
-1.354408 0.169450 2.707011
-0.898912 1.087414 1.058329
1.175556 -0.547967 2.969586
0.758338 -1.184282 2.608033
0.057976 -1.175372 3.269157
1.182455 0.866536 1.973638
-0.751714 0.995093 3.183801
-0.058644 0.457907 4.436426
-0.882926 -1.149957 0.278382
-1.159467 -0.968496 0.989452
0.177305 0.409602 4.564858
0.441120 -1.366444 1.964264
0.713800 -1.220436 1.399338
0.369518 1.245234 3.183636
0.460163 -0.180281 4.054904
0.281611 -0.478931 3.986944
1.135881 -0.395065 3.524024
0.280599 -1.407658 1.770121
-0.186889 0.453530 4.073682
-0.375243 -0.355881 4.455784
-0.728879 1.189159 1.006502
0.533264 -0.621252 3.746572
0.226129 -1.294076 2.480412
1.484522 -0.349474 0.256796
1.420486 -0.469068 0.908636
-1.072335 0.866639 1.617239
0.364062 -0.279727 4.315598
-0.955428 -0.973171 2.350912
0.464219 0.311869 4.772779
-0.586584 -1.266791 0.758117
-1.242642 0.772218 2.002086
-1.400790 -0.289191 0.379815
0.988005 -0.748118 3.169582
-0.792810 0.905450 3.171087
-1.071424 0.079654 3.576456
-1.091070 -0.778887 2.184022
1.348357 0.598359 0.406474
-0.611695 -0.229406 3.963161
-1.178901 -0.738280 1.571903
-1.293318 0.053343 2.833416
-1.422648 -0.436427 0.551200
1.204315 -0.398527 3.237499
0.474455 -0.002345 4.342015
-1.449639 -0.289084 1.743718
-0.366731 0.387726 4.080218
0.274132 1.247277 3.041363
-0.439481 0.308777 4.335550
0.449659 1.218516 2.918104
1.196867 0.867496 0.997231
1.022048 -0.900933 2.107544
0.772009 1.283847 0.394314
1.432615 -0.265637 0.885181
0.836083 -0.905396 3.302951
-0.889634 -1.104762 0.835147
-1.333389 0.511559 0.863128
1.135861 0.915223 1.257923
-0.266394 -0.562932 3.895192
1.022149 -0.941519 1.512140
-0.883905 -1.114685 1.758581
-1.283028 -0.663809 1.799319
0.002586 -0.678076 3.759647
-0.134889 -0.938052 3.616377
-0.224065 -0.468859 4.399467
-0.957671 -1.176538 0.027143
0.008454 -1.541581 0.329773
-1.187884 0.877413 1.379846
-0.291648 -1.437383 1.665522
-1.085416 0.532479 3.252420
0.146241 -0.500054 4.624926
-1.335190 0.094498 2.764011
-0.699553 -1.005917 2.821272
1.379327 0.485096 1.299309
0.033330 -0.935521 3.656221
-0.529332 -1.175391 2.849379
1.121410 -0.475331 2.715615
1.568575 0.344852 0.262202
1.436581 0.593741 0.121755
0.979981 -0.710609 3.409470
0.138221 -1.340069 2.810915
-0.008045 1.359174 2.405526
-0.209444 0.463612 4.162523
-0.074077 1.325086 2.427624
-1.394800 0.058431 1.068751
-1.120701 -0.986929 1.517284
0.830886 1.130796 0.860125
1.183439 -0.900877 0.281116
-1.466130 0.394338 0.552319
-0.095737 -0.465631 4.934711
1.181005 0.927026 0.572494
-1.303820 0.677019 0.189113
-1.064167 0.781304 2.776876
-0.058745 -1.479013 1.827013
-0.023007 -0.423844 5.090470
0.426018 -0.268860 4.087328
0.038362 0.495272 4.679588
0.384437 0.278927 4.007384
1.275456 -0.171009 2.621545
-0.321244 -0.375568 4.103181
-0.278301 -0.468383 4.744777
0.056045 0.531265 4.326921
-1.082818 0.971346 2.362807
-0.616229 -1.195190 1.726602
1.348187 -0.316763 2.554739
1.190441 0.449599 3.022120
-0.301353 -0.459011 3.882944
-0.372096 0.191671 3.934186
0.203627 1.512814 0.578491
1.531021 0.014477 0.406572
-0.641900 -0.027224 4.712945
1.209182 0.085946 3.538589
0.837659 0.050471 3.767981
0.486543 1.365412 1.168934
-0.396247 -1.386763 0.637080
-1.092175 -0.989812 0.856202
-0.986916 1.152565 0.401344
0.427975 -0.382844 4.041100
0.437553 -0.294427 4.812919
0.170471 -0.421353 4.626896
0.880692 -0.921586 3.349616
-0.234226 -0.411323 4.585356
0.944297 -0.169040 3.678440
0.865217 1.150001 0.163537
0.148362 0.552111 3.860177
-0.309103 -1.262711 2.857328
0.884337 1.069460 1.788126
0.205720 -1.476501 1.527608
-0.150971 0.416631 4.211611
-0.651397 0.864092 3.576460
0.387744 0.040283 4.651053
-0.523014 -0.075338 4.796529
0.646139 0.720367 3.739483
-1.348239 0.175494 2.099928
-0.423310 -1.369683 1.172214
0.992104 -1.027944 0.332165
-1.051657 -0.750996 3.010350
0.470373 -1.219979 2.921458
1.427935 0.105962 1.961951
0.169260 -1.435198 0.114088
-1.270907 -0.126829 2.351551
-0.201620 -1.376366 2.199047
0.340719 -0.184984 4.956140
0.007943 -1.333824 2.886881
0.383493 0.446094 3.783971
-1.468672 0.181686 0.610168
-1.324347 -0.468777 2.385145
1.149257 0.524892 2.678206
-0.972206 1.043972 2.453208
0.375867 -1.186462 3.257509
-0.391446 -0.264731 4.000386
-1.175938 -0.567045 3.152787
-0.104130 0.495681 4.123194
0.754456 -0.996298 3.037548
-0.322359 -0.519282 4.146583
-1.047840 0.713142 3.132649
-0.995834 0.844753 2.663905
-1.205223 -0.911589 0.160026
0.437096 -0.132598 4.488809
1.285327 0.469960 2.072716
1.293299 0.283085 1.886536
-0.953420 1.056173 2.915472
0.967297 1.003282 2.544329
-1.455588 -0.306234 0.191477
-1.288453 -0.357933 1.975771
-0.566536 0.190464 4.774141
1.414999 -0.275030 0.585848
1.135438 -0.659056 2.581926
1.147005 -0.919190 0.725768
-0.855513 1.127220 1.340927
-1.244636 0.720532 1.920598
-1.104574 0.831052 1.323894
1.371081 0.090205 0.315969
0.275867 -1.382061 1.214301
-0.361112 1.303247 2.314340
0.401646 -1.179327 3.083537
-1.422388 -0.275164 0.582472
0.377847 1.430123 0.611428
0.383472 -1.483537 1.734841
0.502200 -0.048512 3.998034
-0.477047 -0.622111 3.710073
0.432834 0.251687 4.660971
-0.767408 1.308892 0.469249
-0.720009 -1.188071 2.285834
0.264255 1.215678 2.719586
0.158063 1.248369 2.668014
0.543020 -0.061960 4.628589
-1.282026 0.771533 0.633290
-0.253941 -1.515559 0.604874
0.509773 0.077640 4.248076
0.088723 1.383548 0.601778
-0.324622 -0.374454 4.228886
1.478006 0.294901 0.334292
0.210303 -0.421710 4.646210
1.035027 0.963867 0.506701
0.595228 -1.337351 1.010895
-0.544711 -0.927963 3.620783
-0.395579 -1.266519 2.745499
0.093709 0.505161 4.851246
0.045069 -1.579507 0.409623
-0.736367 -1.059453 2.487260
-0.246133 -0.382022 5.015410
1.220036 -0.812123 0.243160
-0.182221 -0.378183 4.440445
-1.379878 -0.309493 1.621972
-1.005491 -0.818271 2.839522
-0.668020 -1.056921 3.318293
0.045016 -1.526145 0.205960
0.199779 1.413332 1.968040
0.583821 -1.293587 1.387054
-1.351585 0.671606 0.933950
1.319673 0.063246 2.555274
-0.442764 -0.158082 4.245685
-0.718506 1.080841 2.541540
-0.496598 -0.952247 3.470160
-0.542542 0.487831 3.829986
0.426217 -1.362393 0.593781
-0.274233 -0.324157 4.730958
-0.808056 -1.175648 2.219041
1.340673 0.281549 2.570477
0.393867 -0.239391 4.794184
-1.057856 -1.050143 0.613105
0.486397 -1.373264 1.631274
-0.462498 -0.076984 4.327380
0.287849 1.447174 1.060479
-1.076169 0.922060 0.467934
0.369520 -1.385777 0.529692
1.219692 -0.730360 1.397283
-0.494936 -0.033514 4.884869
-0.489024 -1.465856 0.289379
0.452270 0.129486 4.641298
0.457390 1.338598 0.036178
-0.265080 -0.610070 5.005884
-0.553247 0.606071 3.642814
-0.647263 1.144685 2.661648
0.438415 -1.409322 0.198973
0.337417 0.443650 4.176394
-0.827283 1.214826 1.540952
-0.373941 0.215623 4.753088
-0.844717 0.795209 3.486381
0.934436 0.792724 3.437940
0.934333 -0.801437 2.703155
1.024036 1.108522 2.042366
-1.209881 0.293067 2.581451
-0.014476 -0.470569 3.979768
-0.892291 0.885309 2.731560
-0.956415 0.699440 3.574621
-1.519151 -0.034679 0.591753
-0.754901 1.150813 1.866954
0.910797 1.163713 1.285008
1.244495 0.639735 1.646463
0.401525 1.266868 2.337030
0.340658 -0.370505 5.004678
-0.212794 -1.386334 2.075244
1.487860 -0.485120 0.064975
-0.438284 0.354666 3.916756
-1.335933 -0.189920 3.044887
-1.277410 0.546040 2.207159
0.723801 -1.131300 2.561480
-0.670139 -1.268433 0.722651
-0.637789 0.192633 3.833620
1.357814 0.225636 2.391899
-0.737107 -1.052132 3.260699
-1.421242 0.268963 1.713733
-0.433777 1.430586 0.749593
-1.184985 -0.539104 2.093398
0.399328 -1.273779 2.779934
-1.049387 0.593481 3.271995
1.424247 -0.382561 1.147645
0.520009 0.191087 4.561217
1.222120 0.349492 2.776910
-0.912081 1.101922 2.040860
0.466697 -1.123300 2.528965
0.233198 -0.384390 4.724366
1.492847 -0.077350 0.008742
0.137598 0.464279 4.593892
0.444383 1.522359 0.707625
0.503266 0.075508 4.424069
0.313752 -0.364393 4.137754
-0.027447 1.282599 2.558932
-1.287210 -0.644116 2.300051
0.128425 -1.485803 0.382639
1.365057 -0.675003 0.041442
-1.259213 -0.698962 0.828735
0.303389 0.407106 4.141196
0.102700 -0.521006 4.842652
-1.222098 -0.451991 2.739194
-1.360594 -0.615509 1.901465
0.280502 -0.413473 4.203669
-1.297440 0.706360 1.208408
1.315466 -0.159484 2.765893
-1.194608 -0.310989 3.147842
-1.339326 0.562692 1.321304
-1.113245 0.548622 3.045965
1.085301 -0.574663 3.369713
-0.440247 -0.159038 4.973334
-0.865617 0.460445 3.552576
0.411128 -1.229030 2.853877
0.638800 -1.309038 0.011835
-1.219575 -0.301506 3.221807
-0.011400 -1.200312 3.097606
0.429828 -1.368044 0.875855
0.663966 1.198408 2.102117
-1.418074 -0.305676 1.766579
-0.192810 -0.436364 4.430073
-0.588854 -1.011767 3.400457
1.221437 -0.340392 2.703272
0.654120 -1.345739 0.155421
-0.469940 -0.088893 4.512217
-0.522996 -0.180749 4.214349
1.185217 0.926874 1.647868
0.163552 1.363244 2.449209
0.490548 -1.222509 3.387972
-0.424223 -0.194413 4.546638
1.439960 -0.143983 1.288241
-1.257614 -0.146877 2.851253
1.479661 -0.308992 0.855362
0.915080 1.080032 0.332612
-0.449965 0.259184 4.791055
1.428856 0.436774 0.895498
-1.095762 -0.940460 2.328346
-1.247499 0.770784 0.766046
0.907445 1.098753 1.183627
1.196943 -0.243406 3.415544
1.313670 0.815056 0.104940
1.522412 0.138782 0.143524
1.152181 0.495430 2.847476
-1.007835 -0.653194 3.009396
0.468584 -0.233018 4.260192
1.285720 0.176442 2.234547
0.144530 1.253555 3.486721
-1.244907 -0.890778 0.515390
-1.346590 0.237114 2.430310
-0.741201 -1.342562 0.699090
-0.641670 1.168273 2.465322
-1.095741 -0.753461 2.824782
-1.351108 0.575648 1.378027
-0.138019 -1.288631 3.024676
0.390838 1.298554 2.582371
-0.268458 -0.237403 4.313411
-1.204552 -0.358712 2.590221
-1.158446 -0.730636 2.569320
0.474267 0.718094 3.667643
0.458851 -0.222132 4.301559
0.774099 -0.582415 3.604343
-0.077922 0.497571 4.480720
-0.293261 -0.458674 4.847587
1.468720 -0.205115 0.357502
1.353559 -0.032998 2.469169
-0.813593 1.204689 1.626710
0.583164 1.198528 2.485235
0.158058 1.608109 0.583900
-1.090902 1.038537 0.977263
-0.151956 -1.306904 2.097640
-1.120202 -0.520069 3.376839
1.006241 -0.905038 2.906386
0.338939 -0.338559 4.402807
-0.944004 -1.237898 1.655075
-0.621942 1.075096 3.146009
-1.532354 -0.091647 0.487377
1.214344 -0.683282 1.689526
-0.876281 1.168608 1.610965
0.312342 1.307860 2.691989
-1.444790 -0.389649 0.080153
1.044787 0.976189 0.407570
1.220049 -0.505695 2.887470
0.440312 -0.118560 4.155628
0.187594 1.333911 2.193198
-1.389434 -0.387711 1.461823
1.420477 -0.334708 0.947007
-0.048305 -0.461851 4.872167
-0.494343 1.233646 2.406918
-0.454829 1.304066 0.285376
1.393263 -0.521671 1.214127
0.297629 -0.493555 4.780240
0.295985 -0.436712 4.943695
-0.837373 0.873461 3.499742
0.401232 0.381317 4.026912
-0.416361 -1.313508 2.390475
0.403390 0.382280 3.967384
-0.698957 1.091111 1.867033
-1.196708 0.478753 2.816087
-0.453036 -1.179655 3.168384
0.471724 1.020651 3.429422
1.536270 0.464940 0.460546
-0.118701 0.586838 4.259620
-0.301128 -0.291877 4.417926
0.136604 -0.452866 4.063019
0.437491 1.278477 1.202172
-1.502624 0.366768 0.950799
-1.255357 -0.703762 0.198710
-1.306341 -0.121633 2.341966
-0.225022 -1.554786 0.658274
-0.546224 -0.725360 3.650872
-0.672722 0.584443 3.750153
-1.427790 -0.232099 1.185385
0.912903 0.942887 2.485066
1.003716 -0.945345 2.285149
1.393813 0.114757 2.118585
-0.976439 0.923153 2.830400
-0.507055 -0.029823 4.682648
-1.244330 -0.763648 0.378339
0.900452 1.165976 0.031359
0.515649 1.040436 3.380050
-0.102341 0.464928 4.517505
1.014252 -0.853915 2.814241
0.661272 1.307229 0.757873
0.997911 -1.008080 1.814975
1.404995 0.453850 0.336414
-0.963693 -0.602104 3.557823
1.307647 -0.723321 1.472457
1.071936 0.946529 1.365348
-1.361949 -0.683206 0.958473
1.386251 0.158878 0.483109
-0.101506 1.440814 1.705419
-1.388346 0.545487 1.957712
0.005646 0.480165 4.086982
0.515167 -1.168521 2.951598
0.168276 1.512093 1.449567
-1.319654 0.499953 1.915793
-0.963958 -0.849745 3.335542
0.730968 1.036464 3.419652
-0.222964 1.592785 0.392520
0.060767 0.499171 4.849715
-1.368631 0.460620 2.233497
-1.037253 1.137559 0.340086
-1.147352 -0.615232 2.990168
0.453526 -0.114596 4.088989
0.441202 -1.491627 0.521840
0.069783 0.556321 4.247338
0.149905 1.397175 1.971331
0.054953 0.441036 4.329956
1.278103 0.715603 1.234211
1.132346 -0.991219 2.234296
0.205762 0.424189 4.574607
-0.753927 0.203744 3.854382
-1.134073 0.942242 0.181364
-0.278138 1.511306 0.865025
0.757024 0.132611 3.846008
-0.525793 1.383395 1.095683
1.303668 -0.591433 2.357992
-1.100846 -0.485447 3.371770
0.057089 1.507232 1.202708
1.220157 0.836427 0.500157
-1.298059 0.499298 2.115643
0.236772 1.229222 3.452938
-0.689653 0.569705 3.700293
1.230840 -0.246932 2.695590
-0.485636 0.227521 4.698432
1.400344 -0.078680 2.323684
1.437892 -0.576812 0.414142
1.403883 0.054905 1.991127
1.048774 0.620344 3.008846
-0.717102 -1.295670 0.056490
0.655025 -0.062127 3.884155
-0.552359 0.041275 3.946277
1.113430 -0.923827 2.269835
-0.142250 -1.320287 2.661162
0.174175 -1.336579 3.530980
-1.205631 0.190967 3.406494
-1.188103 0.426203 2.574937
0.616109 0.825610 3.590812
0.457655 0.115380 4.500064
1.429895 0.208584 1.840563
0.001011 1.455229 0.120331
-0.038689 -1.256748 3.036703
-0.576495 -0.088376 5.010365
-1.222233 -0.189253 2.537521
1.139439 -0.558650 3.185762
0.251289 -0.562154 3.972802
-0.915931 -1.055048 1.099915
-1.346811 0.392968 1.710822
-0.585386 1.393018 1.208583
0.278831 -0.401449 4.185189
-0.643540 -1.245233 2.196083
-0.502153 0.401862 3.729280
0.511453 1.090995 3.243247
-0.414983 -1.159550 2.756449
-0.283606 1.294060 2.480678
0.718001 1.246506 1.456354
0.027837 0.425501 4.349553
-1.406832 -0.196126 1.042307
0.405276 0.642119 3.692214
-0.307161 0.345470 4.611236
0.201476 -0.531831 4.135663
-1.284288 -0.730317 0.253306
-0.170501 -0.484458 4.424929
-0.576769 -1.284197 2.135996
0.334634 0.368668 4.261636
-0.865654 -0.408507 3.697793
1.402167 -0.493189 0.831841
-0.470191 -0.212288 4.144493
-0.580914 1.375333 0.607063
1.015876 0.657108 3.259172
0.711918 1.154786 2.004839
-0.998252 -0.873194 2.581773
-1.258579 0.085256 3.211879
1.393441 -0.103909 1.454159
0.402700 0.298757 5.020922
-1.271612 0.726623 2.114868
0.374730 -0.181624 4.457336
1.361009 0.483060 0.617347
-0.480589 0.169107 4.288672
-1.395113 -0.293390 2.003132
-1.247797 0.489462 3.335370
1.058523 1.058581 0.726161
0.512944 -1.396192 0.099209
0.202761 0.420424 4.918903
-0.454980 1.374899 2.550515
-1.197670 0.519034 2.888710
-1.274631 -0.039022 3.563063
1.246056 -0.216587 2.301241
-0.486727 -0.020027 4.522953
-1.109151 -0.635311 2.565841
1.037814 -0.915963 1.857117
1.474014 -0.153843 0.040524
0.331629 -1.505297 0.595601
-1.543429 -0.207299 1.131357
-0.008992 0.441977 4.874697
-1.442396 -0.572729 0.484999
-1.324632 -0.784977 0.412646
0.791573 1.264990 2.048693
-0.279945 -0.387598 4.425725
-0.274308 -0.878596 3.714714
-0.634077 1.050810 3.271525
-1.176081 0.143329 3.200574
-1.033885 0.758400 2.801085
-1.450263 0.121322 0.766778
-0.340441 0.302072 4.325983
-1.413999 0.406513 0.821225
0.496808 1.115571 3.270065
-0.836548 -1.019659 2.920894
-1.309229 0.440232 2.319159
-0.813686 -1.122370 2.467125
0.267432 0.460966 3.996184
-1.138186 -0.837025 1.944687
-0.822252 -1.114963 2.205302
0.449553 -0.214902 4.672825
1.269395 -0.662485 2.501126
-1.391460 0.639516 1.735307
-0.314928 -0.318448 4.794121
0.310275 0.462355 4.354437
0.456643 0.177867 4.937288
-0.114368 0.494153 4.765917
-0.402116 -1.448771 0.197405
-0.516177 -1.358462 1.484860
-1.168897 0.883581 0.859811
-0.533642 1.223398 2.182487
0.849178 1.216103 0.729367
-1.325482 -0.609557 0.848383
-0.334184 0.708171 3.755044
-0.558398 1.200077 2.880902
-0.604568 -1.314817 1.126911
1.267084 -0.884178 0.129793
-0.365617 0.243612 4.347877
1.117350 1.092052 1.163842
-0.543332 1.240786 1.229785
-0.453095 -1.318646 2.089936
0.361627 0.090814 4.214833
0.623586 -0.152664 3.801281
-1.412158 0.228399 1.595157
0.542786 -0.172981 4.787294
1.093340 1.118306 0.450920
0.932020 -0.085248 3.678140
-1.410101 0.485259 0.533365
1.427361 -0.221214 0.224757
0.574874 1.317398 0.713458
-0.603671 1.205694 2.756919
0.348232 -1.361403 1.891659
0.631605 -1.238536 1.784643
0.718962 1.104084 2.544834
-0.031262 -1.348900 2.429013
0.340143 0.536061 3.802263
-0.683231 0.801981 3.549655
1.297176 -0.345069 2.090069
-0.552962 1.145201 2.689045
0.292746 -1.072804 3.448840
0.665801 1.223816 2.528299
1.509550 0.130998 0.720252
-0.568164 -0.439392 3.793967
0.439436 1.309558 1.937684
0.116367 1.456563 0.930131
-0.129983 0.472890 4.483119
-1.204729 -0.696377 2.266405
-1.192485 0.910099 1.632392
-1.331896 0.805262 1.040008
-1.396820 0.067814 0.124741
-1.596384 0.273169 0.946237
1.282103 -0.107101 3.058314
1.270538 0.185925 2.609154
0.381153 -1.094660 3.421309
1.363389 -0.440619 1.975573
0.487818 1.257241 3.001511
-0.794609 -1.308990 0.495308
-0.374959 -0.261437 4.133378
1.030956 0.040599 3.604588
-0.336492 0.251153 4.262610
1.293786 -0.445606 1.814459
-0.617158 -1.243417 2.216631
0.408681 0.208519 4.597784
1.211595 -0.467075 2.215491
-0.312776 -1.563346 0.899592
1.277736 -0.426576 2.709513
0.313681 0.822853 3.734632
1.155340 0.648063 2.634417
-0.532051 0.640513 3.679186
0.033740 -0.465171 4.961571
0.331746 -1.366875 2.193629
0.388761 -0.220896 4.030139
-1.463633 0.194001 1.991681
-0.006517 1.336017 3.038107
1.423362 0.658341 1.345401
0.213242 0.410238 4.915686
0.413004 0.283625 4.191179
1.110477 0.413767 3.456513
1.185351 0.905364 0.935459
1.272900 0.867515 1.090031
1.229732 -0.069260 3.352825
-1.357484 -0.025700 3.080166
-1.461676 0.153011 1.156878
0.496643 1.128380 2.845002
-0.512526 1.434773 0.545541
-0.088457 0.362754 3.965664
-0.160441 -0.462067 4.237218
1.275206 -0.294399 3.027405
0.526734 1.264737 2.490121
1.159301 -0.536942 3.435528
0.999137 1.051813 1.915412
0.380766 -0.430074 4.211018
0.199815 1.404436 0.467448
0.530329 -0.174177 4.030681
-0.272421 0.324984 4.265835
0.582353 0.193603 4.148252
0.131653 -1.212128 3.174232
-1.325854 -0.274008 2.844066
0.419414 0.202488 4.046401
-1.039014 -0.984763 2.008217
-1.426646 0.608081 0.747378
0.563076 1.192471 2.933720
-1.461442 -0.262011 0.113048
-0.633470 1.180470 2.374726
0.645333 1.188121 2.740732
-0.670601 0.985338 3.564476
0.282338 -0.562660 3.990578
-0.677568 1.079011 3.245722
1.070030 -0.935395 1.183366
1.348180 -0.544550 2.069578
-0.366611 0.070974 4.679420
-0.550302 -0.130542 4.250894
-0.712718 1.123817 2.822464
0.476796 0.255826 4.904468
-0.144299 -0.531503 4.548760
1.395134 -0.332135 2.376511
0.789220 1.352899 0.110817
-0.021864 0.588428 3.894181
1.149438 0.905226 0.944615
-1.257214 0.714782 1.636284
-0.101465 0.448039 4.133542
1.344647 0.014287 2.110023
-0.976921 0.990957 2.691120
0.918360 -1.070105 2.350729
-0.434125 1.117098 3.341045
1.433545 -0.261254 0.550183
0.026994 1.346790 1.963156
0.824247 0.922423 3.397522
0.424196 1.381386 0.353882
-0.166967 0.428128 3.923543
-0.778419 1.293294 1.208520
-0.139980 -0.455256 4.965547
-0.402413 1.437332 0.439479
-0.671915 1.258769 1.854348
-0.258249 -0.461840 4.286341
0.747521 -0.899641 3.225697
0.752774 -1.247953 2.103680
1.389118 -0.274093 0.288277
0.051976 -0.349742 4.570624
-0.347918 -0.388169 4.800517
-1.076450 0.680120 2.646649
1.179973 0.290540 2.935506
1.425424 0.399280 0.966836
-0.861874 1.056294 1.065545
0.201253 -0.392804 4.103060
1.082133 -0.750178 2.257904
-0.501864 1.405984 0.594301
0.019192 -1.332442 2.458143
-1.399300 0.263961 2.462158
-0.699406 -1.213651 1.508663
-0.616936 -0.125832 4.030030
0.140461 1.485264 0.896390
-0.363557 0.283514 4.160251
0.506967 1.466069 0.594517
-0.938689 1.132094 1.989619
0.274761 -1.481109 1.075500
1.456392 0.277602 0.648642
-0.796902 -1.283885 0.877416
-1.528091 -0.260936 1.422706
1.151672 -0.948296 0.396606
-1.299747 0.649208 2.055596
0.448525 -0.132002 4.759544
-1.281291 0.829786 0.887883
1.302739 0.563393 0.755050
-0.568657 1.389069 1.742521
-1.238283 -0.806827 0.182291
0.379646 -0.213673 4.756150
1.371186 -0.262463 0.742256
0.904344 -0.943183 2.758544
1.155948 -0.628707 1.511618
-0.320046 -0.272530 4.769799
0.582010 -0.006724 3.881537
-0.593085 -1.324456 0.329813
-1.205566 -0.535231 2.952518
0.515070 -0.067433 4.303037
0.011789 -1.274943 3.568908
0.833372 1.083093 2.561936
0.553791 -1.314628 0.328836
-1.277438 0.692785 1.698409
-0.375399 0.360752 4.453167
1.204930 0.983787 0.889929
0.511386 0.149420 4.587137
1.393393 -0.416836 0.331044
0.051543 1.576105 0.089648
0.760890 1.244424 1.753044
1.080210 -0.995904 1.718420
-0.390891 -0.704802 3.816772
0.660978 1.193667 1.875369
-0.406654 -0.049740 5.112156
-1.383421 -0.387206 1.527429
1.364661 -0.542623 1.535805
1.361371 -0.637629 1.217919
-1.329843 -0.118279 2.275193
-0.474990 0.210309 5.028517
-0.482052 1.306394 2.737785
0.219488 1.092338 3.518075
1.316274 -0.578336 2.085888
0.065338 -1.415210 2.102710
-1.230915 0.029123 3.264301
0.675604 -0.424405 3.739614
-1.178503 -0.738297 0.544899
1.013970 0.807236 3.363999
-1.460696 0.227465 0.885474
1.226610 -0.188256 3.473783
-0.304706 -0.324258 4.527144
-0.001615 -0.468137 4.318571
-0.835096 -1.083928 1.472561
0.563467 -1.328491 1.110216
1.396646 0.224600 1.971971
0.764622 -0.917530 3.507098
1.014731 -1.132327 0.777864
-0.351904 -0.457694 4.502189
0.755364 -1.345173 1.414809
0.311973 1.430494 1.213914
0.373894 0.446494 3.883248
-1.302265 0.566080 0.542210
0.615803 -1.357493 1.404602
0.462813 0.628419 3.745509
1.406588 0.396482 1.112990
-1.495873 0.325846 1.027117
0.497662 0.216511 4.886042
0.241242 1.416671 1.224047
-0.080881 -0.479621 4.154526
0.385610 -0.366975 4.410398
-1.000894 -1.205852 -0.068704
0.198939 -0.445821 4.345127
0.218584 0.485607 4.788142
-1.314780 -0.604149 0.110878
-1.177669 -0.602274 2.667338
-0.262694 -1.464940 0.288787
-1.043455 0.765545 2.239780
0.568308 -0.755469 3.715812
0.135698 0.400791 4.763349
0.272139 1.213806 2.712109
0.129436 -0.482895 4.685879
0.010978 -1.486176 0.681618
1.445975 -0.067292 1.630053
0.426624 0.373527 3.977948
-1.464896 0.417995 0.400437
-0.477098 -0.030202 4.872589
0.498909 -1.125467 3.240077
-0.330857 0.494047 3.959535
-0.227235 -1.036062 3.584038
-0.100828 0.516494 4.782968
-0.685642 1.187258 2.033686
0.771877 -1.054129 2.670280
1.164467 1.057872 0.076678
0.801914 1.171912 0.984514
-0.295576 -1.431573 0.981198
0.102385 0.464555 4.713162
-0.439387 0.058706 4.261011
0.020828 0.448817 4.434709
-1.128775 1.075246 0.354631
0.401936 0.311314 4.888662
0.648770 1.275888 1.215536
0.433720 0.226635 4.533899
0.779558 -0.923744 2.807810
-0.431782 1.408390 2.499907
-0.479928 1.422045 0.492933
0.667716 0.987881 3.434314
-1.265389 0.430179 2.912383
0.677323 1.332777 0.199629
0.458303 -1.397884 0.290320
1.338389 -0.124512 1.291701
1.447334 0.324259 1.603972
0.576540 -1.422780 0.874834
0.477802 0.253681 4.062322
-0.952938 1.067195 1.927351
1.343536 0.527967 0.099423
0.872868 -1.172771 1.899076
-1.418703 0.357319 1.141196
-1.396360 -0.391674 1.252337
0.254297 1.050301 3.629859
-0.650592 -0.936177 3.331613
-1.430583 0.005992 1.159262
0.491294 0.144436 4.429181
-0.467522 1.350489 1.392457
-0.839135 -1.159623 1.193003
-1.173967 0.545821 2.315350
-0.175132 -1.056573 3.507536
0.556858 1.364510 1.158064
-1.052722 -1.099446 2.006464
0.167535 -0.480170 4.626271
1.353249 -0.628906 1.806749
-0.317712 -1.249305 3.442314
-0.170283 1.469292 1.358746
0.122948 1.587491 0.463119
-1.352646 0.545227 1.372245
0.234469 1.458544 2.061186
-1.341133 -0.631604 1.658843
0.443723 0.239996 4.297233
-0.492197 -0.131690 4.845115
-0.368174 0.379764 3.965907
-0.289556 -0.403947 4.829423
1.029963 -0.837952 2.959150
-1.216004 -0.799058 1.406914
0.487678 -0.211641 3.954378
1.286659 0.906059 1.246656
-0.865167 -1.068822 2.465493
-0.933846 0.950795 3.225214
1.388971 -0.309203 2.289947
-0.417908 -0.360163 4.655075
0.366531 0.441369 4.840001
0.424615 0.086196 4.517670
1.077387 1.090430 1.282358
-1.429952 -0.494019 0.970187
-1.198993 -0.866753 1.676534
-0.872157 0.985857 2.695408
1.058777 -0.873274 2.294640
-1.139950 -1.049767 1.266897
0.315075 1.252337 3.003518
-0.443753 -1.181098 2.921580
1.387682 -0.263905 1.244098
0.050979 1.499514 0.317165
-0.229885 -1.381876 1.683557
-1.368757 0.280191 2.076138
-0.901260 1.190360 0.007203
1.340478 0.832445 0.366127
1.191886 -0.698526 1.142071
-1.036769 0.882959 2.220744
0.709366 -1.391206 0.327343
-0.845511 -1.080868 1.957137
-0.531606 -0.012860 4.383345
-0.435754 0.010532 4.250699
0.371031 -0.531061 4.009792
-0.372203 -0.424628 4.331017
0.012599 0.432297 4.119275
-0.270209 1.301955 3.035611
-1.091670 -0.830975 2.273675
-0.310645 0.623672 3.736033
0.203028 -1.477671 1.203110
1.368805 0.637507 0.967427
0.266714 1.285908 2.550396
1.315282 -0.415666 2.661285
-1.274534 -0.567095 2.442538
-0.723948 0.406990 3.793211
1.317873 0.230613 2.636416
-0.294176 -0.434994 4.468054
-1.070763 -1.114134 1.827649
-0.475016 0.150112 4.577599
-0.753677 1.052419 3.038276
1.169933 0.685900 2.746195
-1.580595 -0.149110 0.625806
-0.181323 1.431530 0.882060
-1.222115 0.393580 3.054331
1.296632 -0.205727 2.978595
-0.275688 0.361661 4.758243
-0.394769 0.296854 4.600782
-1.132560 0.816999 1.751783
1.204552 0.813291 0.270929
-1.508657 0.002817 1.613662
-0.468386 -0.201052 4.082738
1.045845 -0.822873 2.116277
0.305831 -1.136855 3.192232
0.308131 -0.360111 4.287123
-0.449163 -0.310261 4.934834
0.875482 0.535919 3.644776
-1.566530 -0.072843 1.449126
-0.783545 1.222969 1.479059
0.446960 -0.293823 4.439802
-1.069922 -0.993587 0.204793
-0.242242 1.481343 1.051401
0.124434 1.391397 1.458360
0.094000 -0.442479 4.359539
-0.295438 -0.875239 3.670002
-0.971387 -0.806111 2.631728
1.059544 -0.913559 1.443364
-0.668926 -1.369000 1.218889
-1.052146 -1.047462 1.955037
-0.741577 1.306699 0.971752
-0.546460 -1.132032 3.186979
-1.341039 0.368140 1.798633
-0.830773 -0.931880 3.262694
-0.292638 -1.339457 1.641438
0.437954 0.191447 4.653276
-1.457538 0.141810 0.947871
-0.430652 0.234872 4.372857
0.220326 -0.483667 4.447875
0.975812 0.857919 1.806427
-0.014338 -1.355470 1.854725
-1.239708 -0.829539 0.830730
-0.228707 -0.416742 3.964830
-0.476457 1.145845 3.076113
0.389850 0.306450 4.969312
-0.960815 -0.653902 3.404006
1.343904 -0.062684 2.840354
-1.061643 -1.023822 0.907620
-0.255994 -0.380860 4.626594
0.671398 1.282316 2.310389
0.484785 1.389739 0.990004
1.190792 0.749621 1.113203
-1.264241 0.816380 1.272562
-0.362762 -0.289781 4.093077
-0.416084 -0.177808 4.678764
1.379182 -0.190891 2.318407
0.719057 -0.925514 3.147709
0.740096 -1.347349 0.850629
-1.601170 0.080998 0.125193
-1.519211 -0.341980 0.373656
-1.310032 -0.034661 2.756909
-0.305750 -0.420327 4.478778
-0.587096 0.092544 4.854113
-1.357494 0.441184 0.963844
0.222897 -1.471419 0.946924
-0.764200 1.078970 2.944919
-0.285302 0.360591 4.478633
-0.884372 0.959099 2.346700
-0.188777 -1.426666 1.909038
-0.737328 -1.078255 2.382834
-0.099700 1.503739 -0.096541
0.482968 -1.420428 0.486220
-1.216329 -0.927474 0.718606
0.289473 1.241323 3.294411
-0.813706 1.208912 1.675654
0.288463 0.374747 4.079943
0.236568 1.409659 0.731642
1.538259 -0.166917 1.294481
-0.137558 1.473215 1.543097
0.064489 1.126553 3.503744
-0.552618 0.059318 4.112125
-0.874011 0.856574 3.237774
-0.797407 -1.147973 2.228763
0.459028 -0.028815 4.176302
-0.510661 -1.354404 0.846797
1.446572 0.542280 1.325182
1.183829 -0.735712 1.855082
-1.288708 0.375934 2.623661
-1.253317 0.358935 3.323229
0.109050 1.389613 2.476156
0.504134 -0.048596 4.780710
0.955461 -1.043502 1.710899
-0.428756 0.262092 4.390394
1.389297 0.593717 0.452816
-0.064700 -1.254626 3.312674
1.064328 1.028273 1.593266
-1.265206 -0.459915 2.764099
-1.281393 -0.414766 3.431375
1.269706 0.506197 2.619800
-1.134410 0.304350 3.150826
1.243567 -0.846641 1.628760
0.052864 0.468186 4.248659
-0.157292 -0.453337 4.325275
-1.034142 0.826445 2.015330
1.086937 0.874155 1.995509
-1.235032 -0.482862 2.581021
-0.382102 0.378339 4.178169
0.568824 1.369047 1.584264
0.872620 -1.176929 0.447875
0.053731 1.370416 2.648766
-1.321577 -0.323260 2.919340
1.185423 0.833928 1.318133
0.390240 1.407324 1.940593
0.886267 -1.096504 2.146808
-0.583113 1.273725 2.079343
-1.254555 0.206461 3.066402
1.467169 0.285583 0.616261
-0.084863 1.274680 2.617706
0.228770 -0.493784 4.753719
0.907543 0.822117 3.125987
0.351104 1.051513 3.570725
-0.347420 -1.474388 0.095690
-0.045716 1.121997 3.523626
-0.119645 -1.452328 1.047777
-0.625303 -1.112389 2.453280
1.305518 -0.761075 0.113441
0.091529 -0.413267 4.326370
-1.002143 1.111935 0.664853
-1.161553 0.403348 3.082337
0.516856 -1.337498 1.593322
0.170872 1.501078 0.134857
-0.450795 -0.013712 4.632359
1.190790 -0.741402 1.979121
-0.746128 1.052013 3.128672
1.121468 -0.983143 1.609783
0.790295 0.925132 3.478655
0.651854 -0.564923 3.732193
-0.409833 0.432147 3.949806
-1.184815 -0.261723 3.297433
1.346110 -0.733401 0.180021
1.060712 0.352329 3.634181
0.414512 0.912089 3.534398
-0.974446 0.563769 3.538764
0.136258 -1.479786 2.006344
-1.399659 -0.249161 0.338153
0.341767 -0.356945 4.392536
0.406352 -0.089460 4.164275
0.167807 -1.382791 1.205205
-0.467849 0.396396 4.016784
-1.192076 0.083286 2.866866
0.310987 -0.535162 3.860473
-0.336798 -1.497230 0.427395
-0.833187 -1.111491 0.329018
-0.036779 -1.452996 2.303443
0.013126 -0.890673 3.699820
1.411190 -0.200872 1.842669
1.392098 -0.523402 0.506972
-1.128457 0.426893 3.043596
0.535792 0.996326 3.439592
-1.245847 -0.722234 0.398200
0.938821 1.022380 1.767395
-0.609333 -0.560852 3.779482
-0.120753 -1.337479 2.582462
0.827354 1.157252 1.749266
0.162557 -1.376267 2.526593
-0.113440 -0.534390 4.722727
-0.264951 0.428406 4.851402
-0.115788 1.307124 2.417279
0.920690 -0.199520 3.615761
-1.116121 0.922362 1.524967
1.292631 0.059628 3.112088
-0.252265 -1.446317 0.968737
0.359256 -0.382891 4.147031
0.833175 -0.925171 3.395118
-0.207549 -0.406845 4.441472
-0.165404 -1.322800 2.493688
-0.280879 1.299668 2.846857
-1.472577 -0.153634 -0.021920
0.603981 -1.236588 3.023485
0.274407 -0.358943 4.614639
-0.144789 -1.354348 2.206923
0.696357 -1.134948 2.885354
0.157801 0.457430 4.942326
-0.307408 -1.328185 2.555339
1.309947 0.512468 1.535489
-0.257100 0.479662 3.880759
-1.141990 0.733220 1.952189
-0.637375 -1.286932 1.881498
-0.303067 -0.288568 4.519598
1.319695 0.428838 1.682241
0.533751 -1.282187 0.119826
0.256127 0.506654 4.462939
-1.137598 0.575527 3.520723
-0.202977 0.472578 3.947861
0.047381 -1.411967 1.758355
0.599904 -0.200816 3.742384
0.699773 -1.202779 0.706982
0.584857 1.279531 0.961001
0.031033 -0.439293 4.927649
-0.317189 -1.421882 1.000113
-0.302172 1.348345 1.882016
0.539428 -0.192357 3.924634
-1.377934 0.233360 2.297166
0.260290 -1.409241 1.301829
-0.922429 -0.952370 3.022675
0.371122 -0.299092 4.546660
-0.164899 1.423018 1.753729
-0.858490 -1.132017 1.553050
0.683361 1.376305 0.970994
0.473237 -1.359482 1.084198
1.175574 -0.563979 2.215715
1.025321 0.964678 2.621220
-0.417507 1.319864 1.903709
-1.385111 0.080606 2.593866
-1.367484 0.458076 1.283637
1.418194 0.008978 0.616423
-1.316896 0.603501 0.510949
-0.515907 0.225971 4.566248
-0.133385 0.546527 4.313205
-0.412651 0.323222 4.731573
-0.325295 -0.271462 4.692459
1.325582 0.237461 2.897670
-1.121502 1.014749 0.481697
0.459495 -0.289430 4.579974
-1.446283 0.453525 1.006881
1.296873 -0.597356 2.197333
0.000579 0.524937 4.222558
-0.731628 1.292233 1.017167
-0.253692 1.463348 1.099151
1.279256 -0.087342 3.033451
-1.417645 0.460871 0.278827
-1.236978 -0.686504 1.676009
-0.992119 0.914670 2.624726
-1.210646 0.706244 2.643627
0.168150 0.384051 4.587173
0.399863 0.380833 4.761745
0.689641 -1.426859 0.542298
-1.057813 -0.723981 3.512122
-0.997827 -0.141057 3.669640
-0.130697 0.879430 3.672601
-0.007255 1.526864 0.503449
-1.357277 0.564759 1.868045
0.594961 -0.060938 4.294931
-1.244138 0.794563 1.473793
0.923834 -1.053701 2.192330
0.439918 0.054163 4.210109
1.334327 -0.769797 0.336717
-0.569522 -0.460464 3.848141
-0.184910 0.428938 4.563911
1.246544 0.547600 1.714597
-1.308631 -0.445679 2.403734
-1.162915 0.970970 0.285133
-0.287856 0.390029 4.539282
-0.288320 -1.412055 0.853269
-0.569495 0.959203 3.543302
-0.418223 0.292864 4.249039
0.060291 -1.497394 1.664470
-0.307467 -0.276614 3.953671
-0.910838 0.948910 2.754708
-0.074858 -0.441218 4.818301
-0.941283 -1.120398 1.168823
0.754514 -0.984925 3.037339
-1.440666 -0.126831 1.593221
1.261766 -0.216101 3.178743
-0.486744 1.417955 1.301866
1.419134 0.017182 1.488904
1.297685 -0.039750 2.670224
1.512478 0.531834 0.499309
-0.426254 0.715043 3.666537
-0.271229 0.404722 4.514305
-0.458302 -0.309153 4.190354
-0.417175 -0.950461 3.658320
-0.028182 1.395891 1.669203
0.590903 -1.222057 2.399865
0.364515 1.391220 0.623947
0.308341 -0.159240 4.963340
1.206419 -0.302598 2.505420
-1.242672 0.559353 1.949108
1.320572 -0.214013 1.752408
-1.112635 -0.577010 3.127268
-0.116091 -1.502768 0.574245
1.232258 -0.694322 1.938619
0.434373 0.197412 4.869455
1.411374 -0.518225 0.902626
-1.079099 0.360677 3.432506
-0.783693 -0.822407 3.549751
-0.432411 0.377688 3.869891
-1.199991 0.618578 2.598582
-1.129918 -0.869915 2.176936
-0.334842 -0.342998 4.902004
-0.112423 1.400673 1.162117
1.171157 -0.714576 1.970120
0.081817 -0.504788 4.796712
0.901962 1.133411 2.124429
-1.066383 -0.700969 2.864192
1.075879 -0.868278 1.854515
-0.347213 0.412293 4.369226
-1.286320 0.232602 2.671572
0.918616 0.843111 3.113566
-0.271068 0.424083 3.953924
0.544390 -0.861329 3.590069
-0.925777 0.918442 2.420887
-0.030117 1.394475 0.878180
0.072024 1.240481 3.198842
1.105062 -0.547363 3.144209
-1.336920 -0.326737 1.942930
-1.497655 -0.266367 0.449737
0.048189 0.546866 5.005239
-0.782187 0.949581 3.571678
-0.841827 -0.957405 2.338796
-0.955093 1.130755 0.592237
-0.081557 0.496101 4.292670
0.127991 -1.359395 1.462012
0.312606 1.424830 1.635427
0.421709 -0.158826 4.959029
-1.116596 -0.899269 2.342737
0.483661 1.326670 0.852751
-0.586725 0.203320 3.852754
0.408630 0.245562 4.561519
0.514157 0.176782 5.098047
1.064810 -1.086759 0.741869
1.060855 -0.802089 1.902503
-0.205845 0.466648 4.876913
0.682319 1.224994 1.653105
-0.934304 1.032657 2.395429
1.191612 0.689067 1.673446
-0.211006 1.241700 3.145340
0.581057 0.399428 3.850345
-0.475256 0.055685 4.484054
-0.436926 0.128102 4.805077
-1.495134 0.136152 0.238658
1.343828 -0.331915 2.647524
1.033542 0.871208 3.260154
0.858324 -1.074598 0.980393
0.376430 -1.449672 1.757395
-0.429587 -1.278527 2.240745
0.463348 0.195774 4.791044
0.738427 -1.005575 3.037775
-0.172167 1.461097 0.805509
-0.277167 0.412363 4.243437
-1.004605 0.179513 3.591129
-0.397909 -1.454439 1.374356
-1.104236 0.937150 0.864711
1.087658 0.930306 1.776253
0.292267 0.331306 4.652680
1.005850 -0.118587 3.510092
-1.101222 0.594113 3.295513
1.009053 -0.227950 3.611715
1.228373 -0.754964 0.725558
0.394301 1.222850 2.934034
0.722359 1.130615 2.434276
-1.338904 0.741932 0.206588
-0.900327 -0.713701 3.496166
-1.206578 -0.795901 0.200071
0.162543 -1.174262 3.580202
-0.248492 -1.447975 0.885338
1.118319 0.687856 2.946521
-1.408991 -0.247515 1.622370
1.272097 0.650884 1.426628
-0.134763 -0.519414 3.880342
0.656258 1.316027 1.637291
1.427338 -0.399024 0.163018
0.440424 0.858260 3.628316
-0.835548 -1.185045 2.361228
1.411820 0.056592 1.465163
1.466293 -0.082997 0.704542
-1.105874 -0.882065 2.014235
0.470547 -0.302720 3.991277
-0.835169 0.855517 3.449386
0.561305 0.996321 3.472625
0.937532 1.142025 2.199606
-0.155438 -0.515687 4.008080
0.483491 0.199346 4.548606
1.143652 0.947563 1.892136
-0.436152 1.396401 1.792827
-0.108399 -1.370881 2.422188
-1.374266 -0.321397 1.601409
-0.742586 -0.896827 3.535756
-0.449967 0.356141 4.445265
1.383523 0.492946 1.338406
-0.473207 -1.326499 2.215731
-0.319639 -0.653774 3.792365
-0.254893 1.559754 0.026421
0.190515 -1.437550 0.431871
1.205648 -0.874465 1.048634
1.333774 0.518579 2.036966
-0.369919 0.350126 4.283549
0.746290 1.185747 2.510240
1.350967 -0.555703 1.422428
-0.082316 -0.651412 3.870274
-1.139050 0.864234 1.269562
0.328845 1.425059 1.198809
-1.403899 -0.459687 0.519332
0.466258 0.190719 4.376340
1.320003 -0.784997 0.320092
-0.212383 0.912865 3.640786
-1.195252 1.012458 0.864483
-0.805126 -1.045447 3.235681
0.058294 -0.467890 4.231876
0.056995 -1.468123 1.548491
-0.530694 -1.294275 1.837276
-0.964124 1.008608 2.294903
-1.381235 0.423454 0.120320
-0.787213 -0.312213 3.761669
0.265984 -0.903663 3.603962
0.436730 -0.249607 4.076251
1.003474 1.033299 1.346554
0.958601 -0.960241 2.475438
-0.809053 -1.143675 1.670680
0.642487 -1.219174 1.286832
0.221973 0.493670 4.282766
0.425044 0.235587 4.782678
-0.882938 0.616516 3.538837
0.274988 1.413371 1.264092
-1.388336 -0.157632 2.588802
0.611128 -1.180106 3.058677
1.468417 -0.350906 1.784621
1.235644 -0.416702 2.704939
-1.371450 -0.590764 2.080143
0.778791 -1.103993 1.570134
-0.398671 1.397662 1.170888
1.241841 0.737457 1.988795
0.235568 -1.163647 3.319963
1.170061 0.080034 3.482095
1.337702 0.252249 1.956566
0.464374 0.019696 4.856714
0.522000 -0.576697 3.694656
1.438705 0.092336 0.255493
1.448235 0.313129 0.883043
1.212219 0.924672 1.599536
1.140596 -0.668890 2.504916
0.133781 -0.502990 4.911393
0.095570 1.354641 1.635949
-1.319414 0.095387 2.652024
-0.876434 -0.896021 3.329989
0.214392 0.896378 3.606030
0.212243 1.481672 0.128786
-0.959326 0.752776 3.455727
0.730857 1.152115 1.801812
1.272622 0.416749 2.638585
-1.381911 0.400824 1.501166
-1.452425 0.274702 0.862495
0.156982 -0.431798 5.000491
-1.010002 -1.048236 0.869140
-0.925871 -0.722218 3.251041
-1.227218 0.886799 0.507257
-0.123276 0.502589 4.274503
0.340607 -1.379270 0.249330
1.435754 0.475195 0.062192
-0.046583 -0.506172 4.479841
-0.501383 0.089331 4.737428
0.820551 -1.080919 2.100035
-1.415592 -0.582209 0.238251
-0.396930 0.545363 3.685339
0.875076 -0.829015 3.326497
1.172003 -0.933365 1.706705
-1.305719 -0.661481 1.688823
-0.927049 -1.119960 1.386466
0.458978 -0.276664 4.226813
0.528168 1.109445 3.443692
1.075138 1.001025 0.303443
-0.256885 0.836499 3.648678
-1.410391 -0.068845 0.033606
-0.324395 1.236756 3.180507
0.526022 1.140722 3.264475
1.442165 0.454918 1.316814
-0.696265 0.525698 3.727686
0.044094 0.505115 4.942407
-0.589491 -1.094545 3.079368
1.383518 -0.318343 1.042840
-0.346626 -1.212159 3.268881
-1.474495 0.628989 0.197230
1.229960 -0.409781 3.068101
-0.919207 1.064387 1.624989
0.006153 1.386924 2.010785
1.427688 0.241248 1.460123
-0.317402 1.310033 3.024320
-1.202796 -0.008620 3.173541
0.417612 -1.443268 1.024581
-1.067321 -0.690243 2.175094
-0.503845 0.070488 4.284111
0.159673 -0.425635 3.992417
1.494949 -0.029435 1.451312
0.185163 -1.386189 1.828358
0.941823 1.136356 2.032774
0.597370 1.264975 0.702148
1.106881 0.689181 3.185690
-0.274444 0.392842 4.826809
-0.357517 0.358366 4.234456
-1.150962 0.476271 3.134791
0.495580 1.313032 1.255361
0.532424 -0.535256 3.784305
-1.321926 0.458179 0.472223
-0.386898 -0.360912 4.678770
-0.261334 -0.567556 4.415135
-0.056508 -1.527233 0.421014
-0.732679 1.120178 2.496849
0.454193 0.082435 4.596443
0.351436 -0.440364 4.139909
-0.917894 -0.794909 3.124725
0.222709 -1.328158 2.757680
-1.431158 -0.175689 1.724659
-1.408227 0.534740 0.220150
-0.826738 -1.068158 3.248889
0.029519 1.240137 2.793938
-1.056451 -0.779600 2.368602
-0.165680 1.470896 0.862560
-1.433317 0.340667 1.284967
1.408460 -0.648489 0.391916
0.021517 1.468874 0.877749
-0.661047 -0.088886 3.817108
0.158723 -1.386890 0.837604
1.012785 -0.702835 3.407292
0.749210 1.322492 1.875135
0.206897 1.430702 0.384838
-0.455012 -1.346973 1.486788
-1.111442 0.973209 0.508777
0.362807 -1.002399 3.577450
-0.490795 -0.003044 4.816379
-1.325470 0.198775 1.210899
-0.692744 -1.247661 0.407024
0.813890 -1.274824 1.554901
0.402046 0.329934 4.407727
1.477299 0.177220 1.383310
-0.567086 -1.324483 1.742611
0.846130 -1.320779 0.429695
0.107485 1.312485 2.226720
-0.211844 1.258981 3.052958
0.070202 0.521469 4.085376
-0.628236 1.361629 1.385924
1.340907 0.519104 1.219370
-0.311049 0.398497 4.322909
1.479532 -0.002560 0.822950
-0.120892 -0.814614 3.694265
0.366943 0.318267 4.940341
-0.355039 1.063761 3.515106
1.187068 -0.863980 0.573594
0.955299 -0.863274 3.005689
-0.550658 0.983154 3.379459
-0.527356 -0.054999 4.299547
1.223626 0.861601 0.952770
1.451627 -0.393547 1.010568
-0.476748 0.303213 4.928606
0.293272 -0.407582 4.507878
-0.902726 -0.821875 3.335279
1.346050 -0.303779 1.764599
-0.206510 0.369406 4.106761
0.789343 0.844179 3.126306
1.302113 -0.603879 0.751260
-0.791431 -1.153575 1.447500
0.119624 1.493175 0.403954
0.494346 0.182926 4.565508
0.824571 -1.220786 2.250022
1.315963 -0.565255 0.850925
-0.761519 1.128459 2.232994
1.352202 0.442176 1.493747
-1.217922 0.138289 2.813695
0.244091 1.534453 1.221084
-0.930620 -0.922623 2.522989
-0.409165 -1.302740 2.500534
0.346078 1.330397 2.859971
-0.002762 -1.480214 0.384310
1.312839 -0.819993 0.090537
-1.393343 0.451339 0.973463
-0.228902 1.249244 3.491585
-1.149395 0.989197 1.139603
1.061567 1.019299 1.201786
-0.296058 1.288337 3.093596
0.781886 -1.364881 0.328661
-0.208847 -1.188745 3.055210
0.496019 -0.675058 3.751452
-1.085972 -0.467483 3.278944
0.389331 0.508378 3.930580
-0.456682 -0.029617 4.471451
-0.648598 0.977860 3.549714
0.629057 -1.309692 0.770402
-1.095176 -0.847885 1.693217
-0.592022 1.278197 2.278330
0.696981 -1.301821 1.721236
0.076560 -1.462685 2.007015
-0.467877 -0.351966 3.985461
-0.518599 -1.382734 0.299320
1.187036 -0.804105 1.165974
-1.392161 0.164167 2.058416
1.401900 0.147561 1.393677
1.239653 0.863240 1.004369
0.001040 0.486541 4.271896
-0.351962 1.233851 2.112868
-0.419186 -1.223754 2.828173
-0.796415 -1.249064 0.881895
0.169828 0.480711 3.814854
-0.153652 0.397261 4.079716
-1.343508 -0.667947 0.389437
0.603133 -0.195430 4.786689
-0.684508 -1.352159 0.074735
1.453087 -0.235285 1.133041
-1.201852 0.770257 2.291668
-0.170109 1.238253 2.881400
-0.762591 -1.215729 2.266150
-0.172357 -0.507225 4.244271
1.132440 -0.829092 1.327381
1.474801 -0.089541 0.079451
-0.304111 -1.457269 0.849348
-0.787384 -1.251107 1.114274
0.914740 0.692920 3.290075
-0.017186 -0.797857 3.750141
-0.321173 1.172987 3.447272
0.618512 -0.775821 3.703370
-0.433329 -1.354516 2.268208
-0.413772 0.377303 4.737719
1.012615 0.998509 1.732227
-0.818280 -1.038357 1.463957
0.232051 0.392697 4.662233
-0.468512 0.776160 3.661045
-1.004281 -1.065774 1.836576
-0.099102 -0.480814 4.527471
-0.275614 -0.323126 4.349878
0.516779 0.029605 4.035111
-1.345476 -0.714266 0.043907
1.328309 -0.588640 1.797487
-0.295601 1.428191 0.733080
0.482500 -0.002322 4.781695
1.287553 0.536876 2.319046
1.417159 0.442526 1.448776
-0.460293 -0.479286 3.889493
-1.323769 0.255465 2.745947
-0.145084 -1.495880 0.505893
0.572166 1.275656 1.202249
-1.011818 1.050334 1.470336
1.247316 -0.658839 0.657981
-1.506604 -0.141055 0.479138
0.058173 0.498606 4.285790
1.219428 0.562838 2.882546
-0.558096 1.293642 2.207401
1.314957 -0.285284 2.397461
-0.487967 -1.432014 -0.017947
-0.774954 -1.308304 0.344089
0.207485 -0.409556 4.657867
0.945953 -1.086352 1.391114
0.673598 1.018372 2.942151
-0.110987 0.512209 4.111563
1.000960 -0.819476 3.047210
0.936277 -1.172706 0.568195
-0.950061 -1.201523 0.740078
-1.048089 0.838748 1.515721
1.195462 0.607954 2.954882
0.324613 -0.348887 4.390802
-0.993743 1.055214 0.924043
-1.280093 0.611301 1.562299
-1.192880 1.049842 0.697810
1.338072 -0.796198 0.211968
1.316886 -0.563706 1.426555
1.310602 -0.449673 2.805116
1.073914 0.360453 3.621739
0.436601 -0.194735 4.056101
0.433834 0.038300 4.119926
0.248486 -1.499992 0.706940
-0.268599 -1.588578 1.183821
-0.034264 -1.235328 2.446833
0.976813 -0.873099 2.887793
-0.844376 0.561733 3.634426
-1.250071 -0.444391 2.883158
1.534713 -0.224473 0.760378
0.317047 -0.648078 3.871255
1.333476 -0.231712 2.451406
-1.509562 -0.143189 1.260759
1.329774 -0.167789 2.846428
-0.402712 -0.264504 4.642845
0.025092 -1.466786 0.987730
1.378299 -0.558694 1.002000
1.179459 0.264322 3.079464
-1.291933 0.587623 0.845120
-1.001809 -1.015589 1.582997
1.410614 0.558860 0.725863
-0.723213 1.314325 1.475944
0.904510 -0.937274 2.878465
1.388518 -0.257123 2.592004
-1.335856 0.188653 1.851943
-0.439573 -1.472229 1.106767
1.413675 -0.499667 1.065191
-0.421806 0.719666 3.752086
1.460236 -0.041676 0.715661
0.471687 -0.050537 3.983352
-0.172909 0.443603 3.961814
1.238121 -0.799408 0.689907
1.356936 -0.452109 1.763246
1.189900 0.996049 1.074776
-0.077020 0.445423 5.004087
-1.068332 -0.431071 3.538367
-1.236923 0.126350 3.273714
-0.595577 0.917144 3.728843
1.346665 0.540273 0.679713
-1.256029 0.636619 2.288430
0.204530 1.281313 3.110555
-1.139712 1.006731 1.224231
-0.250366 0.721781 3.745596
0.054826 1.273497 2.698959
-1.076309 0.624292 3.027173
1.501752 -0.308987 0.295937
-0.487216 0.134697 4.359424
1.128775 -0.823357 2.453215
-0.670848 -0.815937 3.579967
0.729673 1.295420 0.796371
-0.743337 -1.199822 0.760790
1.247453 -0.560231 2.493051
-1.061744 0.534362 3.329092
0.676862 1.063594 2.601479
0.452872 0.325459 4.070240
-1.270397 0.487992 2.191441
-0.310170 0.361328 4.354680
-0.316369 -0.334285 4.605882
1.015201 0.843835 2.682971
-1.310992 -0.155993 1.549064
-0.170022 -1.511485 1.859486
-1.424524 -0.166693 2.287407
0.104817 0.847535 3.714138
0.107898 -1.363757 2.099916
-1.439743 0.337665 0.748333
0.507965 -0.206598 4.972335
1.264685 -0.536361 2.382140
-0.624096 1.387726 1.510604
-1.321620 0.271619 2.307083
0.541274 0.122336 4.838778
0.884214 1.237338 -0.017559
-1.172074 0.385096 3.152574
1.189745 -0.190726 3.506345
1.135080 0.696002 2.846618
-0.372897 -0.441081 4.692903
-0.758686 1.315583 0.245092
-0.592184 0.999511 3.485517
-0.170128 -0.452475 4.320793
0.372550 1.363073 1.937610
1.078245 0.689463 3.248661
0.141743 1.580949 0.523068
-0.561588 1.204096 3.103992
1.045618 0.282187 3.606163
-1.215799 0.479195 2.560658
1.022959 0.974725 1.716483
0.062339 -0.463906 4.296276
-1.367955 -0.657361 1.695320
0.031699 -0.495179 4.868096
0.427924 -0.092953 4.654315
1.250815 -0.710426 2.411085
-0.503131 0.270298 4.485805
0.106181 0.465970 4.051356
0.230892 1.308287 2.548402
0.073312 -1.427522 2.609680
0.303236 -0.399124 4.245631
-0.748270 1.219056 2.247363
0.695279 0.991263 3.213630
0.130656 0.417500 3.949119
0.523596 0.029964 4.629612
-0.780919 -1.201302 1.249155
-0.417068 0.293592 4.214448
0.503082 0.073975 4.072085
-0.024551 -1.425116 1.402842
-0.993242 -0.666355 3.549101
-0.765645 1.258206 0.281750
-0.063974 -1.197324 3.275565
-0.883945 -0.862647 3.354717
-0.664796 1.035927 2.930630
1.336661 0.640588 1.056969
0.437455 -0.072349 4.363632
1.156355 0.886726 2.136244
1.241661 0.235045 2.478174
0.205072 1.440360 0.732372
0.492691 -0.228691 4.646322
1.216119 -0.827758 0.779582
-0.224658 1.401708 2.041483
-0.663647 -1.345836 1.209837
-0.583660 1.138247 3.001705
0.475191 -1.273810 2.505366
0.976555 -0.797629 3.350802
0.083838 0.502451 4.962693
0.347051 -0.406306 4.694097
-0.400062 -0.397659 3.968912
-0.882004 0.290880 3.631046
0.712185 -0.411417 3.693683
-0.651183 1.365548 1.457567
-0.869183 0.913357 3.002644
-0.217285 0.510053 4.676392
1.299908 -0.342607 3.346171
0.451686 -1.120637 3.530595
1.209388 -0.626484 2.968556
0.092396 1.443603 0.755198
0.506749 -0.251995 4.742951
-0.360202 0.199181 4.188860
-0.982065 -1.146434 1.113231
-0.482565 0.229103 4.347887
-1.550493 0.114586 0.237959
0.479272 0.301477 4.050970
-1.367097 -0.374008 2.245152
-1.366456 0.167271 1.835164
1.418871 -0.313467 0.555134
-0.000206 0.459343 4.460540
1.261805 0.774815 1.750811
0.584471 1.010882 3.199042
0.893674 -0.860618 3.222214
-1.263565 0.691797 1.940450
-0.552631 0.079887 3.905632
-0.250494 -0.542068 3.876796
-1.133389 -0.879740 0.811151
1.289858 0.607356 1.722577
-0.344933 1.508229 1.385832
-0.431413 -0.009033 4.359444
-0.508254 0.125518 4.236332
0.444056 1.176948 3.299480
-1.413072 -0.179828 2.377975
-1.168853 0.680075 2.436611
0.385785 -0.129526 4.444933
-0.349403 -0.237502 4.785548
-0.161411 -1.327447 2.569890
0.767826 -1.251063 0.442231
-0.682097 -1.217769 2.490815
-0.049319 0.568173 4.473811
0.636411 0.125809 4.504734
0.789942 0.908046 3.329928
-0.068486 1.367333 2.033926
-0.820179 1.426718 -0.014833
0.506583 0.166983 4.636710
-1.068996 0.905243 0.675841
0.357875 0.581233 3.811588
-1.027802 1.072152 0.805860
-1.107416 -0.730563 2.499430
1.450193 -0.466050 0.231558
0.648367 -2.132686 4.989043
-1.918836 0.659165 -0.067426
2.247271 -0.711628 2.334836
1.324461 -0.851854 0.982645
0.378607 1.210321 2.884099
-0.152724 2.394243 1.499654
0.914358 1.613224 0.515185
-2.098555 1.947476 0.728685
-2.020185 -1.161731 5.963824
-1.467405 1.801386 0.092333
-1.246598 1.473154 0.914848
1.109135 2.379847 4.345162
0.926549 0.561411 0.224342
2.194938 -2.342408 2.357989
-1.058131 -0.788548 1.888499
-1.100138 -1.175209 2.114027
-2.204143 -2.483462 1.258606
-2.282756 -2.221220 -0.858272
-0.778230 1.500968 0.288404
2.158472 -0.617351 2.310583
-1.857059 -1.175613 0.285243
-2.195477 0.336651 3.054064
-0.365644 -2.305789 -0.476661
-1.315132 1.783958 4.002427
-0.914694 1.767580 5.245874
-2.175859 -0.474227 5.343186
-2.249861 -2.167659 4.881959
-1.266628 -0.918844 1.506509
1.415571 2.489435 5.050658
1.166428 -1.949271 -0.124202
0.391337 2.022836 -0.217368
1.269431 -0.920569 4.701226
-1.607391 0.891205 4.413168
-0.387040 1.744651 0.193957
-1.445739 1.693939 0.019637
2.121974 1.886425 0.318893
-1.086046 -0.706176 5.729877
-1.814860 -0.381336 4.942932
0.724513 -0.747900 0.416816
0.988289 -1.853061 1.178566
0.442012 -0.753880 -0.000808
-0.572022 -2.359534 0.707938
1.164318 0.539939 3.674933
0.955562 0.051568 -0.107810
0.857951 0.664147 4.680434
1.577766 -2.464629 -0.229557
-0.711674 -0.777783 1.478015
-1.658950 1.574249 1.299199
0.079603 -2.074746 1.488435
1.623991 2.009115 -0.545785
1.431983 -1.160953 1.432265
-0.085064 2.295847 3.277944
-2.165653 2.080985 0.615823
-1.215743 0.960018 4.508378
0.942880 0.880348 1.170846
-1.723651 -1.143569 0.126390
-0.667381 -0.388077 0.087753
2.415822 1.787623 0.423725
-2.167604 -1.460054 -0.333532
0.889444 -1.588237 5.371900
1.322540 1.272923 4.158079
1.258910 1.354848 4.213742
2.307509 2.004959 2.417956
-0.520148 2.472243 4.069674
0.159124 1.193662 0.060836
-0.318688 2.158196 3.864205
1.159098 1.770113 4.094085
-1.153587 -2.311981 3.276310
-1.157501 1.092977 2.513326
-0.072078 0.101081 2.774122
0.725681 -1.799849 1.022458
-2.473956 2.061474 5.989009
0.619347 -1.726852 5.269008
-1.504477 -2.430924 2.497082
-1.449462 -0.909056 2.236147
0.876084 0.127741 2.460907
-1.527790 0.983745 -0.428802
-2.278811 1.250330 -0.973642
-0.512232 1.039757 5.008478
0.571705 -1.577040 3.881817
2.451605 -0.190052 5.528447
0.719422 0.208791 4.338160
-1.461853 -0.958926 0.751105
-1.293451 -0.889161 -0.159574
-0.431726 0.499507 1.744862
-1.372841 -0.895969 5.431553
-0.531823 2.238668 3.240556
0.766253 -0.312180 0.903832
1.474580 -0.087945 2.880327
-0.236118 -1.976731 3.671522
1.370516 2.235935 1.278266
1.724649 0.251981 1.620974
-2.459807 0.168557 3.815251
1.123290 -0.411214 3.248891
-1.758205 2.453369 -0.292406
1.403154 0.334008 1.982478
-2.345685 -2.429527 5.959406
0.553469 -1.150477 3.936656
1.641283 2.004102 3.233040
-0.748342 -1.225554 3.543459
